%TF.GenerationSoftware,KiCad,Pcbnew,9.0.5-1.fc42*%
%TF.CreationDate,2025-11-14T19:16:10+10:30*%
%TF.ProjectId,DivaConIO,44697661-436f-46e4-994f-2e6b69636164,1.1*%
%TF.SameCoordinates,Original*%
%TF.FileFunction,Copper,L2,Bot*%
%TF.FilePolarity,Positive*%
%FSLAX46Y46*%
G04 Gerber Fmt 4.6, Leading zero omitted, Abs format (unit mm)*
G04 Created by KiCad (PCBNEW 9.0.5-1.fc42) date 2025-11-14 19:16:10*
%MOMM*%
%LPD*%
G01*
G04 APERTURE LIST*
%TA.AperFunction,Conductor*%
%ADD10C,0.300000*%
%TD*%
%ADD11C,0.300000*%
%TA.AperFunction,NonConductor*%
%ADD12C,0.300000*%
%TD*%
%TA.AperFunction,ComponentPad*%
%ADD13C,0.800000*%
%TD*%
%TA.AperFunction,ComponentPad*%
%ADD14C,6.400000*%
%TD*%
%TA.AperFunction,ViaPad*%
%ADD15C,0.700000*%
%TD*%
G04 APERTURE END LIST*
D10*
%TO.N,GND*%
X162400000Y-116650000D02*
X168100000Y-116650000D01*
X165250000Y-116650000D02*
X165250000Y-119350000D01*
X162400000Y-116650000D02*
X162400000Y-119350000D01*
X168100000Y-116650000D02*
X162400000Y-116650000D01*
X168100000Y-119350000D02*
X162400000Y-119350000D01*
X162400000Y-119350000D02*
X162400000Y-116650000D01*
X168100000Y-119350000D02*
X168100000Y-116650000D01*
X168100000Y-119350000D02*
X168100000Y-116650000D01*
X165250000Y-116650000D02*
X165250000Y-119350000D01*
X162400000Y-119350000D02*
X168100000Y-119350000D01*
D11*
D12*
X167177294Y-117321185D02*
X167105866Y-117249757D01*
X167105866Y-117249757D02*
X166963009Y-117178328D01*
X166963009Y-117178328D02*
X166605866Y-117178328D01*
X166605866Y-117178328D02*
X166463009Y-117249757D01*
X166463009Y-117249757D02*
X166391580Y-117321185D01*
X166391580Y-117321185D02*
X166320151Y-117464042D01*
X166320151Y-117464042D02*
X166320151Y-117606900D01*
X166320151Y-117606900D02*
X166391580Y-117821185D01*
X166391580Y-117821185D02*
X167248723Y-118678328D01*
X167248723Y-118678328D02*
X166320151Y-118678328D01*
%TD*%
D13*
%TO.P,H4,1,1*%
%TO.N,GND*%
X109100000Y-49000000D03*
X109802944Y-47302944D03*
X109802944Y-50697056D03*
X111500000Y-46600000D03*
D14*
X111500000Y-49000000D03*
D13*
X111500000Y-51400000D03*
X113197056Y-47302944D03*
X113197056Y-50697056D03*
X113900000Y-49000000D03*
%TD*%
%TO.P,H1,1,1*%
%TO.N,GND*%
X171100000Y-49000000D03*
X171802944Y-47302944D03*
X171802944Y-50697056D03*
X173500000Y-46600000D03*
D14*
X173500000Y-49000000D03*
D13*
X173500000Y-51400000D03*
X175197056Y-47302944D03*
X175197056Y-50697056D03*
X175900000Y-49000000D03*
%TD*%
%TO.P,H2,1,1*%
%TO.N,GND*%
X109100000Y-116000000D03*
X109802944Y-114302944D03*
X109802944Y-117697056D03*
X111500000Y-113600000D03*
D14*
X111500000Y-116000000D03*
D13*
X111500000Y-118400000D03*
X113197056Y-114302944D03*
X113197056Y-117697056D03*
X113900000Y-116000000D03*
%TD*%
%TO.P,H3,1,1*%
%TO.N,GND*%
X171100000Y-116000000D03*
X171802944Y-114302944D03*
X171802944Y-117697056D03*
X173500000Y-113600000D03*
D14*
X173500000Y-116000000D03*
D13*
X173500000Y-118400000D03*
X175197056Y-114302944D03*
X175197056Y-117697056D03*
X175900000Y-116000000D03*
%TD*%
D15*
%TO.N,GND*%
X153000000Y-117000000D03*
X165000000Y-102000000D03*
X171000000Y-78000000D03*
X112000000Y-91000000D03*
X134500000Y-118500000D03*
X130320000Y-52436000D03*
X172000000Y-88000000D03*
X154704000Y-76820000D03*
X157244000Y-52436000D03*
X123000000Y-111000000D03*
X120000000Y-102000000D03*
X117000000Y-114000000D03*
X147000000Y-66000000D03*
X162000000Y-48000000D03*
X172000000Y-87000000D03*
X142004000Y-93076000D03*
X123000000Y-90000000D03*
X147000000Y-90000000D03*
X120000000Y-57000000D03*
X120000000Y-114000000D03*
X116500000Y-104500000D03*
X114000000Y-54000000D03*
X110000000Y-75500000D03*
X168000000Y-111000000D03*
X175500000Y-79750000D03*
X172000000Y-109000000D03*
X123750000Y-96000000D03*
X120250000Y-60000000D03*
X110000000Y-89500000D03*
X144000000Y-84000000D03*
X126000000Y-105000000D03*
X135000000Y-107250000D03*
X112000000Y-89500000D03*
X159000000Y-117000000D03*
X111000000Y-54000000D03*
X114000000Y-111000000D03*
X111000000Y-56000000D03*
X156000000Y-60000000D03*
X138500000Y-105500000D03*
X155000000Y-93500000D03*
X149624000Y-90536000D03*
X168000000Y-78000000D03*
X152250000Y-99000000D03*
X122000000Y-96000000D03*
X126000000Y-91000000D03*
X175500000Y-96000000D03*
X157244000Y-54468000D03*
X141500000Y-111000000D03*
X126000000Y-88000000D03*
X168500000Y-98000000D03*
X136500000Y-114500000D03*
X129000000Y-51000000D03*
X162000000Y-78000000D03*
X174000000Y-54000000D03*
X144500000Y-105500000D03*
X147000000Y-118000000D03*
X123000000Y-46000000D03*
X138000000Y-78000000D03*
X126000000Y-63000000D03*
X109000000Y-91000000D03*
X171000000Y-54000000D03*
X144000000Y-63000000D03*
X173000000Y-56000000D03*
X116500000Y-69500000D03*
X138500000Y-104500000D03*
X174000000Y-74000000D03*
X135500000Y-114500000D03*
X149624000Y-76820000D03*
X165000000Y-72000000D03*
X126000000Y-53000000D03*
X113000000Y-58000000D03*
X138000000Y-87000000D03*
X162000000Y-100000000D03*
X139500000Y-111000000D03*
X150500000Y-116500000D03*
X123000000Y-73500000D03*
X132000000Y-111000000D03*
X175500000Y-101500000D03*
X162000000Y-114000000D03*
X150500000Y-114500000D03*
X118250000Y-56000000D03*
X165000000Y-51000000D03*
X162000000Y-60000000D03*
X112000000Y-74000000D03*
X118500000Y-82500000D03*
X130320000Y-64120000D03*
X158894000Y-94000000D03*
X141750000Y-84000000D03*
X123000000Y-55500000D03*
X113000000Y-72000000D03*
X149500000Y-114500000D03*
X172000000Y-58000000D03*
X126000000Y-108000000D03*
X135000000Y-99000000D03*
X120000000Y-111000000D03*
X111000000Y-89500000D03*
X150500000Y-117500000D03*
X139500000Y-105500000D03*
X123000000Y-102000000D03*
X154704000Y-51420000D03*
X172000000Y-72000000D03*
X144000000Y-90250000D03*
X156000000Y-48000000D03*
X116500000Y-105500000D03*
X150000000Y-111000000D03*
X153000000Y-111000000D03*
X149624000Y-64120000D03*
X173000000Y-87000000D03*
X116500000Y-85000000D03*
X145500000Y-102500000D03*
X113000000Y-74000000D03*
X165000000Y-93000000D03*
X176000000Y-109000000D03*
X138500000Y-103500000D03*
X109500000Y-86000000D03*
X143020000Y-108000000D03*
X138000000Y-66000000D03*
X156000000Y-114000000D03*
X162000000Y-104000000D03*
X155250000Y-84500000D03*
X130320000Y-51420000D03*
X165000000Y-48000000D03*
X143020000Y-98156000D03*
X165000000Y-114000000D03*
X146500000Y-80000000D03*
X146500000Y-105500000D03*
X123750000Y-99000000D03*
X109000000Y-56000000D03*
X164500000Y-90000000D03*
X144500000Y-80500000D03*
X138250000Y-107500000D03*
X130320000Y-76820000D03*
X135000000Y-111000000D03*
X135000000Y-109000000D03*
X135400000Y-65136000D03*
X164500000Y-84500000D03*
X135000000Y-71000000D03*
X168500000Y-96000000D03*
X141750000Y-66000000D03*
X126000000Y-99000000D03*
X122000000Y-99000000D03*
X159000000Y-66000000D03*
X175500000Y-98000000D03*
X147000000Y-69000000D03*
X123000000Y-81000000D03*
X144000000Y-69000000D03*
X126000000Y-76000000D03*
X129000000Y-90000000D03*
X158316000Y-71978000D03*
X144500000Y-102500000D03*
X120000000Y-53000000D03*
X140500000Y-105500000D03*
X129000000Y-99000000D03*
X172000000Y-74000000D03*
X144000000Y-54000000D03*
X147000000Y-60000000D03*
X135400000Y-76820000D03*
X130320000Y-89520000D03*
X113000000Y-91000000D03*
X157316000Y-71978000D03*
X175000000Y-109000000D03*
X123750000Y-93000000D03*
X159276000Y-54468000D03*
X138000000Y-48000000D03*
X111000000Y-111000000D03*
X113000000Y-73000000D03*
X142000000Y-108000000D03*
X157563000Y-103040000D03*
X126000000Y-51000000D03*
X113000000Y-92000000D03*
X159000000Y-63500000D03*
X132000000Y-102000000D03*
X143500000Y-111000000D03*
X132000000Y-114000000D03*
X129000000Y-66000000D03*
X129000000Y-111000000D03*
X116500000Y-70500000D03*
X129000000Y-114000000D03*
X155316000Y-70978000D03*
X113000000Y-75500000D03*
X121250000Y-80000000D03*
X139500000Y-102500000D03*
X142500000Y-48250000D03*
X149624000Y-51420000D03*
X123000000Y-78500000D03*
X155252000Y-81138000D03*
X147000000Y-75000000D03*
X154704000Y-52436000D03*
X144000000Y-72000000D03*
X150000000Y-99000000D03*
X175575000Y-84075000D03*
X149500000Y-82500000D03*
X135400000Y-51420000D03*
X155250000Y-82750000D03*
X109000000Y-89500000D03*
X172000000Y-56000000D03*
X158260000Y-54468000D03*
X158260000Y-52436000D03*
X172000000Y-107000000D03*
X168500000Y-101500000D03*
X111000000Y-75500000D03*
X109500000Y-104500000D03*
X123000000Y-71000000D03*
X149624000Y-77836000D03*
X120000000Y-105000000D03*
X141000000Y-75000000D03*
X146000000Y-118000000D03*
X172000000Y-89000000D03*
X165000000Y-54000000D03*
X126000000Y-96000000D03*
X165000000Y-82500000D03*
X138000000Y-82000000D03*
X135400000Y-64120000D03*
X142500000Y-105200000D03*
X156000000Y-99000000D03*
X113000000Y-108000000D03*
X123250000Y-85000000D03*
X165000000Y-100000000D03*
X135000000Y-102000000D03*
X144000000Y-75000000D03*
X154250000Y-96000000D03*
X159000000Y-69000000D03*
X152250000Y-102000000D03*
X174000000Y-111000000D03*
X159316000Y-71978000D03*
X134500000Y-116500000D03*
X118000000Y-51000000D03*
X126000000Y-71000000D03*
X153000000Y-108000000D03*
X168000000Y-51000000D03*
X165000000Y-60000000D03*
X132000000Y-99000000D03*
X150000000Y-108000000D03*
X120000000Y-46000000D03*
X129000000Y-76000000D03*
X123000000Y-76000000D03*
X168000000Y-48000000D03*
X138500000Y-102500000D03*
X109500000Y-69500000D03*
X110000000Y-109000000D03*
X168000000Y-90000000D03*
X147000000Y-99000000D03*
X129000000Y-83500000D03*
X175500000Y-104000000D03*
X156316000Y-71978000D03*
X120000000Y-117000000D03*
X155316000Y-71978000D03*
X111000000Y-91000000D03*
X175000000Y-87000000D03*
X174000000Y-109000000D03*
X172000000Y-108000000D03*
X168000000Y-57000000D03*
X110000000Y-56000000D03*
X150500000Y-115500000D03*
X150000000Y-48000000D03*
X141000000Y-72000000D03*
X110000000Y-91000000D03*
X156000000Y-96000000D03*
X168500000Y-94000000D03*
X155250000Y-86250000D03*
X147000000Y-96000000D03*
X175000000Y-56000000D03*
X148500000Y-114500000D03*
X129000000Y-53000000D03*
X129000000Y-71000000D03*
X130320000Y-65136000D03*
X174000000Y-87000000D03*
X135750000Y-61250000D03*
X123000000Y-108000000D03*
X168500000Y-92000000D03*
X142004000Y-98156000D03*
X124500000Y-86250000D03*
X113000000Y-76500000D03*
X109500000Y-105500000D03*
X135400000Y-52436000D03*
X129000000Y-108000000D03*
X141750000Y-87000000D03*
X126000000Y-114000000D03*
X168500000Y-104000000D03*
X165000000Y-104000000D03*
X111000000Y-109000000D03*
X125750000Y-102000000D03*
X129000000Y-46000000D03*
X123000000Y-51000000D03*
X162000000Y-96000000D03*
X165000000Y-78000000D03*
X154500000Y-75000000D03*
X175500000Y-94000000D03*
X126000000Y-58000000D03*
X171000000Y-111000000D03*
X160250000Y-92500000D03*
X128250000Y-102000000D03*
X138000000Y-69000000D03*
X123000000Y-48000000D03*
X156228000Y-54468000D03*
X117000000Y-108000000D03*
X147000000Y-111000000D03*
X168000000Y-75000000D03*
X150000000Y-105000000D03*
X149624000Y-89520000D03*
X176000000Y-56000000D03*
X109500000Y-70500000D03*
X158000000Y-79500000D03*
X175500000Y-81250000D03*
X134500000Y-114500000D03*
X135400000Y-77836000D03*
X123000000Y-63000000D03*
X154704000Y-89520000D03*
X173000000Y-109000000D03*
X175500000Y-100500000D03*
X149624000Y-65136000D03*
X113000000Y-109000000D03*
X147000000Y-93000000D03*
X123000000Y-66000000D03*
X168000000Y-54000000D03*
X113000000Y-107000000D03*
X173000000Y-74000000D03*
X147000000Y-54000000D03*
X146500000Y-103500000D03*
X117000000Y-111000000D03*
X113000000Y-57000000D03*
X120000000Y-108000000D03*
X138500000Y-52000000D03*
X147000000Y-63000000D03*
X117000000Y-48000000D03*
X126000000Y-78500000D03*
X159000000Y-60000000D03*
X128750000Y-105000000D03*
X113000000Y-88500000D03*
X144000000Y-87000000D03*
X123000000Y-53000000D03*
X132000000Y-117000000D03*
X126000000Y-83500000D03*
X172000000Y-73000000D03*
X147000000Y-84000000D03*
X131250000Y-105000000D03*
X168500000Y-100500000D03*
X112000000Y-75500000D03*
X111000000Y-74000000D03*
X165500000Y-87000000D03*
X143020000Y-93076000D03*
X129000000Y-78500000D03*
X109000000Y-109000000D03*
X122000000Y-93000000D03*
X168000000Y-108000000D03*
X162000000Y-102000000D03*
X123000000Y-58000000D03*
X113000000Y-87500000D03*
X109000000Y-74000000D03*
X165000000Y-75000000D03*
X113000000Y-56000000D03*
X154704000Y-77836000D03*
X120000000Y-49000000D03*
X159000000Y-111000000D03*
X134500000Y-115500000D03*
X165000000Y-98000000D03*
X175575000Y-76925000D03*
X153000000Y-105000000D03*
X126000000Y-66000000D03*
X154704000Y-90536000D03*
X175000000Y-74000000D03*
X112000000Y-109000000D03*
X146500000Y-104500000D03*
X146000000Y-111000000D03*
X168000000Y-114000000D03*
X156000000Y-108000000D03*
X159000000Y-114000000D03*
X135000000Y-105000000D03*
X117000000Y-117000000D03*
X165000000Y-111000000D03*
X160000000Y-96000000D03*
X146500000Y-77000000D03*
X168000000Y-81000000D03*
X116500000Y-86000000D03*
X159000000Y-108000000D03*
X156000000Y-117000000D03*
X140500000Y-102500000D03*
X168000000Y-72000000D03*
X138000000Y-93000000D03*
X165000000Y-108000000D03*
X145500000Y-105500000D03*
X147000000Y-51000000D03*
X174000000Y-56000000D03*
X120000000Y-66000000D03*
X147000000Y-48000000D03*
X135400000Y-89520000D03*
X130320000Y-77836000D03*
X159000000Y-75000000D03*
X120250000Y-75500000D03*
X126000000Y-117000000D03*
X172000000Y-57000000D03*
X158500000Y-88000000D03*
X138000000Y-72000000D03*
X113000000Y-89500000D03*
X164500000Y-85500000D03*
X147000000Y-108000000D03*
X154704000Y-64120000D03*
X134500000Y-117500000D03*
X112000000Y-56000000D03*
X171000000Y-81000000D03*
X129000000Y-63000000D03*
X171000000Y-84000000D03*
X113000000Y-93000000D03*
X138000000Y-96000000D03*
X110000000Y-74000000D03*
X141000000Y-90000000D03*
X140000000Y-84000000D03*
X153000000Y-114000000D03*
X123000000Y-105000000D03*
X138000000Y-99000000D03*
X162000000Y-108000000D03*
X149624000Y-52436000D03*
X109500000Y-85000000D03*
X155250000Y-87750000D03*
X150500000Y-118500000D03*
X146500000Y-102500000D03*
X150000000Y-102000000D03*
X156000000Y-111000000D03*
X162000000Y-84500000D03*
X132000000Y-108000000D03*
X156228000Y-52436000D03*
X123000000Y-117000000D03*
X129000000Y-58000000D03*
X123000000Y-114000000D03*
X126000000Y-111000000D03*
X162000000Y-111000000D03*
X129000000Y-117000000D03*
X165000000Y-57000000D03*
X135400000Y-90536000D03*
X159276000Y-52436000D03*
X109000000Y-75500000D03*
X123000000Y-61000000D03*
X154704000Y-65136000D03*
X159000000Y-104000000D03*
X147000000Y-72000000D03*
X130320000Y-90536000D03*
X150250000Y-73500000D03*
X175500000Y-92000000D03*
X113000000Y-77500000D03*
%TD*%
%TA.AperFunction,Conductor*%
%TO.N,GND*%
G36*
X139430702Y-45519713D02*
G01*
X139467247Y-45570013D01*
X139467247Y-45632187D01*
X139430702Y-45682487D01*
X139402658Y-45696776D01*
X139255053Y-45744735D01*
X139255051Y-45744736D01*
X139065090Y-45841525D01*
X139065086Y-45841527D01*
X138892604Y-45966844D01*
X138741844Y-46117604D01*
X138616527Y-46290086D01*
X138616525Y-46290090D01*
X138519736Y-46480051D01*
X138519735Y-46480053D01*
X138453855Y-46682811D01*
X138453852Y-46682825D01*
X138420500Y-46893394D01*
X138420500Y-47106605D01*
X138453852Y-47317174D01*
X138453855Y-47317188D01*
X138519735Y-47519946D01*
X138519736Y-47519948D01*
X138616525Y-47709909D01*
X138616527Y-47709913D01*
X138741844Y-47882395D01*
X138892604Y-48033155D01*
X139065086Y-48158472D01*
X139065090Y-48158474D01*
X139255051Y-48255263D01*
X139255053Y-48255264D01*
X139457811Y-48321144D01*
X139457813Y-48321144D01*
X139457821Y-48321147D01*
X139668394Y-48354499D01*
X139668396Y-48354500D01*
X139668399Y-48354500D01*
X139881604Y-48354500D01*
X139881604Y-48354499D01*
X140092179Y-48321147D01*
X140294947Y-48255264D01*
X140484913Y-48158472D01*
X140657397Y-48033154D01*
X140808154Y-47882397D01*
X140933472Y-47709913D01*
X141030264Y-47519947D01*
X141096147Y-47317179D01*
X141129500Y-47106601D01*
X141129500Y-46893399D01*
X141129500Y-46893395D01*
X141129499Y-46893394D01*
X141096147Y-46682821D01*
X141030264Y-46480053D01*
X141030263Y-46480051D01*
X140933474Y-46290090D01*
X140933472Y-46290086D01*
X140808155Y-46117604D01*
X140657395Y-45966844D01*
X140484913Y-45841527D01*
X140484909Y-45841525D01*
X140294948Y-45744736D01*
X140294946Y-45744735D01*
X140147342Y-45696776D01*
X140097042Y-45660231D01*
X140077829Y-45601100D01*
X140097042Y-45541969D01*
X140147342Y-45505424D01*
X140178429Y-45500500D01*
X144821571Y-45500500D01*
X144880702Y-45519713D01*
X144917247Y-45570013D01*
X144917247Y-45632187D01*
X144880702Y-45682487D01*
X144852658Y-45696776D01*
X144705053Y-45744735D01*
X144705051Y-45744736D01*
X144515090Y-45841525D01*
X144515086Y-45841527D01*
X144342604Y-45966844D01*
X144191844Y-46117604D01*
X144066527Y-46290086D01*
X144066525Y-46290090D01*
X143969736Y-46480051D01*
X143969735Y-46480053D01*
X143903855Y-46682811D01*
X143903852Y-46682825D01*
X143870500Y-46893394D01*
X143870500Y-47106605D01*
X143903852Y-47317174D01*
X143903855Y-47317188D01*
X143969735Y-47519946D01*
X143969736Y-47519948D01*
X144066525Y-47709909D01*
X144066527Y-47709913D01*
X144191844Y-47882395D01*
X144342604Y-48033155D01*
X144515086Y-48158472D01*
X144515090Y-48158474D01*
X144705051Y-48255263D01*
X144705053Y-48255264D01*
X144907811Y-48321144D01*
X144907813Y-48321144D01*
X144907821Y-48321147D01*
X145118394Y-48354499D01*
X145118396Y-48354500D01*
X145118399Y-48354500D01*
X145331604Y-48354500D01*
X145331604Y-48354499D01*
X145542179Y-48321147D01*
X145744947Y-48255264D01*
X145934913Y-48158472D01*
X146107397Y-48033154D01*
X146258154Y-47882397D01*
X146383472Y-47709913D01*
X146480264Y-47519947D01*
X146546147Y-47317179D01*
X146579500Y-47106601D01*
X146579500Y-46893399D01*
X146579500Y-46893395D01*
X146579499Y-46893394D01*
X146546147Y-46682821D01*
X146480264Y-46480053D01*
X146480263Y-46480051D01*
X146383474Y-46290090D01*
X146383472Y-46290086D01*
X146258155Y-46117604D01*
X146107395Y-45966844D01*
X145934913Y-45841527D01*
X145934909Y-45841525D01*
X145744948Y-45744736D01*
X145744946Y-45744735D01*
X145597342Y-45696776D01*
X145547042Y-45660231D01*
X145527829Y-45601100D01*
X145547042Y-45541969D01*
X145597342Y-45505424D01*
X145628429Y-45500500D01*
X173434108Y-45500500D01*
X173497527Y-45500500D01*
X173502463Y-45500621D01*
X173838089Y-45517109D01*
X173847891Y-45518074D01*
X174177841Y-45567018D01*
X174187500Y-45568939D01*
X174511071Y-45649989D01*
X174520495Y-45652848D01*
X174834560Y-45765223D01*
X174843655Y-45768990D01*
X175145177Y-45911600D01*
X175153883Y-45916253D01*
X175439982Y-46087733D01*
X175448183Y-46093212D01*
X175716091Y-46291907D01*
X175723714Y-46298162D01*
X175970868Y-46522170D01*
X175977829Y-46529131D01*
X176201833Y-46776281D01*
X176208094Y-46783910D01*
X176289296Y-46893399D01*
X176406781Y-47051808D01*
X176412266Y-47060017D01*
X176583746Y-47346116D01*
X176588399Y-47354822D01*
X176731003Y-47656331D01*
X176734781Y-47665452D01*
X176847147Y-47979493D01*
X176850013Y-47988940D01*
X176931057Y-48312487D01*
X176932983Y-48322170D01*
X176981923Y-48652097D01*
X176982891Y-48661922D01*
X176999379Y-48997536D01*
X176999500Y-49002472D01*
X176999500Y-115997527D01*
X176999379Y-116002463D01*
X176982891Y-116338077D01*
X176981923Y-116347902D01*
X176932983Y-116677829D01*
X176931057Y-116687512D01*
X176850013Y-117011059D01*
X176847147Y-117020506D01*
X176734781Y-117334547D01*
X176731003Y-117343668D01*
X176588399Y-117645177D01*
X176583746Y-117653883D01*
X176412266Y-117939982D01*
X176406781Y-117948191D01*
X176208096Y-118216086D01*
X176201833Y-118223718D01*
X175977839Y-118470858D01*
X175970858Y-118477839D01*
X175723718Y-118701833D01*
X175716086Y-118708096D01*
X175448191Y-118906781D01*
X175439982Y-118912266D01*
X175153883Y-119083746D01*
X175145177Y-119088399D01*
X174843668Y-119231003D01*
X174834547Y-119234781D01*
X174520506Y-119347147D01*
X174511059Y-119350013D01*
X174187512Y-119431057D01*
X174177829Y-119432983D01*
X173847902Y-119481923D01*
X173838077Y-119482891D01*
X173502463Y-119499379D01*
X173497527Y-119499500D01*
X111502473Y-119499500D01*
X111497537Y-119499379D01*
X111161922Y-119482891D01*
X111152097Y-119481923D01*
X110822170Y-119432983D01*
X110812487Y-119431057D01*
X110488940Y-119350013D01*
X110479493Y-119347147D01*
X110165452Y-119234781D01*
X110156331Y-119231003D01*
X110090781Y-119200000D01*
X162550000Y-119200000D01*
X167950000Y-119200000D01*
X167950000Y-116800000D01*
X162550000Y-116800000D01*
X162550000Y-119200000D01*
X110090781Y-119200000D01*
X109854822Y-119088399D01*
X109846116Y-119083746D01*
X109560017Y-118912266D01*
X109551808Y-118906781D01*
X109283913Y-118708096D01*
X109276281Y-118701833D01*
X109029131Y-118477829D01*
X109022170Y-118470868D01*
X108798162Y-118223714D01*
X108791903Y-118216086D01*
X108691034Y-118080080D01*
X108593212Y-117948183D01*
X108587733Y-117939982D01*
X108416253Y-117653883D01*
X108411600Y-117645177D01*
X108268990Y-117343655D01*
X108265223Y-117334560D01*
X108152848Y-117020495D01*
X108149989Y-117011071D01*
X108068939Y-116687500D01*
X108067018Y-116677841D01*
X108018074Y-116347891D01*
X108017109Y-116338089D01*
X108000621Y-116002463D01*
X108000500Y-115997527D01*
X108000500Y-49937164D01*
X138895500Y-49937164D01*
X138895500Y-50122835D01*
X138924541Y-50306193D01*
X138924544Y-50306205D01*
X138981915Y-50482773D01*
X139066198Y-50648189D01*
X139066201Y-50648193D01*
X139175326Y-50798391D01*
X139306608Y-50929673D01*
X139456806Y-51038798D01*
X139456810Y-51038801D01*
X139622227Y-51123084D01*
X139622228Y-51123084D01*
X139622229Y-51123085D01*
X139798800Y-51180457D01*
X139798805Y-51180457D01*
X139798806Y-51180458D01*
X139982164Y-51209499D01*
X139982169Y-51209500D01*
X139982171Y-51209500D01*
X140167831Y-51209500D01*
X140167835Y-51209499D01*
X140351200Y-51180457D01*
X140527771Y-51123085D01*
X140693193Y-51038799D01*
X140843393Y-50929672D01*
X140974672Y-50798393D01*
X141083799Y-50648193D01*
X141168085Y-50482771D01*
X141225457Y-50306200D01*
X141254500Y-50122829D01*
X141254500Y-49937171D01*
X141254499Y-49937164D01*
X143745500Y-49937164D01*
X143745500Y-50122835D01*
X143774541Y-50306193D01*
X143774544Y-50306205D01*
X143831915Y-50482773D01*
X143916198Y-50648189D01*
X143916201Y-50648193D01*
X144025326Y-50798391D01*
X144156608Y-50929673D01*
X144306806Y-51038798D01*
X144306810Y-51038801D01*
X144472227Y-51123084D01*
X144472228Y-51123084D01*
X144472229Y-51123085D01*
X144648800Y-51180457D01*
X144648805Y-51180457D01*
X144648806Y-51180458D01*
X144832164Y-51209499D01*
X144832169Y-51209500D01*
X144832171Y-51209500D01*
X145017831Y-51209500D01*
X145017835Y-51209499D01*
X145201200Y-51180457D01*
X145377771Y-51123085D01*
X145543193Y-51038799D01*
X145693393Y-50929672D01*
X145824672Y-50798393D01*
X145933799Y-50648193D01*
X146018085Y-50482771D01*
X146075457Y-50306200D01*
X146104500Y-50122829D01*
X146104500Y-49937171D01*
X146075457Y-49753800D01*
X146018085Y-49577229D01*
X146018084Y-49577228D01*
X146018084Y-49577226D01*
X145933801Y-49411810D01*
X145933798Y-49411806D01*
X145824673Y-49261608D01*
X145693391Y-49130326D01*
X145543193Y-49021201D01*
X145543189Y-49021198D01*
X145377772Y-48936915D01*
X145377773Y-48936915D01*
X145201205Y-48879544D01*
X145201193Y-48879541D01*
X145017835Y-48850500D01*
X145017829Y-48850500D01*
X144832171Y-48850500D01*
X144832164Y-48850500D01*
X144648806Y-48879541D01*
X144648794Y-48879544D01*
X144472226Y-48936915D01*
X144306810Y-49021198D01*
X144306806Y-49021201D01*
X144156608Y-49130326D01*
X144025326Y-49261608D01*
X143916201Y-49411806D01*
X143916198Y-49411810D01*
X143831915Y-49577226D01*
X143774544Y-49753794D01*
X143774541Y-49753806D01*
X143745500Y-49937164D01*
X141254499Y-49937164D01*
X141225457Y-49753800D01*
X141168085Y-49577229D01*
X141168084Y-49577228D01*
X141168084Y-49577226D01*
X141083801Y-49411810D01*
X141083798Y-49411806D01*
X140974673Y-49261608D01*
X140843391Y-49130326D01*
X140693193Y-49021201D01*
X140693189Y-49021198D01*
X140527772Y-48936915D01*
X140527773Y-48936915D01*
X140351205Y-48879544D01*
X140351193Y-48879541D01*
X140167835Y-48850500D01*
X140167829Y-48850500D01*
X139982171Y-48850500D01*
X139982164Y-48850500D01*
X139798806Y-48879541D01*
X139798794Y-48879544D01*
X139622226Y-48936915D01*
X139456810Y-49021198D01*
X139456806Y-49021201D01*
X139306608Y-49130326D01*
X139175326Y-49261608D01*
X139066201Y-49411806D01*
X139066198Y-49411810D01*
X138981915Y-49577226D01*
X138924544Y-49753794D01*
X138924541Y-49753806D01*
X138895500Y-49937164D01*
X108000500Y-49937164D01*
X108000500Y-49002472D01*
X108000621Y-48997536D01*
X108003737Y-48934108D01*
X108017109Y-48661908D01*
X108018074Y-48652110D01*
X108067019Y-48322154D01*
X108068938Y-48312503D01*
X108149991Y-47988922D01*
X108152846Y-47979510D01*
X108265226Y-47665432D01*
X108268987Y-47656351D01*
X108411604Y-47354814D01*
X108416253Y-47346116D01*
X108433600Y-47317174D01*
X108587739Y-47060007D01*
X108593205Y-47051826D01*
X108791915Y-46783898D01*
X108798154Y-46776295D01*
X109022179Y-46529121D01*
X109029121Y-46522179D01*
X109276295Y-46298154D01*
X109283898Y-46291915D01*
X109551826Y-46093205D01*
X109560007Y-46087739D01*
X109846116Y-45916253D01*
X109854814Y-45911604D01*
X110156351Y-45768987D01*
X110165432Y-45765226D01*
X110479510Y-45652846D01*
X110488922Y-45649991D01*
X110812503Y-45568938D01*
X110822154Y-45567019D01*
X111152110Y-45518074D01*
X111161908Y-45517109D01*
X111497537Y-45500621D01*
X111502473Y-45500500D01*
X111565892Y-45500500D01*
X139371571Y-45500500D01*
X139430702Y-45519713D01*
G37*
%TD.AperFunction*%
%TD*%
M02*
