M48
; DRILL file {KiCad 9.0.5-1.fc42} date 2025-11-09T01:11:52+1030
; FORMAT={-:-/ absolute / metric / decimal}
; #@! TF.CreationDate,2025-11-09T01:11:52+10:30
; #@! TF.GenerationSoftware,Kicad,Pcbnew,9.0.5-1.fc42
; #@! TF.FileFunction,Plated,1,2,PTH
FMAT,2
METRIC
; #@! TA.AperFunction,Plated,PTH,ViaDrill
T1C0.400
; #@! TA.AperFunction,Plated,PTH,ComponentDrill
T2C0.500
; #@! TA.AperFunction,Plated,PTH,ComponentDrill
T3C3.200
%
G90
G05
T1
X101.25Y-86.0
X101.25Y-104.0
X101.25Y-105.5
X101.25Y-119.5
X101.25Y-121.0
X101.25Y-139.0
X101.75Y-99.5
X101.75Y-100.5
X101.75Y-115.0
X101.75Y-116.0
X101.75Y-134.5
X101.75Y-135.5
X102.25Y-86.0
X102.25Y-104.0
X102.25Y-105.5
X102.25Y-119.5
X102.25Y-121.0
X102.25Y-139.0
X103.25Y-86.0
X103.25Y-104.0
X103.25Y-105.5
X103.25Y-119.5
X103.25Y-121.0
X103.25Y-139.0
X104.25Y-86.0
X104.25Y-104.0
X104.25Y-105.5
X104.25Y-119.5
X104.25Y-121.0
X104.25Y-139.0
X105.25Y-86.0
X105.25Y-87.0
X105.25Y-88.0
X105.25Y-102.0
X105.25Y-103.0
X105.25Y-104.0
X105.25Y-105.5
X105.25Y-106.5
X105.25Y-107.5
X105.25Y-117.5
X105.25Y-118.5
X105.25Y-119.5
X105.25Y-121.0
X105.25Y-122.0
X105.25Y-123.0
X105.25Y-137.0
X105.25Y-138.0
X105.25Y-139.0
X108.75Y-99.5
X108.75Y-100.5
X108.75Y-115.0
X108.75Y-116.0
X108.75Y-134.5
X108.75Y-135.5
X120.32Y-81.42
X120.32Y-82.436
X120.32Y-94.12
X120.32Y-95.136
X120.32Y-106.82
X120.32Y-107.836
X120.32Y-119.52
X120.32Y-120.536
X124.5Y-144.5
X124.5Y-145.5
X124.5Y-146.5
X124.5Y-147.5
X124.5Y-148.5
X125.4Y-81.42
X125.4Y-82.436
X125.4Y-94.12
X125.4Y-95.136
X125.4Y-106.82
X125.4Y-107.836
X125.4Y-119.52
X125.4Y-120.536
X125.5Y-144.5
X126.5Y-144.5
X128.5Y-132.5
X128.5Y-133.5
X128.5Y-134.5
X128.5Y-135.5
X129.5Y-132.5
X129.5Y-135.5
X130.5Y-132.5
X130.5Y-135.5
X132.004Y-123.076
X132.004Y-128.156
X132.5Y-135.0
X132.5Y-138.0
X133.02Y-123.076
X133.02Y-128.156
X134.5Y-132.5
X134.5Y-135.5
X135.5Y-132.5
X135.5Y-135.5
X136.0Y-141.0
X136.0Y-148.0
X136.5Y-132.5
X136.5Y-133.5
X136.5Y-134.5
X136.5Y-135.5
X137.0Y-141.0
X137.0Y-148.0
X138.5Y-144.5
X139.5Y-144.5
X139.624Y-81.42
X139.624Y-82.436
X139.624Y-94.12
X139.624Y-95.136
X139.624Y-106.82
X139.624Y-107.836
X139.624Y-119.52
X139.624Y-120.536
X140.5Y-144.5
X140.5Y-145.5
X140.5Y-146.5
X140.5Y-147.5
X140.5Y-148.5
X144.704Y-81.42
X144.704Y-82.436
X144.704Y-94.12
X144.704Y-95.136
X144.704Y-106.82
X144.704Y-107.836
X144.704Y-119.52
X144.704Y-120.536
X146.228Y-82.436
X146.228Y-84.468
X147.244Y-82.436
X147.244Y-84.468
X147.563Y-133.04
X148.133Y-92.85
X148.133Y-97.676
X148.133Y-101.105
X148.133Y-106.185
X148.26Y-82.436
X148.26Y-84.468
X149.276Y-82.436
X149.276Y-84.468
X150.101Y-125.108
X153.25Y-115.25
X153.25Y-116.25
X156.0Y-130.5
X156.0Y-131.5
X159.5Y-86.0
X159.5Y-87.0
X159.5Y-88.0
X159.5Y-102.0
X159.5Y-103.0
X159.5Y-104.0
X159.5Y-116.85
X159.5Y-117.85
X159.5Y-118.85
X159.5Y-137.15
X159.5Y-138.15
X159.5Y-139.15
X160.5Y-86.0
X160.5Y-104.0
X160.5Y-116.85
X160.5Y-139.15
X161.5Y-86.0
X161.5Y-104.0
X161.5Y-116.85
X161.5Y-139.15
X162.5Y-86.0
X162.5Y-104.0
X162.5Y-116.85
X162.5Y-139.15
X163.0Y-109.75
X163.0Y-111.25
X163.0Y-130.5
X163.0Y-131.5
X163.075Y-106.925
X163.075Y-114.075
X163.5Y-86.0
X163.5Y-139.15
T2
X101.6Y-79.0
X101.6Y-146.0
X102.303Y-77.303
X102.303Y-80.697
X102.303Y-144.303
X102.303Y-147.697
X104.0Y-76.6
X104.0Y-81.4
X104.0Y-143.6
X104.0Y-148.4
X105.697Y-77.303
X105.697Y-80.697
X105.697Y-144.303
X105.697Y-147.697
X106.4Y-79.0
X106.4Y-146.0
X158.6Y-79.0
X158.6Y-146.0
X159.303Y-77.303
X159.303Y-80.697
X159.303Y-144.303
X159.303Y-147.697
X161.0Y-76.6
X161.0Y-81.4
X161.0Y-143.6
X161.0Y-148.4
X162.697Y-77.303
X162.697Y-80.697
X162.697Y-144.303
X162.697Y-147.697
X163.4Y-79.0
X163.4Y-146.0
T3
X104.0Y-79.0
X104.0Y-146.0
X161.0Y-79.0
X161.0Y-146.0
M30
