%TF.GenerationSoftware,KiCad,Pcbnew,9.0.5-1.fc42*%
%TF.CreationDate,2025-11-09T01:11:50+10:30*%
%TF.ProjectId,DivaConIO,44697661-436f-46e4-994f-2e6b69636164,1.1*%
%TF.SameCoordinates,Original*%
%TF.FileFunction,Copper,L1,Top*%
%TF.FilePolarity,Positive*%
%FSLAX46Y46*%
G04 Gerber Fmt 4.6, Leading zero omitted, Abs format (unit mm)*
G04 Created by KiCad (PCBNEW 9.0.5-1.fc42) date 2025-11-09 01:11:50*
%MOMM*%
%LPD*%
G01*
G04 APERTURE LIST*
G04 Aperture macros list*
%AMRoundRect*
0 Rectangle with rounded corners*
0 $1 Rounding radius*
0 $2 $3 $4 $5 $6 $7 $8 $9 X,Y pos of 4 corners*
0 Add a 4 corners polygon primitive as box body*
4,1,4,$2,$3,$4,$5,$6,$7,$8,$9,$2,$3,0*
0 Add four circle primitives for the rounded corners*
1,1,$1+$1,$2,$3*
1,1,$1+$1,$4,$5*
1,1,$1+$1,$6,$7*
1,1,$1+$1,$8,$9*
0 Add four rect primitives between the rounded corners*
20,1,$1+$1,$2,$3,$4,$5,0*
20,1,$1+$1,$4,$5,$6,$7,0*
20,1,$1+$1,$6,$7,$8,$9,0*
20,1,$1+$1,$8,$9,$2,$3,0*%
%AMFreePoly0*
4,1,37,0.800000,0.796148,0.878414,0.796148,1.032228,0.765552,1.177117,0.705537,1.307515,0.618408,1.418408,0.507515,1.505537,0.377117,1.565552,0.232228,1.596148,0.078414,1.596148,-0.078414,1.565552,-0.232228,1.505537,-0.377117,1.418408,-0.507515,1.307515,-0.618408,1.177117,-0.705537,1.032228,-0.765552,0.878414,-0.796148,0.800000,-0.796148,0.800000,-0.800000,-1.400000,-0.800000,
-1.403843,-0.796157,-1.439018,-0.796157,-1.511114,-0.766294,-1.566294,-0.711114,-1.596157,-0.639018,-1.596157,-0.603843,-1.600000,-0.600000,-1.600000,0.600000,-1.596157,0.603843,-1.596157,0.639018,-1.566294,0.711114,-1.511114,0.766294,-1.439018,0.796157,-1.403843,0.796157,-1.400000,0.800000,0.800000,0.800000,0.800000,0.796148,0.800000,0.796148,$1*%
%AMFreePoly1*
4,1,37,1.403843,0.796157,1.439018,0.796157,1.511114,0.766294,1.566294,0.711114,1.596157,0.639018,1.596157,0.603843,1.600000,0.600000,1.600000,-0.600000,1.596157,-0.603843,1.596157,-0.639018,1.566294,-0.711114,1.511114,-0.766294,1.439018,-0.796157,1.403843,-0.796157,1.400000,-0.800000,-0.800000,-0.800000,-0.800000,-0.796148,-0.878414,-0.796148,-1.032228,-0.765552,-1.177117,-0.705537,
-1.307515,-0.618408,-1.418408,-0.507515,-1.505537,-0.377117,-1.565552,-0.232228,-1.596148,-0.078414,-1.596148,0.078414,-1.565552,0.232228,-1.505537,0.377117,-1.418408,0.507515,-1.307515,0.618408,-1.177117,0.705537,-1.032228,0.765552,-0.878414,0.796148,-0.800000,0.796148,-0.800000,0.800000,1.400000,0.800000,1.403843,0.796157,1.403843,0.796157,$1*%
%AMFreePoly2*
4,1,37,1.600000,0.796148,1.678414,0.796148,1.832228,0.765552,1.977117,0.705537,2.107515,0.618408,2.218408,0.507515,2.305537,0.377117,2.365552,0.232228,2.396148,0.078414,2.396148,-0.078414,2.365552,-0.232228,2.305537,-0.377117,2.218408,-0.507515,2.107515,-0.618408,1.977117,-0.705537,1.832228,-0.765552,1.678414,-0.796148,1.600000,-0.796148,1.600000,-0.800000,-0.600000,-0.800000,
-0.603843,-0.796157,-0.639018,-0.796157,-0.711114,-0.766294,-0.766294,-0.711114,-0.796157,-0.639018,-0.796157,-0.603843,-0.800000,-0.600000,-0.800000,0.600000,-0.796157,0.603843,-0.796157,0.639018,-0.766294,0.711114,-0.711114,0.766294,-0.639018,0.796157,-0.603843,0.796157,-0.600000,0.800000,1.600000,0.800000,1.600000,0.796148,1.600000,0.796148,$1*%
%AMFreePoly3*
4,1,23,0.500000,-0.750000,0.000000,-0.750000,0.000000,-0.745722,-0.065263,-0.745722,-0.191342,-0.711940,-0.304381,-0.646677,-0.396677,-0.554381,-0.461940,-0.441342,-0.495722,-0.315263,-0.495722,-0.250000,-0.500000,-0.250000,-0.500000,0.250000,-0.495722,0.250000,-0.495722,0.315263,-0.461940,0.441342,-0.396677,0.554381,-0.304381,0.646677,-0.191342,0.711940,-0.065263,0.745722,0.000000,0.745722,
0.000000,0.750000,0.500000,0.750000,0.500000,-0.750000,0.500000,-0.750000,$1*%
%AMFreePoly4*
4,1,23,0.000000,0.745722,0.065263,0.745722,0.191342,0.711940,0.304381,0.646677,0.396677,0.554381,0.461940,0.441342,0.495722,0.315263,0.495722,0.250000,0.500000,0.250000,0.500000,-0.250000,0.495722,-0.250000,0.495722,-0.315263,0.461940,-0.441342,0.396677,-0.554381,0.304381,-0.646677,0.191342,-0.711940,0.065263,-0.745722,0.000000,-0.745722,0.000000,-0.750000,-0.500000,-0.750000,
-0.500000,0.750000,0.000000,0.750000,0.000000,0.745722,0.000000,0.745722,$1*%
G04 Aperture macros list end*
%TA.AperFunction,NonConductor*%
%ADD10C,0.300000*%
%TD*%
%ADD11C,0.300000*%
%TA.AperFunction,EtchedComponent*%
%ADD12C,0.000000*%
%TD*%
%TA.AperFunction,SMDPad,CuDef*%
%ADD13RoundRect,0.250000X-2.500000X0.250000X-2.500000X-0.250000X2.500000X-0.250000X2.500000X0.250000X0*%
%TD*%
%TA.AperFunction,SMDPad,CuDef*%
%ADD14RoundRect,0.250000X-1.250000X0.550000X-1.250000X-0.550000X1.250000X-0.550000X1.250000X0.550000X0*%
%TD*%
%TA.AperFunction,SMDPad,CuDef*%
%ADD15RoundRect,0.200000X-0.275000X0.200000X-0.275000X-0.200000X0.275000X-0.200000X0.275000X0.200000X0*%
%TD*%
%TA.AperFunction,ComponentPad*%
%ADD16C,0.800000*%
%TD*%
%TA.AperFunction,ComponentPad*%
%ADD17C,6.400000*%
%TD*%
%TA.AperFunction,SMDPad,CuDef*%
%ADD18RoundRect,0.250000X0.250000X2.500000X-0.250000X2.500000X-0.250000X-2.500000X0.250000X-2.500000X0*%
%TD*%
%TA.AperFunction,SMDPad,CuDef*%
%ADD19RoundRect,0.250000X0.550000X1.250000X-0.550000X1.250000X-0.550000X-1.250000X0.550000X-1.250000X0*%
%TD*%
%TA.AperFunction,SMDPad,CuDef*%
%ADD20RoundRect,0.150000X-0.150000X-0.625000X0.150000X-0.625000X0.150000X0.625000X-0.150000X0.625000X0*%
%TD*%
%TA.AperFunction,SMDPad,CuDef*%
%ADD21RoundRect,0.250000X-0.350000X-0.650000X0.350000X-0.650000X0.350000X0.650000X-0.350000X0.650000X0*%
%TD*%
%TA.AperFunction,SMDPad,CuDef*%
%ADD22RoundRect,0.120000X-0.280000X0.480000X-0.280000X-0.480000X0.280000X-0.480000X0.280000X0.480000X0*%
%TD*%
%TA.AperFunction,SMDPad,CuDef*%
%ADD23C,0.500000*%
%TD*%
%TA.AperFunction,SMDPad,CuDef*%
%ADD24RoundRect,0.150000X-0.587500X-0.150000X0.587500X-0.150000X0.587500X0.150000X-0.587500X0.150000X0*%
%TD*%
%TA.AperFunction,SMDPad,CuDef*%
%ADD25RoundRect,0.200000X0.275000X-0.200000X0.275000X0.200000X-0.275000X0.200000X-0.275000X-0.200000X0*%
%TD*%
%TA.AperFunction,SMDPad,CuDef*%
%ADD26RoundRect,0.225000X0.225000X0.250000X-0.225000X0.250000X-0.225000X-0.250000X0.225000X-0.250000X0*%
%TD*%
%TA.AperFunction,SMDPad,CuDef*%
%ADD27RoundRect,0.225000X-0.250000X0.225000X-0.250000X-0.225000X0.250000X-0.225000X0.250000X0.225000X0*%
%TD*%
%TA.AperFunction,SMDPad,CuDef*%
%ADD28RoundRect,0.200000X-0.200000X-0.275000X0.200000X-0.275000X0.200000X0.275000X-0.200000X0.275000X0*%
%TD*%
%TA.AperFunction,SMDPad,CuDef*%
%ADD29C,2.000000*%
%TD*%
%TA.AperFunction,SMDPad,CuDef*%
%ADD30RoundRect,0.250000X2.500000X-0.250000X2.500000X0.250000X-2.500000X0.250000X-2.500000X-0.250000X0*%
%TD*%
%TA.AperFunction,SMDPad,CuDef*%
%ADD31RoundRect,0.250000X1.250000X-0.550000X1.250000X0.550000X-1.250000X0.550000X-1.250000X-0.550000X0*%
%TD*%
%TA.AperFunction,SMDPad,CuDef*%
%ADD32RoundRect,0.150000X-0.150000X0.650000X-0.150000X-0.650000X0.150000X-0.650000X0.150000X0.650000X0*%
%TD*%
%TA.AperFunction,SMDPad,CuDef*%
%ADD33RoundRect,0.225000X0.250000X-0.225000X0.250000X0.225000X-0.250000X0.225000X-0.250000X-0.225000X0*%
%TD*%
%TA.AperFunction,SMDPad,CuDef*%
%ADD34FreePoly0,0.000000*%
%TD*%
%TA.AperFunction,SMDPad,CuDef*%
%ADD35RoundRect,0.800000X-0.800000X-0.000010X0.800000X-0.000010X0.800000X0.000010X-0.800000X0.000010X0*%
%TD*%
%TA.AperFunction,SMDPad,CuDef*%
%ADD36FreePoly1,0.000000*%
%TD*%
%TA.AperFunction,SMDPad,CuDef*%
%ADD37RoundRect,0.800000X0.000010X-0.800000X0.000010X0.800000X-0.000010X0.800000X-0.000010X-0.800000X0*%
%TD*%
%TA.AperFunction,SMDPad,CuDef*%
%ADD38FreePoly2,270.000000*%
%TD*%
%TA.AperFunction,SMDPad,CuDef*%
%ADD39FreePoly3,180.000000*%
%TD*%
%TA.AperFunction,SMDPad,CuDef*%
%ADD40FreePoly4,180.000000*%
%TD*%
%TA.AperFunction,SMDPad,CuDef*%
%ADD41RoundRect,0.200000X0.200000X0.275000X-0.200000X0.275000X-0.200000X-0.275000X0.200000X-0.275000X0*%
%TD*%
%TA.AperFunction,ViaPad*%
%ADD42C,0.700000*%
%TD*%
%TA.AperFunction,Conductor*%
%ADD43C,0.254000*%
%TD*%
%TA.AperFunction,Conductor*%
%ADD44C,0.800000*%
%TD*%
%TA.AperFunction,Conductor*%
%ADD45C,0.508000*%
%TD*%
G04 APERTURE END LIST*
D10*
X149900000Y-146650000D02*
X149900000Y-149350000D01*
X149900000Y-149350000D02*
X155600000Y-149350000D01*
X155600000Y-149350000D02*
X155600000Y-146650000D01*
X155600000Y-146650000D02*
X149900000Y-146650000D01*
X152750000Y-146650000D02*
X152750000Y-149350000D01*
X155600000Y-149350000D02*
X155600000Y-146650000D01*
X149900000Y-149350000D02*
X149900000Y-146650000D01*
X149900000Y-146650000D02*
X155600000Y-146650000D01*
X155600000Y-149350000D02*
X149900000Y-149350000D01*
D11*
D10*
X151677296Y-148678328D02*
X150820153Y-148678328D01*
X151248724Y-148678328D02*
X151248724Y-147178328D01*
X151248724Y-147178328D02*
X151105867Y-147392614D01*
X151105867Y-147392614D02*
X150963010Y-147535471D01*
X150963010Y-147535471D02*
X150820153Y-147606900D01*
D12*
%TA.AperFunction,EtchedComponent*%
%TO.C,JP1*%
G36*
X148368000Y-77148000D02*
G01*
X147868000Y-77148000D01*
X147868000Y-76548000D01*
X148368000Y-76548000D01*
X148368000Y-77148000D01*
G37*
%TD.AperFunction*%
%TD*%
D13*
%TO.P,J6,1,Pin_1*%
%TO.N,/Display_I2C0_SCL*%
X159500000Y-121000000D03*
%TO.P,J6,2,Pin_2*%
%TO.N,/Display_I2C0_SDA*%
X159500000Y-123000000D03*
%TO.P,J6,3,Pin_3*%
%TO.N,/Slider_I2C1_SCL*%
X159500000Y-125000000D03*
%TO.P,J6,4,Pin_4*%
%TO.N,/Slider_I2C1_SDA*%
X159500000Y-127000000D03*
%TO.P,J6,5,Pin_5*%
%TO.N,+3V3*%
X159500000Y-129000000D03*
%TO.P,J6,6,Pin_6*%
%TO.N,GND*%
X159500000Y-131000000D03*
%TO.P,J6,7,Pin_7*%
%TO.N,+5V*%
X159500000Y-133000000D03*
%TO.P,J6,8,Pin_8*%
%TO.N,Net-(J6-Pin_8)*%
X159500000Y-135000000D03*
D14*
%TO.P,J6,MP,MountPin*%
%TO.N,GND*%
X161750000Y-118600000D03*
X161750000Y-137400000D03*
%TD*%
D15*
%TO.P,R8,1*%
%TO.N,+3V3*%
X117780000Y-98058000D03*
%TO.P,R8,2*%
%TO.N,/Button_Home*%
X117780000Y-99708000D03*
%TD*%
D16*
%TO.P,H4,1,1*%
%TO.N,GND*%
X101600000Y-79000000D03*
X102302944Y-77302944D03*
X102302944Y-80697056D03*
X104000000Y-76600000D03*
D17*
X104000000Y-79000000D03*
D16*
X104000000Y-81400000D03*
X105697056Y-77302944D03*
X105697056Y-80697056D03*
X106400000Y-79000000D03*
%TD*%
D18*
%TO.P,J4,1,Pin_1*%
%TO.N,GND*%
X136500000Y-144500000D03*
%TO.P,J4,2,Pin_2*%
%TO.N,/Button_Triangle*%
X134500000Y-144500000D03*
%TO.P,J4,3,Pin_3*%
%TO.N,/Button_Square*%
X132500000Y-144500000D03*
%TO.P,J4,4,Pin_4*%
%TO.N,/Button_Cross*%
X130500000Y-144500000D03*
%TO.P,J4,5,Pin_5*%
%TO.N,/Button_Circle*%
X128500000Y-144500000D03*
D19*
%TO.P,J4,MP,MountPin*%
%TO.N,GND*%
X138900000Y-146750000D03*
X126100000Y-146750000D03*
%TD*%
D15*
%TO.P,R6,1*%
%TO.N,+3V3*%
X117780000Y-90438000D03*
%TO.P,R6,2*%
%TO.N,/Button_Select*%
X117780000Y-92088000D03*
%TD*%
D20*
%TO.P,J5,1,Pin_1*%
%TO.N,Net-(A1-SWCLK)*%
X131500000Y-136500000D03*
%TO.P,J5,2,Pin_2*%
%TO.N,GND*%
X132500000Y-136500000D03*
%TO.P,J5,3,Pin_3*%
%TO.N,Net-(A1-SWDIO)*%
X133500000Y-136500000D03*
D21*
%TO.P,J5,MP,MountPin*%
%TO.N,GND*%
X130200000Y-133975000D03*
X134800000Y-133975000D03*
%TD*%
D22*
%TO.P,SW1,1,1*%
%TO.N,GND*%
X163075000Y-108425000D03*
X163075000Y-112575000D03*
%TO.P,SW1,2,2*%
%TO.N,Net-(A1-RUN)*%
X160925000Y-108425000D03*
X160925000Y-112575000D03*
%TD*%
D23*
%TO.P,FID2,*%
%TO.N,*%
X101750000Y-83000000D03*
%TD*%
%TO.P,FID1,*%
%TO.N,*%
X163250000Y-142000000D03*
%TD*%
D24*
%TO.P,Q4,1,G*%
%TO.N,Net-(Q4-G)*%
X149354500Y-103584000D03*
%TO.P,Q4,2,S*%
%TO.N,GND*%
X149354500Y-105484000D03*
%TO.P,Q4,3,D*%
%TO.N,Net-(Q4-D)*%
X151229500Y-104534000D03*
%TD*%
D25*
%TO.P,R30,1*%
%TO.N,+3V3*%
X149022000Y-113550000D03*
%TO.P,R30,2*%
%TO.N,/Display_I2C0_SDA*%
X149022000Y-111900000D03*
%TD*%
D15*
%TO.P,R29,1*%
%TO.N,+3V3*%
X147244000Y-113806000D03*
%TO.P,R29,2*%
%TO.N,/Slider_I2C1_SCL*%
X147244000Y-115456000D03*
%TD*%
%TO.P,R9,1*%
%TO.N,+3V3*%
X117780000Y-115838000D03*
%TO.P,R9,2*%
%TO.N,/Button_Circle*%
X117780000Y-117488000D03*
%TD*%
D26*
%TO.P,C5,1*%
%TO.N,+5V*%
X148844000Y-131712000D03*
%TO.P,C5,2*%
%TO.N,GND*%
X147294000Y-131712000D03*
%TD*%
D27*
%TO.P,C2,1*%
%TO.N,+5V*%
X146736000Y-79883000D03*
%TO.P,C2,2*%
%TO.N,GND*%
X146736000Y-81433000D03*
%TD*%
D15*
%TO.P,R2,1*%
%TO.N,+3V3*%
X117780000Y-77738000D03*
%TO.P,R2,2*%
%TO.N,/Button_Right*%
X117780000Y-79388000D03*
%TD*%
%TO.P,R4,1*%
%TO.N,+3V3*%
X117780000Y-85358000D03*
%TO.P,R4,2*%
%TO.N,/Button_R2*%
X117780000Y-87008000D03*
%TD*%
D28*
%TO.P,R18,1*%
%TO.N,+3V3*%
X147244000Y-101994000D03*
%TO.P,R18,2*%
%TO.N,Net-(A1-RUN)*%
X148894000Y-101994000D03*
%TD*%
D15*
%TO.P,R12,1*%
%TO.N,+3V3*%
X117780000Y-103138000D03*
%TO.P,R12,2*%
%TO.N,/Button_Up*%
X117780000Y-104788000D03*
%TD*%
D29*
%TO.P,TP1,1,1*%
%TO.N,Net-(A1-SWCLK)*%
X130000000Y-130000000D03*
%TD*%
D30*
%TO.P,J3,1,Pin_1*%
%TO.N,GND*%
X105250000Y-135000000D03*
%TO.P,J3,2,Pin_2*%
%TO.N,/Button_L3*%
X105250000Y-133000000D03*
%TO.P,J3,3,Pin_3*%
%TO.N,/Button_L2*%
X105250000Y-131000000D03*
%TO.P,J3,4,Pin_4*%
%TO.N,/Button_L1*%
X105250000Y-129000000D03*
%TO.P,J3,5,Pin_5*%
%TO.N,/Button_Up*%
X105250000Y-127000000D03*
%TO.P,J3,6,Pin_6*%
%TO.N,/Button_Down*%
X105250000Y-125000000D03*
D31*
%TO.P,J3,MP,MountPin*%
%TO.N,GND*%
X103000000Y-137400000D03*
X103000000Y-122600000D03*
%TD*%
D32*
%TO.P,U1,1,NC*%
%TO.N,unconnected-(U1-NC-Pad1)*%
X149019000Y-127260000D03*
%TO.P,U1,2*%
%TO.N,/Slider_LED_Data*%
X148069000Y-127260000D03*
%TO.P,U1,3,GND*%
%TO.N,GND*%
X147119000Y-127260000D03*
%TO.P,U1,4*%
%TO.N,Net-(R26-Pad1)*%
X147119000Y-129560000D03*
%TO.P,U1,5,VCC*%
%TO.N,+5V*%
X149019000Y-129560000D03*
%TD*%
D15*
%TO.P,R13,1*%
%TO.N,+3V3*%
X117780000Y-123433000D03*
%TO.P,R13,2*%
%TO.N,/Button_Square*%
X117780000Y-125083000D03*
%TD*%
D29*
%TO.P,TP11,1,1*%
%TO.N,/Display_I2C0_SCL*%
X151308000Y-109614000D03*
%TD*%
D25*
%TO.P,R20,1*%
%TO.N,/LED_En_Square*%
X147244000Y-96723000D03*
%TO.P,R20,2*%
%TO.N,Net-(Q2-G)*%
X147244000Y-95073000D03*
%TD*%
D30*
%TO.P,J1,1,Pin_1*%
%TO.N,GND*%
X105250000Y-100000000D03*
%TO.P,J1,2,Pin_2*%
%TO.N,/Button_R1*%
X105250000Y-98000000D03*
%TO.P,J1,3,Pin_3*%
%TO.N,/Button_R2*%
X105250000Y-96000000D03*
%TO.P,J1,4,Pin_4*%
%TO.N,/Button_R3*%
X105250000Y-94000000D03*
%TO.P,J1,5,Pin_5*%
%TO.N,/Button_Right*%
X105250000Y-92000000D03*
%TO.P,J1,6,Pin_6*%
%TO.N,/Button_Left*%
X105250000Y-90000000D03*
D31*
%TO.P,J1,MP,MountPin*%
%TO.N,GND*%
X103000000Y-102400000D03*
X103000000Y-87600000D03*
%TD*%
D25*
%TO.P,R19,1*%
%TO.N,/LED_En_Triangle*%
X147244000Y-92088000D03*
%TO.P,R19,2*%
%TO.N,Net-(Q1-G)*%
X147244000Y-90438000D03*
%TD*%
%TO.P,R22,1*%
%TO.N,/LED_En_Circle*%
X147244000Y-105359000D03*
%TO.P,R22,2*%
%TO.N,Net-(Q4-G)*%
X147244000Y-103709000D03*
%TD*%
D33*
%TO.P,C4,1*%
%TO.N,+3V3*%
X148768000Y-87008000D03*
%TO.P,C4,2*%
%TO.N,GND*%
X148768000Y-85458000D03*
%TD*%
D30*
%TO.P,J2,1,Pin_1*%
%TO.N,GND*%
X105250000Y-115500000D03*
%TO.P,J2,2,Pin_2*%
%TO.N,/Button_Home*%
X105250000Y-113500000D03*
%TO.P,J2,3,Pin_3*%
%TO.N,/Button_Start*%
X105250000Y-111500000D03*
%TO.P,J2,4,Pin_4*%
%TO.N,/Button_Select*%
X105250000Y-109500000D03*
D31*
%TO.P,J2,MP,MountPin*%
%TO.N,GND*%
X103000000Y-117900000D03*
X103000000Y-107100000D03*
%TD*%
D34*
%TO.P,A1,1,GPIO0*%
%TO.N,/Button_Left*%
X122810000Y-76870000D03*
D35*
%TO.P,A1,2,GPIO1*%
%TO.N,/Button_Right*%
X122810000Y-79410000D03*
D36*
%TO.P,A1,3,GND*%
%TO.N,GND*%
X122810000Y-81950000D03*
D35*
%TO.P,A1,4,GPIO2*%
%TO.N,/Button_R3*%
X122810000Y-84490000D03*
%TO.P,A1,5,GPIO3*%
%TO.N,/Button_R2*%
X122810000Y-87030000D03*
%TO.P,A1,6,GPIO4*%
%TO.N,/Button_R1*%
X122810000Y-89570000D03*
%TO.P,A1,7,GPIO5*%
%TO.N,/Button_Select*%
X122810000Y-92110000D03*
D36*
%TO.P,A1,8,GND*%
%TO.N,GND*%
X122810000Y-94650000D03*
D35*
%TO.P,A1,9,GPIO6*%
%TO.N,/Button_Start*%
X122810000Y-97190000D03*
%TO.P,A1,10,GPIO7*%
%TO.N,/Button_Home*%
X122810000Y-99730000D03*
%TO.P,A1,11,GPIO8*%
%TO.N,/Button_Down*%
X122810000Y-102270000D03*
%TO.P,A1,12,GPIO9*%
%TO.N,/Button_Up*%
X122810000Y-104810000D03*
D36*
%TO.P,A1,13,GND*%
%TO.N,GND*%
X122810000Y-107350000D03*
D35*
%TO.P,A1,14,GPIO10*%
%TO.N,/Button_L1*%
X122810000Y-109890000D03*
%TO.P,A1,15,GPIO11*%
%TO.N,/Button_L2*%
X122810000Y-112430000D03*
%TO.P,A1,16,GPIO12*%
%TO.N,/Button_L3*%
X122810000Y-114970000D03*
%TO.P,A1,17,GPIO13*%
%TO.N,/Button_Circle*%
X122810000Y-117510000D03*
D36*
%TO.P,A1,18,GND*%
%TO.N,GND*%
X122810000Y-120050000D03*
D35*
%TO.P,A1,19,GPIO14*%
%TO.N,/Button_Cross*%
X122810000Y-122590000D03*
%TO.P,A1,20,GPIO15*%
%TO.N,/Button_Square*%
X122810000Y-125130000D03*
%TO.P,A1,21,GPIO16*%
%TO.N,/Button_Triangle*%
X142190000Y-125130000D03*
%TO.P,A1,22,GPIO17*%
%TO.N,/Slider_LED_Data*%
X142190000Y-122590000D03*
D34*
%TO.P,A1,23,GND*%
%TO.N,GND*%
X142190000Y-120050000D03*
D35*
%TO.P,A1,24,GPIO18*%
%TO.N,/Slider_I2C1_SDA*%
X142190000Y-117510000D03*
%TO.P,A1,25,GPIO19*%
%TO.N,/Slider_I2C1_SCL*%
X142190000Y-114970000D03*
%TO.P,A1,26,GPIO20*%
%TO.N,/Display_I2C0_SDA*%
X142190000Y-112430000D03*
%TO.P,A1,27,GPIO21*%
%TO.N,/Display_I2C0_SCL*%
X142190000Y-109890000D03*
D34*
%TO.P,A1,28,GND*%
%TO.N,GND*%
X142190000Y-107350000D03*
D35*
%TO.P,A1,29,GPIO22*%
%TO.N,/LED_En_Circle*%
X142190000Y-104810000D03*
%TO.P,A1,30,RUN*%
%TO.N,Net-(A1-RUN)*%
X142190000Y-102270000D03*
%TO.P,A1,31,GPIO26_ADC0*%
%TO.N,/LED_En_Cross*%
X142190000Y-99730000D03*
%TO.P,A1,32,GPIO27_ADC1*%
%TO.N,/LED_En_Square*%
X142190000Y-97190000D03*
D34*
%TO.P,A1,33,AGND*%
%TO.N,GND*%
X142190000Y-94650000D03*
D35*
%TO.P,A1,34,GPIO28_ADC2*%
%TO.N,/LED_En_Triangle*%
X142190000Y-92110000D03*
%TO.P,A1,35,ADC_VREF*%
%TO.N,unconnected-(A1-ADC_VREF-Pad35)*%
X142190000Y-89570000D03*
%TO.P,A1,36,3V3*%
%TO.N,+3V3*%
X142190000Y-87030000D03*
%TO.P,A1,37,3V3_EN*%
%TO.N,unconnected-(A1-3V3_EN-Pad37)*%
X142190000Y-84490000D03*
D34*
%TO.P,A1,38,GND*%
%TO.N,GND*%
X142190000Y-81950000D03*
D35*
%TO.P,A1,39,VSYS*%
%TO.N,+5V*%
X142190000Y-79410000D03*
%TO.P,A1,40,VBUS*%
%TO.N,Net-(A1-VBUS)*%
X142190000Y-76870000D03*
D37*
%TO.P,A1,D1,SWCLK*%
%TO.N,Net-(A1-SWCLK)*%
X129960000Y-125700000D03*
D38*
%TO.P,A1,D2,GND*%
%TO.N,GND*%
X132500000Y-124900000D03*
D37*
%TO.P,A1,D3,SWDIO*%
%TO.N,Net-(A1-SWDIO)*%
X135040000Y-125700000D03*
%TD*%
D24*
%TO.P,Q1,1,G*%
%TO.N,Net-(Q1-G)*%
X149354500Y-90376000D03*
%TO.P,Q1,2,S*%
%TO.N,GND*%
X149354500Y-92276000D03*
%TO.P,Q1,3,D*%
%TO.N,Net-(Q1-D)*%
X151229500Y-91326000D03*
%TD*%
D25*
%TO.P,R24,1*%
%TO.N,/LED-_Triangle*%
X153340000Y-92151000D03*
%TO.P,R24,2*%
%TO.N,Net-(Q1-D)*%
X153340000Y-90501000D03*
%TD*%
D23*
%TO.P,FID4,*%
%TO.N,*%
X157000000Y-148250000D03*
%TD*%
D29*
%TO.P,TP9,1,1*%
%TO.N,/Slider_I2C1_SCL*%
X152578000Y-119520000D03*
%TD*%
D24*
%TO.P,Q3,1,G*%
%TO.N,Net-(Q3-G)*%
X149354500Y-98504000D03*
%TO.P,Q3,2,S*%
%TO.N,GND*%
X149354500Y-100404000D03*
%TO.P,Q3,3,D*%
%TO.N,Net-(Q3-D)*%
X151229500Y-99454000D03*
%TD*%
D16*
%TO.P,H1,1,1*%
%TO.N,GND*%
X158600000Y-79000000D03*
X159302944Y-77302944D03*
X159302944Y-80697056D03*
X161000000Y-76600000D03*
D17*
X161000000Y-79000000D03*
D16*
X161000000Y-81400000D03*
X162697056Y-77302944D03*
X162697056Y-80697056D03*
X163400000Y-79000000D03*
%TD*%
D29*
%TO.P,TP3,1,1*%
%TO.N,Net-(A1-RUN)*%
X158000000Y-106000000D03*
%TD*%
D25*
%TO.P,R5,1*%
%TO.N,+3V3*%
X115748000Y-91198000D03*
%TO.P,R5,2*%
%TO.N,/Button_R1*%
X115748000Y-89548000D03*
%TD*%
D15*
%TO.P,R31,1*%
%TO.N,+3V3*%
X149022000Y-108726000D03*
%TO.P,R31,2*%
%TO.N,/Display_I2C0_SCL*%
X149022000Y-110376000D03*
%TD*%
%TO.P,R27,1*%
%TO.N,/LED-_Cross*%
X153340000Y-98629000D03*
%TO.P,R27,2*%
%TO.N,Net-(Q3-D)*%
X153340000Y-100279000D03*
%TD*%
D25*
%TO.P,R21,1*%
%TO.N,/LED_En_Cross*%
X147244000Y-100279000D03*
%TO.P,R21,2*%
%TO.N,Net-(Q3-G)*%
X147244000Y-98629000D03*
%TD*%
D39*
%TO.P,JP1,1,A*%
%TO.N,+5V*%
X148768000Y-76848000D03*
D40*
%TO.P,JP1,2,B*%
%TO.N,Net-(A1-VBUS)*%
X147468000Y-76848000D03*
%TD*%
D41*
%TO.P,R15,1*%
%TO.N,+3V3*%
X142989000Y-131013000D03*
%TO.P,R15,2*%
%TO.N,/Button_Triangle*%
X141339000Y-131013000D03*
%TD*%
D25*
%TO.P,R14,1*%
%TO.N,+3V3*%
X115748000Y-111518000D03*
%TO.P,R14,2*%
%TO.N,/Button_L1*%
X115748000Y-109868000D03*
%TD*%
%TO.P,R28,1*%
%TO.N,+3V3*%
X147244000Y-118630000D03*
%TO.P,R28,2*%
%TO.N,/Slider_I2C1_SDA*%
X147244000Y-116980000D03*
%TD*%
D13*
%TO.P,J7,1,Pin_1*%
%TO.N,+5V*%
X159500000Y-90000000D03*
%TO.P,J7,2,Pin_2*%
X159500000Y-92000000D03*
%TO.P,J7,3,Pin_3*%
%TO.N,/LED-_Triangle*%
X159500000Y-94000000D03*
%TO.P,J7,4,Pin_4*%
%TO.N,/LED-_Square*%
X159500000Y-96000000D03*
%TO.P,J7,5,Pin_5*%
%TO.N,/LED-_Cross*%
X159500000Y-98000000D03*
%TO.P,J7,6,Pin_6*%
%TO.N,/LED-_Circle*%
X159500000Y-100000000D03*
D14*
%TO.P,J7,MP,MountPin*%
%TO.N,GND*%
X161750000Y-87600000D03*
X161750000Y-102400000D03*
%TD*%
D29*
%TO.P,TP2,1,1*%
%TO.N,Net-(A1-SWDIO)*%
X135000000Y-130000000D03*
%TD*%
%TO.P,TP12,1,1*%
%TO.N,GND*%
X153250000Y-115750000D03*
%TD*%
D24*
%TO.P,Q2,1,G*%
%TO.N,Net-(Q2-G)*%
X149354500Y-94948000D03*
%TO.P,Q2,2,S*%
%TO.N,GND*%
X149354500Y-96848000D03*
%TO.P,Q2,3,D*%
%TO.N,Net-(Q2-D)*%
X151229500Y-95898000D03*
%TD*%
D25*
%TO.P,R7,1*%
%TO.N,+3V3*%
X115748000Y-98818000D03*
%TO.P,R7,2*%
%TO.N,/Button_Start*%
X115748000Y-97168000D03*
%TD*%
%TO.P,R11,1*%
%TO.N,+3V3*%
X115748000Y-124218000D03*
%TO.P,R11,2*%
%TO.N,/Button_Cross*%
X115748000Y-122568000D03*
%TD*%
D29*
%TO.P,TP7,1,1*%
%TO.N,Net-(J6-Pin_8)*%
X145250000Y-135000000D03*
%TD*%
D15*
%TO.P,R25,1*%
%TO.N,/LED-_Square*%
X153340000Y-95073000D03*
%TO.P,R25,2*%
%TO.N,Net-(Q2-D)*%
X153340000Y-96723000D03*
%TD*%
D25*
%TO.P,R3,1*%
%TO.N,+3V3*%
X115748000Y-86118000D03*
%TO.P,R3,2*%
%TO.N,/Button_R3*%
X115748000Y-84468000D03*
%TD*%
D15*
%TO.P,R32,1*%
%TO.N,/LED-_Circle*%
X153340000Y-103709000D03*
%TO.P,R32,2*%
%TO.N,Net-(Q4-D)*%
X153340000Y-105359000D03*
%TD*%
D29*
%TO.P,TP10,1,1*%
%TO.N,/Display_I2C0_SDA*%
X151308000Y-112662000D03*
%TD*%
D16*
%TO.P,H2,1,1*%
%TO.N,GND*%
X101600000Y-146000000D03*
X102302944Y-144302944D03*
X102302944Y-147697056D03*
X104000000Y-143600000D03*
D17*
X104000000Y-146000000D03*
D16*
X104000000Y-148400000D03*
X105697056Y-144302944D03*
X105697056Y-147697056D03*
X106400000Y-146000000D03*
%TD*%
D15*
%TO.P,R16,1*%
%TO.N,+3V3*%
X117780000Y-110758000D03*
%TO.P,R16,2*%
%TO.N,/Button_L2*%
X117780000Y-112408000D03*
%TD*%
D28*
%TO.P,R23,1*%
%TO.N,/Slider_LED_Data*%
X147244000Y-125108000D03*
%TO.P,R23,2*%
%TO.N,GND*%
X148894000Y-125108000D03*
%TD*%
D25*
%TO.P,R17,1*%
%TO.N,+3V3*%
X115748000Y-116598000D03*
%TO.P,R17,2*%
%TO.N,/Button_L3*%
X115748000Y-114948000D03*
%TD*%
D15*
%TO.P,R26,1*%
%TO.N,Net-(R26-Pad1)*%
X145212000Y-130125000D03*
%TO.P,R26,2*%
%TO.N,Net-(J6-Pin_8)*%
X145212000Y-131775000D03*
%TD*%
D29*
%TO.P,TP5,1,1*%
%TO.N,+3V3*%
X151308000Y-87516000D03*
%TD*%
D23*
%TO.P,FID3,*%
%TO.N,*%
X108000000Y-76750000D03*
%TD*%
D29*
%TO.P,TP4,1,1*%
%TO.N,+5V*%
X151308000Y-79896000D03*
%TD*%
D33*
%TO.P,C3,1*%
%TO.N,+3V3*%
X146736000Y-87008000D03*
%TO.P,C3,2*%
%TO.N,GND*%
X146736000Y-85458000D03*
%TD*%
D29*
%TO.P,TP6,1,1*%
%TO.N,GND*%
X151308000Y-83452000D03*
%TD*%
D16*
%TO.P,H3,1,1*%
%TO.N,GND*%
X158600000Y-146000000D03*
X159302944Y-144302944D03*
X159302944Y-147697056D03*
X161000000Y-143600000D03*
D17*
X161000000Y-146000000D03*
D16*
X161000000Y-148400000D03*
X162697056Y-144302944D03*
X162697056Y-147697056D03*
X163400000Y-146000000D03*
%TD*%
D29*
%TO.P,TP8,1,1*%
%TO.N,/Slider_I2C1_SDA*%
X149530000Y-119520000D03*
%TD*%
D25*
%TO.P,R1,1*%
%TO.N,+3V3*%
X115748000Y-78498000D03*
%TO.P,R1,2*%
%TO.N,/Button_Left*%
X115748000Y-76848000D03*
%TD*%
D27*
%TO.P,C1,1*%
%TO.N,+5V*%
X148768000Y-79883000D03*
%TO.P,C1,2*%
%TO.N,GND*%
X148768000Y-81433000D03*
%TD*%
D25*
%TO.P,R10,1*%
%TO.N,+3V3*%
X115748000Y-103898000D03*
%TO.P,R10,2*%
%TO.N,/Button_Down*%
X115748000Y-102248000D03*
%TD*%
D42*
%TO.N,GND*%
X104250000Y-121000000D03*
X124500000Y-148500000D03*
X120320000Y-82436000D03*
X144704000Y-106820000D03*
X147244000Y-82436000D03*
X132004000Y-123076000D03*
X108750000Y-134500000D03*
X102250000Y-105500000D03*
X163000000Y-109750000D03*
X102250000Y-119500000D03*
X104250000Y-119500000D03*
X103250000Y-86000000D03*
X128500000Y-135500000D03*
X160500000Y-116850000D03*
X139624000Y-120536000D03*
X147244000Y-84468000D03*
X126500000Y-144500000D03*
X134500000Y-135500000D03*
X137000000Y-148000000D03*
X101250000Y-121000000D03*
X160500000Y-86000000D03*
X108750000Y-99500000D03*
X128500000Y-134500000D03*
X161500000Y-104000000D03*
X161500000Y-139150000D03*
X125500000Y-144500000D03*
X139624000Y-106820000D03*
X105250000Y-88000000D03*
X140500000Y-146500000D03*
X163000000Y-131500000D03*
X140500000Y-144500000D03*
X160500000Y-139150000D03*
X104250000Y-104000000D03*
X120320000Y-94120000D03*
X150101000Y-125108000D03*
X159500000Y-117850000D03*
X105250000Y-102000000D03*
X139500000Y-144500000D03*
X159500000Y-88000000D03*
X103250000Y-119500000D03*
X140500000Y-147500000D03*
X129500000Y-135500000D03*
X144704000Y-81420000D03*
X159500000Y-102000000D03*
X108750000Y-135500000D03*
X139624000Y-94120000D03*
X108750000Y-115000000D03*
X135500000Y-132500000D03*
X105250000Y-104000000D03*
X128500000Y-133500000D03*
X101750000Y-116000000D03*
X132500000Y-138000000D03*
X120320000Y-81420000D03*
X133020000Y-128156000D03*
X136500000Y-135500000D03*
X101250000Y-86000000D03*
X120320000Y-106820000D03*
X125400000Y-95136000D03*
X153250000Y-115250000D03*
X162500000Y-139150000D03*
X159500000Y-116850000D03*
X134500000Y-132500000D03*
X130500000Y-135500000D03*
X159500000Y-138150000D03*
X159500000Y-104000000D03*
X125400000Y-106820000D03*
X120320000Y-119520000D03*
X105250000Y-121000000D03*
X149276000Y-84468000D03*
X105250000Y-103000000D03*
X147563000Y-133040000D03*
X105250000Y-122000000D03*
X108750000Y-100500000D03*
X105250000Y-105500000D03*
X129500000Y-132500000D03*
X139624000Y-81420000D03*
X144704000Y-82436000D03*
X132500000Y-135000000D03*
X163075000Y-114075000D03*
X125400000Y-81420000D03*
X101250000Y-119500000D03*
X159500000Y-86000000D03*
X148260000Y-84468000D03*
X148260000Y-82436000D03*
X156000000Y-131500000D03*
X103250000Y-105500000D03*
X101750000Y-134500000D03*
X139624000Y-107836000D03*
X136000000Y-148000000D03*
X159500000Y-139150000D03*
X125400000Y-94120000D03*
X105250000Y-138000000D03*
X124500000Y-146500000D03*
X128500000Y-132500000D03*
X101750000Y-99500000D03*
X102250000Y-139000000D03*
X103250000Y-121000000D03*
X159500000Y-137150000D03*
X102250000Y-86000000D03*
X140500000Y-145500000D03*
X102250000Y-121000000D03*
X162500000Y-86000000D03*
X138500000Y-144500000D03*
X120320000Y-95136000D03*
X132004000Y-128156000D03*
X148133000Y-101105000D03*
X105250000Y-106500000D03*
X101750000Y-135500000D03*
X125400000Y-82436000D03*
X103250000Y-139000000D03*
X146228000Y-84468000D03*
X137000000Y-141000000D03*
X139624000Y-119520000D03*
X163500000Y-86000000D03*
X101750000Y-100500000D03*
X163000000Y-111250000D03*
X124500000Y-144500000D03*
X125400000Y-107836000D03*
X144704000Y-119520000D03*
X162500000Y-116850000D03*
X163000000Y-130500000D03*
X139624000Y-95136000D03*
X105250000Y-139000000D03*
X163500000Y-139150000D03*
X105250000Y-137000000D03*
X160500000Y-104000000D03*
X136500000Y-133500000D03*
X148133000Y-97676000D03*
X105250000Y-87000000D03*
X105250000Y-118500000D03*
X148133000Y-92850000D03*
X159500000Y-103000000D03*
X156000000Y-130500000D03*
X104250000Y-105500000D03*
X103250000Y-104000000D03*
X133020000Y-123076000D03*
X101250000Y-139000000D03*
X105250000Y-117500000D03*
X101250000Y-104000000D03*
X105250000Y-86000000D03*
X144704000Y-107836000D03*
X124500000Y-145500000D03*
X163075000Y-106925000D03*
X144704000Y-120536000D03*
X162500000Y-104000000D03*
X104250000Y-139000000D03*
X136500000Y-134500000D03*
X136000000Y-141000000D03*
X108750000Y-116000000D03*
X130500000Y-132500000D03*
X135500000Y-135500000D03*
X161500000Y-86000000D03*
X148133000Y-106185000D03*
X125400000Y-119520000D03*
X120320000Y-107836000D03*
X159500000Y-87000000D03*
X159500000Y-118850000D03*
X105250000Y-119500000D03*
X153250000Y-116250000D03*
X124500000Y-147500000D03*
X104250000Y-86000000D03*
X105250000Y-123000000D03*
X102250000Y-104000000D03*
X144704000Y-94120000D03*
X139624000Y-82436000D03*
X101750000Y-115000000D03*
X140500000Y-148500000D03*
X136500000Y-132500000D03*
X146228000Y-82436000D03*
X161500000Y-116850000D03*
X125400000Y-120536000D03*
X149276000Y-82436000D03*
X101250000Y-105500000D03*
X144704000Y-95136000D03*
X120320000Y-120536000D03*
X105250000Y-107500000D03*
%TD*%
D43*
%TO.N,/LED_En_Circle*%
X145783000Y-105359000D02*
X147244000Y-105359000D01*
X142190000Y-104810000D02*
X145234000Y-104810000D01*
X145234000Y-104810000D02*
X145783000Y-105359000D01*
D44*
%TO.N,+3V3*%
X132512000Y-107074000D02*
X132512000Y-108090000D01*
D43*
X145847000Y-101994000D02*
X144831000Y-100978000D01*
X116384000Y-124218000D02*
X117169000Y-123433000D01*
X125400000Y-90183000D02*
X125400000Y-85738000D01*
X126416000Y-99962000D02*
X124892000Y-98438000D01*
X144196000Y-123838000D02*
X145212000Y-124854000D01*
X130480000Y-108598000D02*
X125400000Y-103518000D01*
X118796000Y-90818000D02*
X118416000Y-90438000D01*
X131500000Y-109106000D02*
X132406000Y-109106000D01*
X124892000Y-98438000D02*
X118796000Y-98438000D01*
X148006000Y-113805000D02*
X147881000Y-113805000D01*
X148388000Y-108726000D02*
X148260000Y-108598000D01*
X146355000Y-113678000D02*
X139116000Y-113678000D01*
X132406000Y-109106000D02*
X132512000Y-109000000D01*
X118796000Y-85738000D02*
X124384000Y-85738000D01*
D45*
X144197000Y-118630000D02*
X144043600Y-118783400D01*
D43*
X142989000Y-129363000D02*
X142989000Y-131013000D01*
D45*
X151500000Y-126000000D02*
X151500000Y-124500000D01*
D44*
X132512000Y-107074000D02*
X132512000Y-109000000D01*
D43*
X115748000Y-116598000D02*
X116384000Y-116598000D01*
X116384000Y-98818000D02*
X115748000Y-98818000D01*
X118416000Y-77738000D02*
X117780000Y-77738000D01*
X127305000Y-85357000D02*
X127305000Y-80023000D01*
X116384000Y-86118000D02*
X115748000Y-86118000D01*
X125400000Y-78118000D02*
X118796000Y-78118000D01*
X132702500Y-100978000D02*
X132512000Y-100787500D01*
X117780000Y-103138000D02*
X117144000Y-103138000D01*
D45*
X159500000Y-129000000D02*
X154500000Y-129000000D01*
X140030368Y-118783400D02*
X135560000Y-114313032D01*
D43*
X146483000Y-113806000D02*
X146355000Y-113678000D01*
X127305000Y-85357000D02*
X127432000Y-85484000D01*
D44*
X132512000Y-109000000D02*
X132512000Y-109868000D01*
D43*
X118391000Y-123433000D02*
X117780000Y-123433000D01*
X116384000Y-103898000D02*
X115748000Y-103898000D01*
X149022000Y-113550000D02*
X148261000Y-113550000D01*
X117144000Y-110758000D02*
X116384000Y-111518000D01*
X117144000Y-115838000D02*
X117780000Y-115838000D01*
X117780000Y-98058000D02*
X117144000Y-98058000D01*
X115748000Y-124218000D02*
X116384000Y-124218000D01*
X147244000Y-113806000D02*
X146483000Y-113806000D01*
X131500000Y-109106000D02*
X130480000Y-109106000D01*
X126416000Y-103518000D02*
X126416000Y-99962000D01*
X125908000Y-85230000D02*
X126924000Y-85230000D01*
X118416000Y-110758000D02*
X117780000Y-110758000D01*
X124384000Y-85738000D02*
X125400000Y-84722000D01*
D44*
X132512000Y-103391000D02*
X132512000Y-107074000D01*
D43*
X132512000Y-117488000D02*
X138862000Y-123838000D01*
D44*
X132512000Y-103391000D02*
X132512000Y-100787500D01*
D45*
X154500000Y-129000000D02*
X151500000Y-126000000D01*
X135560000Y-111900000D02*
X134036000Y-110376000D01*
D43*
X125400000Y-85738000D02*
X125908000Y-85230000D01*
X147881000Y-113805000D02*
X147880000Y-113806000D01*
X118416000Y-85358000D02*
X118796000Y-85738000D01*
X116384000Y-111518000D02*
X115748000Y-111518000D01*
X124765000Y-90818000D02*
X125400000Y-90183000D01*
X124892000Y-116218000D02*
X130988000Y-110122000D01*
X137877750Y-104057750D02*
X133845500Y-108090000D01*
X118796000Y-116218000D02*
X124892000Y-116218000D01*
X118796000Y-111138000D02*
X118416000Y-110758000D01*
X117144000Y-90438000D02*
X116384000Y-91198000D01*
X132512000Y-109868000D02*
X132512000Y-117488000D01*
X139624000Y-100978000D02*
X137877750Y-102724250D01*
X117169000Y-123433000D02*
X117780000Y-123433000D01*
X132512000Y-109868000D02*
X130988000Y-111392000D01*
X118796000Y-78118000D02*
X118416000Y-77738000D01*
X134544000Y-109106000D02*
X131500000Y-109106000D01*
X117780000Y-77738000D02*
X117144000Y-77738000D01*
X132512000Y-108090000D02*
X130988000Y-108090000D01*
X130988000Y-117488000D02*
X124638000Y-123838000D01*
X138862000Y-123838000D02*
X144196000Y-123838000D01*
X118416000Y-98058000D02*
X117780000Y-98058000D01*
D45*
X144043600Y-118783400D02*
X140030368Y-118783400D01*
D43*
X117144000Y-98058000D02*
X116384000Y-98818000D01*
X117780000Y-110758000D02*
X117144000Y-110758000D01*
X118416000Y-90438000D02*
X117780000Y-90438000D01*
X133845500Y-108090000D02*
X132512000Y-108090000D01*
X144831000Y-100978000D02*
X139624000Y-100978000D01*
X118416000Y-115838000D02*
X118796000Y-116218000D01*
X117144000Y-77738000D02*
X116384000Y-78498000D01*
X132385000Y-103518000D02*
X132512000Y-103391000D01*
X128448000Y-111138000D02*
X118796000Y-111138000D01*
X145212000Y-124854000D02*
X145212000Y-127140000D01*
X132512000Y-110122000D02*
X130988000Y-110122000D01*
X118796000Y-98438000D02*
X118416000Y-98058000D01*
X116384000Y-78498000D02*
X115748000Y-78498000D01*
X117780000Y-85358000D02*
X117144000Y-85358000D01*
X118416000Y-103138000D02*
X117780000Y-103138000D01*
X125400000Y-103518000D02*
X118796000Y-103518000D01*
X147244000Y-101994000D02*
X145847000Y-101994000D01*
X125400000Y-84722000D02*
X126670000Y-84722000D01*
X118796000Y-123838000D02*
X118391000Y-123433000D01*
D45*
X133020000Y-110376000D02*
X132512000Y-109868000D01*
D43*
X147880000Y-113806000D02*
X147244000Y-113806000D01*
X117144000Y-103138000D02*
X116384000Y-103898000D01*
D45*
X147244000Y-120244000D02*
X147244000Y-118630000D01*
D43*
X117780000Y-85358000D02*
X118416000Y-85358000D01*
X130988000Y-108090000D02*
X126416000Y-103518000D01*
X127305000Y-80023000D02*
X125400000Y-78118000D01*
X118796000Y-103518000D02*
X118416000Y-103138000D01*
D45*
X147244000Y-118630000D02*
X144197000Y-118630000D01*
X134036000Y-110376000D02*
X133020000Y-110376000D01*
D43*
X137877750Y-102724250D02*
X137877750Y-104057750D01*
X116384000Y-91198000D02*
X115748000Y-91198000D01*
X116384000Y-116598000D02*
X117144000Y-115838000D01*
X145212000Y-127140000D02*
X142989000Y-129363000D01*
X117780000Y-115838000D02*
X118416000Y-115838000D01*
X130480000Y-109106000D02*
X128448000Y-111138000D01*
X126670000Y-84722000D02*
X127305000Y-85357000D01*
D45*
X151500000Y-124500000D02*
X147244000Y-120244000D01*
D43*
X139116000Y-113678000D02*
X134544000Y-109106000D01*
X148261000Y-113550000D02*
X148006000Y-113805000D01*
X149022000Y-108726000D02*
X148388000Y-108726000D01*
D45*
X135560000Y-114313032D02*
X135560000Y-111900000D01*
D43*
X124765000Y-90818000D02*
X118796000Y-90818000D01*
X148260000Y-108598000D02*
X130480000Y-108598000D01*
X124638000Y-123838000D02*
X118796000Y-123838000D01*
X117780000Y-90438000D02*
X117144000Y-90438000D01*
X130988000Y-111392000D02*
X130988000Y-117488000D01*
X117144000Y-85358000D02*
X116384000Y-86118000D01*
%TO.N,/Slider_LED_Data*%
X142190000Y-122590000D02*
X145720000Y-122590000D01*
X147244000Y-125108000D02*
X148069000Y-125933000D01*
X147244000Y-124114000D02*
X145720000Y-122590000D01*
X147244000Y-125108000D02*
X147244000Y-124114000D01*
X148069000Y-125933000D02*
X148069000Y-127260000D01*
D44*
%TO.N,+5V*%
X155880000Y-90000000D02*
X155880000Y-91580000D01*
X159500000Y-92000000D02*
X164099000Y-92000000D01*
X148768000Y-79883000D02*
X146736000Y-79883000D01*
D45*
X154864000Y-79896000D02*
X154851000Y-79883000D01*
D44*
X164099000Y-90599000D02*
X163500000Y-90000000D01*
X163319000Y-133000000D02*
X164099000Y-132220000D01*
D43*
X149019000Y-129560000D02*
X149019000Y-130696000D01*
D44*
X156300000Y-92000000D02*
X155880000Y-91580000D01*
X155880000Y-80912000D02*
X155880000Y-90000000D01*
D43*
X149750000Y-133000000D02*
X159500000Y-133000000D01*
X148844000Y-130871000D02*
X148844000Y-131712000D01*
D44*
X145199000Y-79883000D02*
X144726000Y-79410000D01*
X164099000Y-92000000D02*
X164099000Y-132220000D01*
X159500000Y-92000000D02*
X156300000Y-92000000D01*
D43*
X148844000Y-132094000D02*
X149750000Y-133000000D01*
D44*
X159500000Y-90000000D02*
X155880000Y-90000000D01*
D43*
X148844000Y-131712000D02*
X148844000Y-132094000D01*
D45*
X155936000Y-90000000D02*
X155880000Y-90056000D01*
D43*
X149019000Y-130696000D02*
X148844000Y-130871000D01*
D45*
X155880000Y-91580000D02*
X155880000Y-90056000D01*
X155880000Y-90056000D02*
X155880000Y-80912000D01*
D44*
X164099000Y-92000000D02*
X164099000Y-90599000D01*
D45*
X145466000Y-79883000D02*
X145199000Y-79883000D01*
D44*
X163500000Y-90000000D02*
X159500000Y-90000000D01*
D45*
X146736000Y-79883000D02*
X145466000Y-79883000D01*
D44*
X144726000Y-79410000D02*
X142190000Y-79410000D01*
X151308000Y-79896000D02*
X154864000Y-79896000D01*
X148768000Y-76848000D02*
X148768000Y-79883000D01*
D45*
X154851000Y-79883000D02*
X148260000Y-79883000D01*
D44*
X146736000Y-79883000D02*
X145199000Y-79883000D01*
D45*
X159750000Y-90000000D02*
X155936000Y-90000000D01*
D44*
X151308000Y-79896000D02*
X148781000Y-79896000D01*
D43*
X145466000Y-79883000D02*
X148260000Y-79883000D01*
D45*
X159750000Y-92000000D02*
X156300000Y-92000000D01*
D44*
X154864000Y-79896000D02*
X155880000Y-80912000D01*
X159500000Y-133000000D02*
X163319000Y-133000000D01*
D43*
%TO.N,/LED_En_Triangle*%
X142190000Y-92110000D02*
X147222000Y-92110000D01*
%TO.N,/Button_Down*%
X110500000Y-123000000D02*
X110500000Y-103000000D01*
X108500000Y-125000000D02*
X110500000Y-123000000D01*
X110500000Y-103000000D02*
X111252000Y-102248000D01*
X105250000Y-125000000D02*
X108500000Y-125000000D01*
X111252000Y-102248000D02*
X115748000Y-102248000D01*
X115748000Y-102248000D02*
X116256000Y-102248000D01*
X116278000Y-102270000D02*
X122810000Y-102270000D01*
X116256000Y-102248000D02*
X116278000Y-102270000D01*
%TO.N,/Button_R2*%
X110500000Y-88500000D02*
X110500000Y-94000000D01*
X117780000Y-87008000D02*
X122788000Y-87008000D01*
X117780000Y-87008000D02*
X111992000Y-87008000D01*
X105250000Y-96000000D02*
X108500000Y-96000000D01*
X110500000Y-94000000D02*
X108500000Y-96000000D01*
X111992000Y-87008000D02*
X110500000Y-88500000D01*
%TO.N,Net-(A1-RUN)*%
X142190000Y-102270000D02*
X144472000Y-102270000D01*
X160925000Y-108425000D02*
X160925000Y-112575000D01*
X152832000Y-104534000D02*
X156534000Y-104534000D01*
X145085000Y-102883000D02*
X148133000Y-102883000D01*
X160925000Y-106925000D02*
X160000000Y-106000000D01*
X156534000Y-104534000D02*
X158000000Y-106000000D01*
X144472000Y-102270000D02*
X145085000Y-102883000D01*
X160000000Y-106000000D02*
X158000000Y-106000000D01*
X152451000Y-104153000D02*
X152832000Y-104534000D01*
X148133000Y-102883000D02*
X148894000Y-102122000D01*
X148894000Y-101994000D02*
X151054000Y-101994000D01*
X151054000Y-101994000D02*
X152451000Y-103391000D01*
X152451000Y-103391000D02*
X152451000Y-104153000D01*
X160925000Y-108425000D02*
X160925000Y-106925000D01*
%TO.N,/Button_L1*%
X108500000Y-129000000D02*
X111500000Y-126000000D01*
X112632000Y-109868000D02*
X115748000Y-109868000D01*
X111500000Y-126000000D02*
X111500000Y-111000000D01*
X111500000Y-111000000D02*
X112632000Y-109868000D01*
X105250000Y-129000000D02*
X108500000Y-129000000D01*
X122810000Y-109890000D02*
X115770000Y-109890000D01*
%TO.N,/Button_Left*%
X110652000Y-76848000D02*
X115748000Y-76848000D01*
X109000000Y-89500000D02*
X109000000Y-78500000D01*
X115748000Y-76848000D02*
X122788000Y-76848000D01*
X105250000Y-90000000D02*
X108500000Y-90000000D01*
X109000000Y-78500000D02*
X110652000Y-76848000D01*
X108500000Y-90000000D02*
X109000000Y-89500000D01*
%TO.N,/Button_Up*%
X122810000Y-104810000D02*
X117802000Y-104810000D01*
X112212000Y-104788000D02*
X111000000Y-106000000D01*
X105250000Y-127000000D02*
X108500000Y-127000000D01*
X111000000Y-124500000D02*
X108500000Y-127000000D01*
X111000000Y-106000000D02*
X111000000Y-124500000D01*
X117780000Y-104788000D02*
X112212000Y-104788000D01*
%TO.N,/Button_L2*%
X113092000Y-112408000D02*
X112000000Y-113500000D01*
X108500000Y-131000000D02*
X105250000Y-131000000D01*
X112000000Y-127500000D02*
X108500000Y-131000000D01*
X117780000Y-112408000D02*
X113092000Y-112408000D01*
X122810000Y-112430000D02*
X117802000Y-112430000D01*
X112000000Y-113500000D02*
X112000000Y-127500000D01*
%TO.N,Net-(A1-VBUS)*%
X146848000Y-76848000D02*
X142212000Y-76848000D01*
D44*
X142190000Y-76870000D02*
X147446000Y-76870000D01*
D45*
X147468000Y-76848000D02*
X142212000Y-76848000D01*
D43*
%TO.N,/Button_R3*%
X111032000Y-84468000D02*
X110000000Y-85500000D01*
X115748000Y-84468000D02*
X111032000Y-84468000D01*
X115748000Y-84468000D02*
X122788000Y-84468000D01*
X110000000Y-85500000D02*
X110000000Y-92500000D01*
X110000000Y-92500000D02*
X108500000Y-94000000D01*
X105250000Y-94000000D02*
X108500000Y-94000000D01*
%TO.N,/Button_Select*%
X109000000Y-109000000D02*
X108500000Y-109500000D01*
X108500000Y-109500000D02*
X105250000Y-109500000D01*
X117780000Y-92088000D02*
X122788000Y-92088000D01*
X109000000Y-101500000D02*
X109000000Y-109000000D01*
X117780000Y-92088000D02*
X113412000Y-92088000D01*
X113412000Y-92088000D02*
X111500000Y-94000000D01*
X111500000Y-94000000D02*
X111500000Y-99000000D01*
X111500000Y-99000000D02*
X109000000Y-101500000D01*
%TO.N,/Button_Start*%
X114332000Y-97168000D02*
X115748000Y-97168000D01*
X115748000Y-97168000D02*
X122788000Y-97168000D01*
X109500000Y-110500000D02*
X109500000Y-102000000D01*
X108500000Y-111500000D02*
X109500000Y-110500000D01*
X105250000Y-111500000D02*
X108500000Y-111500000D01*
X109500000Y-102000000D02*
X114332000Y-97168000D01*
%TO.N,/Button_R1*%
X111000000Y-90500000D02*
X111000000Y-95500000D01*
X111952000Y-89548000D02*
X111000000Y-90500000D01*
X111000000Y-95500000D02*
X108500000Y-98000000D01*
X115748000Y-89548000D02*
X111952000Y-89548000D01*
X115748000Y-89548000D02*
X122788000Y-89548000D01*
X105250000Y-98000000D02*
X108500000Y-98000000D01*
%TO.N,Net-(A1-SWCLK)*%
X131500000Y-134500000D02*
X132000000Y-134000000D01*
X132000000Y-134000000D02*
X132000000Y-132000000D01*
X130000000Y-124940000D02*
X130000000Y-130000000D01*
X131500000Y-136500000D02*
X131500000Y-134500000D01*
X130000000Y-130000000D02*
X132000000Y-132000000D01*
%TO.N,/Button_Right*%
X117780000Y-79388000D02*
X122788000Y-79388000D01*
X109500000Y-81500000D02*
X109500000Y-91000000D01*
X117780000Y-79388000D02*
X111612000Y-79388000D01*
X111612000Y-79388000D02*
X109500000Y-81500000D01*
X108500000Y-92000000D02*
X105250000Y-92000000D01*
X109500000Y-91000000D02*
X108500000Y-92000000D01*
%TO.N,/Button_L3*%
X115748000Y-114948000D02*
X122788000Y-114948000D01*
X113552000Y-114948000D02*
X115748000Y-114948000D01*
X112500000Y-129000000D02*
X112500000Y-116000000D01*
X108500000Y-133000000D02*
X112500000Y-129000000D01*
X112500000Y-116000000D02*
X113552000Y-114948000D01*
X105250000Y-133000000D02*
X108500000Y-133000000D01*
%TO.N,/Button_Home*%
X112792000Y-99708000D02*
X110000000Y-102500000D01*
X117780000Y-99708000D02*
X122788000Y-99708000D01*
X108500000Y-113500000D02*
X105250000Y-113500000D01*
X117780000Y-99708000D02*
X112792000Y-99708000D01*
X110000000Y-102500000D02*
X110000000Y-112000000D01*
X110000000Y-112000000D02*
X108500000Y-113500000D01*
%TO.N,Net-(A1-SWDIO)*%
X133000000Y-134000000D02*
X133000000Y-132000000D01*
X133500000Y-134500000D02*
X133000000Y-134000000D01*
X135000000Y-124940000D02*
X135000000Y-130000000D01*
X133000000Y-132000000D02*
X135000000Y-130000000D01*
X133500000Y-136500000D02*
X133500000Y-134500000D01*
%TO.N,/LED_En_Cross*%
X145234000Y-99730000D02*
X145783000Y-100279000D01*
X142190000Y-99730000D02*
X145234000Y-99730000D01*
X145783000Y-100279000D02*
X147244000Y-100279000D01*
%TO.N,Net-(Q2-G)*%
X148194000Y-94948000D02*
X149354500Y-94948000D01*
X148069000Y-95073000D02*
X148194000Y-94948000D01*
X147244000Y-95073000D02*
X148069000Y-95073000D01*
%TO.N,Net-(Q3-G)*%
X148194000Y-98504000D02*
X149354500Y-98504000D01*
X148069000Y-98629000D02*
X148194000Y-98504000D01*
X147244000Y-98629000D02*
X148069000Y-98629000D01*
%TO.N,Net-(Q4-G)*%
X147244000Y-103709000D02*
X148069000Y-103709000D01*
X148069000Y-103709000D02*
X148194000Y-103584000D01*
X148194000Y-103584000D02*
X149354500Y-103584000D01*
%TO.N,/LED_En_Square*%
X145657000Y-96723000D02*
X147244000Y-96723000D01*
X145190000Y-97190000D02*
X145657000Y-96723000D01*
X142190000Y-97190000D02*
X145190000Y-97190000D01*
%TO.N,/Slider_I2C1_SCL*%
X153500000Y-124000000D02*
X155000000Y-125500000D01*
X155000000Y-125500000D02*
X156000000Y-125500000D01*
X144704000Y-115456000D02*
X147244000Y-115456000D01*
X151500000Y-121000000D02*
X153500000Y-123000000D01*
X152480000Y-119520000D02*
X151500000Y-120500000D01*
X150800000Y-115710000D02*
X148768000Y-115710000D01*
X151562000Y-116472000D02*
X150800000Y-115710000D01*
X144218000Y-114970000D02*
X144704000Y-115456000D01*
X156000000Y-125500000D02*
X156500000Y-125000000D01*
X148514000Y-115456000D02*
X147244000Y-115456000D01*
X151500000Y-120500000D02*
X151500000Y-121000000D01*
X156500000Y-125000000D02*
X159500000Y-125000000D01*
X148768000Y-115710000D02*
X148514000Y-115456000D01*
X152578000Y-119520000D02*
X151562000Y-118504000D01*
X142190000Y-114970000D02*
X144218000Y-114970000D01*
X153500000Y-123000000D02*
X153500000Y-124000000D01*
X151562000Y-118504000D02*
X151562000Y-116472000D01*
%TO.N,/Slider_I2C1_SDA*%
X150292000Y-116726000D02*
X148768000Y-116726000D01*
X156500000Y-127000000D02*
X156000000Y-126500000D01*
X150546000Y-116980000D02*
X150292000Y-116726000D01*
X159500000Y-127000000D02*
X156500000Y-127000000D01*
X149530000Y-119520000D02*
X150546000Y-118504000D01*
X152500000Y-124500000D02*
X152500000Y-123500000D01*
X144174000Y-117510000D02*
X144704000Y-116980000D01*
X150500000Y-120500000D02*
X149530000Y-119530000D01*
X150546000Y-118504000D02*
X150546000Y-116980000D01*
X148768000Y-116726000D02*
X148514000Y-116980000D01*
X148514000Y-116980000D02*
X147244000Y-116980000D01*
X152500000Y-123500000D02*
X150500000Y-121500000D01*
X150500000Y-121500000D02*
X150500000Y-120500000D01*
X156000000Y-126500000D02*
X154500000Y-126500000D01*
X154500000Y-126500000D02*
X152500000Y-124500000D01*
X142190000Y-117510000D02*
X144174000Y-117510000D01*
X144704000Y-116980000D02*
X147244000Y-116980000D01*
D45*
%TO.N,GND*%
X122810000Y-107350000D02*
X125378000Y-107350000D01*
D43*
X132500000Y-136500000D02*
X132500000Y-135000000D01*
D45*
X142190000Y-94650000D02*
X139646000Y-94650000D01*
X120342000Y-107350000D02*
X120320000Y-107328000D01*
D43*
X105250000Y-102000000D02*
X105250000Y-104000000D01*
X103000000Y-117900000D02*
X105250000Y-117900000D01*
D45*
X132500000Y-128144000D02*
X132512000Y-128156000D01*
D43*
X136000000Y-148000000D02*
X137000000Y-148000000D01*
X105250000Y-115500000D02*
X108750000Y-115500000D01*
D45*
X120342000Y-81950000D02*
X120320000Y-81928000D01*
X125378000Y-107350000D02*
X125400000Y-107328000D01*
X142190000Y-120050000D02*
X139646000Y-120050000D01*
D43*
X136500000Y-144500000D02*
X136500000Y-141000000D01*
X101750000Y-135000000D02*
X108750000Y-135000000D01*
D45*
X125400000Y-107328000D02*
X125400000Y-107836000D01*
X122810000Y-94650000D02*
X120342000Y-94650000D01*
D43*
X105250000Y-122600000D02*
X105250000Y-123000000D01*
X148961000Y-96848000D02*
X148133000Y-97676000D01*
X162000000Y-87600000D02*
X162000000Y-85750000D01*
D45*
X125378000Y-120050000D02*
X125400000Y-120028000D01*
D43*
X134500000Y-132500000D02*
X136500000Y-132500000D01*
X142190000Y-107350000D02*
X139646000Y-107350000D01*
X130200000Y-133975000D02*
X130200000Y-132500000D01*
X101250000Y-119500000D02*
X105250000Y-119500000D01*
X134800000Y-133975000D02*
X134800000Y-135500000D01*
X159500000Y-85750000D02*
X159500000Y-88750000D01*
X105250000Y-87600000D02*
X105250000Y-88000000D01*
D45*
X120342000Y-94650000D02*
X120320000Y-94628000D01*
X139646000Y-94650000D02*
X139624000Y-94628000D01*
D43*
X148707000Y-92276000D02*
X148133000Y-92850000D01*
D45*
X132500000Y-124900000D02*
X132500000Y-128144000D01*
D43*
X142190000Y-107350000D02*
X144682000Y-107350000D01*
D45*
X125400000Y-94120000D02*
X125400000Y-94628000D01*
X125400000Y-119520000D02*
X125400000Y-120028000D01*
D43*
X148000000Y-131006000D02*
X147294000Y-131712000D01*
X103000000Y-87600000D02*
X105250000Y-87600000D01*
D45*
X125378000Y-81950000D02*
X125400000Y-81928000D01*
D43*
X147119000Y-127869000D02*
X148000000Y-128750000D01*
X108750000Y-115500000D02*
X108750000Y-116000000D01*
X130500000Y-132500000D02*
X130200000Y-132500000D01*
X103000000Y-137400000D02*
X103000000Y-139000000D01*
D45*
X139646000Y-120050000D02*
X139624000Y-120028000D01*
X122810000Y-107350000D02*
X120342000Y-107350000D01*
D43*
X130500000Y-135500000D02*
X128500000Y-135500000D01*
X148834000Y-100404000D02*
X148133000Y-101105000D01*
X105100000Y-137650000D02*
X103000000Y-137650000D01*
X105250000Y-137000000D02*
X105250000Y-139000000D01*
X159500000Y-131000000D02*
X156000000Y-131000000D01*
X126100000Y-146750000D02*
X126100000Y-144500000D01*
X130200000Y-133975000D02*
X130200000Y-135500000D01*
D45*
X120320000Y-106820000D02*
X120320000Y-107328000D01*
D43*
X134500000Y-135500000D02*
X136500000Y-135500000D01*
D45*
X120320000Y-94628000D02*
X120320000Y-95136000D01*
X120342000Y-120050000D02*
X120320000Y-120028000D01*
D43*
X101750000Y-99500000D02*
X101750000Y-100500000D01*
X101750000Y-135000000D02*
X101750000Y-135500000D01*
X148834000Y-105484000D02*
X148133000Y-106185000D01*
X101750000Y-115000000D02*
X101750000Y-115500000D01*
X161750000Y-87600000D02*
X159500000Y-87600000D01*
D45*
X144704000Y-120028000D02*
X144704000Y-120536000D01*
X142190000Y-94650000D02*
X144682000Y-94650000D01*
D43*
X128500000Y-133500000D02*
X128500000Y-135500000D01*
X163500000Y-85750000D02*
X162000000Y-85750000D01*
X140500000Y-144500000D02*
X138900000Y-144500000D01*
X105250000Y-117500000D02*
X105250000Y-119500000D01*
D45*
X120320000Y-94120000D02*
X120320000Y-94628000D01*
D43*
X105250000Y-86000000D02*
X105250000Y-87600000D01*
X159500000Y-131000000D02*
X163000000Y-131000000D01*
D45*
X142190000Y-120050000D02*
X144682000Y-120050000D01*
X120320000Y-119520000D02*
X120320000Y-120028000D01*
D43*
X132500000Y-136500000D02*
X132500000Y-138000000D01*
X124500000Y-144500000D02*
X126100000Y-144500000D01*
X105250000Y-135000000D02*
X105250000Y-139000000D01*
D45*
X125378000Y-94650000D02*
X125400000Y-94628000D01*
D43*
X162000000Y-102400000D02*
X162000000Y-104250000D01*
D45*
X132512000Y-123076000D02*
X133020000Y-123076000D01*
D43*
X108750000Y-115000000D02*
X108750000Y-115500000D01*
X124500000Y-148500000D02*
X124500000Y-144500000D01*
X105250000Y-107100000D02*
X105250000Y-107500000D01*
D45*
X139624000Y-94628000D02*
X139624000Y-95136000D01*
X120320000Y-81420000D02*
X120320000Y-82436000D01*
D43*
X128500000Y-132500000D02*
X128500000Y-133500000D01*
X101750000Y-115500000D02*
X101750000Y-116000000D01*
X103250000Y-139000000D02*
X101250000Y-139000000D01*
X138900000Y-144500000D02*
X138500000Y-144500000D01*
X148894000Y-125108000D02*
X150101000Y-125108000D01*
X101250000Y-104000000D02*
X105250000Y-104000000D01*
X103000000Y-122600000D02*
X105250000Y-122600000D01*
X105250000Y-100000000D02*
X108750000Y-100000000D01*
D45*
X144682000Y-120050000D02*
X144704000Y-120028000D01*
D43*
X101750000Y-134500000D02*
X101750000Y-135000000D01*
X126100000Y-144500000D02*
X126500000Y-144500000D01*
D45*
X132500000Y-123088000D02*
X132512000Y-123076000D01*
X139624000Y-106820000D02*
X139624000Y-107328000D01*
X122810000Y-94650000D02*
X125378000Y-94650000D01*
X122810000Y-120050000D02*
X120342000Y-120050000D01*
D43*
X103000000Y-107100000D02*
X103000000Y-105500000D01*
X138900000Y-146750000D02*
X138900000Y-144500000D01*
D45*
X120320000Y-120028000D02*
X120320000Y-120536000D01*
D43*
X130200000Y-132500000D02*
X128500000Y-132500000D01*
X105250000Y-137800000D02*
X105100000Y-137650000D01*
X159500000Y-104250000D02*
X159500000Y-101250000D01*
D45*
X132500000Y-124900000D02*
X132500000Y-123088000D01*
D43*
X147294000Y-132771000D02*
X147563000Y-133040000D01*
X101250000Y-86000000D02*
X105250000Y-86000000D01*
D45*
X144704000Y-94628000D02*
X144704000Y-95136000D01*
X144682000Y-94650000D02*
X144704000Y-94628000D01*
X125400000Y-106820000D02*
X125400000Y-107328000D01*
D43*
X105250000Y-100000000D02*
X101750000Y-100000000D01*
X162500000Y-104250000D02*
X159500000Y-104250000D01*
X162500000Y-116850000D02*
X159500000Y-116850000D01*
X136500000Y-135500000D02*
X136500000Y-133500000D01*
X163500000Y-139150000D02*
X159500000Y-139150000D01*
D45*
X132512000Y-128156000D02*
X132004000Y-128156000D01*
X144704000Y-94120000D02*
X144704000Y-94628000D01*
X122810000Y-81950000D02*
X120342000Y-81950000D01*
D43*
X134800000Y-133975000D02*
X136475000Y-133975000D01*
X108750000Y-134500000D02*
X108750000Y-135500000D01*
D45*
X132004000Y-123076000D02*
X132512000Y-123076000D01*
X125400000Y-81420000D02*
X125400000Y-82436000D01*
D43*
X159500000Y-139150000D02*
X159500000Y-136150000D01*
D45*
X144704000Y-107328000D02*
X144704000Y-107836000D01*
X133020000Y-128156000D02*
X132512000Y-128156000D01*
D43*
X156000000Y-130500000D02*
X156000000Y-131500000D01*
D45*
X139624000Y-94120000D02*
X139624000Y-94628000D01*
D43*
X161750000Y-102400000D02*
X159600000Y-102400000D01*
D45*
X125400000Y-81928000D02*
X125400000Y-81420000D01*
D43*
X101250000Y-121000000D02*
X105250000Y-121000000D01*
X161750000Y-137400000D02*
X161750000Y-139150000D01*
X163000000Y-131500000D02*
X163000000Y-130500000D01*
X103000000Y-107100000D02*
X105250000Y-107100000D01*
X161750000Y-118600000D02*
X159500000Y-118600000D01*
D45*
X125400000Y-94628000D02*
X125400000Y-95136000D01*
D43*
X103000000Y-139000000D02*
X105250000Y-139000000D01*
D45*
X139624000Y-119520000D02*
X139624000Y-120028000D01*
D43*
X161750000Y-137400000D02*
X159500000Y-137400000D01*
X136500000Y-141000000D02*
X137000000Y-141000000D01*
X147294000Y-131712000D02*
X147294000Y-132771000D01*
X105250000Y-138000000D02*
X105250000Y-137800000D01*
X130200000Y-133975000D02*
X128525000Y-133975000D01*
D45*
X144704000Y-119520000D02*
X144704000Y-120028000D01*
D43*
X101250000Y-105500000D02*
X105250000Y-105500000D01*
X134800000Y-133975000D02*
X134800000Y-132500000D01*
X136000000Y-141000000D02*
X136500000Y-141000000D01*
X103000000Y-139000000D02*
X102000000Y-139000000D01*
X140500000Y-148500000D02*
X140500000Y-144500000D01*
X126100000Y-146750000D02*
X124500000Y-146750000D01*
X144682000Y-107350000D02*
X144704000Y-107328000D01*
D45*
X139624000Y-120028000D02*
X139624000Y-120536000D01*
D43*
X103000000Y-117900000D02*
X103000000Y-119450000D01*
X136500000Y-132500000D02*
X136500000Y-133500000D01*
X162000000Y-85750000D02*
X159500000Y-85750000D01*
X161750000Y-118600000D02*
X161750000Y-116850000D01*
X149354500Y-92276000D02*
X148707000Y-92276000D01*
X159500000Y-116850000D02*
X159500000Y-119850000D01*
X163075000Y-108425000D02*
X163075000Y-106925000D01*
D45*
X122810000Y-120050000D02*
X125378000Y-120050000D01*
D43*
X163075000Y-112575000D02*
X163075000Y-114075000D01*
X148000000Y-128750000D02*
X148000000Y-131006000D01*
X103000000Y-87600000D02*
X103000000Y-86000000D01*
D45*
X125400000Y-120028000D02*
X125400000Y-120536000D01*
D43*
X103000000Y-102400000D02*
X103000000Y-103950000D01*
D45*
X144704000Y-106820000D02*
X144704000Y-107328000D01*
D43*
X101750000Y-115500000D02*
X105250000Y-115500000D01*
X138900000Y-146750000D02*
X140500000Y-146750000D01*
X105250000Y-121000000D02*
X105250000Y-122600000D01*
X105250000Y-105500000D02*
X105250000Y-107100000D01*
X139646000Y-107350000D02*
X139624000Y-107328000D01*
X108750000Y-99500000D02*
X108750000Y-100500000D01*
D45*
X122810000Y-81950000D02*
X125378000Y-81950000D01*
D43*
X103000000Y-122600000D02*
X103000000Y-121000000D01*
X136500000Y-144500000D02*
X136500000Y-148000000D01*
D45*
X120320000Y-107328000D02*
X120320000Y-107836000D01*
X139624000Y-107328000D02*
X139624000Y-107836000D01*
D43*
X103000000Y-102400000D02*
X105250000Y-102400000D01*
%TO.N,Net-(Q2-D)*%
X152514000Y-96723000D02*
X151689000Y-95898000D01*
X153340000Y-96723000D02*
X152514000Y-96723000D01*
%TO.N,Net-(Q3-D)*%
X152514000Y-100279000D02*
X151689000Y-99454000D01*
X153340000Y-100279000D02*
X152514000Y-100279000D01*
%TO.N,Net-(Q4-D)*%
X153340000Y-105359000D02*
X151625000Y-105359000D01*
X151229500Y-104963500D02*
X151229500Y-104534000D01*
X151625000Y-105359000D02*
X151229500Y-104963500D01*
%TO.N,Net-(Q1-G)*%
X148194000Y-90376000D02*
X149354500Y-90376000D01*
X148132000Y-90438000D02*
X148194000Y-90376000D01*
X147244000Y-90438000D02*
X148132000Y-90438000D01*
%TO.N,/LED-_Cross*%
X155556000Y-98000000D02*
X159750000Y-98000000D01*
X153340000Y-98629000D02*
X154927000Y-98629000D01*
X154927000Y-98629000D02*
X155556000Y-98000000D01*
%TO.N,/LED-_Triangle*%
X154419000Y-92151000D02*
X156268000Y-94000000D01*
X156268000Y-94000000D02*
X159750000Y-94000000D01*
X153340000Y-92151000D02*
X154419000Y-92151000D01*
%TO.N,/LED-_Square*%
X153340000Y-95073000D02*
X154801000Y-95073000D01*
X154801000Y-95073000D02*
X155728000Y-96000000D01*
X155728000Y-96000000D02*
X159750000Y-96000000D01*
%TO.N,/LED-_Circle*%
X156096000Y-100000000D02*
X159750000Y-100000000D01*
X153340000Y-103709000D02*
X153340000Y-102756000D01*
X153340000Y-102756000D02*
X156096000Y-100000000D01*
%TO.N,/Display_I2C0_SDA*%
X151308000Y-112662000D02*
X150292000Y-111646000D01*
X155000000Y-119000000D02*
X155000000Y-112544000D01*
X144174000Y-112430000D02*
X144704000Y-111900000D01*
X150038000Y-111646000D02*
X149784000Y-111900000D01*
X154000000Y-120000000D02*
X155000000Y-119000000D01*
X142190000Y-112430000D02*
X144174000Y-112430000D01*
X155000000Y-122500000D02*
X154000000Y-121500000D01*
X152324000Y-111646000D02*
X151308000Y-112662000D01*
X154000000Y-121500000D02*
X154000000Y-120000000D01*
X149784000Y-111900000D02*
X149022000Y-111900000D01*
X159500000Y-123000000D02*
X156500000Y-123000000D01*
X156000000Y-122500000D02*
X155000000Y-122500000D01*
X150292000Y-111646000D02*
X150038000Y-111646000D01*
X144704000Y-111900000D02*
X149022000Y-111900000D01*
X154102000Y-111646000D02*
X152324000Y-111646000D01*
X155000000Y-112544000D02*
X154102000Y-111646000D01*
X156500000Y-123000000D02*
X156000000Y-122500000D01*
%TO.N,/Display_I2C0_SCL*%
X154630000Y-110630000D02*
X152324000Y-110630000D01*
X156500000Y-121000000D02*
X156000000Y-121500000D01*
X155000000Y-121000000D02*
X155000000Y-120500000D01*
X156000000Y-112000000D02*
X154630000Y-110630000D01*
X150292000Y-110630000D02*
X150038000Y-110630000D01*
X152324000Y-110630000D02*
X151308000Y-109614000D01*
X144704000Y-110376000D02*
X149022000Y-110376000D01*
X156000000Y-121500000D02*
X155500000Y-121500000D01*
X155500000Y-121500000D02*
X155000000Y-121000000D01*
X155000000Y-120500000D02*
X156000000Y-119500000D01*
X149784000Y-110376000D02*
X149022000Y-110376000D01*
X156000000Y-119500000D02*
X156000000Y-112000000D01*
X159500000Y-121000000D02*
X156500000Y-121000000D01*
X150038000Y-110630000D02*
X149784000Y-110376000D01*
X151308000Y-109614000D02*
X150292000Y-110630000D01*
X142190000Y-109890000D02*
X144218000Y-109890000D01*
X144218000Y-109890000D02*
X144704000Y-110376000D01*
%TO.N,Net-(Q1-D)*%
X153340000Y-90501000D02*
X152514000Y-90501000D01*
X152514000Y-90501000D02*
X151689000Y-91326000D01*
%TO.N,/Button_Square*%
X128750000Y-137250000D02*
X124000000Y-137250000D01*
X117780000Y-131030000D02*
X117780000Y-125083000D01*
X124000000Y-137250000D02*
X117780000Y-131030000D01*
X132500000Y-144500000D02*
X132500000Y-141000000D01*
X122810000Y-125130000D02*
X117827000Y-125130000D01*
X132500000Y-141000000D02*
X128750000Y-137250000D01*
%TO.N,/Button_Triangle*%
X134500000Y-144500000D02*
X134500000Y-140000000D01*
X142190000Y-128130000D02*
X142190000Y-125130000D01*
X141339000Y-133161000D02*
X141339000Y-131013000D01*
X141339000Y-131013000D02*
X141339000Y-128981000D01*
X141339000Y-128981000D02*
X142190000Y-128130000D01*
X134500000Y-140000000D02*
X141339000Y-133161000D01*
%TO.N,/Button_Circle*%
X113500000Y-130250000D02*
X113500000Y-121768000D01*
X113500000Y-121768000D02*
X117780000Y-117488000D01*
X128500000Y-141000000D02*
X126750000Y-139250000D01*
X126750000Y-139250000D02*
X122500000Y-139250000D01*
X128500000Y-144500000D02*
X128500000Y-141000000D01*
X122500000Y-139250000D02*
X113500000Y-130250000D01*
X117780000Y-117488000D02*
X122788000Y-117488000D01*
%TO.N,/Button_Cross*%
X130500000Y-141000000D02*
X127750000Y-138250000D01*
X127750000Y-138250000D02*
X123250000Y-138250000D01*
X114500000Y-123816000D02*
X115748000Y-122568000D01*
X123250000Y-138250000D02*
X114500000Y-129500000D01*
X130500000Y-144500000D02*
X130500000Y-141000000D01*
X115748000Y-122568000D02*
X122788000Y-122568000D01*
X114500000Y-129500000D02*
X114500000Y-123816000D01*
%TO.N,Net-(J6-Pin_8)*%
X145250000Y-135000000D02*
X145250000Y-131813000D01*
X145250000Y-135000000D02*
X159500000Y-135000000D01*
%TO.N,Net-(R26-Pad1)*%
X145212000Y-130125000D02*
X146037000Y-130125000D01*
X146037000Y-130125000D02*
X146602000Y-129560000D01*
X146602000Y-129560000D02*
X147119000Y-129560000D01*
%TD*%
%TA.AperFunction,Conductor*%
%TO.N,GND*%
G36*
X109208531Y-134019213D02*
G01*
X109245076Y-134069513D01*
X109250000Y-134100600D01*
X109250000Y-135899400D01*
X109230787Y-135958531D01*
X109180487Y-135995076D01*
X109149400Y-136000000D01*
X106000000Y-136000000D01*
X106000000Y-139399400D01*
X105980787Y-139458531D01*
X105930487Y-139495076D01*
X105899400Y-139500000D01*
X100601100Y-139500000D01*
X100541969Y-139480787D01*
X100505424Y-139430487D01*
X100500500Y-139399400D01*
X100500500Y-137998210D01*
X101246001Y-137998210D01*
X101252453Y-138058233D01*
X101252454Y-138058238D01*
X101303098Y-138194021D01*
X101389953Y-138310046D01*
X101505978Y-138396901D01*
X101641764Y-138447546D01*
X101701789Y-138453999D01*
X102873000Y-138453999D01*
X103127000Y-138453999D01*
X104298210Y-138453999D01*
X104358233Y-138447546D01*
X104358238Y-138447545D01*
X104494021Y-138396901D01*
X104610046Y-138310046D01*
X104696901Y-138194021D01*
X104747546Y-138058236D01*
X104747546Y-138058234D01*
X104754000Y-137998210D01*
X104754000Y-137527000D01*
X103127000Y-137527000D01*
X103127000Y-138453999D01*
X102873000Y-138453999D01*
X102873000Y-137527000D01*
X101246001Y-137527000D01*
X101246001Y-137998210D01*
X100500500Y-137998210D01*
X100500500Y-136801789D01*
X101246000Y-136801789D01*
X101246000Y-137273000D01*
X102873000Y-137273000D01*
X103127000Y-137273000D01*
X104753999Y-137273000D01*
X104753999Y-136801789D01*
X104747546Y-136741766D01*
X104747545Y-136741761D01*
X104696901Y-136605978D01*
X104610046Y-136489953D01*
X104494021Y-136403098D01*
X104358235Y-136352453D01*
X104298211Y-136346000D01*
X103127000Y-136346000D01*
X103127000Y-137273000D01*
X102873000Y-137273000D01*
X102873000Y-136346000D01*
X101701789Y-136346000D01*
X101641766Y-136352453D01*
X101641761Y-136352454D01*
X101505978Y-136403098D01*
X101389953Y-136489953D01*
X101303098Y-136605978D01*
X101252453Y-136741763D01*
X101252453Y-136741765D01*
X101246000Y-136801789D01*
X100500500Y-136801789D01*
X100500500Y-135298210D01*
X102246001Y-135298210D01*
X102252453Y-135358233D01*
X102252454Y-135358238D01*
X102303098Y-135494021D01*
X102389953Y-135610046D01*
X102505978Y-135696901D01*
X102641764Y-135747546D01*
X102701789Y-135753999D01*
X105123000Y-135753999D01*
X105377000Y-135753999D01*
X107798210Y-135753999D01*
X107858233Y-135747546D01*
X107858238Y-135747545D01*
X107994021Y-135696901D01*
X108110046Y-135610046D01*
X108196901Y-135494021D01*
X108247546Y-135358236D01*
X108247546Y-135358234D01*
X108254000Y-135298210D01*
X108254000Y-135127000D01*
X105377000Y-135127000D01*
X105377000Y-135753999D01*
X105123000Y-135753999D01*
X105123000Y-135127000D01*
X102246001Y-135127000D01*
X102246001Y-135298210D01*
X100500500Y-135298210D01*
X100500500Y-134701789D01*
X102246000Y-134701789D01*
X102246000Y-134873000D01*
X105123000Y-134873000D01*
X105377000Y-134873000D01*
X108253999Y-134873000D01*
X108253999Y-134701789D01*
X108247546Y-134641766D01*
X108247545Y-134641761D01*
X108196901Y-134505978D01*
X108110046Y-134389953D01*
X107994021Y-134303098D01*
X107858235Y-134252453D01*
X107798211Y-134246000D01*
X105377000Y-134246000D01*
X105377000Y-134873000D01*
X105123000Y-134873000D01*
X105123000Y-134246000D01*
X102701789Y-134246000D01*
X102641766Y-134252453D01*
X102641761Y-134252454D01*
X102505978Y-134303098D01*
X102389953Y-134389953D01*
X102303098Y-134505978D01*
X102252453Y-134641763D01*
X102252453Y-134641765D01*
X102246000Y-134701789D01*
X100500500Y-134701789D01*
X100500500Y-134100600D01*
X100519713Y-134041469D01*
X100570013Y-134004924D01*
X100601100Y-134000000D01*
X109149400Y-134000000D01*
X109208531Y-134019213D01*
G37*
%TD.AperFunction*%
%TD*%
%TA.AperFunction,Conductor*%
%TO.N,GND*%
G36*
X163453831Y-101019213D02*
G01*
X163490376Y-101069513D01*
X163495300Y-101100600D01*
X163495300Y-101390229D01*
X163476087Y-101449360D01*
X163425787Y-101485905D01*
X163363613Y-101485905D01*
X163334413Y-101470764D01*
X163244021Y-101403098D01*
X163108235Y-101352453D01*
X163048211Y-101346000D01*
X161877000Y-101346000D01*
X161877000Y-103453999D01*
X163048210Y-103453999D01*
X163108233Y-103447546D01*
X163108238Y-103447545D01*
X163244021Y-103396901D01*
X163334413Y-103329235D01*
X163393264Y-103309180D01*
X163452663Y-103327547D01*
X163489923Y-103377320D01*
X163495300Y-103409770D01*
X163495300Y-104399400D01*
X163476087Y-104458531D01*
X163425787Y-104495076D01*
X163394700Y-104500000D01*
X158850600Y-104500000D01*
X158791469Y-104480787D01*
X158754924Y-104430487D01*
X158750000Y-104399400D01*
X158750000Y-102998210D01*
X159996001Y-102998210D01*
X160002453Y-103058233D01*
X160002454Y-103058238D01*
X160053098Y-103194021D01*
X160139953Y-103310046D01*
X160255978Y-103396901D01*
X160391764Y-103447546D01*
X160451789Y-103453999D01*
X161623000Y-103453999D01*
X161623000Y-102527000D01*
X159996001Y-102527000D01*
X159996001Y-102998210D01*
X158750000Y-102998210D01*
X158750000Y-101801789D01*
X159996000Y-101801789D01*
X159996000Y-102273000D01*
X161623000Y-102273000D01*
X161623000Y-101346000D01*
X160451789Y-101346000D01*
X160391766Y-101352453D01*
X160391761Y-101352454D01*
X160255978Y-101403098D01*
X160139953Y-101489953D01*
X160053098Y-101605978D01*
X160002453Y-101741763D01*
X160002453Y-101741765D01*
X159996000Y-101801789D01*
X158750000Y-101801789D01*
X158750000Y-101100600D01*
X158769213Y-101041469D01*
X158819513Y-101004924D01*
X158850600Y-101000000D01*
X163394700Y-101000000D01*
X163453831Y-101019213D01*
G37*
%TD.AperFunction*%
%TD*%
%TA.AperFunction,Conductor*%
%TO.N,GND*%
G36*
X164210751Y-85519213D02*
G01*
X164247296Y-85569513D01*
X164252220Y-85600600D01*
X164252220Y-88899400D01*
X164233007Y-88958531D01*
X164182707Y-88995076D01*
X164151620Y-89000000D01*
X158852820Y-89000000D01*
X158793689Y-88980787D01*
X158757144Y-88930487D01*
X158752220Y-88899400D01*
X158752220Y-88198210D01*
X159996001Y-88198210D01*
X160002453Y-88258233D01*
X160002454Y-88258238D01*
X160053098Y-88394021D01*
X160139953Y-88510046D01*
X160255978Y-88596901D01*
X160391764Y-88647546D01*
X160451789Y-88653999D01*
X161623000Y-88653999D01*
X161877000Y-88653999D01*
X163048210Y-88653999D01*
X163108233Y-88647546D01*
X163108238Y-88647545D01*
X163244021Y-88596901D01*
X163360046Y-88510046D01*
X163446901Y-88394021D01*
X163497546Y-88258236D01*
X163497546Y-88258234D01*
X163504000Y-88198210D01*
X163504000Y-87727000D01*
X161877000Y-87727000D01*
X161877000Y-88653999D01*
X161623000Y-88653999D01*
X161623000Y-87727000D01*
X159996001Y-87727000D01*
X159996001Y-88198210D01*
X158752220Y-88198210D01*
X158752220Y-87001789D01*
X159996000Y-87001789D01*
X159996000Y-87473000D01*
X161623000Y-87473000D01*
X161877000Y-87473000D01*
X163503999Y-87473000D01*
X163503999Y-87001789D01*
X163497546Y-86941766D01*
X163497545Y-86941761D01*
X163446901Y-86805978D01*
X163360046Y-86689953D01*
X163244021Y-86603098D01*
X163108235Y-86552453D01*
X163048211Y-86546000D01*
X161877000Y-86546000D01*
X161877000Y-87473000D01*
X161623000Y-87473000D01*
X161623000Y-86546000D01*
X160451789Y-86546000D01*
X160391766Y-86552453D01*
X160391761Y-86552454D01*
X160255978Y-86603098D01*
X160139953Y-86689953D01*
X160053098Y-86805978D01*
X160002453Y-86941763D01*
X160002453Y-86941765D01*
X159996000Y-87001789D01*
X158752220Y-87001789D01*
X158752220Y-85600600D01*
X158771433Y-85541469D01*
X158821733Y-85504924D01*
X158852820Y-85500000D01*
X164151620Y-85500000D01*
X164210751Y-85519213D01*
G37*
%TD.AperFunction*%
%TD*%
%TA.AperFunction,Conductor*%
%TO.N,GND*%
G36*
X109208531Y-114519213D02*
G01*
X109245076Y-114569513D01*
X109250000Y-114600600D01*
X109250000Y-116399400D01*
X109230787Y-116458531D01*
X109180487Y-116495076D01*
X109149400Y-116500000D01*
X106000000Y-116500000D01*
X106000000Y-123899400D01*
X105980787Y-123958531D01*
X105930487Y-123995076D01*
X105899400Y-124000000D01*
X100601100Y-124000000D01*
X100541969Y-123980787D01*
X100505424Y-123930487D01*
X100500500Y-123899400D01*
X100500500Y-123198210D01*
X101246001Y-123198210D01*
X101252453Y-123258233D01*
X101252454Y-123258238D01*
X101303098Y-123394021D01*
X101389953Y-123510046D01*
X101505978Y-123596901D01*
X101641764Y-123647546D01*
X101701789Y-123653999D01*
X102873000Y-123653999D01*
X103127000Y-123653999D01*
X104298210Y-123653999D01*
X104358233Y-123647546D01*
X104358238Y-123647545D01*
X104494021Y-123596901D01*
X104610046Y-123510046D01*
X104696901Y-123394021D01*
X104747546Y-123258236D01*
X104747546Y-123258234D01*
X104754000Y-123198210D01*
X104754000Y-122727000D01*
X103127000Y-122727000D01*
X103127000Y-123653999D01*
X102873000Y-123653999D01*
X102873000Y-122727000D01*
X101246001Y-122727000D01*
X101246001Y-123198210D01*
X100500500Y-123198210D01*
X100500500Y-122001789D01*
X101246000Y-122001789D01*
X101246000Y-122473000D01*
X102873000Y-122473000D01*
X103127000Y-122473000D01*
X104753999Y-122473000D01*
X104753999Y-122001789D01*
X104747546Y-121941766D01*
X104747545Y-121941761D01*
X104696901Y-121805978D01*
X104610046Y-121689953D01*
X104494021Y-121603098D01*
X104358235Y-121552453D01*
X104298211Y-121546000D01*
X103127000Y-121546000D01*
X103127000Y-122473000D01*
X102873000Y-122473000D01*
X102873000Y-121546000D01*
X101701789Y-121546000D01*
X101641766Y-121552453D01*
X101641761Y-121552454D01*
X101505978Y-121603098D01*
X101389953Y-121689953D01*
X101303098Y-121805978D01*
X101252453Y-121941763D01*
X101252453Y-121941765D01*
X101246000Y-122001789D01*
X100500500Y-122001789D01*
X100500500Y-118498210D01*
X101246001Y-118498210D01*
X101252453Y-118558233D01*
X101252454Y-118558238D01*
X101303098Y-118694021D01*
X101389953Y-118810046D01*
X101505978Y-118896901D01*
X101641764Y-118947546D01*
X101701789Y-118953999D01*
X102873000Y-118953999D01*
X103127000Y-118953999D01*
X104298210Y-118953999D01*
X104358233Y-118947546D01*
X104358238Y-118947545D01*
X104494021Y-118896901D01*
X104610046Y-118810046D01*
X104696901Y-118694021D01*
X104747546Y-118558236D01*
X104747546Y-118558234D01*
X104754000Y-118498210D01*
X104754000Y-118027000D01*
X103127000Y-118027000D01*
X103127000Y-118953999D01*
X102873000Y-118953999D01*
X102873000Y-118027000D01*
X101246001Y-118027000D01*
X101246001Y-118498210D01*
X100500500Y-118498210D01*
X100500500Y-117301789D01*
X101246000Y-117301789D01*
X101246000Y-117773000D01*
X102873000Y-117773000D01*
X103127000Y-117773000D01*
X104753999Y-117773000D01*
X104753999Y-117301789D01*
X104747546Y-117241766D01*
X104747545Y-117241761D01*
X104696901Y-117105978D01*
X104610046Y-116989953D01*
X104494021Y-116903098D01*
X104358235Y-116852453D01*
X104298211Y-116846000D01*
X103127000Y-116846000D01*
X103127000Y-117773000D01*
X102873000Y-117773000D01*
X102873000Y-116846000D01*
X101701789Y-116846000D01*
X101641766Y-116852453D01*
X101641761Y-116852454D01*
X101505978Y-116903098D01*
X101389953Y-116989953D01*
X101303098Y-117105978D01*
X101252453Y-117241763D01*
X101252453Y-117241765D01*
X101246000Y-117301789D01*
X100500500Y-117301789D01*
X100500500Y-115798210D01*
X102246001Y-115798210D01*
X102252453Y-115858233D01*
X102252454Y-115858238D01*
X102303098Y-115994021D01*
X102389953Y-116110046D01*
X102505978Y-116196901D01*
X102641764Y-116247546D01*
X102701789Y-116253999D01*
X105123000Y-116253999D01*
X105377000Y-116253999D01*
X107798210Y-116253999D01*
X107858233Y-116247546D01*
X107858238Y-116247545D01*
X107994021Y-116196901D01*
X108110046Y-116110046D01*
X108196901Y-115994021D01*
X108247546Y-115858236D01*
X108247546Y-115858234D01*
X108254000Y-115798210D01*
X108254000Y-115627000D01*
X105377000Y-115627000D01*
X105377000Y-116253999D01*
X105123000Y-116253999D01*
X105123000Y-115627000D01*
X102246001Y-115627000D01*
X102246001Y-115798210D01*
X100500500Y-115798210D01*
X100500500Y-115201789D01*
X102246000Y-115201789D01*
X102246000Y-115373000D01*
X105123000Y-115373000D01*
X105377000Y-115373000D01*
X108253999Y-115373000D01*
X108253999Y-115201789D01*
X108247546Y-115141766D01*
X108247545Y-115141761D01*
X108196901Y-115005978D01*
X108110046Y-114889953D01*
X107994021Y-114803098D01*
X107858235Y-114752453D01*
X107798211Y-114746000D01*
X105377000Y-114746000D01*
X105377000Y-115373000D01*
X105123000Y-115373000D01*
X105123000Y-114746000D01*
X102701789Y-114746000D01*
X102641766Y-114752453D01*
X102641761Y-114752454D01*
X102505978Y-114803098D01*
X102389953Y-114889953D01*
X102303098Y-115005978D01*
X102252453Y-115141763D01*
X102252453Y-115141765D01*
X102246000Y-115201789D01*
X100500500Y-115201789D01*
X100500500Y-114600600D01*
X100519713Y-114541469D01*
X100570013Y-114504924D01*
X100601100Y-114500000D01*
X109149400Y-114500000D01*
X109208531Y-114519213D01*
G37*
%TD.AperFunction*%
%TD*%
%TA.AperFunction,Conductor*%
%TO.N,GND*%
G36*
X127458531Y-143769213D02*
G01*
X127495076Y-143819513D01*
X127500000Y-143850600D01*
X127500000Y-149149400D01*
X127480787Y-149208531D01*
X127430487Y-149245076D01*
X127399400Y-149250000D01*
X124100600Y-149250000D01*
X124041469Y-149230787D01*
X124004924Y-149180487D01*
X124000000Y-149149400D01*
X124000000Y-148048210D01*
X125046001Y-148048210D01*
X125052453Y-148108233D01*
X125052454Y-148108238D01*
X125103098Y-148244021D01*
X125189953Y-148360046D01*
X125305978Y-148446901D01*
X125441764Y-148497546D01*
X125501789Y-148503999D01*
X125973000Y-148503999D01*
X126227000Y-148503999D01*
X126698210Y-148503999D01*
X126758233Y-148497546D01*
X126758238Y-148497545D01*
X126894021Y-148446901D01*
X127010046Y-148360046D01*
X127096901Y-148244021D01*
X127147546Y-148108236D01*
X127147546Y-148108234D01*
X127154000Y-148048210D01*
X127154000Y-146877000D01*
X126227000Y-146877000D01*
X126227000Y-148503999D01*
X125973000Y-148503999D01*
X125973000Y-146877000D01*
X125046001Y-146877000D01*
X125046001Y-148048210D01*
X124000000Y-148048210D01*
X124000000Y-145451789D01*
X125046000Y-145451789D01*
X125046000Y-146623000D01*
X125973000Y-146623000D01*
X126227000Y-146623000D01*
X127153999Y-146623000D01*
X127153999Y-145451789D01*
X127147546Y-145391766D01*
X127147545Y-145391761D01*
X127096901Y-145255978D01*
X127010046Y-145139953D01*
X126894021Y-145053098D01*
X126758235Y-145002453D01*
X126698211Y-144996000D01*
X126227000Y-144996000D01*
X126227000Y-146623000D01*
X125973000Y-146623000D01*
X125973000Y-144996000D01*
X125501789Y-144996000D01*
X125441766Y-145002453D01*
X125441761Y-145002454D01*
X125305978Y-145053098D01*
X125189953Y-145139953D01*
X125103098Y-145255978D01*
X125052453Y-145391763D01*
X125052453Y-145391765D01*
X125046000Y-145451789D01*
X124000000Y-145451789D01*
X124000000Y-143850600D01*
X124019213Y-143791469D01*
X124069513Y-143754924D01*
X124100600Y-143750000D01*
X127399400Y-143750000D01*
X127458531Y-143769213D01*
G37*
%TD.AperFunction*%
%TD*%
%TA.AperFunction,Conductor*%
%TO.N,+3V3*%
G36*
X127446540Y-84722861D02*
G01*
X127556279Y-84737308D01*
X127581645Y-84744105D01*
X127677762Y-84783918D01*
X127700505Y-84797049D01*
X127783045Y-84860384D01*
X127801615Y-84878954D01*
X127864950Y-84961494D01*
X127878081Y-84984237D01*
X127917894Y-85080354D01*
X127924691Y-85105720D01*
X127939139Y-85215458D01*
X127940000Y-85228590D01*
X127940000Y-90864894D01*
X127957036Y-90994303D01*
X128006984Y-91114888D01*
X128006986Y-91114891D01*
X128006987Y-91114893D01*
X128086447Y-91218447D01*
X128555553Y-91687553D01*
X128659107Y-91767013D01*
X128659109Y-91767014D01*
X128659111Y-91767015D01*
X128779696Y-91816963D01*
X128909106Y-91834000D01*
X131034893Y-91834000D01*
X131034894Y-91834000D01*
X131164303Y-91816963D01*
X131284888Y-91767015D01*
X131284887Y-91767015D01*
X131284893Y-91767013D01*
X131388447Y-91687553D01*
X131857553Y-91218447D01*
X131937013Y-91114893D01*
X131986963Y-90994303D01*
X132004000Y-90864893D01*
X132004000Y-87131600D01*
X140390660Y-87131600D01*
X140397442Y-87207896D01*
X140453571Y-87404057D01*
X140548033Y-87584897D01*
X140548035Y-87584900D01*
X140676971Y-87743026D01*
X140676973Y-87743028D01*
X140835099Y-87871964D01*
X140835102Y-87871966D01*
X141015942Y-87966428D01*
X141212103Y-88022557D01*
X141331809Y-88033199D01*
X142088400Y-88033199D01*
X142291600Y-88033199D01*
X143048188Y-88033199D01*
X143048192Y-88033198D01*
X143167896Y-88022557D01*
X143364056Y-87966429D01*
X143544897Y-87871966D01*
X143544900Y-87871964D01*
X143703026Y-87743028D01*
X143703028Y-87743026D01*
X143831964Y-87584900D01*
X143831966Y-87584897D01*
X143926428Y-87404057D01*
X143960612Y-87284589D01*
X146057801Y-87284589D01*
X146060511Y-87313504D01*
X146103144Y-87435344D01*
X146179796Y-87539201D01*
X146179798Y-87539203D01*
X146283654Y-87615854D01*
X146405494Y-87658487D01*
X146434421Y-87661199D01*
X146634400Y-87661199D01*
X146837600Y-87661199D01*
X147037576Y-87661199D01*
X147037589Y-87661198D01*
X147066504Y-87658488D01*
X147188344Y-87615855D01*
X147292201Y-87539203D01*
X147292203Y-87539201D01*
X147368854Y-87435345D01*
X147411487Y-87313505D01*
X147414199Y-87284589D01*
X148089801Y-87284589D01*
X148092511Y-87313504D01*
X148135144Y-87435344D01*
X148211796Y-87539201D01*
X148211798Y-87539203D01*
X148315654Y-87615854D01*
X148437494Y-87658487D01*
X148466421Y-87661199D01*
X148666400Y-87661199D01*
X148869600Y-87661199D01*
X149069576Y-87661199D01*
X149069589Y-87661198D01*
X149098504Y-87658488D01*
X149220344Y-87615855D01*
X149324201Y-87539203D01*
X149324203Y-87539201D01*
X149400854Y-87435345D01*
X149405769Y-87421299D01*
X150104800Y-87421299D01*
X150104800Y-87610700D01*
X150134424Y-87797743D01*
X150134428Y-87797759D01*
X150192949Y-87977869D01*
X150278926Y-88146606D01*
X150278933Y-88146617D01*
X150386140Y-88294174D01*
X151164314Y-87515999D01*
X150386140Y-86737824D01*
X150278928Y-86885391D01*
X150278926Y-86885394D01*
X150192949Y-87054130D01*
X150134428Y-87234240D01*
X150134424Y-87234256D01*
X150104800Y-87421299D01*
X149405769Y-87421299D01*
X149443487Y-87313505D01*
X149446200Y-87284578D01*
X149446200Y-87109600D01*
X148869600Y-87109600D01*
X148869600Y-87661199D01*
X148666400Y-87661199D01*
X148666400Y-87109600D01*
X148089801Y-87109600D01*
X148089801Y-87284589D01*
X147414199Y-87284589D01*
X147414200Y-87284578D01*
X147414200Y-87109600D01*
X146837600Y-87109600D01*
X146837600Y-87661199D01*
X146634400Y-87661199D01*
X146634400Y-87109600D01*
X146057801Y-87109600D01*
X146057801Y-87284589D01*
X143960612Y-87284589D01*
X143982557Y-87207896D01*
X143989340Y-87131600D01*
X142291600Y-87131600D01*
X142291600Y-88033199D01*
X142088400Y-88033199D01*
X142088400Y-87131600D01*
X140390660Y-87131600D01*
X132004000Y-87131600D01*
X132004000Y-86967697D01*
X132004859Y-86954581D01*
X132008306Y-86928400D01*
X140390660Y-86928400D01*
X142088400Y-86928400D01*
X142291600Y-86928400D01*
X143989340Y-86928400D01*
X143982557Y-86852103D01*
X143926428Y-86655942D01*
X143831966Y-86475102D01*
X143831964Y-86475099D01*
X143703028Y-86316973D01*
X143703026Y-86316971D01*
X143544900Y-86188035D01*
X143544897Y-86188033D01*
X143364057Y-86093571D01*
X143167896Y-86037442D01*
X143048191Y-86026800D01*
X142291600Y-86026800D01*
X142291600Y-86928400D01*
X142088400Y-86928400D01*
X142088400Y-86026800D01*
X141331812Y-86026800D01*
X141331807Y-86026801D01*
X141212103Y-86037442D01*
X141015943Y-86093570D01*
X140835102Y-86188033D01*
X140835099Y-86188035D01*
X140676973Y-86316971D01*
X140676971Y-86316973D01*
X140548035Y-86475099D01*
X140548033Y-86475102D01*
X140453571Y-86655942D01*
X140397442Y-86852103D01*
X140390660Y-86928400D01*
X132008306Y-86928400D01*
X132019308Y-86844825D01*
X132026105Y-86819461D01*
X132062573Y-86731421D01*
X132065918Y-86723342D01*
X132079046Y-86700603D01*
X132146440Y-86612773D01*
X132155101Y-86602898D01*
X132868898Y-85889101D01*
X132878773Y-85880440D01*
X132966603Y-85813046D01*
X132989342Y-85799918D01*
X133085463Y-85760104D01*
X133110825Y-85753308D01*
X133220567Y-85738861D01*
X133233698Y-85738000D01*
X143982302Y-85738000D01*
X143995433Y-85738861D01*
X144105172Y-85753308D01*
X144130538Y-85760105D01*
X144226655Y-85799918D01*
X144249398Y-85813048D01*
X144337215Y-85880432D01*
X144347109Y-85889109D01*
X144811553Y-86353553D01*
X144915107Y-86433013D01*
X144915109Y-86433014D01*
X144915111Y-86433015D01*
X145035696Y-86482963D01*
X145165106Y-86500000D01*
X145165107Y-86500000D01*
X145989585Y-86500000D01*
X146048716Y-86519213D01*
X146085261Y-86569513D01*
X146085261Y-86631687D01*
X146084540Y-86633826D01*
X146060512Y-86702494D01*
X146057800Y-86731421D01*
X146057800Y-86906400D01*
X147414199Y-86906400D01*
X147414199Y-86731423D01*
X147414198Y-86731410D01*
X147411488Y-86702495D01*
X147387460Y-86633826D01*
X147386065Y-86571668D01*
X147421472Y-86520560D01*
X147480157Y-86500025D01*
X147482415Y-86500000D01*
X148021585Y-86500000D01*
X148080716Y-86519213D01*
X148117261Y-86569513D01*
X148117261Y-86631687D01*
X148116540Y-86633826D01*
X148092512Y-86702494D01*
X148089800Y-86731421D01*
X148089800Y-86906400D01*
X149446199Y-86906400D01*
X149446199Y-86731423D01*
X149446198Y-86731410D01*
X149443488Y-86702495D01*
X149419460Y-86633826D01*
X149418065Y-86571668D01*
X149453472Y-86520560D01*
X149512157Y-86500025D01*
X149514415Y-86500000D01*
X150428404Y-86500000D01*
X150487535Y-86519213D01*
X150524080Y-86569513D01*
X150526615Y-86590931D01*
X151308707Y-87373023D01*
X151315948Y-87387235D01*
X151327223Y-87398518D01*
X151329707Y-87414239D01*
X151336933Y-87428421D01*
X151334438Y-87444173D01*
X151336928Y-87459930D01*
X151329696Y-87474110D01*
X151327207Y-87489829D01*
X151308682Y-87515318D01*
X151307999Y-87515999D01*
X151308706Y-87516706D01*
X151336932Y-87572104D01*
X151327206Y-87633512D01*
X151308706Y-87658976D01*
X150523802Y-88443880D01*
X150514179Y-88483964D01*
X150466901Y-88524342D01*
X150428404Y-88532000D01*
X135005106Y-88532000D01*
X134875696Y-88549036D01*
X134755111Y-88598984D01*
X134755108Y-88598986D01*
X134651549Y-88678450D01*
X134125803Y-89204197D01*
X134125801Y-89204198D01*
X134059338Y-89303667D01*
X134036000Y-89421000D01*
X134036000Y-91874302D01*
X134035139Y-91887434D01*
X134020691Y-91997172D01*
X134013894Y-92022538D01*
X133974081Y-92118655D01*
X133960951Y-92141398D01*
X133893567Y-92229215D01*
X133884890Y-92239109D01*
X132409109Y-93714890D01*
X132399215Y-93723567D01*
X132311398Y-93790951D01*
X132288655Y-93804081D01*
X132192538Y-93843894D01*
X132167172Y-93850691D01*
X132074497Y-93862892D01*
X132057432Y-93865139D01*
X132044302Y-93866000D01*
X131446531Y-93866000D01*
X131403867Y-93871553D01*
X131318538Y-93882659D01*
X131199081Y-93931524D01*
X131096100Y-94009350D01*
X130883578Y-94218160D01*
X130802464Y-94322278D01*
X130802463Y-94322279D01*
X130751419Y-94443991D01*
X130734000Y-94574816D01*
X130734000Y-97468894D01*
X130751036Y-97598303D01*
X130800984Y-97718888D01*
X130800986Y-97718891D01*
X130800987Y-97718893D01*
X130880447Y-97822447D01*
X130880450Y-97822450D01*
X133122890Y-100064890D01*
X133131567Y-100074784D01*
X133198951Y-100162601D01*
X133212081Y-100185344D01*
X133251894Y-100281461D01*
X133258691Y-100306827D01*
X133273139Y-100416565D01*
X133274000Y-100429697D01*
X133274000Y-109963204D01*
X133272915Y-109977939D01*
X133272915Y-109977940D01*
X133254727Y-110100769D01*
X133246187Y-110128973D01*
X133193186Y-110241263D01*
X133185915Y-110254126D01*
X132911473Y-110665790D01*
X132901256Y-110678688D01*
X132831823Y-110752950D01*
X132812538Y-110773578D01*
X132786523Y-110793568D01*
X132679372Y-110850914D01*
X132648309Y-110861471D01*
X132528403Y-110881289D01*
X132495597Y-110881289D01*
X132375688Y-110861470D01*
X132344627Y-110850914D01*
X132237476Y-110793568D01*
X132211463Y-110773580D01*
X132122737Y-110678681D01*
X132112530Y-110665795D01*
X131838082Y-110254122D01*
X131830813Y-110241263D01*
X131777812Y-110128973D01*
X131769272Y-110100768D01*
X131751085Y-109977939D01*
X131750000Y-109963204D01*
X131750000Y-101185105D01*
X131732963Y-101055696D01*
X131683015Y-100935111D01*
X131683013Y-100935108D01*
X131683013Y-100935107D01*
X131603553Y-100831553D01*
X129361109Y-98589109D01*
X129352432Y-98579215D01*
X129285048Y-98491398D01*
X129271918Y-98468655D01*
X129232105Y-98372538D01*
X129225308Y-98347171D01*
X129210861Y-98237433D01*
X129210000Y-98224302D01*
X129210000Y-94581105D01*
X129192963Y-94451696D01*
X129143015Y-94331111D01*
X129143013Y-94331108D01*
X129143013Y-94331107D01*
X129063553Y-94227553D01*
X128848447Y-94012447D01*
X128744893Y-93932987D01*
X128744891Y-93932986D01*
X128744888Y-93932984D01*
X128624303Y-93883036D01*
X128494894Y-93866000D01*
X128494893Y-93866000D01*
X128407698Y-93866000D01*
X128394567Y-93865139D01*
X128284828Y-93850691D01*
X128259461Y-93843894D01*
X128163344Y-93804081D01*
X128140601Y-93790951D01*
X128052784Y-93723567D01*
X128042890Y-93714890D01*
X126821109Y-92493109D01*
X126812432Y-92483215D01*
X126745048Y-92395398D01*
X126731918Y-92372655D01*
X126692105Y-92276538D01*
X126685308Y-92251171D01*
X126682417Y-92229215D01*
X126670861Y-92141433D01*
X126670000Y-92128302D01*
X126670000Y-85228590D01*
X126670861Y-85215459D01*
X126685308Y-85105721D01*
X126685308Y-85105720D01*
X126692105Y-85080354D01*
X126731918Y-84984237D01*
X126745049Y-84961494D01*
X126769021Y-84930252D01*
X126808386Y-84878951D01*
X126826951Y-84860386D01*
X126909494Y-84797049D01*
X126932235Y-84783918D01*
X127028356Y-84744104D01*
X127053718Y-84737308D01*
X127163460Y-84722861D01*
X127176591Y-84722000D01*
X127433409Y-84722000D01*
X127446540Y-84722861D01*
G37*
%TD.AperFunction*%
%TD*%
%TA.AperFunction,Conductor*%
%TO.N,GND*%
G36*
X109208531Y-99019213D02*
G01*
X109245076Y-99069513D01*
X109250000Y-99100600D01*
X109250000Y-100740649D01*
X109230787Y-100799780D01*
X109220535Y-100811784D01*
X109061784Y-100970535D01*
X109006386Y-100998761D01*
X108990649Y-101000000D01*
X106000000Y-101000000D01*
X106000000Y-108399400D01*
X105980787Y-108458531D01*
X105930487Y-108495076D01*
X105899400Y-108500000D01*
X100601100Y-108500000D01*
X100541969Y-108480787D01*
X100505424Y-108430487D01*
X100500500Y-108399400D01*
X100500500Y-107698210D01*
X101246001Y-107698210D01*
X101252453Y-107758233D01*
X101252454Y-107758238D01*
X101303098Y-107894021D01*
X101389953Y-108010046D01*
X101505978Y-108096901D01*
X101641764Y-108147546D01*
X101701789Y-108153999D01*
X102873000Y-108153999D01*
X103127000Y-108153999D01*
X104298210Y-108153999D01*
X104358233Y-108147546D01*
X104358238Y-108147545D01*
X104494021Y-108096901D01*
X104610046Y-108010046D01*
X104696901Y-107894021D01*
X104747546Y-107758236D01*
X104747546Y-107758234D01*
X104754000Y-107698210D01*
X104754000Y-107227000D01*
X103127000Y-107227000D01*
X103127000Y-108153999D01*
X102873000Y-108153999D01*
X102873000Y-107227000D01*
X101246001Y-107227000D01*
X101246001Y-107698210D01*
X100500500Y-107698210D01*
X100500500Y-106501789D01*
X101246000Y-106501789D01*
X101246000Y-106973000D01*
X102873000Y-106973000D01*
X103127000Y-106973000D01*
X104753999Y-106973000D01*
X104753999Y-106501789D01*
X104747546Y-106441766D01*
X104747545Y-106441761D01*
X104696901Y-106305978D01*
X104610046Y-106189953D01*
X104494021Y-106103098D01*
X104358235Y-106052453D01*
X104298211Y-106046000D01*
X103127000Y-106046000D01*
X103127000Y-106973000D01*
X102873000Y-106973000D01*
X102873000Y-106046000D01*
X101701789Y-106046000D01*
X101641766Y-106052453D01*
X101641761Y-106052454D01*
X101505978Y-106103098D01*
X101389953Y-106189953D01*
X101303098Y-106305978D01*
X101252453Y-106441763D01*
X101252453Y-106441765D01*
X101246000Y-106501789D01*
X100500500Y-106501789D01*
X100500500Y-102998210D01*
X101246001Y-102998210D01*
X101252453Y-103058233D01*
X101252454Y-103058238D01*
X101303098Y-103194021D01*
X101389953Y-103310046D01*
X101505978Y-103396901D01*
X101641764Y-103447546D01*
X101701789Y-103453999D01*
X102873000Y-103453999D01*
X103127000Y-103453999D01*
X104298210Y-103453999D01*
X104358233Y-103447546D01*
X104358238Y-103447545D01*
X104494021Y-103396901D01*
X104610046Y-103310046D01*
X104696901Y-103194021D01*
X104747546Y-103058236D01*
X104747546Y-103058234D01*
X104754000Y-102998210D01*
X104754000Y-102527000D01*
X103127000Y-102527000D01*
X103127000Y-103453999D01*
X102873000Y-103453999D01*
X102873000Y-102527000D01*
X101246001Y-102527000D01*
X101246001Y-102998210D01*
X100500500Y-102998210D01*
X100500500Y-101801789D01*
X101246000Y-101801789D01*
X101246000Y-102273000D01*
X102873000Y-102273000D01*
X103127000Y-102273000D01*
X104753999Y-102273000D01*
X104753999Y-101801789D01*
X104747546Y-101741766D01*
X104747545Y-101741761D01*
X104696901Y-101605978D01*
X104610046Y-101489953D01*
X104494021Y-101403098D01*
X104358235Y-101352453D01*
X104298211Y-101346000D01*
X103127000Y-101346000D01*
X103127000Y-102273000D01*
X102873000Y-102273000D01*
X102873000Y-101346000D01*
X101701789Y-101346000D01*
X101641766Y-101352453D01*
X101641761Y-101352454D01*
X101505978Y-101403098D01*
X101389953Y-101489953D01*
X101303098Y-101605978D01*
X101252453Y-101741763D01*
X101252453Y-101741765D01*
X101246000Y-101801789D01*
X100500500Y-101801789D01*
X100500500Y-100298210D01*
X102246001Y-100298210D01*
X102252453Y-100358233D01*
X102252454Y-100358238D01*
X102303098Y-100494021D01*
X102389953Y-100610046D01*
X102505978Y-100696901D01*
X102641764Y-100747546D01*
X102701789Y-100753999D01*
X105123000Y-100753999D01*
X105377000Y-100753999D01*
X107798210Y-100753999D01*
X107858233Y-100747546D01*
X107858238Y-100747545D01*
X107994021Y-100696901D01*
X108110046Y-100610046D01*
X108196901Y-100494021D01*
X108247546Y-100358236D01*
X108247546Y-100358234D01*
X108254000Y-100298210D01*
X108254000Y-100127000D01*
X105377000Y-100127000D01*
X105377000Y-100753999D01*
X105123000Y-100753999D01*
X105123000Y-100127000D01*
X102246001Y-100127000D01*
X102246001Y-100298210D01*
X100500500Y-100298210D01*
X100500500Y-99701789D01*
X102246000Y-99701789D01*
X102246000Y-99873000D01*
X105123000Y-99873000D01*
X105377000Y-99873000D01*
X108253999Y-99873000D01*
X108253999Y-99701789D01*
X108247546Y-99641766D01*
X108247545Y-99641761D01*
X108196901Y-99505978D01*
X108110046Y-99389953D01*
X107994021Y-99303098D01*
X107858235Y-99252453D01*
X107798211Y-99246000D01*
X105377000Y-99246000D01*
X105377000Y-99873000D01*
X105123000Y-99873000D01*
X105123000Y-99246000D01*
X102701789Y-99246000D01*
X102641766Y-99252453D01*
X102641761Y-99252454D01*
X102505978Y-99303098D01*
X102389953Y-99389953D01*
X102303098Y-99505978D01*
X102252453Y-99641763D01*
X102252453Y-99641765D01*
X102246000Y-99701789D01*
X100500500Y-99701789D01*
X100500500Y-99100600D01*
X100519713Y-99041469D01*
X100570013Y-99004924D01*
X100601100Y-99000000D01*
X109149400Y-99000000D01*
X109208531Y-99019213D01*
G37*
%TD.AperFunction*%
%TD*%
%TA.AperFunction,Conductor*%
%TO.N,GND*%
G36*
X164208531Y-136019213D02*
G01*
X164245076Y-136069513D01*
X164250000Y-136100600D01*
X164250000Y-139399400D01*
X164230787Y-139458531D01*
X164180487Y-139495076D01*
X164149400Y-139500000D01*
X158850600Y-139500000D01*
X158791469Y-139480787D01*
X158754924Y-139430487D01*
X158750000Y-139399400D01*
X158750000Y-137998210D01*
X159996001Y-137998210D01*
X160002453Y-138058233D01*
X160002454Y-138058238D01*
X160053098Y-138194021D01*
X160139953Y-138310046D01*
X160255978Y-138396901D01*
X160391764Y-138447546D01*
X160451789Y-138453999D01*
X161623000Y-138453999D01*
X161877000Y-138453999D01*
X163048210Y-138453999D01*
X163108233Y-138447546D01*
X163108238Y-138447545D01*
X163244021Y-138396901D01*
X163360046Y-138310046D01*
X163446901Y-138194021D01*
X163497546Y-138058236D01*
X163497546Y-138058234D01*
X163504000Y-137998210D01*
X163504000Y-137527000D01*
X161877000Y-137527000D01*
X161877000Y-138453999D01*
X161623000Y-138453999D01*
X161623000Y-137527000D01*
X159996001Y-137527000D01*
X159996001Y-137998210D01*
X158750000Y-137998210D01*
X158750000Y-136801789D01*
X159996000Y-136801789D01*
X159996000Y-137273000D01*
X161623000Y-137273000D01*
X161877000Y-137273000D01*
X163503999Y-137273000D01*
X163503999Y-136801789D01*
X163497546Y-136741766D01*
X163497545Y-136741761D01*
X163446901Y-136605978D01*
X163360046Y-136489953D01*
X163244021Y-136403098D01*
X163108235Y-136352453D01*
X163048211Y-136346000D01*
X161877000Y-136346000D01*
X161877000Y-137273000D01*
X161623000Y-137273000D01*
X161623000Y-136346000D01*
X160451789Y-136346000D01*
X160391766Y-136352453D01*
X160391761Y-136352454D01*
X160255978Y-136403098D01*
X160139953Y-136489953D01*
X160053098Y-136605978D01*
X160002453Y-136741763D01*
X160002453Y-136741765D01*
X159996000Y-136801789D01*
X158750000Y-136801789D01*
X158750000Y-136100600D01*
X158769213Y-136041469D01*
X158819513Y-136004924D01*
X158850600Y-136000000D01*
X164149400Y-136000000D01*
X164208531Y-136019213D01*
G37*
%TD.AperFunction*%
%TD*%
%TA.AperFunction,Conductor*%
%TO.N,GND*%
G36*
X163453831Y-116519213D02*
G01*
X163490376Y-116569513D01*
X163495300Y-116600600D01*
X163495300Y-117590229D01*
X163476087Y-117649360D01*
X163425787Y-117685905D01*
X163363613Y-117685905D01*
X163334413Y-117670764D01*
X163244021Y-117603098D01*
X163108235Y-117552453D01*
X163048211Y-117546000D01*
X161877000Y-117546000D01*
X161877000Y-119653999D01*
X163048210Y-119653999D01*
X163108233Y-119647546D01*
X163108238Y-119647545D01*
X163244021Y-119596901D01*
X163334413Y-119529235D01*
X163393264Y-119509180D01*
X163452663Y-119527547D01*
X163489923Y-119577320D01*
X163495300Y-119609770D01*
X163495300Y-119899400D01*
X163476087Y-119958531D01*
X163425787Y-119995076D01*
X163394700Y-120000000D01*
X158850600Y-120000000D01*
X158791469Y-119980787D01*
X158754924Y-119930487D01*
X158750000Y-119899400D01*
X158750000Y-119198210D01*
X159996001Y-119198210D01*
X160002453Y-119258233D01*
X160002454Y-119258238D01*
X160053098Y-119394021D01*
X160139953Y-119510046D01*
X160255978Y-119596901D01*
X160391764Y-119647546D01*
X160451789Y-119653999D01*
X161623000Y-119653999D01*
X161623000Y-118727000D01*
X159996001Y-118727000D01*
X159996001Y-119198210D01*
X158750000Y-119198210D01*
X158750000Y-118001789D01*
X159996000Y-118001789D01*
X159996000Y-118473000D01*
X161623000Y-118473000D01*
X161623000Y-117546000D01*
X160451789Y-117546000D01*
X160391766Y-117552453D01*
X160391761Y-117552454D01*
X160255978Y-117603098D01*
X160139953Y-117689953D01*
X160053098Y-117805978D01*
X160002453Y-117941763D01*
X160002453Y-117941765D01*
X159996000Y-118001789D01*
X158750000Y-118001789D01*
X158750000Y-116600600D01*
X158769213Y-116541469D01*
X158819513Y-116504924D01*
X158850600Y-116500000D01*
X163394700Y-116500000D01*
X163453831Y-116519213D01*
G37*
%TD.AperFunction*%
%TD*%
%TA.AperFunction,Conductor*%
%TO.N,GND*%
G36*
X136958531Y-132019213D02*
G01*
X136995076Y-132069513D01*
X137000000Y-132100600D01*
X137000000Y-135899400D01*
X136980787Y-135958531D01*
X136930487Y-135995076D01*
X136899400Y-136000000D01*
X134104299Y-136000000D01*
X134091053Y-135995696D01*
X134077139Y-135996264D01*
X134062218Y-135986327D01*
X134045168Y-135980787D01*
X134036982Y-135969520D01*
X134025390Y-135961800D01*
X134019901Y-135946010D01*
X134008623Y-135930487D01*
X134003783Y-135903502D01*
X134003699Y-135901444D01*
X134003699Y-135841432D01*
X134000297Y-135818082D01*
X134000084Y-135812854D01*
X134000253Y-135812249D01*
X134000000Y-135808752D01*
X134000000Y-135118681D01*
X134019213Y-135059550D01*
X134069513Y-135023005D01*
X134131687Y-135023005D01*
X134160887Y-135038146D01*
X134205978Y-135071901D01*
X134341764Y-135122546D01*
X134401790Y-135128999D01*
X134673000Y-135128999D01*
X134927000Y-135128999D01*
X135198210Y-135128999D01*
X135258233Y-135122546D01*
X135258238Y-135122545D01*
X135394021Y-135071901D01*
X135510046Y-134985046D01*
X135596901Y-134869021D01*
X135647546Y-134733236D01*
X135647546Y-134733234D01*
X135654000Y-134673210D01*
X135654000Y-134102000D01*
X134927000Y-134102000D01*
X134927000Y-135128999D01*
X134673000Y-135128999D01*
X134673000Y-133848000D01*
X134927000Y-133848000D01*
X135653999Y-133848000D01*
X135653999Y-133276789D01*
X135647546Y-133216766D01*
X135647545Y-133216761D01*
X135596901Y-133080978D01*
X135510046Y-132964953D01*
X135394021Y-132878098D01*
X135258235Y-132827453D01*
X135198211Y-132821000D01*
X134927000Y-132821000D01*
X134927000Y-133848000D01*
X134673000Y-133848000D01*
X134673000Y-132821000D01*
X134401789Y-132821000D01*
X134341766Y-132827453D01*
X134341761Y-132827454D01*
X134205976Y-132878099D01*
X134160886Y-132911853D01*
X134102035Y-132931908D01*
X134042636Y-132913540D01*
X134005377Y-132863767D01*
X134000000Y-132831318D01*
X134000000Y-132100600D01*
X134019213Y-132041469D01*
X134069513Y-132004924D01*
X134100600Y-132000000D01*
X136899400Y-132000000D01*
X136958531Y-132019213D01*
G37*
%TD.AperFunction*%
%TD*%
%TA.AperFunction,Conductor*%
%TO.N,GND*%
G36*
X140958531Y-143769213D02*
G01*
X140995076Y-143819513D01*
X141000000Y-143850600D01*
X141000000Y-149149400D01*
X140980787Y-149208531D01*
X140930487Y-149245076D01*
X140899400Y-149250000D01*
X137500000Y-149250000D01*
X137500000Y-148048210D01*
X137846001Y-148048210D01*
X137852453Y-148108233D01*
X137852454Y-148108238D01*
X137903098Y-148244021D01*
X137989953Y-148360046D01*
X138105978Y-148446901D01*
X138241764Y-148497546D01*
X138301789Y-148503999D01*
X138773000Y-148503999D01*
X139027000Y-148503999D01*
X139498210Y-148503999D01*
X139558233Y-148497546D01*
X139558238Y-148497545D01*
X139694021Y-148446901D01*
X139810046Y-148360046D01*
X139896901Y-148244021D01*
X139947546Y-148108236D01*
X139947546Y-148108234D01*
X139954000Y-148048210D01*
X139954000Y-146877000D01*
X139027000Y-146877000D01*
X139027000Y-148503999D01*
X138773000Y-148503999D01*
X138773000Y-146877000D01*
X137846001Y-146877000D01*
X137846001Y-148048210D01*
X137500000Y-148048210D01*
X137500000Y-145451789D01*
X137846000Y-145451789D01*
X137846000Y-146623000D01*
X138773000Y-146623000D01*
X139027000Y-146623000D01*
X139953999Y-146623000D01*
X139953999Y-145451789D01*
X139947546Y-145391766D01*
X139947545Y-145391761D01*
X139896901Y-145255978D01*
X139810046Y-145139953D01*
X139694021Y-145053098D01*
X139558235Y-145002453D01*
X139498211Y-144996000D01*
X139027000Y-144996000D01*
X139027000Y-146623000D01*
X138773000Y-146623000D01*
X138773000Y-144996000D01*
X138301789Y-144996000D01*
X138241766Y-145002453D01*
X138241761Y-145002454D01*
X138105978Y-145053098D01*
X137989953Y-145139953D01*
X137903098Y-145255978D01*
X137852453Y-145391763D01*
X137852453Y-145391765D01*
X137846000Y-145451789D01*
X137500000Y-145451789D01*
X137500000Y-143750000D01*
X140899400Y-143750000D01*
X140958531Y-143769213D01*
G37*
%TD.AperFunction*%
%TD*%
%TA.AperFunction,Conductor*%
%TO.N,GND*%
G36*
X137458531Y-140519213D02*
G01*
X137495076Y-140569513D01*
X137500000Y-140600600D01*
X137500000Y-149250000D01*
X135600600Y-149250000D01*
X135541469Y-149230787D01*
X135504924Y-149180487D01*
X135500000Y-149149400D01*
X135500000Y-147048210D01*
X135746001Y-147048210D01*
X135752453Y-147108233D01*
X135752454Y-147108238D01*
X135803098Y-147244021D01*
X135889953Y-147360046D01*
X136005978Y-147446901D01*
X136141764Y-147497546D01*
X136201790Y-147503999D01*
X136373000Y-147503999D01*
X136627000Y-147503999D01*
X136798210Y-147503999D01*
X136858233Y-147497546D01*
X136858238Y-147497545D01*
X136994021Y-147446901D01*
X137110046Y-147360046D01*
X137196901Y-147244021D01*
X137247546Y-147108236D01*
X137247546Y-147108234D01*
X137254000Y-147048210D01*
X137254000Y-144627000D01*
X136627000Y-144627000D01*
X136627000Y-147503999D01*
X136373000Y-147503999D01*
X136373000Y-144627000D01*
X135746001Y-144627000D01*
X135746001Y-147048210D01*
X135500000Y-147048210D01*
X135500000Y-141951789D01*
X135746000Y-141951789D01*
X135746000Y-144373000D01*
X136373000Y-144373000D01*
X136627000Y-144373000D01*
X137253999Y-144373000D01*
X137253999Y-141951789D01*
X137247546Y-141891766D01*
X137247545Y-141891761D01*
X137196901Y-141755978D01*
X137110046Y-141639953D01*
X136994021Y-141553098D01*
X136858235Y-141502453D01*
X136798211Y-141496000D01*
X136627000Y-141496000D01*
X136627000Y-144373000D01*
X136373000Y-144373000D01*
X136373000Y-141496000D01*
X136201789Y-141496000D01*
X136141766Y-141502453D01*
X136141761Y-141502454D01*
X136005978Y-141553098D01*
X135889953Y-141639953D01*
X135803098Y-141755978D01*
X135752453Y-141891763D01*
X135752453Y-141891765D01*
X135746000Y-141951789D01*
X135500000Y-141951789D01*
X135500000Y-140600600D01*
X135519213Y-140541469D01*
X135569513Y-140504924D01*
X135600600Y-140500000D01*
X137399400Y-140500000D01*
X137458531Y-140519213D01*
G37*
%TD.AperFunction*%
%TD*%
%TA.AperFunction,Conductor*%
%TO.N,GND*%
G36*
X163453831Y-106519213D02*
G01*
X163490376Y-106569513D01*
X163495300Y-106600600D01*
X163495300Y-107470441D01*
X163476087Y-107529572D01*
X163425787Y-107566117D01*
X163394132Y-107569967D01*
X163394132Y-107571000D01*
X163202000Y-107571000D01*
X163202000Y-109279000D01*
X163394132Y-109279000D01*
X163394132Y-109280910D01*
X163447669Y-109294032D01*
X163487823Y-109341500D01*
X163495300Y-109379558D01*
X163495300Y-111620441D01*
X163476087Y-111679572D01*
X163425787Y-111716117D01*
X163394132Y-111719967D01*
X163394132Y-111721000D01*
X163202000Y-111721000D01*
X163202000Y-113429000D01*
X163394132Y-113429000D01*
X163394132Y-113430910D01*
X163447669Y-113444032D01*
X163487823Y-113491500D01*
X163495300Y-113529558D01*
X163495300Y-114399400D01*
X163476087Y-114458531D01*
X163425787Y-114495076D01*
X163394700Y-114500000D01*
X162100600Y-114500000D01*
X162041469Y-114480787D01*
X162004924Y-114430487D01*
X162000000Y-114399400D01*
X162000000Y-113090493D01*
X162421000Y-113090493D01*
X162431591Y-113163188D01*
X162486411Y-113275326D01*
X162574673Y-113363588D01*
X162686811Y-113418408D01*
X162759507Y-113429000D01*
X162948000Y-113429000D01*
X162948000Y-112702000D01*
X162421000Y-112702000D01*
X162421000Y-113090493D01*
X162000000Y-113090493D01*
X162000000Y-112059506D01*
X162421000Y-112059506D01*
X162421000Y-112448000D01*
X162948000Y-112448000D01*
X162948000Y-111721000D01*
X162759507Y-111721000D01*
X162686811Y-111731591D01*
X162574673Y-111786411D01*
X162486411Y-111874673D01*
X162431591Y-111986811D01*
X162421000Y-112059506D01*
X162000000Y-112059506D01*
X162000000Y-108940493D01*
X162421000Y-108940493D01*
X162431591Y-109013188D01*
X162486411Y-109125326D01*
X162574673Y-109213588D01*
X162686811Y-109268408D01*
X162759507Y-109279000D01*
X162948000Y-109279000D01*
X162948000Y-108552000D01*
X162421000Y-108552000D01*
X162421000Y-108940493D01*
X162000000Y-108940493D01*
X162000000Y-107909506D01*
X162421000Y-107909506D01*
X162421000Y-108298000D01*
X162948000Y-108298000D01*
X162948000Y-107571000D01*
X162759507Y-107571000D01*
X162686811Y-107581591D01*
X162574673Y-107636411D01*
X162486411Y-107724673D01*
X162431591Y-107836811D01*
X162421000Y-107909506D01*
X162000000Y-107909506D01*
X162000000Y-106600600D01*
X162019213Y-106541469D01*
X162069513Y-106504924D01*
X162100600Y-106500000D01*
X163394700Y-106500000D01*
X163453831Y-106519213D01*
G37*
%TD.AperFunction*%
%TD*%
%TA.AperFunction,Conductor*%
%TO.N,GND*%
G36*
X105958531Y-85519213D02*
G01*
X105995076Y-85569513D01*
X106000000Y-85600600D01*
X106000000Y-88899400D01*
X105980787Y-88958531D01*
X105930487Y-88995076D01*
X105899400Y-89000000D01*
X100601100Y-89000000D01*
X100541969Y-88980787D01*
X100505424Y-88930487D01*
X100500500Y-88899400D01*
X100500500Y-88198210D01*
X101246001Y-88198210D01*
X101252453Y-88258233D01*
X101252454Y-88258238D01*
X101303098Y-88394021D01*
X101389953Y-88510046D01*
X101505978Y-88596901D01*
X101641764Y-88647546D01*
X101701789Y-88653999D01*
X102873000Y-88653999D01*
X103127000Y-88653999D01*
X104298210Y-88653999D01*
X104358233Y-88647546D01*
X104358238Y-88647545D01*
X104494021Y-88596901D01*
X104610046Y-88510046D01*
X104696901Y-88394021D01*
X104747546Y-88258236D01*
X104747546Y-88258234D01*
X104754000Y-88198210D01*
X104754000Y-87727000D01*
X103127000Y-87727000D01*
X103127000Y-88653999D01*
X102873000Y-88653999D01*
X102873000Y-87727000D01*
X101246001Y-87727000D01*
X101246001Y-88198210D01*
X100500500Y-88198210D01*
X100500500Y-87001789D01*
X101246000Y-87001789D01*
X101246000Y-87473000D01*
X102873000Y-87473000D01*
X103127000Y-87473000D01*
X104753999Y-87473000D01*
X104753999Y-87001789D01*
X104747546Y-86941766D01*
X104747545Y-86941761D01*
X104696901Y-86805978D01*
X104610046Y-86689953D01*
X104494021Y-86603098D01*
X104358235Y-86552453D01*
X104298211Y-86546000D01*
X103127000Y-86546000D01*
X103127000Y-87473000D01*
X102873000Y-87473000D01*
X102873000Y-86546000D01*
X101701789Y-86546000D01*
X101641766Y-86552453D01*
X101641761Y-86552454D01*
X101505978Y-86603098D01*
X101389953Y-86689953D01*
X101303098Y-86805978D01*
X101252453Y-86941763D01*
X101252453Y-86941765D01*
X101246000Y-87001789D01*
X100500500Y-87001789D01*
X100500500Y-85600600D01*
X100519713Y-85541469D01*
X100570013Y-85504924D01*
X100601100Y-85500000D01*
X105899400Y-85500000D01*
X105958531Y-85519213D01*
G37*
%TD.AperFunction*%
%TD*%
%TA.AperFunction,Conductor*%
%TO.N,GND*%
G36*
X163453831Y-130019213D02*
G01*
X163490376Y-130069513D01*
X163495300Y-130100600D01*
X163495300Y-131899400D01*
X163476087Y-131958531D01*
X163425787Y-131995076D01*
X163394700Y-132000000D01*
X155600600Y-132000000D01*
X155541469Y-131980787D01*
X155504924Y-131930487D01*
X155500000Y-131899400D01*
X155500000Y-131298210D01*
X156496001Y-131298210D01*
X156502453Y-131358233D01*
X156502454Y-131358238D01*
X156553098Y-131494021D01*
X156639953Y-131610046D01*
X156755978Y-131696901D01*
X156891764Y-131747546D01*
X156951789Y-131753999D01*
X159373000Y-131753999D01*
X159627000Y-131753999D01*
X162048210Y-131753999D01*
X162108233Y-131747546D01*
X162108238Y-131747545D01*
X162244021Y-131696901D01*
X162360046Y-131610046D01*
X162446901Y-131494021D01*
X162497546Y-131358236D01*
X162497546Y-131358234D01*
X162504000Y-131298210D01*
X162504000Y-131127000D01*
X159627000Y-131127000D01*
X159627000Y-131753999D01*
X159373000Y-131753999D01*
X159373000Y-131127000D01*
X156496001Y-131127000D01*
X156496001Y-131298210D01*
X155500000Y-131298210D01*
X155500000Y-130701789D01*
X156496000Y-130701789D01*
X156496000Y-130873000D01*
X159373000Y-130873000D01*
X159627000Y-130873000D01*
X162503999Y-130873000D01*
X162503999Y-130701789D01*
X162497546Y-130641766D01*
X162497545Y-130641761D01*
X162446901Y-130505978D01*
X162360046Y-130389953D01*
X162244021Y-130303098D01*
X162108235Y-130252453D01*
X162048211Y-130246000D01*
X159627000Y-130246000D01*
X159627000Y-130873000D01*
X159373000Y-130873000D01*
X159373000Y-130246000D01*
X156951789Y-130246000D01*
X156891766Y-130252453D01*
X156891761Y-130252454D01*
X156755978Y-130303098D01*
X156639953Y-130389953D01*
X156553098Y-130505978D01*
X156502453Y-130641763D01*
X156502453Y-130641765D01*
X156496000Y-130701789D01*
X155500000Y-130701789D01*
X155500000Y-130100600D01*
X155519213Y-130041469D01*
X155569513Y-130004924D01*
X155600600Y-130000000D01*
X163394700Y-130000000D01*
X163453831Y-130019213D01*
G37*
%TD.AperFunction*%
%TD*%
%TA.AperFunction,Conductor*%
%TO.N,GND*%
G36*
X130958531Y-132019213D02*
G01*
X130995076Y-132069513D01*
X131000000Y-132100600D01*
X131000000Y-132831318D01*
X130980787Y-132890449D01*
X130930487Y-132926994D01*
X130868313Y-132926994D01*
X130839114Y-132911853D01*
X130794023Y-132878099D01*
X130658235Y-132827453D01*
X130598211Y-132821000D01*
X130327000Y-132821000D01*
X130327000Y-135128999D01*
X130598210Y-135128999D01*
X130658233Y-135122546D01*
X130658238Y-135122545D01*
X130794021Y-135071901D01*
X130839113Y-135038146D01*
X130897964Y-135018091D01*
X130957363Y-135036458D01*
X130994623Y-135086231D01*
X131000000Y-135118681D01*
X131000000Y-135808745D01*
X130999916Y-135812847D01*
X130999702Y-135818078D01*
X130996300Y-135841431D01*
X130996300Y-135901442D01*
X130996216Y-135903502D01*
X130986091Y-135930817D01*
X130977087Y-135958531D01*
X130975353Y-135959790D01*
X130974608Y-135961801D01*
X130950353Y-135977953D01*
X130926787Y-135995076D01*
X130923975Y-135995521D01*
X130922860Y-135996264D01*
X130920018Y-135996148D01*
X130895700Y-136000000D01*
X128100600Y-136000000D01*
X128041469Y-135980787D01*
X128004924Y-135930487D01*
X128000000Y-135899400D01*
X128000000Y-134673210D01*
X129346001Y-134673210D01*
X129352453Y-134733233D01*
X129352454Y-134733238D01*
X129403098Y-134869021D01*
X129489953Y-134985046D01*
X129605978Y-135071901D01*
X129741764Y-135122546D01*
X129801790Y-135128999D01*
X130073000Y-135128999D01*
X130073000Y-134102000D01*
X129346001Y-134102000D01*
X129346001Y-134673210D01*
X128000000Y-134673210D01*
X128000000Y-133276789D01*
X129346000Y-133276789D01*
X129346000Y-133848000D01*
X130073000Y-133848000D01*
X130073000Y-132821000D01*
X129801789Y-132821000D01*
X129741766Y-132827453D01*
X129741761Y-132827454D01*
X129605978Y-132878098D01*
X129489953Y-132964953D01*
X129403098Y-133080978D01*
X129352453Y-133216763D01*
X129352453Y-133216765D01*
X129346000Y-133276789D01*
X128000000Y-133276789D01*
X128000000Y-132100600D01*
X128019213Y-132041469D01*
X128069513Y-132004924D01*
X128100600Y-132000000D01*
X130899400Y-132000000D01*
X130958531Y-132019213D01*
G37*
%TD.AperFunction*%
%TD*%
%TA.AperFunction,Conductor*%
%TO.N,GND*%
G36*
X144503433Y-80658861D02*
G01*
X144613172Y-80673308D01*
X144638538Y-80680105D01*
X144734655Y-80719918D01*
X144757398Y-80733048D01*
X144791053Y-80758872D01*
X144839939Y-80796384D01*
X144845215Y-80800432D01*
X144855109Y-80809109D01*
X145065553Y-81019553D01*
X145169107Y-81099013D01*
X145169109Y-81099014D01*
X145169111Y-81099015D01*
X145289696Y-81148963D01*
X145419106Y-81166000D01*
X145419107Y-81166000D01*
X145957200Y-81166000D01*
X146016331Y-81185213D01*
X146052876Y-81235513D01*
X146057800Y-81266600D01*
X146057800Y-81331400D01*
X147414199Y-81331400D01*
X147414199Y-81266600D01*
X147433412Y-81207469D01*
X147483712Y-81170924D01*
X147514799Y-81166000D01*
X147989200Y-81166000D01*
X148048331Y-81185213D01*
X148084876Y-81235513D01*
X148089800Y-81266600D01*
X148089800Y-81331400D01*
X149446199Y-81331400D01*
X149450226Y-81327372D01*
X149451518Y-81323396D01*
X149451969Y-81306187D01*
X149460886Y-81294566D01*
X149465412Y-81280637D01*
X149479339Y-81270518D01*
X149489819Y-81256861D01*
X149503862Y-81252700D01*
X149515712Y-81244092D01*
X149532925Y-81244092D01*
X149549433Y-81239202D01*
X149563241Y-81244092D01*
X149577886Y-81244092D01*
X149608040Y-81259957D01*
X149671215Y-81308433D01*
X149681109Y-81317109D01*
X150655882Y-82291882D01*
X150655081Y-82292682D01*
X150684653Y-82342364D01*
X150678977Y-82404279D01*
X150645669Y-82445974D01*
X150529824Y-82530139D01*
X150529824Y-82530140D01*
X151308707Y-83309023D01*
X151315948Y-83323235D01*
X151327223Y-83334518D01*
X151329707Y-83350239D01*
X151336933Y-83364421D01*
X151334438Y-83380173D01*
X151336928Y-83395930D01*
X151329696Y-83410110D01*
X151327207Y-83425829D01*
X151308682Y-83451318D01*
X151307999Y-83451999D01*
X151308706Y-83452706D01*
X151336932Y-83508104D01*
X151327206Y-83569512D01*
X151308706Y-83594976D01*
X150529824Y-84373858D01*
X150645669Y-84458025D01*
X150682214Y-84508325D01*
X150682214Y-84570499D01*
X150655230Y-84611466D01*
X150655882Y-84612118D01*
X149681109Y-85586890D01*
X149671215Y-85595566D01*
X149608040Y-85644042D01*
X149549433Y-85664797D01*
X149489819Y-85647138D01*
X149451969Y-85597812D01*
X149446199Y-85564231D01*
X149446199Y-85559600D01*
X148089801Y-85559600D01*
X148089801Y-85637400D01*
X148070588Y-85696531D01*
X148020288Y-85733076D01*
X147989201Y-85738000D01*
X147514800Y-85738000D01*
X147455669Y-85718787D01*
X147419124Y-85668487D01*
X147414200Y-85637400D01*
X147414200Y-85559600D01*
X146057800Y-85559600D01*
X146052133Y-85565266D01*
X146052030Y-85569206D01*
X146043113Y-85580826D01*
X146038587Y-85594757D01*
X146024661Y-85604874D01*
X146014181Y-85618533D01*
X146000135Y-85622693D01*
X145988287Y-85631302D01*
X145971075Y-85631302D01*
X145954567Y-85636192D01*
X145940758Y-85631302D01*
X145926113Y-85631302D01*
X145895959Y-85615438D01*
X145875336Y-85599613D01*
X145856769Y-85581045D01*
X145793434Y-85498505D01*
X145780303Y-85475762D01*
X145740490Y-85379645D01*
X145733693Y-85354278D01*
X145719246Y-85244540D01*
X145718385Y-85231409D01*
X145718385Y-85181421D01*
X146057800Y-85181421D01*
X146057800Y-85356400D01*
X146634400Y-85356400D01*
X146837600Y-85356400D01*
X147414199Y-85356400D01*
X147414199Y-85181424D01*
X147414199Y-85181421D01*
X148089800Y-85181421D01*
X148089800Y-85356400D01*
X148666400Y-85356400D01*
X148869600Y-85356400D01*
X149446199Y-85356400D01*
X149446199Y-85181423D01*
X149446198Y-85181410D01*
X149443488Y-85152495D01*
X149400855Y-85030655D01*
X149324203Y-84926798D01*
X149324201Y-84926796D01*
X149220345Y-84850145D01*
X149098505Y-84807512D01*
X149069579Y-84804800D01*
X148869600Y-84804800D01*
X148869600Y-85356400D01*
X148666400Y-85356400D01*
X148666400Y-84804800D01*
X148466423Y-84804800D01*
X148466410Y-84804801D01*
X148437495Y-84807511D01*
X148315655Y-84850144D01*
X148211798Y-84926796D01*
X148211796Y-84926798D01*
X148135145Y-85030654D01*
X148092512Y-85152494D01*
X148089800Y-85181421D01*
X147414199Y-85181421D01*
X147414198Y-85181409D01*
X147411488Y-85152495D01*
X147368855Y-85030655D01*
X147292203Y-84926798D01*
X147292201Y-84926796D01*
X147188345Y-84850145D01*
X147066505Y-84807512D01*
X147037579Y-84804800D01*
X146837600Y-84804800D01*
X146837600Y-85356400D01*
X146634400Y-85356400D01*
X146634400Y-84804800D01*
X146434423Y-84804800D01*
X146434410Y-84804801D01*
X146405495Y-84807511D01*
X146283655Y-84850144D01*
X146179798Y-84926796D01*
X146179796Y-84926798D01*
X146103145Y-85030654D01*
X146060512Y-85152494D01*
X146057800Y-85181421D01*
X145718385Y-85181421D01*
X145718385Y-84166648D01*
X145718384Y-84166634D01*
X145701417Y-84037488D01*
X145683031Y-83993000D01*
X145651663Y-83917100D01*
X145572501Y-83813651D01*
X145572499Y-83813649D01*
X145572498Y-83813647D01*
X145358551Y-83599018D01*
X145358550Y-83599017D01*
X145358543Y-83599010D01*
X145358537Y-83599005D01*
X145254887Y-83519253D01*
X145254884Y-83519251D01*
X145134096Y-83469106D01*
X145134093Y-83469105D01*
X145049213Y-83457908D01*
X145004427Y-83452000D01*
X145004423Y-83452000D01*
X139620976Y-83452000D01*
X139607845Y-83451139D01*
X139498106Y-83436691D01*
X139472739Y-83429894D01*
X139376622Y-83390081D01*
X139353879Y-83376950D01*
X139328269Y-83357299D01*
X150104800Y-83357299D01*
X150104800Y-83546700D01*
X150134424Y-83733743D01*
X150134428Y-83733759D01*
X150192949Y-83913869D01*
X150278926Y-84082606D01*
X150278933Y-84082617D01*
X150386140Y-84230174D01*
X151164314Y-83451999D01*
X150386140Y-82673824D01*
X150278928Y-82821391D01*
X150278926Y-82821394D01*
X150192949Y-82990130D01*
X150134428Y-83170240D01*
X150134424Y-83170256D01*
X150104800Y-83357299D01*
X139328269Y-83357299D01*
X139271339Y-83313615D01*
X139252769Y-83295045D01*
X139189434Y-83212505D01*
X139176303Y-83189762D01*
X139136490Y-83093645D01*
X139129693Y-83068278D01*
X139115246Y-82958540D01*
X139114385Y-82945409D01*
X139114385Y-82589781D01*
X140381800Y-82589781D01*
X140397648Y-82669458D01*
X140428094Y-82742959D01*
X140428098Y-82742968D01*
X140473229Y-82810512D01*
X140529487Y-82866770D01*
X140597031Y-82911901D01*
X140597040Y-82911905D01*
X140670541Y-82942351D01*
X140750219Y-82958200D01*
X142088400Y-82958200D01*
X142291600Y-82958200D01*
X143068793Y-82958200D01*
X143109409Y-82954200D01*
X143263960Y-82923458D01*
X143263977Y-82923453D01*
X143303021Y-82911610D01*
X143303029Y-82911607D01*
X143448601Y-82851309D01*
X143448633Y-82851294D01*
X143484608Y-82832065D01*
X143615632Y-82744518D01*
X143647188Y-82718622D01*
X143758622Y-82607188D01*
X143784518Y-82575632D01*
X143872065Y-82444608D01*
X143891294Y-82408633D01*
X143891309Y-82408601D01*
X143951607Y-82263029D01*
X143951610Y-82263021D01*
X143963453Y-82223977D01*
X143963458Y-82223960D01*
X143994200Y-82069410D01*
X143995954Y-82051600D01*
X142291600Y-82051600D01*
X142291600Y-82958200D01*
X142088400Y-82958200D01*
X142088400Y-82051600D01*
X140381800Y-82051600D01*
X140381800Y-82589781D01*
X139114385Y-82589781D01*
X139114385Y-81310218D01*
X140381800Y-81310218D01*
X140381800Y-81848400D01*
X142088400Y-81848400D01*
X142291600Y-81848400D01*
X143995953Y-81848400D01*
X143995953Y-81848399D01*
X143994200Y-81830589D01*
X143970132Y-81709589D01*
X146057801Y-81709589D01*
X146060511Y-81738504D01*
X146103144Y-81860344D01*
X146179796Y-81964201D01*
X146179798Y-81964203D01*
X146283654Y-82040854D01*
X146405494Y-82083487D01*
X146434421Y-82086199D01*
X146634400Y-82086199D01*
X146837600Y-82086199D01*
X147037576Y-82086199D01*
X147037589Y-82086198D01*
X147066504Y-82083488D01*
X147188344Y-82040855D01*
X147292201Y-81964203D01*
X147292203Y-81964201D01*
X147368854Y-81860345D01*
X147411487Y-81738505D01*
X147414199Y-81709589D01*
X148089801Y-81709589D01*
X148092511Y-81738504D01*
X148135144Y-81860344D01*
X148211796Y-81964201D01*
X148211798Y-81964203D01*
X148315654Y-82040854D01*
X148437494Y-82083487D01*
X148466421Y-82086199D01*
X148666400Y-82086199D01*
X148869600Y-82086199D01*
X149069576Y-82086199D01*
X149069589Y-82086198D01*
X149098504Y-82083488D01*
X149220344Y-82040855D01*
X149324201Y-81964203D01*
X149324203Y-81964201D01*
X149400854Y-81860345D01*
X149443487Y-81738505D01*
X149446200Y-81709578D01*
X149446200Y-81534600D01*
X148869600Y-81534600D01*
X148869600Y-82086199D01*
X148666400Y-82086199D01*
X148666400Y-81534600D01*
X148089801Y-81534600D01*
X148089801Y-81709589D01*
X147414199Y-81709589D01*
X147414200Y-81709578D01*
X147414200Y-81534600D01*
X146837600Y-81534600D01*
X146837600Y-82086199D01*
X146634400Y-82086199D01*
X146634400Y-81534600D01*
X146057801Y-81534600D01*
X146057801Y-81709589D01*
X143970132Y-81709589D01*
X143963458Y-81676039D01*
X143963453Y-81676022D01*
X143951610Y-81636978D01*
X143951607Y-81636970D01*
X143907890Y-81531428D01*
X143907889Y-81531427D01*
X143891304Y-81491387D01*
X143891294Y-81491366D01*
X143872065Y-81455391D01*
X143784518Y-81324367D01*
X143758622Y-81292811D01*
X143647188Y-81181377D01*
X143615632Y-81155481D01*
X143484608Y-81067934D01*
X143448633Y-81048705D01*
X143448601Y-81048690D01*
X143303029Y-80988392D01*
X143303021Y-80988389D01*
X143263977Y-80976546D01*
X143263960Y-80976541D01*
X143109409Y-80945799D01*
X143068793Y-80941800D01*
X142291600Y-80941800D01*
X142291600Y-81848400D01*
X142088400Y-81848400D01*
X142088400Y-80941800D01*
X140750219Y-80941800D01*
X140670541Y-80957648D01*
X140597040Y-80988094D01*
X140597031Y-80988098D01*
X140529487Y-81033229D01*
X140473229Y-81089487D01*
X140428098Y-81157031D01*
X140428094Y-81157040D01*
X140397648Y-81230541D01*
X140381800Y-81310218D01*
X139114385Y-81310218D01*
X139114385Y-81164590D01*
X139115246Y-81151459D01*
X139129693Y-81041721D01*
X139136490Y-81016354D01*
X139148073Y-80988392D01*
X139176303Y-80920235D01*
X139189434Y-80897494D01*
X139213406Y-80866252D01*
X139252771Y-80814951D01*
X139271336Y-80796386D01*
X139353879Y-80733049D01*
X139376620Y-80719918D01*
X139472741Y-80680104D01*
X139498103Y-80673308D01*
X139607845Y-80658861D01*
X139620976Y-80658000D01*
X144490302Y-80658000D01*
X144503433Y-80658861D01*
G37*
%TD.AperFunction*%
%TD*%
M02*
