%TF.GenerationSoftware,KiCad,Pcbnew,9.0.5-1.fc42*%
%TF.CreationDate,2025-11-08T23:03:25+10:30*%
%TF.ProjectId,DivaConIO,44697661-436f-46e4-994f-2e6b69636164,1.1*%
%TF.SameCoordinates,Original*%
%TF.FileFunction,Soldermask,Bot*%
%TF.FilePolarity,Negative*%
%FSLAX46Y46*%
G04 Gerber Fmt 4.6, Leading zero omitted, Abs format (unit mm)*
G04 Created by KiCad (PCBNEW 9.0.5-1.fc42) date 2025-11-08 23:03:25*
%MOMM*%
%LPD*%
G01*
G04 APERTURE LIST*
%ADD10C,0.800000*%
%ADD11C,6.400000*%
%ADD12C,2.200000*%
%ADD13C,1.850000*%
G04 APERTURE END LIST*
D10*
%TO.C,H4*%
X101600000Y-79000000D03*
X102302944Y-77302944D03*
X102302944Y-80697056D03*
X104000000Y-76600000D03*
D11*
X104000000Y-79000000D03*
D10*
X104000000Y-81400000D03*
X105697056Y-77302944D03*
X105697056Y-80697056D03*
X106400000Y-79000000D03*
%TD*%
D12*
%TO.C,A1*%
X129775000Y-77000000D03*
D13*
X130075000Y-80030000D03*
X134925000Y-80030000D03*
D12*
X135225000Y-77000000D03*
%TD*%
D10*
%TO.C,H1*%
X158600000Y-79000000D03*
X159302944Y-77302944D03*
X159302944Y-80697056D03*
X161000000Y-76600000D03*
D11*
X161000000Y-79000000D03*
D10*
X161000000Y-81400000D03*
X162697056Y-77302944D03*
X162697056Y-80697056D03*
X163400000Y-79000000D03*
%TD*%
%TO.C,H2*%
X101600000Y-146000000D03*
X102302944Y-144302944D03*
X102302944Y-147697056D03*
X104000000Y-143600000D03*
D11*
X104000000Y-146000000D03*
D10*
X104000000Y-148400000D03*
X105697056Y-144302944D03*
X105697056Y-147697056D03*
X106400000Y-146000000D03*
%TD*%
%TO.C,H3*%
X158600000Y-146000000D03*
X159302944Y-144302944D03*
X159302944Y-147697056D03*
X161000000Y-143600000D03*
D11*
X161000000Y-146000000D03*
D10*
X161000000Y-148400000D03*
X162697056Y-144302944D03*
X162697056Y-147697056D03*
X163400000Y-146000000D03*
%TD*%
G36*
X155693039Y-146519685D02*
G01*
X155738794Y-146572489D01*
X155750000Y-146624000D01*
X155750000Y-149376000D01*
X155730315Y-149443039D01*
X155677511Y-149488794D01*
X155626000Y-149500000D01*
X149874000Y-149500000D01*
X149806961Y-149480315D01*
X149761206Y-149427511D01*
X149750000Y-149376000D01*
X149750000Y-146624000D01*
X149769685Y-146556961D01*
X149822489Y-146511206D01*
X149874000Y-146500000D01*
X155626000Y-146500000D01*
X155693039Y-146519685D01*
G37*
G36*
X155256540Y-146500861D02*
G01*
X155366278Y-146515308D01*
X155391645Y-146522105D01*
X155487762Y-146561918D01*
X155510505Y-146575049D01*
X155593045Y-146638384D01*
X155611615Y-146656954D01*
X155674950Y-146739494D01*
X155688081Y-146762237D01*
X155727894Y-146858354D01*
X155734691Y-146883720D01*
X155749139Y-146993458D01*
X155750000Y-147006590D01*
X155750000Y-148993409D01*
X155749139Y-149006541D01*
X155734691Y-149116279D01*
X155727894Y-149141645D01*
X155688081Y-149237762D01*
X155674950Y-149260505D01*
X155611615Y-149343045D01*
X155593045Y-149361615D01*
X155510505Y-149424950D01*
X155487762Y-149438081D01*
X155391645Y-149477894D01*
X155366279Y-149484691D01*
X155256541Y-149499139D01*
X155243409Y-149500000D01*
X152497400Y-149500000D01*
X152438269Y-149480787D01*
X152401724Y-149430487D01*
X152396800Y-149399400D01*
X152396800Y-146600600D01*
X152416013Y-146541469D01*
X152466313Y-146504924D01*
X152497400Y-146500000D01*
X155243409Y-146500000D01*
X155256540Y-146500861D01*
G37*
M02*
