%TF.GenerationSoftware,KiCad,Pcbnew,9.0.5-1.fc42*%
%TF.CreationDate,2025-11-08T23:03:25+10:30*%
%TF.ProjectId,DivaConIO,44697661-436f-46e4-994f-2e6b69636164,1.1*%
%TF.SameCoordinates,Original*%
%TF.FileFunction,Other,Comment*%
%FSLAX46Y46*%
G04 Gerber Fmt 4.6, Leading zero omitted, Abs format (unit mm)*
G04 Created by KiCad (PCBNEW 9.0.5-1.fc42) date 2025-11-08 23:03:25*
%MOMM*%
%LPD*%
G01*
G04 APERTURE LIST*
%ADD10C,0.200000*%
%ADD11C,0.400000*%
%ADD12C,0.050000*%
%ADD13C,0.075000*%
%ADD14C,0.150000*%
G04 APERTURE END LIST*
D10*
X171738720Y-85226314D02*
X171953006Y-85297742D01*
X171953006Y-85297742D02*
X172024435Y-85369171D01*
X172024435Y-85369171D02*
X172095863Y-85512028D01*
X172095863Y-85512028D02*
X172095863Y-85726314D01*
X172095863Y-85726314D02*
X172024435Y-85869171D01*
X172024435Y-85869171D02*
X171953006Y-85940600D01*
X171953006Y-85940600D02*
X171810149Y-86012028D01*
X171810149Y-86012028D02*
X171238720Y-86012028D01*
X171238720Y-86012028D02*
X171238720Y-84512028D01*
X171238720Y-84512028D02*
X171738720Y-84512028D01*
X171738720Y-84512028D02*
X171881578Y-84583457D01*
X171881578Y-84583457D02*
X171953006Y-84654885D01*
X171953006Y-84654885D02*
X172024435Y-84797742D01*
X172024435Y-84797742D02*
X172024435Y-84940600D01*
X172024435Y-84940600D02*
X171953006Y-85083457D01*
X171953006Y-85083457D02*
X171881578Y-85154885D01*
X171881578Y-85154885D02*
X171738720Y-85226314D01*
X171738720Y-85226314D02*
X171238720Y-85226314D01*
X172953006Y-86012028D02*
X172810149Y-85940600D01*
X172810149Y-85940600D02*
X172738720Y-85869171D01*
X172738720Y-85869171D02*
X172667292Y-85726314D01*
X172667292Y-85726314D02*
X172667292Y-85297742D01*
X172667292Y-85297742D02*
X172738720Y-85154885D01*
X172738720Y-85154885D02*
X172810149Y-85083457D01*
X172810149Y-85083457D02*
X172953006Y-85012028D01*
X172953006Y-85012028D02*
X173167292Y-85012028D01*
X173167292Y-85012028D02*
X173310149Y-85083457D01*
X173310149Y-85083457D02*
X173381578Y-85154885D01*
X173381578Y-85154885D02*
X173453006Y-85297742D01*
X173453006Y-85297742D02*
X173453006Y-85726314D01*
X173453006Y-85726314D02*
X173381578Y-85869171D01*
X173381578Y-85869171D02*
X173310149Y-85940600D01*
X173310149Y-85940600D02*
X173167292Y-86012028D01*
X173167292Y-86012028D02*
X172953006Y-86012028D01*
X174738721Y-86012028D02*
X174738721Y-85226314D01*
X174738721Y-85226314D02*
X174667292Y-85083457D01*
X174667292Y-85083457D02*
X174524435Y-85012028D01*
X174524435Y-85012028D02*
X174238721Y-85012028D01*
X174238721Y-85012028D02*
X174095863Y-85083457D01*
X174738721Y-85940600D02*
X174595863Y-86012028D01*
X174595863Y-86012028D02*
X174238721Y-86012028D01*
X174238721Y-86012028D02*
X174095863Y-85940600D01*
X174095863Y-85940600D02*
X174024435Y-85797742D01*
X174024435Y-85797742D02*
X174024435Y-85654885D01*
X174024435Y-85654885D02*
X174095863Y-85512028D01*
X174095863Y-85512028D02*
X174238721Y-85440600D01*
X174238721Y-85440600D02*
X174595863Y-85440600D01*
X174595863Y-85440600D02*
X174738721Y-85369171D01*
X175453006Y-86012028D02*
X175453006Y-85012028D01*
X175453006Y-85297742D02*
X175524435Y-85154885D01*
X175524435Y-85154885D02*
X175595864Y-85083457D01*
X175595864Y-85083457D02*
X175738721Y-85012028D01*
X175738721Y-85012028D02*
X175881578Y-85012028D01*
X177024435Y-86012028D02*
X177024435Y-84512028D01*
X177024435Y-85940600D02*
X176881577Y-86012028D01*
X176881577Y-86012028D02*
X176595863Y-86012028D01*
X176595863Y-86012028D02*
X176453006Y-85940600D01*
X176453006Y-85940600D02*
X176381577Y-85869171D01*
X176381577Y-85869171D02*
X176310149Y-85726314D01*
X176310149Y-85726314D02*
X176310149Y-85297742D01*
X176310149Y-85297742D02*
X176381577Y-85154885D01*
X176381577Y-85154885D02*
X176453006Y-85083457D01*
X176453006Y-85083457D02*
X176595863Y-85012028D01*
X176595863Y-85012028D02*
X176881577Y-85012028D01*
X176881577Y-85012028D02*
X177024435Y-85083457D01*
X179095863Y-86012028D02*
X178953006Y-85940600D01*
X178953006Y-85940600D02*
X178881577Y-85869171D01*
X178881577Y-85869171D02*
X178810149Y-85726314D01*
X178810149Y-85726314D02*
X178810149Y-85297742D01*
X178810149Y-85297742D02*
X178881577Y-85154885D01*
X178881577Y-85154885D02*
X178953006Y-85083457D01*
X178953006Y-85083457D02*
X179095863Y-85012028D01*
X179095863Y-85012028D02*
X179310149Y-85012028D01*
X179310149Y-85012028D02*
X179453006Y-85083457D01*
X179453006Y-85083457D02*
X179524435Y-85154885D01*
X179524435Y-85154885D02*
X179595863Y-85297742D01*
X179595863Y-85297742D02*
X179595863Y-85726314D01*
X179595863Y-85726314D02*
X179524435Y-85869171D01*
X179524435Y-85869171D02*
X179453006Y-85940600D01*
X179453006Y-85940600D02*
X179310149Y-86012028D01*
X179310149Y-86012028D02*
X179095863Y-86012028D01*
X180095863Y-85012028D02*
X180453006Y-86012028D01*
X180453006Y-86012028D02*
X180810149Y-85012028D01*
X181953006Y-85940600D02*
X181810149Y-86012028D01*
X181810149Y-86012028D02*
X181524435Y-86012028D01*
X181524435Y-86012028D02*
X181381577Y-85940600D01*
X181381577Y-85940600D02*
X181310149Y-85797742D01*
X181310149Y-85797742D02*
X181310149Y-85226314D01*
X181310149Y-85226314D02*
X181381577Y-85083457D01*
X181381577Y-85083457D02*
X181524435Y-85012028D01*
X181524435Y-85012028D02*
X181810149Y-85012028D01*
X181810149Y-85012028D02*
X181953006Y-85083457D01*
X181953006Y-85083457D02*
X182024435Y-85226314D01*
X182024435Y-85226314D02*
X182024435Y-85369171D01*
X182024435Y-85369171D02*
X181310149Y-85512028D01*
X182667291Y-86012028D02*
X182667291Y-85012028D01*
X182667291Y-85297742D02*
X182738720Y-85154885D01*
X182738720Y-85154885D02*
X182810149Y-85083457D01*
X182810149Y-85083457D02*
X182953006Y-85012028D01*
X182953006Y-85012028D02*
X183095863Y-85012028D01*
X184238720Y-86012028D02*
X184238720Y-85226314D01*
X184238720Y-85226314D02*
X184167291Y-85083457D01*
X184167291Y-85083457D02*
X184024434Y-85012028D01*
X184024434Y-85012028D02*
X183738720Y-85012028D01*
X183738720Y-85012028D02*
X183595862Y-85083457D01*
X184238720Y-85940600D02*
X184095862Y-86012028D01*
X184095862Y-86012028D02*
X183738720Y-86012028D01*
X183738720Y-86012028D02*
X183595862Y-85940600D01*
X183595862Y-85940600D02*
X183524434Y-85797742D01*
X183524434Y-85797742D02*
X183524434Y-85654885D01*
X183524434Y-85654885D02*
X183595862Y-85512028D01*
X183595862Y-85512028D02*
X183738720Y-85440600D01*
X183738720Y-85440600D02*
X184095862Y-85440600D01*
X184095862Y-85440600D02*
X184238720Y-85369171D01*
X185167291Y-86012028D02*
X185024434Y-85940600D01*
X185024434Y-85940600D02*
X184953005Y-85797742D01*
X184953005Y-85797742D02*
X184953005Y-84512028D01*
X185953005Y-86012028D02*
X185810148Y-85940600D01*
X185810148Y-85940600D02*
X185738719Y-85797742D01*
X185738719Y-85797742D02*
X185738719Y-84512028D01*
X188310148Y-86012028D02*
X188310148Y-84512028D01*
X188310148Y-85940600D02*
X188167290Y-86012028D01*
X188167290Y-86012028D02*
X187881576Y-86012028D01*
X187881576Y-86012028D02*
X187738719Y-85940600D01*
X187738719Y-85940600D02*
X187667290Y-85869171D01*
X187667290Y-85869171D02*
X187595862Y-85726314D01*
X187595862Y-85726314D02*
X187595862Y-85297742D01*
X187595862Y-85297742D02*
X187667290Y-85154885D01*
X187667290Y-85154885D02*
X187738719Y-85083457D01*
X187738719Y-85083457D02*
X187881576Y-85012028D01*
X187881576Y-85012028D02*
X188167290Y-85012028D01*
X188167290Y-85012028D02*
X188310148Y-85083457D01*
X189024433Y-86012028D02*
X189024433Y-85012028D01*
X189024433Y-84512028D02*
X188953005Y-84583457D01*
X188953005Y-84583457D02*
X189024433Y-84654885D01*
X189024433Y-84654885D02*
X189095862Y-84583457D01*
X189095862Y-84583457D02*
X189024433Y-84512028D01*
X189024433Y-84512028D02*
X189024433Y-84654885D01*
X189738719Y-86012028D02*
X189738719Y-85012028D01*
X189738719Y-85154885D02*
X189810148Y-85083457D01*
X189810148Y-85083457D02*
X189953005Y-85012028D01*
X189953005Y-85012028D02*
X190167291Y-85012028D01*
X190167291Y-85012028D02*
X190310148Y-85083457D01*
X190310148Y-85083457D02*
X190381577Y-85226314D01*
X190381577Y-85226314D02*
X190381577Y-86012028D01*
X190381577Y-85226314D02*
X190453005Y-85083457D01*
X190453005Y-85083457D02*
X190595862Y-85012028D01*
X190595862Y-85012028D02*
X190810148Y-85012028D01*
X190810148Y-85012028D02*
X190953005Y-85083457D01*
X190953005Y-85083457D02*
X191024434Y-85226314D01*
X191024434Y-85226314D02*
X191024434Y-86012028D01*
X192310148Y-85940600D02*
X192167291Y-86012028D01*
X192167291Y-86012028D02*
X191881577Y-86012028D01*
X191881577Y-86012028D02*
X191738719Y-85940600D01*
X191738719Y-85940600D02*
X191667291Y-85797742D01*
X191667291Y-85797742D02*
X191667291Y-85226314D01*
X191667291Y-85226314D02*
X191738719Y-85083457D01*
X191738719Y-85083457D02*
X191881577Y-85012028D01*
X191881577Y-85012028D02*
X192167291Y-85012028D01*
X192167291Y-85012028D02*
X192310148Y-85083457D01*
X192310148Y-85083457D02*
X192381577Y-85226314D01*
X192381577Y-85226314D02*
X192381577Y-85369171D01*
X192381577Y-85369171D02*
X191667291Y-85512028D01*
X193024433Y-85012028D02*
X193024433Y-86012028D01*
X193024433Y-85154885D02*
X193095862Y-85083457D01*
X193095862Y-85083457D02*
X193238719Y-85012028D01*
X193238719Y-85012028D02*
X193453005Y-85012028D01*
X193453005Y-85012028D02*
X193595862Y-85083457D01*
X193595862Y-85083457D02*
X193667291Y-85226314D01*
X193667291Y-85226314D02*
X193667291Y-86012028D01*
X194310148Y-85940600D02*
X194453005Y-86012028D01*
X194453005Y-86012028D02*
X194738719Y-86012028D01*
X194738719Y-86012028D02*
X194881576Y-85940600D01*
X194881576Y-85940600D02*
X194953005Y-85797742D01*
X194953005Y-85797742D02*
X194953005Y-85726314D01*
X194953005Y-85726314D02*
X194881576Y-85583457D01*
X194881576Y-85583457D02*
X194738719Y-85512028D01*
X194738719Y-85512028D02*
X194524434Y-85512028D01*
X194524434Y-85512028D02*
X194381576Y-85440600D01*
X194381576Y-85440600D02*
X194310148Y-85297742D01*
X194310148Y-85297742D02*
X194310148Y-85226314D01*
X194310148Y-85226314D02*
X194381576Y-85083457D01*
X194381576Y-85083457D02*
X194524434Y-85012028D01*
X194524434Y-85012028D02*
X194738719Y-85012028D01*
X194738719Y-85012028D02*
X194881576Y-85083457D01*
X195595862Y-86012028D02*
X195595862Y-85012028D01*
X195595862Y-84512028D02*
X195524434Y-84583457D01*
X195524434Y-84583457D02*
X195595862Y-84654885D01*
X195595862Y-84654885D02*
X195667291Y-84583457D01*
X195667291Y-84583457D02*
X195595862Y-84512028D01*
X195595862Y-84512028D02*
X195595862Y-84654885D01*
X196524434Y-86012028D02*
X196381577Y-85940600D01*
X196381577Y-85940600D02*
X196310148Y-85869171D01*
X196310148Y-85869171D02*
X196238720Y-85726314D01*
X196238720Y-85726314D02*
X196238720Y-85297742D01*
X196238720Y-85297742D02*
X196310148Y-85154885D01*
X196310148Y-85154885D02*
X196381577Y-85083457D01*
X196381577Y-85083457D02*
X196524434Y-85012028D01*
X196524434Y-85012028D02*
X196738720Y-85012028D01*
X196738720Y-85012028D02*
X196881577Y-85083457D01*
X196881577Y-85083457D02*
X196953006Y-85154885D01*
X196953006Y-85154885D02*
X197024434Y-85297742D01*
X197024434Y-85297742D02*
X197024434Y-85726314D01*
X197024434Y-85726314D02*
X196953006Y-85869171D01*
X196953006Y-85869171D02*
X196881577Y-85940600D01*
X196881577Y-85940600D02*
X196738720Y-86012028D01*
X196738720Y-86012028D02*
X196524434Y-86012028D01*
X197667291Y-85012028D02*
X197667291Y-86012028D01*
X197667291Y-85154885D02*
X197738720Y-85083457D01*
X197738720Y-85083457D02*
X197881577Y-85012028D01*
X197881577Y-85012028D02*
X198095863Y-85012028D01*
X198095863Y-85012028D02*
X198238720Y-85083457D01*
X198238720Y-85083457D02*
X198310149Y-85226314D01*
X198310149Y-85226314D02*
X198310149Y-86012028D01*
X198953006Y-85940600D02*
X199095863Y-86012028D01*
X199095863Y-86012028D02*
X199381577Y-86012028D01*
X199381577Y-86012028D02*
X199524434Y-85940600D01*
X199524434Y-85940600D02*
X199595863Y-85797742D01*
X199595863Y-85797742D02*
X199595863Y-85726314D01*
X199595863Y-85726314D02*
X199524434Y-85583457D01*
X199524434Y-85583457D02*
X199381577Y-85512028D01*
X199381577Y-85512028D02*
X199167292Y-85512028D01*
X199167292Y-85512028D02*
X199024434Y-85440600D01*
X199024434Y-85440600D02*
X198953006Y-85297742D01*
X198953006Y-85297742D02*
X198953006Y-85226314D01*
X198953006Y-85226314D02*
X199024434Y-85083457D01*
X199024434Y-85083457D02*
X199167292Y-85012028D01*
X199167292Y-85012028D02*
X199381577Y-85012028D01*
X199381577Y-85012028D02*
X199524434Y-85083457D01*
X200238720Y-85869171D02*
X200310149Y-85940600D01*
X200310149Y-85940600D02*
X200238720Y-86012028D01*
X200238720Y-86012028D02*
X200167292Y-85940600D01*
X200167292Y-85940600D02*
X200238720Y-85869171D01*
X200238720Y-85869171D02*
X200238720Y-86012028D01*
X200238720Y-85083457D02*
X200310149Y-85154885D01*
X200310149Y-85154885D02*
X200238720Y-85226314D01*
X200238720Y-85226314D02*
X200167292Y-85154885D01*
X200167292Y-85154885D02*
X200238720Y-85083457D01*
X200238720Y-85083457D02*
X200238720Y-85226314D01*
X238053001Y-93926028D02*
X238053001Y-92426028D01*
X238767287Y-93926028D02*
X238767287Y-92926028D01*
X238767287Y-93068885D02*
X238838716Y-92997457D01*
X238838716Y-92997457D02*
X238981573Y-92926028D01*
X238981573Y-92926028D02*
X239195859Y-92926028D01*
X239195859Y-92926028D02*
X239338716Y-92997457D01*
X239338716Y-92997457D02*
X239410145Y-93140314D01*
X239410145Y-93140314D02*
X239410145Y-93926028D01*
X239410145Y-93140314D02*
X239481573Y-92997457D01*
X239481573Y-92997457D02*
X239624430Y-92926028D01*
X239624430Y-92926028D02*
X239838716Y-92926028D01*
X239838716Y-92926028D02*
X239981573Y-92997457D01*
X239981573Y-92997457D02*
X240053002Y-93140314D01*
X240053002Y-93140314D02*
X240053002Y-93926028D01*
X240767287Y-92926028D02*
X240767287Y-94426028D01*
X240767287Y-92997457D02*
X240910145Y-92926028D01*
X240910145Y-92926028D02*
X241195859Y-92926028D01*
X241195859Y-92926028D02*
X241338716Y-92997457D01*
X241338716Y-92997457D02*
X241410145Y-93068885D01*
X241410145Y-93068885D02*
X241481573Y-93211742D01*
X241481573Y-93211742D02*
X241481573Y-93640314D01*
X241481573Y-93640314D02*
X241410145Y-93783171D01*
X241410145Y-93783171D02*
X241338716Y-93854600D01*
X241338716Y-93854600D02*
X241195859Y-93926028D01*
X241195859Y-93926028D02*
X240910145Y-93926028D01*
X240910145Y-93926028D02*
X240767287Y-93854600D01*
X242695859Y-93854600D02*
X242553002Y-93926028D01*
X242553002Y-93926028D02*
X242267288Y-93926028D01*
X242267288Y-93926028D02*
X242124430Y-93854600D01*
X242124430Y-93854600D02*
X242053002Y-93711742D01*
X242053002Y-93711742D02*
X242053002Y-93140314D01*
X242053002Y-93140314D02*
X242124430Y-92997457D01*
X242124430Y-92997457D02*
X242267288Y-92926028D01*
X242267288Y-92926028D02*
X242553002Y-92926028D01*
X242553002Y-92926028D02*
X242695859Y-92997457D01*
X242695859Y-92997457D02*
X242767288Y-93140314D01*
X242767288Y-93140314D02*
X242767288Y-93283171D01*
X242767288Y-93283171D02*
X242053002Y-93426028D01*
X244053002Y-93926028D02*
X244053002Y-92426028D01*
X244053002Y-93854600D02*
X243910144Y-93926028D01*
X243910144Y-93926028D02*
X243624430Y-93926028D01*
X243624430Y-93926028D02*
X243481573Y-93854600D01*
X243481573Y-93854600D02*
X243410144Y-93783171D01*
X243410144Y-93783171D02*
X243338716Y-93640314D01*
X243338716Y-93640314D02*
X243338716Y-93211742D01*
X243338716Y-93211742D02*
X243410144Y-93068885D01*
X243410144Y-93068885D02*
X243481573Y-92997457D01*
X243481573Y-92997457D02*
X243624430Y-92926028D01*
X243624430Y-92926028D02*
X243910144Y-92926028D01*
X243910144Y-92926028D02*
X244053002Y-92997457D01*
X245410145Y-93926028D02*
X245410145Y-93140314D01*
X245410145Y-93140314D02*
X245338716Y-92997457D01*
X245338716Y-92997457D02*
X245195859Y-92926028D01*
X245195859Y-92926028D02*
X244910145Y-92926028D01*
X244910145Y-92926028D02*
X244767287Y-92997457D01*
X245410145Y-93854600D02*
X245267287Y-93926028D01*
X245267287Y-93926028D02*
X244910145Y-93926028D01*
X244910145Y-93926028D02*
X244767287Y-93854600D01*
X244767287Y-93854600D02*
X244695859Y-93711742D01*
X244695859Y-93711742D02*
X244695859Y-93568885D01*
X244695859Y-93568885D02*
X244767287Y-93426028D01*
X244767287Y-93426028D02*
X244910145Y-93354600D01*
X244910145Y-93354600D02*
X245267287Y-93354600D01*
X245267287Y-93354600D02*
X245410145Y-93283171D01*
X246124430Y-92926028D02*
X246124430Y-93926028D01*
X246124430Y-93068885D02*
X246195859Y-92997457D01*
X246195859Y-92997457D02*
X246338716Y-92926028D01*
X246338716Y-92926028D02*
X246553002Y-92926028D01*
X246553002Y-92926028D02*
X246695859Y-92997457D01*
X246695859Y-92997457D02*
X246767288Y-93140314D01*
X246767288Y-93140314D02*
X246767288Y-93926028D01*
X248124431Y-93854600D02*
X247981573Y-93926028D01*
X247981573Y-93926028D02*
X247695859Y-93926028D01*
X247695859Y-93926028D02*
X247553002Y-93854600D01*
X247553002Y-93854600D02*
X247481573Y-93783171D01*
X247481573Y-93783171D02*
X247410145Y-93640314D01*
X247410145Y-93640314D02*
X247410145Y-93211742D01*
X247410145Y-93211742D02*
X247481573Y-93068885D01*
X247481573Y-93068885D02*
X247553002Y-92997457D01*
X247553002Y-92997457D02*
X247695859Y-92926028D01*
X247695859Y-92926028D02*
X247981573Y-92926028D01*
X247981573Y-92926028D02*
X248124431Y-92997457D01*
X249338716Y-93854600D02*
X249195859Y-93926028D01*
X249195859Y-93926028D02*
X248910145Y-93926028D01*
X248910145Y-93926028D02*
X248767287Y-93854600D01*
X248767287Y-93854600D02*
X248695859Y-93711742D01*
X248695859Y-93711742D02*
X248695859Y-93140314D01*
X248695859Y-93140314D02*
X248767287Y-92997457D01*
X248767287Y-92997457D02*
X248910145Y-92926028D01*
X248910145Y-92926028D02*
X249195859Y-92926028D01*
X249195859Y-92926028D02*
X249338716Y-92997457D01*
X249338716Y-92997457D02*
X249410145Y-93140314D01*
X249410145Y-93140314D02*
X249410145Y-93283171D01*
X249410145Y-93283171D02*
X248695859Y-93426028D01*
X252053001Y-93783171D02*
X251981573Y-93854600D01*
X251981573Y-93854600D02*
X251767287Y-93926028D01*
X251767287Y-93926028D02*
X251624430Y-93926028D01*
X251624430Y-93926028D02*
X251410144Y-93854600D01*
X251410144Y-93854600D02*
X251267287Y-93711742D01*
X251267287Y-93711742D02*
X251195858Y-93568885D01*
X251195858Y-93568885D02*
X251124430Y-93283171D01*
X251124430Y-93283171D02*
X251124430Y-93068885D01*
X251124430Y-93068885D02*
X251195858Y-92783171D01*
X251195858Y-92783171D02*
X251267287Y-92640314D01*
X251267287Y-92640314D02*
X251410144Y-92497457D01*
X251410144Y-92497457D02*
X251624430Y-92426028D01*
X251624430Y-92426028D02*
X251767287Y-92426028D01*
X251767287Y-92426028D02*
X251981573Y-92497457D01*
X251981573Y-92497457D02*
X252053001Y-92568885D01*
X252910144Y-93926028D02*
X252767287Y-93854600D01*
X252767287Y-93854600D02*
X252695858Y-93783171D01*
X252695858Y-93783171D02*
X252624430Y-93640314D01*
X252624430Y-93640314D02*
X252624430Y-93211742D01*
X252624430Y-93211742D02*
X252695858Y-93068885D01*
X252695858Y-93068885D02*
X252767287Y-92997457D01*
X252767287Y-92997457D02*
X252910144Y-92926028D01*
X252910144Y-92926028D02*
X253124430Y-92926028D01*
X253124430Y-92926028D02*
X253267287Y-92997457D01*
X253267287Y-92997457D02*
X253338716Y-93068885D01*
X253338716Y-93068885D02*
X253410144Y-93211742D01*
X253410144Y-93211742D02*
X253410144Y-93640314D01*
X253410144Y-93640314D02*
X253338716Y-93783171D01*
X253338716Y-93783171D02*
X253267287Y-93854600D01*
X253267287Y-93854600D02*
X253124430Y-93926028D01*
X253124430Y-93926028D02*
X252910144Y-93926028D01*
X254053001Y-92926028D02*
X254053001Y-93926028D01*
X254053001Y-93068885D02*
X254124430Y-92997457D01*
X254124430Y-92997457D02*
X254267287Y-92926028D01*
X254267287Y-92926028D02*
X254481573Y-92926028D01*
X254481573Y-92926028D02*
X254624430Y-92997457D01*
X254624430Y-92997457D02*
X254695859Y-93140314D01*
X254695859Y-93140314D02*
X254695859Y-93926028D01*
X255195859Y-92926028D02*
X255767287Y-92926028D01*
X255410144Y-92426028D02*
X255410144Y-93711742D01*
X255410144Y-93711742D02*
X255481573Y-93854600D01*
X255481573Y-93854600D02*
X255624430Y-93926028D01*
X255624430Y-93926028D02*
X255767287Y-93926028D01*
X256267287Y-93926028D02*
X256267287Y-92926028D01*
X256267287Y-93211742D02*
X256338716Y-93068885D01*
X256338716Y-93068885D02*
X256410145Y-92997457D01*
X256410145Y-92997457D02*
X256553002Y-92926028D01*
X256553002Y-92926028D02*
X256695859Y-92926028D01*
X257410144Y-93926028D02*
X257267287Y-93854600D01*
X257267287Y-93854600D02*
X257195858Y-93783171D01*
X257195858Y-93783171D02*
X257124430Y-93640314D01*
X257124430Y-93640314D02*
X257124430Y-93211742D01*
X257124430Y-93211742D02*
X257195858Y-93068885D01*
X257195858Y-93068885D02*
X257267287Y-92997457D01*
X257267287Y-92997457D02*
X257410144Y-92926028D01*
X257410144Y-92926028D02*
X257624430Y-92926028D01*
X257624430Y-92926028D02*
X257767287Y-92997457D01*
X257767287Y-92997457D02*
X257838716Y-93068885D01*
X257838716Y-93068885D02*
X257910144Y-93211742D01*
X257910144Y-93211742D02*
X257910144Y-93640314D01*
X257910144Y-93640314D02*
X257838716Y-93783171D01*
X257838716Y-93783171D02*
X257767287Y-93854600D01*
X257767287Y-93854600D02*
X257624430Y-93926028D01*
X257624430Y-93926028D02*
X257410144Y-93926028D01*
X258767287Y-93926028D02*
X258624430Y-93854600D01*
X258624430Y-93854600D02*
X258553001Y-93711742D01*
X258553001Y-93711742D02*
X258553001Y-92426028D01*
X259338715Y-93783171D02*
X259410144Y-93854600D01*
X259410144Y-93854600D02*
X259338715Y-93926028D01*
X259338715Y-93926028D02*
X259267287Y-93854600D01*
X259267287Y-93854600D02*
X259338715Y-93783171D01*
X259338715Y-93783171D02*
X259338715Y-93926028D01*
X259338715Y-92997457D02*
X259410144Y-93068885D01*
X259410144Y-93068885D02*
X259338715Y-93140314D01*
X259338715Y-93140314D02*
X259267287Y-93068885D01*
X259267287Y-93068885D02*
X259338715Y-92997457D01*
X259338715Y-92997457D02*
X259338715Y-93140314D01*
X172095863Y-97740171D02*
X172024435Y-97811600D01*
X172024435Y-97811600D02*
X171810149Y-97883028D01*
X171810149Y-97883028D02*
X171667292Y-97883028D01*
X171667292Y-97883028D02*
X171453006Y-97811600D01*
X171453006Y-97811600D02*
X171310149Y-97668742D01*
X171310149Y-97668742D02*
X171238720Y-97525885D01*
X171238720Y-97525885D02*
X171167292Y-97240171D01*
X171167292Y-97240171D02*
X171167292Y-97025885D01*
X171167292Y-97025885D02*
X171238720Y-96740171D01*
X171238720Y-96740171D02*
X171310149Y-96597314D01*
X171310149Y-96597314D02*
X171453006Y-96454457D01*
X171453006Y-96454457D02*
X171667292Y-96383028D01*
X171667292Y-96383028D02*
X171810149Y-96383028D01*
X171810149Y-96383028D02*
X172024435Y-96454457D01*
X172024435Y-96454457D02*
X172095863Y-96525885D01*
X173381578Y-97883028D02*
X173381578Y-97097314D01*
X173381578Y-97097314D02*
X173310149Y-96954457D01*
X173310149Y-96954457D02*
X173167292Y-96883028D01*
X173167292Y-96883028D02*
X172881578Y-96883028D01*
X172881578Y-96883028D02*
X172738720Y-96954457D01*
X173381578Y-97811600D02*
X173238720Y-97883028D01*
X173238720Y-97883028D02*
X172881578Y-97883028D01*
X172881578Y-97883028D02*
X172738720Y-97811600D01*
X172738720Y-97811600D02*
X172667292Y-97668742D01*
X172667292Y-97668742D02*
X172667292Y-97525885D01*
X172667292Y-97525885D02*
X172738720Y-97383028D01*
X172738720Y-97383028D02*
X172881578Y-97311600D01*
X172881578Y-97311600D02*
X173238720Y-97311600D01*
X173238720Y-97311600D02*
X173381578Y-97240171D01*
X174024435Y-97811600D02*
X174167292Y-97883028D01*
X174167292Y-97883028D02*
X174453006Y-97883028D01*
X174453006Y-97883028D02*
X174595863Y-97811600D01*
X174595863Y-97811600D02*
X174667292Y-97668742D01*
X174667292Y-97668742D02*
X174667292Y-97597314D01*
X174667292Y-97597314D02*
X174595863Y-97454457D01*
X174595863Y-97454457D02*
X174453006Y-97383028D01*
X174453006Y-97383028D02*
X174238721Y-97383028D01*
X174238721Y-97383028D02*
X174095863Y-97311600D01*
X174095863Y-97311600D02*
X174024435Y-97168742D01*
X174024435Y-97168742D02*
X174024435Y-97097314D01*
X174024435Y-97097314D02*
X174095863Y-96954457D01*
X174095863Y-96954457D02*
X174238721Y-96883028D01*
X174238721Y-96883028D02*
X174453006Y-96883028D01*
X174453006Y-96883028D02*
X174595863Y-96954457D01*
X175095864Y-96883028D02*
X175667292Y-96883028D01*
X175310149Y-96383028D02*
X175310149Y-97668742D01*
X175310149Y-97668742D02*
X175381578Y-97811600D01*
X175381578Y-97811600D02*
X175524435Y-97883028D01*
X175524435Y-97883028D02*
X175667292Y-97883028D01*
X176738721Y-97811600D02*
X176595864Y-97883028D01*
X176595864Y-97883028D02*
X176310150Y-97883028D01*
X176310150Y-97883028D02*
X176167292Y-97811600D01*
X176167292Y-97811600D02*
X176095864Y-97668742D01*
X176095864Y-97668742D02*
X176095864Y-97097314D01*
X176095864Y-97097314D02*
X176167292Y-96954457D01*
X176167292Y-96954457D02*
X176310150Y-96883028D01*
X176310150Y-96883028D02*
X176595864Y-96883028D01*
X176595864Y-96883028D02*
X176738721Y-96954457D01*
X176738721Y-96954457D02*
X176810150Y-97097314D01*
X176810150Y-97097314D02*
X176810150Y-97240171D01*
X176810150Y-97240171D02*
X176095864Y-97383028D01*
X177667292Y-97883028D02*
X177524435Y-97811600D01*
X177524435Y-97811600D02*
X177453006Y-97668742D01*
X177453006Y-97668742D02*
X177453006Y-96383028D01*
X178453006Y-97883028D02*
X178310149Y-97811600D01*
X178310149Y-97811600D02*
X178238720Y-97668742D01*
X178238720Y-97668742D02*
X178238720Y-96383028D01*
X179667292Y-97883028D02*
X179667292Y-97097314D01*
X179667292Y-97097314D02*
X179595863Y-96954457D01*
X179595863Y-96954457D02*
X179453006Y-96883028D01*
X179453006Y-96883028D02*
X179167292Y-96883028D01*
X179167292Y-96883028D02*
X179024434Y-96954457D01*
X179667292Y-97811600D02*
X179524434Y-97883028D01*
X179524434Y-97883028D02*
X179167292Y-97883028D01*
X179167292Y-97883028D02*
X179024434Y-97811600D01*
X179024434Y-97811600D02*
X178953006Y-97668742D01*
X178953006Y-97668742D02*
X178953006Y-97525885D01*
X178953006Y-97525885D02*
X179024434Y-97383028D01*
X179024434Y-97383028D02*
X179167292Y-97311600D01*
X179167292Y-97311600D02*
X179524434Y-97311600D01*
X179524434Y-97311600D02*
X179667292Y-97240171D01*
X180167292Y-96883028D02*
X180738720Y-96883028D01*
X180381577Y-96383028D02*
X180381577Y-97668742D01*
X180381577Y-97668742D02*
X180453006Y-97811600D01*
X180453006Y-97811600D02*
X180595863Y-97883028D01*
X180595863Y-97883028D02*
X180738720Y-97883028D01*
X181810149Y-97811600D02*
X181667292Y-97883028D01*
X181667292Y-97883028D02*
X181381578Y-97883028D01*
X181381578Y-97883028D02*
X181238720Y-97811600D01*
X181238720Y-97811600D02*
X181167292Y-97668742D01*
X181167292Y-97668742D02*
X181167292Y-97097314D01*
X181167292Y-97097314D02*
X181238720Y-96954457D01*
X181238720Y-96954457D02*
X181381578Y-96883028D01*
X181381578Y-96883028D02*
X181667292Y-96883028D01*
X181667292Y-96883028D02*
X181810149Y-96954457D01*
X181810149Y-96954457D02*
X181881578Y-97097314D01*
X181881578Y-97097314D02*
X181881578Y-97240171D01*
X181881578Y-97240171D02*
X181167292Y-97383028D01*
X183167292Y-97883028D02*
X183167292Y-96383028D01*
X183167292Y-97811600D02*
X183024434Y-97883028D01*
X183024434Y-97883028D02*
X182738720Y-97883028D01*
X182738720Y-97883028D02*
X182595863Y-97811600D01*
X182595863Y-97811600D02*
X182524434Y-97740171D01*
X182524434Y-97740171D02*
X182453006Y-97597314D01*
X182453006Y-97597314D02*
X182453006Y-97168742D01*
X182453006Y-97168742D02*
X182524434Y-97025885D01*
X182524434Y-97025885D02*
X182595863Y-96954457D01*
X182595863Y-96954457D02*
X182738720Y-96883028D01*
X182738720Y-96883028D02*
X183024434Y-96883028D01*
X183024434Y-96883028D02*
X183167292Y-96954457D01*
X185024434Y-96883028D02*
X185024434Y-98383028D01*
X185024434Y-96954457D02*
X185167292Y-96883028D01*
X185167292Y-96883028D02*
X185453006Y-96883028D01*
X185453006Y-96883028D02*
X185595863Y-96954457D01*
X185595863Y-96954457D02*
X185667292Y-97025885D01*
X185667292Y-97025885D02*
X185738720Y-97168742D01*
X185738720Y-97168742D02*
X185738720Y-97597314D01*
X185738720Y-97597314D02*
X185667292Y-97740171D01*
X185667292Y-97740171D02*
X185595863Y-97811600D01*
X185595863Y-97811600D02*
X185453006Y-97883028D01*
X185453006Y-97883028D02*
X185167292Y-97883028D01*
X185167292Y-97883028D02*
X185024434Y-97811600D01*
X187024435Y-97883028D02*
X187024435Y-97097314D01*
X187024435Y-97097314D02*
X186953006Y-96954457D01*
X186953006Y-96954457D02*
X186810149Y-96883028D01*
X186810149Y-96883028D02*
X186524435Y-96883028D01*
X186524435Y-96883028D02*
X186381577Y-96954457D01*
X187024435Y-97811600D02*
X186881577Y-97883028D01*
X186881577Y-97883028D02*
X186524435Y-97883028D01*
X186524435Y-97883028D02*
X186381577Y-97811600D01*
X186381577Y-97811600D02*
X186310149Y-97668742D01*
X186310149Y-97668742D02*
X186310149Y-97525885D01*
X186310149Y-97525885D02*
X186381577Y-97383028D01*
X186381577Y-97383028D02*
X186524435Y-97311600D01*
X186524435Y-97311600D02*
X186881577Y-97311600D01*
X186881577Y-97311600D02*
X187024435Y-97240171D01*
X188381578Y-97883028D02*
X188381578Y-96383028D01*
X188381578Y-97811600D02*
X188238720Y-97883028D01*
X188238720Y-97883028D02*
X187953006Y-97883028D01*
X187953006Y-97883028D02*
X187810149Y-97811600D01*
X187810149Y-97811600D02*
X187738720Y-97740171D01*
X187738720Y-97740171D02*
X187667292Y-97597314D01*
X187667292Y-97597314D02*
X187667292Y-97168742D01*
X187667292Y-97168742D02*
X187738720Y-97025885D01*
X187738720Y-97025885D02*
X187810149Y-96954457D01*
X187810149Y-96954457D02*
X187953006Y-96883028D01*
X187953006Y-96883028D02*
X188238720Y-96883028D01*
X188238720Y-96883028D02*
X188381578Y-96954457D01*
X189024435Y-97811600D02*
X189167292Y-97883028D01*
X189167292Y-97883028D02*
X189453006Y-97883028D01*
X189453006Y-97883028D02*
X189595863Y-97811600D01*
X189595863Y-97811600D02*
X189667292Y-97668742D01*
X189667292Y-97668742D02*
X189667292Y-97597314D01*
X189667292Y-97597314D02*
X189595863Y-97454457D01*
X189595863Y-97454457D02*
X189453006Y-97383028D01*
X189453006Y-97383028D02*
X189238721Y-97383028D01*
X189238721Y-97383028D02*
X189095863Y-97311600D01*
X189095863Y-97311600D02*
X189024435Y-97168742D01*
X189024435Y-97168742D02*
X189024435Y-97097314D01*
X189024435Y-97097314D02*
X189095863Y-96954457D01*
X189095863Y-96954457D02*
X189238721Y-96883028D01*
X189238721Y-96883028D02*
X189453006Y-96883028D01*
X189453006Y-96883028D02*
X189595863Y-96954457D01*
X190310149Y-97740171D02*
X190381578Y-97811600D01*
X190381578Y-97811600D02*
X190310149Y-97883028D01*
X190310149Y-97883028D02*
X190238721Y-97811600D01*
X190238721Y-97811600D02*
X190310149Y-97740171D01*
X190310149Y-97740171D02*
X190310149Y-97883028D01*
X190310149Y-96954457D02*
X190381578Y-97025885D01*
X190381578Y-97025885D02*
X190310149Y-97097314D01*
X190310149Y-97097314D02*
X190238721Y-97025885D01*
X190238721Y-97025885D02*
X190310149Y-96954457D01*
X190310149Y-96954457D02*
X190310149Y-97097314D01*
X203895863Y-97883028D02*
X203895863Y-96383028D01*
X203895863Y-96383028D02*
X204753006Y-97883028D01*
X204753006Y-97883028D02*
X204753006Y-96383028D01*
X205681578Y-97883028D02*
X205538721Y-97811600D01*
X205538721Y-97811600D02*
X205467292Y-97740171D01*
X205467292Y-97740171D02*
X205395864Y-97597314D01*
X205395864Y-97597314D02*
X205395864Y-97168742D01*
X205395864Y-97168742D02*
X205467292Y-97025885D01*
X205467292Y-97025885D02*
X205538721Y-96954457D01*
X205538721Y-96954457D02*
X205681578Y-96883028D01*
X205681578Y-96883028D02*
X205895864Y-96883028D01*
X205895864Y-96883028D02*
X206038721Y-96954457D01*
X206038721Y-96954457D02*
X206110150Y-97025885D01*
X206110150Y-97025885D02*
X206181578Y-97168742D01*
X206181578Y-97168742D02*
X206181578Y-97597314D01*
X206181578Y-97597314D02*
X206110150Y-97740171D01*
X206110150Y-97740171D02*
X206038721Y-97811600D01*
X206038721Y-97811600D02*
X205895864Y-97883028D01*
X205895864Y-97883028D02*
X205681578Y-97883028D01*
X203895863Y-101840028D02*
X203895863Y-100340028D01*
X203895863Y-100340028D02*
X204753006Y-101840028D01*
X204753006Y-101840028D02*
X204753006Y-100340028D01*
X205681578Y-101840028D02*
X205538721Y-101768600D01*
X205538721Y-101768600D02*
X205467292Y-101697171D01*
X205467292Y-101697171D02*
X205395864Y-101554314D01*
X205395864Y-101554314D02*
X205395864Y-101125742D01*
X205395864Y-101125742D02*
X205467292Y-100982885D01*
X205467292Y-100982885D02*
X205538721Y-100911457D01*
X205538721Y-100911457D02*
X205681578Y-100840028D01*
X205681578Y-100840028D02*
X205895864Y-100840028D01*
X205895864Y-100840028D02*
X206038721Y-100911457D01*
X206038721Y-100911457D02*
X206110150Y-100982885D01*
X206110150Y-100982885D02*
X206181578Y-101125742D01*
X206181578Y-101125742D02*
X206181578Y-101554314D01*
X206181578Y-101554314D02*
X206110150Y-101697171D01*
X206110150Y-101697171D02*
X206038721Y-101768600D01*
X206038721Y-101768600D02*
X205895864Y-101840028D01*
X205895864Y-101840028D02*
X205681578Y-101840028D01*
X238053001Y-89969028D02*
X238053001Y-88469028D01*
X238053001Y-88469028D02*
X238553001Y-89540457D01*
X238553001Y-89540457D02*
X239053001Y-88469028D01*
X239053001Y-88469028D02*
X239053001Y-89969028D01*
X239767287Y-89969028D02*
X239767287Y-88969028D01*
X239767287Y-88469028D02*
X239695859Y-88540457D01*
X239695859Y-88540457D02*
X239767287Y-88611885D01*
X239767287Y-88611885D02*
X239838716Y-88540457D01*
X239838716Y-88540457D02*
X239767287Y-88469028D01*
X239767287Y-88469028D02*
X239767287Y-88611885D01*
X240481573Y-88969028D02*
X240481573Y-89969028D01*
X240481573Y-89111885D02*
X240553002Y-89040457D01*
X240553002Y-89040457D02*
X240695859Y-88969028D01*
X240695859Y-88969028D02*
X240910145Y-88969028D01*
X240910145Y-88969028D02*
X241053002Y-89040457D01*
X241053002Y-89040457D02*
X241124431Y-89183314D01*
X241124431Y-89183314D02*
X241124431Y-89969028D01*
X242981573Y-89969028D02*
X242981573Y-88469028D01*
X243624431Y-89969028D02*
X243624431Y-89183314D01*
X243624431Y-89183314D02*
X243553002Y-89040457D01*
X243553002Y-89040457D02*
X243410145Y-88969028D01*
X243410145Y-88969028D02*
X243195859Y-88969028D01*
X243195859Y-88969028D02*
X243053002Y-89040457D01*
X243053002Y-89040457D02*
X242981573Y-89111885D01*
X244553002Y-89969028D02*
X244410145Y-89897600D01*
X244410145Y-89897600D02*
X244338716Y-89826171D01*
X244338716Y-89826171D02*
X244267288Y-89683314D01*
X244267288Y-89683314D02*
X244267288Y-89254742D01*
X244267288Y-89254742D02*
X244338716Y-89111885D01*
X244338716Y-89111885D02*
X244410145Y-89040457D01*
X244410145Y-89040457D02*
X244553002Y-88969028D01*
X244553002Y-88969028D02*
X244767288Y-88969028D01*
X244767288Y-88969028D02*
X244910145Y-89040457D01*
X244910145Y-89040457D02*
X244981574Y-89111885D01*
X244981574Y-89111885D02*
X245053002Y-89254742D01*
X245053002Y-89254742D02*
X245053002Y-89683314D01*
X245053002Y-89683314D02*
X244981574Y-89826171D01*
X244981574Y-89826171D02*
X244910145Y-89897600D01*
X244910145Y-89897600D02*
X244767288Y-89969028D01*
X244767288Y-89969028D02*
X244553002Y-89969028D01*
X245910145Y-89969028D02*
X245767288Y-89897600D01*
X245767288Y-89897600D02*
X245695859Y-89754742D01*
X245695859Y-89754742D02*
X245695859Y-88469028D01*
X247053002Y-89897600D02*
X246910145Y-89969028D01*
X246910145Y-89969028D02*
X246624431Y-89969028D01*
X246624431Y-89969028D02*
X246481573Y-89897600D01*
X246481573Y-89897600D02*
X246410145Y-89754742D01*
X246410145Y-89754742D02*
X246410145Y-89183314D01*
X246410145Y-89183314D02*
X246481573Y-89040457D01*
X246481573Y-89040457D02*
X246624431Y-88969028D01*
X246624431Y-88969028D02*
X246910145Y-88969028D01*
X246910145Y-88969028D02*
X247053002Y-89040457D01*
X247053002Y-89040457D02*
X247124431Y-89183314D01*
X247124431Y-89183314D02*
X247124431Y-89326171D01*
X247124431Y-89326171D02*
X246410145Y-89469028D01*
X249553002Y-89969028D02*
X249553002Y-88469028D01*
X249553002Y-89897600D02*
X249410144Y-89969028D01*
X249410144Y-89969028D02*
X249124430Y-89969028D01*
X249124430Y-89969028D02*
X248981573Y-89897600D01*
X248981573Y-89897600D02*
X248910144Y-89826171D01*
X248910144Y-89826171D02*
X248838716Y-89683314D01*
X248838716Y-89683314D02*
X248838716Y-89254742D01*
X248838716Y-89254742D02*
X248910144Y-89111885D01*
X248910144Y-89111885D02*
X248981573Y-89040457D01*
X248981573Y-89040457D02*
X249124430Y-88969028D01*
X249124430Y-88969028D02*
X249410144Y-88969028D01*
X249410144Y-88969028D02*
X249553002Y-89040457D01*
X250267287Y-89969028D02*
X250267287Y-88969028D01*
X250267287Y-88469028D02*
X250195859Y-88540457D01*
X250195859Y-88540457D02*
X250267287Y-88611885D01*
X250267287Y-88611885D02*
X250338716Y-88540457D01*
X250338716Y-88540457D02*
X250267287Y-88469028D01*
X250267287Y-88469028D02*
X250267287Y-88611885D01*
X251624431Y-89969028D02*
X251624431Y-89183314D01*
X251624431Y-89183314D02*
X251553002Y-89040457D01*
X251553002Y-89040457D02*
X251410145Y-88969028D01*
X251410145Y-88969028D02*
X251124431Y-88969028D01*
X251124431Y-88969028D02*
X250981573Y-89040457D01*
X251624431Y-89897600D02*
X251481573Y-89969028D01*
X251481573Y-89969028D02*
X251124431Y-89969028D01*
X251124431Y-89969028D02*
X250981573Y-89897600D01*
X250981573Y-89897600D02*
X250910145Y-89754742D01*
X250910145Y-89754742D02*
X250910145Y-89611885D01*
X250910145Y-89611885D02*
X250981573Y-89469028D01*
X250981573Y-89469028D02*
X251124431Y-89397600D01*
X251124431Y-89397600D02*
X251481573Y-89397600D01*
X251481573Y-89397600D02*
X251624431Y-89326171D01*
X252338716Y-89969028D02*
X252338716Y-88969028D01*
X252338716Y-89111885D02*
X252410145Y-89040457D01*
X252410145Y-89040457D02*
X252553002Y-88969028D01*
X252553002Y-88969028D02*
X252767288Y-88969028D01*
X252767288Y-88969028D02*
X252910145Y-89040457D01*
X252910145Y-89040457D02*
X252981574Y-89183314D01*
X252981574Y-89183314D02*
X252981574Y-89969028D01*
X252981574Y-89183314D02*
X253053002Y-89040457D01*
X253053002Y-89040457D02*
X253195859Y-88969028D01*
X253195859Y-88969028D02*
X253410145Y-88969028D01*
X253410145Y-88969028D02*
X253553002Y-89040457D01*
X253553002Y-89040457D02*
X253624431Y-89183314D01*
X253624431Y-89183314D02*
X253624431Y-89969028D01*
X254910145Y-89897600D02*
X254767288Y-89969028D01*
X254767288Y-89969028D02*
X254481574Y-89969028D01*
X254481574Y-89969028D02*
X254338716Y-89897600D01*
X254338716Y-89897600D02*
X254267288Y-89754742D01*
X254267288Y-89754742D02*
X254267288Y-89183314D01*
X254267288Y-89183314D02*
X254338716Y-89040457D01*
X254338716Y-89040457D02*
X254481574Y-88969028D01*
X254481574Y-88969028D02*
X254767288Y-88969028D01*
X254767288Y-88969028D02*
X254910145Y-89040457D01*
X254910145Y-89040457D02*
X254981574Y-89183314D01*
X254981574Y-89183314D02*
X254981574Y-89326171D01*
X254981574Y-89326171D02*
X254267288Y-89469028D01*
X255410145Y-88969028D02*
X255981573Y-88969028D01*
X255624430Y-88469028D02*
X255624430Y-89754742D01*
X255624430Y-89754742D02*
X255695859Y-89897600D01*
X255695859Y-89897600D02*
X255838716Y-89969028D01*
X255838716Y-89969028D02*
X255981573Y-89969028D01*
X257053002Y-89897600D02*
X256910145Y-89969028D01*
X256910145Y-89969028D02*
X256624431Y-89969028D01*
X256624431Y-89969028D02*
X256481573Y-89897600D01*
X256481573Y-89897600D02*
X256410145Y-89754742D01*
X256410145Y-89754742D02*
X256410145Y-89183314D01*
X256410145Y-89183314D02*
X256481573Y-89040457D01*
X256481573Y-89040457D02*
X256624431Y-88969028D01*
X256624431Y-88969028D02*
X256910145Y-88969028D01*
X256910145Y-88969028D02*
X257053002Y-89040457D01*
X257053002Y-89040457D02*
X257124431Y-89183314D01*
X257124431Y-89183314D02*
X257124431Y-89326171D01*
X257124431Y-89326171D02*
X256410145Y-89469028D01*
X257767287Y-89969028D02*
X257767287Y-88969028D01*
X257767287Y-89254742D02*
X257838716Y-89111885D01*
X257838716Y-89111885D02*
X257910145Y-89040457D01*
X257910145Y-89040457D02*
X258053002Y-88969028D01*
X258053002Y-88969028D02*
X258195859Y-88969028D01*
X258695858Y-89826171D02*
X258767287Y-89897600D01*
X258767287Y-89897600D02*
X258695858Y-89969028D01*
X258695858Y-89969028D02*
X258624430Y-89897600D01*
X258624430Y-89897600D02*
X258695858Y-89826171D01*
X258695858Y-89826171D02*
X258695858Y-89969028D01*
X258695858Y-89040457D02*
X258767287Y-89111885D01*
X258767287Y-89111885D02*
X258695858Y-89183314D01*
X258695858Y-89183314D02*
X258624430Y-89111885D01*
X258624430Y-89111885D02*
X258695858Y-89040457D01*
X258695858Y-89040457D02*
X258695858Y-89183314D01*
X204538721Y-84512028D02*
X204253006Y-84512028D01*
X204253006Y-84512028D02*
X204110149Y-84583457D01*
X204110149Y-84583457D02*
X204038721Y-84654885D01*
X204038721Y-84654885D02*
X203895863Y-84869171D01*
X203895863Y-84869171D02*
X203824435Y-85154885D01*
X203824435Y-85154885D02*
X203824435Y-85726314D01*
X203824435Y-85726314D02*
X203895863Y-85869171D01*
X203895863Y-85869171D02*
X203967292Y-85940600D01*
X203967292Y-85940600D02*
X204110149Y-86012028D01*
X204110149Y-86012028D02*
X204395863Y-86012028D01*
X204395863Y-86012028D02*
X204538721Y-85940600D01*
X204538721Y-85940600D02*
X204610149Y-85869171D01*
X204610149Y-85869171D02*
X204681578Y-85726314D01*
X204681578Y-85726314D02*
X204681578Y-85369171D01*
X204681578Y-85369171D02*
X204610149Y-85226314D01*
X204610149Y-85226314D02*
X204538721Y-85154885D01*
X204538721Y-85154885D02*
X204395863Y-85083457D01*
X204395863Y-85083457D02*
X204110149Y-85083457D01*
X204110149Y-85083457D02*
X203967292Y-85154885D01*
X203967292Y-85154885D02*
X203895863Y-85226314D01*
X203895863Y-85226314D02*
X203824435Y-85369171D01*
X206038720Y-84512028D02*
X205324434Y-84512028D01*
X205324434Y-84512028D02*
X205253006Y-85226314D01*
X205253006Y-85226314D02*
X205324434Y-85154885D01*
X205324434Y-85154885D02*
X205467292Y-85083457D01*
X205467292Y-85083457D02*
X205824434Y-85083457D01*
X205824434Y-85083457D02*
X205967292Y-85154885D01*
X205967292Y-85154885D02*
X206038720Y-85226314D01*
X206038720Y-85226314D02*
X206110149Y-85369171D01*
X206110149Y-85369171D02*
X206110149Y-85726314D01*
X206110149Y-85726314D02*
X206038720Y-85869171D01*
X206038720Y-85869171D02*
X205967292Y-85940600D01*
X205967292Y-85940600D02*
X205824434Y-86012028D01*
X205824434Y-86012028D02*
X205467292Y-86012028D01*
X205467292Y-86012028D02*
X205324434Y-85940600D01*
X205324434Y-85940600D02*
X205253006Y-85869171D01*
X206753005Y-85869171D02*
X206824434Y-85940600D01*
X206824434Y-85940600D02*
X206753005Y-86012028D01*
X206753005Y-86012028D02*
X206681577Y-85940600D01*
X206681577Y-85940600D02*
X206753005Y-85869171D01*
X206753005Y-85869171D02*
X206753005Y-86012028D01*
X207753006Y-84512028D02*
X207895863Y-84512028D01*
X207895863Y-84512028D02*
X208038720Y-84583457D01*
X208038720Y-84583457D02*
X208110149Y-84654885D01*
X208110149Y-84654885D02*
X208181577Y-84797742D01*
X208181577Y-84797742D02*
X208253006Y-85083457D01*
X208253006Y-85083457D02*
X208253006Y-85440600D01*
X208253006Y-85440600D02*
X208181577Y-85726314D01*
X208181577Y-85726314D02*
X208110149Y-85869171D01*
X208110149Y-85869171D02*
X208038720Y-85940600D01*
X208038720Y-85940600D02*
X207895863Y-86012028D01*
X207895863Y-86012028D02*
X207753006Y-86012028D01*
X207753006Y-86012028D02*
X207610149Y-85940600D01*
X207610149Y-85940600D02*
X207538720Y-85869171D01*
X207538720Y-85869171D02*
X207467291Y-85726314D01*
X207467291Y-85726314D02*
X207395863Y-85440600D01*
X207395863Y-85440600D02*
X207395863Y-85083457D01*
X207395863Y-85083457D02*
X207467291Y-84797742D01*
X207467291Y-84797742D02*
X207538720Y-84654885D01*
X207538720Y-84654885D02*
X207610149Y-84583457D01*
X207610149Y-84583457D02*
X207753006Y-84512028D01*
X209181577Y-84512028D02*
X209324434Y-84512028D01*
X209324434Y-84512028D02*
X209467291Y-84583457D01*
X209467291Y-84583457D02*
X209538720Y-84654885D01*
X209538720Y-84654885D02*
X209610148Y-84797742D01*
X209610148Y-84797742D02*
X209681577Y-85083457D01*
X209681577Y-85083457D02*
X209681577Y-85440600D01*
X209681577Y-85440600D02*
X209610148Y-85726314D01*
X209610148Y-85726314D02*
X209538720Y-85869171D01*
X209538720Y-85869171D02*
X209467291Y-85940600D01*
X209467291Y-85940600D02*
X209324434Y-86012028D01*
X209324434Y-86012028D02*
X209181577Y-86012028D01*
X209181577Y-86012028D02*
X209038720Y-85940600D01*
X209038720Y-85940600D02*
X208967291Y-85869171D01*
X208967291Y-85869171D02*
X208895862Y-85726314D01*
X208895862Y-85726314D02*
X208824434Y-85440600D01*
X208824434Y-85440600D02*
X208824434Y-85083457D01*
X208824434Y-85083457D02*
X208895862Y-84797742D01*
X208895862Y-84797742D02*
X208967291Y-84654885D01*
X208967291Y-84654885D02*
X209038720Y-84583457D01*
X209038720Y-84583457D02*
X209181577Y-84512028D01*
X210610148Y-84512028D02*
X210753005Y-84512028D01*
X210753005Y-84512028D02*
X210895862Y-84583457D01*
X210895862Y-84583457D02*
X210967291Y-84654885D01*
X210967291Y-84654885D02*
X211038719Y-84797742D01*
X211038719Y-84797742D02*
X211110148Y-85083457D01*
X211110148Y-85083457D02*
X211110148Y-85440600D01*
X211110148Y-85440600D02*
X211038719Y-85726314D01*
X211038719Y-85726314D02*
X210967291Y-85869171D01*
X210967291Y-85869171D02*
X210895862Y-85940600D01*
X210895862Y-85940600D02*
X210753005Y-86012028D01*
X210753005Y-86012028D02*
X210610148Y-86012028D01*
X210610148Y-86012028D02*
X210467291Y-85940600D01*
X210467291Y-85940600D02*
X210395862Y-85869171D01*
X210395862Y-85869171D02*
X210324433Y-85726314D01*
X210324433Y-85726314D02*
X210253005Y-85440600D01*
X210253005Y-85440600D02*
X210253005Y-85083457D01*
X210253005Y-85083457D02*
X210324433Y-84797742D01*
X210324433Y-84797742D02*
X210395862Y-84654885D01*
X210395862Y-84654885D02*
X210467291Y-84583457D01*
X210467291Y-84583457D02*
X210610148Y-84512028D01*
X212038719Y-84512028D02*
X212181576Y-84512028D01*
X212181576Y-84512028D02*
X212324433Y-84583457D01*
X212324433Y-84583457D02*
X212395862Y-84654885D01*
X212395862Y-84654885D02*
X212467290Y-84797742D01*
X212467290Y-84797742D02*
X212538719Y-85083457D01*
X212538719Y-85083457D02*
X212538719Y-85440600D01*
X212538719Y-85440600D02*
X212467290Y-85726314D01*
X212467290Y-85726314D02*
X212395862Y-85869171D01*
X212395862Y-85869171D02*
X212324433Y-85940600D01*
X212324433Y-85940600D02*
X212181576Y-86012028D01*
X212181576Y-86012028D02*
X212038719Y-86012028D01*
X212038719Y-86012028D02*
X211895862Y-85940600D01*
X211895862Y-85940600D02*
X211824433Y-85869171D01*
X211824433Y-85869171D02*
X211753004Y-85726314D01*
X211753004Y-85726314D02*
X211681576Y-85440600D01*
X211681576Y-85440600D02*
X211681576Y-85083457D01*
X211681576Y-85083457D02*
X211753004Y-84797742D01*
X211753004Y-84797742D02*
X211824433Y-84654885D01*
X211824433Y-84654885D02*
X211895862Y-84583457D01*
X211895862Y-84583457D02*
X212038719Y-84512028D01*
X214324432Y-86012028D02*
X214324432Y-85012028D01*
X214324432Y-85154885D02*
X214395861Y-85083457D01*
X214395861Y-85083457D02*
X214538718Y-85012028D01*
X214538718Y-85012028D02*
X214753004Y-85012028D01*
X214753004Y-85012028D02*
X214895861Y-85083457D01*
X214895861Y-85083457D02*
X214967290Y-85226314D01*
X214967290Y-85226314D02*
X214967290Y-86012028D01*
X214967290Y-85226314D02*
X215038718Y-85083457D01*
X215038718Y-85083457D02*
X215181575Y-85012028D01*
X215181575Y-85012028D02*
X215395861Y-85012028D01*
X215395861Y-85012028D02*
X215538718Y-85083457D01*
X215538718Y-85083457D02*
X215610147Y-85226314D01*
X215610147Y-85226314D02*
X215610147Y-86012028D01*
X216324432Y-86012028D02*
X216324432Y-85012028D01*
X216324432Y-85154885D02*
X216395861Y-85083457D01*
X216395861Y-85083457D02*
X216538718Y-85012028D01*
X216538718Y-85012028D02*
X216753004Y-85012028D01*
X216753004Y-85012028D02*
X216895861Y-85083457D01*
X216895861Y-85083457D02*
X216967290Y-85226314D01*
X216967290Y-85226314D02*
X216967290Y-86012028D01*
X216967290Y-85226314D02*
X217038718Y-85083457D01*
X217038718Y-85083457D02*
X217181575Y-85012028D01*
X217181575Y-85012028D02*
X217395861Y-85012028D01*
X217395861Y-85012028D02*
X217538718Y-85083457D01*
X217538718Y-85083457D02*
X217610147Y-85226314D01*
X217610147Y-85226314D02*
X217610147Y-86012028D01*
X219324432Y-86012028D02*
X220110147Y-85012028D01*
X219324432Y-85012028D02*
X220110147Y-86012028D01*
X221681575Y-84512028D02*
X222681575Y-84512028D01*
X222681575Y-84512028D02*
X222038718Y-86012028D01*
X223967289Y-84512028D02*
X223253003Y-84512028D01*
X223253003Y-84512028D02*
X223181575Y-85226314D01*
X223181575Y-85226314D02*
X223253003Y-85154885D01*
X223253003Y-85154885D02*
X223395861Y-85083457D01*
X223395861Y-85083457D02*
X223753003Y-85083457D01*
X223753003Y-85083457D02*
X223895861Y-85154885D01*
X223895861Y-85154885D02*
X223967289Y-85226314D01*
X223967289Y-85226314D02*
X224038718Y-85369171D01*
X224038718Y-85369171D02*
X224038718Y-85726314D01*
X224038718Y-85726314D02*
X223967289Y-85869171D01*
X223967289Y-85869171D02*
X223895861Y-85940600D01*
X223895861Y-85940600D02*
X223753003Y-86012028D01*
X223753003Y-86012028D02*
X223395861Y-86012028D01*
X223395861Y-86012028D02*
X223253003Y-85940600D01*
X223253003Y-85940600D02*
X223181575Y-85869171D01*
X224681574Y-85869171D02*
X224753003Y-85940600D01*
X224753003Y-85940600D02*
X224681574Y-86012028D01*
X224681574Y-86012028D02*
X224610146Y-85940600D01*
X224610146Y-85940600D02*
X224681574Y-85869171D01*
X224681574Y-85869171D02*
X224681574Y-86012028D01*
X225681575Y-84512028D02*
X225824432Y-84512028D01*
X225824432Y-84512028D02*
X225967289Y-84583457D01*
X225967289Y-84583457D02*
X226038718Y-84654885D01*
X226038718Y-84654885D02*
X226110146Y-84797742D01*
X226110146Y-84797742D02*
X226181575Y-85083457D01*
X226181575Y-85083457D02*
X226181575Y-85440600D01*
X226181575Y-85440600D02*
X226110146Y-85726314D01*
X226110146Y-85726314D02*
X226038718Y-85869171D01*
X226038718Y-85869171D02*
X225967289Y-85940600D01*
X225967289Y-85940600D02*
X225824432Y-86012028D01*
X225824432Y-86012028D02*
X225681575Y-86012028D01*
X225681575Y-86012028D02*
X225538718Y-85940600D01*
X225538718Y-85940600D02*
X225467289Y-85869171D01*
X225467289Y-85869171D02*
X225395860Y-85726314D01*
X225395860Y-85726314D02*
X225324432Y-85440600D01*
X225324432Y-85440600D02*
X225324432Y-85083457D01*
X225324432Y-85083457D02*
X225395860Y-84797742D01*
X225395860Y-84797742D02*
X225467289Y-84654885D01*
X225467289Y-84654885D02*
X225538718Y-84583457D01*
X225538718Y-84583457D02*
X225681575Y-84512028D01*
X227110146Y-84512028D02*
X227253003Y-84512028D01*
X227253003Y-84512028D02*
X227395860Y-84583457D01*
X227395860Y-84583457D02*
X227467289Y-84654885D01*
X227467289Y-84654885D02*
X227538717Y-84797742D01*
X227538717Y-84797742D02*
X227610146Y-85083457D01*
X227610146Y-85083457D02*
X227610146Y-85440600D01*
X227610146Y-85440600D02*
X227538717Y-85726314D01*
X227538717Y-85726314D02*
X227467289Y-85869171D01*
X227467289Y-85869171D02*
X227395860Y-85940600D01*
X227395860Y-85940600D02*
X227253003Y-86012028D01*
X227253003Y-86012028D02*
X227110146Y-86012028D01*
X227110146Y-86012028D02*
X226967289Y-85940600D01*
X226967289Y-85940600D02*
X226895860Y-85869171D01*
X226895860Y-85869171D02*
X226824431Y-85726314D01*
X226824431Y-85726314D02*
X226753003Y-85440600D01*
X226753003Y-85440600D02*
X226753003Y-85083457D01*
X226753003Y-85083457D02*
X226824431Y-84797742D01*
X226824431Y-84797742D02*
X226895860Y-84654885D01*
X226895860Y-84654885D02*
X226967289Y-84583457D01*
X226967289Y-84583457D02*
X227110146Y-84512028D01*
X228538717Y-84512028D02*
X228681574Y-84512028D01*
X228681574Y-84512028D02*
X228824431Y-84583457D01*
X228824431Y-84583457D02*
X228895860Y-84654885D01*
X228895860Y-84654885D02*
X228967288Y-84797742D01*
X228967288Y-84797742D02*
X229038717Y-85083457D01*
X229038717Y-85083457D02*
X229038717Y-85440600D01*
X229038717Y-85440600D02*
X228967288Y-85726314D01*
X228967288Y-85726314D02*
X228895860Y-85869171D01*
X228895860Y-85869171D02*
X228824431Y-85940600D01*
X228824431Y-85940600D02*
X228681574Y-86012028D01*
X228681574Y-86012028D02*
X228538717Y-86012028D01*
X228538717Y-86012028D02*
X228395860Y-85940600D01*
X228395860Y-85940600D02*
X228324431Y-85869171D01*
X228324431Y-85869171D02*
X228253002Y-85726314D01*
X228253002Y-85726314D02*
X228181574Y-85440600D01*
X228181574Y-85440600D02*
X228181574Y-85083457D01*
X228181574Y-85083457D02*
X228253002Y-84797742D01*
X228253002Y-84797742D02*
X228324431Y-84654885D01*
X228324431Y-84654885D02*
X228395860Y-84583457D01*
X228395860Y-84583457D02*
X228538717Y-84512028D01*
X229967288Y-84512028D02*
X230110145Y-84512028D01*
X230110145Y-84512028D02*
X230253002Y-84583457D01*
X230253002Y-84583457D02*
X230324431Y-84654885D01*
X230324431Y-84654885D02*
X230395859Y-84797742D01*
X230395859Y-84797742D02*
X230467288Y-85083457D01*
X230467288Y-85083457D02*
X230467288Y-85440600D01*
X230467288Y-85440600D02*
X230395859Y-85726314D01*
X230395859Y-85726314D02*
X230324431Y-85869171D01*
X230324431Y-85869171D02*
X230253002Y-85940600D01*
X230253002Y-85940600D02*
X230110145Y-86012028D01*
X230110145Y-86012028D02*
X229967288Y-86012028D01*
X229967288Y-86012028D02*
X229824431Y-85940600D01*
X229824431Y-85940600D02*
X229753002Y-85869171D01*
X229753002Y-85869171D02*
X229681573Y-85726314D01*
X229681573Y-85726314D02*
X229610145Y-85440600D01*
X229610145Y-85440600D02*
X229610145Y-85083457D01*
X229610145Y-85083457D02*
X229681573Y-84797742D01*
X229681573Y-84797742D02*
X229753002Y-84654885D01*
X229753002Y-84654885D02*
X229824431Y-84583457D01*
X229824431Y-84583457D02*
X229967288Y-84512028D01*
X232253001Y-86012028D02*
X232253001Y-85012028D01*
X232253001Y-85154885D02*
X232324430Y-85083457D01*
X232324430Y-85083457D02*
X232467287Y-85012028D01*
X232467287Y-85012028D02*
X232681573Y-85012028D01*
X232681573Y-85012028D02*
X232824430Y-85083457D01*
X232824430Y-85083457D02*
X232895859Y-85226314D01*
X232895859Y-85226314D02*
X232895859Y-86012028D01*
X232895859Y-85226314D02*
X232967287Y-85083457D01*
X232967287Y-85083457D02*
X233110144Y-85012028D01*
X233110144Y-85012028D02*
X233324430Y-85012028D01*
X233324430Y-85012028D02*
X233467287Y-85083457D01*
X233467287Y-85083457D02*
X233538716Y-85226314D01*
X233538716Y-85226314D02*
X233538716Y-86012028D01*
X234253001Y-86012028D02*
X234253001Y-85012028D01*
X234253001Y-85154885D02*
X234324430Y-85083457D01*
X234324430Y-85083457D02*
X234467287Y-85012028D01*
X234467287Y-85012028D02*
X234681573Y-85012028D01*
X234681573Y-85012028D02*
X234824430Y-85083457D01*
X234824430Y-85083457D02*
X234895859Y-85226314D01*
X234895859Y-85226314D02*
X234895859Y-86012028D01*
X234895859Y-85226314D02*
X234967287Y-85083457D01*
X234967287Y-85083457D02*
X235110144Y-85012028D01*
X235110144Y-85012028D02*
X235324430Y-85012028D01*
X235324430Y-85012028D02*
X235467287Y-85083457D01*
X235467287Y-85083457D02*
X235538716Y-85226314D01*
X235538716Y-85226314D02*
X235538716Y-86012028D01*
X171238720Y-89969028D02*
X171238720Y-88469028D01*
X171238720Y-88469028D02*
X171738720Y-89540457D01*
X171738720Y-89540457D02*
X172238720Y-88469028D01*
X172238720Y-88469028D02*
X172238720Y-89969028D01*
X172953006Y-89969028D02*
X172953006Y-88969028D01*
X172953006Y-88469028D02*
X172881578Y-88540457D01*
X172881578Y-88540457D02*
X172953006Y-88611885D01*
X172953006Y-88611885D02*
X173024435Y-88540457D01*
X173024435Y-88540457D02*
X172953006Y-88469028D01*
X172953006Y-88469028D02*
X172953006Y-88611885D01*
X173667292Y-88969028D02*
X173667292Y-89969028D01*
X173667292Y-89111885D02*
X173738721Y-89040457D01*
X173738721Y-89040457D02*
X173881578Y-88969028D01*
X173881578Y-88969028D02*
X174095864Y-88969028D01*
X174095864Y-88969028D02*
X174238721Y-89040457D01*
X174238721Y-89040457D02*
X174310150Y-89183314D01*
X174310150Y-89183314D02*
X174310150Y-89969028D01*
X175953007Y-88969028D02*
X176524435Y-88969028D01*
X176167292Y-88469028D02*
X176167292Y-89754742D01*
X176167292Y-89754742D02*
X176238721Y-89897600D01*
X176238721Y-89897600D02*
X176381578Y-89969028D01*
X176381578Y-89969028D02*
X176524435Y-89969028D01*
X177024435Y-89969028D02*
X177024435Y-88969028D01*
X177024435Y-89254742D02*
X177095864Y-89111885D01*
X177095864Y-89111885D02*
X177167293Y-89040457D01*
X177167293Y-89040457D02*
X177310150Y-88969028D01*
X177310150Y-88969028D02*
X177453007Y-88969028D01*
X178595864Y-89969028D02*
X178595864Y-89183314D01*
X178595864Y-89183314D02*
X178524435Y-89040457D01*
X178524435Y-89040457D02*
X178381578Y-88969028D01*
X178381578Y-88969028D02*
X178095864Y-88969028D01*
X178095864Y-88969028D02*
X177953006Y-89040457D01*
X178595864Y-89897600D02*
X178453006Y-89969028D01*
X178453006Y-89969028D02*
X178095864Y-89969028D01*
X178095864Y-89969028D02*
X177953006Y-89897600D01*
X177953006Y-89897600D02*
X177881578Y-89754742D01*
X177881578Y-89754742D02*
X177881578Y-89611885D01*
X177881578Y-89611885D02*
X177953006Y-89469028D01*
X177953006Y-89469028D02*
X178095864Y-89397600D01*
X178095864Y-89397600D02*
X178453006Y-89397600D01*
X178453006Y-89397600D02*
X178595864Y-89326171D01*
X179953007Y-89897600D02*
X179810149Y-89969028D01*
X179810149Y-89969028D02*
X179524435Y-89969028D01*
X179524435Y-89969028D02*
X179381578Y-89897600D01*
X179381578Y-89897600D02*
X179310149Y-89826171D01*
X179310149Y-89826171D02*
X179238721Y-89683314D01*
X179238721Y-89683314D02*
X179238721Y-89254742D01*
X179238721Y-89254742D02*
X179310149Y-89111885D01*
X179310149Y-89111885D02*
X179381578Y-89040457D01*
X179381578Y-89040457D02*
X179524435Y-88969028D01*
X179524435Y-88969028D02*
X179810149Y-88969028D01*
X179810149Y-88969028D02*
X179953007Y-89040457D01*
X180595863Y-89969028D02*
X180595863Y-88469028D01*
X180738721Y-89397600D02*
X181167292Y-89969028D01*
X181167292Y-88969028D02*
X180595863Y-89540457D01*
X182881578Y-88397600D02*
X181595864Y-90326171D01*
X183310150Y-89897600D02*
X183453007Y-89969028D01*
X183453007Y-89969028D02*
X183738721Y-89969028D01*
X183738721Y-89969028D02*
X183881578Y-89897600D01*
X183881578Y-89897600D02*
X183953007Y-89754742D01*
X183953007Y-89754742D02*
X183953007Y-89683314D01*
X183953007Y-89683314D02*
X183881578Y-89540457D01*
X183881578Y-89540457D02*
X183738721Y-89469028D01*
X183738721Y-89469028D02*
X183524436Y-89469028D01*
X183524436Y-89469028D02*
X183381578Y-89397600D01*
X183381578Y-89397600D02*
X183310150Y-89254742D01*
X183310150Y-89254742D02*
X183310150Y-89183314D01*
X183310150Y-89183314D02*
X183381578Y-89040457D01*
X183381578Y-89040457D02*
X183524436Y-88969028D01*
X183524436Y-88969028D02*
X183738721Y-88969028D01*
X183738721Y-88969028D02*
X183881578Y-89040457D01*
X184595864Y-88969028D02*
X184595864Y-90469028D01*
X184595864Y-89040457D02*
X184738722Y-88969028D01*
X184738722Y-88969028D02*
X185024436Y-88969028D01*
X185024436Y-88969028D02*
X185167293Y-89040457D01*
X185167293Y-89040457D02*
X185238722Y-89111885D01*
X185238722Y-89111885D02*
X185310150Y-89254742D01*
X185310150Y-89254742D02*
X185310150Y-89683314D01*
X185310150Y-89683314D02*
X185238722Y-89826171D01*
X185238722Y-89826171D02*
X185167293Y-89897600D01*
X185167293Y-89897600D02*
X185024436Y-89969028D01*
X185024436Y-89969028D02*
X184738722Y-89969028D01*
X184738722Y-89969028D02*
X184595864Y-89897600D01*
X186595865Y-89969028D02*
X186595865Y-89183314D01*
X186595865Y-89183314D02*
X186524436Y-89040457D01*
X186524436Y-89040457D02*
X186381579Y-88969028D01*
X186381579Y-88969028D02*
X186095865Y-88969028D01*
X186095865Y-88969028D02*
X185953007Y-89040457D01*
X186595865Y-89897600D02*
X186453007Y-89969028D01*
X186453007Y-89969028D02*
X186095865Y-89969028D01*
X186095865Y-89969028D02*
X185953007Y-89897600D01*
X185953007Y-89897600D02*
X185881579Y-89754742D01*
X185881579Y-89754742D02*
X185881579Y-89611885D01*
X185881579Y-89611885D02*
X185953007Y-89469028D01*
X185953007Y-89469028D02*
X186095865Y-89397600D01*
X186095865Y-89397600D02*
X186453007Y-89397600D01*
X186453007Y-89397600D02*
X186595865Y-89326171D01*
X187953008Y-89897600D02*
X187810150Y-89969028D01*
X187810150Y-89969028D02*
X187524436Y-89969028D01*
X187524436Y-89969028D02*
X187381579Y-89897600D01*
X187381579Y-89897600D02*
X187310150Y-89826171D01*
X187310150Y-89826171D02*
X187238722Y-89683314D01*
X187238722Y-89683314D02*
X187238722Y-89254742D01*
X187238722Y-89254742D02*
X187310150Y-89111885D01*
X187310150Y-89111885D02*
X187381579Y-89040457D01*
X187381579Y-89040457D02*
X187524436Y-88969028D01*
X187524436Y-88969028D02*
X187810150Y-88969028D01*
X187810150Y-88969028D02*
X187953008Y-89040457D01*
X188595864Y-89969028D02*
X188595864Y-88969028D01*
X188595864Y-88469028D02*
X188524436Y-88540457D01*
X188524436Y-88540457D02*
X188595864Y-88611885D01*
X188595864Y-88611885D02*
X188667293Y-88540457D01*
X188667293Y-88540457D02*
X188595864Y-88469028D01*
X188595864Y-88469028D02*
X188595864Y-88611885D01*
X189310150Y-88969028D02*
X189310150Y-89969028D01*
X189310150Y-89111885D02*
X189381579Y-89040457D01*
X189381579Y-89040457D02*
X189524436Y-88969028D01*
X189524436Y-88969028D02*
X189738722Y-88969028D01*
X189738722Y-88969028D02*
X189881579Y-89040457D01*
X189881579Y-89040457D02*
X189953008Y-89183314D01*
X189953008Y-89183314D02*
X189953008Y-89969028D01*
X191310151Y-88969028D02*
X191310151Y-90183314D01*
X191310151Y-90183314D02*
X191238722Y-90326171D01*
X191238722Y-90326171D02*
X191167293Y-90397600D01*
X191167293Y-90397600D02*
X191024436Y-90469028D01*
X191024436Y-90469028D02*
X190810151Y-90469028D01*
X190810151Y-90469028D02*
X190667293Y-90397600D01*
X191310151Y-89897600D02*
X191167293Y-89969028D01*
X191167293Y-89969028D02*
X190881579Y-89969028D01*
X190881579Y-89969028D02*
X190738722Y-89897600D01*
X190738722Y-89897600D02*
X190667293Y-89826171D01*
X190667293Y-89826171D02*
X190595865Y-89683314D01*
X190595865Y-89683314D02*
X190595865Y-89254742D01*
X190595865Y-89254742D02*
X190667293Y-89111885D01*
X190667293Y-89111885D02*
X190738722Y-89040457D01*
X190738722Y-89040457D02*
X190881579Y-88969028D01*
X190881579Y-88969028D02*
X191167293Y-88969028D01*
X191167293Y-88969028D02*
X191310151Y-89040457D01*
X192024436Y-89826171D02*
X192095865Y-89897600D01*
X192095865Y-89897600D02*
X192024436Y-89969028D01*
X192024436Y-89969028D02*
X191953008Y-89897600D01*
X191953008Y-89897600D02*
X192024436Y-89826171D01*
X192024436Y-89826171D02*
X192024436Y-89969028D01*
X192024436Y-89040457D02*
X192095865Y-89111885D01*
X192095865Y-89111885D02*
X192024436Y-89183314D01*
X192024436Y-89183314D02*
X191953008Y-89111885D01*
X191953008Y-89111885D02*
X192024436Y-89040457D01*
X192024436Y-89040457D02*
X192024436Y-89183314D01*
X262995858Y-93926028D02*
X262995858Y-92426028D01*
X262995858Y-92426028D02*
X263853001Y-93926028D01*
X263853001Y-93926028D02*
X263853001Y-92426028D01*
X264781573Y-93926028D02*
X264638716Y-93854600D01*
X264638716Y-93854600D02*
X264567287Y-93783171D01*
X264567287Y-93783171D02*
X264495859Y-93640314D01*
X264495859Y-93640314D02*
X264495859Y-93211742D01*
X264495859Y-93211742D02*
X264567287Y-93068885D01*
X264567287Y-93068885D02*
X264638716Y-92997457D01*
X264638716Y-92997457D02*
X264781573Y-92926028D01*
X264781573Y-92926028D02*
X264995859Y-92926028D01*
X264995859Y-92926028D02*
X265138716Y-92997457D01*
X265138716Y-92997457D02*
X265210145Y-93068885D01*
X265210145Y-93068885D02*
X265281573Y-93211742D01*
X265281573Y-93211742D02*
X265281573Y-93640314D01*
X265281573Y-93640314D02*
X265210145Y-93783171D01*
X265210145Y-93783171D02*
X265138716Y-93854600D01*
X265138716Y-93854600D02*
X264995859Y-93926028D01*
X264995859Y-93926028D02*
X264781573Y-93926028D01*
X263281573Y-88469028D02*
X263424430Y-88469028D01*
X263424430Y-88469028D02*
X263567287Y-88540457D01*
X263567287Y-88540457D02*
X263638716Y-88611885D01*
X263638716Y-88611885D02*
X263710144Y-88754742D01*
X263710144Y-88754742D02*
X263781573Y-89040457D01*
X263781573Y-89040457D02*
X263781573Y-89397600D01*
X263781573Y-89397600D02*
X263710144Y-89683314D01*
X263710144Y-89683314D02*
X263638716Y-89826171D01*
X263638716Y-89826171D02*
X263567287Y-89897600D01*
X263567287Y-89897600D02*
X263424430Y-89969028D01*
X263424430Y-89969028D02*
X263281573Y-89969028D01*
X263281573Y-89969028D02*
X263138716Y-89897600D01*
X263138716Y-89897600D02*
X263067287Y-89826171D01*
X263067287Y-89826171D02*
X262995858Y-89683314D01*
X262995858Y-89683314D02*
X262924430Y-89397600D01*
X262924430Y-89397600D02*
X262924430Y-89040457D01*
X262924430Y-89040457D02*
X262995858Y-88754742D01*
X262995858Y-88754742D02*
X263067287Y-88611885D01*
X263067287Y-88611885D02*
X263138716Y-88540457D01*
X263138716Y-88540457D02*
X263281573Y-88469028D01*
X264424429Y-89826171D02*
X264495858Y-89897600D01*
X264495858Y-89897600D02*
X264424429Y-89969028D01*
X264424429Y-89969028D02*
X264353001Y-89897600D01*
X264353001Y-89897600D02*
X264424429Y-89826171D01*
X264424429Y-89826171D02*
X264424429Y-89969028D01*
X265781573Y-88969028D02*
X265781573Y-89969028D01*
X265424430Y-88397600D02*
X265067287Y-89469028D01*
X265067287Y-89469028D02*
X265995858Y-89469028D01*
X266853001Y-88469028D02*
X266995858Y-88469028D01*
X266995858Y-88469028D02*
X267138715Y-88540457D01*
X267138715Y-88540457D02*
X267210144Y-88611885D01*
X267210144Y-88611885D02*
X267281572Y-88754742D01*
X267281572Y-88754742D02*
X267353001Y-89040457D01*
X267353001Y-89040457D02*
X267353001Y-89397600D01*
X267353001Y-89397600D02*
X267281572Y-89683314D01*
X267281572Y-89683314D02*
X267210144Y-89826171D01*
X267210144Y-89826171D02*
X267138715Y-89897600D01*
X267138715Y-89897600D02*
X266995858Y-89969028D01*
X266995858Y-89969028D02*
X266853001Y-89969028D01*
X266853001Y-89969028D02*
X266710144Y-89897600D01*
X266710144Y-89897600D02*
X266638715Y-89826171D01*
X266638715Y-89826171D02*
X266567286Y-89683314D01*
X266567286Y-89683314D02*
X266495858Y-89397600D01*
X266495858Y-89397600D02*
X266495858Y-89040457D01*
X266495858Y-89040457D02*
X266567286Y-88754742D01*
X266567286Y-88754742D02*
X266638715Y-88611885D01*
X266638715Y-88611885D02*
X266710144Y-88540457D01*
X266710144Y-88540457D02*
X266853001Y-88469028D01*
X268281572Y-88469028D02*
X268424429Y-88469028D01*
X268424429Y-88469028D02*
X268567286Y-88540457D01*
X268567286Y-88540457D02*
X268638715Y-88611885D01*
X268638715Y-88611885D02*
X268710143Y-88754742D01*
X268710143Y-88754742D02*
X268781572Y-89040457D01*
X268781572Y-89040457D02*
X268781572Y-89397600D01*
X268781572Y-89397600D02*
X268710143Y-89683314D01*
X268710143Y-89683314D02*
X268638715Y-89826171D01*
X268638715Y-89826171D02*
X268567286Y-89897600D01*
X268567286Y-89897600D02*
X268424429Y-89969028D01*
X268424429Y-89969028D02*
X268281572Y-89969028D01*
X268281572Y-89969028D02*
X268138715Y-89897600D01*
X268138715Y-89897600D02*
X268067286Y-89826171D01*
X268067286Y-89826171D02*
X267995857Y-89683314D01*
X267995857Y-89683314D02*
X267924429Y-89397600D01*
X267924429Y-89397600D02*
X267924429Y-89040457D01*
X267924429Y-89040457D02*
X267995857Y-88754742D01*
X267995857Y-88754742D02*
X268067286Y-88611885D01*
X268067286Y-88611885D02*
X268138715Y-88540457D01*
X268138715Y-88540457D02*
X268281572Y-88469028D01*
X269710143Y-88469028D02*
X269853000Y-88469028D01*
X269853000Y-88469028D02*
X269995857Y-88540457D01*
X269995857Y-88540457D02*
X270067286Y-88611885D01*
X270067286Y-88611885D02*
X270138714Y-88754742D01*
X270138714Y-88754742D02*
X270210143Y-89040457D01*
X270210143Y-89040457D02*
X270210143Y-89397600D01*
X270210143Y-89397600D02*
X270138714Y-89683314D01*
X270138714Y-89683314D02*
X270067286Y-89826171D01*
X270067286Y-89826171D02*
X269995857Y-89897600D01*
X269995857Y-89897600D02*
X269853000Y-89969028D01*
X269853000Y-89969028D02*
X269710143Y-89969028D01*
X269710143Y-89969028D02*
X269567286Y-89897600D01*
X269567286Y-89897600D02*
X269495857Y-89826171D01*
X269495857Y-89826171D02*
X269424428Y-89683314D01*
X269424428Y-89683314D02*
X269353000Y-89397600D01*
X269353000Y-89397600D02*
X269353000Y-89040457D01*
X269353000Y-89040457D02*
X269424428Y-88754742D01*
X269424428Y-88754742D02*
X269495857Y-88611885D01*
X269495857Y-88611885D02*
X269567286Y-88540457D01*
X269567286Y-88540457D02*
X269710143Y-88469028D01*
X271995856Y-89969028D02*
X271995856Y-88969028D01*
X271995856Y-89111885D02*
X272067285Y-89040457D01*
X272067285Y-89040457D02*
X272210142Y-88969028D01*
X272210142Y-88969028D02*
X272424428Y-88969028D01*
X272424428Y-88969028D02*
X272567285Y-89040457D01*
X272567285Y-89040457D02*
X272638714Y-89183314D01*
X272638714Y-89183314D02*
X272638714Y-89969028D01*
X272638714Y-89183314D02*
X272710142Y-89040457D01*
X272710142Y-89040457D02*
X272852999Y-88969028D01*
X272852999Y-88969028D02*
X273067285Y-88969028D01*
X273067285Y-88969028D02*
X273210142Y-89040457D01*
X273210142Y-89040457D02*
X273281571Y-89183314D01*
X273281571Y-89183314D02*
X273281571Y-89969028D01*
X273995856Y-89969028D02*
X273995856Y-88969028D01*
X273995856Y-89111885D02*
X274067285Y-89040457D01*
X274067285Y-89040457D02*
X274210142Y-88969028D01*
X274210142Y-88969028D02*
X274424428Y-88969028D01*
X274424428Y-88969028D02*
X274567285Y-89040457D01*
X274567285Y-89040457D02*
X274638714Y-89183314D01*
X274638714Y-89183314D02*
X274638714Y-89969028D01*
X274638714Y-89183314D02*
X274710142Y-89040457D01*
X274710142Y-89040457D02*
X274852999Y-88969028D01*
X274852999Y-88969028D02*
X275067285Y-88969028D01*
X275067285Y-88969028D02*
X275210142Y-89040457D01*
X275210142Y-89040457D02*
X275281571Y-89183314D01*
X275281571Y-89183314D02*
X275281571Y-89969028D01*
X204181578Y-88469028D02*
X204324435Y-88469028D01*
X204324435Y-88469028D02*
X204467292Y-88540457D01*
X204467292Y-88540457D02*
X204538721Y-88611885D01*
X204538721Y-88611885D02*
X204610149Y-88754742D01*
X204610149Y-88754742D02*
X204681578Y-89040457D01*
X204681578Y-89040457D02*
X204681578Y-89397600D01*
X204681578Y-89397600D02*
X204610149Y-89683314D01*
X204610149Y-89683314D02*
X204538721Y-89826171D01*
X204538721Y-89826171D02*
X204467292Y-89897600D01*
X204467292Y-89897600D02*
X204324435Y-89969028D01*
X204324435Y-89969028D02*
X204181578Y-89969028D01*
X204181578Y-89969028D02*
X204038721Y-89897600D01*
X204038721Y-89897600D02*
X203967292Y-89826171D01*
X203967292Y-89826171D02*
X203895863Y-89683314D01*
X203895863Y-89683314D02*
X203824435Y-89397600D01*
X203824435Y-89397600D02*
X203824435Y-89040457D01*
X203824435Y-89040457D02*
X203895863Y-88754742D01*
X203895863Y-88754742D02*
X203967292Y-88611885D01*
X203967292Y-88611885D02*
X204038721Y-88540457D01*
X204038721Y-88540457D02*
X204181578Y-88469028D01*
X205324434Y-89826171D02*
X205395863Y-89897600D01*
X205395863Y-89897600D02*
X205324434Y-89969028D01*
X205324434Y-89969028D02*
X205253006Y-89897600D01*
X205253006Y-89897600D02*
X205324434Y-89826171D01*
X205324434Y-89826171D02*
X205324434Y-89969028D01*
X205967292Y-88611885D02*
X206038720Y-88540457D01*
X206038720Y-88540457D02*
X206181578Y-88469028D01*
X206181578Y-88469028D02*
X206538720Y-88469028D01*
X206538720Y-88469028D02*
X206681578Y-88540457D01*
X206681578Y-88540457D02*
X206753006Y-88611885D01*
X206753006Y-88611885D02*
X206824435Y-88754742D01*
X206824435Y-88754742D02*
X206824435Y-88897600D01*
X206824435Y-88897600D02*
X206753006Y-89111885D01*
X206753006Y-89111885D02*
X205895863Y-89969028D01*
X205895863Y-89969028D02*
X206824435Y-89969028D01*
X207753006Y-88469028D02*
X207895863Y-88469028D01*
X207895863Y-88469028D02*
X208038720Y-88540457D01*
X208038720Y-88540457D02*
X208110149Y-88611885D01*
X208110149Y-88611885D02*
X208181577Y-88754742D01*
X208181577Y-88754742D02*
X208253006Y-89040457D01*
X208253006Y-89040457D02*
X208253006Y-89397600D01*
X208253006Y-89397600D02*
X208181577Y-89683314D01*
X208181577Y-89683314D02*
X208110149Y-89826171D01*
X208110149Y-89826171D02*
X208038720Y-89897600D01*
X208038720Y-89897600D02*
X207895863Y-89969028D01*
X207895863Y-89969028D02*
X207753006Y-89969028D01*
X207753006Y-89969028D02*
X207610149Y-89897600D01*
X207610149Y-89897600D02*
X207538720Y-89826171D01*
X207538720Y-89826171D02*
X207467291Y-89683314D01*
X207467291Y-89683314D02*
X207395863Y-89397600D01*
X207395863Y-89397600D02*
X207395863Y-89040457D01*
X207395863Y-89040457D02*
X207467291Y-88754742D01*
X207467291Y-88754742D02*
X207538720Y-88611885D01*
X207538720Y-88611885D02*
X207610149Y-88540457D01*
X207610149Y-88540457D02*
X207753006Y-88469028D01*
X208753005Y-88469028D02*
X209681577Y-88469028D01*
X209681577Y-88469028D02*
X209181577Y-89040457D01*
X209181577Y-89040457D02*
X209395862Y-89040457D01*
X209395862Y-89040457D02*
X209538720Y-89111885D01*
X209538720Y-89111885D02*
X209610148Y-89183314D01*
X209610148Y-89183314D02*
X209681577Y-89326171D01*
X209681577Y-89326171D02*
X209681577Y-89683314D01*
X209681577Y-89683314D02*
X209610148Y-89826171D01*
X209610148Y-89826171D02*
X209538720Y-89897600D01*
X209538720Y-89897600D02*
X209395862Y-89969028D01*
X209395862Y-89969028D02*
X208967291Y-89969028D01*
X208967291Y-89969028D02*
X208824434Y-89897600D01*
X208824434Y-89897600D02*
X208753005Y-89826171D01*
X210253005Y-88611885D02*
X210324433Y-88540457D01*
X210324433Y-88540457D02*
X210467291Y-88469028D01*
X210467291Y-88469028D02*
X210824433Y-88469028D01*
X210824433Y-88469028D02*
X210967291Y-88540457D01*
X210967291Y-88540457D02*
X211038719Y-88611885D01*
X211038719Y-88611885D02*
X211110148Y-88754742D01*
X211110148Y-88754742D02*
X211110148Y-88897600D01*
X211110148Y-88897600D02*
X211038719Y-89111885D01*
X211038719Y-89111885D02*
X210181576Y-89969028D01*
X210181576Y-89969028D02*
X211110148Y-89969028D01*
X212895861Y-89969028D02*
X212895861Y-88969028D01*
X212895861Y-89111885D02*
X212967290Y-89040457D01*
X212967290Y-89040457D02*
X213110147Y-88969028D01*
X213110147Y-88969028D02*
X213324433Y-88969028D01*
X213324433Y-88969028D02*
X213467290Y-89040457D01*
X213467290Y-89040457D02*
X213538719Y-89183314D01*
X213538719Y-89183314D02*
X213538719Y-89969028D01*
X213538719Y-89183314D02*
X213610147Y-89040457D01*
X213610147Y-89040457D02*
X213753004Y-88969028D01*
X213753004Y-88969028D02*
X213967290Y-88969028D01*
X213967290Y-88969028D02*
X214110147Y-89040457D01*
X214110147Y-89040457D02*
X214181576Y-89183314D01*
X214181576Y-89183314D02*
X214181576Y-89969028D01*
X214895861Y-89969028D02*
X214895861Y-88969028D01*
X214895861Y-89111885D02*
X214967290Y-89040457D01*
X214967290Y-89040457D02*
X215110147Y-88969028D01*
X215110147Y-88969028D02*
X215324433Y-88969028D01*
X215324433Y-88969028D02*
X215467290Y-89040457D01*
X215467290Y-89040457D02*
X215538719Y-89183314D01*
X215538719Y-89183314D02*
X215538719Y-89969028D01*
X215538719Y-89183314D02*
X215610147Y-89040457D01*
X215610147Y-89040457D02*
X215753004Y-88969028D01*
X215753004Y-88969028D02*
X215967290Y-88969028D01*
X215967290Y-88969028D02*
X216110147Y-89040457D01*
X216110147Y-89040457D02*
X216181576Y-89183314D01*
X216181576Y-89183314D02*
X216181576Y-89969028D01*
X219110147Y-88397600D02*
X217824433Y-90326171D01*
X221038719Y-88469028D02*
X221181576Y-88469028D01*
X221181576Y-88469028D02*
X221324433Y-88540457D01*
X221324433Y-88540457D02*
X221395862Y-88611885D01*
X221395862Y-88611885D02*
X221467290Y-88754742D01*
X221467290Y-88754742D02*
X221538719Y-89040457D01*
X221538719Y-89040457D02*
X221538719Y-89397600D01*
X221538719Y-89397600D02*
X221467290Y-89683314D01*
X221467290Y-89683314D02*
X221395862Y-89826171D01*
X221395862Y-89826171D02*
X221324433Y-89897600D01*
X221324433Y-89897600D02*
X221181576Y-89969028D01*
X221181576Y-89969028D02*
X221038719Y-89969028D01*
X221038719Y-89969028D02*
X220895862Y-89897600D01*
X220895862Y-89897600D02*
X220824433Y-89826171D01*
X220824433Y-89826171D02*
X220753004Y-89683314D01*
X220753004Y-89683314D02*
X220681576Y-89397600D01*
X220681576Y-89397600D02*
X220681576Y-89040457D01*
X220681576Y-89040457D02*
X220753004Y-88754742D01*
X220753004Y-88754742D02*
X220824433Y-88611885D01*
X220824433Y-88611885D02*
X220895862Y-88540457D01*
X220895862Y-88540457D02*
X221038719Y-88469028D01*
X222181575Y-89826171D02*
X222253004Y-89897600D01*
X222253004Y-89897600D02*
X222181575Y-89969028D01*
X222181575Y-89969028D02*
X222110147Y-89897600D01*
X222110147Y-89897600D02*
X222181575Y-89826171D01*
X222181575Y-89826171D02*
X222181575Y-89969028D01*
X222824433Y-88611885D02*
X222895861Y-88540457D01*
X222895861Y-88540457D02*
X223038719Y-88469028D01*
X223038719Y-88469028D02*
X223395861Y-88469028D01*
X223395861Y-88469028D02*
X223538719Y-88540457D01*
X223538719Y-88540457D02*
X223610147Y-88611885D01*
X223610147Y-88611885D02*
X223681576Y-88754742D01*
X223681576Y-88754742D02*
X223681576Y-88897600D01*
X223681576Y-88897600D02*
X223610147Y-89111885D01*
X223610147Y-89111885D02*
X222753004Y-89969028D01*
X222753004Y-89969028D02*
X223681576Y-89969028D01*
X224610147Y-88469028D02*
X224753004Y-88469028D01*
X224753004Y-88469028D02*
X224895861Y-88540457D01*
X224895861Y-88540457D02*
X224967290Y-88611885D01*
X224967290Y-88611885D02*
X225038718Y-88754742D01*
X225038718Y-88754742D02*
X225110147Y-89040457D01*
X225110147Y-89040457D02*
X225110147Y-89397600D01*
X225110147Y-89397600D02*
X225038718Y-89683314D01*
X225038718Y-89683314D02*
X224967290Y-89826171D01*
X224967290Y-89826171D02*
X224895861Y-89897600D01*
X224895861Y-89897600D02*
X224753004Y-89969028D01*
X224753004Y-89969028D02*
X224610147Y-89969028D01*
X224610147Y-89969028D02*
X224467290Y-89897600D01*
X224467290Y-89897600D02*
X224395861Y-89826171D01*
X224395861Y-89826171D02*
X224324432Y-89683314D01*
X224324432Y-89683314D02*
X224253004Y-89397600D01*
X224253004Y-89397600D02*
X224253004Y-89040457D01*
X224253004Y-89040457D02*
X224324432Y-88754742D01*
X224324432Y-88754742D02*
X224395861Y-88611885D01*
X224395861Y-88611885D02*
X224467290Y-88540457D01*
X224467290Y-88540457D02*
X224610147Y-88469028D01*
X225610146Y-88469028D02*
X226538718Y-88469028D01*
X226538718Y-88469028D02*
X226038718Y-89040457D01*
X226038718Y-89040457D02*
X226253003Y-89040457D01*
X226253003Y-89040457D02*
X226395861Y-89111885D01*
X226395861Y-89111885D02*
X226467289Y-89183314D01*
X226467289Y-89183314D02*
X226538718Y-89326171D01*
X226538718Y-89326171D02*
X226538718Y-89683314D01*
X226538718Y-89683314D02*
X226467289Y-89826171D01*
X226467289Y-89826171D02*
X226395861Y-89897600D01*
X226395861Y-89897600D02*
X226253003Y-89969028D01*
X226253003Y-89969028D02*
X225824432Y-89969028D01*
X225824432Y-89969028D02*
X225681575Y-89897600D01*
X225681575Y-89897600D02*
X225610146Y-89826171D01*
X227110146Y-88611885D02*
X227181574Y-88540457D01*
X227181574Y-88540457D02*
X227324432Y-88469028D01*
X227324432Y-88469028D02*
X227681574Y-88469028D01*
X227681574Y-88469028D02*
X227824432Y-88540457D01*
X227824432Y-88540457D02*
X227895860Y-88611885D01*
X227895860Y-88611885D02*
X227967289Y-88754742D01*
X227967289Y-88754742D02*
X227967289Y-88897600D01*
X227967289Y-88897600D02*
X227895860Y-89111885D01*
X227895860Y-89111885D02*
X227038717Y-89969028D01*
X227038717Y-89969028D02*
X227967289Y-89969028D01*
X229753002Y-89969028D02*
X229753002Y-88969028D01*
X229753002Y-89111885D02*
X229824431Y-89040457D01*
X229824431Y-89040457D02*
X229967288Y-88969028D01*
X229967288Y-88969028D02*
X230181574Y-88969028D01*
X230181574Y-88969028D02*
X230324431Y-89040457D01*
X230324431Y-89040457D02*
X230395860Y-89183314D01*
X230395860Y-89183314D02*
X230395860Y-89969028D01*
X230395860Y-89183314D02*
X230467288Y-89040457D01*
X230467288Y-89040457D02*
X230610145Y-88969028D01*
X230610145Y-88969028D02*
X230824431Y-88969028D01*
X230824431Y-88969028D02*
X230967288Y-89040457D01*
X230967288Y-89040457D02*
X231038717Y-89183314D01*
X231038717Y-89183314D02*
X231038717Y-89969028D01*
X231753002Y-89969028D02*
X231753002Y-88969028D01*
X231753002Y-89111885D02*
X231824431Y-89040457D01*
X231824431Y-89040457D02*
X231967288Y-88969028D01*
X231967288Y-88969028D02*
X232181574Y-88969028D01*
X232181574Y-88969028D02*
X232324431Y-89040457D01*
X232324431Y-89040457D02*
X232395860Y-89183314D01*
X232395860Y-89183314D02*
X232395860Y-89969028D01*
X232395860Y-89183314D02*
X232467288Y-89040457D01*
X232467288Y-89040457D02*
X232610145Y-88969028D01*
X232610145Y-88969028D02*
X232824431Y-88969028D01*
X232824431Y-88969028D02*
X232967288Y-89040457D01*
X232967288Y-89040457D02*
X233038717Y-89183314D01*
X233038717Y-89183314D02*
X233038717Y-89969028D01*
X262995858Y-97883028D02*
X262995858Y-96383028D01*
X262995858Y-96383028D02*
X263853001Y-97883028D01*
X263853001Y-97883028D02*
X263853001Y-96383028D01*
X264781573Y-97883028D02*
X264638716Y-97811600D01*
X264638716Y-97811600D02*
X264567287Y-97740171D01*
X264567287Y-97740171D02*
X264495859Y-97597314D01*
X264495859Y-97597314D02*
X264495859Y-97168742D01*
X264495859Y-97168742D02*
X264567287Y-97025885D01*
X264567287Y-97025885D02*
X264638716Y-96954457D01*
X264638716Y-96954457D02*
X264781573Y-96883028D01*
X264781573Y-96883028D02*
X264995859Y-96883028D01*
X264995859Y-96883028D02*
X265138716Y-96954457D01*
X265138716Y-96954457D02*
X265210145Y-97025885D01*
X265210145Y-97025885D02*
X265281573Y-97168742D01*
X265281573Y-97168742D02*
X265281573Y-97597314D01*
X265281573Y-97597314D02*
X265210145Y-97740171D01*
X265210145Y-97740171D02*
X265138716Y-97811600D01*
X265138716Y-97811600D02*
X264995859Y-97883028D01*
X264995859Y-97883028D02*
X264781573Y-97883028D01*
X172095863Y-81912171D02*
X172024435Y-81983600D01*
X172024435Y-81983600D02*
X171810149Y-82055028D01*
X171810149Y-82055028D02*
X171667292Y-82055028D01*
X171667292Y-82055028D02*
X171453006Y-81983600D01*
X171453006Y-81983600D02*
X171310149Y-81840742D01*
X171310149Y-81840742D02*
X171238720Y-81697885D01*
X171238720Y-81697885D02*
X171167292Y-81412171D01*
X171167292Y-81412171D02*
X171167292Y-81197885D01*
X171167292Y-81197885D02*
X171238720Y-80912171D01*
X171238720Y-80912171D02*
X171310149Y-80769314D01*
X171310149Y-80769314D02*
X171453006Y-80626457D01*
X171453006Y-80626457D02*
X171667292Y-80555028D01*
X171667292Y-80555028D02*
X171810149Y-80555028D01*
X171810149Y-80555028D02*
X172024435Y-80626457D01*
X172024435Y-80626457D02*
X172095863Y-80697885D01*
X172953006Y-82055028D02*
X172810149Y-81983600D01*
X172810149Y-81983600D02*
X172738720Y-81912171D01*
X172738720Y-81912171D02*
X172667292Y-81769314D01*
X172667292Y-81769314D02*
X172667292Y-81340742D01*
X172667292Y-81340742D02*
X172738720Y-81197885D01*
X172738720Y-81197885D02*
X172810149Y-81126457D01*
X172810149Y-81126457D02*
X172953006Y-81055028D01*
X172953006Y-81055028D02*
X173167292Y-81055028D01*
X173167292Y-81055028D02*
X173310149Y-81126457D01*
X173310149Y-81126457D02*
X173381578Y-81197885D01*
X173381578Y-81197885D02*
X173453006Y-81340742D01*
X173453006Y-81340742D02*
X173453006Y-81769314D01*
X173453006Y-81769314D02*
X173381578Y-81912171D01*
X173381578Y-81912171D02*
X173310149Y-81983600D01*
X173310149Y-81983600D02*
X173167292Y-82055028D01*
X173167292Y-82055028D02*
X172953006Y-82055028D01*
X174095863Y-81055028D02*
X174095863Y-82555028D01*
X174095863Y-81126457D02*
X174238721Y-81055028D01*
X174238721Y-81055028D02*
X174524435Y-81055028D01*
X174524435Y-81055028D02*
X174667292Y-81126457D01*
X174667292Y-81126457D02*
X174738721Y-81197885D01*
X174738721Y-81197885D02*
X174810149Y-81340742D01*
X174810149Y-81340742D02*
X174810149Y-81769314D01*
X174810149Y-81769314D02*
X174738721Y-81912171D01*
X174738721Y-81912171D02*
X174667292Y-81983600D01*
X174667292Y-81983600D02*
X174524435Y-82055028D01*
X174524435Y-82055028D02*
X174238721Y-82055028D01*
X174238721Y-82055028D02*
X174095863Y-81983600D01*
X175453006Y-81055028D02*
X175453006Y-82555028D01*
X175453006Y-81126457D02*
X175595864Y-81055028D01*
X175595864Y-81055028D02*
X175881578Y-81055028D01*
X175881578Y-81055028D02*
X176024435Y-81126457D01*
X176024435Y-81126457D02*
X176095864Y-81197885D01*
X176095864Y-81197885D02*
X176167292Y-81340742D01*
X176167292Y-81340742D02*
X176167292Y-81769314D01*
X176167292Y-81769314D02*
X176095864Y-81912171D01*
X176095864Y-81912171D02*
X176024435Y-81983600D01*
X176024435Y-81983600D02*
X175881578Y-82055028D01*
X175881578Y-82055028D02*
X175595864Y-82055028D01*
X175595864Y-82055028D02*
X175453006Y-81983600D01*
X177381578Y-81983600D02*
X177238721Y-82055028D01*
X177238721Y-82055028D02*
X176953007Y-82055028D01*
X176953007Y-82055028D02*
X176810149Y-81983600D01*
X176810149Y-81983600D02*
X176738721Y-81840742D01*
X176738721Y-81840742D02*
X176738721Y-81269314D01*
X176738721Y-81269314D02*
X176810149Y-81126457D01*
X176810149Y-81126457D02*
X176953007Y-81055028D01*
X176953007Y-81055028D02*
X177238721Y-81055028D01*
X177238721Y-81055028D02*
X177381578Y-81126457D01*
X177381578Y-81126457D02*
X177453007Y-81269314D01*
X177453007Y-81269314D02*
X177453007Y-81412171D01*
X177453007Y-81412171D02*
X176738721Y-81555028D01*
X178095863Y-82055028D02*
X178095863Y-81055028D01*
X178095863Y-81340742D02*
X178167292Y-81197885D01*
X178167292Y-81197885D02*
X178238721Y-81126457D01*
X178238721Y-81126457D02*
X178381578Y-81055028D01*
X178381578Y-81055028D02*
X178524435Y-81055028D01*
X180881577Y-82055028D02*
X180167291Y-82055028D01*
X180167291Y-82055028D02*
X180167291Y-80555028D01*
X182024435Y-82055028D02*
X182024435Y-81269314D01*
X182024435Y-81269314D02*
X181953006Y-81126457D01*
X181953006Y-81126457D02*
X181810149Y-81055028D01*
X181810149Y-81055028D02*
X181524435Y-81055028D01*
X181524435Y-81055028D02*
X181381577Y-81126457D01*
X182024435Y-81983600D02*
X181881577Y-82055028D01*
X181881577Y-82055028D02*
X181524435Y-82055028D01*
X181524435Y-82055028D02*
X181381577Y-81983600D01*
X181381577Y-81983600D02*
X181310149Y-81840742D01*
X181310149Y-81840742D02*
X181310149Y-81697885D01*
X181310149Y-81697885D02*
X181381577Y-81555028D01*
X181381577Y-81555028D02*
X181524435Y-81483600D01*
X181524435Y-81483600D02*
X181881577Y-81483600D01*
X181881577Y-81483600D02*
X182024435Y-81412171D01*
X182595863Y-81055028D02*
X182953006Y-82055028D01*
X183310149Y-81055028D02*
X182953006Y-82055028D01*
X182953006Y-82055028D02*
X182810149Y-82412171D01*
X182810149Y-82412171D02*
X182738720Y-82483600D01*
X182738720Y-82483600D02*
X182595863Y-82555028D01*
X184453006Y-81983600D02*
X184310149Y-82055028D01*
X184310149Y-82055028D02*
X184024435Y-82055028D01*
X184024435Y-82055028D02*
X183881577Y-81983600D01*
X183881577Y-81983600D02*
X183810149Y-81840742D01*
X183810149Y-81840742D02*
X183810149Y-81269314D01*
X183810149Y-81269314D02*
X183881577Y-81126457D01*
X183881577Y-81126457D02*
X184024435Y-81055028D01*
X184024435Y-81055028D02*
X184310149Y-81055028D01*
X184310149Y-81055028D02*
X184453006Y-81126457D01*
X184453006Y-81126457D02*
X184524435Y-81269314D01*
X184524435Y-81269314D02*
X184524435Y-81412171D01*
X184524435Y-81412171D02*
X183810149Y-81555028D01*
X185167291Y-82055028D02*
X185167291Y-81055028D01*
X185167291Y-81340742D02*
X185238720Y-81197885D01*
X185238720Y-81197885D02*
X185310149Y-81126457D01*
X185310149Y-81126457D02*
X185453006Y-81055028D01*
X185453006Y-81055028D02*
X185595863Y-81055028D01*
X188095862Y-81912171D02*
X188024434Y-81983600D01*
X188024434Y-81983600D02*
X187810148Y-82055028D01*
X187810148Y-82055028D02*
X187667291Y-82055028D01*
X187667291Y-82055028D02*
X187453005Y-81983600D01*
X187453005Y-81983600D02*
X187310148Y-81840742D01*
X187310148Y-81840742D02*
X187238719Y-81697885D01*
X187238719Y-81697885D02*
X187167291Y-81412171D01*
X187167291Y-81412171D02*
X187167291Y-81197885D01*
X187167291Y-81197885D02*
X187238719Y-80912171D01*
X187238719Y-80912171D02*
X187310148Y-80769314D01*
X187310148Y-80769314D02*
X187453005Y-80626457D01*
X187453005Y-80626457D02*
X187667291Y-80555028D01*
X187667291Y-80555028D02*
X187810148Y-80555028D01*
X187810148Y-80555028D02*
X188024434Y-80626457D01*
X188024434Y-80626457D02*
X188095862Y-80697885D01*
X188953005Y-82055028D02*
X188810148Y-81983600D01*
X188810148Y-81983600D02*
X188738719Y-81912171D01*
X188738719Y-81912171D02*
X188667291Y-81769314D01*
X188667291Y-81769314D02*
X188667291Y-81340742D01*
X188667291Y-81340742D02*
X188738719Y-81197885D01*
X188738719Y-81197885D02*
X188810148Y-81126457D01*
X188810148Y-81126457D02*
X188953005Y-81055028D01*
X188953005Y-81055028D02*
X189167291Y-81055028D01*
X189167291Y-81055028D02*
X189310148Y-81126457D01*
X189310148Y-81126457D02*
X189381577Y-81197885D01*
X189381577Y-81197885D02*
X189453005Y-81340742D01*
X189453005Y-81340742D02*
X189453005Y-81769314D01*
X189453005Y-81769314D02*
X189381577Y-81912171D01*
X189381577Y-81912171D02*
X189310148Y-81983600D01*
X189310148Y-81983600D02*
X189167291Y-82055028D01*
X189167291Y-82055028D02*
X188953005Y-82055028D01*
X190738720Y-81055028D02*
X190738720Y-82055028D01*
X190095862Y-81055028D02*
X190095862Y-81840742D01*
X190095862Y-81840742D02*
X190167291Y-81983600D01*
X190167291Y-81983600D02*
X190310148Y-82055028D01*
X190310148Y-82055028D02*
X190524434Y-82055028D01*
X190524434Y-82055028D02*
X190667291Y-81983600D01*
X190667291Y-81983600D02*
X190738720Y-81912171D01*
X191453005Y-81055028D02*
X191453005Y-82055028D01*
X191453005Y-81197885D02*
X191524434Y-81126457D01*
X191524434Y-81126457D02*
X191667291Y-81055028D01*
X191667291Y-81055028D02*
X191881577Y-81055028D01*
X191881577Y-81055028D02*
X192024434Y-81126457D01*
X192024434Y-81126457D02*
X192095863Y-81269314D01*
X192095863Y-81269314D02*
X192095863Y-82055028D01*
X192595863Y-81055028D02*
X193167291Y-81055028D01*
X192810148Y-80555028D02*
X192810148Y-81840742D01*
X192810148Y-81840742D02*
X192881577Y-81983600D01*
X192881577Y-81983600D02*
X193024434Y-82055028D01*
X193024434Y-82055028D02*
X193167291Y-82055028D01*
X193667291Y-81912171D02*
X193738720Y-81983600D01*
X193738720Y-81983600D02*
X193667291Y-82055028D01*
X193667291Y-82055028D02*
X193595863Y-81983600D01*
X193595863Y-81983600D02*
X193667291Y-81912171D01*
X193667291Y-81912171D02*
X193667291Y-82055028D01*
X193667291Y-81126457D02*
X193738720Y-81197885D01*
X193738720Y-81197885D02*
X193667291Y-81269314D01*
X193667291Y-81269314D02*
X193595863Y-81197885D01*
X193595863Y-81197885D02*
X193667291Y-81126457D01*
X193667291Y-81126457D02*
X193667291Y-81269314D01*
X263781573Y-82055028D02*
X262924430Y-82055028D01*
X263353001Y-82055028D02*
X263353001Y-80555028D01*
X263353001Y-80555028D02*
X263210144Y-80769314D01*
X263210144Y-80769314D02*
X263067287Y-80912171D01*
X263067287Y-80912171D02*
X262924430Y-80983600D01*
X264424429Y-81912171D02*
X264495858Y-81983600D01*
X264495858Y-81983600D02*
X264424429Y-82055028D01*
X264424429Y-82055028D02*
X264353001Y-81983600D01*
X264353001Y-81983600D02*
X264424429Y-81912171D01*
X264424429Y-81912171D02*
X264424429Y-82055028D01*
X265781573Y-80555028D02*
X265495858Y-80555028D01*
X265495858Y-80555028D02*
X265353001Y-80626457D01*
X265353001Y-80626457D02*
X265281573Y-80697885D01*
X265281573Y-80697885D02*
X265138715Y-80912171D01*
X265138715Y-80912171D02*
X265067287Y-81197885D01*
X265067287Y-81197885D02*
X265067287Y-81769314D01*
X265067287Y-81769314D02*
X265138715Y-81912171D01*
X265138715Y-81912171D02*
X265210144Y-81983600D01*
X265210144Y-81983600D02*
X265353001Y-82055028D01*
X265353001Y-82055028D02*
X265638715Y-82055028D01*
X265638715Y-82055028D02*
X265781573Y-81983600D01*
X265781573Y-81983600D02*
X265853001Y-81912171D01*
X265853001Y-81912171D02*
X265924430Y-81769314D01*
X265924430Y-81769314D02*
X265924430Y-81412171D01*
X265924430Y-81412171D02*
X265853001Y-81269314D01*
X265853001Y-81269314D02*
X265781573Y-81197885D01*
X265781573Y-81197885D02*
X265638715Y-81126457D01*
X265638715Y-81126457D02*
X265353001Y-81126457D01*
X265353001Y-81126457D02*
X265210144Y-81197885D01*
X265210144Y-81197885D02*
X265138715Y-81269314D01*
X265138715Y-81269314D02*
X265067287Y-81412171D01*
X266853001Y-80555028D02*
X266995858Y-80555028D01*
X266995858Y-80555028D02*
X267138715Y-80626457D01*
X267138715Y-80626457D02*
X267210144Y-80697885D01*
X267210144Y-80697885D02*
X267281572Y-80840742D01*
X267281572Y-80840742D02*
X267353001Y-81126457D01*
X267353001Y-81126457D02*
X267353001Y-81483600D01*
X267353001Y-81483600D02*
X267281572Y-81769314D01*
X267281572Y-81769314D02*
X267210144Y-81912171D01*
X267210144Y-81912171D02*
X267138715Y-81983600D01*
X267138715Y-81983600D02*
X266995858Y-82055028D01*
X266995858Y-82055028D02*
X266853001Y-82055028D01*
X266853001Y-82055028D02*
X266710144Y-81983600D01*
X266710144Y-81983600D02*
X266638715Y-81912171D01*
X266638715Y-81912171D02*
X266567286Y-81769314D01*
X266567286Y-81769314D02*
X266495858Y-81483600D01*
X266495858Y-81483600D02*
X266495858Y-81126457D01*
X266495858Y-81126457D02*
X266567286Y-80840742D01*
X266567286Y-80840742D02*
X266638715Y-80697885D01*
X266638715Y-80697885D02*
X266710144Y-80626457D01*
X266710144Y-80626457D02*
X266853001Y-80555028D01*
X268281572Y-80555028D02*
X268424429Y-80555028D01*
X268424429Y-80555028D02*
X268567286Y-80626457D01*
X268567286Y-80626457D02*
X268638715Y-80697885D01*
X268638715Y-80697885D02*
X268710143Y-80840742D01*
X268710143Y-80840742D02*
X268781572Y-81126457D01*
X268781572Y-81126457D02*
X268781572Y-81483600D01*
X268781572Y-81483600D02*
X268710143Y-81769314D01*
X268710143Y-81769314D02*
X268638715Y-81912171D01*
X268638715Y-81912171D02*
X268567286Y-81983600D01*
X268567286Y-81983600D02*
X268424429Y-82055028D01*
X268424429Y-82055028D02*
X268281572Y-82055028D01*
X268281572Y-82055028D02*
X268138715Y-81983600D01*
X268138715Y-81983600D02*
X268067286Y-81912171D01*
X268067286Y-81912171D02*
X267995857Y-81769314D01*
X267995857Y-81769314D02*
X267924429Y-81483600D01*
X267924429Y-81483600D02*
X267924429Y-81126457D01*
X267924429Y-81126457D02*
X267995857Y-80840742D01*
X267995857Y-80840742D02*
X268067286Y-80697885D01*
X268067286Y-80697885D02*
X268138715Y-80626457D01*
X268138715Y-80626457D02*
X268281572Y-80555028D01*
X269710143Y-80555028D02*
X269853000Y-80555028D01*
X269853000Y-80555028D02*
X269995857Y-80626457D01*
X269995857Y-80626457D02*
X270067286Y-80697885D01*
X270067286Y-80697885D02*
X270138714Y-80840742D01*
X270138714Y-80840742D02*
X270210143Y-81126457D01*
X270210143Y-81126457D02*
X270210143Y-81483600D01*
X270210143Y-81483600D02*
X270138714Y-81769314D01*
X270138714Y-81769314D02*
X270067286Y-81912171D01*
X270067286Y-81912171D02*
X269995857Y-81983600D01*
X269995857Y-81983600D02*
X269853000Y-82055028D01*
X269853000Y-82055028D02*
X269710143Y-82055028D01*
X269710143Y-82055028D02*
X269567286Y-81983600D01*
X269567286Y-81983600D02*
X269495857Y-81912171D01*
X269495857Y-81912171D02*
X269424428Y-81769314D01*
X269424428Y-81769314D02*
X269353000Y-81483600D01*
X269353000Y-81483600D02*
X269353000Y-81126457D01*
X269353000Y-81126457D02*
X269424428Y-80840742D01*
X269424428Y-80840742D02*
X269495857Y-80697885D01*
X269495857Y-80697885D02*
X269567286Y-80626457D01*
X269567286Y-80626457D02*
X269710143Y-80555028D01*
X271995856Y-82055028D02*
X271995856Y-81055028D01*
X271995856Y-81197885D02*
X272067285Y-81126457D01*
X272067285Y-81126457D02*
X272210142Y-81055028D01*
X272210142Y-81055028D02*
X272424428Y-81055028D01*
X272424428Y-81055028D02*
X272567285Y-81126457D01*
X272567285Y-81126457D02*
X272638714Y-81269314D01*
X272638714Y-81269314D02*
X272638714Y-82055028D01*
X272638714Y-81269314D02*
X272710142Y-81126457D01*
X272710142Y-81126457D02*
X272852999Y-81055028D01*
X272852999Y-81055028D02*
X273067285Y-81055028D01*
X273067285Y-81055028D02*
X273210142Y-81126457D01*
X273210142Y-81126457D02*
X273281571Y-81269314D01*
X273281571Y-81269314D02*
X273281571Y-82055028D01*
X273995856Y-82055028D02*
X273995856Y-81055028D01*
X273995856Y-81197885D02*
X274067285Y-81126457D01*
X274067285Y-81126457D02*
X274210142Y-81055028D01*
X274210142Y-81055028D02*
X274424428Y-81055028D01*
X274424428Y-81055028D02*
X274567285Y-81126457D01*
X274567285Y-81126457D02*
X274638714Y-81269314D01*
X274638714Y-81269314D02*
X274638714Y-82055028D01*
X274638714Y-81269314D02*
X274710142Y-81126457D01*
X274710142Y-81126457D02*
X274852999Y-81055028D01*
X274852999Y-81055028D02*
X275067285Y-81055028D01*
X275067285Y-81055028D02*
X275210142Y-81126457D01*
X275210142Y-81126457D02*
X275281571Y-81269314D01*
X275281571Y-81269314D02*
X275281571Y-82055028D01*
X172095863Y-93783171D02*
X172024435Y-93854600D01*
X172024435Y-93854600D02*
X171810149Y-93926028D01*
X171810149Y-93926028D02*
X171667292Y-93926028D01*
X171667292Y-93926028D02*
X171453006Y-93854600D01*
X171453006Y-93854600D02*
X171310149Y-93711742D01*
X171310149Y-93711742D02*
X171238720Y-93568885D01*
X171238720Y-93568885D02*
X171167292Y-93283171D01*
X171167292Y-93283171D02*
X171167292Y-93068885D01*
X171167292Y-93068885D02*
X171238720Y-92783171D01*
X171238720Y-92783171D02*
X171310149Y-92640314D01*
X171310149Y-92640314D02*
X171453006Y-92497457D01*
X171453006Y-92497457D02*
X171667292Y-92426028D01*
X171667292Y-92426028D02*
X171810149Y-92426028D01*
X171810149Y-92426028D02*
X172024435Y-92497457D01*
X172024435Y-92497457D02*
X172095863Y-92568885D01*
X172953006Y-93926028D02*
X172810149Y-93854600D01*
X172810149Y-93854600D02*
X172738720Y-93783171D01*
X172738720Y-93783171D02*
X172667292Y-93640314D01*
X172667292Y-93640314D02*
X172667292Y-93211742D01*
X172667292Y-93211742D02*
X172738720Y-93068885D01*
X172738720Y-93068885D02*
X172810149Y-92997457D01*
X172810149Y-92997457D02*
X172953006Y-92926028D01*
X172953006Y-92926028D02*
X173167292Y-92926028D01*
X173167292Y-92926028D02*
X173310149Y-92997457D01*
X173310149Y-92997457D02*
X173381578Y-93068885D01*
X173381578Y-93068885D02*
X173453006Y-93211742D01*
X173453006Y-93211742D02*
X173453006Y-93640314D01*
X173453006Y-93640314D02*
X173381578Y-93783171D01*
X173381578Y-93783171D02*
X173310149Y-93854600D01*
X173310149Y-93854600D02*
X173167292Y-93926028D01*
X173167292Y-93926028D02*
X172953006Y-93926028D01*
X174095863Y-92926028D02*
X174095863Y-94426028D01*
X174095863Y-92997457D02*
X174238721Y-92926028D01*
X174238721Y-92926028D02*
X174524435Y-92926028D01*
X174524435Y-92926028D02*
X174667292Y-92997457D01*
X174667292Y-92997457D02*
X174738721Y-93068885D01*
X174738721Y-93068885D02*
X174810149Y-93211742D01*
X174810149Y-93211742D02*
X174810149Y-93640314D01*
X174810149Y-93640314D02*
X174738721Y-93783171D01*
X174738721Y-93783171D02*
X174667292Y-93854600D01*
X174667292Y-93854600D02*
X174524435Y-93926028D01*
X174524435Y-93926028D02*
X174238721Y-93926028D01*
X174238721Y-93926028D02*
X174095863Y-93854600D01*
X175453006Y-92926028D02*
X175453006Y-94426028D01*
X175453006Y-92997457D02*
X175595864Y-92926028D01*
X175595864Y-92926028D02*
X175881578Y-92926028D01*
X175881578Y-92926028D02*
X176024435Y-92997457D01*
X176024435Y-92997457D02*
X176095864Y-93068885D01*
X176095864Y-93068885D02*
X176167292Y-93211742D01*
X176167292Y-93211742D02*
X176167292Y-93640314D01*
X176167292Y-93640314D02*
X176095864Y-93783171D01*
X176095864Y-93783171D02*
X176024435Y-93854600D01*
X176024435Y-93854600D02*
X175881578Y-93926028D01*
X175881578Y-93926028D02*
X175595864Y-93926028D01*
X175595864Y-93926028D02*
X175453006Y-93854600D01*
X177381578Y-93854600D02*
X177238721Y-93926028D01*
X177238721Y-93926028D02*
X176953007Y-93926028D01*
X176953007Y-93926028D02*
X176810149Y-93854600D01*
X176810149Y-93854600D02*
X176738721Y-93711742D01*
X176738721Y-93711742D02*
X176738721Y-93140314D01*
X176738721Y-93140314D02*
X176810149Y-92997457D01*
X176810149Y-92997457D02*
X176953007Y-92926028D01*
X176953007Y-92926028D02*
X177238721Y-92926028D01*
X177238721Y-92926028D02*
X177381578Y-92997457D01*
X177381578Y-92997457D02*
X177453007Y-93140314D01*
X177453007Y-93140314D02*
X177453007Y-93283171D01*
X177453007Y-93283171D02*
X176738721Y-93426028D01*
X178095863Y-93926028D02*
X178095863Y-92926028D01*
X178095863Y-93211742D02*
X178167292Y-93068885D01*
X178167292Y-93068885D02*
X178238721Y-92997457D01*
X178238721Y-92997457D02*
X178381578Y-92926028D01*
X178381578Y-92926028D02*
X178524435Y-92926028D01*
X180667291Y-93140314D02*
X180167291Y-93140314D01*
X180167291Y-93926028D02*
X180167291Y-92426028D01*
X180167291Y-92426028D02*
X180881577Y-92426028D01*
X181453005Y-93926028D02*
X181453005Y-92926028D01*
X181453005Y-92426028D02*
X181381577Y-92497457D01*
X181381577Y-92497457D02*
X181453005Y-92568885D01*
X181453005Y-92568885D02*
X181524434Y-92497457D01*
X181524434Y-92497457D02*
X181453005Y-92426028D01*
X181453005Y-92426028D02*
X181453005Y-92568885D01*
X182167291Y-92926028D02*
X182167291Y-93926028D01*
X182167291Y-93068885D02*
X182238720Y-92997457D01*
X182238720Y-92997457D02*
X182381577Y-92926028D01*
X182381577Y-92926028D02*
X182595863Y-92926028D01*
X182595863Y-92926028D02*
X182738720Y-92997457D01*
X182738720Y-92997457D02*
X182810149Y-93140314D01*
X182810149Y-93140314D02*
X182810149Y-93926028D01*
X183524434Y-93926028D02*
X183524434Y-92926028D01*
X183524434Y-92426028D02*
X183453006Y-92497457D01*
X183453006Y-92497457D02*
X183524434Y-92568885D01*
X183524434Y-92568885D02*
X183595863Y-92497457D01*
X183595863Y-92497457D02*
X183524434Y-92426028D01*
X183524434Y-92426028D02*
X183524434Y-92568885D01*
X184167292Y-93854600D02*
X184310149Y-93926028D01*
X184310149Y-93926028D02*
X184595863Y-93926028D01*
X184595863Y-93926028D02*
X184738720Y-93854600D01*
X184738720Y-93854600D02*
X184810149Y-93711742D01*
X184810149Y-93711742D02*
X184810149Y-93640314D01*
X184810149Y-93640314D02*
X184738720Y-93497457D01*
X184738720Y-93497457D02*
X184595863Y-93426028D01*
X184595863Y-93426028D02*
X184381578Y-93426028D01*
X184381578Y-93426028D02*
X184238720Y-93354600D01*
X184238720Y-93354600D02*
X184167292Y-93211742D01*
X184167292Y-93211742D02*
X184167292Y-93140314D01*
X184167292Y-93140314D02*
X184238720Y-92997457D01*
X184238720Y-92997457D02*
X184381578Y-92926028D01*
X184381578Y-92926028D02*
X184595863Y-92926028D01*
X184595863Y-92926028D02*
X184738720Y-92997457D01*
X185453006Y-93926028D02*
X185453006Y-92426028D01*
X186095864Y-93926028D02*
X186095864Y-93140314D01*
X186095864Y-93140314D02*
X186024435Y-92997457D01*
X186024435Y-92997457D02*
X185881578Y-92926028D01*
X185881578Y-92926028D02*
X185667292Y-92926028D01*
X185667292Y-92926028D02*
X185524435Y-92997457D01*
X185524435Y-92997457D02*
X185453006Y-93068885D01*
X186810149Y-93783171D02*
X186881578Y-93854600D01*
X186881578Y-93854600D02*
X186810149Y-93926028D01*
X186810149Y-93926028D02*
X186738721Y-93854600D01*
X186738721Y-93854600D02*
X186810149Y-93783171D01*
X186810149Y-93783171D02*
X186810149Y-93926028D01*
X186810149Y-92997457D02*
X186881578Y-93068885D01*
X186881578Y-93068885D02*
X186810149Y-93140314D01*
X186810149Y-93140314D02*
X186738721Y-93068885D01*
X186738721Y-93068885D02*
X186810149Y-92997457D01*
X186810149Y-92997457D02*
X186810149Y-93140314D01*
X203824435Y-80697885D02*
X203895863Y-80626457D01*
X203895863Y-80626457D02*
X204038721Y-80555028D01*
X204038721Y-80555028D02*
X204395863Y-80555028D01*
X204395863Y-80555028D02*
X204538721Y-80626457D01*
X204538721Y-80626457D02*
X204610149Y-80697885D01*
X204610149Y-80697885D02*
X204681578Y-80840742D01*
X204681578Y-80840742D02*
X204681578Y-80983600D01*
X204681578Y-80983600D02*
X204610149Y-81197885D01*
X204610149Y-81197885D02*
X203753006Y-82055028D01*
X203753006Y-82055028D02*
X204681578Y-82055028D01*
X238553001Y-81269314D02*
X238767287Y-81340742D01*
X238767287Y-81340742D02*
X238838716Y-81412171D01*
X238838716Y-81412171D02*
X238910144Y-81555028D01*
X238910144Y-81555028D02*
X238910144Y-81769314D01*
X238910144Y-81769314D02*
X238838716Y-81912171D01*
X238838716Y-81912171D02*
X238767287Y-81983600D01*
X238767287Y-81983600D02*
X238624430Y-82055028D01*
X238624430Y-82055028D02*
X238053001Y-82055028D01*
X238053001Y-82055028D02*
X238053001Y-80555028D01*
X238053001Y-80555028D02*
X238553001Y-80555028D01*
X238553001Y-80555028D02*
X238695859Y-80626457D01*
X238695859Y-80626457D02*
X238767287Y-80697885D01*
X238767287Y-80697885D02*
X238838716Y-80840742D01*
X238838716Y-80840742D02*
X238838716Y-80983600D01*
X238838716Y-80983600D02*
X238767287Y-81126457D01*
X238767287Y-81126457D02*
X238695859Y-81197885D01*
X238695859Y-81197885D02*
X238553001Y-81269314D01*
X238553001Y-81269314D02*
X238053001Y-81269314D01*
X239767287Y-82055028D02*
X239624430Y-81983600D01*
X239624430Y-81983600D02*
X239553001Y-81912171D01*
X239553001Y-81912171D02*
X239481573Y-81769314D01*
X239481573Y-81769314D02*
X239481573Y-81340742D01*
X239481573Y-81340742D02*
X239553001Y-81197885D01*
X239553001Y-81197885D02*
X239624430Y-81126457D01*
X239624430Y-81126457D02*
X239767287Y-81055028D01*
X239767287Y-81055028D02*
X239981573Y-81055028D01*
X239981573Y-81055028D02*
X240124430Y-81126457D01*
X240124430Y-81126457D02*
X240195859Y-81197885D01*
X240195859Y-81197885D02*
X240267287Y-81340742D01*
X240267287Y-81340742D02*
X240267287Y-81769314D01*
X240267287Y-81769314D02*
X240195859Y-81912171D01*
X240195859Y-81912171D02*
X240124430Y-81983600D01*
X240124430Y-81983600D02*
X239981573Y-82055028D01*
X239981573Y-82055028D02*
X239767287Y-82055028D01*
X241553002Y-82055028D02*
X241553002Y-81269314D01*
X241553002Y-81269314D02*
X241481573Y-81126457D01*
X241481573Y-81126457D02*
X241338716Y-81055028D01*
X241338716Y-81055028D02*
X241053002Y-81055028D01*
X241053002Y-81055028D02*
X240910144Y-81126457D01*
X241553002Y-81983600D02*
X241410144Y-82055028D01*
X241410144Y-82055028D02*
X241053002Y-82055028D01*
X241053002Y-82055028D02*
X240910144Y-81983600D01*
X240910144Y-81983600D02*
X240838716Y-81840742D01*
X240838716Y-81840742D02*
X240838716Y-81697885D01*
X240838716Y-81697885D02*
X240910144Y-81555028D01*
X240910144Y-81555028D02*
X241053002Y-81483600D01*
X241053002Y-81483600D02*
X241410144Y-81483600D01*
X241410144Y-81483600D02*
X241553002Y-81412171D01*
X242267287Y-82055028D02*
X242267287Y-81055028D01*
X242267287Y-81340742D02*
X242338716Y-81197885D01*
X242338716Y-81197885D02*
X242410145Y-81126457D01*
X242410145Y-81126457D02*
X242553002Y-81055028D01*
X242553002Y-81055028D02*
X242695859Y-81055028D01*
X243838716Y-82055028D02*
X243838716Y-80555028D01*
X243838716Y-81983600D02*
X243695858Y-82055028D01*
X243695858Y-82055028D02*
X243410144Y-82055028D01*
X243410144Y-82055028D02*
X243267287Y-81983600D01*
X243267287Y-81983600D02*
X243195858Y-81912171D01*
X243195858Y-81912171D02*
X243124430Y-81769314D01*
X243124430Y-81769314D02*
X243124430Y-81340742D01*
X243124430Y-81340742D02*
X243195858Y-81197885D01*
X243195858Y-81197885D02*
X243267287Y-81126457D01*
X243267287Y-81126457D02*
X243410144Y-81055028D01*
X243410144Y-81055028D02*
X243695858Y-81055028D01*
X243695858Y-81055028D02*
X243838716Y-81126457D01*
X245481573Y-80555028D02*
X246338716Y-80555028D01*
X245910144Y-82055028D02*
X245910144Y-80555028D01*
X246838715Y-82055028D02*
X246838715Y-80555028D01*
X247481573Y-82055028D02*
X247481573Y-81269314D01*
X247481573Y-81269314D02*
X247410144Y-81126457D01*
X247410144Y-81126457D02*
X247267287Y-81055028D01*
X247267287Y-81055028D02*
X247053001Y-81055028D01*
X247053001Y-81055028D02*
X246910144Y-81126457D01*
X246910144Y-81126457D02*
X246838715Y-81197885D01*
X248195858Y-82055028D02*
X248195858Y-81055028D01*
X248195858Y-80555028D02*
X248124430Y-80626457D01*
X248124430Y-80626457D02*
X248195858Y-80697885D01*
X248195858Y-80697885D02*
X248267287Y-80626457D01*
X248267287Y-80626457D02*
X248195858Y-80555028D01*
X248195858Y-80555028D02*
X248195858Y-80697885D01*
X249553002Y-81983600D02*
X249410144Y-82055028D01*
X249410144Y-82055028D02*
X249124430Y-82055028D01*
X249124430Y-82055028D02*
X248981573Y-81983600D01*
X248981573Y-81983600D02*
X248910144Y-81912171D01*
X248910144Y-81912171D02*
X248838716Y-81769314D01*
X248838716Y-81769314D02*
X248838716Y-81340742D01*
X248838716Y-81340742D02*
X248910144Y-81197885D01*
X248910144Y-81197885D02*
X248981573Y-81126457D01*
X248981573Y-81126457D02*
X249124430Y-81055028D01*
X249124430Y-81055028D02*
X249410144Y-81055028D01*
X249410144Y-81055028D02*
X249553002Y-81126457D01*
X250195858Y-82055028D02*
X250195858Y-80555028D01*
X250338716Y-81483600D02*
X250767287Y-82055028D01*
X250767287Y-81055028D02*
X250195858Y-81626457D01*
X251410144Y-81055028D02*
X251410144Y-82055028D01*
X251410144Y-81197885D02*
X251481573Y-81126457D01*
X251481573Y-81126457D02*
X251624430Y-81055028D01*
X251624430Y-81055028D02*
X251838716Y-81055028D01*
X251838716Y-81055028D02*
X251981573Y-81126457D01*
X251981573Y-81126457D02*
X252053002Y-81269314D01*
X252053002Y-81269314D02*
X252053002Y-82055028D01*
X253338716Y-81983600D02*
X253195859Y-82055028D01*
X253195859Y-82055028D02*
X252910145Y-82055028D01*
X252910145Y-82055028D02*
X252767287Y-81983600D01*
X252767287Y-81983600D02*
X252695859Y-81840742D01*
X252695859Y-81840742D02*
X252695859Y-81269314D01*
X252695859Y-81269314D02*
X252767287Y-81126457D01*
X252767287Y-81126457D02*
X252910145Y-81055028D01*
X252910145Y-81055028D02*
X253195859Y-81055028D01*
X253195859Y-81055028D02*
X253338716Y-81126457D01*
X253338716Y-81126457D02*
X253410145Y-81269314D01*
X253410145Y-81269314D02*
X253410145Y-81412171D01*
X253410145Y-81412171D02*
X252695859Y-81555028D01*
X253981573Y-81983600D02*
X254124430Y-82055028D01*
X254124430Y-82055028D02*
X254410144Y-82055028D01*
X254410144Y-82055028D02*
X254553001Y-81983600D01*
X254553001Y-81983600D02*
X254624430Y-81840742D01*
X254624430Y-81840742D02*
X254624430Y-81769314D01*
X254624430Y-81769314D02*
X254553001Y-81626457D01*
X254553001Y-81626457D02*
X254410144Y-81555028D01*
X254410144Y-81555028D02*
X254195859Y-81555028D01*
X254195859Y-81555028D02*
X254053001Y-81483600D01*
X254053001Y-81483600D02*
X253981573Y-81340742D01*
X253981573Y-81340742D02*
X253981573Y-81269314D01*
X253981573Y-81269314D02*
X254053001Y-81126457D01*
X254053001Y-81126457D02*
X254195859Y-81055028D01*
X254195859Y-81055028D02*
X254410144Y-81055028D01*
X254410144Y-81055028D02*
X254553001Y-81126457D01*
X255195859Y-81983600D02*
X255338716Y-82055028D01*
X255338716Y-82055028D02*
X255624430Y-82055028D01*
X255624430Y-82055028D02*
X255767287Y-81983600D01*
X255767287Y-81983600D02*
X255838716Y-81840742D01*
X255838716Y-81840742D02*
X255838716Y-81769314D01*
X255838716Y-81769314D02*
X255767287Y-81626457D01*
X255767287Y-81626457D02*
X255624430Y-81555028D01*
X255624430Y-81555028D02*
X255410145Y-81555028D01*
X255410145Y-81555028D02*
X255267287Y-81483600D01*
X255267287Y-81483600D02*
X255195859Y-81340742D01*
X255195859Y-81340742D02*
X255195859Y-81269314D01*
X255195859Y-81269314D02*
X255267287Y-81126457D01*
X255267287Y-81126457D02*
X255410145Y-81055028D01*
X255410145Y-81055028D02*
X255624430Y-81055028D01*
X255624430Y-81055028D02*
X255767287Y-81126457D01*
X256481573Y-81912171D02*
X256553002Y-81983600D01*
X256553002Y-81983600D02*
X256481573Y-82055028D01*
X256481573Y-82055028D02*
X256410145Y-81983600D01*
X256410145Y-81983600D02*
X256481573Y-81912171D01*
X256481573Y-81912171D02*
X256481573Y-82055028D01*
X256481573Y-81126457D02*
X256553002Y-81197885D01*
X256553002Y-81197885D02*
X256481573Y-81269314D01*
X256481573Y-81269314D02*
X256410145Y-81197885D01*
X256410145Y-81197885D02*
X256481573Y-81126457D01*
X256481573Y-81126457D02*
X256481573Y-81269314D01*
X238053001Y-97883028D02*
X238053001Y-96383028D01*
X238053001Y-96383028D02*
X238624430Y-96383028D01*
X238624430Y-96383028D02*
X238767287Y-96454457D01*
X238767287Y-96454457D02*
X238838716Y-96525885D01*
X238838716Y-96525885D02*
X238910144Y-96668742D01*
X238910144Y-96668742D02*
X238910144Y-96883028D01*
X238910144Y-96883028D02*
X238838716Y-97025885D01*
X238838716Y-97025885D02*
X238767287Y-97097314D01*
X238767287Y-97097314D02*
X238624430Y-97168742D01*
X238624430Y-97168742D02*
X238053001Y-97168742D01*
X239767287Y-97883028D02*
X239624430Y-97811600D01*
X239624430Y-97811600D02*
X239553001Y-97668742D01*
X239553001Y-97668742D02*
X239553001Y-96383028D01*
X240981573Y-97883028D02*
X240981573Y-97097314D01*
X240981573Y-97097314D02*
X240910144Y-96954457D01*
X240910144Y-96954457D02*
X240767287Y-96883028D01*
X240767287Y-96883028D02*
X240481573Y-96883028D01*
X240481573Y-96883028D02*
X240338715Y-96954457D01*
X240981573Y-97811600D02*
X240838715Y-97883028D01*
X240838715Y-97883028D02*
X240481573Y-97883028D01*
X240481573Y-97883028D02*
X240338715Y-97811600D01*
X240338715Y-97811600D02*
X240267287Y-97668742D01*
X240267287Y-97668742D02*
X240267287Y-97525885D01*
X240267287Y-97525885D02*
X240338715Y-97383028D01*
X240338715Y-97383028D02*
X240481573Y-97311600D01*
X240481573Y-97311600D02*
X240838715Y-97311600D01*
X240838715Y-97311600D02*
X240981573Y-97240171D01*
X241481573Y-96883028D02*
X242053001Y-96883028D01*
X241695858Y-96383028D02*
X241695858Y-97668742D01*
X241695858Y-97668742D02*
X241767287Y-97811600D01*
X241767287Y-97811600D02*
X241910144Y-97883028D01*
X241910144Y-97883028D02*
X242053001Y-97883028D01*
X243124430Y-97811600D02*
X242981573Y-97883028D01*
X242981573Y-97883028D02*
X242695859Y-97883028D01*
X242695859Y-97883028D02*
X242553001Y-97811600D01*
X242553001Y-97811600D02*
X242481573Y-97668742D01*
X242481573Y-97668742D02*
X242481573Y-97097314D01*
X242481573Y-97097314D02*
X242553001Y-96954457D01*
X242553001Y-96954457D02*
X242695859Y-96883028D01*
X242695859Y-96883028D02*
X242981573Y-96883028D01*
X242981573Y-96883028D02*
X243124430Y-96954457D01*
X243124430Y-96954457D02*
X243195859Y-97097314D01*
X243195859Y-97097314D02*
X243195859Y-97240171D01*
X243195859Y-97240171D02*
X242481573Y-97383028D01*
X244481573Y-97883028D02*
X244481573Y-96383028D01*
X244481573Y-97811600D02*
X244338715Y-97883028D01*
X244338715Y-97883028D02*
X244053001Y-97883028D01*
X244053001Y-97883028D02*
X243910144Y-97811600D01*
X243910144Y-97811600D02*
X243838715Y-97740171D01*
X243838715Y-97740171D02*
X243767287Y-97597314D01*
X243767287Y-97597314D02*
X243767287Y-97168742D01*
X243767287Y-97168742D02*
X243838715Y-97025885D01*
X243838715Y-97025885D02*
X243910144Y-96954457D01*
X243910144Y-96954457D02*
X244053001Y-96883028D01*
X244053001Y-96883028D02*
X244338715Y-96883028D01*
X244338715Y-96883028D02*
X244481573Y-96954457D01*
X246838715Y-97097314D02*
X247053001Y-97168742D01*
X247053001Y-97168742D02*
X247124430Y-97240171D01*
X247124430Y-97240171D02*
X247195858Y-97383028D01*
X247195858Y-97383028D02*
X247195858Y-97597314D01*
X247195858Y-97597314D02*
X247124430Y-97740171D01*
X247124430Y-97740171D02*
X247053001Y-97811600D01*
X247053001Y-97811600D02*
X246910144Y-97883028D01*
X246910144Y-97883028D02*
X246338715Y-97883028D01*
X246338715Y-97883028D02*
X246338715Y-96383028D01*
X246338715Y-96383028D02*
X246838715Y-96383028D01*
X246838715Y-96383028D02*
X246981573Y-96454457D01*
X246981573Y-96454457D02*
X247053001Y-96525885D01*
X247053001Y-96525885D02*
X247124430Y-96668742D01*
X247124430Y-96668742D02*
X247124430Y-96811600D01*
X247124430Y-96811600D02*
X247053001Y-96954457D01*
X247053001Y-96954457D02*
X246981573Y-97025885D01*
X246981573Y-97025885D02*
X246838715Y-97097314D01*
X246838715Y-97097314D02*
X246338715Y-97097314D01*
X248053001Y-97883028D02*
X247910144Y-97811600D01*
X247910144Y-97811600D02*
X247838715Y-97740171D01*
X247838715Y-97740171D02*
X247767287Y-97597314D01*
X247767287Y-97597314D02*
X247767287Y-97168742D01*
X247767287Y-97168742D02*
X247838715Y-97025885D01*
X247838715Y-97025885D02*
X247910144Y-96954457D01*
X247910144Y-96954457D02*
X248053001Y-96883028D01*
X248053001Y-96883028D02*
X248267287Y-96883028D01*
X248267287Y-96883028D02*
X248410144Y-96954457D01*
X248410144Y-96954457D02*
X248481573Y-97025885D01*
X248481573Y-97025885D02*
X248553001Y-97168742D01*
X248553001Y-97168742D02*
X248553001Y-97597314D01*
X248553001Y-97597314D02*
X248481573Y-97740171D01*
X248481573Y-97740171D02*
X248410144Y-97811600D01*
X248410144Y-97811600D02*
X248267287Y-97883028D01*
X248267287Y-97883028D02*
X248053001Y-97883028D01*
X249838716Y-97883028D02*
X249838716Y-97097314D01*
X249838716Y-97097314D02*
X249767287Y-96954457D01*
X249767287Y-96954457D02*
X249624430Y-96883028D01*
X249624430Y-96883028D02*
X249338716Y-96883028D01*
X249338716Y-96883028D02*
X249195858Y-96954457D01*
X249838716Y-97811600D02*
X249695858Y-97883028D01*
X249695858Y-97883028D02*
X249338716Y-97883028D01*
X249338716Y-97883028D02*
X249195858Y-97811600D01*
X249195858Y-97811600D02*
X249124430Y-97668742D01*
X249124430Y-97668742D02*
X249124430Y-97525885D01*
X249124430Y-97525885D02*
X249195858Y-97383028D01*
X249195858Y-97383028D02*
X249338716Y-97311600D01*
X249338716Y-97311600D02*
X249695858Y-97311600D01*
X249695858Y-97311600D02*
X249838716Y-97240171D01*
X250553001Y-97883028D02*
X250553001Y-96883028D01*
X250553001Y-97168742D02*
X250624430Y-97025885D01*
X250624430Y-97025885D02*
X250695859Y-96954457D01*
X250695859Y-96954457D02*
X250838716Y-96883028D01*
X250838716Y-96883028D02*
X250981573Y-96883028D01*
X252124430Y-97883028D02*
X252124430Y-96383028D01*
X252124430Y-97811600D02*
X251981572Y-97883028D01*
X251981572Y-97883028D02*
X251695858Y-97883028D01*
X251695858Y-97883028D02*
X251553001Y-97811600D01*
X251553001Y-97811600D02*
X251481572Y-97740171D01*
X251481572Y-97740171D02*
X251410144Y-97597314D01*
X251410144Y-97597314D02*
X251410144Y-97168742D01*
X251410144Y-97168742D02*
X251481572Y-97025885D01*
X251481572Y-97025885D02*
X251553001Y-96954457D01*
X251553001Y-96954457D02*
X251695858Y-96883028D01*
X251695858Y-96883028D02*
X251981572Y-96883028D01*
X251981572Y-96883028D02*
X252124430Y-96954457D01*
X253981572Y-97097314D02*
X254481572Y-97097314D01*
X254695858Y-97883028D02*
X253981572Y-97883028D01*
X253981572Y-97883028D02*
X253981572Y-96383028D01*
X253981572Y-96383028D02*
X254695858Y-96383028D01*
X255981573Y-97883028D02*
X255981573Y-96383028D01*
X255981573Y-97811600D02*
X255838715Y-97883028D01*
X255838715Y-97883028D02*
X255553001Y-97883028D01*
X255553001Y-97883028D02*
X255410144Y-97811600D01*
X255410144Y-97811600D02*
X255338715Y-97740171D01*
X255338715Y-97740171D02*
X255267287Y-97597314D01*
X255267287Y-97597314D02*
X255267287Y-97168742D01*
X255267287Y-97168742D02*
X255338715Y-97025885D01*
X255338715Y-97025885D02*
X255410144Y-96954457D01*
X255410144Y-96954457D02*
X255553001Y-96883028D01*
X255553001Y-96883028D02*
X255838715Y-96883028D01*
X255838715Y-96883028D02*
X255981573Y-96954457D01*
X257338716Y-96883028D02*
X257338716Y-98097314D01*
X257338716Y-98097314D02*
X257267287Y-98240171D01*
X257267287Y-98240171D02*
X257195858Y-98311600D01*
X257195858Y-98311600D02*
X257053001Y-98383028D01*
X257053001Y-98383028D02*
X256838716Y-98383028D01*
X256838716Y-98383028D02*
X256695858Y-98311600D01*
X257338716Y-97811600D02*
X257195858Y-97883028D01*
X257195858Y-97883028D02*
X256910144Y-97883028D01*
X256910144Y-97883028D02*
X256767287Y-97811600D01*
X256767287Y-97811600D02*
X256695858Y-97740171D01*
X256695858Y-97740171D02*
X256624430Y-97597314D01*
X256624430Y-97597314D02*
X256624430Y-97168742D01*
X256624430Y-97168742D02*
X256695858Y-97025885D01*
X256695858Y-97025885D02*
X256767287Y-96954457D01*
X256767287Y-96954457D02*
X256910144Y-96883028D01*
X256910144Y-96883028D02*
X257195858Y-96883028D01*
X257195858Y-96883028D02*
X257338716Y-96954457D01*
X258624430Y-97811600D02*
X258481573Y-97883028D01*
X258481573Y-97883028D02*
X258195859Y-97883028D01*
X258195859Y-97883028D02*
X258053001Y-97811600D01*
X258053001Y-97811600D02*
X257981573Y-97668742D01*
X257981573Y-97668742D02*
X257981573Y-97097314D01*
X257981573Y-97097314D02*
X258053001Y-96954457D01*
X258053001Y-96954457D02*
X258195859Y-96883028D01*
X258195859Y-96883028D02*
X258481573Y-96883028D01*
X258481573Y-96883028D02*
X258624430Y-96954457D01*
X258624430Y-96954457D02*
X258695859Y-97097314D01*
X258695859Y-97097314D02*
X258695859Y-97240171D01*
X258695859Y-97240171D02*
X257981573Y-97383028D01*
X259338715Y-97740171D02*
X259410144Y-97811600D01*
X259410144Y-97811600D02*
X259338715Y-97883028D01*
X259338715Y-97883028D02*
X259267287Y-97811600D01*
X259267287Y-97811600D02*
X259338715Y-97740171D01*
X259338715Y-97740171D02*
X259338715Y-97883028D01*
X259338715Y-96954457D02*
X259410144Y-97025885D01*
X259410144Y-97025885D02*
X259338715Y-97097314D01*
X259338715Y-97097314D02*
X259267287Y-97025885D01*
X259267287Y-97025885D02*
X259338715Y-96954457D01*
X259338715Y-96954457D02*
X259338715Y-97097314D01*
D11*
X171406014Y-76026819D02*
X171691728Y-76122057D01*
X171691728Y-76122057D02*
X171786966Y-76217295D01*
X171786966Y-76217295D02*
X171882204Y-76407771D01*
X171882204Y-76407771D02*
X171882204Y-76693485D01*
X171882204Y-76693485D02*
X171786966Y-76883961D01*
X171786966Y-76883961D02*
X171691728Y-76979200D01*
X171691728Y-76979200D02*
X171501252Y-77074438D01*
X171501252Y-77074438D02*
X170739347Y-77074438D01*
X170739347Y-77074438D02*
X170739347Y-75074438D01*
X170739347Y-75074438D02*
X171406014Y-75074438D01*
X171406014Y-75074438D02*
X171596490Y-75169676D01*
X171596490Y-75169676D02*
X171691728Y-75264914D01*
X171691728Y-75264914D02*
X171786966Y-75455390D01*
X171786966Y-75455390D02*
X171786966Y-75645866D01*
X171786966Y-75645866D02*
X171691728Y-75836342D01*
X171691728Y-75836342D02*
X171596490Y-75931580D01*
X171596490Y-75931580D02*
X171406014Y-76026819D01*
X171406014Y-76026819D02*
X170739347Y-76026819D01*
X173120299Y-75074438D02*
X173501252Y-75074438D01*
X173501252Y-75074438D02*
X173691728Y-75169676D01*
X173691728Y-75169676D02*
X173882204Y-75360152D01*
X173882204Y-75360152D02*
X173977442Y-75741104D01*
X173977442Y-75741104D02*
X173977442Y-76407771D01*
X173977442Y-76407771D02*
X173882204Y-76788723D01*
X173882204Y-76788723D02*
X173691728Y-76979200D01*
X173691728Y-76979200D02*
X173501252Y-77074438D01*
X173501252Y-77074438D02*
X173120299Y-77074438D01*
X173120299Y-77074438D02*
X172929823Y-76979200D01*
X172929823Y-76979200D02*
X172739347Y-76788723D01*
X172739347Y-76788723D02*
X172644109Y-76407771D01*
X172644109Y-76407771D02*
X172644109Y-75741104D01*
X172644109Y-75741104D02*
X172739347Y-75360152D01*
X172739347Y-75360152D02*
X172929823Y-75169676D01*
X172929823Y-75169676D02*
X173120299Y-75074438D01*
X174739347Y-76503009D02*
X175691728Y-76503009D01*
X174548871Y-77074438D02*
X175215537Y-75074438D01*
X175215537Y-75074438D02*
X175882204Y-77074438D01*
X177691728Y-77074438D02*
X177025061Y-76122057D01*
X176548871Y-77074438D02*
X176548871Y-75074438D01*
X176548871Y-75074438D02*
X177310776Y-75074438D01*
X177310776Y-75074438D02*
X177501252Y-75169676D01*
X177501252Y-75169676D02*
X177596490Y-75264914D01*
X177596490Y-75264914D02*
X177691728Y-75455390D01*
X177691728Y-75455390D02*
X177691728Y-75741104D01*
X177691728Y-75741104D02*
X177596490Y-75931580D01*
X177596490Y-75931580D02*
X177501252Y-76026819D01*
X177501252Y-76026819D02*
X177310776Y-76122057D01*
X177310776Y-76122057D02*
X176548871Y-76122057D01*
X178548871Y-77074438D02*
X178548871Y-75074438D01*
X178548871Y-75074438D02*
X179025061Y-75074438D01*
X179025061Y-75074438D02*
X179310776Y-75169676D01*
X179310776Y-75169676D02*
X179501252Y-75360152D01*
X179501252Y-75360152D02*
X179596490Y-75550628D01*
X179596490Y-75550628D02*
X179691728Y-75931580D01*
X179691728Y-75931580D02*
X179691728Y-76217295D01*
X179691728Y-76217295D02*
X179596490Y-76598247D01*
X179596490Y-76598247D02*
X179501252Y-76788723D01*
X179501252Y-76788723D02*
X179310776Y-76979200D01*
X179310776Y-76979200D02*
X179025061Y-77074438D01*
X179025061Y-77074438D02*
X178548871Y-77074438D01*
X183215538Y-76883961D02*
X183120300Y-76979200D01*
X183120300Y-76979200D02*
X182834586Y-77074438D01*
X182834586Y-77074438D02*
X182644110Y-77074438D01*
X182644110Y-77074438D02*
X182358395Y-76979200D01*
X182358395Y-76979200D02*
X182167919Y-76788723D01*
X182167919Y-76788723D02*
X182072681Y-76598247D01*
X182072681Y-76598247D02*
X181977443Y-76217295D01*
X181977443Y-76217295D02*
X181977443Y-75931580D01*
X181977443Y-75931580D02*
X182072681Y-75550628D01*
X182072681Y-75550628D02*
X182167919Y-75360152D01*
X182167919Y-75360152D02*
X182358395Y-75169676D01*
X182358395Y-75169676D02*
X182644110Y-75074438D01*
X182644110Y-75074438D02*
X182834586Y-75074438D01*
X182834586Y-75074438D02*
X183120300Y-75169676D01*
X183120300Y-75169676D02*
X183215538Y-75264914D01*
X184072681Y-77074438D02*
X184072681Y-75074438D01*
X184072681Y-76026819D02*
X185215538Y-76026819D01*
X185215538Y-77074438D02*
X185215538Y-75074438D01*
X186072681Y-76503009D02*
X187025062Y-76503009D01*
X185882205Y-77074438D02*
X186548871Y-75074438D01*
X186548871Y-75074438D02*
X187215538Y-77074438D01*
X189025062Y-77074438D02*
X188358395Y-76122057D01*
X187882205Y-77074438D02*
X187882205Y-75074438D01*
X187882205Y-75074438D02*
X188644110Y-75074438D01*
X188644110Y-75074438D02*
X188834586Y-75169676D01*
X188834586Y-75169676D02*
X188929824Y-75264914D01*
X188929824Y-75264914D02*
X189025062Y-75455390D01*
X189025062Y-75455390D02*
X189025062Y-75741104D01*
X189025062Y-75741104D02*
X188929824Y-75931580D01*
X188929824Y-75931580D02*
X188834586Y-76026819D01*
X188834586Y-76026819D02*
X188644110Y-76122057D01*
X188644110Y-76122057D02*
X187882205Y-76122057D01*
X189786967Y-76503009D02*
X190739348Y-76503009D01*
X189596491Y-77074438D02*
X190263157Y-75074438D01*
X190263157Y-75074438D02*
X190929824Y-77074438D01*
X192739348Y-76883961D02*
X192644110Y-76979200D01*
X192644110Y-76979200D02*
X192358396Y-77074438D01*
X192358396Y-77074438D02*
X192167920Y-77074438D01*
X192167920Y-77074438D02*
X191882205Y-76979200D01*
X191882205Y-76979200D02*
X191691729Y-76788723D01*
X191691729Y-76788723D02*
X191596491Y-76598247D01*
X191596491Y-76598247D02*
X191501253Y-76217295D01*
X191501253Y-76217295D02*
X191501253Y-75931580D01*
X191501253Y-75931580D02*
X191596491Y-75550628D01*
X191596491Y-75550628D02*
X191691729Y-75360152D01*
X191691729Y-75360152D02*
X191882205Y-75169676D01*
X191882205Y-75169676D02*
X192167920Y-75074438D01*
X192167920Y-75074438D02*
X192358396Y-75074438D01*
X192358396Y-75074438D02*
X192644110Y-75169676D01*
X192644110Y-75169676D02*
X192739348Y-75264914D01*
X193310777Y-75074438D02*
X194453634Y-75074438D01*
X193882205Y-77074438D02*
X193882205Y-75074438D01*
X195120301Y-76026819D02*
X195786968Y-76026819D01*
X196072682Y-77074438D02*
X195120301Y-77074438D01*
X195120301Y-77074438D02*
X195120301Y-75074438D01*
X195120301Y-75074438D02*
X196072682Y-75074438D01*
X198072682Y-77074438D02*
X197406015Y-76122057D01*
X196929825Y-77074438D02*
X196929825Y-75074438D01*
X196929825Y-75074438D02*
X197691730Y-75074438D01*
X197691730Y-75074438D02*
X197882206Y-75169676D01*
X197882206Y-75169676D02*
X197977444Y-75264914D01*
X197977444Y-75264914D02*
X198072682Y-75455390D01*
X198072682Y-75455390D02*
X198072682Y-75741104D01*
X198072682Y-75741104D02*
X197977444Y-75931580D01*
X197977444Y-75931580D02*
X197882206Y-76026819D01*
X197882206Y-76026819D02*
X197691730Y-76122057D01*
X197691730Y-76122057D02*
X196929825Y-76122057D01*
X198929825Y-77074438D02*
X198929825Y-75074438D01*
X199786968Y-76979200D02*
X200072682Y-77074438D01*
X200072682Y-77074438D02*
X200548873Y-77074438D01*
X200548873Y-77074438D02*
X200739349Y-76979200D01*
X200739349Y-76979200D02*
X200834587Y-76883961D01*
X200834587Y-76883961D02*
X200929825Y-76693485D01*
X200929825Y-76693485D02*
X200929825Y-76503009D01*
X200929825Y-76503009D02*
X200834587Y-76312533D01*
X200834587Y-76312533D02*
X200739349Y-76217295D01*
X200739349Y-76217295D02*
X200548873Y-76122057D01*
X200548873Y-76122057D02*
X200167920Y-76026819D01*
X200167920Y-76026819D02*
X199977444Y-75931580D01*
X199977444Y-75931580D02*
X199882206Y-75836342D01*
X199882206Y-75836342D02*
X199786968Y-75645866D01*
X199786968Y-75645866D02*
X199786968Y-75455390D01*
X199786968Y-75455390D02*
X199882206Y-75264914D01*
X199882206Y-75264914D02*
X199977444Y-75169676D01*
X199977444Y-75169676D02*
X200167920Y-75074438D01*
X200167920Y-75074438D02*
X200644111Y-75074438D01*
X200644111Y-75074438D02*
X200929825Y-75169676D01*
X201501254Y-75074438D02*
X202644111Y-75074438D01*
X202072682Y-77074438D02*
X202072682Y-75074438D01*
X203310778Y-77074438D02*
X203310778Y-75074438D01*
X205406016Y-76883961D02*
X205310778Y-76979200D01*
X205310778Y-76979200D02*
X205025064Y-77074438D01*
X205025064Y-77074438D02*
X204834588Y-77074438D01*
X204834588Y-77074438D02*
X204548873Y-76979200D01*
X204548873Y-76979200D02*
X204358397Y-76788723D01*
X204358397Y-76788723D02*
X204263159Y-76598247D01*
X204263159Y-76598247D02*
X204167921Y-76217295D01*
X204167921Y-76217295D02*
X204167921Y-75931580D01*
X204167921Y-75931580D02*
X204263159Y-75550628D01*
X204263159Y-75550628D02*
X204358397Y-75360152D01*
X204358397Y-75360152D02*
X204548873Y-75169676D01*
X204548873Y-75169676D02*
X204834588Y-75074438D01*
X204834588Y-75074438D02*
X205025064Y-75074438D01*
X205025064Y-75074438D02*
X205310778Y-75169676D01*
X205310778Y-75169676D02*
X205406016Y-75264914D01*
X206167921Y-76979200D02*
X206453635Y-77074438D01*
X206453635Y-77074438D02*
X206929826Y-77074438D01*
X206929826Y-77074438D02*
X207120302Y-76979200D01*
X207120302Y-76979200D02*
X207215540Y-76883961D01*
X207215540Y-76883961D02*
X207310778Y-76693485D01*
X207310778Y-76693485D02*
X207310778Y-76503009D01*
X207310778Y-76503009D02*
X207215540Y-76312533D01*
X207215540Y-76312533D02*
X207120302Y-76217295D01*
X207120302Y-76217295D02*
X206929826Y-76122057D01*
X206929826Y-76122057D02*
X206548873Y-76026819D01*
X206548873Y-76026819D02*
X206358397Y-75931580D01*
X206358397Y-75931580D02*
X206263159Y-75836342D01*
X206263159Y-75836342D02*
X206167921Y-75645866D01*
X206167921Y-75645866D02*
X206167921Y-75455390D01*
X206167921Y-75455390D02*
X206263159Y-75264914D01*
X206263159Y-75264914D02*
X206358397Y-75169676D01*
X206358397Y-75169676D02*
X206548873Y-75074438D01*
X206548873Y-75074438D02*
X207025064Y-75074438D01*
X207025064Y-75074438D02*
X207310778Y-75169676D01*
D10*
X203895863Y-93140314D02*
X204395863Y-93140314D01*
X204610149Y-93926028D02*
X203895863Y-93926028D01*
X203895863Y-93926028D02*
X203895863Y-92426028D01*
X203895863Y-92426028D02*
X204610149Y-92426028D01*
X205253006Y-93926028D02*
X205253006Y-92426028D01*
X205253006Y-92426028D02*
X206110149Y-93926028D01*
X206110149Y-93926028D02*
X206110149Y-92426028D01*
X206824435Y-93926028D02*
X206824435Y-92426028D01*
X208324436Y-92497457D02*
X208181579Y-92426028D01*
X208181579Y-92426028D02*
X207967293Y-92426028D01*
X207967293Y-92426028D02*
X207753007Y-92497457D01*
X207753007Y-92497457D02*
X207610150Y-92640314D01*
X207610150Y-92640314D02*
X207538721Y-92783171D01*
X207538721Y-92783171D02*
X207467293Y-93068885D01*
X207467293Y-93068885D02*
X207467293Y-93283171D01*
X207467293Y-93283171D02*
X207538721Y-93568885D01*
X207538721Y-93568885D02*
X207610150Y-93711742D01*
X207610150Y-93711742D02*
X207753007Y-93854600D01*
X207753007Y-93854600D02*
X207967293Y-93926028D01*
X207967293Y-93926028D02*
X208110150Y-93926028D01*
X208110150Y-93926028D02*
X208324436Y-93854600D01*
X208324436Y-93854600D02*
X208395864Y-93783171D01*
X208395864Y-93783171D02*
X208395864Y-93283171D01*
X208395864Y-93283171D02*
X208110150Y-93283171D01*
X171238720Y-101054314D02*
X171738720Y-101054314D01*
X171953006Y-101840028D02*
X171238720Y-101840028D01*
X171238720Y-101840028D02*
X171238720Y-100340028D01*
X171238720Y-100340028D02*
X171953006Y-100340028D01*
X173238721Y-101840028D02*
X173238721Y-100340028D01*
X173238721Y-101768600D02*
X173095863Y-101840028D01*
X173095863Y-101840028D02*
X172810149Y-101840028D01*
X172810149Y-101840028D02*
X172667292Y-101768600D01*
X172667292Y-101768600D02*
X172595863Y-101697171D01*
X172595863Y-101697171D02*
X172524435Y-101554314D01*
X172524435Y-101554314D02*
X172524435Y-101125742D01*
X172524435Y-101125742D02*
X172595863Y-100982885D01*
X172595863Y-100982885D02*
X172667292Y-100911457D01*
X172667292Y-100911457D02*
X172810149Y-100840028D01*
X172810149Y-100840028D02*
X173095863Y-100840028D01*
X173095863Y-100840028D02*
X173238721Y-100911457D01*
X174595864Y-100840028D02*
X174595864Y-102054314D01*
X174595864Y-102054314D02*
X174524435Y-102197171D01*
X174524435Y-102197171D02*
X174453006Y-102268600D01*
X174453006Y-102268600D02*
X174310149Y-102340028D01*
X174310149Y-102340028D02*
X174095864Y-102340028D01*
X174095864Y-102340028D02*
X173953006Y-102268600D01*
X174595864Y-101768600D02*
X174453006Y-101840028D01*
X174453006Y-101840028D02*
X174167292Y-101840028D01*
X174167292Y-101840028D02*
X174024435Y-101768600D01*
X174024435Y-101768600D02*
X173953006Y-101697171D01*
X173953006Y-101697171D02*
X173881578Y-101554314D01*
X173881578Y-101554314D02*
X173881578Y-101125742D01*
X173881578Y-101125742D02*
X173953006Y-100982885D01*
X173953006Y-100982885D02*
X174024435Y-100911457D01*
X174024435Y-100911457D02*
X174167292Y-100840028D01*
X174167292Y-100840028D02*
X174453006Y-100840028D01*
X174453006Y-100840028D02*
X174595864Y-100911457D01*
X175881578Y-101768600D02*
X175738721Y-101840028D01*
X175738721Y-101840028D02*
X175453007Y-101840028D01*
X175453007Y-101840028D02*
X175310149Y-101768600D01*
X175310149Y-101768600D02*
X175238721Y-101625742D01*
X175238721Y-101625742D02*
X175238721Y-101054314D01*
X175238721Y-101054314D02*
X175310149Y-100911457D01*
X175310149Y-100911457D02*
X175453007Y-100840028D01*
X175453007Y-100840028D02*
X175738721Y-100840028D01*
X175738721Y-100840028D02*
X175881578Y-100911457D01*
X175881578Y-100911457D02*
X175953007Y-101054314D01*
X175953007Y-101054314D02*
X175953007Y-101197171D01*
X175953007Y-101197171D02*
X175238721Y-101340028D01*
X178381578Y-101768600D02*
X178238720Y-101840028D01*
X178238720Y-101840028D02*
X177953006Y-101840028D01*
X177953006Y-101840028D02*
X177810149Y-101768600D01*
X177810149Y-101768600D02*
X177738720Y-101697171D01*
X177738720Y-101697171D02*
X177667292Y-101554314D01*
X177667292Y-101554314D02*
X177667292Y-101125742D01*
X177667292Y-101125742D02*
X177738720Y-100982885D01*
X177738720Y-100982885D02*
X177810149Y-100911457D01*
X177810149Y-100911457D02*
X177953006Y-100840028D01*
X177953006Y-100840028D02*
X178238720Y-100840028D01*
X178238720Y-100840028D02*
X178381578Y-100911457D01*
X179667292Y-101840028D02*
X179667292Y-101054314D01*
X179667292Y-101054314D02*
X179595863Y-100911457D01*
X179595863Y-100911457D02*
X179453006Y-100840028D01*
X179453006Y-100840028D02*
X179167292Y-100840028D01*
X179167292Y-100840028D02*
X179024434Y-100911457D01*
X179667292Y-101768600D02*
X179524434Y-101840028D01*
X179524434Y-101840028D02*
X179167292Y-101840028D01*
X179167292Y-101840028D02*
X179024434Y-101768600D01*
X179024434Y-101768600D02*
X178953006Y-101625742D01*
X178953006Y-101625742D02*
X178953006Y-101482885D01*
X178953006Y-101482885D02*
X179024434Y-101340028D01*
X179024434Y-101340028D02*
X179167292Y-101268600D01*
X179167292Y-101268600D02*
X179524434Y-101268600D01*
X179524434Y-101268600D02*
X179667292Y-101197171D01*
X180381577Y-101840028D02*
X180381577Y-100840028D01*
X180381577Y-101125742D02*
X180453006Y-100982885D01*
X180453006Y-100982885D02*
X180524435Y-100911457D01*
X180524435Y-100911457D02*
X180667292Y-100840028D01*
X180667292Y-100840028D02*
X180810149Y-100840028D01*
X181953006Y-101840028D02*
X181953006Y-100340028D01*
X181953006Y-101768600D02*
X181810148Y-101840028D01*
X181810148Y-101840028D02*
X181524434Y-101840028D01*
X181524434Y-101840028D02*
X181381577Y-101768600D01*
X181381577Y-101768600D02*
X181310148Y-101697171D01*
X181310148Y-101697171D02*
X181238720Y-101554314D01*
X181238720Y-101554314D02*
X181238720Y-101125742D01*
X181238720Y-101125742D02*
X181310148Y-100982885D01*
X181310148Y-100982885D02*
X181381577Y-100911457D01*
X181381577Y-100911457D02*
X181524434Y-100840028D01*
X181524434Y-100840028D02*
X181810148Y-100840028D01*
X181810148Y-100840028D02*
X181953006Y-100911457D01*
X184453006Y-101768600D02*
X184310148Y-101840028D01*
X184310148Y-101840028D02*
X184024434Y-101840028D01*
X184024434Y-101840028D02*
X183881577Y-101768600D01*
X183881577Y-101768600D02*
X183810148Y-101697171D01*
X183810148Y-101697171D02*
X183738720Y-101554314D01*
X183738720Y-101554314D02*
X183738720Y-101125742D01*
X183738720Y-101125742D02*
X183810148Y-100982885D01*
X183810148Y-100982885D02*
X183881577Y-100911457D01*
X183881577Y-100911457D02*
X184024434Y-100840028D01*
X184024434Y-100840028D02*
X184310148Y-100840028D01*
X184310148Y-100840028D02*
X184453006Y-100911457D01*
X185310148Y-101840028D02*
X185167291Y-101768600D01*
X185167291Y-101768600D02*
X185095862Y-101697171D01*
X185095862Y-101697171D02*
X185024434Y-101554314D01*
X185024434Y-101554314D02*
X185024434Y-101125742D01*
X185024434Y-101125742D02*
X185095862Y-100982885D01*
X185095862Y-100982885D02*
X185167291Y-100911457D01*
X185167291Y-100911457D02*
X185310148Y-100840028D01*
X185310148Y-100840028D02*
X185524434Y-100840028D01*
X185524434Y-100840028D02*
X185667291Y-100911457D01*
X185667291Y-100911457D02*
X185738720Y-100982885D01*
X185738720Y-100982885D02*
X185810148Y-101125742D01*
X185810148Y-101125742D02*
X185810148Y-101554314D01*
X185810148Y-101554314D02*
X185738720Y-101697171D01*
X185738720Y-101697171D02*
X185667291Y-101768600D01*
X185667291Y-101768600D02*
X185524434Y-101840028D01*
X185524434Y-101840028D02*
X185310148Y-101840028D01*
X186453005Y-100840028D02*
X186453005Y-101840028D01*
X186453005Y-100982885D02*
X186524434Y-100911457D01*
X186524434Y-100911457D02*
X186667291Y-100840028D01*
X186667291Y-100840028D02*
X186881577Y-100840028D01*
X186881577Y-100840028D02*
X187024434Y-100911457D01*
X187024434Y-100911457D02*
X187095863Y-101054314D01*
X187095863Y-101054314D02*
X187095863Y-101840028D01*
X187810148Y-100840028D02*
X187810148Y-101840028D01*
X187810148Y-100982885D02*
X187881577Y-100911457D01*
X187881577Y-100911457D02*
X188024434Y-100840028D01*
X188024434Y-100840028D02*
X188238720Y-100840028D01*
X188238720Y-100840028D02*
X188381577Y-100911457D01*
X188381577Y-100911457D02*
X188453006Y-101054314D01*
X188453006Y-101054314D02*
X188453006Y-101840028D01*
X189738720Y-101768600D02*
X189595863Y-101840028D01*
X189595863Y-101840028D02*
X189310149Y-101840028D01*
X189310149Y-101840028D02*
X189167291Y-101768600D01*
X189167291Y-101768600D02*
X189095863Y-101625742D01*
X189095863Y-101625742D02*
X189095863Y-101054314D01*
X189095863Y-101054314D02*
X189167291Y-100911457D01*
X189167291Y-100911457D02*
X189310149Y-100840028D01*
X189310149Y-100840028D02*
X189595863Y-100840028D01*
X189595863Y-100840028D02*
X189738720Y-100911457D01*
X189738720Y-100911457D02*
X189810149Y-101054314D01*
X189810149Y-101054314D02*
X189810149Y-101197171D01*
X189810149Y-101197171D02*
X189095863Y-101340028D01*
X191095863Y-101768600D02*
X190953005Y-101840028D01*
X190953005Y-101840028D02*
X190667291Y-101840028D01*
X190667291Y-101840028D02*
X190524434Y-101768600D01*
X190524434Y-101768600D02*
X190453005Y-101697171D01*
X190453005Y-101697171D02*
X190381577Y-101554314D01*
X190381577Y-101554314D02*
X190381577Y-101125742D01*
X190381577Y-101125742D02*
X190453005Y-100982885D01*
X190453005Y-100982885D02*
X190524434Y-100911457D01*
X190524434Y-100911457D02*
X190667291Y-100840028D01*
X190667291Y-100840028D02*
X190953005Y-100840028D01*
X190953005Y-100840028D02*
X191095863Y-100911457D01*
X191524434Y-100840028D02*
X192095862Y-100840028D01*
X191738719Y-100340028D02*
X191738719Y-101625742D01*
X191738719Y-101625742D02*
X191810148Y-101768600D01*
X191810148Y-101768600D02*
X191953005Y-101840028D01*
X191953005Y-101840028D02*
X192095862Y-101840028D01*
X192810148Y-101840028D02*
X192667291Y-101768600D01*
X192667291Y-101768600D02*
X192595862Y-101697171D01*
X192595862Y-101697171D02*
X192524434Y-101554314D01*
X192524434Y-101554314D02*
X192524434Y-101125742D01*
X192524434Y-101125742D02*
X192595862Y-100982885D01*
X192595862Y-100982885D02*
X192667291Y-100911457D01*
X192667291Y-100911457D02*
X192810148Y-100840028D01*
X192810148Y-100840028D02*
X193024434Y-100840028D01*
X193024434Y-100840028D02*
X193167291Y-100911457D01*
X193167291Y-100911457D02*
X193238720Y-100982885D01*
X193238720Y-100982885D02*
X193310148Y-101125742D01*
X193310148Y-101125742D02*
X193310148Y-101554314D01*
X193310148Y-101554314D02*
X193238720Y-101697171D01*
X193238720Y-101697171D02*
X193167291Y-101768600D01*
X193167291Y-101768600D02*
X193024434Y-101840028D01*
X193024434Y-101840028D02*
X192810148Y-101840028D01*
X193953005Y-101840028D02*
X193953005Y-100840028D01*
X193953005Y-101125742D02*
X194024434Y-100982885D01*
X194024434Y-100982885D02*
X194095863Y-100911457D01*
X194095863Y-100911457D02*
X194238720Y-100840028D01*
X194238720Y-100840028D02*
X194381577Y-100840028D01*
X194810148Y-101768600D02*
X194953005Y-101840028D01*
X194953005Y-101840028D02*
X195238719Y-101840028D01*
X195238719Y-101840028D02*
X195381576Y-101768600D01*
X195381576Y-101768600D02*
X195453005Y-101625742D01*
X195453005Y-101625742D02*
X195453005Y-101554314D01*
X195453005Y-101554314D02*
X195381576Y-101411457D01*
X195381576Y-101411457D02*
X195238719Y-101340028D01*
X195238719Y-101340028D02*
X195024434Y-101340028D01*
X195024434Y-101340028D02*
X194881576Y-101268600D01*
X194881576Y-101268600D02*
X194810148Y-101125742D01*
X194810148Y-101125742D02*
X194810148Y-101054314D01*
X194810148Y-101054314D02*
X194881576Y-100911457D01*
X194881576Y-100911457D02*
X195024434Y-100840028D01*
X195024434Y-100840028D02*
X195238719Y-100840028D01*
X195238719Y-100840028D02*
X195381576Y-100911457D01*
X196095862Y-101697171D02*
X196167291Y-101768600D01*
X196167291Y-101768600D02*
X196095862Y-101840028D01*
X196095862Y-101840028D02*
X196024434Y-101768600D01*
X196024434Y-101768600D02*
X196095862Y-101697171D01*
X196095862Y-101697171D02*
X196095862Y-101840028D01*
X196095862Y-100911457D02*
X196167291Y-100982885D01*
X196167291Y-100982885D02*
X196095862Y-101054314D01*
X196095862Y-101054314D02*
X196024434Y-100982885D01*
X196024434Y-100982885D02*
X196095862Y-100911457D01*
X196095862Y-100911457D02*
X196095862Y-101054314D01*
D12*
X132904821Y-95484848D02*
X132888949Y-95500720D01*
X132888949Y-95500720D02*
X132841335Y-95516591D01*
X132841335Y-95516591D02*
X132809592Y-95516591D01*
X132809592Y-95516591D02*
X132761978Y-95500720D01*
X132761978Y-95500720D02*
X132730235Y-95468977D01*
X132730235Y-95468977D02*
X132714364Y-95437234D01*
X132714364Y-95437234D02*
X132698492Y-95373748D01*
X132698492Y-95373748D02*
X132698492Y-95326134D01*
X132698492Y-95326134D02*
X132714364Y-95262648D01*
X132714364Y-95262648D02*
X132730235Y-95230905D01*
X132730235Y-95230905D02*
X132761978Y-95199162D01*
X132761978Y-95199162D02*
X132809592Y-95183291D01*
X132809592Y-95183291D02*
X132841335Y-95183291D01*
X132841335Y-95183291D02*
X132888949Y-95199162D01*
X132888949Y-95199162D02*
X132904821Y-95215034D01*
X133095278Y-95516591D02*
X133063535Y-95500720D01*
X133063535Y-95500720D02*
X133047664Y-95484848D01*
X133047664Y-95484848D02*
X133031792Y-95453105D01*
X133031792Y-95453105D02*
X133031792Y-95357877D01*
X133031792Y-95357877D02*
X133047664Y-95326134D01*
X133047664Y-95326134D02*
X133063535Y-95310262D01*
X133063535Y-95310262D02*
X133095278Y-95294391D01*
X133095278Y-95294391D02*
X133142892Y-95294391D01*
X133142892Y-95294391D02*
X133174635Y-95310262D01*
X133174635Y-95310262D02*
X133190507Y-95326134D01*
X133190507Y-95326134D02*
X133206378Y-95357877D01*
X133206378Y-95357877D02*
X133206378Y-95453105D01*
X133206378Y-95453105D02*
X133190507Y-95484848D01*
X133190507Y-95484848D02*
X133174635Y-95500720D01*
X133174635Y-95500720D02*
X133142892Y-95516591D01*
X133142892Y-95516591D02*
X133095278Y-95516591D01*
X133349221Y-95294391D02*
X133349221Y-95627691D01*
X133349221Y-95310262D02*
X133380964Y-95294391D01*
X133380964Y-95294391D02*
X133444449Y-95294391D01*
X133444449Y-95294391D02*
X133476192Y-95310262D01*
X133476192Y-95310262D02*
X133492064Y-95326134D01*
X133492064Y-95326134D02*
X133507935Y-95357877D01*
X133507935Y-95357877D02*
X133507935Y-95453105D01*
X133507935Y-95453105D02*
X133492064Y-95484848D01*
X133492064Y-95484848D02*
X133476192Y-95500720D01*
X133476192Y-95500720D02*
X133444449Y-95516591D01*
X133444449Y-95516591D02*
X133380964Y-95516591D01*
X133380964Y-95516591D02*
X133349221Y-95500720D01*
X133650778Y-95294391D02*
X133650778Y-95627691D01*
X133650778Y-95310262D02*
X133682521Y-95294391D01*
X133682521Y-95294391D02*
X133746006Y-95294391D01*
X133746006Y-95294391D02*
X133777749Y-95310262D01*
X133777749Y-95310262D02*
X133793621Y-95326134D01*
X133793621Y-95326134D02*
X133809492Y-95357877D01*
X133809492Y-95357877D02*
X133809492Y-95453105D01*
X133809492Y-95453105D02*
X133793621Y-95484848D01*
X133793621Y-95484848D02*
X133777749Y-95500720D01*
X133777749Y-95500720D02*
X133746006Y-95516591D01*
X133746006Y-95516591D02*
X133682521Y-95516591D01*
X133682521Y-95516591D02*
X133650778Y-95500720D01*
X134079306Y-95500720D02*
X134047563Y-95516591D01*
X134047563Y-95516591D02*
X133984078Y-95516591D01*
X133984078Y-95516591D02*
X133952335Y-95500720D01*
X133952335Y-95500720D02*
X133936463Y-95468977D01*
X133936463Y-95468977D02*
X133936463Y-95342005D01*
X133936463Y-95342005D02*
X133952335Y-95310262D01*
X133952335Y-95310262D02*
X133984078Y-95294391D01*
X133984078Y-95294391D02*
X134047563Y-95294391D01*
X134047563Y-95294391D02*
X134079306Y-95310262D01*
X134079306Y-95310262D02*
X134095178Y-95342005D01*
X134095178Y-95342005D02*
X134095178Y-95373748D01*
X134095178Y-95373748D02*
X133936463Y-95405491D01*
X134238021Y-95516591D02*
X134238021Y-95294391D01*
X134238021Y-95357877D02*
X134253892Y-95326134D01*
X134253892Y-95326134D02*
X134269764Y-95310262D01*
X134269764Y-95310262D02*
X134301506Y-95294391D01*
X134301506Y-95294391D02*
X134333249Y-95294391D01*
X131976243Y-79834091D02*
X131976243Y-79500791D01*
X132166700Y-79834091D02*
X132023857Y-79643634D01*
X132166700Y-79500791D02*
X131976243Y-79691248D01*
X132436514Y-79818220D02*
X132404771Y-79834091D01*
X132404771Y-79834091D02*
X132341286Y-79834091D01*
X132341286Y-79834091D02*
X132309543Y-79818220D01*
X132309543Y-79818220D02*
X132293671Y-79786477D01*
X132293671Y-79786477D02*
X132293671Y-79659505D01*
X132293671Y-79659505D02*
X132309543Y-79627762D01*
X132309543Y-79627762D02*
X132341286Y-79611891D01*
X132341286Y-79611891D02*
X132404771Y-79611891D01*
X132404771Y-79611891D02*
X132436514Y-79627762D01*
X132436514Y-79627762D02*
X132452386Y-79659505D01*
X132452386Y-79659505D02*
X132452386Y-79691248D01*
X132452386Y-79691248D02*
X132293671Y-79722991D01*
X132722200Y-79818220D02*
X132690457Y-79834091D01*
X132690457Y-79834091D02*
X132626972Y-79834091D01*
X132626972Y-79834091D02*
X132595229Y-79818220D01*
X132595229Y-79818220D02*
X132579357Y-79786477D01*
X132579357Y-79786477D02*
X132579357Y-79659505D01*
X132579357Y-79659505D02*
X132595229Y-79627762D01*
X132595229Y-79627762D02*
X132626972Y-79611891D01*
X132626972Y-79611891D02*
X132690457Y-79611891D01*
X132690457Y-79611891D02*
X132722200Y-79627762D01*
X132722200Y-79627762D02*
X132738072Y-79659505D01*
X132738072Y-79659505D02*
X132738072Y-79691248D01*
X132738072Y-79691248D02*
X132579357Y-79722991D01*
X132880915Y-79611891D02*
X132880915Y-79945191D01*
X132880915Y-79627762D02*
X132912658Y-79611891D01*
X132912658Y-79611891D02*
X132976143Y-79611891D01*
X132976143Y-79611891D02*
X133007886Y-79627762D01*
X133007886Y-79627762D02*
X133023758Y-79643634D01*
X133023758Y-79643634D02*
X133039629Y-79675377D01*
X133039629Y-79675377D02*
X133039629Y-79770605D01*
X133039629Y-79770605D02*
X133023758Y-79802348D01*
X133023758Y-79802348D02*
X133007886Y-79818220D01*
X133007886Y-79818220D02*
X132976143Y-79834091D01*
X132976143Y-79834091D02*
X132912658Y-79834091D01*
X132912658Y-79834091D02*
X132880915Y-79818220D01*
X132976243Y-96151591D02*
X132976243Y-95818291D01*
X133166700Y-96151591D02*
X133023857Y-95961134D01*
X133166700Y-95818291D02*
X132976243Y-96008748D01*
X133436514Y-96135720D02*
X133404771Y-96151591D01*
X133404771Y-96151591D02*
X133341286Y-96151591D01*
X133341286Y-96151591D02*
X133309543Y-96135720D01*
X133309543Y-96135720D02*
X133293671Y-96103977D01*
X133293671Y-96103977D02*
X133293671Y-95977005D01*
X133293671Y-95977005D02*
X133309543Y-95945262D01*
X133309543Y-95945262D02*
X133341286Y-95929391D01*
X133341286Y-95929391D02*
X133404771Y-95929391D01*
X133404771Y-95929391D02*
X133436514Y-95945262D01*
X133436514Y-95945262D02*
X133452386Y-95977005D01*
X133452386Y-95977005D02*
X133452386Y-96008748D01*
X133452386Y-96008748D02*
X133293671Y-96040491D01*
X133722200Y-96135720D02*
X133690457Y-96151591D01*
X133690457Y-96151591D02*
X133626972Y-96151591D01*
X133626972Y-96151591D02*
X133595229Y-96135720D01*
X133595229Y-96135720D02*
X133579357Y-96103977D01*
X133579357Y-96103977D02*
X133579357Y-95977005D01*
X133579357Y-95977005D02*
X133595229Y-95945262D01*
X133595229Y-95945262D02*
X133626972Y-95929391D01*
X133626972Y-95929391D02*
X133690457Y-95929391D01*
X133690457Y-95929391D02*
X133722200Y-95945262D01*
X133722200Y-95945262D02*
X133738072Y-95977005D01*
X133738072Y-95977005D02*
X133738072Y-96008748D01*
X133738072Y-96008748D02*
X133579357Y-96040491D01*
X133880915Y-95929391D02*
X133880915Y-96262691D01*
X133880915Y-95945262D02*
X133912658Y-95929391D01*
X133912658Y-95929391D02*
X133976143Y-95929391D01*
X133976143Y-95929391D02*
X134007886Y-95945262D01*
X134007886Y-95945262D02*
X134023758Y-95961134D01*
X134023758Y-95961134D02*
X134039629Y-95992877D01*
X134039629Y-95992877D02*
X134039629Y-96088105D01*
X134039629Y-96088105D02*
X134023758Y-96119848D01*
X134023758Y-96119848D02*
X134007886Y-96135720D01*
X134007886Y-96135720D02*
X133976143Y-96151591D01*
X133976143Y-96151591D02*
X133912658Y-96151591D01*
X133912658Y-96151591D02*
X133880915Y-96135720D01*
X131904821Y-77137348D02*
X131888949Y-77153220D01*
X131888949Y-77153220D02*
X131841335Y-77169091D01*
X131841335Y-77169091D02*
X131809592Y-77169091D01*
X131809592Y-77169091D02*
X131761978Y-77153220D01*
X131761978Y-77153220D02*
X131730235Y-77121477D01*
X131730235Y-77121477D02*
X131714364Y-77089734D01*
X131714364Y-77089734D02*
X131698492Y-77026248D01*
X131698492Y-77026248D02*
X131698492Y-76978634D01*
X131698492Y-76978634D02*
X131714364Y-76915148D01*
X131714364Y-76915148D02*
X131730235Y-76883405D01*
X131730235Y-76883405D02*
X131761978Y-76851662D01*
X131761978Y-76851662D02*
X131809592Y-76835791D01*
X131809592Y-76835791D02*
X131841335Y-76835791D01*
X131841335Y-76835791D02*
X131888949Y-76851662D01*
X131888949Y-76851662D02*
X131904821Y-76867534D01*
X132095278Y-77169091D02*
X132063535Y-77153220D01*
X132063535Y-77153220D02*
X132047664Y-77137348D01*
X132047664Y-77137348D02*
X132031792Y-77105605D01*
X132031792Y-77105605D02*
X132031792Y-77010377D01*
X132031792Y-77010377D02*
X132047664Y-76978634D01*
X132047664Y-76978634D02*
X132063535Y-76962762D01*
X132063535Y-76962762D02*
X132095278Y-76946891D01*
X132095278Y-76946891D02*
X132142892Y-76946891D01*
X132142892Y-76946891D02*
X132174635Y-76962762D01*
X132174635Y-76962762D02*
X132190507Y-76978634D01*
X132190507Y-76978634D02*
X132206378Y-77010377D01*
X132206378Y-77010377D02*
X132206378Y-77105605D01*
X132206378Y-77105605D02*
X132190507Y-77137348D01*
X132190507Y-77137348D02*
X132174635Y-77153220D01*
X132174635Y-77153220D02*
X132142892Y-77169091D01*
X132142892Y-77169091D02*
X132095278Y-77169091D01*
X132349221Y-76946891D02*
X132349221Y-77280191D01*
X132349221Y-76962762D02*
X132380964Y-76946891D01*
X132380964Y-76946891D02*
X132444449Y-76946891D01*
X132444449Y-76946891D02*
X132476192Y-76962762D01*
X132476192Y-76962762D02*
X132492064Y-76978634D01*
X132492064Y-76978634D02*
X132507935Y-77010377D01*
X132507935Y-77010377D02*
X132507935Y-77105605D01*
X132507935Y-77105605D02*
X132492064Y-77137348D01*
X132492064Y-77137348D02*
X132476192Y-77153220D01*
X132476192Y-77153220D02*
X132444449Y-77169091D01*
X132444449Y-77169091D02*
X132380964Y-77169091D01*
X132380964Y-77169091D02*
X132349221Y-77153220D01*
X132650778Y-76946891D02*
X132650778Y-77280191D01*
X132650778Y-76962762D02*
X132682521Y-76946891D01*
X132682521Y-76946891D02*
X132746006Y-76946891D01*
X132746006Y-76946891D02*
X132777749Y-76962762D01*
X132777749Y-76962762D02*
X132793621Y-76978634D01*
X132793621Y-76978634D02*
X132809492Y-77010377D01*
X132809492Y-77010377D02*
X132809492Y-77105605D01*
X132809492Y-77105605D02*
X132793621Y-77137348D01*
X132793621Y-77137348D02*
X132777749Y-77153220D01*
X132777749Y-77153220D02*
X132746006Y-77169091D01*
X132746006Y-77169091D02*
X132682521Y-77169091D01*
X132682521Y-77169091D02*
X132650778Y-77153220D01*
X133079306Y-77153220D02*
X133047563Y-77169091D01*
X133047563Y-77169091D02*
X132984078Y-77169091D01*
X132984078Y-77169091D02*
X132952335Y-77153220D01*
X132952335Y-77153220D02*
X132936463Y-77121477D01*
X132936463Y-77121477D02*
X132936463Y-76994505D01*
X132936463Y-76994505D02*
X132952335Y-76962762D01*
X132952335Y-76962762D02*
X132984078Y-76946891D01*
X132984078Y-76946891D02*
X133047563Y-76946891D01*
X133047563Y-76946891D02*
X133079306Y-76962762D01*
X133079306Y-76962762D02*
X133095178Y-76994505D01*
X133095178Y-76994505D02*
X133095178Y-77026248D01*
X133095178Y-77026248D02*
X132936463Y-77057991D01*
X133238021Y-77169091D02*
X133238021Y-76946891D01*
X133238021Y-77010377D02*
X133253892Y-76978634D01*
X133253892Y-76978634D02*
X133269764Y-76962762D01*
X133269764Y-76962762D02*
X133301506Y-76946891D01*
X133301506Y-76946891D02*
X133333249Y-76946891D01*
X132222250Y-80135791D02*
X132285736Y-80135791D01*
X132285736Y-80135791D02*
X132317479Y-80151662D01*
X132317479Y-80151662D02*
X132349222Y-80183405D01*
X132349222Y-80183405D02*
X132365093Y-80246891D01*
X132365093Y-80246891D02*
X132365093Y-80357991D01*
X132365093Y-80357991D02*
X132349222Y-80421477D01*
X132349222Y-80421477D02*
X132317479Y-80453220D01*
X132317479Y-80453220D02*
X132285736Y-80469091D01*
X132285736Y-80469091D02*
X132222250Y-80469091D01*
X132222250Y-80469091D02*
X132190508Y-80453220D01*
X132190508Y-80453220D02*
X132158765Y-80421477D01*
X132158765Y-80421477D02*
X132142893Y-80357991D01*
X132142893Y-80357991D02*
X132142893Y-80246891D01*
X132142893Y-80246891D02*
X132158765Y-80183405D01*
X132158765Y-80183405D02*
X132190508Y-80151662D01*
X132190508Y-80151662D02*
X132222250Y-80135791D01*
X132650779Y-80246891D02*
X132650779Y-80469091D01*
X132507936Y-80246891D02*
X132507936Y-80421477D01*
X132507936Y-80421477D02*
X132523807Y-80453220D01*
X132523807Y-80453220D02*
X132555550Y-80469091D01*
X132555550Y-80469091D02*
X132603164Y-80469091D01*
X132603164Y-80469091D02*
X132634907Y-80453220D01*
X132634907Y-80453220D02*
X132650779Y-80437348D01*
X132761878Y-80246891D02*
X132888850Y-80246891D01*
X132809493Y-80135791D02*
X132809493Y-80421477D01*
X132809493Y-80421477D02*
X132825364Y-80453220D01*
X132825364Y-80453220D02*
X132857107Y-80469091D01*
X132857107Y-80469091D02*
X132888850Y-80469091D01*
X131563586Y-76359505D02*
X131674686Y-76359505D01*
X131722300Y-76534091D02*
X131563586Y-76534091D01*
X131563586Y-76534091D02*
X131563586Y-76200791D01*
X131563586Y-76200791D02*
X131722300Y-76200791D01*
X131833400Y-76534091D02*
X132007986Y-76311891D01*
X131833400Y-76311891D02*
X132007986Y-76534091D01*
X132134957Y-76311891D02*
X132134957Y-76645191D01*
X132134957Y-76327762D02*
X132166700Y-76311891D01*
X132166700Y-76311891D02*
X132230185Y-76311891D01*
X132230185Y-76311891D02*
X132261928Y-76327762D01*
X132261928Y-76327762D02*
X132277800Y-76343634D01*
X132277800Y-76343634D02*
X132293671Y-76375377D01*
X132293671Y-76375377D02*
X132293671Y-76470605D01*
X132293671Y-76470605D02*
X132277800Y-76502348D01*
X132277800Y-76502348D02*
X132261928Y-76518220D01*
X132261928Y-76518220D02*
X132230185Y-76534091D01*
X132230185Y-76534091D02*
X132166700Y-76534091D01*
X132166700Y-76534091D02*
X132134957Y-76518220D01*
X132484128Y-76534091D02*
X132452385Y-76518220D01*
X132452385Y-76518220D02*
X132436514Y-76502348D01*
X132436514Y-76502348D02*
X132420642Y-76470605D01*
X132420642Y-76470605D02*
X132420642Y-76375377D01*
X132420642Y-76375377D02*
X132436514Y-76343634D01*
X132436514Y-76343634D02*
X132452385Y-76327762D01*
X132452385Y-76327762D02*
X132484128Y-76311891D01*
X132484128Y-76311891D02*
X132531742Y-76311891D01*
X132531742Y-76311891D02*
X132563485Y-76327762D01*
X132563485Y-76327762D02*
X132579357Y-76343634D01*
X132579357Y-76343634D02*
X132595228Y-76375377D01*
X132595228Y-76375377D02*
X132595228Y-76470605D01*
X132595228Y-76470605D02*
X132579357Y-76502348D01*
X132579357Y-76502348D02*
X132563485Y-76518220D01*
X132563485Y-76518220D02*
X132531742Y-76534091D01*
X132531742Y-76534091D02*
X132484128Y-76534091D01*
X132722199Y-76518220D02*
X132753942Y-76534091D01*
X132753942Y-76534091D02*
X132817428Y-76534091D01*
X132817428Y-76534091D02*
X132849171Y-76518220D01*
X132849171Y-76518220D02*
X132865042Y-76486477D01*
X132865042Y-76486477D02*
X132865042Y-76470605D01*
X132865042Y-76470605D02*
X132849171Y-76438862D01*
X132849171Y-76438862D02*
X132817428Y-76422991D01*
X132817428Y-76422991D02*
X132769814Y-76422991D01*
X132769814Y-76422991D02*
X132738071Y-76407120D01*
X132738071Y-76407120D02*
X132722199Y-76375377D01*
X132722199Y-76375377D02*
X132722199Y-76359505D01*
X132722199Y-76359505D02*
X132738071Y-76327762D01*
X132738071Y-76327762D02*
X132769814Y-76311891D01*
X132769814Y-76311891D02*
X132817428Y-76311891D01*
X132817428Y-76311891D02*
X132849171Y-76327762D01*
X133134856Y-76518220D02*
X133103113Y-76534091D01*
X133103113Y-76534091D02*
X133039628Y-76534091D01*
X133039628Y-76534091D02*
X133007885Y-76518220D01*
X133007885Y-76518220D02*
X132992013Y-76486477D01*
X132992013Y-76486477D02*
X132992013Y-76359505D01*
X132992013Y-76359505D02*
X133007885Y-76327762D01*
X133007885Y-76327762D02*
X133039628Y-76311891D01*
X133039628Y-76311891D02*
X133103113Y-76311891D01*
X133103113Y-76311891D02*
X133134856Y-76327762D01*
X133134856Y-76327762D02*
X133150728Y-76359505D01*
X133150728Y-76359505D02*
X133150728Y-76391248D01*
X133150728Y-76391248D02*
X132992013Y-76422991D01*
X133436414Y-76534091D02*
X133436414Y-76200791D01*
X133436414Y-76518220D02*
X133404671Y-76534091D01*
X133404671Y-76534091D02*
X133341185Y-76534091D01*
X133341185Y-76534091D02*
X133309442Y-76518220D01*
X133309442Y-76518220D02*
X133293571Y-76502348D01*
X133293571Y-76502348D02*
X133277699Y-76470605D01*
X133277699Y-76470605D02*
X133277699Y-76375377D01*
X133277699Y-76375377D02*
X133293571Y-76343634D01*
X133293571Y-76343634D02*
X133309442Y-76327762D01*
X133309442Y-76327762D02*
X133341185Y-76311891D01*
X133341185Y-76311891D02*
X133404671Y-76311891D01*
X133404671Y-76311891D02*
X133436414Y-76327762D01*
D13*
X137664552Y-95499046D02*
X137664552Y-95260951D01*
X137807409Y-95546665D02*
X137307409Y-95379999D01*
X137307409Y-95379999D02*
X137807409Y-95213332D01*
X137331219Y-94784761D02*
X137307409Y-94832380D01*
X137307409Y-94832380D02*
X137307409Y-94903809D01*
X137307409Y-94903809D02*
X137331219Y-94975237D01*
X137331219Y-94975237D02*
X137378838Y-95022856D01*
X137378838Y-95022856D02*
X137426457Y-95046666D01*
X137426457Y-95046666D02*
X137521695Y-95070475D01*
X137521695Y-95070475D02*
X137593123Y-95070475D01*
X137593123Y-95070475D02*
X137688361Y-95046666D01*
X137688361Y-95046666D02*
X137735980Y-95022856D01*
X137735980Y-95022856D02*
X137783600Y-94975237D01*
X137783600Y-94975237D02*
X137807409Y-94903809D01*
X137807409Y-94903809D02*
X137807409Y-94856190D01*
X137807409Y-94856190D02*
X137783600Y-94784761D01*
X137783600Y-94784761D02*
X137759790Y-94760952D01*
X137759790Y-94760952D02*
X137593123Y-94760952D01*
X137593123Y-94760952D02*
X137593123Y-94856190D01*
X137807409Y-94546666D02*
X137307409Y-94546666D01*
X137307409Y-94546666D02*
X137807409Y-94260952D01*
X137807409Y-94260952D02*
X137307409Y-94260952D01*
X137807409Y-94022856D02*
X137307409Y-94022856D01*
X137307409Y-94022856D02*
X137307409Y-93903808D01*
X137307409Y-93903808D02*
X137331219Y-93832380D01*
X137331219Y-93832380D02*
X137378838Y-93784761D01*
X137378838Y-93784761D02*
X137426457Y-93760951D01*
X137426457Y-93760951D02*
X137521695Y-93737142D01*
X137521695Y-93737142D02*
X137593123Y-93737142D01*
X137593123Y-93737142D02*
X137688361Y-93760951D01*
X137688361Y-93760951D02*
X137735980Y-93784761D01*
X137735980Y-93784761D02*
X137783600Y-93832380D01*
X137783600Y-93832380D02*
X137807409Y-93903808D01*
X137807409Y-93903808D02*
X137807409Y-94022856D01*
X137807409Y-93141904D02*
X137307409Y-93141904D01*
X137307409Y-93141904D02*
X137307409Y-92951428D01*
X137307409Y-92951428D02*
X137331219Y-92903809D01*
X137331219Y-92903809D02*
X137355028Y-92879999D01*
X137355028Y-92879999D02*
X137402647Y-92856190D01*
X137402647Y-92856190D02*
X137474076Y-92856190D01*
X137474076Y-92856190D02*
X137521695Y-92879999D01*
X137521695Y-92879999D02*
X137545504Y-92903809D01*
X137545504Y-92903809D02*
X137569314Y-92951428D01*
X137569314Y-92951428D02*
X137569314Y-93141904D01*
X137807409Y-92570475D02*
X137783600Y-92618094D01*
X137783600Y-92618094D02*
X137735980Y-92641904D01*
X137735980Y-92641904D02*
X137307409Y-92641904D01*
X137807409Y-92165713D02*
X137545504Y-92165713D01*
X137545504Y-92165713D02*
X137497885Y-92189523D01*
X137497885Y-92189523D02*
X137474076Y-92237142D01*
X137474076Y-92237142D02*
X137474076Y-92332380D01*
X137474076Y-92332380D02*
X137497885Y-92379999D01*
X137783600Y-92165713D02*
X137807409Y-92213332D01*
X137807409Y-92213332D02*
X137807409Y-92332380D01*
X137807409Y-92332380D02*
X137783600Y-92379999D01*
X137783600Y-92379999D02*
X137735980Y-92403808D01*
X137735980Y-92403808D02*
X137688361Y-92403808D01*
X137688361Y-92403808D02*
X137640742Y-92379999D01*
X137640742Y-92379999D02*
X137616933Y-92332380D01*
X137616933Y-92332380D02*
X137616933Y-92213332D01*
X137616933Y-92213332D02*
X137593123Y-92165713D01*
X137474076Y-91927618D02*
X137807409Y-91927618D01*
X137521695Y-91927618D02*
X137497885Y-91903808D01*
X137497885Y-91903808D02*
X137474076Y-91856189D01*
X137474076Y-91856189D02*
X137474076Y-91784761D01*
X137474076Y-91784761D02*
X137497885Y-91737142D01*
X137497885Y-91737142D02*
X137545504Y-91713332D01*
X137545504Y-91713332D02*
X137807409Y-91713332D01*
X137783600Y-91284761D02*
X137807409Y-91332380D01*
X137807409Y-91332380D02*
X137807409Y-91427618D01*
X137807409Y-91427618D02*
X137783600Y-91475237D01*
X137783600Y-91475237D02*
X137735980Y-91499046D01*
X137735980Y-91499046D02*
X137545504Y-91499046D01*
X137545504Y-91499046D02*
X137497885Y-91475237D01*
X137497885Y-91475237D02*
X137474076Y-91427618D01*
X137474076Y-91427618D02*
X137474076Y-91332380D01*
X137474076Y-91332380D02*
X137497885Y-91284761D01*
X137497885Y-91284761D02*
X137545504Y-91260951D01*
X137545504Y-91260951D02*
X137593123Y-91260951D01*
X137593123Y-91260951D02*
X137640742Y-91499046D01*
D14*
X129285714Y-65259819D02*
X129285714Y-64259819D01*
X129857142Y-65259819D02*
X129428571Y-64688390D01*
X129857142Y-64259819D02*
X129285714Y-64831247D01*
X130666666Y-65212200D02*
X130571428Y-65259819D01*
X130571428Y-65259819D02*
X130380952Y-65259819D01*
X130380952Y-65259819D02*
X130285714Y-65212200D01*
X130285714Y-65212200D02*
X130238095Y-65116961D01*
X130238095Y-65116961D02*
X130238095Y-64736009D01*
X130238095Y-64736009D02*
X130285714Y-64640771D01*
X130285714Y-64640771D02*
X130380952Y-64593152D01*
X130380952Y-64593152D02*
X130571428Y-64593152D01*
X130571428Y-64593152D02*
X130666666Y-64640771D01*
X130666666Y-64640771D02*
X130714285Y-64736009D01*
X130714285Y-64736009D02*
X130714285Y-64831247D01*
X130714285Y-64831247D02*
X130238095Y-64926485D01*
X131523809Y-65212200D02*
X131428571Y-65259819D01*
X131428571Y-65259819D02*
X131238095Y-65259819D01*
X131238095Y-65259819D02*
X131142857Y-65212200D01*
X131142857Y-65212200D02*
X131095238Y-65116961D01*
X131095238Y-65116961D02*
X131095238Y-64736009D01*
X131095238Y-64736009D02*
X131142857Y-64640771D01*
X131142857Y-64640771D02*
X131238095Y-64593152D01*
X131238095Y-64593152D02*
X131428571Y-64593152D01*
X131428571Y-64593152D02*
X131523809Y-64640771D01*
X131523809Y-64640771D02*
X131571428Y-64736009D01*
X131571428Y-64736009D02*
X131571428Y-64831247D01*
X131571428Y-64831247D02*
X131095238Y-64926485D01*
X132000000Y-64593152D02*
X132000000Y-65593152D01*
X132000000Y-64640771D02*
X132095238Y-64593152D01*
X132095238Y-64593152D02*
X132285714Y-64593152D01*
X132285714Y-64593152D02*
X132380952Y-64640771D01*
X132380952Y-64640771D02*
X132428571Y-64688390D01*
X132428571Y-64688390D02*
X132476190Y-64783628D01*
X132476190Y-64783628D02*
X132476190Y-65069342D01*
X132476190Y-65069342D02*
X132428571Y-65164580D01*
X132428571Y-65164580D02*
X132380952Y-65212200D01*
X132380952Y-65212200D02*
X132285714Y-65259819D01*
X132285714Y-65259819D02*
X132095238Y-65259819D01*
X132095238Y-65259819D02*
X132000000Y-65212200D01*
X133857143Y-64259819D02*
X134047619Y-64259819D01*
X134047619Y-64259819D02*
X134142857Y-64307438D01*
X134142857Y-64307438D02*
X134238095Y-64402676D01*
X134238095Y-64402676D02*
X134285714Y-64593152D01*
X134285714Y-64593152D02*
X134285714Y-64926485D01*
X134285714Y-64926485D02*
X134238095Y-65116961D01*
X134238095Y-65116961D02*
X134142857Y-65212200D01*
X134142857Y-65212200D02*
X134047619Y-65259819D01*
X134047619Y-65259819D02*
X133857143Y-65259819D01*
X133857143Y-65259819D02*
X133761905Y-65212200D01*
X133761905Y-65212200D02*
X133666667Y-65116961D01*
X133666667Y-65116961D02*
X133619048Y-64926485D01*
X133619048Y-64926485D02*
X133619048Y-64593152D01*
X133619048Y-64593152D02*
X133666667Y-64402676D01*
X133666667Y-64402676D02*
X133761905Y-64307438D01*
X133761905Y-64307438D02*
X133857143Y-64259819D01*
X135142857Y-64593152D02*
X135142857Y-65259819D01*
X134714286Y-64593152D02*
X134714286Y-65116961D01*
X134714286Y-65116961D02*
X134761905Y-65212200D01*
X134761905Y-65212200D02*
X134857143Y-65259819D01*
X134857143Y-65259819D02*
X135000000Y-65259819D01*
X135000000Y-65259819D02*
X135095238Y-65212200D01*
X135095238Y-65212200D02*
X135142857Y-65164580D01*
X135476191Y-64593152D02*
X135857143Y-64593152D01*
X135619048Y-64259819D02*
X135619048Y-65116961D01*
X135619048Y-65116961D02*
X135666667Y-65212200D01*
X135666667Y-65212200D02*
X135761905Y-65259819D01*
X135761905Y-65259819D02*
X135857143Y-65259819D01*
X128761904Y-61719819D02*
X128761904Y-62529342D01*
X128761904Y-62529342D02*
X128809523Y-62624580D01*
X128809523Y-62624580D02*
X128857142Y-62672200D01*
X128857142Y-62672200D02*
X128952380Y-62719819D01*
X128952380Y-62719819D02*
X129142856Y-62719819D01*
X129142856Y-62719819D02*
X129238094Y-62672200D01*
X129238094Y-62672200D02*
X129285713Y-62624580D01*
X129285713Y-62624580D02*
X129333332Y-62529342D01*
X129333332Y-62529342D02*
X129333332Y-61719819D01*
X129761904Y-62672200D02*
X129904761Y-62719819D01*
X129904761Y-62719819D02*
X130142856Y-62719819D01*
X130142856Y-62719819D02*
X130238094Y-62672200D01*
X130238094Y-62672200D02*
X130285713Y-62624580D01*
X130285713Y-62624580D02*
X130333332Y-62529342D01*
X130333332Y-62529342D02*
X130333332Y-62434104D01*
X130333332Y-62434104D02*
X130285713Y-62338866D01*
X130285713Y-62338866D02*
X130238094Y-62291247D01*
X130238094Y-62291247D02*
X130142856Y-62243628D01*
X130142856Y-62243628D02*
X129952380Y-62196009D01*
X129952380Y-62196009D02*
X129857142Y-62148390D01*
X129857142Y-62148390D02*
X129809523Y-62100771D01*
X129809523Y-62100771D02*
X129761904Y-62005533D01*
X129761904Y-62005533D02*
X129761904Y-61910295D01*
X129761904Y-61910295D02*
X129809523Y-61815057D01*
X129809523Y-61815057D02*
X129857142Y-61767438D01*
X129857142Y-61767438D02*
X129952380Y-61719819D01*
X129952380Y-61719819D02*
X130190475Y-61719819D01*
X130190475Y-61719819D02*
X130333332Y-61767438D01*
X131095237Y-62196009D02*
X131238094Y-62243628D01*
X131238094Y-62243628D02*
X131285713Y-62291247D01*
X131285713Y-62291247D02*
X131333332Y-62386485D01*
X131333332Y-62386485D02*
X131333332Y-62529342D01*
X131333332Y-62529342D02*
X131285713Y-62624580D01*
X131285713Y-62624580D02*
X131238094Y-62672200D01*
X131238094Y-62672200D02*
X131142856Y-62719819D01*
X131142856Y-62719819D02*
X130761904Y-62719819D01*
X130761904Y-62719819D02*
X130761904Y-61719819D01*
X130761904Y-61719819D02*
X131095237Y-61719819D01*
X131095237Y-61719819D02*
X131190475Y-61767438D01*
X131190475Y-61767438D02*
X131238094Y-61815057D01*
X131238094Y-61815057D02*
X131285713Y-61910295D01*
X131285713Y-61910295D02*
X131285713Y-62005533D01*
X131285713Y-62005533D02*
X131238094Y-62100771D01*
X131238094Y-62100771D02*
X131190475Y-62148390D01*
X131190475Y-62148390D02*
X131095237Y-62196009D01*
X131095237Y-62196009D02*
X130761904Y-62196009D01*
X133095237Y-62624580D02*
X133047618Y-62672200D01*
X133047618Y-62672200D02*
X132904761Y-62719819D01*
X132904761Y-62719819D02*
X132809523Y-62719819D01*
X132809523Y-62719819D02*
X132666666Y-62672200D01*
X132666666Y-62672200D02*
X132571428Y-62576961D01*
X132571428Y-62576961D02*
X132523809Y-62481723D01*
X132523809Y-62481723D02*
X132476190Y-62291247D01*
X132476190Y-62291247D02*
X132476190Y-62148390D01*
X132476190Y-62148390D02*
X132523809Y-61957914D01*
X132523809Y-61957914D02*
X132571428Y-61862676D01*
X132571428Y-61862676D02*
X132666666Y-61767438D01*
X132666666Y-61767438D02*
X132809523Y-61719819D01*
X132809523Y-61719819D02*
X132904761Y-61719819D01*
X132904761Y-61719819D02*
X133047618Y-61767438D01*
X133047618Y-61767438D02*
X133095237Y-61815057D01*
X133952380Y-62719819D02*
X133952380Y-62196009D01*
X133952380Y-62196009D02*
X133904761Y-62100771D01*
X133904761Y-62100771D02*
X133809523Y-62053152D01*
X133809523Y-62053152D02*
X133619047Y-62053152D01*
X133619047Y-62053152D02*
X133523809Y-62100771D01*
X133952380Y-62672200D02*
X133857142Y-62719819D01*
X133857142Y-62719819D02*
X133619047Y-62719819D01*
X133619047Y-62719819D02*
X133523809Y-62672200D01*
X133523809Y-62672200D02*
X133476190Y-62576961D01*
X133476190Y-62576961D02*
X133476190Y-62481723D01*
X133476190Y-62481723D02*
X133523809Y-62386485D01*
X133523809Y-62386485D02*
X133619047Y-62338866D01*
X133619047Y-62338866D02*
X133857142Y-62338866D01*
X133857142Y-62338866D02*
X133952380Y-62291247D01*
X134428571Y-62719819D02*
X134428571Y-61719819D01*
X134428571Y-62100771D02*
X134523809Y-62053152D01*
X134523809Y-62053152D02*
X134714285Y-62053152D01*
X134714285Y-62053152D02*
X134809523Y-62100771D01*
X134809523Y-62100771D02*
X134857142Y-62148390D01*
X134857142Y-62148390D02*
X134904761Y-62243628D01*
X134904761Y-62243628D02*
X134904761Y-62529342D01*
X134904761Y-62529342D02*
X134857142Y-62624580D01*
X134857142Y-62624580D02*
X134809523Y-62672200D01*
X134809523Y-62672200D02*
X134714285Y-62719819D01*
X134714285Y-62719819D02*
X134523809Y-62719819D01*
X134523809Y-62719819D02*
X134428571Y-62672200D01*
X135476190Y-62719819D02*
X135380952Y-62672200D01*
X135380952Y-62672200D02*
X135333333Y-62576961D01*
X135333333Y-62576961D02*
X135333333Y-61719819D01*
X136238095Y-62672200D02*
X136142857Y-62719819D01*
X136142857Y-62719819D02*
X135952381Y-62719819D01*
X135952381Y-62719819D02*
X135857143Y-62672200D01*
X135857143Y-62672200D02*
X135809524Y-62576961D01*
X135809524Y-62576961D02*
X135809524Y-62196009D01*
X135809524Y-62196009D02*
X135857143Y-62100771D01*
X135857143Y-62100771D02*
X135952381Y-62053152D01*
X135952381Y-62053152D02*
X136142857Y-62053152D01*
X136142857Y-62053152D02*
X136238095Y-62100771D01*
X136238095Y-62100771D02*
X136285714Y-62196009D01*
X136285714Y-62196009D02*
X136285714Y-62291247D01*
X136285714Y-62291247D02*
X135809524Y-62386485D01*
D12*
X133222250Y-96453291D02*
X133285736Y-96453291D01*
X133285736Y-96453291D02*
X133317479Y-96469162D01*
X133317479Y-96469162D02*
X133349222Y-96500905D01*
X133349222Y-96500905D02*
X133365093Y-96564391D01*
X133365093Y-96564391D02*
X133365093Y-96675491D01*
X133365093Y-96675491D02*
X133349222Y-96738977D01*
X133349222Y-96738977D02*
X133317479Y-96770720D01*
X133317479Y-96770720D02*
X133285736Y-96786591D01*
X133285736Y-96786591D02*
X133222250Y-96786591D01*
X133222250Y-96786591D02*
X133190508Y-96770720D01*
X133190508Y-96770720D02*
X133158765Y-96738977D01*
X133158765Y-96738977D02*
X133142893Y-96675491D01*
X133142893Y-96675491D02*
X133142893Y-96564391D01*
X133142893Y-96564391D02*
X133158765Y-96500905D01*
X133158765Y-96500905D02*
X133190508Y-96469162D01*
X133190508Y-96469162D02*
X133222250Y-96453291D01*
X133650779Y-96564391D02*
X133650779Y-96786591D01*
X133507936Y-96564391D02*
X133507936Y-96738977D01*
X133507936Y-96738977D02*
X133523807Y-96770720D01*
X133523807Y-96770720D02*
X133555550Y-96786591D01*
X133555550Y-96786591D02*
X133603164Y-96786591D01*
X133603164Y-96786591D02*
X133634907Y-96770720D01*
X133634907Y-96770720D02*
X133650779Y-96754848D01*
X133761878Y-96564391D02*
X133888850Y-96564391D01*
X133809493Y-96453291D02*
X133809493Y-96738977D01*
X133809493Y-96738977D02*
X133825364Y-96770720D01*
X133825364Y-96770720D02*
X133857107Y-96786591D01*
X133857107Y-96786591D02*
X133888850Y-96786591D01*
X129977005Y-89956027D02*
X129977005Y-89844927D01*
X130151591Y-89797313D02*
X130151591Y-89956027D01*
X130151591Y-89956027D02*
X129818291Y-89956027D01*
X129818291Y-89956027D02*
X129818291Y-89797313D01*
X130151591Y-89686213D02*
X129929391Y-89511628D01*
X129929391Y-89686213D02*
X130151591Y-89511628D01*
X129929391Y-89384656D02*
X130262691Y-89384656D01*
X129945262Y-89384656D02*
X129929391Y-89352914D01*
X129929391Y-89352914D02*
X129929391Y-89289428D01*
X129929391Y-89289428D02*
X129945262Y-89257685D01*
X129945262Y-89257685D02*
X129961134Y-89241814D01*
X129961134Y-89241814D02*
X129992877Y-89225942D01*
X129992877Y-89225942D02*
X130088105Y-89225942D01*
X130088105Y-89225942D02*
X130119848Y-89241814D01*
X130119848Y-89241814D02*
X130135720Y-89257685D01*
X130135720Y-89257685D02*
X130151591Y-89289428D01*
X130151591Y-89289428D02*
X130151591Y-89352914D01*
X130151591Y-89352914D02*
X130135720Y-89384656D01*
X130151591Y-89035485D02*
X130135720Y-89067228D01*
X130135720Y-89067228D02*
X130119848Y-89083099D01*
X130119848Y-89083099D02*
X130088105Y-89098971D01*
X130088105Y-89098971D02*
X129992877Y-89098971D01*
X129992877Y-89098971D02*
X129961134Y-89083099D01*
X129961134Y-89083099D02*
X129945262Y-89067228D01*
X129945262Y-89067228D02*
X129929391Y-89035485D01*
X129929391Y-89035485D02*
X129929391Y-88987871D01*
X129929391Y-88987871D02*
X129945262Y-88956128D01*
X129945262Y-88956128D02*
X129961134Y-88940257D01*
X129961134Y-88940257D02*
X129992877Y-88924385D01*
X129992877Y-88924385D02*
X130088105Y-88924385D01*
X130088105Y-88924385D02*
X130119848Y-88940257D01*
X130119848Y-88940257D02*
X130135720Y-88956128D01*
X130135720Y-88956128D02*
X130151591Y-88987871D01*
X130151591Y-88987871D02*
X130151591Y-89035485D01*
X130135720Y-88797414D02*
X130151591Y-88765671D01*
X130151591Y-88765671D02*
X130151591Y-88702185D01*
X130151591Y-88702185D02*
X130135720Y-88670442D01*
X130135720Y-88670442D02*
X130103977Y-88654571D01*
X130103977Y-88654571D02*
X130088105Y-88654571D01*
X130088105Y-88654571D02*
X130056362Y-88670442D01*
X130056362Y-88670442D02*
X130040491Y-88702185D01*
X130040491Y-88702185D02*
X130040491Y-88749800D01*
X130040491Y-88749800D02*
X130024620Y-88781542D01*
X130024620Y-88781542D02*
X129992877Y-88797414D01*
X129992877Y-88797414D02*
X129977005Y-88797414D01*
X129977005Y-88797414D02*
X129945262Y-88781542D01*
X129945262Y-88781542D02*
X129929391Y-88749800D01*
X129929391Y-88749800D02*
X129929391Y-88702185D01*
X129929391Y-88702185D02*
X129945262Y-88670442D01*
X130135720Y-88384757D02*
X130151591Y-88416500D01*
X130151591Y-88416500D02*
X130151591Y-88479986D01*
X130151591Y-88479986D02*
X130135720Y-88511728D01*
X130135720Y-88511728D02*
X130103977Y-88527600D01*
X130103977Y-88527600D02*
X129977005Y-88527600D01*
X129977005Y-88527600D02*
X129945262Y-88511728D01*
X129945262Y-88511728D02*
X129929391Y-88479986D01*
X129929391Y-88479986D02*
X129929391Y-88416500D01*
X129929391Y-88416500D02*
X129945262Y-88384757D01*
X129945262Y-88384757D02*
X129977005Y-88368886D01*
X129977005Y-88368886D02*
X130008748Y-88368886D01*
X130008748Y-88368886D02*
X130040491Y-88527600D01*
X130151591Y-88083200D02*
X129818291Y-88083200D01*
X130135720Y-88083200D02*
X130151591Y-88114942D01*
X130151591Y-88114942D02*
X130151591Y-88178428D01*
X130151591Y-88178428D02*
X130135720Y-88210171D01*
X130135720Y-88210171D02*
X130119848Y-88226042D01*
X130119848Y-88226042D02*
X130088105Y-88241914D01*
X130088105Y-88241914D02*
X129992877Y-88241914D01*
X129992877Y-88241914D02*
X129961134Y-88226042D01*
X129961134Y-88226042D02*
X129945262Y-88210171D01*
X129945262Y-88210171D02*
X129929391Y-88178428D01*
X129929391Y-88178428D02*
X129929391Y-88114942D01*
X129929391Y-88114942D02*
X129945262Y-88083200D01*
X130119848Y-87480085D02*
X130135720Y-87495957D01*
X130135720Y-87495957D02*
X130151591Y-87543571D01*
X130151591Y-87543571D02*
X130151591Y-87575314D01*
X130151591Y-87575314D02*
X130135720Y-87622928D01*
X130135720Y-87622928D02*
X130103977Y-87654671D01*
X130103977Y-87654671D02*
X130072234Y-87670542D01*
X130072234Y-87670542D02*
X130008748Y-87686414D01*
X130008748Y-87686414D02*
X129961134Y-87686414D01*
X129961134Y-87686414D02*
X129897648Y-87670542D01*
X129897648Y-87670542D02*
X129865905Y-87654671D01*
X129865905Y-87654671D02*
X129834162Y-87622928D01*
X129834162Y-87622928D02*
X129818291Y-87575314D01*
X129818291Y-87575314D02*
X129818291Y-87543571D01*
X129818291Y-87543571D02*
X129834162Y-87495957D01*
X129834162Y-87495957D02*
X129850034Y-87480085D01*
X130151591Y-87289628D02*
X130135720Y-87321371D01*
X130135720Y-87321371D02*
X130119848Y-87337242D01*
X130119848Y-87337242D02*
X130088105Y-87353114D01*
X130088105Y-87353114D02*
X129992877Y-87353114D01*
X129992877Y-87353114D02*
X129961134Y-87337242D01*
X129961134Y-87337242D02*
X129945262Y-87321371D01*
X129945262Y-87321371D02*
X129929391Y-87289628D01*
X129929391Y-87289628D02*
X129929391Y-87242014D01*
X129929391Y-87242014D02*
X129945262Y-87210271D01*
X129945262Y-87210271D02*
X129961134Y-87194400D01*
X129961134Y-87194400D02*
X129992877Y-87178528D01*
X129992877Y-87178528D02*
X130088105Y-87178528D01*
X130088105Y-87178528D02*
X130119848Y-87194400D01*
X130119848Y-87194400D02*
X130135720Y-87210271D01*
X130135720Y-87210271D02*
X130151591Y-87242014D01*
X130151591Y-87242014D02*
X130151591Y-87289628D01*
X129929391Y-87035685D02*
X130262691Y-87035685D01*
X129945262Y-87035685D02*
X129929391Y-87003943D01*
X129929391Y-87003943D02*
X129929391Y-86940457D01*
X129929391Y-86940457D02*
X129945262Y-86908714D01*
X129945262Y-86908714D02*
X129961134Y-86892843D01*
X129961134Y-86892843D02*
X129992877Y-86876971D01*
X129992877Y-86876971D02*
X130088105Y-86876971D01*
X130088105Y-86876971D02*
X130119848Y-86892843D01*
X130119848Y-86892843D02*
X130135720Y-86908714D01*
X130135720Y-86908714D02*
X130151591Y-86940457D01*
X130151591Y-86940457D02*
X130151591Y-87003943D01*
X130151591Y-87003943D02*
X130135720Y-87035685D01*
X129929391Y-86734128D02*
X130262691Y-86734128D01*
X129945262Y-86734128D02*
X129929391Y-86702386D01*
X129929391Y-86702386D02*
X129929391Y-86638900D01*
X129929391Y-86638900D02*
X129945262Y-86607157D01*
X129945262Y-86607157D02*
X129961134Y-86591286D01*
X129961134Y-86591286D02*
X129992877Y-86575414D01*
X129992877Y-86575414D02*
X130088105Y-86575414D01*
X130088105Y-86575414D02*
X130119848Y-86591286D01*
X130119848Y-86591286D02*
X130135720Y-86607157D01*
X130135720Y-86607157D02*
X130151591Y-86638900D01*
X130151591Y-86638900D02*
X130151591Y-86702386D01*
X130151591Y-86702386D02*
X130135720Y-86734128D01*
X130135720Y-86305600D02*
X130151591Y-86337343D01*
X130151591Y-86337343D02*
X130151591Y-86400829D01*
X130151591Y-86400829D02*
X130135720Y-86432571D01*
X130135720Y-86432571D02*
X130103977Y-86448443D01*
X130103977Y-86448443D02*
X129977005Y-86448443D01*
X129977005Y-86448443D02*
X129945262Y-86432571D01*
X129945262Y-86432571D02*
X129929391Y-86400829D01*
X129929391Y-86400829D02*
X129929391Y-86337343D01*
X129929391Y-86337343D02*
X129945262Y-86305600D01*
X129945262Y-86305600D02*
X129977005Y-86289729D01*
X129977005Y-86289729D02*
X130008748Y-86289729D01*
X130008748Y-86289729D02*
X130040491Y-86448443D01*
X130151591Y-86146885D02*
X129929391Y-86146885D01*
X129992877Y-86146885D02*
X129961134Y-86131014D01*
X129961134Y-86131014D02*
X129945262Y-86115143D01*
X129945262Y-86115143D02*
X129929391Y-86083400D01*
X129929391Y-86083400D02*
X129929391Y-86051657D01*
X130151591Y-85686613D02*
X129818291Y-85686613D01*
X130151591Y-85496156D02*
X129961134Y-85638999D01*
X129818291Y-85496156D02*
X130008748Y-85686613D01*
X130135720Y-85226342D02*
X130151591Y-85258085D01*
X130151591Y-85258085D02*
X130151591Y-85321571D01*
X130151591Y-85321571D02*
X130135720Y-85353313D01*
X130135720Y-85353313D02*
X130103977Y-85369185D01*
X130103977Y-85369185D02*
X129977005Y-85369185D01*
X129977005Y-85369185D02*
X129945262Y-85353313D01*
X129945262Y-85353313D02*
X129929391Y-85321571D01*
X129929391Y-85321571D02*
X129929391Y-85258085D01*
X129929391Y-85258085D02*
X129945262Y-85226342D01*
X129945262Y-85226342D02*
X129977005Y-85210471D01*
X129977005Y-85210471D02*
X130008748Y-85210471D01*
X130008748Y-85210471D02*
X130040491Y-85369185D01*
X130135720Y-84940656D02*
X130151591Y-84972399D01*
X130151591Y-84972399D02*
X130151591Y-85035885D01*
X130151591Y-85035885D02*
X130135720Y-85067627D01*
X130135720Y-85067627D02*
X130103977Y-85083499D01*
X130103977Y-85083499D02*
X129977005Y-85083499D01*
X129977005Y-85083499D02*
X129945262Y-85067627D01*
X129945262Y-85067627D02*
X129929391Y-85035885D01*
X129929391Y-85035885D02*
X129929391Y-84972399D01*
X129929391Y-84972399D02*
X129945262Y-84940656D01*
X129945262Y-84940656D02*
X129977005Y-84924785D01*
X129977005Y-84924785D02*
X130008748Y-84924785D01*
X130008748Y-84924785D02*
X130040491Y-85083499D01*
X129929391Y-84781941D02*
X130262691Y-84781941D01*
X129945262Y-84781941D02*
X129929391Y-84750199D01*
X129929391Y-84750199D02*
X129929391Y-84686713D01*
X129929391Y-84686713D02*
X129945262Y-84654970D01*
X129945262Y-84654970D02*
X129961134Y-84639099D01*
X129961134Y-84639099D02*
X129992877Y-84623227D01*
X129992877Y-84623227D02*
X130088105Y-84623227D01*
X130088105Y-84623227D02*
X130119848Y-84639099D01*
X130119848Y-84639099D02*
X130135720Y-84654970D01*
X130135720Y-84654970D02*
X130151591Y-84686713D01*
X130151591Y-84686713D02*
X130151591Y-84750199D01*
X130151591Y-84750199D02*
X130135720Y-84781941D01*
X129818291Y-84162956D02*
X129818291Y-84099470D01*
X129818291Y-84099470D02*
X129834162Y-84067727D01*
X129834162Y-84067727D02*
X129865905Y-84035984D01*
X129865905Y-84035984D02*
X129929391Y-84020113D01*
X129929391Y-84020113D02*
X130040491Y-84020113D01*
X130040491Y-84020113D02*
X130103977Y-84035984D01*
X130103977Y-84035984D02*
X130135720Y-84067727D01*
X130135720Y-84067727D02*
X130151591Y-84099470D01*
X130151591Y-84099470D02*
X130151591Y-84162956D01*
X130151591Y-84162956D02*
X130135720Y-84194699D01*
X130135720Y-84194699D02*
X130103977Y-84226441D01*
X130103977Y-84226441D02*
X130040491Y-84242313D01*
X130040491Y-84242313D02*
X129929391Y-84242313D01*
X129929391Y-84242313D02*
X129865905Y-84226441D01*
X129865905Y-84226441D02*
X129834162Y-84194699D01*
X129834162Y-84194699D02*
X129818291Y-84162956D01*
X129929391Y-83734428D02*
X130151591Y-83734428D01*
X129929391Y-83877270D02*
X130103977Y-83877270D01*
X130103977Y-83877270D02*
X130135720Y-83861399D01*
X130135720Y-83861399D02*
X130151591Y-83829656D01*
X130151591Y-83829656D02*
X130151591Y-83782042D01*
X130151591Y-83782042D02*
X130135720Y-83750299D01*
X130135720Y-83750299D02*
X130119848Y-83734428D01*
X129929391Y-83623328D02*
X129929391Y-83496356D01*
X129818291Y-83575713D02*
X130103977Y-83575713D01*
X130103977Y-83575713D02*
X130135720Y-83559842D01*
X130135720Y-83559842D02*
X130151591Y-83528099D01*
X130151591Y-83528099D02*
X130151591Y-83496356D01*
D14*
%TO.C,H4*%
X107200000Y-79000000D02*
G75*
G02*
X100800000Y-79000000I-3200000J0D01*
G01*
X100800000Y-79000000D02*
G75*
G02*
X107200000Y-79000000I3200000J0D01*
G01*
%TO.C,H1*%
X164200000Y-79000000D02*
G75*
G02*
X157800000Y-79000000I-3200000J0D01*
G01*
X157800000Y-79000000D02*
G75*
G02*
X164200000Y-79000000I3200000J0D01*
G01*
%TO.C,H2*%
X107200000Y-146000000D02*
G75*
G02*
X100800000Y-146000000I-3200000J0D01*
G01*
X100800000Y-146000000D02*
G75*
G02*
X107200000Y-146000000I3200000J0D01*
G01*
%TO.C,H3*%
X164200000Y-146000000D02*
G75*
G02*
X157800000Y-146000000I-3200000J0D01*
G01*
X157800000Y-146000000D02*
G75*
G02*
X164200000Y-146000000I3200000J0D01*
G01*
%TD*%
M02*
