%TF.GenerationSoftware,KiCad,Pcbnew,9.0.5-1.fc42*%
%TF.CreationDate,2025-11-14T19:16:10+10:30*%
%TF.ProjectId,DivaConIO,44697661-436f-46e4-994f-2e6b69636164,1.1*%
%TF.SameCoordinates,Original*%
%TF.FileFunction,Soldermask,Bot*%
%TF.FilePolarity,Negative*%
%FSLAX46Y46*%
G04 Gerber Fmt 4.6, Leading zero omitted, Abs format (unit mm)*
G04 Created by KiCad (PCBNEW 9.0.5-1.fc42) date 2025-11-14 19:16:10*
%MOMM*%
%LPD*%
G01*
G04 APERTURE LIST*
%ADD10C,0.800000*%
%ADD11C,6.400000*%
%ADD12C,2.200000*%
%ADD13C,1.850000*%
G04 APERTURE END LIST*
D10*
%TO.C,H4*%
X109100000Y-49000000D03*
X109802944Y-47302944D03*
X109802944Y-50697056D03*
X111500000Y-46600000D03*
D11*
X111500000Y-49000000D03*
D10*
X111500000Y-51400000D03*
X113197056Y-47302944D03*
X113197056Y-50697056D03*
X113900000Y-49000000D03*
%TD*%
D12*
%TO.C,A1*%
X139775000Y-47000000D03*
D13*
X140075000Y-50030000D03*
X144925000Y-50030000D03*
D12*
X145225000Y-47000000D03*
%TD*%
D10*
%TO.C,H1*%
X171100000Y-49000000D03*
X171802944Y-47302944D03*
X171802944Y-50697056D03*
X173500000Y-46600000D03*
D11*
X173500000Y-49000000D03*
D10*
X173500000Y-51400000D03*
X175197056Y-47302944D03*
X175197056Y-50697056D03*
X175900000Y-49000000D03*
%TD*%
%TO.C,H2*%
X109100000Y-116000000D03*
X109802944Y-114302944D03*
X109802944Y-117697056D03*
X111500000Y-113600000D03*
D11*
X111500000Y-116000000D03*
D10*
X111500000Y-118400000D03*
X113197056Y-114302944D03*
X113197056Y-117697056D03*
X113900000Y-116000000D03*
%TD*%
%TO.C,H3*%
X171100000Y-116000000D03*
X171802944Y-114302944D03*
X171802944Y-117697056D03*
X173500000Y-113600000D03*
D11*
X173500000Y-116000000D03*
D10*
X173500000Y-118400000D03*
X175197056Y-114302944D03*
X175197056Y-117697056D03*
X175900000Y-116000000D03*
%TD*%
G36*
X168193039Y-116519685D02*
G01*
X168238794Y-116572489D01*
X168250000Y-116624000D01*
X168250000Y-119376000D01*
X168230315Y-119443039D01*
X168177511Y-119488794D01*
X168126000Y-119500000D01*
X162374000Y-119500000D01*
X162306961Y-119480315D01*
X162261206Y-119427511D01*
X162250000Y-119376000D01*
X162250000Y-116624000D01*
X162269685Y-116556961D01*
X162322489Y-116511206D01*
X162374000Y-116500000D01*
X168126000Y-116500000D01*
X168193039Y-116519685D01*
G37*
G36*
X167756540Y-116500861D02*
G01*
X167866278Y-116515308D01*
X167891645Y-116522105D01*
X167987762Y-116561918D01*
X168010505Y-116575049D01*
X168093045Y-116638384D01*
X168111615Y-116656954D01*
X168174950Y-116739494D01*
X168188081Y-116762237D01*
X168227894Y-116858354D01*
X168234691Y-116883720D01*
X168249139Y-116993458D01*
X168250000Y-117006590D01*
X168250000Y-118993409D01*
X168249139Y-119006541D01*
X168234691Y-119116279D01*
X168227894Y-119141645D01*
X168188081Y-119237762D01*
X168174950Y-119260505D01*
X168111615Y-119343045D01*
X168093045Y-119361615D01*
X168010505Y-119424950D01*
X167987762Y-119438081D01*
X167891645Y-119477894D01*
X167866279Y-119484691D01*
X167756541Y-119499139D01*
X167743409Y-119500000D01*
X164997400Y-119500000D01*
X164938269Y-119480787D01*
X164901724Y-119430487D01*
X164896800Y-119399400D01*
X164896800Y-116600600D01*
X164916013Y-116541469D01*
X164966313Y-116504924D01*
X164997400Y-116500000D01*
X167743409Y-116500000D01*
X167756540Y-116500861D01*
G37*
M02*
