M48
; DRILL file {KiCad 9.0.5-1.fc42} date 2025-11-08T17:03:39+1030
; FORMAT={-:-/ absolute / metric / decimal}
; #@! TF.CreationDate,2025-11-08T17:03:39+10:30
; #@! TF.GenerationSoftware,Kicad,Pcbnew,9.0.5-1.fc42
; #@! TF.FileFunction,Plated,1,2,PTH
FMAT,2
METRIC
; #@! TA.AperFunction,Plated,PTH,ViaDrill
T1C0.400
; #@! TA.AperFunction,Plated,PTH,ComponentDrill
T2C0.500
; #@! TA.AperFunction,Plated,PTH,ComponentDrill
T3C3.200
%
G90
G05
T1
X101.0Y-85.5
X101.0Y-104.25
X101.0Y-105.25
X101.0Y-119.75
X101.0Y-120.75
X101.0Y-139.5
X102.0Y-85.5
X102.0Y-104.25
X102.0Y-105.25
X102.0Y-119.75
X102.0Y-120.75
X102.0Y-139.5
X102.0Y-141.5
X103.0Y-85.5
X103.0Y-104.25
X103.0Y-105.25
X103.0Y-119.75
X103.0Y-120.75
X103.0Y-139.5
X103.065Y-83.35
X104.0Y-85.5
X104.0Y-104.25
X104.0Y-105.25
X104.0Y-119.75
X104.0Y-120.75
X104.0Y-139.5
X105.0Y-85.5
X105.0Y-104.25
X105.0Y-105.25
X105.0Y-119.75
X105.0Y-120.75
X105.0Y-139.5
X105.0Y-141.5
X105.999Y-118.248
X105.999Y-119.248
X105.999Y-120.248
X105.999Y-121.248
X105.999Y-122.248
X105.999Y-123.248
X106.0Y-85.5
X106.0Y-86.5
X106.0Y-87.5
X106.0Y-88.5
X106.0Y-101.75
X106.0Y-102.75
X106.0Y-103.75
X106.0Y-104.75
X106.0Y-105.75
X106.0Y-106.75
X106.0Y-107.75
X106.0Y-117.25
X106.0Y-136.5
X106.0Y-137.5
X106.0Y-138.5
X106.0Y-139.5
X106.065Y-83.35
X107.5Y-80.5
X108.0Y-137.0
X108.0Y-140.0
X108.0Y-143.0
X108.0Y-146.0
X108.0Y-149.0
X108.4Y-91.0
X108.4Y-93.0
X108.4Y-95.0
X108.4Y-97.0
X108.4Y-99.0
X108.4Y-101.0
X108.4Y-108.4
X108.4Y-110.4
X108.4Y-112.4
X108.4Y-114.4
X108.4Y-116.4
X108.4Y-119.0
X108.4Y-122.0
X108.4Y-124.0
X108.4Y-126.0
X108.4Y-128.0
X108.4Y-130.0
X108.4Y-132.0
X108.4Y-134.0
X109.0Y-104.0
X109.0Y-107.0
X109.4Y-84.6
X109.5Y-78.0
X109.5Y-81.5
X110.4Y-87.0
X110.5Y-144.0
X110.5Y-145.0
X110.5Y-146.0
X110.5Y-147.0
X110.5Y-148.0
X110.5Y-149.0
X111.0Y-134.0
X111.0Y-137.0
X111.0Y-140.0
X111.25Y-79.25
X111.5Y-97.5
X111.5Y-131.0
X111.5Y-144.0
X112.0Y-77.0
X112.0Y-82.0
X112.0Y-85.0
X112.0Y-100.5
X112.5Y-144.0
X113.5Y-144.0
X113.97Y-76.848
X113.97Y-87.008
X113.97Y-89.548
X113.97Y-92.342
X113.97Y-97.168
X113.97Y-99.708
X113.97Y-102.248
X113.97Y-104.788
X114.0Y-80.25
X114.0Y-83.0
X114.0Y-128.5
X114.0Y-131.0
X114.0Y-134.0
X114.0Y-137.0
X114.0Y-138.5
X114.0Y-139.5
X114.0Y-140.5
X114.0Y-141.5
X114.0Y-148.0
X114.986Y-84.468
X114.986Y-87.008
X114.986Y-89.5
X114.986Y-92.342
X114.986Y-97.168
X114.986Y-99.75
X114.986Y-102.25
X114.986Y-104.774
X114.986Y-106.82
X114.986Y-112.916
X115.0Y-76.848
X115.0Y-79.388
X115.0Y-138.5
X115.0Y-139.5
X115.0Y-140.5
X115.0Y-141.5
X115.2Y-118.504
X115.2Y-120.6
X115.494Y-115.456
X115.5Y-126.0
X115.5Y-128.0
X116.0Y-83.0
X116.0Y-131.0
X116.0Y-134.0
X116.0Y-137.0
X116.0Y-139.25
X116.0Y-141.5
X116.0Y-148.0
X116.447Y-108.852
X116.447Y-111.392
X116.5Y-126.0
X117.0Y-138.5
X117.0Y-139.5
X117.0Y-140.5
X117.0Y-141.5
X117.25Y-122.25
X117.25Y-123.75
X118.0Y-83.0
X118.0Y-137.0
X118.0Y-138.5
X118.0Y-139.5
X118.0Y-140.5
X118.0Y-141.5
X118.0Y-148.0
X118.034Y-108.344
X118.047Y-126.0
X118.065Y-95.35
X118.5Y-128.0
X119.0Y-134.0
X119.2Y-126.0
X119.325Y-131.25
X120.0Y-137.0
X120.0Y-139.5
X120.0Y-141.5
X120.0Y-148.0
X120.25Y-76.0
X120.25Y-78.118
X120.25Y-80.75
X120.25Y-83.25
X120.25Y-85.738
X120.25Y-88.278
X120.25Y-90.75
X120.25Y-93.25
X120.25Y-95.644
X120.25Y-98.25
X120.25Y-100.978
X120.25Y-103.518
X120.25Y-106.0
X120.25Y-108.5
X120.25Y-111.138
X120.25Y-113.678
X120.25Y-116.218
X120.25Y-119.0
X120.25Y-121.25
X120.25Y-123.75
X121.4Y-126.6
X122.0Y-129.0
X122.0Y-131.5
X122.0Y-134.0
X122.0Y-137.0
X122.0Y-139.5
X122.0Y-141.5
X122.0Y-148.0
X124.0Y-129.0
X124.0Y-137.0
X124.0Y-139.5
X124.0Y-141.5
X124.0Y-148.0
X124.75Y-131.5
X124.75Y-134.0
X125.4Y-123.8
X125.4Y-125.6
X125.5Y-76.0
X125.5Y-80.75
X125.5Y-83.25
X125.5Y-93.192
X125.5Y-95.732
X125.5Y-106.0
X125.5Y-108.5
X125.5Y-118.75
X125.5Y-121.25
X125.75Y-130.0
X126.0Y-141.5
X126.0Y-148.0
X126.3Y-127.2
X127.0Y-77.0
X127.0Y-80.0
X127.0Y-83.0
X127.0Y-86.0
X127.0Y-89.0
X127.0Y-92.0
X127.0Y-95.0
X127.0Y-98.0
X127.0Y-101.0
X127.0Y-104.0
X127.0Y-110.0
X127.0Y-113.0
X127.0Y-116.0
X127.0Y-119.0
X127.0Y-122.0
X127.5Y-134.0
X127.5Y-137.0
X127.5Y-139.5
X128.0Y-141.5
X128.0Y-148.0
X130.0Y-92.0
X130.0Y-95.0
X130.0Y-98.0
X130.0Y-101.0
X130.0Y-104.0
X130.0Y-107.0
X130.0Y-110.0
X130.0Y-113.0
X130.0Y-116.0
X130.0Y-119.0
X130.0Y-122.0
X130.0Y-130.0
X130.0Y-131.0
X130.0Y-132.003
X130.0Y-134.0
X130.0Y-141.5
X130.0Y-148.0
X130.5Y-137.0
X130.5Y-140.0
X130.5Y-144.0
X131.0Y-78.5
X131.0Y-123.5
X131.5Y-128.0
X131.5Y-144.0
X132.5Y-78.5
X132.5Y-130.0
X132.5Y-134.0
X132.5Y-144.0
X133.0Y-82.0
X133.0Y-84.0
X133.0Y-86.0
X133.0Y-89.0
X133.0Y-92.0
X133.0Y-98.0
X133.0Y-101.0
X133.0Y-104.0
X133.0Y-107.0
X133.0Y-110.0
X133.0Y-113.0
X133.0Y-116.0
X133.0Y-119.0
X133.0Y-122.0
X133.0Y-140.0
X133.5Y-128.0
X133.5Y-144.0
X133.5Y-145.0
X133.5Y-146.0
X133.5Y-147.0
X133.5Y-148.0
X133.5Y-149.0
X134.0Y-78.5
X134.0Y-123.5
X134.2Y-137.0
X134.25Y-130.0
X134.25Y-134.0
X135.0Y-131.0
X135.0Y-132.003
X136.0Y-82.0
X136.0Y-84.0
X136.0Y-86.0
X136.0Y-89.0
X136.0Y-92.0
X136.0Y-95.0
X136.0Y-98.0
X136.0Y-101.0
X136.0Y-104.0
X136.0Y-107.0
X136.0Y-110.0
X136.0Y-113.0
X136.0Y-116.0
X136.0Y-119.0
X136.0Y-122.0
X136.0Y-128.0
X136.0Y-130.0
X136.0Y-134.0
X136.0Y-143.0
X136.0Y-145.5
X136.0Y-148.5
X136.2Y-139.0
X136.5Y-125.0
X136.6Y-137.0
X137.0Y-76.0
X137.0Y-78.5
X138.5Y-130.0
X138.5Y-139.0
X138.5Y-143.0
X139.0Y-76.0
X139.0Y-78.5
X139.0Y-80.5
X139.0Y-83.0
X139.0Y-86.0
X139.0Y-89.0
X139.0Y-92.0
X139.0Y-95.0
X139.0Y-98.0
X139.0Y-101.0
X139.0Y-104.0
X139.0Y-107.0
X139.0Y-110.0
X139.0Y-113.0
X139.0Y-116.0
X139.0Y-119.0
X139.0Y-122.0
X139.0Y-125.0
X139.0Y-128.0
X139.0Y-134.0
X139.0Y-137.0
X139.0Y-140.75
X139.0Y-145.5
X142.0Y-128.0
X142.0Y-134.0
X142.0Y-137.0
X142.0Y-140.75
X142.0Y-145.5
X142.5Y-130.0
X142.5Y-139.0
X142.5Y-143.0
X144.5Y-80.5
X144.75Y-106.0
X144.75Y-108.5
X145.0Y-76.0
X145.0Y-78.0
X145.0Y-89.35
X145.0Y-93.612
X145.0Y-95.644
X145.0Y-98.35
X145.0Y-103.5
X145.0Y-111.25
X145.0Y-113.35
X145.0Y-116.35
X145.0Y-119.012
X145.0Y-121.044
X145.0Y-128.0
X145.0Y-130.0
X145.0Y-134.0
X145.0Y-137.0
X145.0Y-139.0
X145.0Y-140.75
X145.0Y-143.0
X145.0Y-145.5
X145.0Y-147.0
X145.0Y-148.0
X145.0Y-149.0
X146.0Y-82.5
X146.0Y-147.0
X146.482Y-120.09
X146.5Y-86.75
X146.5Y-87.75
X146.5Y-88.75
X146.5Y-127.25
X147.0Y-78.5
X147.0Y-82.5
X147.0Y-147.0
X147.25Y-91.25
X147.25Y-94.0
X147.25Y-97.5
X147.25Y-104.75
X147.4Y-99.4
X147.5Y-86.75
X147.5Y-87.75
X147.5Y-88.75
X147.5Y-108.5
X148.0Y-82.5
X148.0Y-134.0
X148.0Y-137.0
X148.0Y-139.0
X148.0Y-140.75
X148.0Y-142.5
X148.0Y-143.5
X148.25Y-78.5
X148.5Y-86.75
X148.5Y-87.75
X148.5Y-88.75
X148.5Y-122.5
X148.5Y-147.5
X148.5Y-148.5
X149.0Y-82.5
X149.0Y-102.0
X149.0Y-144.5
X149.2Y-110.0
X149.2Y-112.5
X149.2Y-115.0
X149.2Y-117.5
X149.25Y-76.5
X149.25Y-77.5
X149.25Y-78.5
X149.25Y-130.5
X149.5Y-147.5
X149.5Y-148.5
X150.0Y-141.5
X150.25Y-76.5
X150.25Y-77.5
X150.25Y-78.5
X150.25Y-79.5
X150.25Y-92.35
X150.25Y-119.0
X150.25Y-122.0
X150.25Y-125.0
X150.25Y-127.5
X150.5Y-107.0
X150.75Y-97.5
X150.75Y-101.0
X151.0Y-89.5
X151.0Y-110.0
X151.0Y-112.5
X151.0Y-115.75
X151.0Y-134.0
X151.0Y-137.0
X151.0Y-140.0
X151.0Y-143.0
X151.0Y-145.5
X151.0Y-147.0
X151.065Y-83.35
X151.25Y-76.5
X151.25Y-77.5
X151.25Y-78.5
X151.25Y-79.5
X151.25Y-102.75
X151.75Y-94.0
X151.75Y-119.0
X151.75Y-122.0
X151.75Y-125.0
X151.75Y-127.5
X152.0Y-147.0
X152.25Y-131.25
X153.0Y-77.0
X153.0Y-80.0
X153.0Y-82.5
X153.0Y-85.5
X153.0Y-89.0
X153.0Y-147.0
X153.0Y-148.0
X153.0Y-149.0
X153.2Y-130.2
X153.25Y-97.5
X153.25Y-114.75
X153.25Y-119.0
X153.25Y-122.0
X153.25Y-125.0
X153.25Y-127.5
X153.75Y-94.0
X154.0Y-104.0
X154.0Y-107.0
X154.0Y-133.0
X154.0Y-137.0
X154.0Y-140.0
X154.0Y-143.0
X154.0Y-145.5
X154.25Y-99.5
X154.25Y-129.25
X155.0Y-113.0
X155.0Y-116.0
X155.0Y-119.0
X155.0Y-122.0
X155.0Y-125.0
X156.0Y-77.0
X156.0Y-82.5
X156.0Y-85.5
X156.0Y-89.0
X156.0Y-91.0
X156.0Y-93.0
X156.0Y-95.0
X156.0Y-97.0
X156.0Y-98.0
X156.0Y-99.0
X156.0Y-100.0
X156.25Y-128.0
X156.25Y-130.0
X156.25Y-132.0
X156.25Y-134.0
X157.0Y-107.0
X157.0Y-110.0
X157.0Y-140.0
X157.0Y-143.0
X157.0Y-145.5
X158.0Y-104.0
X158.0Y-116.0
X158.0Y-119.0
X158.0Y-122.0
X158.0Y-125.0
X159.0Y-85.5
X159.0Y-86.5
X159.0Y-87.5
X159.0Y-102.5
X159.0Y-103.5
X159.0Y-104.5
X159.0Y-122.5
X159.0Y-123.5
X159.0Y-124.5
X159.0Y-125.5
X159.0Y-137.5
X159.0Y-138.5
X159.0Y-139.5
X159.5Y-82.5
X160.0Y-85.5
X160.0Y-104.5
X160.0Y-107.0
X160.0Y-110.0
X160.0Y-113.5
X160.0Y-122.5
X160.0Y-139.5
X161.0Y-85.5
X161.0Y-104.5
X161.0Y-119.0
X161.0Y-122.5
X161.0Y-139.5
X162.0Y-85.5
X162.0Y-104.5
X162.0Y-122.5
X162.0Y-139.5
X163.0Y-85.5
X163.0Y-104.5
X163.0Y-107.0
X163.0Y-110.0
X163.0Y-114.5
X163.0Y-122.5
X163.0Y-128.0
X163.0Y-130.0
X163.0Y-132.0
X163.0Y-134.0
X163.0Y-139.5
X163.075Y-111.075
X163.075Y-117.925
X164.0Y-85.5
X164.0Y-89.0
X164.0Y-91.0
X164.0Y-93.0
X164.0Y-95.0
X164.0Y-97.0
X164.0Y-99.0
X164.0Y-101.0
X164.0Y-104.5
T2
X101.6Y-79.0
X101.6Y-146.0
X102.303Y-77.303
X102.303Y-80.697
X102.303Y-144.303
X102.303Y-147.697
X104.0Y-76.6
X104.0Y-81.4
X104.0Y-143.6
X104.0Y-148.4
X105.697Y-77.303
X105.697Y-80.697
X105.697Y-144.303
X105.697Y-147.697
X106.4Y-79.0
X106.4Y-146.0
X158.6Y-79.0
X158.6Y-146.0
X159.303Y-77.303
X159.303Y-80.697
X159.303Y-144.303
X159.303Y-147.697
X161.0Y-76.6
X161.0Y-81.4
X161.0Y-143.6
X161.0Y-148.4
X162.697Y-77.303
X162.697Y-80.697
X162.697Y-144.303
X162.697Y-147.697
X163.4Y-79.0
X163.4Y-146.0
T3
X104.0Y-79.0
X104.0Y-146.0
X161.0Y-79.0
X161.0Y-146.0
M30
