%TF.GenerationSoftware,KiCad,Pcbnew,9.0.5-1.fc42*%
%TF.CreationDate,2025-11-09T01:11:50+10:30*%
%TF.ProjectId,DivaConIO,44697661-436f-46e4-994f-2e6b69636164,1.1*%
%TF.SameCoordinates,Original*%
%TF.FileFunction,Paste,Top*%
%TF.FilePolarity,Positive*%
%FSLAX46Y46*%
G04 Gerber Fmt 4.6, Leading zero omitted, Abs format (unit mm)*
G04 Created by KiCad (PCBNEW 9.0.5-1.fc42) date 2025-11-09 01:11:50*
%MOMM*%
%LPD*%
G01*
G04 APERTURE LIST*
G04 Aperture macros list*
%AMRoundRect*
0 Rectangle with rounded corners*
0 $1 Rounding radius*
0 $2 $3 $4 $5 $6 $7 $8 $9 X,Y pos of 4 corners*
0 Add a 4 corners polygon primitive as box body*
4,1,4,$2,$3,$4,$5,$6,$7,$8,$9,$2,$3,0*
0 Add four circle primitives for the rounded corners*
1,1,$1+$1,$2,$3*
1,1,$1+$1,$4,$5*
1,1,$1+$1,$6,$7*
1,1,$1+$1,$8,$9*
0 Add four rect primitives between the rounded corners*
20,1,$1+$1,$2,$3,$4,$5,0*
20,1,$1+$1,$4,$5,$6,$7,0*
20,1,$1+$1,$6,$7,$8,$9,0*
20,1,$1+$1,$8,$9,$2,$3,0*%
G04 Aperture macros list end*
%ADD10RoundRect,0.250000X-2.500000X0.250000X-2.500000X-0.250000X2.500000X-0.250000X2.500000X0.250000X0*%
%ADD11RoundRect,0.250000X-1.250000X0.550000X-1.250000X-0.550000X1.250000X-0.550000X1.250000X0.550000X0*%
%ADD12RoundRect,0.200000X-0.275000X0.200000X-0.275000X-0.200000X0.275000X-0.200000X0.275000X0.200000X0*%
%ADD13RoundRect,0.250000X0.250000X2.500000X-0.250000X2.500000X-0.250000X-2.500000X0.250000X-2.500000X0*%
%ADD14RoundRect,0.250000X0.550000X1.250000X-0.550000X1.250000X-0.550000X-1.250000X0.550000X-1.250000X0*%
%ADD15RoundRect,0.150000X-0.150000X-0.625000X0.150000X-0.625000X0.150000X0.625000X-0.150000X0.625000X0*%
%ADD16RoundRect,0.250000X-0.350000X-0.650000X0.350000X-0.650000X0.350000X0.650000X-0.350000X0.650000X0*%
%ADD17RoundRect,0.120000X-0.280000X0.480000X-0.280000X-0.480000X0.280000X-0.480000X0.280000X0.480000X0*%
%ADD18RoundRect,0.150000X-0.587500X-0.150000X0.587500X-0.150000X0.587500X0.150000X-0.587500X0.150000X0*%
%ADD19RoundRect,0.200000X0.275000X-0.200000X0.275000X0.200000X-0.275000X0.200000X-0.275000X-0.200000X0*%
%ADD20RoundRect,0.225000X0.225000X0.250000X-0.225000X0.250000X-0.225000X-0.250000X0.225000X-0.250000X0*%
%ADD21RoundRect,0.225000X-0.250000X0.225000X-0.250000X-0.225000X0.250000X-0.225000X0.250000X0.225000X0*%
%ADD22RoundRect,0.200000X-0.200000X-0.275000X0.200000X-0.275000X0.200000X0.275000X-0.200000X0.275000X0*%
%ADD23RoundRect,0.250000X2.500000X-0.250000X2.500000X0.250000X-2.500000X0.250000X-2.500000X-0.250000X0*%
%ADD24RoundRect,0.250000X1.250000X-0.550000X1.250000X0.550000X-1.250000X0.550000X-1.250000X-0.550000X0*%
%ADD25RoundRect,0.150000X-0.150000X0.650000X-0.150000X-0.650000X0.150000X-0.650000X0.150000X0.650000X0*%
%ADD26RoundRect,0.225000X0.250000X-0.225000X0.250000X0.225000X-0.250000X0.225000X-0.250000X-0.225000X0*%
%ADD27R,3.800000X2.200000*%
%ADD28R,2.200000X3.800000*%
%ADD29RoundRect,0.200000X0.200000X0.275000X-0.200000X0.275000X-0.200000X-0.275000X0.200000X-0.275000X0*%
G04 APERTURE END LIST*
D10*
%TO.C,J6*%
X159500000Y-121000000D03*
X159500000Y-123000000D03*
X159500000Y-125000000D03*
X159500000Y-127000000D03*
X159500000Y-129000000D03*
X159500000Y-131000000D03*
X159500000Y-133000000D03*
X159500000Y-135000000D03*
D11*
X161750000Y-118600000D03*
X161750000Y-137400000D03*
%TD*%
D12*
%TO.C,R8*%
X117780000Y-98058000D03*
X117780000Y-99708000D03*
%TD*%
D13*
%TO.C,J4*%
X136500000Y-144500000D03*
X134500000Y-144500000D03*
X132500000Y-144500000D03*
X130500000Y-144500000D03*
X128500000Y-144500000D03*
D14*
X138900000Y-146750000D03*
X126100000Y-146750000D03*
%TD*%
D12*
%TO.C,R6*%
X117780000Y-90438000D03*
X117780000Y-92088000D03*
%TD*%
D15*
%TO.C,J5*%
X131500000Y-136500000D03*
X132500000Y-136500000D03*
X133500000Y-136500000D03*
D16*
X130200000Y-133975000D03*
X134800000Y-133975000D03*
%TD*%
D17*
%TO.C,SW1*%
X163075000Y-108425000D03*
X163075000Y-112575000D03*
X160925000Y-108425000D03*
X160925000Y-112575000D03*
%TD*%
D18*
%TO.C,Q4*%
X149354500Y-103584000D03*
X149354500Y-105484000D03*
X151229500Y-104534000D03*
%TD*%
D19*
%TO.C,R30*%
X149022000Y-113550000D03*
X149022000Y-111900000D03*
%TD*%
D12*
%TO.C,R29*%
X147244000Y-113806000D03*
X147244000Y-115456000D03*
%TD*%
%TO.C,R9*%
X117780000Y-115838000D03*
X117780000Y-117488000D03*
%TD*%
D20*
%TO.C,C5*%
X148844000Y-131712000D03*
X147294000Y-131712000D03*
%TD*%
D21*
%TO.C,C2*%
X146736000Y-79883000D03*
X146736000Y-81433000D03*
%TD*%
D12*
%TO.C,R2*%
X117780000Y-77738000D03*
X117780000Y-79388000D03*
%TD*%
%TO.C,R4*%
X117780000Y-85358000D03*
X117780000Y-87008000D03*
%TD*%
D22*
%TO.C,R18*%
X147244000Y-101994000D03*
X148894000Y-101994000D03*
%TD*%
D12*
%TO.C,R12*%
X117780000Y-103138000D03*
X117780000Y-104788000D03*
%TD*%
D23*
%TO.C,J3*%
X105250000Y-135000000D03*
X105250000Y-133000000D03*
X105250000Y-131000000D03*
X105250000Y-129000000D03*
X105250000Y-127000000D03*
X105250000Y-125000000D03*
D24*
X103000000Y-137400000D03*
X103000000Y-122600000D03*
%TD*%
D25*
%TO.C,U1*%
X149019000Y-127260000D03*
X148069000Y-127260000D03*
X147119000Y-127260000D03*
X147119000Y-129560000D03*
X149019000Y-129560000D03*
%TD*%
D12*
%TO.C,R13*%
X117780000Y-123433000D03*
X117780000Y-125083000D03*
%TD*%
D19*
%TO.C,R20*%
X147244000Y-96723000D03*
X147244000Y-95073000D03*
%TD*%
D23*
%TO.C,J1*%
X105250000Y-100000000D03*
X105250000Y-98000000D03*
X105250000Y-96000000D03*
X105250000Y-94000000D03*
X105250000Y-92000000D03*
X105250000Y-90000000D03*
D24*
X103000000Y-102400000D03*
X103000000Y-87600000D03*
%TD*%
D19*
%TO.C,R19*%
X147244000Y-92088000D03*
X147244000Y-90438000D03*
%TD*%
%TO.C,R22*%
X147244000Y-105359000D03*
X147244000Y-103709000D03*
%TD*%
D26*
%TO.C,C4*%
X148768000Y-87008000D03*
X148768000Y-85458000D03*
%TD*%
D23*
%TO.C,J2*%
X105250000Y-115500000D03*
X105250000Y-113500000D03*
X105250000Y-111500000D03*
X105250000Y-109500000D03*
D24*
X103000000Y-117900000D03*
X103000000Y-107100000D03*
%TD*%
D27*
%TO.C,A1*%
X122810000Y-76870000D03*
X122810000Y-79410000D03*
X122810000Y-81950000D03*
X122810000Y-84490000D03*
X122810000Y-87030000D03*
X122810000Y-89570000D03*
X122810000Y-92110000D03*
X122810000Y-94650000D03*
X122810000Y-97190000D03*
X122810000Y-99730000D03*
X122810000Y-102270000D03*
X122810000Y-104810000D03*
X122810000Y-107350000D03*
X122810000Y-109890000D03*
X122810000Y-112430000D03*
X122810000Y-114970000D03*
X122810000Y-117510000D03*
X122810000Y-120050000D03*
X122810000Y-122590000D03*
X122810000Y-125130000D03*
D28*
X129960000Y-125700000D03*
X132500000Y-125700000D03*
X135040000Y-125700000D03*
D27*
X142190000Y-76870000D03*
X142190000Y-79410000D03*
X142190000Y-81950000D03*
X142190000Y-84490000D03*
X142190000Y-87030000D03*
X142190000Y-89570000D03*
X142190000Y-92110000D03*
X142190000Y-94650000D03*
X142190000Y-97190000D03*
X142190000Y-99730000D03*
X142190000Y-102270000D03*
X142190000Y-104810000D03*
X142190000Y-107350000D03*
X142190000Y-109890000D03*
X142190000Y-112430000D03*
X142190000Y-114970000D03*
X142190000Y-117510000D03*
X142190000Y-120050000D03*
X142190000Y-122590000D03*
X142190000Y-125130000D03*
%TD*%
D18*
%TO.C,Q1*%
X149354500Y-90376000D03*
X149354500Y-92276000D03*
X151229500Y-91326000D03*
%TD*%
D19*
%TO.C,R24*%
X153340000Y-92151000D03*
X153340000Y-90501000D03*
%TD*%
D18*
%TO.C,Q3*%
X149354500Y-98504000D03*
X149354500Y-100404000D03*
X151229500Y-99454000D03*
%TD*%
D19*
%TO.C,R5*%
X115748000Y-91198000D03*
X115748000Y-89548000D03*
%TD*%
D12*
%TO.C,R31*%
X149022000Y-108726000D03*
X149022000Y-110376000D03*
%TD*%
%TO.C,R27*%
X153340000Y-98629000D03*
X153340000Y-100279000D03*
%TD*%
D19*
%TO.C,R21*%
X147244000Y-100279000D03*
X147244000Y-98629000D03*
%TD*%
D29*
%TO.C,R15*%
X142989000Y-131013000D03*
X141339000Y-131013000D03*
%TD*%
D19*
%TO.C,R14*%
X115748000Y-111518000D03*
X115748000Y-109868000D03*
%TD*%
%TO.C,R28*%
X147244000Y-118630000D03*
X147244000Y-116980000D03*
%TD*%
D10*
%TO.C,J7*%
X159500000Y-90000000D03*
X159500000Y-92000000D03*
X159500000Y-94000000D03*
X159500000Y-96000000D03*
X159500000Y-98000000D03*
X159500000Y-100000000D03*
D11*
X161750000Y-87600000D03*
X161750000Y-102400000D03*
%TD*%
D18*
%TO.C,Q2*%
X149354500Y-94948000D03*
X149354500Y-96848000D03*
X151229500Y-95898000D03*
%TD*%
D19*
%TO.C,R7*%
X115748000Y-98818000D03*
X115748000Y-97168000D03*
%TD*%
%TO.C,R11*%
X115748000Y-124218000D03*
X115748000Y-122568000D03*
%TD*%
D12*
%TO.C,R25*%
X153340000Y-95073000D03*
X153340000Y-96723000D03*
%TD*%
D19*
%TO.C,R3*%
X115748000Y-86118000D03*
X115748000Y-84468000D03*
%TD*%
D12*
%TO.C,R32*%
X153340000Y-103709000D03*
X153340000Y-105359000D03*
%TD*%
%TO.C,R16*%
X117780000Y-110758000D03*
X117780000Y-112408000D03*
%TD*%
D22*
%TO.C,R23*%
X147244000Y-125108000D03*
X148894000Y-125108000D03*
%TD*%
D19*
%TO.C,R17*%
X115748000Y-116598000D03*
X115748000Y-114948000D03*
%TD*%
D12*
%TO.C,R26*%
X145212000Y-130125000D03*
X145212000Y-131775000D03*
%TD*%
D26*
%TO.C,C3*%
X146736000Y-87008000D03*
X146736000Y-85458000D03*
%TD*%
D19*
%TO.C,R1*%
X115748000Y-78498000D03*
X115748000Y-76848000D03*
%TD*%
D21*
%TO.C,C1*%
X148768000Y-79883000D03*
X148768000Y-81433000D03*
%TD*%
D19*
%TO.C,R10*%
X115748000Y-103898000D03*
X115748000Y-102248000D03*
%TD*%
M02*
