%TF.GenerationSoftware,KiCad,Pcbnew,9.0.5-1.fc42*%
%TF.CreationDate,2025-11-14T19:16:10+10:30*%
%TF.ProjectId,DivaConIO,44697661-436f-46e4-994f-2e6b69636164,1.1*%
%TF.SameCoordinates,Original*%
%TF.FileFunction,Soldermask,Top*%
%TF.FilePolarity,Negative*%
%FSLAX46Y46*%
G04 Gerber Fmt 4.6, Leading zero omitted, Abs format (unit mm)*
G04 Created by KiCad (PCBNEW 9.0.5-1.fc42) date 2025-11-14 19:16:10*
%MOMM*%
%LPD*%
G01*
G04 APERTURE LIST*
G04 Aperture macros list*
%AMRoundRect*
0 Rectangle with rounded corners*
0 $1 Rounding radius*
0 $2 $3 $4 $5 $6 $7 $8 $9 X,Y pos of 4 corners*
0 Add a 4 corners polygon primitive as box body*
4,1,4,$2,$3,$4,$5,$6,$7,$8,$9,$2,$3,0*
0 Add four circle primitives for the rounded corners*
1,1,$1+$1,$2,$3*
1,1,$1+$1,$4,$5*
1,1,$1+$1,$6,$7*
1,1,$1+$1,$8,$9*
0 Add four rect primitives between the rounded corners*
20,1,$1+$1,$2,$3,$4,$5,0*
20,1,$1+$1,$4,$5,$6,$7,0*
20,1,$1+$1,$6,$7,$8,$9,0*
20,1,$1+$1,$8,$9,$2,$3,0*%
%AMFreePoly0*
4,1,37,0.800000,0.796148,0.878414,0.796148,1.032228,0.765552,1.177117,0.705537,1.307515,0.618408,1.418408,0.507515,1.505537,0.377117,1.565552,0.232228,1.596148,0.078414,1.596148,-0.078414,1.565552,-0.232228,1.505537,-0.377117,1.418408,-0.507515,1.307515,-0.618408,1.177117,-0.705537,1.032228,-0.765552,0.878414,-0.796148,0.800000,-0.796148,0.800000,-0.800000,-1.400000,-0.800000,
-1.403843,-0.796157,-1.439018,-0.796157,-1.511114,-0.766294,-1.566294,-0.711114,-1.596157,-0.639018,-1.596157,-0.603843,-1.600000,-0.600000,-1.600000,0.600000,-1.596157,0.603843,-1.596157,0.639018,-1.566294,0.711114,-1.511114,0.766294,-1.439018,0.796157,-1.403843,0.796157,-1.400000,0.800000,0.800000,0.800000,0.800000,0.796148,0.800000,0.796148,$1*%
%AMFreePoly1*
4,1,37,1.403843,0.796157,1.439018,0.796157,1.511114,0.766294,1.566294,0.711114,1.596157,0.639018,1.596157,0.603843,1.600000,0.600000,1.600000,-0.600000,1.596157,-0.603843,1.596157,-0.639018,1.566294,-0.711114,1.511114,-0.766294,1.439018,-0.796157,1.403843,-0.796157,1.400000,-0.800000,-0.800000,-0.800000,-0.800000,-0.796148,-0.878414,-0.796148,-1.032228,-0.765552,-1.177117,-0.705537,
-1.307515,-0.618408,-1.418408,-0.507515,-1.505537,-0.377117,-1.565552,-0.232228,-1.596148,-0.078414,-1.596148,0.078414,-1.565552,0.232228,-1.505537,0.377117,-1.418408,0.507515,-1.307515,0.618408,-1.177117,0.705537,-1.032228,0.765552,-0.878414,0.796148,-0.800000,0.796148,-0.800000,0.800000,1.400000,0.800000,1.403843,0.796157,1.403843,0.796157,$1*%
%AMFreePoly2*
4,1,37,1.600000,0.796148,1.678414,0.796148,1.832228,0.765552,1.977117,0.705537,2.107515,0.618408,2.218408,0.507515,2.305537,0.377117,2.365552,0.232228,2.396148,0.078414,2.396148,-0.078414,2.365552,-0.232228,2.305537,-0.377117,2.218408,-0.507515,2.107515,-0.618408,1.977117,-0.705537,1.832228,-0.765552,1.678414,-0.796148,1.600000,-0.796148,1.600000,-0.800000,-0.600000,-0.800000,
-0.603843,-0.796157,-0.639018,-0.796157,-0.711114,-0.766294,-0.766294,-0.711114,-0.796157,-0.639018,-0.796157,-0.603843,-0.800000,-0.600000,-0.800000,0.600000,-0.796157,0.603843,-0.796157,0.639018,-0.766294,0.711114,-0.711114,0.766294,-0.639018,0.796157,-0.603843,0.796157,-0.600000,0.800000,1.600000,0.800000,1.600000,0.796148,1.600000,0.796148,$1*%
%AMFreePoly3*
4,1,23,0.500000,-0.750000,0.000000,-0.750000,0.000000,-0.745722,-0.065263,-0.745722,-0.191342,-0.711940,-0.304381,-0.646677,-0.396677,-0.554381,-0.461940,-0.441342,-0.495722,-0.315263,-0.495722,-0.250000,-0.500000,-0.250000,-0.500000,0.250000,-0.495722,0.250000,-0.495722,0.315263,-0.461940,0.441342,-0.396677,0.554381,-0.304381,0.646677,-0.191342,0.711940,-0.065263,0.745722,0.000000,0.745722,
0.000000,0.750000,0.500000,0.750000,0.500000,-0.750000,0.500000,-0.750000,$1*%
%AMFreePoly4*
4,1,23,0.000000,0.745722,0.065263,0.745722,0.191342,0.711940,0.304381,0.646677,0.396677,0.554381,0.461940,0.441342,0.495722,0.315263,0.495722,0.250000,0.500000,0.250000,0.500000,-0.250000,0.495722,-0.250000,0.495722,-0.315263,0.461940,-0.441342,0.396677,-0.554381,0.304381,-0.646677,0.191342,-0.711940,0.065263,-0.745722,0.000000,-0.745722,0.000000,-0.750000,-0.500000,-0.750000,
-0.500000,0.750000,0.000000,0.750000,0.000000,0.745722,0.000000,0.745722,$1*%
G04 Aperture macros list end*
%ADD10RoundRect,0.250000X-2.500000X0.250000X-2.500000X-0.250000X2.500000X-0.250000X2.500000X0.250000X0*%
%ADD11RoundRect,0.250000X-1.250000X0.550000X-1.250000X-0.550000X1.250000X-0.550000X1.250000X0.550000X0*%
%ADD12RoundRect,0.150000X-0.825000X-0.150000X0.825000X-0.150000X0.825000X0.150000X-0.825000X0.150000X0*%
%ADD13RoundRect,0.200000X-0.275000X0.200000X-0.275000X-0.200000X0.275000X-0.200000X0.275000X0.200000X0*%
%ADD14C,0.800000*%
%ADD15C,6.400000*%
%ADD16RoundRect,0.250000X-0.312500X-0.625000X0.312500X-0.625000X0.312500X0.625000X-0.312500X0.625000X0*%
%ADD17RoundRect,0.250000X0.250000X2.500000X-0.250000X2.500000X-0.250000X-2.500000X0.250000X-2.500000X0*%
%ADD18RoundRect,0.250000X0.550000X1.250000X-0.550000X1.250000X-0.550000X-1.250000X0.550000X-1.250000X0*%
%ADD19RoundRect,0.150000X-0.150000X-0.625000X0.150000X-0.625000X0.150000X0.625000X-0.150000X0.625000X0*%
%ADD20RoundRect,0.250000X-0.350000X-0.650000X0.350000X-0.650000X0.350000X0.650000X-0.350000X0.650000X0*%
%ADD21RoundRect,0.120000X-0.280000X0.480000X-0.280000X-0.480000X0.280000X-0.480000X0.280000X0.480000X0*%
%ADD22C,1.500000*%
%ADD23RoundRect,0.200000X0.275000X-0.200000X0.275000X0.200000X-0.275000X0.200000X-0.275000X-0.200000X0*%
%ADD24RoundRect,0.225000X0.225000X0.250000X-0.225000X0.250000X-0.225000X-0.250000X0.225000X-0.250000X0*%
%ADD25RoundRect,0.225000X-0.250000X0.225000X-0.250000X-0.225000X0.250000X-0.225000X0.250000X0.225000X0*%
%ADD26C,2.000000*%
%ADD27RoundRect,0.250000X2.500000X-0.250000X2.500000X0.250000X-2.500000X0.250000X-2.500000X-0.250000X0*%
%ADD28RoundRect,0.250000X1.250000X-0.550000X1.250000X0.550000X-1.250000X0.550000X-1.250000X-0.550000X0*%
%ADD29RoundRect,0.150000X-0.150000X0.650000X-0.150000X-0.650000X0.150000X-0.650000X0.150000X0.650000X0*%
%ADD30RoundRect,0.225000X0.250000X-0.225000X0.250000X0.225000X-0.250000X0.225000X-0.250000X-0.225000X0*%
%ADD31C,2.200000*%
%ADD32C,1.850000*%
%ADD33FreePoly0,0.000000*%
%ADD34RoundRect,0.800000X-0.800000X-0.000010X0.800000X-0.000010X0.800000X0.000010X-0.800000X0.000010X0*%
%ADD35FreePoly1,0.000000*%
%ADD36RoundRect,0.800000X0.000010X-0.800000X0.000010X0.800000X-0.000010X0.800000X-0.000010X-0.800000X0*%
%ADD37FreePoly2,270.000000*%
%ADD38FreePoly3,180.000000*%
%ADD39FreePoly4,180.000000*%
%ADD40RoundRect,0.200000X0.200000X0.275000X-0.200000X0.275000X-0.200000X-0.275000X0.200000X-0.275000X0*%
%ADD41RoundRect,0.200000X-0.200000X-0.275000X0.200000X-0.275000X0.200000X0.275000X-0.200000X0.275000X0*%
G04 APERTURE END LIST*
%TO.C,JP1*%
G36*
X158268000Y-47598000D02*
G01*
X157968000Y-47598000D01*
X157968000Y-46098000D01*
X158268000Y-46098000D01*
X158268000Y-47598000D01*
G37*
%TD*%
D10*
%TO.C,J5*%
X172000000Y-91000000D03*
X172000000Y-93000000D03*
X172000000Y-95000000D03*
X172000000Y-97000000D03*
X172000000Y-99000000D03*
X172000000Y-101000000D03*
X172000000Y-103000000D03*
X172000000Y-105000000D03*
D11*
X174250000Y-88600000D03*
X174250000Y-107400000D03*
%TD*%
D12*
%TO.C,U2*%
X157284000Y-62088000D03*
X157284000Y-63358000D03*
X157284000Y-64628000D03*
X157284000Y-65898000D03*
X157284000Y-67168000D03*
X157284000Y-68438000D03*
X157284000Y-69708000D03*
X157284000Y-70978000D03*
X162234000Y-70978000D03*
X162234000Y-69708000D03*
X162234000Y-68438000D03*
X162234000Y-67168000D03*
X162234000Y-65898000D03*
X162234000Y-64628000D03*
X162234000Y-63358000D03*
X162234000Y-62088000D03*
%TD*%
D13*
%TO.C,R13*%
X127780000Y-68058000D03*
X127780000Y-69708000D03*
%TD*%
D14*
%TO.C,H4*%
X109100000Y-49000000D03*
X109802944Y-47302944D03*
X109802944Y-50697056D03*
X111500000Y-46600000D03*
D15*
X111500000Y-49000000D03*
D14*
X111500000Y-51400000D03*
X113197056Y-47302944D03*
X113197056Y-50697056D03*
X113900000Y-49000000D03*
%TD*%
D16*
%TO.C,R23*%
X164650000Y-67803000D03*
X167575000Y-67803000D03*
%TD*%
%TO.C,R24*%
X164650000Y-70343000D03*
X167575000Y-70343000D03*
%TD*%
D17*
%TO.C,J4*%
X146500000Y-114500000D03*
X144500000Y-114500000D03*
X142500000Y-114500000D03*
X140500000Y-114500000D03*
X138500000Y-114500000D03*
D18*
X148900000Y-116750000D03*
X136100000Y-116750000D03*
%TD*%
D13*
%TO.C,R11*%
X127780000Y-60438000D03*
X127780000Y-62088000D03*
%TD*%
D19*
%TO.C,J7*%
X141500000Y-106500000D03*
X142500000Y-106500000D03*
X143500000Y-106500000D03*
D20*
X140200000Y-103975000D03*
X144800000Y-103975000D03*
%TD*%
D21*
%TO.C,SW1*%
X175575000Y-78425000D03*
X175575000Y-82575000D03*
X173425000Y-78425000D03*
X173425000Y-82575000D03*
%TD*%
D22*
%TO.C,FID3*%
X109250000Y-53000000D03*
%TD*%
%TO.C,FID1*%
X175750000Y-112000000D03*
%TD*%
D23*
%TO.C,R3*%
X159022000Y-83550000D03*
X159022000Y-81900000D03*
%TD*%
D13*
%TO.C,R2*%
X157244000Y-83806000D03*
X157244000Y-85456000D03*
%TD*%
%TO.C,R29*%
X127780000Y-85838000D03*
X127780000Y-87488000D03*
%TD*%
D24*
%TO.C,C5*%
X158844000Y-101712000D03*
X157294000Y-101712000D03*
%TD*%
D25*
%TO.C,C2*%
X156736000Y-49883000D03*
X156736000Y-51433000D03*
%TD*%
D13*
%TO.C,R7*%
X127780000Y-47738000D03*
X127780000Y-49388000D03*
%TD*%
%TO.C,R9*%
X127780000Y-55358000D03*
X127780000Y-57008000D03*
%TD*%
D23*
%TO.C,R5*%
X157284000Y-75168000D03*
X157284000Y-73518000D03*
%TD*%
D13*
%TO.C,R15*%
X127780000Y-73138000D03*
X127780000Y-74788000D03*
%TD*%
D26*
%TO.C,TP1*%
X140000000Y-100000000D03*
%TD*%
D27*
%TO.C,J3*%
X113000000Y-105000000D03*
X113000000Y-103000000D03*
X113000000Y-101000000D03*
X113000000Y-99000000D03*
X113000000Y-97000000D03*
X113000000Y-95000000D03*
D28*
X110750000Y-107400000D03*
X110750000Y-92600000D03*
%TD*%
D29*
%TO.C,U1*%
X159019000Y-97260000D03*
X158069000Y-97260000D03*
X157119000Y-97260000D03*
X157119000Y-99560000D03*
X159019000Y-99560000D03*
%TD*%
D13*
%TO.C,R27*%
X127780000Y-93433000D03*
X127780000Y-95083000D03*
%TD*%
D26*
%TO.C,TP7*%
X161308000Y-79614000D03*
%TD*%
D27*
%TO.C,J1*%
X113000000Y-70000000D03*
X113000000Y-68000000D03*
X113000000Y-66000000D03*
X113000000Y-64000000D03*
X113000000Y-62000000D03*
X113000000Y-60000000D03*
D28*
X110750000Y-72400000D03*
X110750000Y-57600000D03*
%TD*%
D30*
%TO.C,C4*%
X158768000Y-57008000D03*
X158768000Y-55458000D03*
%TD*%
D27*
%TO.C,J2*%
X113000000Y-85500000D03*
X113000000Y-83500000D03*
X113000000Y-81500000D03*
X113000000Y-79500000D03*
D28*
X110750000Y-87900000D03*
X110750000Y-77100000D03*
%TD*%
D31*
%TO.C,A1*%
X139775000Y-47000000D03*
D32*
X140075000Y-50030000D03*
X144925000Y-50030000D03*
D31*
X145225000Y-47000000D03*
D33*
X132810000Y-46870000D03*
D34*
X132810000Y-49410000D03*
D35*
X132810000Y-51950000D03*
D34*
X132810000Y-54490000D03*
X132810000Y-57030000D03*
X132810000Y-59570000D03*
X132810000Y-62110000D03*
D35*
X132810000Y-64650000D03*
D34*
X132810000Y-67190000D03*
X132810000Y-69730000D03*
X132810000Y-72270000D03*
X132810000Y-74810000D03*
D35*
X132810000Y-77350000D03*
D34*
X132810000Y-79890000D03*
X132810000Y-82430000D03*
X132810000Y-84970000D03*
X132810000Y-87510000D03*
D35*
X132810000Y-90050000D03*
D34*
X132810000Y-92590000D03*
X132810000Y-95130000D03*
X152190000Y-95130000D03*
X152190000Y-92590000D03*
D33*
X152190000Y-90050000D03*
D34*
X152190000Y-87510000D03*
X152190000Y-84970000D03*
X152190000Y-82430000D03*
X152190000Y-79890000D03*
D33*
X152190000Y-77350000D03*
D34*
X152190000Y-74810000D03*
X152190000Y-72270000D03*
X152190000Y-69730000D03*
X152190000Y-67190000D03*
D33*
X152190000Y-64650000D03*
D34*
X152190000Y-62110000D03*
X152190000Y-59570000D03*
X152190000Y-57030000D03*
X152190000Y-54490000D03*
D33*
X152190000Y-51950000D03*
D34*
X152190000Y-49410000D03*
X152190000Y-46870000D03*
D36*
X139960000Y-95700000D03*
D37*
X142500000Y-94900000D03*
D36*
X145040000Y-95700000D03*
%TD*%
D16*
%TO.C,R22*%
X164650000Y-65263000D03*
X167575000Y-65263000D03*
%TD*%
D22*
%TO.C,FID4*%
X169500000Y-118250000D03*
%TD*%
D26*
%TO.C,TP6*%
X163250000Y-88750000D03*
%TD*%
D14*
%TO.C,H1*%
X171100000Y-49000000D03*
X171802944Y-47302944D03*
X171802944Y-50697056D03*
X173500000Y-46600000D03*
D15*
X173500000Y-49000000D03*
D14*
X173500000Y-51400000D03*
X175197056Y-47302944D03*
X175197056Y-50697056D03*
X175900000Y-49000000D03*
%TD*%
D26*
%TO.C,TP10*%
X162000000Y-73500000D03*
%TD*%
D23*
%TO.C,R10*%
X125748000Y-61198000D03*
X125748000Y-59548000D03*
%TD*%
D13*
%TO.C,R4*%
X159022000Y-78726000D03*
X159022000Y-80376000D03*
%TD*%
D38*
%TO.C,JP1*%
X158768000Y-46848000D03*
D39*
X157468000Y-46848000D03*
%TD*%
D40*
%TO.C,R26*%
X152989000Y-101013000D03*
X151339000Y-101013000D03*
%TD*%
D23*
%TO.C,R16*%
X125748000Y-81518000D03*
X125748000Y-79868000D03*
%TD*%
%TO.C,R1*%
X157244000Y-88630000D03*
X157244000Y-86980000D03*
%TD*%
D10*
%TO.C,J6*%
X172000000Y-60000000D03*
X172000000Y-62000000D03*
X172000000Y-64000000D03*
X172000000Y-66000000D03*
X172000000Y-68000000D03*
X172000000Y-70000000D03*
D11*
X174250000Y-57600000D03*
X174250000Y-72400000D03*
%TD*%
D26*
%TO.C,TP2*%
X145000000Y-100000000D03*
%TD*%
%TO.C,TP11*%
X164500000Y-85000000D03*
%TD*%
D23*
%TO.C,R12*%
X125748000Y-68818000D03*
X125748000Y-67168000D03*
%TD*%
%TO.C,R28*%
X125748000Y-94218000D03*
X125748000Y-92568000D03*
%TD*%
D26*
%TO.C,TP5*%
X155250000Y-105000000D03*
%TD*%
D23*
%TO.C,R8*%
X125748000Y-56118000D03*
X125748000Y-54468000D03*
%TD*%
D26*
%TO.C,TP9*%
X161308000Y-82662000D03*
%TD*%
D14*
%TO.C,H2*%
X109100000Y-116000000D03*
X109802944Y-114302944D03*
X109802944Y-117697056D03*
X111500000Y-113600000D03*
D15*
X111500000Y-116000000D03*
D14*
X111500000Y-118400000D03*
X113197056Y-114302944D03*
X113197056Y-117697056D03*
X113900000Y-116000000D03*
%TD*%
D13*
%TO.C,R17*%
X127780000Y-80758000D03*
X127780000Y-82408000D03*
%TD*%
D41*
%TO.C,R20*%
X157244000Y-95108000D03*
X158894000Y-95108000D03*
%TD*%
D23*
%TO.C,R18*%
X125748000Y-86598000D03*
X125748000Y-84948000D03*
%TD*%
D13*
%TO.C,R19*%
X155212000Y-100125000D03*
X155212000Y-101775000D03*
%TD*%
D26*
%TO.C,TP4*%
X161308000Y-57516000D03*
%TD*%
D22*
%TO.C,FID2*%
X115500000Y-46750000D03*
%TD*%
D26*
%TO.C,TP3*%
X161308000Y-49896000D03*
%TD*%
D30*
%TO.C,C3*%
X156736000Y-57008000D03*
X156736000Y-55458000D03*
%TD*%
D26*
%TO.C,TP12*%
X161308000Y-53452000D03*
%TD*%
D14*
%TO.C,H3*%
X171100000Y-116000000D03*
X171802944Y-114302944D03*
X171802944Y-117697056D03*
X173500000Y-113600000D03*
D15*
X173500000Y-116000000D03*
D14*
X173500000Y-118400000D03*
X175197056Y-114302944D03*
X175197056Y-117697056D03*
X175900000Y-116000000D03*
%TD*%
D26*
%TO.C,TP8*%
X160202000Y-88750000D03*
%TD*%
D23*
%TO.C,R6*%
X125748000Y-48498000D03*
X125748000Y-46848000D03*
%TD*%
D25*
%TO.C,C1*%
X158768000Y-49883000D03*
X158768000Y-51433000D03*
%TD*%
D23*
%TO.C,R14*%
X125748000Y-73898000D03*
X125748000Y-72248000D03*
%TD*%
D16*
%TO.C,R21*%
X164650000Y-62723000D03*
X167575000Y-62723000D03*
%TD*%
G36*
X168193039Y-116519685D02*
G01*
X168238794Y-116572489D01*
X168250000Y-116624000D01*
X168250000Y-119376000D01*
X168230315Y-119443039D01*
X168177511Y-119488794D01*
X168126000Y-119500000D01*
X162374000Y-119500000D01*
X162306961Y-119480315D01*
X162261206Y-119427511D01*
X162250000Y-119376000D01*
X162250000Y-116624000D01*
X162269685Y-116556961D01*
X162322489Y-116511206D01*
X162374000Y-116500000D01*
X168126000Y-116500000D01*
X168193039Y-116519685D01*
G37*
M02*
