%TF.GenerationSoftware,KiCad,Pcbnew,9.0.5-1.fc42*%
%TF.CreationDate,2025-11-08T23:03:24+10:30*%
%TF.ProjectId,DivaConIO,44697661-436f-46e4-994f-2e6b69636164,1.1*%
%TF.SameCoordinates,Original*%
%TF.FileFunction,Copper,L2,Bot*%
%TF.FilePolarity,Positive*%
%FSLAX46Y46*%
G04 Gerber Fmt 4.6, Leading zero omitted, Abs format (unit mm)*
G04 Created by KiCad (PCBNEW 9.0.5-1.fc42) date 2025-11-08 23:03:24*
%MOMM*%
%LPD*%
G01*
G04 APERTURE LIST*
%TA.AperFunction,Conductor*%
%ADD10C,0.300000*%
%TD*%
%ADD11C,0.300000*%
%TA.AperFunction,NonConductor*%
%ADD12C,0.300000*%
%TD*%
%TA.AperFunction,ComponentPad*%
%ADD13C,0.800000*%
%TD*%
%TA.AperFunction,ComponentPad*%
%ADD14C,6.400000*%
%TD*%
%TA.AperFunction,ViaPad*%
%ADD15C,0.700000*%
%TD*%
G04 APERTURE END LIST*
D10*
%TO.N,GND*%
X149900000Y-146650000D02*
X155600000Y-146650000D01*
X152750000Y-146650000D02*
X152750000Y-149350000D01*
X149900000Y-146650000D02*
X149900000Y-149350000D01*
X155600000Y-146650000D02*
X149900000Y-146650000D01*
X155600000Y-149350000D02*
X149900000Y-149350000D01*
X149900000Y-149350000D02*
X149900000Y-146650000D01*
X155600000Y-149350000D02*
X155600000Y-146650000D01*
X155600000Y-149350000D02*
X155600000Y-146650000D01*
X152750000Y-146650000D02*
X152750000Y-149350000D01*
X149900000Y-149350000D02*
X155600000Y-149350000D01*
D11*
D12*
X154677294Y-147321185D02*
X154605866Y-147249757D01*
X154605866Y-147249757D02*
X154463009Y-147178328D01*
X154463009Y-147178328D02*
X154105866Y-147178328D01*
X154105866Y-147178328D02*
X153963009Y-147249757D01*
X153963009Y-147249757D02*
X153891580Y-147321185D01*
X153891580Y-147321185D02*
X153820151Y-147464042D01*
X153820151Y-147464042D02*
X153820151Y-147606900D01*
X153820151Y-147606900D02*
X153891580Y-147821185D01*
X153891580Y-147821185D02*
X154748723Y-148678328D01*
X154748723Y-148678328D02*
X153820151Y-148678328D01*
%TD*%
D13*
%TO.P,H4,1,1*%
%TO.N,GND*%
X101600000Y-79000000D03*
X102302944Y-77302944D03*
X102302944Y-80697056D03*
X104000000Y-76600000D03*
D14*
X104000000Y-79000000D03*
D13*
X104000000Y-81400000D03*
X105697056Y-77302944D03*
X105697056Y-80697056D03*
X106400000Y-79000000D03*
%TD*%
%TO.P,H1,1,1*%
%TO.N,GND*%
X158600000Y-79000000D03*
X159302944Y-77302944D03*
X159302944Y-80697056D03*
X161000000Y-76600000D03*
D14*
X161000000Y-79000000D03*
D13*
X161000000Y-81400000D03*
X162697056Y-77302944D03*
X162697056Y-80697056D03*
X163400000Y-79000000D03*
%TD*%
%TO.P,H2,1,1*%
%TO.N,GND*%
X101600000Y-146000000D03*
X102302944Y-144302944D03*
X102302944Y-147697056D03*
X104000000Y-143600000D03*
D14*
X104000000Y-146000000D03*
D13*
X104000000Y-148400000D03*
X105697056Y-144302944D03*
X105697056Y-147697056D03*
X106400000Y-146000000D03*
%TD*%
%TO.P,H3,1,1*%
%TO.N,GND*%
X158600000Y-146000000D03*
X159302944Y-144302944D03*
X159302944Y-147697056D03*
X161000000Y-143600000D03*
D14*
X161000000Y-146000000D03*
D13*
X161000000Y-148400000D03*
X162697056Y-144302944D03*
X162697056Y-147697056D03*
X163400000Y-146000000D03*
%TD*%
D15*
%TO.N,GND*%
X104250000Y-121000000D03*
X124500000Y-148500000D03*
X120320000Y-82436000D03*
X144704000Y-106820000D03*
X147244000Y-82436000D03*
X132004000Y-123076000D03*
X108750000Y-134500000D03*
X102250000Y-105500000D03*
X163000000Y-109750000D03*
X102250000Y-119500000D03*
X104250000Y-119500000D03*
X103250000Y-86000000D03*
X128500000Y-135500000D03*
X160500000Y-116850000D03*
X139624000Y-120536000D03*
X147244000Y-84468000D03*
X126500000Y-144500000D03*
X134500000Y-135500000D03*
X137000000Y-148000000D03*
X101250000Y-121000000D03*
X160500000Y-86000000D03*
X108750000Y-99500000D03*
X128500000Y-134500000D03*
X161500000Y-104000000D03*
X161500000Y-139150000D03*
X125500000Y-144500000D03*
X139624000Y-106820000D03*
X105250000Y-88000000D03*
X140500000Y-146500000D03*
X163000000Y-133500000D03*
X140500000Y-144500000D03*
X160500000Y-139150000D03*
X104250000Y-104000000D03*
X120320000Y-94120000D03*
X150038000Y-122568000D03*
X159500000Y-117850000D03*
X105250000Y-102000000D03*
X139500000Y-144500000D03*
X159500000Y-88000000D03*
X103250000Y-119500000D03*
X140500000Y-147500000D03*
X129500000Y-135500000D03*
X144704000Y-81420000D03*
X159500000Y-102000000D03*
X108750000Y-135500000D03*
X139624000Y-94120000D03*
X108750000Y-115000000D03*
X135500000Y-132500000D03*
X105250000Y-104000000D03*
X128500000Y-133500000D03*
X101750000Y-116000000D03*
X132500000Y-138000000D03*
X120320000Y-81420000D03*
X133020000Y-128156000D03*
X136500000Y-135500000D03*
X101250000Y-86000000D03*
X120320000Y-106820000D03*
X125400000Y-95136000D03*
X153250000Y-115250000D03*
X162500000Y-139150000D03*
X159500000Y-116850000D03*
X134500000Y-132500000D03*
X130500000Y-135500000D03*
X159500000Y-138150000D03*
X159500000Y-104000000D03*
X125400000Y-106820000D03*
X120320000Y-119520000D03*
X105250000Y-121000000D03*
X149276000Y-84468000D03*
X105250000Y-103000000D03*
X105250000Y-122000000D03*
X108750000Y-100500000D03*
X105250000Y-105500000D03*
X129500000Y-132500000D03*
X139624000Y-81420000D03*
X144704000Y-82436000D03*
X132500000Y-135000000D03*
X163075000Y-114075000D03*
X125400000Y-81420000D03*
X101250000Y-119500000D03*
X159500000Y-86000000D03*
X148260000Y-84468000D03*
X148260000Y-82436000D03*
X156000000Y-133500000D03*
X103250000Y-105500000D03*
X101750000Y-134500000D03*
X139624000Y-107836000D03*
X136000000Y-148000000D03*
X159500000Y-139150000D03*
X125400000Y-94120000D03*
X105250000Y-138000000D03*
X124500000Y-146500000D03*
X128500000Y-132500000D03*
X101750000Y-99500000D03*
X102250000Y-139000000D03*
X103250000Y-121000000D03*
X159500000Y-137150000D03*
X102250000Y-86000000D03*
X140500000Y-145500000D03*
X102250000Y-121000000D03*
X162500000Y-86000000D03*
X138500000Y-144500000D03*
X147498000Y-130442000D03*
X120320000Y-95136000D03*
X132004000Y-128156000D03*
X148133000Y-101105000D03*
X105250000Y-106500000D03*
X101750000Y-135500000D03*
X125400000Y-82436000D03*
X103250000Y-139000000D03*
X146228000Y-84468000D03*
X137000000Y-141000000D03*
X139624000Y-119520000D03*
X163500000Y-86000000D03*
X101750000Y-100500000D03*
X163000000Y-111250000D03*
X124500000Y-144500000D03*
X125400000Y-107836000D03*
X144704000Y-119520000D03*
X162500000Y-116850000D03*
X163000000Y-132500000D03*
X139624000Y-95136000D03*
X105250000Y-139000000D03*
X163500000Y-139150000D03*
X105250000Y-137000000D03*
X160500000Y-104000000D03*
X136500000Y-133500000D03*
X148133000Y-97676000D03*
X105250000Y-87000000D03*
X105250000Y-118500000D03*
X148133000Y-92850000D03*
X159500000Y-103000000D03*
X156000000Y-132500000D03*
X104250000Y-105500000D03*
X103250000Y-104000000D03*
X133020000Y-123076000D03*
X101250000Y-139000000D03*
X105250000Y-117500000D03*
X101250000Y-104000000D03*
X105250000Y-86000000D03*
X144704000Y-107836000D03*
X124500000Y-145500000D03*
X163075000Y-106925000D03*
X144704000Y-120536000D03*
X162500000Y-104000000D03*
X104250000Y-139000000D03*
X136500000Y-134500000D03*
X136000000Y-141000000D03*
X108750000Y-116000000D03*
X130500000Y-132500000D03*
X135500000Y-135500000D03*
X161500000Y-86000000D03*
X148133000Y-106185000D03*
X125400000Y-119520000D03*
X120320000Y-107836000D03*
X159500000Y-87000000D03*
X159500000Y-118850000D03*
X105250000Y-119500000D03*
X153250000Y-116250000D03*
X124500000Y-147500000D03*
X104250000Y-86000000D03*
X105250000Y-123000000D03*
X102250000Y-104000000D03*
X144704000Y-94120000D03*
X139624000Y-82436000D03*
X101750000Y-115000000D03*
X140500000Y-148500000D03*
X136500000Y-132500000D03*
X146228000Y-82436000D03*
X161500000Y-116850000D03*
X125400000Y-120536000D03*
X149276000Y-82436000D03*
X101250000Y-105500000D03*
X144704000Y-95136000D03*
X120320000Y-120536000D03*
X105250000Y-107500000D03*
%TD*%
%TA.AperFunction,Conductor*%
%TO.N,GND*%
G36*
X129430702Y-75519713D02*
G01*
X129467247Y-75570013D01*
X129467247Y-75632187D01*
X129430702Y-75682487D01*
X129402658Y-75696776D01*
X129255053Y-75744735D01*
X129255051Y-75744736D01*
X129065090Y-75841525D01*
X129065086Y-75841527D01*
X128892604Y-75966844D01*
X128741844Y-76117604D01*
X128616527Y-76290086D01*
X128616525Y-76290090D01*
X128519736Y-76480051D01*
X128519735Y-76480053D01*
X128453855Y-76682811D01*
X128453852Y-76682825D01*
X128420500Y-76893394D01*
X128420500Y-77106605D01*
X128453852Y-77317174D01*
X128453855Y-77317188D01*
X128519735Y-77519946D01*
X128519736Y-77519948D01*
X128616525Y-77709909D01*
X128616527Y-77709913D01*
X128741844Y-77882395D01*
X128892604Y-78033155D01*
X129065086Y-78158472D01*
X129065090Y-78158474D01*
X129255051Y-78255263D01*
X129255053Y-78255264D01*
X129457811Y-78321144D01*
X129457813Y-78321144D01*
X129457821Y-78321147D01*
X129668394Y-78354499D01*
X129668396Y-78354500D01*
X129668399Y-78354500D01*
X129881604Y-78354500D01*
X129881604Y-78354499D01*
X130092179Y-78321147D01*
X130294947Y-78255264D01*
X130484913Y-78158472D01*
X130657397Y-78033154D01*
X130808154Y-77882397D01*
X130933472Y-77709913D01*
X131030264Y-77519947D01*
X131096147Y-77317179D01*
X131129500Y-77106601D01*
X131129500Y-76893399D01*
X131129500Y-76893395D01*
X131129499Y-76893394D01*
X131096147Y-76682821D01*
X131030264Y-76480053D01*
X131030263Y-76480051D01*
X130933474Y-76290090D01*
X130933472Y-76290086D01*
X130808155Y-76117604D01*
X130657395Y-75966844D01*
X130484913Y-75841527D01*
X130484909Y-75841525D01*
X130294948Y-75744736D01*
X130294946Y-75744735D01*
X130147342Y-75696776D01*
X130097042Y-75660231D01*
X130077829Y-75601100D01*
X130097042Y-75541969D01*
X130147342Y-75505424D01*
X130178429Y-75500500D01*
X134821571Y-75500500D01*
X134880702Y-75519713D01*
X134917247Y-75570013D01*
X134917247Y-75632187D01*
X134880702Y-75682487D01*
X134852658Y-75696776D01*
X134705053Y-75744735D01*
X134705051Y-75744736D01*
X134515090Y-75841525D01*
X134515086Y-75841527D01*
X134342604Y-75966844D01*
X134191844Y-76117604D01*
X134066527Y-76290086D01*
X134066525Y-76290090D01*
X133969736Y-76480051D01*
X133969735Y-76480053D01*
X133903855Y-76682811D01*
X133903852Y-76682825D01*
X133870500Y-76893394D01*
X133870500Y-77106605D01*
X133903852Y-77317174D01*
X133903855Y-77317188D01*
X133969735Y-77519946D01*
X133969736Y-77519948D01*
X134066525Y-77709909D01*
X134066527Y-77709913D01*
X134191844Y-77882395D01*
X134342604Y-78033155D01*
X134515086Y-78158472D01*
X134515090Y-78158474D01*
X134705051Y-78255263D01*
X134705053Y-78255264D01*
X134907811Y-78321144D01*
X134907813Y-78321144D01*
X134907821Y-78321147D01*
X135118394Y-78354499D01*
X135118396Y-78354500D01*
X135118399Y-78354500D01*
X135331604Y-78354500D01*
X135331604Y-78354499D01*
X135542179Y-78321147D01*
X135744947Y-78255264D01*
X135934913Y-78158472D01*
X136107397Y-78033154D01*
X136258154Y-77882397D01*
X136383472Y-77709913D01*
X136480264Y-77519947D01*
X136546147Y-77317179D01*
X136579500Y-77106601D01*
X136579500Y-76893399D01*
X136579500Y-76893395D01*
X136579499Y-76893394D01*
X136546147Y-76682821D01*
X136480264Y-76480053D01*
X136480263Y-76480051D01*
X136383474Y-76290090D01*
X136383472Y-76290086D01*
X136258155Y-76117604D01*
X136107395Y-75966844D01*
X135934913Y-75841527D01*
X135934909Y-75841525D01*
X135744948Y-75744736D01*
X135744946Y-75744735D01*
X135597342Y-75696776D01*
X135547042Y-75660231D01*
X135527829Y-75601100D01*
X135547042Y-75541969D01*
X135597342Y-75505424D01*
X135628429Y-75500500D01*
X160934108Y-75500500D01*
X160997527Y-75500500D01*
X161002463Y-75500621D01*
X161338089Y-75517109D01*
X161347891Y-75518074D01*
X161677841Y-75567018D01*
X161687500Y-75568939D01*
X162011071Y-75649989D01*
X162020495Y-75652848D01*
X162334560Y-75765223D01*
X162343655Y-75768990D01*
X162645177Y-75911600D01*
X162653883Y-75916253D01*
X162939982Y-76087733D01*
X162948183Y-76093212D01*
X163216091Y-76291907D01*
X163223714Y-76298162D01*
X163470868Y-76522170D01*
X163477829Y-76529131D01*
X163701833Y-76776281D01*
X163708094Y-76783910D01*
X163789296Y-76893399D01*
X163906781Y-77051808D01*
X163912266Y-77060017D01*
X164083746Y-77346116D01*
X164088399Y-77354822D01*
X164231003Y-77656331D01*
X164234781Y-77665452D01*
X164347147Y-77979493D01*
X164350013Y-77988940D01*
X164431057Y-78312487D01*
X164432983Y-78322170D01*
X164481923Y-78652097D01*
X164482891Y-78661922D01*
X164499379Y-78997536D01*
X164499500Y-79002472D01*
X164499500Y-145997527D01*
X164499379Y-146002463D01*
X164482891Y-146338077D01*
X164481923Y-146347902D01*
X164432983Y-146677829D01*
X164431057Y-146687512D01*
X164350013Y-147011059D01*
X164347147Y-147020506D01*
X164234781Y-147334547D01*
X164231003Y-147343668D01*
X164088399Y-147645177D01*
X164083746Y-147653883D01*
X163912266Y-147939982D01*
X163906781Y-147948191D01*
X163708096Y-148216086D01*
X163701833Y-148223718D01*
X163477839Y-148470858D01*
X163470858Y-148477839D01*
X163223718Y-148701833D01*
X163216086Y-148708096D01*
X162948191Y-148906781D01*
X162939982Y-148912266D01*
X162653883Y-149083746D01*
X162645177Y-149088399D01*
X162343668Y-149231003D01*
X162334547Y-149234781D01*
X162020506Y-149347147D01*
X162011059Y-149350013D01*
X161687512Y-149431057D01*
X161677829Y-149432983D01*
X161347902Y-149481923D01*
X161338077Y-149482891D01*
X161002463Y-149499379D01*
X160997527Y-149499500D01*
X104002473Y-149499500D01*
X103997537Y-149499379D01*
X103661922Y-149482891D01*
X103652097Y-149481923D01*
X103322170Y-149432983D01*
X103312487Y-149431057D01*
X102988940Y-149350013D01*
X102979493Y-149347147D01*
X102665452Y-149234781D01*
X102656331Y-149231003D01*
X102590781Y-149200000D01*
X150050000Y-149200000D01*
X155450000Y-149200000D01*
X155450000Y-146800000D01*
X150050000Y-146800000D01*
X150050000Y-149200000D01*
X102590781Y-149200000D01*
X102354822Y-149088399D01*
X102346116Y-149083746D01*
X102060017Y-148912266D01*
X102051808Y-148906781D01*
X101783913Y-148708096D01*
X101776281Y-148701833D01*
X101529131Y-148477829D01*
X101522170Y-148470868D01*
X101298162Y-148223714D01*
X101291903Y-148216086D01*
X101191034Y-148080080D01*
X101093212Y-147948183D01*
X101087733Y-147939982D01*
X100916253Y-147653883D01*
X100911600Y-147645177D01*
X100768990Y-147343655D01*
X100765223Y-147334560D01*
X100652848Y-147020495D01*
X100649989Y-147011071D01*
X100568939Y-146687500D01*
X100567018Y-146677841D01*
X100518074Y-146347891D01*
X100517109Y-146338089D01*
X100500621Y-146002463D01*
X100500500Y-145997527D01*
X100500500Y-79937164D01*
X128895500Y-79937164D01*
X128895500Y-80122835D01*
X128924541Y-80306193D01*
X128924544Y-80306205D01*
X128981915Y-80482773D01*
X129066198Y-80648189D01*
X129066201Y-80648193D01*
X129175326Y-80798391D01*
X129306608Y-80929673D01*
X129456806Y-81038798D01*
X129456810Y-81038801D01*
X129622227Y-81123084D01*
X129622228Y-81123084D01*
X129622229Y-81123085D01*
X129798800Y-81180457D01*
X129798805Y-81180457D01*
X129798806Y-81180458D01*
X129982164Y-81209499D01*
X129982169Y-81209500D01*
X129982171Y-81209500D01*
X130167831Y-81209500D01*
X130167835Y-81209499D01*
X130351200Y-81180457D01*
X130527771Y-81123085D01*
X130693193Y-81038799D01*
X130843393Y-80929672D01*
X130974672Y-80798393D01*
X131083799Y-80648193D01*
X131168085Y-80482771D01*
X131225457Y-80306200D01*
X131254500Y-80122829D01*
X131254500Y-79937171D01*
X131254499Y-79937164D01*
X133745500Y-79937164D01*
X133745500Y-80122835D01*
X133774541Y-80306193D01*
X133774544Y-80306205D01*
X133831915Y-80482773D01*
X133916198Y-80648189D01*
X133916201Y-80648193D01*
X134025326Y-80798391D01*
X134156608Y-80929673D01*
X134306806Y-81038798D01*
X134306810Y-81038801D01*
X134472227Y-81123084D01*
X134472228Y-81123084D01*
X134472229Y-81123085D01*
X134648800Y-81180457D01*
X134648805Y-81180457D01*
X134648806Y-81180458D01*
X134832164Y-81209499D01*
X134832169Y-81209500D01*
X134832171Y-81209500D01*
X135017831Y-81209500D01*
X135017835Y-81209499D01*
X135201200Y-81180457D01*
X135377771Y-81123085D01*
X135543193Y-81038799D01*
X135693393Y-80929672D01*
X135824672Y-80798393D01*
X135933799Y-80648193D01*
X136018085Y-80482771D01*
X136075457Y-80306200D01*
X136104500Y-80122829D01*
X136104500Y-79937171D01*
X136075457Y-79753800D01*
X136018085Y-79577229D01*
X136018084Y-79577228D01*
X136018084Y-79577226D01*
X135933801Y-79411810D01*
X135933798Y-79411806D01*
X135824673Y-79261608D01*
X135693391Y-79130326D01*
X135543193Y-79021201D01*
X135543189Y-79021198D01*
X135377772Y-78936915D01*
X135377773Y-78936915D01*
X135201205Y-78879544D01*
X135201193Y-78879541D01*
X135017835Y-78850500D01*
X135017829Y-78850500D01*
X134832171Y-78850500D01*
X134832164Y-78850500D01*
X134648806Y-78879541D01*
X134648794Y-78879544D01*
X134472226Y-78936915D01*
X134306810Y-79021198D01*
X134306806Y-79021201D01*
X134156608Y-79130326D01*
X134025326Y-79261608D01*
X133916201Y-79411806D01*
X133916198Y-79411810D01*
X133831915Y-79577226D01*
X133774544Y-79753794D01*
X133774541Y-79753806D01*
X133745500Y-79937164D01*
X131254499Y-79937164D01*
X131225457Y-79753800D01*
X131168085Y-79577229D01*
X131168084Y-79577228D01*
X131168084Y-79577226D01*
X131083801Y-79411810D01*
X131083798Y-79411806D01*
X130974673Y-79261608D01*
X130843391Y-79130326D01*
X130693193Y-79021201D01*
X130693189Y-79021198D01*
X130527772Y-78936915D01*
X130527773Y-78936915D01*
X130351205Y-78879544D01*
X130351193Y-78879541D01*
X130167835Y-78850500D01*
X130167829Y-78850500D01*
X129982171Y-78850500D01*
X129982164Y-78850500D01*
X129798806Y-78879541D01*
X129798794Y-78879544D01*
X129622226Y-78936915D01*
X129456810Y-79021198D01*
X129456806Y-79021201D01*
X129306608Y-79130326D01*
X129175326Y-79261608D01*
X129066201Y-79411806D01*
X129066198Y-79411810D01*
X128981915Y-79577226D01*
X128924544Y-79753794D01*
X128924541Y-79753806D01*
X128895500Y-79937164D01*
X100500500Y-79937164D01*
X100500500Y-79002472D01*
X100500621Y-78997536D01*
X100503737Y-78934108D01*
X100517109Y-78661908D01*
X100518074Y-78652110D01*
X100567019Y-78322154D01*
X100568938Y-78312503D01*
X100649991Y-77988922D01*
X100652846Y-77979510D01*
X100765226Y-77665432D01*
X100768987Y-77656351D01*
X100911604Y-77354814D01*
X100916253Y-77346116D01*
X100933600Y-77317174D01*
X101087739Y-77060007D01*
X101093205Y-77051826D01*
X101291915Y-76783898D01*
X101298154Y-76776295D01*
X101522179Y-76529121D01*
X101529121Y-76522179D01*
X101776295Y-76298154D01*
X101783898Y-76291915D01*
X102051826Y-76093205D01*
X102060007Y-76087739D01*
X102346116Y-75916253D01*
X102354814Y-75911604D01*
X102656351Y-75768987D01*
X102665432Y-75765226D01*
X102979510Y-75652846D01*
X102988922Y-75649991D01*
X103312503Y-75568938D01*
X103322154Y-75567019D01*
X103652110Y-75518074D01*
X103661908Y-75517109D01*
X103997537Y-75500621D01*
X104002473Y-75500500D01*
X104065892Y-75500500D01*
X129371571Y-75500500D01*
X129430702Y-75519713D01*
G37*
%TD.AperFunction*%
%TD*%
M02*
