%TF.GenerationSoftware,KiCad,Pcbnew,9.0.5-1.fc42*%
%TF.CreationDate,2025-11-14T19:16:10+10:30*%
%TF.ProjectId,DivaConIO,44697661-436f-46e4-994f-2e6b69636164,1.1*%
%TF.SameCoordinates,Original*%
%TF.FileFunction,Legend,Bot*%
%TF.FilePolarity,Positive*%
%FSLAX46Y46*%
G04 Gerber Fmt 4.6, Leading zero omitted, Abs format (unit mm)*
G04 Created by KiCad (PCBNEW 9.0.5-1.fc42) date 2025-11-14 19:16:10*
%MOMM*%
%LPD*%
G01*
G04 APERTURE LIST*
%ADD10C,0.200000*%
G04 APERTURE END LIST*
D10*
X114131577Y-103567873D02*
X114131577Y-102317873D01*
X114131577Y-102317873D02*
X113833958Y-102317873D01*
X113833958Y-102317873D02*
X113655387Y-102377397D01*
X113655387Y-102377397D02*
X113536339Y-102496445D01*
X113536339Y-102496445D02*
X113476816Y-102615492D01*
X113476816Y-102615492D02*
X113417292Y-102853588D01*
X113417292Y-102853588D02*
X113417292Y-103032159D01*
X113417292Y-103032159D02*
X113476816Y-103270254D01*
X113476816Y-103270254D02*
X113536339Y-103389302D01*
X113536339Y-103389302D02*
X113655387Y-103508350D01*
X113655387Y-103508350D02*
X113833958Y-103567873D01*
X113833958Y-103567873D02*
X114131577Y-103567873D01*
X112643482Y-102317873D02*
X112405387Y-102317873D01*
X112405387Y-102317873D02*
X112286339Y-102377397D01*
X112286339Y-102377397D02*
X112167292Y-102496445D01*
X112167292Y-102496445D02*
X112107768Y-102734540D01*
X112107768Y-102734540D02*
X112107768Y-103151207D01*
X112107768Y-103151207D02*
X112167292Y-103389302D01*
X112167292Y-103389302D02*
X112286339Y-103508350D01*
X112286339Y-103508350D02*
X112405387Y-103567873D01*
X112405387Y-103567873D02*
X112643482Y-103567873D01*
X112643482Y-103567873D02*
X112762530Y-103508350D01*
X112762530Y-103508350D02*
X112881577Y-103389302D01*
X112881577Y-103389302D02*
X112941101Y-103151207D01*
X112941101Y-103151207D02*
X112941101Y-102734540D01*
X112941101Y-102734540D02*
X112881577Y-102496445D01*
X112881577Y-102496445D02*
X112762530Y-102377397D01*
X112762530Y-102377397D02*
X112643482Y-102317873D01*
X111691101Y-102317873D02*
X111393482Y-103567873D01*
X111393482Y-103567873D02*
X111155387Y-102675016D01*
X111155387Y-102675016D02*
X110917292Y-103567873D01*
X110917292Y-103567873D02*
X110619673Y-102317873D01*
X110143482Y-103567873D02*
X110143482Y-102317873D01*
X110143482Y-102317873D02*
X109429197Y-103567873D01*
X109429197Y-103567873D02*
X109429197Y-102317873D01*
X174721428Y-65413171D02*
X173578571Y-65413171D01*
X173578571Y-65413171D02*
X173578571Y-66556028D01*
X173578571Y-66556028D02*
X174721428Y-66556028D01*
X174721428Y-66556028D02*
X174721428Y-65413171D01*
X110441101Y-95567873D02*
X111036339Y-95567873D01*
X111036339Y-95567873D02*
X111036339Y-94317873D01*
X110143482Y-94317873D02*
X109369673Y-94317873D01*
X109369673Y-94317873D02*
X109786339Y-94794064D01*
X109786339Y-94794064D02*
X109607768Y-94794064D01*
X109607768Y-94794064D02*
X109488720Y-94853588D01*
X109488720Y-94853588D02*
X109429196Y-94913111D01*
X109429196Y-94913111D02*
X109369673Y-95032159D01*
X109369673Y-95032159D02*
X109369673Y-95329778D01*
X109369673Y-95329778D02*
X109429196Y-95448826D01*
X109429196Y-95448826D02*
X109488720Y-95508350D01*
X109488720Y-95508350D02*
X109607768Y-95567873D01*
X109607768Y-95567873D02*
X109964911Y-95567873D01*
X109964911Y-95567873D02*
X110083958Y-95508350D01*
X110083958Y-95508350D02*
X110143482Y-95448826D01*
X111988721Y-84877397D02*
X112107768Y-84817873D01*
X112107768Y-84817873D02*
X112286340Y-84817873D01*
X112286340Y-84817873D02*
X112464911Y-84877397D01*
X112464911Y-84877397D02*
X112583959Y-84996445D01*
X112583959Y-84996445D02*
X112643482Y-85115492D01*
X112643482Y-85115492D02*
X112703006Y-85353588D01*
X112703006Y-85353588D02*
X112703006Y-85532159D01*
X112703006Y-85532159D02*
X112643482Y-85770254D01*
X112643482Y-85770254D02*
X112583959Y-85889302D01*
X112583959Y-85889302D02*
X112464911Y-86008350D01*
X112464911Y-86008350D02*
X112286340Y-86067873D01*
X112286340Y-86067873D02*
X112167292Y-86067873D01*
X112167292Y-86067873D02*
X111988721Y-86008350D01*
X111988721Y-86008350D02*
X111929197Y-85948826D01*
X111929197Y-85948826D02*
X111929197Y-85532159D01*
X111929197Y-85532159D02*
X112167292Y-85532159D01*
X111393482Y-86067873D02*
X111393482Y-84817873D01*
X111393482Y-84817873D02*
X110679197Y-86067873D01*
X110679197Y-86067873D02*
X110679197Y-84817873D01*
X110083958Y-86067873D02*
X110083958Y-84817873D01*
X110083958Y-84817873D02*
X109786339Y-84817873D01*
X109786339Y-84817873D02*
X109607768Y-84877397D01*
X109607768Y-84877397D02*
X109488720Y-84996445D01*
X109488720Y-84996445D02*
X109429197Y-85115492D01*
X109429197Y-85115492D02*
X109369673Y-85353588D01*
X109369673Y-85353588D02*
X109369673Y-85532159D01*
X109369673Y-85532159D02*
X109429197Y-85770254D01*
X109429197Y-85770254D02*
X109488720Y-85889302D01*
X109488720Y-85889302D02*
X109607768Y-86008350D01*
X109607768Y-86008350D02*
X109786339Y-86067873D01*
X109786339Y-86067873D02*
X110083958Y-86067873D01*
X114310149Y-84008350D02*
X114131578Y-84067873D01*
X114131578Y-84067873D02*
X113833959Y-84067873D01*
X113833959Y-84067873D02*
X113714911Y-84008350D01*
X113714911Y-84008350D02*
X113655387Y-83948826D01*
X113655387Y-83948826D02*
X113595864Y-83829778D01*
X113595864Y-83829778D02*
X113595864Y-83710730D01*
X113595864Y-83710730D02*
X113655387Y-83591683D01*
X113655387Y-83591683D02*
X113714911Y-83532159D01*
X113714911Y-83532159D02*
X113833959Y-83472635D01*
X113833959Y-83472635D02*
X114072054Y-83413111D01*
X114072054Y-83413111D02*
X114191102Y-83353588D01*
X114191102Y-83353588D02*
X114250625Y-83294064D01*
X114250625Y-83294064D02*
X114310149Y-83175016D01*
X114310149Y-83175016D02*
X114310149Y-83055969D01*
X114310149Y-83055969D02*
X114250625Y-82936921D01*
X114250625Y-82936921D02*
X114191102Y-82877397D01*
X114191102Y-82877397D02*
X114072054Y-82817873D01*
X114072054Y-82817873D02*
X113774435Y-82817873D01*
X113774435Y-82817873D02*
X113595864Y-82877397D01*
X113238721Y-82817873D02*
X112524435Y-82817873D01*
X112881578Y-84067873D02*
X112881578Y-82817873D01*
X112167292Y-83710730D02*
X111572054Y-83710730D01*
X112286340Y-84067873D02*
X111869673Y-82817873D01*
X111869673Y-82817873D02*
X111453007Y-84067873D01*
X110322054Y-84067873D02*
X110738720Y-83472635D01*
X111036339Y-84067873D02*
X111036339Y-82817873D01*
X111036339Y-82817873D02*
X110560149Y-82817873D01*
X110560149Y-82817873D02*
X110441101Y-82877397D01*
X110441101Y-82877397D02*
X110381578Y-82936921D01*
X110381578Y-82936921D02*
X110322054Y-83055969D01*
X110322054Y-83055969D02*
X110322054Y-83234540D01*
X110322054Y-83234540D02*
X110381578Y-83353588D01*
X110381578Y-83353588D02*
X110441101Y-83413111D01*
X110441101Y-83413111D02*
X110560149Y-83472635D01*
X110560149Y-83472635D02*
X111036339Y-83472635D01*
X109964911Y-82817873D02*
X109250625Y-82817873D01*
X109607768Y-84067873D02*
X109607768Y-82817873D01*
X171475564Y-64567873D02*
X172070802Y-64567873D01*
X172070802Y-64567873D02*
X172070802Y-63317873D01*
X171058897Y-63913111D02*
X170642231Y-63913111D01*
X170463659Y-64567873D02*
X171058897Y-64567873D01*
X171058897Y-64567873D02*
X171058897Y-63317873D01*
X171058897Y-63317873D02*
X170463659Y-63317873D01*
X169927945Y-64567873D02*
X169927945Y-63317873D01*
X169927945Y-63317873D02*
X169630326Y-63317873D01*
X169630326Y-63317873D02*
X169451755Y-63377397D01*
X169451755Y-63377397D02*
X169332707Y-63496445D01*
X169332707Y-63496445D02*
X169273184Y-63615492D01*
X169273184Y-63615492D02*
X169213660Y-63853588D01*
X169213660Y-63853588D02*
X169213660Y-64032159D01*
X169213660Y-64032159D02*
X169273184Y-64270254D01*
X169273184Y-64270254D02*
X169332707Y-64389302D01*
X169332707Y-64389302D02*
X169451755Y-64508350D01*
X169451755Y-64508350D02*
X169630326Y-64567873D01*
X169630326Y-64567873D02*
X169927945Y-64567873D01*
X168677945Y-64091683D02*
X167725565Y-64091683D01*
X175320802Y-104734540D02*
X175320802Y-105567873D01*
X175320802Y-104853588D02*
X175261279Y-104794064D01*
X175261279Y-104794064D02*
X175142231Y-104734540D01*
X175142231Y-104734540D02*
X174963660Y-104734540D01*
X174963660Y-104734540D02*
X174844612Y-104794064D01*
X174844612Y-104794064D02*
X174785088Y-104913111D01*
X174785088Y-104913111D02*
X174785088Y-105567873D01*
X173594612Y-105567873D02*
X174189850Y-105567873D01*
X174189850Y-105567873D02*
X174189850Y-104317873D01*
X173177945Y-104913111D02*
X172761279Y-104913111D01*
X172582707Y-105567873D02*
X173177945Y-105567873D01*
X173177945Y-105567873D02*
X173177945Y-104317873D01*
X173177945Y-104317873D02*
X172582707Y-104317873D01*
X172046993Y-105567873D02*
X172046993Y-104317873D01*
X172046993Y-104317873D02*
X171749374Y-104317873D01*
X171749374Y-104317873D02*
X171570803Y-104377397D01*
X171570803Y-104377397D02*
X171451755Y-104496445D01*
X171451755Y-104496445D02*
X171392232Y-104615492D01*
X171392232Y-104615492D02*
X171332708Y-104853588D01*
X171332708Y-104853588D02*
X171332708Y-105032159D01*
X171332708Y-105032159D02*
X171392232Y-105270254D01*
X171392232Y-105270254D02*
X171451755Y-105389302D01*
X171451755Y-105389302D02*
X171570803Y-105508350D01*
X171570803Y-105508350D02*
X171749374Y-105567873D01*
X171749374Y-105567873D02*
X172046993Y-105567873D01*
X169844612Y-105567873D02*
X169844612Y-104317873D01*
X169844612Y-104317873D02*
X169546993Y-104317873D01*
X169546993Y-104317873D02*
X169368422Y-104377397D01*
X169368422Y-104377397D02*
X169249374Y-104496445D01*
X169249374Y-104496445D02*
X169189851Y-104615492D01*
X169189851Y-104615492D02*
X169130327Y-104853588D01*
X169130327Y-104853588D02*
X169130327Y-105032159D01*
X169130327Y-105032159D02*
X169189851Y-105270254D01*
X169189851Y-105270254D02*
X169249374Y-105389302D01*
X169249374Y-105389302D02*
X169368422Y-105508350D01*
X169368422Y-105508350D02*
X169546993Y-105567873D01*
X169546993Y-105567873D02*
X169844612Y-105567873D01*
X168654136Y-105210730D02*
X168058898Y-105210730D01*
X168773184Y-105567873D02*
X168356517Y-104317873D01*
X168356517Y-104317873D02*
X167939851Y-105567873D01*
X167701755Y-104317873D02*
X166987469Y-104317873D01*
X167344612Y-105567873D02*
X167344612Y-104317873D01*
X166630326Y-105210730D02*
X166035088Y-105210730D01*
X166749374Y-105567873D02*
X166332707Y-104317873D01*
X166332707Y-104317873D02*
X165916041Y-105567873D01*
X138652380Y-117574742D02*
X138347618Y-117574742D01*
X138347618Y-117574742D02*
X138042856Y-117727123D01*
X138042856Y-117727123D02*
X137890476Y-118031885D01*
X137890476Y-118031885D02*
X137890476Y-118336647D01*
X137890476Y-118336647D02*
X138042856Y-118641409D01*
X138042856Y-118641409D02*
X138347618Y-118793790D01*
X138347618Y-118793790D02*
X138652380Y-118793790D01*
X138652380Y-118793790D02*
X138957142Y-118641409D01*
X138957142Y-118641409D02*
X139109523Y-118336647D01*
X139109523Y-118336647D02*
X139109523Y-118031885D01*
X139109523Y-118031885D02*
X138957142Y-117727123D01*
X138957142Y-117727123D02*
X138652380Y-117574742D01*
X111988721Y-104377397D02*
X112107768Y-104317873D01*
X112107768Y-104317873D02*
X112286340Y-104317873D01*
X112286340Y-104317873D02*
X112464911Y-104377397D01*
X112464911Y-104377397D02*
X112583959Y-104496445D01*
X112583959Y-104496445D02*
X112643482Y-104615492D01*
X112643482Y-104615492D02*
X112703006Y-104853588D01*
X112703006Y-104853588D02*
X112703006Y-105032159D01*
X112703006Y-105032159D02*
X112643482Y-105270254D01*
X112643482Y-105270254D02*
X112583959Y-105389302D01*
X112583959Y-105389302D02*
X112464911Y-105508350D01*
X112464911Y-105508350D02*
X112286340Y-105567873D01*
X112286340Y-105567873D02*
X112167292Y-105567873D01*
X112167292Y-105567873D02*
X111988721Y-105508350D01*
X111988721Y-105508350D02*
X111929197Y-105448826D01*
X111929197Y-105448826D02*
X111929197Y-105032159D01*
X111929197Y-105032159D02*
X112167292Y-105032159D01*
X111393482Y-105567873D02*
X111393482Y-104317873D01*
X111393482Y-104317873D02*
X110679197Y-105567873D01*
X110679197Y-105567873D02*
X110679197Y-104317873D01*
X110083958Y-105567873D02*
X110083958Y-104317873D01*
X110083958Y-104317873D02*
X109786339Y-104317873D01*
X109786339Y-104317873D02*
X109607768Y-104377397D01*
X109607768Y-104377397D02*
X109488720Y-104496445D01*
X109488720Y-104496445D02*
X109429197Y-104615492D01*
X109429197Y-104615492D02*
X109369673Y-104853588D01*
X109369673Y-104853588D02*
X109369673Y-105032159D01*
X109369673Y-105032159D02*
X109429197Y-105270254D01*
X109429197Y-105270254D02*
X109488720Y-105389302D01*
X109488720Y-105389302D02*
X109607768Y-105508350D01*
X109607768Y-105508350D02*
X109786339Y-105567873D01*
X109786339Y-105567873D02*
X110083958Y-105567873D01*
X110441101Y-99567873D02*
X111036339Y-99567873D01*
X111036339Y-99567873D02*
X111036339Y-98317873D01*
X109369673Y-99567873D02*
X110083958Y-99567873D01*
X109726815Y-99567873D02*
X109726815Y-98317873D01*
X109726815Y-98317873D02*
X109845863Y-98496445D01*
X109845863Y-98496445D02*
X109964911Y-98615492D01*
X109964911Y-98615492D02*
X110083958Y-98675016D01*
X174725564Y-59317873D02*
X175320802Y-59317873D01*
X175320802Y-59317873D02*
X175380326Y-59913111D01*
X175380326Y-59913111D02*
X175320802Y-59853588D01*
X175320802Y-59853588D02*
X175201755Y-59794064D01*
X175201755Y-59794064D02*
X174904136Y-59794064D01*
X174904136Y-59794064D02*
X174785088Y-59853588D01*
X174785088Y-59853588D02*
X174725564Y-59913111D01*
X174725564Y-59913111D02*
X174666041Y-60032159D01*
X174666041Y-60032159D02*
X174666041Y-60329778D01*
X174666041Y-60329778D02*
X174725564Y-60448826D01*
X174725564Y-60448826D02*
X174785088Y-60508350D01*
X174785088Y-60508350D02*
X174904136Y-60567873D01*
X174904136Y-60567873D02*
X175201755Y-60567873D01*
X175201755Y-60567873D02*
X175320802Y-60508350D01*
X175320802Y-60508350D02*
X175380326Y-60448826D01*
X174308898Y-59317873D02*
X173892231Y-60567873D01*
X173892231Y-60567873D02*
X173475565Y-59317873D01*
X172285088Y-59317873D02*
X171868421Y-60567873D01*
X171868421Y-60567873D02*
X171451755Y-59317873D01*
X170320802Y-60448826D02*
X170380326Y-60508350D01*
X170380326Y-60508350D02*
X170558897Y-60567873D01*
X170558897Y-60567873D02*
X170677945Y-60567873D01*
X170677945Y-60567873D02*
X170856516Y-60508350D01*
X170856516Y-60508350D02*
X170975564Y-60389302D01*
X170975564Y-60389302D02*
X171035087Y-60270254D01*
X171035087Y-60270254D02*
X171094611Y-60032159D01*
X171094611Y-60032159D02*
X171094611Y-59853588D01*
X171094611Y-59853588D02*
X171035087Y-59615492D01*
X171035087Y-59615492D02*
X170975564Y-59496445D01*
X170975564Y-59496445D02*
X170856516Y-59377397D01*
X170856516Y-59377397D02*
X170677945Y-59317873D01*
X170677945Y-59317873D02*
X170558897Y-59317873D01*
X170558897Y-59317873D02*
X170380326Y-59377397D01*
X170380326Y-59377397D02*
X170320802Y-59436921D01*
X169070802Y-60448826D02*
X169130326Y-60508350D01*
X169130326Y-60508350D02*
X169308897Y-60567873D01*
X169308897Y-60567873D02*
X169427945Y-60567873D01*
X169427945Y-60567873D02*
X169606516Y-60508350D01*
X169606516Y-60508350D02*
X169725564Y-60389302D01*
X169725564Y-60389302D02*
X169785087Y-60270254D01*
X169785087Y-60270254D02*
X169844611Y-60032159D01*
X169844611Y-60032159D02*
X169844611Y-59853588D01*
X169844611Y-59853588D02*
X169785087Y-59615492D01*
X169785087Y-59615492D02*
X169725564Y-59496445D01*
X169725564Y-59496445D02*
X169606516Y-59377397D01*
X169606516Y-59377397D02*
X169427945Y-59317873D01*
X169427945Y-59317873D02*
X169308897Y-59317873D01*
X169308897Y-59317873D02*
X169130326Y-59377397D01*
X169130326Y-59377397D02*
X169070802Y-59436921D01*
X171475564Y-68567873D02*
X172070802Y-68567873D01*
X172070802Y-68567873D02*
X172070802Y-67317873D01*
X171058897Y-67913111D02*
X170642231Y-67913111D01*
X170463659Y-68567873D02*
X171058897Y-68567873D01*
X171058897Y-68567873D02*
X171058897Y-67317873D01*
X171058897Y-67317873D02*
X170463659Y-67317873D01*
X169927945Y-68567873D02*
X169927945Y-67317873D01*
X169927945Y-67317873D02*
X169630326Y-67317873D01*
X169630326Y-67317873D02*
X169451755Y-67377397D01*
X169451755Y-67377397D02*
X169332707Y-67496445D01*
X169332707Y-67496445D02*
X169273184Y-67615492D01*
X169273184Y-67615492D02*
X169213660Y-67853588D01*
X169213660Y-67853588D02*
X169213660Y-68032159D01*
X169213660Y-68032159D02*
X169273184Y-68270254D01*
X169273184Y-68270254D02*
X169332707Y-68389302D01*
X169332707Y-68389302D02*
X169451755Y-68508350D01*
X169451755Y-68508350D02*
X169630326Y-68567873D01*
X169630326Y-68567873D02*
X169927945Y-68567873D01*
X168677945Y-68091683D02*
X167725565Y-68091683D01*
X175439850Y-98317873D02*
X174666041Y-98317873D01*
X174666041Y-98317873D02*
X175082707Y-98794064D01*
X175082707Y-98794064D02*
X174904136Y-98794064D01*
X174904136Y-98794064D02*
X174785088Y-98853588D01*
X174785088Y-98853588D02*
X174725564Y-98913111D01*
X174725564Y-98913111D02*
X174666041Y-99032159D01*
X174666041Y-99032159D02*
X174666041Y-99329778D01*
X174666041Y-99329778D02*
X174725564Y-99448826D01*
X174725564Y-99448826D02*
X174785088Y-99508350D01*
X174785088Y-99508350D02*
X174904136Y-99567873D01*
X174904136Y-99567873D02*
X175261279Y-99567873D01*
X175261279Y-99567873D02*
X175380326Y-99508350D01*
X175380326Y-99508350D02*
X175439850Y-99448826D01*
X174308898Y-98317873D02*
X173892231Y-99567873D01*
X173892231Y-99567873D02*
X173475565Y-98317873D01*
X173177945Y-98317873D02*
X172404136Y-98317873D01*
X172404136Y-98317873D02*
X172820802Y-98794064D01*
X172820802Y-98794064D02*
X172642231Y-98794064D01*
X172642231Y-98794064D02*
X172523183Y-98853588D01*
X172523183Y-98853588D02*
X172463659Y-98913111D01*
X172463659Y-98913111D02*
X172404136Y-99032159D01*
X172404136Y-99032159D02*
X172404136Y-99329778D01*
X172404136Y-99329778D02*
X172463659Y-99448826D01*
X172463659Y-99448826D02*
X172523183Y-99508350D01*
X172523183Y-99508350D02*
X172642231Y-99567873D01*
X172642231Y-99567873D02*
X172999374Y-99567873D01*
X172999374Y-99567873D02*
X173118421Y-99508350D01*
X173118421Y-99508350D02*
X173177945Y-99448826D01*
X110560149Y-64567873D02*
X110976815Y-63972635D01*
X111274434Y-64567873D02*
X111274434Y-63317873D01*
X111274434Y-63317873D02*
X110798244Y-63317873D01*
X110798244Y-63317873D02*
X110679196Y-63377397D01*
X110679196Y-63377397D02*
X110619673Y-63436921D01*
X110619673Y-63436921D02*
X110560149Y-63555969D01*
X110560149Y-63555969D02*
X110560149Y-63734540D01*
X110560149Y-63734540D02*
X110619673Y-63853588D01*
X110619673Y-63853588D02*
X110679196Y-63913111D01*
X110679196Y-63913111D02*
X110798244Y-63972635D01*
X110798244Y-63972635D02*
X111274434Y-63972635D01*
X109369673Y-64567873D02*
X110083958Y-64567873D01*
X109726815Y-64567873D02*
X109726815Y-63317873D01*
X109726815Y-63317873D02*
X109845863Y-63496445D01*
X109845863Y-63496445D02*
X109964911Y-63615492D01*
X109964911Y-63615492D02*
X110083958Y-63675016D01*
X175380326Y-95508350D02*
X175201755Y-95567873D01*
X175201755Y-95567873D02*
X174904136Y-95567873D01*
X174904136Y-95567873D02*
X174785088Y-95508350D01*
X174785088Y-95508350D02*
X174725564Y-95448826D01*
X174725564Y-95448826D02*
X174666041Y-95329778D01*
X174666041Y-95329778D02*
X174666041Y-95210730D01*
X174666041Y-95210730D02*
X174725564Y-95091683D01*
X174725564Y-95091683D02*
X174785088Y-95032159D01*
X174785088Y-95032159D02*
X174904136Y-94972635D01*
X174904136Y-94972635D02*
X175142231Y-94913111D01*
X175142231Y-94913111D02*
X175261279Y-94853588D01*
X175261279Y-94853588D02*
X175320802Y-94794064D01*
X175320802Y-94794064D02*
X175380326Y-94675016D01*
X175380326Y-94675016D02*
X175380326Y-94555969D01*
X175380326Y-94555969D02*
X175320802Y-94436921D01*
X175320802Y-94436921D02*
X175261279Y-94377397D01*
X175261279Y-94377397D02*
X175142231Y-94317873D01*
X175142231Y-94317873D02*
X174844612Y-94317873D01*
X174844612Y-94317873D02*
X174666041Y-94377397D01*
X173535088Y-95567873D02*
X174130326Y-95567873D01*
X174130326Y-95567873D02*
X174130326Y-94317873D01*
X173118421Y-95567873D02*
X173118421Y-94317873D01*
X172523183Y-95567873D02*
X172523183Y-94317873D01*
X172523183Y-94317873D02*
X172225564Y-94317873D01*
X172225564Y-94317873D02*
X172046993Y-94377397D01*
X172046993Y-94377397D02*
X171927945Y-94496445D01*
X171927945Y-94496445D02*
X171868422Y-94615492D01*
X171868422Y-94615492D02*
X171808898Y-94853588D01*
X171808898Y-94853588D02*
X171808898Y-95032159D01*
X171808898Y-95032159D02*
X171868422Y-95270254D01*
X171868422Y-95270254D02*
X171927945Y-95389302D01*
X171927945Y-95389302D02*
X172046993Y-95508350D01*
X172046993Y-95508350D02*
X172225564Y-95567873D01*
X172225564Y-95567873D02*
X172523183Y-95567873D01*
X171273183Y-94913111D02*
X170856517Y-94913111D01*
X170677945Y-95567873D02*
X171273183Y-95567873D01*
X171273183Y-95567873D02*
X171273183Y-94317873D01*
X171273183Y-94317873D02*
X170677945Y-94317873D01*
X169427946Y-95567873D02*
X169844612Y-94972635D01*
X170142231Y-95567873D02*
X170142231Y-94317873D01*
X170142231Y-94317873D02*
X169666041Y-94317873D01*
X169666041Y-94317873D02*
X169546993Y-94377397D01*
X169546993Y-94377397D02*
X169487470Y-94436921D01*
X169487470Y-94436921D02*
X169427946Y-94555969D01*
X169427946Y-94555969D02*
X169427946Y-94734540D01*
X169427946Y-94734540D02*
X169487470Y-94853588D01*
X169487470Y-94853588D02*
X169546993Y-94913111D01*
X169546993Y-94913111D02*
X169666041Y-94972635D01*
X169666041Y-94972635D02*
X170142231Y-94972635D01*
X167999374Y-95508350D02*
X167820803Y-95567873D01*
X167820803Y-95567873D02*
X167523184Y-95567873D01*
X167523184Y-95567873D02*
X167404136Y-95508350D01*
X167404136Y-95508350D02*
X167344612Y-95448826D01*
X167344612Y-95448826D02*
X167285089Y-95329778D01*
X167285089Y-95329778D02*
X167285089Y-95210730D01*
X167285089Y-95210730D02*
X167344612Y-95091683D01*
X167344612Y-95091683D02*
X167404136Y-95032159D01*
X167404136Y-95032159D02*
X167523184Y-94972635D01*
X167523184Y-94972635D02*
X167761279Y-94913111D01*
X167761279Y-94913111D02*
X167880327Y-94853588D01*
X167880327Y-94853588D02*
X167939850Y-94794064D01*
X167939850Y-94794064D02*
X167999374Y-94675016D01*
X167999374Y-94675016D02*
X167999374Y-94555969D01*
X167999374Y-94555969D02*
X167939850Y-94436921D01*
X167939850Y-94436921D02*
X167880327Y-94377397D01*
X167880327Y-94377397D02*
X167761279Y-94317873D01*
X167761279Y-94317873D02*
X167463660Y-94317873D01*
X167463660Y-94317873D02*
X167285089Y-94377397D01*
X166035089Y-95448826D02*
X166094613Y-95508350D01*
X166094613Y-95508350D02*
X166273184Y-95567873D01*
X166273184Y-95567873D02*
X166392232Y-95567873D01*
X166392232Y-95567873D02*
X166570803Y-95508350D01*
X166570803Y-95508350D02*
X166689851Y-95389302D01*
X166689851Y-95389302D02*
X166749374Y-95270254D01*
X166749374Y-95270254D02*
X166808898Y-95032159D01*
X166808898Y-95032159D02*
X166808898Y-94853588D01*
X166808898Y-94853588D02*
X166749374Y-94615492D01*
X166749374Y-94615492D02*
X166689851Y-94496445D01*
X166689851Y-94496445D02*
X166570803Y-94377397D01*
X166570803Y-94377397D02*
X166392232Y-94317873D01*
X166392232Y-94317873D02*
X166273184Y-94317873D01*
X166273184Y-94317873D02*
X166094613Y-94377397D01*
X166094613Y-94377397D02*
X166035089Y-94436921D01*
X164904136Y-95567873D02*
X165499374Y-95567873D01*
X165499374Y-95567873D02*
X165499374Y-94317873D01*
X163832708Y-95567873D02*
X164546993Y-95567873D01*
X164189850Y-95567873D02*
X164189850Y-94317873D01*
X164189850Y-94317873D02*
X164308898Y-94496445D01*
X164308898Y-94496445D02*
X164427946Y-94615492D01*
X164427946Y-94615492D02*
X164546993Y-94675016D01*
X111393482Y-100317873D02*
X111393482Y-101329778D01*
X111393482Y-101329778D02*
X111333959Y-101448826D01*
X111333959Y-101448826D02*
X111274435Y-101508350D01*
X111274435Y-101508350D02*
X111155387Y-101567873D01*
X111155387Y-101567873D02*
X110917292Y-101567873D01*
X110917292Y-101567873D02*
X110798244Y-101508350D01*
X110798244Y-101508350D02*
X110738721Y-101448826D01*
X110738721Y-101448826D02*
X110679197Y-101329778D01*
X110679197Y-101329778D02*
X110679197Y-100317873D01*
X110083958Y-101567873D02*
X110083958Y-100317873D01*
X110083958Y-100317873D02*
X109607768Y-100317873D01*
X109607768Y-100317873D02*
X109488720Y-100377397D01*
X109488720Y-100377397D02*
X109429197Y-100436921D01*
X109429197Y-100436921D02*
X109369673Y-100555969D01*
X109369673Y-100555969D02*
X109369673Y-100734540D01*
X109369673Y-100734540D02*
X109429197Y-100853588D01*
X109429197Y-100853588D02*
X109488720Y-100913111D01*
X109488720Y-100913111D02*
X109607768Y-100972635D01*
X109607768Y-100972635D02*
X110083958Y-100972635D01*
X110560149Y-62567873D02*
X110976815Y-61972635D01*
X111274434Y-62567873D02*
X111274434Y-61317873D01*
X111274434Y-61317873D02*
X110798244Y-61317873D01*
X110798244Y-61317873D02*
X110679196Y-61377397D01*
X110679196Y-61377397D02*
X110619673Y-61436921D01*
X110619673Y-61436921D02*
X110560149Y-61555969D01*
X110560149Y-61555969D02*
X110560149Y-61734540D01*
X110560149Y-61734540D02*
X110619673Y-61853588D01*
X110619673Y-61853588D02*
X110679196Y-61913111D01*
X110679196Y-61913111D02*
X110798244Y-61972635D01*
X110798244Y-61972635D02*
X111274434Y-61972635D01*
X110083958Y-61436921D02*
X110024434Y-61377397D01*
X110024434Y-61377397D02*
X109905387Y-61317873D01*
X109905387Y-61317873D02*
X109607768Y-61317873D01*
X109607768Y-61317873D02*
X109488720Y-61377397D01*
X109488720Y-61377397D02*
X109429196Y-61436921D01*
X109429196Y-61436921D02*
X109369673Y-61555969D01*
X109369673Y-61555969D02*
X109369673Y-61675016D01*
X109369673Y-61675016D02*
X109429196Y-61853588D01*
X109429196Y-61853588D02*
X110143482Y-62567873D01*
X110143482Y-62567873D02*
X109369673Y-62567873D01*
X174666041Y-100377397D02*
X174785088Y-100317873D01*
X174785088Y-100317873D02*
X174963660Y-100317873D01*
X174963660Y-100317873D02*
X175142231Y-100377397D01*
X175142231Y-100377397D02*
X175261279Y-100496445D01*
X175261279Y-100496445D02*
X175320802Y-100615492D01*
X175320802Y-100615492D02*
X175380326Y-100853588D01*
X175380326Y-100853588D02*
X175380326Y-101032159D01*
X175380326Y-101032159D02*
X175320802Y-101270254D01*
X175320802Y-101270254D02*
X175261279Y-101389302D01*
X175261279Y-101389302D02*
X175142231Y-101508350D01*
X175142231Y-101508350D02*
X174963660Y-101567873D01*
X174963660Y-101567873D02*
X174844612Y-101567873D01*
X174844612Y-101567873D02*
X174666041Y-101508350D01*
X174666041Y-101508350D02*
X174606517Y-101448826D01*
X174606517Y-101448826D02*
X174606517Y-101032159D01*
X174606517Y-101032159D02*
X174844612Y-101032159D01*
X174070802Y-101567873D02*
X174070802Y-100317873D01*
X174070802Y-100317873D02*
X173356517Y-101567873D01*
X173356517Y-101567873D02*
X173356517Y-100317873D01*
X172761278Y-101567873D02*
X172761278Y-100317873D01*
X172761278Y-100317873D02*
X172463659Y-100317873D01*
X172463659Y-100317873D02*
X172285088Y-100377397D01*
X172285088Y-100377397D02*
X172166040Y-100496445D01*
X172166040Y-100496445D02*
X172106517Y-100615492D01*
X172106517Y-100615492D02*
X172046993Y-100853588D01*
X172046993Y-100853588D02*
X172046993Y-101032159D01*
X172046993Y-101032159D02*
X172106517Y-101270254D01*
X172106517Y-101270254D02*
X172166040Y-101389302D01*
X172166040Y-101389302D02*
X172285088Y-101508350D01*
X172285088Y-101508350D02*
X172463659Y-101567873D01*
X172463659Y-101567873D02*
X172761278Y-101567873D01*
X111988721Y-69377397D02*
X112107768Y-69317873D01*
X112107768Y-69317873D02*
X112286340Y-69317873D01*
X112286340Y-69317873D02*
X112464911Y-69377397D01*
X112464911Y-69377397D02*
X112583959Y-69496445D01*
X112583959Y-69496445D02*
X112643482Y-69615492D01*
X112643482Y-69615492D02*
X112703006Y-69853588D01*
X112703006Y-69853588D02*
X112703006Y-70032159D01*
X112703006Y-70032159D02*
X112643482Y-70270254D01*
X112643482Y-70270254D02*
X112583959Y-70389302D01*
X112583959Y-70389302D02*
X112464911Y-70508350D01*
X112464911Y-70508350D02*
X112286340Y-70567873D01*
X112286340Y-70567873D02*
X112167292Y-70567873D01*
X112167292Y-70567873D02*
X111988721Y-70508350D01*
X111988721Y-70508350D02*
X111929197Y-70448826D01*
X111929197Y-70448826D02*
X111929197Y-70032159D01*
X111929197Y-70032159D02*
X112167292Y-70032159D01*
X111393482Y-70567873D02*
X111393482Y-69317873D01*
X111393482Y-69317873D02*
X110679197Y-70567873D01*
X110679197Y-70567873D02*
X110679197Y-69317873D01*
X110083958Y-70567873D02*
X110083958Y-69317873D01*
X110083958Y-69317873D02*
X109786339Y-69317873D01*
X109786339Y-69317873D02*
X109607768Y-69377397D01*
X109607768Y-69377397D02*
X109488720Y-69496445D01*
X109488720Y-69496445D02*
X109429197Y-69615492D01*
X109429197Y-69615492D02*
X109369673Y-69853588D01*
X109369673Y-69853588D02*
X109369673Y-70032159D01*
X109369673Y-70032159D02*
X109429197Y-70270254D01*
X109429197Y-70270254D02*
X109488720Y-70389302D01*
X109488720Y-70389302D02*
X109607768Y-70508350D01*
X109607768Y-70508350D02*
X109786339Y-70567873D01*
X109786339Y-70567873D02*
X110083958Y-70567873D01*
X174721428Y-67411504D02*
X173578571Y-68554361D01*
X173578571Y-67411504D02*
X174721428Y-68554361D01*
X175320802Y-93567873D02*
X175320802Y-92317873D01*
X175320802Y-92317873D02*
X175023183Y-92317873D01*
X175023183Y-92317873D02*
X174844612Y-92377397D01*
X174844612Y-92377397D02*
X174725564Y-92496445D01*
X174725564Y-92496445D02*
X174666041Y-92615492D01*
X174666041Y-92615492D02*
X174606517Y-92853588D01*
X174606517Y-92853588D02*
X174606517Y-93032159D01*
X174606517Y-93032159D02*
X174666041Y-93270254D01*
X174666041Y-93270254D02*
X174725564Y-93389302D01*
X174725564Y-93389302D02*
X174844612Y-93508350D01*
X174844612Y-93508350D02*
X175023183Y-93567873D01*
X175023183Y-93567873D02*
X175320802Y-93567873D01*
X174070802Y-93567873D02*
X174070802Y-92317873D01*
X173535088Y-93508350D02*
X173356517Y-93567873D01*
X173356517Y-93567873D02*
X173058898Y-93567873D01*
X173058898Y-93567873D02*
X172939850Y-93508350D01*
X172939850Y-93508350D02*
X172880326Y-93448826D01*
X172880326Y-93448826D02*
X172820803Y-93329778D01*
X172820803Y-93329778D02*
X172820803Y-93210730D01*
X172820803Y-93210730D02*
X172880326Y-93091683D01*
X172880326Y-93091683D02*
X172939850Y-93032159D01*
X172939850Y-93032159D02*
X173058898Y-92972635D01*
X173058898Y-92972635D02*
X173296993Y-92913111D01*
X173296993Y-92913111D02*
X173416041Y-92853588D01*
X173416041Y-92853588D02*
X173475564Y-92794064D01*
X173475564Y-92794064D02*
X173535088Y-92675016D01*
X173535088Y-92675016D02*
X173535088Y-92555969D01*
X173535088Y-92555969D02*
X173475564Y-92436921D01*
X173475564Y-92436921D02*
X173416041Y-92377397D01*
X173416041Y-92377397D02*
X173296993Y-92317873D01*
X173296993Y-92317873D02*
X172999374Y-92317873D01*
X172999374Y-92317873D02*
X172820803Y-92377397D01*
X172285088Y-93567873D02*
X172285088Y-92317873D01*
X172285088Y-92317873D02*
X171808898Y-92317873D01*
X171808898Y-92317873D02*
X171689850Y-92377397D01*
X171689850Y-92377397D02*
X171630327Y-92436921D01*
X171630327Y-92436921D02*
X171570803Y-92555969D01*
X171570803Y-92555969D02*
X171570803Y-92734540D01*
X171570803Y-92734540D02*
X171630327Y-92853588D01*
X171630327Y-92853588D02*
X171689850Y-92913111D01*
X171689850Y-92913111D02*
X171808898Y-92972635D01*
X171808898Y-92972635D02*
X172285088Y-92972635D01*
X170439850Y-93567873D02*
X171035088Y-93567873D01*
X171035088Y-93567873D02*
X171035088Y-92317873D01*
X170082707Y-93210730D02*
X169487469Y-93210730D01*
X170201755Y-93567873D02*
X169785088Y-92317873D01*
X169785088Y-92317873D02*
X169368422Y-93567873D01*
X168713659Y-92972635D02*
X168713659Y-93567873D01*
X169130326Y-92317873D02*
X168713659Y-92972635D01*
X168713659Y-92972635D02*
X168296993Y-92317873D01*
X166987468Y-93508350D02*
X166808897Y-93567873D01*
X166808897Y-93567873D02*
X166511278Y-93567873D01*
X166511278Y-93567873D02*
X166392230Y-93508350D01*
X166392230Y-93508350D02*
X166332706Y-93448826D01*
X166332706Y-93448826D02*
X166273183Y-93329778D01*
X166273183Y-93329778D02*
X166273183Y-93210730D01*
X166273183Y-93210730D02*
X166332706Y-93091683D01*
X166332706Y-93091683D02*
X166392230Y-93032159D01*
X166392230Y-93032159D02*
X166511278Y-92972635D01*
X166511278Y-92972635D02*
X166749373Y-92913111D01*
X166749373Y-92913111D02*
X166868421Y-92853588D01*
X166868421Y-92853588D02*
X166927944Y-92794064D01*
X166927944Y-92794064D02*
X166987468Y-92675016D01*
X166987468Y-92675016D02*
X166987468Y-92555969D01*
X166987468Y-92555969D02*
X166927944Y-92436921D01*
X166927944Y-92436921D02*
X166868421Y-92377397D01*
X166868421Y-92377397D02*
X166749373Y-92317873D01*
X166749373Y-92317873D02*
X166451754Y-92317873D01*
X166451754Y-92317873D02*
X166273183Y-92377397D01*
X165737468Y-93567873D02*
X165737468Y-92317873D01*
X165737468Y-92317873D02*
X165439849Y-92317873D01*
X165439849Y-92317873D02*
X165261278Y-92377397D01*
X165261278Y-92377397D02*
X165142230Y-92496445D01*
X165142230Y-92496445D02*
X165082707Y-92615492D01*
X165082707Y-92615492D02*
X165023183Y-92853588D01*
X165023183Y-92853588D02*
X165023183Y-93032159D01*
X165023183Y-93032159D02*
X165082707Y-93270254D01*
X165082707Y-93270254D02*
X165142230Y-93389302D01*
X165142230Y-93389302D02*
X165261278Y-93508350D01*
X165261278Y-93508350D02*
X165439849Y-93567873D01*
X165439849Y-93567873D02*
X165737468Y-93567873D01*
X164546992Y-93210730D02*
X163951754Y-93210730D01*
X164666040Y-93567873D02*
X164249373Y-92317873D01*
X164249373Y-92317873D02*
X163832707Y-93567873D01*
X163177944Y-92317873D02*
X163058897Y-92317873D01*
X163058897Y-92317873D02*
X162939849Y-92377397D01*
X162939849Y-92377397D02*
X162880325Y-92436921D01*
X162880325Y-92436921D02*
X162820801Y-92555969D01*
X162820801Y-92555969D02*
X162761278Y-92794064D01*
X162761278Y-92794064D02*
X162761278Y-93091683D01*
X162761278Y-93091683D02*
X162820801Y-93329778D01*
X162820801Y-93329778D02*
X162880325Y-93448826D01*
X162880325Y-93448826D02*
X162939849Y-93508350D01*
X162939849Y-93508350D02*
X163058897Y-93567873D01*
X163058897Y-93567873D02*
X163177944Y-93567873D01*
X163177944Y-93567873D02*
X163296992Y-93508350D01*
X163296992Y-93508350D02*
X163356516Y-93448826D01*
X163356516Y-93448826D02*
X163416039Y-93329778D01*
X163416039Y-93329778D02*
X163475563Y-93091683D01*
X163475563Y-93091683D02*
X163475563Y-92794064D01*
X163475563Y-92794064D02*
X163416039Y-92555969D01*
X163416039Y-92555969D02*
X163356516Y-92436921D01*
X163356516Y-92436921D02*
X163296992Y-92377397D01*
X163296992Y-92377397D02*
X163177944Y-92317873D01*
X171475564Y-66567873D02*
X172070802Y-66567873D01*
X172070802Y-66567873D02*
X172070802Y-65317873D01*
X171058897Y-65913111D02*
X170642231Y-65913111D01*
X170463659Y-66567873D02*
X171058897Y-66567873D01*
X171058897Y-66567873D02*
X171058897Y-65317873D01*
X171058897Y-65317873D02*
X170463659Y-65317873D01*
X169927945Y-66567873D02*
X169927945Y-65317873D01*
X169927945Y-65317873D02*
X169630326Y-65317873D01*
X169630326Y-65317873D02*
X169451755Y-65377397D01*
X169451755Y-65377397D02*
X169332707Y-65496445D01*
X169332707Y-65496445D02*
X169273184Y-65615492D01*
X169273184Y-65615492D02*
X169213660Y-65853588D01*
X169213660Y-65853588D02*
X169213660Y-66032159D01*
X169213660Y-66032159D02*
X169273184Y-66270254D01*
X169273184Y-66270254D02*
X169332707Y-66389302D01*
X169332707Y-66389302D02*
X169451755Y-66508350D01*
X169451755Y-66508350D02*
X169630326Y-66567873D01*
X169630326Y-66567873D02*
X169927945Y-66567873D01*
X168677945Y-66091683D02*
X167725565Y-66091683D01*
X174725564Y-102317873D02*
X175320802Y-102317873D01*
X175320802Y-102317873D02*
X175380326Y-102913111D01*
X175380326Y-102913111D02*
X175320802Y-102853588D01*
X175320802Y-102853588D02*
X175201755Y-102794064D01*
X175201755Y-102794064D02*
X174904136Y-102794064D01*
X174904136Y-102794064D02*
X174785088Y-102853588D01*
X174785088Y-102853588D02*
X174725564Y-102913111D01*
X174725564Y-102913111D02*
X174666041Y-103032159D01*
X174666041Y-103032159D02*
X174666041Y-103329778D01*
X174666041Y-103329778D02*
X174725564Y-103448826D01*
X174725564Y-103448826D02*
X174785088Y-103508350D01*
X174785088Y-103508350D02*
X174904136Y-103567873D01*
X174904136Y-103567873D02*
X175201755Y-103567873D01*
X175201755Y-103567873D02*
X175320802Y-103508350D01*
X175320802Y-103508350D02*
X175380326Y-103448826D01*
X174308898Y-102317873D02*
X173892231Y-103567873D01*
X173892231Y-103567873D02*
X173475565Y-102317873D01*
X115560148Y-80008350D02*
X115381577Y-80067873D01*
X115381577Y-80067873D02*
X115083958Y-80067873D01*
X115083958Y-80067873D02*
X114964910Y-80008350D01*
X114964910Y-80008350D02*
X114905386Y-79948826D01*
X114905386Y-79948826D02*
X114845863Y-79829778D01*
X114845863Y-79829778D02*
X114845863Y-79710730D01*
X114845863Y-79710730D02*
X114905386Y-79591683D01*
X114905386Y-79591683D02*
X114964910Y-79532159D01*
X114964910Y-79532159D02*
X115083958Y-79472635D01*
X115083958Y-79472635D02*
X115322053Y-79413111D01*
X115322053Y-79413111D02*
X115441101Y-79353588D01*
X115441101Y-79353588D02*
X115500624Y-79294064D01*
X115500624Y-79294064D02*
X115560148Y-79175016D01*
X115560148Y-79175016D02*
X115560148Y-79055969D01*
X115560148Y-79055969D02*
X115500624Y-78936921D01*
X115500624Y-78936921D02*
X115441101Y-78877397D01*
X115441101Y-78877397D02*
X115322053Y-78817873D01*
X115322053Y-78817873D02*
X115024434Y-78817873D01*
X115024434Y-78817873D02*
X114845863Y-78877397D01*
X114310148Y-79413111D02*
X113893482Y-79413111D01*
X113714910Y-80067873D02*
X114310148Y-80067873D01*
X114310148Y-80067873D02*
X114310148Y-78817873D01*
X114310148Y-78817873D02*
X113714910Y-78817873D01*
X112583958Y-80067873D02*
X113179196Y-80067873D01*
X113179196Y-80067873D02*
X113179196Y-78817873D01*
X112167291Y-79413111D02*
X111750625Y-79413111D01*
X111572053Y-80067873D02*
X112167291Y-80067873D01*
X112167291Y-80067873D02*
X112167291Y-78817873D01*
X112167291Y-78817873D02*
X111572053Y-78817873D01*
X110322054Y-79948826D02*
X110381578Y-80008350D01*
X110381578Y-80008350D02*
X110560149Y-80067873D01*
X110560149Y-80067873D02*
X110679197Y-80067873D01*
X110679197Y-80067873D02*
X110857768Y-80008350D01*
X110857768Y-80008350D02*
X110976816Y-79889302D01*
X110976816Y-79889302D02*
X111036339Y-79770254D01*
X111036339Y-79770254D02*
X111095863Y-79532159D01*
X111095863Y-79532159D02*
X111095863Y-79353588D01*
X111095863Y-79353588D02*
X111036339Y-79115492D01*
X111036339Y-79115492D02*
X110976816Y-78996445D01*
X110976816Y-78996445D02*
X110857768Y-78877397D01*
X110857768Y-78877397D02*
X110679197Y-78817873D01*
X110679197Y-78817873D02*
X110560149Y-78817873D01*
X110560149Y-78817873D02*
X110381578Y-78877397D01*
X110381578Y-78877397D02*
X110322054Y-78936921D01*
X109964911Y-78817873D02*
X109250625Y-78817873D01*
X109607768Y-80067873D02*
X109607768Y-78817873D01*
X114012529Y-82067873D02*
X114012529Y-80817873D01*
X114012529Y-81413111D02*
X113298244Y-81413111D01*
X113298244Y-82067873D02*
X113298244Y-80817873D01*
X112464910Y-80817873D02*
X112226815Y-80817873D01*
X112226815Y-80817873D02*
X112107767Y-80877397D01*
X112107767Y-80877397D02*
X111988720Y-80996445D01*
X111988720Y-80996445D02*
X111929196Y-81234540D01*
X111929196Y-81234540D02*
X111929196Y-81651207D01*
X111929196Y-81651207D02*
X111988720Y-81889302D01*
X111988720Y-81889302D02*
X112107767Y-82008350D01*
X112107767Y-82008350D02*
X112226815Y-82067873D01*
X112226815Y-82067873D02*
X112464910Y-82067873D01*
X112464910Y-82067873D02*
X112583958Y-82008350D01*
X112583958Y-82008350D02*
X112703005Y-81889302D01*
X112703005Y-81889302D02*
X112762529Y-81651207D01*
X112762529Y-81651207D02*
X112762529Y-81234540D01*
X112762529Y-81234540D02*
X112703005Y-80996445D01*
X112703005Y-80996445D02*
X112583958Y-80877397D01*
X112583958Y-80877397D02*
X112464910Y-80817873D01*
X111393481Y-82067873D02*
X111393481Y-80817873D01*
X111393481Y-80817873D02*
X110976815Y-81710730D01*
X110976815Y-81710730D02*
X110560148Y-80817873D01*
X110560148Y-80817873D02*
X110560148Y-82067873D01*
X109964910Y-81413111D02*
X109548244Y-81413111D01*
X109369672Y-82067873D02*
X109964910Y-82067873D01*
X109964910Y-82067873D02*
X109964910Y-80817873D01*
X109964910Y-80817873D02*
X109369672Y-80817873D01*
X147122602Y-118166041D02*
X147182126Y-118285088D01*
X147182126Y-118285088D02*
X147182126Y-118463660D01*
X147182126Y-118463660D02*
X147122602Y-118642231D01*
X147122602Y-118642231D02*
X147003554Y-118761279D01*
X147003554Y-118761279D02*
X146884507Y-118820802D01*
X146884507Y-118820802D02*
X146646411Y-118880326D01*
X146646411Y-118880326D02*
X146467840Y-118880326D01*
X146467840Y-118880326D02*
X146229745Y-118820802D01*
X146229745Y-118820802D02*
X146110697Y-118761279D01*
X146110697Y-118761279D02*
X145991650Y-118642231D01*
X145991650Y-118642231D02*
X145932126Y-118463660D01*
X145932126Y-118463660D02*
X145932126Y-118344612D01*
X145932126Y-118344612D02*
X145991650Y-118166041D01*
X145991650Y-118166041D02*
X146051173Y-118106517D01*
X146051173Y-118106517D02*
X146467840Y-118106517D01*
X146467840Y-118106517D02*
X146467840Y-118344612D01*
X145932126Y-117570802D02*
X147182126Y-117570802D01*
X147182126Y-117570802D02*
X145932126Y-116856517D01*
X145932126Y-116856517D02*
X147182126Y-116856517D01*
X145932126Y-116261278D02*
X147182126Y-116261278D01*
X147182126Y-116261278D02*
X147182126Y-115963659D01*
X147182126Y-115963659D02*
X147122602Y-115785088D01*
X147122602Y-115785088D02*
X147003554Y-115666040D01*
X147003554Y-115666040D02*
X146884507Y-115606517D01*
X146884507Y-115606517D02*
X146646411Y-115546993D01*
X146646411Y-115546993D02*
X146467840Y-115546993D01*
X146467840Y-115546993D02*
X146229745Y-115606517D01*
X146229745Y-115606517D02*
X146110697Y-115666040D01*
X146110697Y-115666040D02*
X145991650Y-115785088D01*
X145991650Y-115785088D02*
X145932126Y-115963659D01*
X145932126Y-115963659D02*
X145932126Y-116261278D01*
X175320802Y-91567873D02*
X175320802Y-90317873D01*
X175320802Y-90317873D02*
X175023183Y-90317873D01*
X175023183Y-90317873D02*
X174844612Y-90377397D01*
X174844612Y-90377397D02*
X174725564Y-90496445D01*
X174725564Y-90496445D02*
X174666041Y-90615492D01*
X174666041Y-90615492D02*
X174606517Y-90853588D01*
X174606517Y-90853588D02*
X174606517Y-91032159D01*
X174606517Y-91032159D02*
X174666041Y-91270254D01*
X174666041Y-91270254D02*
X174725564Y-91389302D01*
X174725564Y-91389302D02*
X174844612Y-91508350D01*
X174844612Y-91508350D02*
X175023183Y-91567873D01*
X175023183Y-91567873D02*
X175320802Y-91567873D01*
X174070802Y-91567873D02*
X174070802Y-90317873D01*
X173535088Y-91508350D02*
X173356517Y-91567873D01*
X173356517Y-91567873D02*
X173058898Y-91567873D01*
X173058898Y-91567873D02*
X172939850Y-91508350D01*
X172939850Y-91508350D02*
X172880326Y-91448826D01*
X172880326Y-91448826D02*
X172820803Y-91329778D01*
X172820803Y-91329778D02*
X172820803Y-91210730D01*
X172820803Y-91210730D02*
X172880326Y-91091683D01*
X172880326Y-91091683D02*
X172939850Y-91032159D01*
X172939850Y-91032159D02*
X173058898Y-90972635D01*
X173058898Y-90972635D02*
X173296993Y-90913111D01*
X173296993Y-90913111D02*
X173416041Y-90853588D01*
X173416041Y-90853588D02*
X173475564Y-90794064D01*
X173475564Y-90794064D02*
X173535088Y-90675016D01*
X173535088Y-90675016D02*
X173535088Y-90555969D01*
X173535088Y-90555969D02*
X173475564Y-90436921D01*
X173475564Y-90436921D02*
X173416041Y-90377397D01*
X173416041Y-90377397D02*
X173296993Y-90317873D01*
X173296993Y-90317873D02*
X172999374Y-90317873D01*
X172999374Y-90317873D02*
X172820803Y-90377397D01*
X172285088Y-91567873D02*
X172285088Y-90317873D01*
X172285088Y-90317873D02*
X171808898Y-90317873D01*
X171808898Y-90317873D02*
X171689850Y-90377397D01*
X171689850Y-90377397D02*
X171630327Y-90436921D01*
X171630327Y-90436921D02*
X171570803Y-90555969D01*
X171570803Y-90555969D02*
X171570803Y-90734540D01*
X171570803Y-90734540D02*
X171630327Y-90853588D01*
X171630327Y-90853588D02*
X171689850Y-90913111D01*
X171689850Y-90913111D02*
X171808898Y-90972635D01*
X171808898Y-90972635D02*
X172285088Y-90972635D01*
X170439850Y-91567873D02*
X171035088Y-91567873D01*
X171035088Y-91567873D02*
X171035088Y-90317873D01*
X170082707Y-91210730D02*
X169487469Y-91210730D01*
X170201755Y-91567873D02*
X169785088Y-90317873D01*
X169785088Y-90317873D02*
X169368422Y-91567873D01*
X168713659Y-90972635D02*
X168713659Y-91567873D01*
X169130326Y-90317873D02*
X168713659Y-90972635D01*
X168713659Y-90972635D02*
X168296993Y-90317873D01*
X166987468Y-91508350D02*
X166808897Y-91567873D01*
X166808897Y-91567873D02*
X166511278Y-91567873D01*
X166511278Y-91567873D02*
X166392230Y-91508350D01*
X166392230Y-91508350D02*
X166332706Y-91448826D01*
X166332706Y-91448826D02*
X166273183Y-91329778D01*
X166273183Y-91329778D02*
X166273183Y-91210730D01*
X166273183Y-91210730D02*
X166332706Y-91091683D01*
X166332706Y-91091683D02*
X166392230Y-91032159D01*
X166392230Y-91032159D02*
X166511278Y-90972635D01*
X166511278Y-90972635D02*
X166749373Y-90913111D01*
X166749373Y-90913111D02*
X166868421Y-90853588D01*
X166868421Y-90853588D02*
X166927944Y-90794064D01*
X166927944Y-90794064D02*
X166987468Y-90675016D01*
X166987468Y-90675016D02*
X166987468Y-90555969D01*
X166987468Y-90555969D02*
X166927944Y-90436921D01*
X166927944Y-90436921D02*
X166868421Y-90377397D01*
X166868421Y-90377397D02*
X166749373Y-90317873D01*
X166749373Y-90317873D02*
X166451754Y-90317873D01*
X166451754Y-90317873D02*
X166273183Y-90377397D01*
X165023183Y-91448826D02*
X165082707Y-91508350D01*
X165082707Y-91508350D02*
X165261278Y-91567873D01*
X165261278Y-91567873D02*
X165380326Y-91567873D01*
X165380326Y-91567873D02*
X165558897Y-91508350D01*
X165558897Y-91508350D02*
X165677945Y-91389302D01*
X165677945Y-91389302D02*
X165737468Y-91270254D01*
X165737468Y-91270254D02*
X165796992Y-91032159D01*
X165796992Y-91032159D02*
X165796992Y-90853588D01*
X165796992Y-90853588D02*
X165737468Y-90615492D01*
X165737468Y-90615492D02*
X165677945Y-90496445D01*
X165677945Y-90496445D02*
X165558897Y-90377397D01*
X165558897Y-90377397D02*
X165380326Y-90317873D01*
X165380326Y-90317873D02*
X165261278Y-90317873D01*
X165261278Y-90317873D02*
X165082707Y-90377397D01*
X165082707Y-90377397D02*
X165023183Y-90436921D01*
X163892230Y-91567873D02*
X164487468Y-91567873D01*
X164487468Y-91567873D02*
X164487468Y-90317873D01*
X163237468Y-90317873D02*
X163118421Y-90317873D01*
X163118421Y-90317873D02*
X162999373Y-90377397D01*
X162999373Y-90377397D02*
X162939849Y-90436921D01*
X162939849Y-90436921D02*
X162880325Y-90555969D01*
X162880325Y-90555969D02*
X162820802Y-90794064D01*
X162820802Y-90794064D02*
X162820802Y-91091683D01*
X162820802Y-91091683D02*
X162880325Y-91329778D01*
X162880325Y-91329778D02*
X162939849Y-91448826D01*
X162939849Y-91448826D02*
X162999373Y-91508350D01*
X162999373Y-91508350D02*
X163118421Y-91567873D01*
X163118421Y-91567873D02*
X163237468Y-91567873D01*
X163237468Y-91567873D02*
X163356516Y-91508350D01*
X163356516Y-91508350D02*
X163416040Y-91448826D01*
X163416040Y-91448826D02*
X163475563Y-91329778D01*
X163475563Y-91329778D02*
X163535087Y-91091683D01*
X163535087Y-91091683D02*
X163535087Y-90794064D01*
X163535087Y-90794064D02*
X163475563Y-90555969D01*
X163475563Y-90555969D02*
X163416040Y-90436921D01*
X163416040Y-90436921D02*
X163356516Y-90377397D01*
X163356516Y-90377397D02*
X163237468Y-90317873D01*
X175380326Y-97508350D02*
X175201755Y-97567873D01*
X175201755Y-97567873D02*
X174904136Y-97567873D01*
X174904136Y-97567873D02*
X174785088Y-97508350D01*
X174785088Y-97508350D02*
X174725564Y-97448826D01*
X174725564Y-97448826D02*
X174666041Y-97329778D01*
X174666041Y-97329778D02*
X174666041Y-97210730D01*
X174666041Y-97210730D02*
X174725564Y-97091683D01*
X174725564Y-97091683D02*
X174785088Y-97032159D01*
X174785088Y-97032159D02*
X174904136Y-96972635D01*
X174904136Y-96972635D02*
X175142231Y-96913111D01*
X175142231Y-96913111D02*
X175261279Y-96853588D01*
X175261279Y-96853588D02*
X175320802Y-96794064D01*
X175320802Y-96794064D02*
X175380326Y-96675016D01*
X175380326Y-96675016D02*
X175380326Y-96555969D01*
X175380326Y-96555969D02*
X175320802Y-96436921D01*
X175320802Y-96436921D02*
X175261279Y-96377397D01*
X175261279Y-96377397D02*
X175142231Y-96317873D01*
X175142231Y-96317873D02*
X174844612Y-96317873D01*
X174844612Y-96317873D02*
X174666041Y-96377397D01*
X173535088Y-97567873D02*
X174130326Y-97567873D01*
X174130326Y-97567873D02*
X174130326Y-96317873D01*
X173118421Y-97567873D02*
X173118421Y-96317873D01*
X172523183Y-97567873D02*
X172523183Y-96317873D01*
X172523183Y-96317873D02*
X172225564Y-96317873D01*
X172225564Y-96317873D02*
X172046993Y-96377397D01*
X172046993Y-96377397D02*
X171927945Y-96496445D01*
X171927945Y-96496445D02*
X171868422Y-96615492D01*
X171868422Y-96615492D02*
X171808898Y-96853588D01*
X171808898Y-96853588D02*
X171808898Y-97032159D01*
X171808898Y-97032159D02*
X171868422Y-97270254D01*
X171868422Y-97270254D02*
X171927945Y-97389302D01*
X171927945Y-97389302D02*
X172046993Y-97508350D01*
X172046993Y-97508350D02*
X172225564Y-97567873D01*
X172225564Y-97567873D02*
X172523183Y-97567873D01*
X171273183Y-96913111D02*
X170856517Y-96913111D01*
X170677945Y-97567873D02*
X171273183Y-97567873D01*
X171273183Y-97567873D02*
X171273183Y-96317873D01*
X171273183Y-96317873D02*
X170677945Y-96317873D01*
X169427946Y-97567873D02*
X169844612Y-96972635D01*
X170142231Y-97567873D02*
X170142231Y-96317873D01*
X170142231Y-96317873D02*
X169666041Y-96317873D01*
X169666041Y-96317873D02*
X169546993Y-96377397D01*
X169546993Y-96377397D02*
X169487470Y-96436921D01*
X169487470Y-96436921D02*
X169427946Y-96555969D01*
X169427946Y-96555969D02*
X169427946Y-96734540D01*
X169427946Y-96734540D02*
X169487470Y-96853588D01*
X169487470Y-96853588D02*
X169546993Y-96913111D01*
X169546993Y-96913111D02*
X169666041Y-96972635D01*
X169666041Y-96972635D02*
X170142231Y-96972635D01*
X167999374Y-97508350D02*
X167820803Y-97567873D01*
X167820803Y-97567873D02*
X167523184Y-97567873D01*
X167523184Y-97567873D02*
X167404136Y-97508350D01*
X167404136Y-97508350D02*
X167344612Y-97448826D01*
X167344612Y-97448826D02*
X167285089Y-97329778D01*
X167285089Y-97329778D02*
X167285089Y-97210730D01*
X167285089Y-97210730D02*
X167344612Y-97091683D01*
X167344612Y-97091683D02*
X167404136Y-97032159D01*
X167404136Y-97032159D02*
X167523184Y-96972635D01*
X167523184Y-96972635D02*
X167761279Y-96913111D01*
X167761279Y-96913111D02*
X167880327Y-96853588D01*
X167880327Y-96853588D02*
X167939850Y-96794064D01*
X167939850Y-96794064D02*
X167999374Y-96675016D01*
X167999374Y-96675016D02*
X167999374Y-96555969D01*
X167999374Y-96555969D02*
X167939850Y-96436921D01*
X167939850Y-96436921D02*
X167880327Y-96377397D01*
X167880327Y-96377397D02*
X167761279Y-96317873D01*
X167761279Y-96317873D02*
X167463660Y-96317873D01*
X167463660Y-96317873D02*
X167285089Y-96377397D01*
X166749374Y-97567873D02*
X166749374Y-96317873D01*
X166749374Y-96317873D02*
X166451755Y-96317873D01*
X166451755Y-96317873D02*
X166273184Y-96377397D01*
X166273184Y-96377397D02*
X166154136Y-96496445D01*
X166154136Y-96496445D02*
X166094613Y-96615492D01*
X166094613Y-96615492D02*
X166035089Y-96853588D01*
X166035089Y-96853588D02*
X166035089Y-97032159D01*
X166035089Y-97032159D02*
X166094613Y-97270254D01*
X166094613Y-97270254D02*
X166154136Y-97389302D01*
X166154136Y-97389302D02*
X166273184Y-97508350D01*
X166273184Y-97508350D02*
X166451755Y-97567873D01*
X166451755Y-97567873D02*
X166749374Y-97567873D01*
X165558898Y-97210730D02*
X164963660Y-97210730D01*
X165677946Y-97567873D02*
X165261279Y-96317873D01*
X165261279Y-96317873D02*
X164844613Y-97567873D01*
X163773184Y-97567873D02*
X164487469Y-97567873D01*
X164130326Y-97567873D02*
X164130326Y-96317873D01*
X164130326Y-96317873D02*
X164249374Y-96496445D01*
X164249374Y-96496445D02*
X164368422Y-96615492D01*
X164368422Y-96615492D02*
X164487469Y-96675016D01*
X110560149Y-60567873D02*
X110976815Y-59972635D01*
X111274434Y-60567873D02*
X111274434Y-59317873D01*
X111274434Y-59317873D02*
X110798244Y-59317873D01*
X110798244Y-59317873D02*
X110679196Y-59377397D01*
X110679196Y-59377397D02*
X110619673Y-59436921D01*
X110619673Y-59436921D02*
X110560149Y-59555969D01*
X110560149Y-59555969D02*
X110560149Y-59734540D01*
X110560149Y-59734540D02*
X110619673Y-59853588D01*
X110619673Y-59853588D02*
X110679196Y-59913111D01*
X110679196Y-59913111D02*
X110798244Y-59972635D01*
X110798244Y-59972635D02*
X111274434Y-59972635D01*
X110143482Y-59317873D02*
X109369673Y-59317873D01*
X109369673Y-59317873D02*
X109786339Y-59794064D01*
X109786339Y-59794064D02*
X109607768Y-59794064D01*
X109607768Y-59794064D02*
X109488720Y-59853588D01*
X109488720Y-59853588D02*
X109429196Y-59913111D01*
X109429196Y-59913111D02*
X109369673Y-60032159D01*
X109369673Y-60032159D02*
X109369673Y-60329778D01*
X109369673Y-60329778D02*
X109429196Y-60448826D01*
X109429196Y-60448826D02*
X109488720Y-60508350D01*
X109488720Y-60508350D02*
X109607768Y-60567873D01*
X109607768Y-60567873D02*
X109964911Y-60567873D01*
X109964911Y-60567873D02*
X110083958Y-60508350D01*
X110083958Y-60508350D02*
X110143482Y-60448826D01*
X110441101Y-97567873D02*
X111036339Y-97567873D01*
X111036339Y-97567873D02*
X111036339Y-96317873D01*
X110083958Y-96436921D02*
X110024434Y-96377397D01*
X110024434Y-96377397D02*
X109905387Y-96317873D01*
X109905387Y-96317873D02*
X109607768Y-96317873D01*
X109607768Y-96317873D02*
X109488720Y-96377397D01*
X109488720Y-96377397D02*
X109429196Y-96436921D01*
X109429196Y-96436921D02*
X109369673Y-96555969D01*
X109369673Y-96555969D02*
X109369673Y-96675016D01*
X109369673Y-96675016D02*
X109429196Y-96853588D01*
X109429196Y-96853588D02*
X110143482Y-97567873D01*
X110143482Y-97567873D02*
X109369673Y-97567873D01*
X113476816Y-66567873D02*
X113893482Y-65972635D01*
X114191101Y-66567873D02*
X114191101Y-65317873D01*
X114191101Y-65317873D02*
X113714911Y-65317873D01*
X113714911Y-65317873D02*
X113595863Y-65377397D01*
X113595863Y-65377397D02*
X113536340Y-65436921D01*
X113536340Y-65436921D02*
X113476816Y-65555969D01*
X113476816Y-65555969D02*
X113476816Y-65734540D01*
X113476816Y-65734540D02*
X113536340Y-65853588D01*
X113536340Y-65853588D02*
X113595863Y-65913111D01*
X113595863Y-65913111D02*
X113714911Y-65972635D01*
X113714911Y-65972635D02*
X114191101Y-65972635D01*
X112941101Y-66567873D02*
X112941101Y-65317873D01*
X111691102Y-65377397D02*
X111810149Y-65317873D01*
X111810149Y-65317873D02*
X111988721Y-65317873D01*
X111988721Y-65317873D02*
X112167292Y-65377397D01*
X112167292Y-65377397D02*
X112286340Y-65496445D01*
X112286340Y-65496445D02*
X112345863Y-65615492D01*
X112345863Y-65615492D02*
X112405387Y-65853588D01*
X112405387Y-65853588D02*
X112405387Y-66032159D01*
X112405387Y-66032159D02*
X112345863Y-66270254D01*
X112345863Y-66270254D02*
X112286340Y-66389302D01*
X112286340Y-66389302D02*
X112167292Y-66508350D01*
X112167292Y-66508350D02*
X111988721Y-66567873D01*
X111988721Y-66567873D02*
X111869673Y-66567873D01*
X111869673Y-66567873D02*
X111691102Y-66508350D01*
X111691102Y-66508350D02*
X111631578Y-66448826D01*
X111631578Y-66448826D02*
X111631578Y-66032159D01*
X111631578Y-66032159D02*
X111869673Y-66032159D01*
X111095863Y-66567873D02*
X111095863Y-65317873D01*
X111095863Y-65913111D02*
X110381578Y-65913111D01*
X110381578Y-66567873D02*
X110381578Y-65317873D01*
X109964911Y-65317873D02*
X109250625Y-65317873D01*
X109607768Y-66567873D02*
X109607768Y-65317873D01*
X174149999Y-63413171D02*
X173507142Y-64556028D01*
X173507142Y-64556028D02*
X174792856Y-64556028D01*
X174792856Y-64556028D02*
X174149999Y-63413171D01*
X112405387Y-68567873D02*
X113000625Y-68567873D01*
X113000625Y-68567873D02*
X113000625Y-67317873D01*
X111988720Y-67913111D02*
X111572054Y-67913111D01*
X111393482Y-68567873D02*
X111988720Y-68567873D01*
X111988720Y-68567873D02*
X111988720Y-67317873D01*
X111988720Y-67317873D02*
X111393482Y-67317873D01*
X110441102Y-67913111D02*
X110857768Y-67913111D01*
X110857768Y-68567873D02*
X110857768Y-67317873D01*
X110857768Y-67317873D02*
X110262530Y-67317873D01*
X109964911Y-67317873D02*
X109250625Y-67317873D01*
X109607768Y-68567873D02*
X109607768Y-67317873D01*
X145086828Y-118249999D02*
X143943971Y-117607142D01*
X143943971Y-117607142D02*
X143943971Y-118892856D01*
X143943971Y-118892856D02*
X145086828Y-118249999D01*
X174292856Y-69413171D02*
X174007142Y-69413171D01*
X174007142Y-69413171D02*
X173721428Y-69556028D01*
X173721428Y-69556028D02*
X173578571Y-69841742D01*
X173578571Y-69841742D02*
X173578571Y-70127457D01*
X173578571Y-70127457D02*
X173721428Y-70413171D01*
X173721428Y-70413171D02*
X174007142Y-70556028D01*
X174007142Y-70556028D02*
X174292856Y-70556028D01*
X174292856Y-70556028D02*
X174578571Y-70413171D01*
X174578571Y-70413171D02*
X174721428Y-70127457D01*
X174721428Y-70127457D02*
X174721428Y-69841742D01*
X174721428Y-69841742D02*
X174578571Y-69556028D01*
X174578571Y-69556028D02*
X174292856Y-69413171D01*
X141071428Y-117661504D02*
X139928571Y-118804361D01*
X139928571Y-117661504D02*
X141071428Y-118804361D01*
X174725564Y-61317873D02*
X175320802Y-61317873D01*
X175320802Y-61317873D02*
X175380326Y-61913111D01*
X175380326Y-61913111D02*
X175320802Y-61853588D01*
X175320802Y-61853588D02*
X175201755Y-61794064D01*
X175201755Y-61794064D02*
X174904136Y-61794064D01*
X174904136Y-61794064D02*
X174785088Y-61853588D01*
X174785088Y-61853588D02*
X174725564Y-61913111D01*
X174725564Y-61913111D02*
X174666041Y-62032159D01*
X174666041Y-62032159D02*
X174666041Y-62329778D01*
X174666041Y-62329778D02*
X174725564Y-62448826D01*
X174725564Y-62448826D02*
X174785088Y-62508350D01*
X174785088Y-62508350D02*
X174904136Y-62567873D01*
X174904136Y-62567873D02*
X175201755Y-62567873D01*
X175201755Y-62567873D02*
X175320802Y-62508350D01*
X175320802Y-62508350D02*
X175380326Y-62448826D01*
X174308898Y-61317873D02*
X173892231Y-62567873D01*
X173892231Y-62567873D02*
X173475565Y-61317873D01*
X171511278Y-62567873D02*
X172106516Y-62567873D01*
X172106516Y-62567873D02*
X172106516Y-61317873D01*
X171094611Y-61913111D02*
X170677945Y-61913111D01*
X170499373Y-62567873D02*
X171094611Y-62567873D01*
X171094611Y-62567873D02*
X171094611Y-61317873D01*
X171094611Y-61317873D02*
X170499373Y-61317873D01*
X169963659Y-62567873D02*
X169963659Y-61317873D01*
X169963659Y-61317873D02*
X169666040Y-61317873D01*
X169666040Y-61317873D02*
X169487469Y-61377397D01*
X169487469Y-61377397D02*
X169368421Y-61496445D01*
X169368421Y-61496445D02*
X169308898Y-61615492D01*
X169308898Y-61615492D02*
X169249374Y-61853588D01*
X169249374Y-61853588D02*
X169249374Y-62032159D01*
X169249374Y-62032159D02*
X169308898Y-62270254D01*
X169308898Y-62270254D02*
X169368421Y-62389302D01*
X169368421Y-62389302D02*
X169487469Y-62508350D01*
X169487469Y-62508350D02*
X169666040Y-62567873D01*
X169666040Y-62567873D02*
X169963659Y-62567873D01*
X168713659Y-62091683D02*
X167761279Y-62091683D01*
X168237469Y-62567873D02*
X168237469Y-61615492D01*
X143071428Y-117663171D02*
X141928571Y-117663171D01*
X141928571Y-117663171D02*
X141928571Y-118806028D01*
X141928571Y-118806028D02*
X143071428Y-118806028D01*
X143071428Y-118806028D02*
X143071428Y-117663171D01*
X171475564Y-70567873D02*
X172070802Y-70567873D01*
X172070802Y-70567873D02*
X172070802Y-69317873D01*
X171058897Y-69913111D02*
X170642231Y-69913111D01*
X170463659Y-70567873D02*
X171058897Y-70567873D01*
X171058897Y-70567873D02*
X171058897Y-69317873D01*
X171058897Y-69317873D02*
X170463659Y-69317873D01*
X169927945Y-70567873D02*
X169927945Y-69317873D01*
X169927945Y-69317873D02*
X169630326Y-69317873D01*
X169630326Y-69317873D02*
X169451755Y-69377397D01*
X169451755Y-69377397D02*
X169332707Y-69496445D01*
X169332707Y-69496445D02*
X169273184Y-69615492D01*
X169273184Y-69615492D02*
X169213660Y-69853588D01*
X169213660Y-69853588D02*
X169213660Y-70032159D01*
X169213660Y-70032159D02*
X169273184Y-70270254D01*
X169273184Y-70270254D02*
X169332707Y-70389302D01*
X169332707Y-70389302D02*
X169451755Y-70508350D01*
X169451755Y-70508350D02*
X169630326Y-70567873D01*
X169630326Y-70567873D02*
X169927945Y-70567873D01*
X168677945Y-70091683D02*
X167725565Y-70091683D01*
M02*
