%TF.GenerationSoftware,KiCad,Pcbnew,9.0.5-1.fc42*%
%TF.CreationDate,2025-11-08T17:03:36+10:30*%
%TF.ProjectId,DivaConIO,44697661-436f-46e4-994f-2e6b69636164,1.0*%
%TF.SameCoordinates,Original*%
%TF.FileFunction,Copper,L2,Bot*%
%TF.FilePolarity,Positive*%
%FSLAX46Y46*%
G04 Gerber Fmt 4.6, Leading zero omitted, Abs format (unit mm)*
G04 Created by KiCad (PCBNEW 9.0.5-1.fc42) date 2025-11-08 17:03:36*
%MOMM*%
%LPD*%
G01*
G04 APERTURE LIST*
%TA.AperFunction,Conductor*%
%ADD10C,0.300000*%
%TD*%
%ADD11C,0.300000*%
%TA.AperFunction,NonConductor*%
%ADD12C,0.300000*%
%TD*%
%TA.AperFunction,ComponentPad*%
%ADD13C,0.800000*%
%TD*%
%TA.AperFunction,ComponentPad*%
%ADD14C,6.400000*%
%TD*%
%TA.AperFunction,ViaPad*%
%ADD15C,0.700000*%
%TD*%
%TA.AperFunction,Conductor*%
%ADD16C,0.800000*%
%TD*%
%TA.AperFunction,Conductor*%
%ADD17C,0.254000*%
%TD*%
G04 APERTURE END LIST*
D10*
%TO.N,GND*%
X137650000Y-146150000D02*
X143350000Y-146150000D01*
X140500000Y-146150000D02*
X140500000Y-148850000D01*
X143350000Y-148850000D02*
X137650000Y-148850000D01*
X137650000Y-148850000D02*
X137650000Y-146150000D01*
X143350000Y-148850000D02*
X143350000Y-146150000D01*
D11*
D12*
X142428570Y-146821185D02*
X142357142Y-146749757D01*
X142357142Y-146749757D02*
X142214285Y-146678328D01*
X142214285Y-146678328D02*
X141857142Y-146678328D01*
X141857142Y-146678328D02*
X141714285Y-146749757D01*
X141714285Y-146749757D02*
X141642856Y-146821185D01*
X141642856Y-146821185D02*
X141571427Y-146964042D01*
X141571427Y-146964042D02*
X141571427Y-147106900D01*
X141571427Y-147106900D02*
X141642856Y-147321185D01*
X141642856Y-147321185D02*
X142499999Y-148178328D01*
X142499999Y-148178328D02*
X141571427Y-148178328D01*
%TD*%
D13*
%TO.P,H4,1,1*%
%TO.N,GND*%
X101600000Y-79000000D03*
X102302944Y-77302944D03*
X102302944Y-80697056D03*
X104000000Y-76600000D03*
D14*
X104000000Y-79000000D03*
D13*
X104000000Y-81400000D03*
X105697056Y-77302944D03*
X105697056Y-80697056D03*
X106400000Y-79000000D03*
%TD*%
%TO.P,H1,1,1*%
%TO.N,GND*%
X158600000Y-79000000D03*
X159302944Y-77302944D03*
X159302944Y-80697056D03*
X161000000Y-76600000D03*
D14*
X161000000Y-79000000D03*
D13*
X161000000Y-81400000D03*
X162697056Y-77302944D03*
X162697056Y-80697056D03*
X163400000Y-79000000D03*
%TD*%
%TO.P,H2,1,1*%
%TO.N,GND*%
X101600000Y-146000000D03*
X102302944Y-144302944D03*
X102302944Y-147697056D03*
X104000000Y-143600000D03*
D14*
X104000000Y-146000000D03*
D13*
X104000000Y-148400000D03*
X105697056Y-144302944D03*
X105697056Y-147697056D03*
X106400000Y-146000000D03*
%TD*%
%TO.P,H3,1,1*%
%TO.N,GND*%
X158600000Y-146000000D03*
X159302944Y-144302944D03*
X159302944Y-147697056D03*
X161000000Y-143600000D03*
D14*
X161000000Y-146000000D03*
D13*
X161000000Y-148400000D03*
X162697056Y-144302944D03*
X162697056Y-147697056D03*
X163400000Y-146000000D03*
%TD*%
D15*
%TO.N,+3V3*%
X119325000Y-131250000D03*
X146500000Y-127250000D03*
X148500000Y-86750000D03*
X114986000Y-84468000D03*
X149200000Y-112500000D03*
X114986000Y-92342000D03*
X114986000Y-99750000D03*
X117000000Y-141500000D03*
X118000000Y-138500000D03*
X149200000Y-117500000D03*
X114986000Y-97168000D03*
X149000000Y-102000000D03*
X116447000Y-111392000D03*
X149200000Y-110000000D03*
X148500000Y-87750000D03*
X114986000Y-102250000D03*
X118000000Y-139500000D03*
X118000000Y-140500000D03*
X117000000Y-139500000D03*
X146500000Y-87750000D03*
X115000000Y-79388000D03*
X146500000Y-86750000D03*
X148500000Y-88750000D03*
X146482000Y-120089800D03*
X114986000Y-104774000D03*
X116447000Y-108852000D03*
X115000000Y-76848000D03*
X117000000Y-140500000D03*
X147500000Y-87750000D03*
X147500000Y-86750000D03*
X118000000Y-141500000D03*
X147500000Y-88750000D03*
X125750000Y-130000000D03*
X114986000Y-89500000D03*
X146500000Y-88750000D03*
X117000000Y-138500000D03*
X149200000Y-115000000D03*
X114986000Y-87008000D03*
X115494000Y-115456000D03*
%TO.N,+5V*%
X115000000Y-140500000D03*
X149250000Y-78500000D03*
X114000000Y-139500000D03*
X149250000Y-77500000D03*
X118047000Y-126000000D03*
X156000000Y-98000000D03*
X114000000Y-140500000D03*
X156000000Y-97000000D03*
X151250000Y-76500000D03*
X115000000Y-138500000D03*
X156000000Y-99000000D03*
X156000000Y-100000000D03*
X115000000Y-139500000D03*
X150250000Y-77500000D03*
X151250000Y-78500000D03*
X150250000Y-76500000D03*
X148250000Y-78500000D03*
X115000000Y-141500000D03*
X114000000Y-138500000D03*
X149250000Y-76500000D03*
X151250000Y-79500000D03*
X150250000Y-78500000D03*
X114000000Y-141500000D03*
X151250000Y-77500000D03*
X150250000Y-79500000D03*
%TO.N,Net-(A1-SWDIO)*%
X150000000Y-141500000D03*
X148000000Y-143500000D03*
%TO.N,GND*%
X117250000Y-122250000D03*
X124750000Y-134000000D03*
X159000000Y-102500000D03*
X147000000Y-78500000D03*
X108400000Y-122000000D03*
X106000000Y-87500000D03*
X108400000Y-126000000D03*
X125500000Y-118750000D03*
X108400000Y-110400000D03*
X154000000Y-137000000D03*
X111000000Y-137000000D03*
X127000000Y-80000000D03*
X105999022Y-120247944D03*
X161000000Y-139500000D03*
X113970000Y-102248000D03*
X163000000Y-122500000D03*
X136000000Y-95000000D03*
X139000000Y-122000000D03*
X132500000Y-134000000D03*
X158000000Y-104000000D03*
X153000000Y-82500000D03*
X138500000Y-139000000D03*
X154000000Y-133000000D03*
X130500000Y-140000000D03*
X114000000Y-131000000D03*
X104000000Y-85500000D03*
X162000000Y-85500000D03*
X132500000Y-144000000D03*
X124000000Y-148000000D03*
X108400000Y-97000000D03*
X133000000Y-113000000D03*
X131500000Y-128000000D03*
X150250000Y-92350000D03*
X144750000Y-106000000D03*
X126000000Y-141500000D03*
X103065476Y-83350000D03*
X105999022Y-119247944D03*
X160000000Y-104500000D03*
X105000000Y-139500000D03*
X119000000Y-134000000D03*
X127000000Y-101000000D03*
X139000000Y-101000000D03*
X108400000Y-124000000D03*
X156250000Y-134000000D03*
X118500000Y-128000000D03*
X136000000Y-119000000D03*
X145000000Y-148000000D03*
X138500000Y-130000000D03*
X106065476Y-83350000D03*
X120250000Y-113678000D03*
X136000000Y-128000000D03*
X136600000Y-137000000D03*
X120250000Y-103518000D03*
X147000000Y-82500000D03*
X109000000Y-107000000D03*
X120000000Y-141500000D03*
X159000000Y-85500000D03*
X161000000Y-85500000D03*
X155000000Y-119000000D03*
X105999022Y-123247944D03*
X150750000Y-101000000D03*
X156000000Y-91000000D03*
X127000000Y-92000000D03*
X162000000Y-139500000D03*
X133000000Y-82000000D03*
X130000000Y-98000000D03*
X145000000Y-137000000D03*
X132500000Y-78500000D03*
X125500000Y-95732000D03*
X111000000Y-140000000D03*
X120250000Y-95644000D03*
X126300000Y-127200000D03*
X151000000Y-147000000D03*
X110500000Y-149000000D03*
X110500000Y-147000000D03*
X160000000Y-122500000D03*
X136000000Y-143000000D03*
X110500000Y-144000000D03*
X130000000Y-113000000D03*
X148000000Y-134000000D03*
X142500000Y-143000000D03*
X130000000Y-110000000D03*
X130000000Y-92000000D03*
X159000000Y-137500000D03*
X101000000Y-120750000D03*
X136000000Y-101000000D03*
X118000000Y-137000000D03*
X114000000Y-80250000D03*
X163000000Y-130000000D03*
X151065476Y-83350000D03*
X102000000Y-120750000D03*
X106000000Y-101750000D03*
X126000000Y-148000000D03*
X147000000Y-147000000D03*
X151750000Y-94000000D03*
X159000000Y-122500000D03*
X159000000Y-87500000D03*
X130500000Y-144000000D03*
X133000000Y-89000000D03*
X116000000Y-131000000D03*
X151000000Y-145500000D03*
X113970000Y-76848000D03*
X108400000Y-108400000D03*
X147250000Y-91250000D03*
X127500000Y-137000000D03*
X156000000Y-82500000D03*
X136000000Y-104000000D03*
X148000000Y-82500000D03*
X150250000Y-119000000D03*
X139000000Y-95000000D03*
X159000000Y-123500000D03*
X145000000Y-98350000D03*
X110400000Y-87000000D03*
X151000000Y-89500000D03*
X130000000Y-122000000D03*
X139000000Y-76000000D03*
X128000000Y-141500000D03*
X164000000Y-99000000D03*
X105000000Y-141500000D03*
X145000000Y-76000000D03*
X127000000Y-110000000D03*
X106000000Y-102750000D03*
X163000000Y-107000000D03*
X156250000Y-132000000D03*
X139000000Y-89000000D03*
X139000000Y-125000000D03*
X153250000Y-125000000D03*
X134250000Y-130000000D03*
X142500000Y-139000000D03*
X164000000Y-101000000D03*
X133500000Y-145000000D03*
X106000000Y-103750000D03*
X153750000Y-94000000D03*
X122000000Y-131500000D03*
X124000000Y-137000000D03*
X134200000Y-137000000D03*
X153000000Y-89000000D03*
X159000000Y-104500000D03*
X153200000Y-130200000D03*
X122000000Y-129000000D03*
X127500000Y-134000000D03*
X110500000Y-148000000D03*
X125500000Y-80750000D03*
X137000000Y-76000000D03*
X139000000Y-98000000D03*
X159500000Y-82500000D03*
X152000000Y-147000000D03*
X128000000Y-148000000D03*
X120250000Y-121250000D03*
X142500000Y-130000000D03*
X154250000Y-129250000D03*
X156000000Y-77000000D03*
X127000000Y-77000000D03*
X156000000Y-85500000D03*
X133500000Y-128000000D03*
X130000000Y-104000000D03*
X120250000Y-108500000D03*
X125500000Y-108500000D03*
X130000000Y-107000000D03*
X133500000Y-146000000D03*
X133000000Y-98000000D03*
X133000000Y-84000000D03*
X139000000Y-107000000D03*
X153000000Y-85500000D03*
X164000000Y-93000000D03*
X164000000Y-95000000D03*
X122000000Y-134000000D03*
X130000000Y-95000000D03*
X120250000Y-111138000D03*
X108400000Y-93000000D03*
X124000000Y-129000000D03*
X136000000Y-82000000D03*
X125500000Y-121250000D03*
X127000000Y-86000000D03*
X150250000Y-122000000D03*
X163000000Y-134000000D03*
X105000000Y-120750000D03*
X134000000Y-123500000D03*
X101000000Y-119750000D03*
X122000000Y-139500000D03*
X151000000Y-112500000D03*
X120000000Y-148000000D03*
X116000000Y-134000000D03*
X120250000Y-76000000D03*
X133000000Y-86000000D03*
X136000000Y-98000000D03*
X139000000Y-145500000D03*
X163000000Y-85500000D03*
X156000000Y-89000000D03*
X103000000Y-120750000D03*
X155000000Y-125000000D03*
X120250000Y-90750000D03*
X142000000Y-128000000D03*
X130000000Y-116000000D03*
X111500000Y-97500000D03*
X145000000Y-149000000D03*
X127000000Y-89000000D03*
X145000000Y-103500000D03*
X115500000Y-128000000D03*
X104000000Y-139500000D03*
X154000000Y-104000000D03*
X113970000Y-99708000D03*
X108400000Y-95000000D03*
X153250000Y-122000000D03*
X156000000Y-95000000D03*
X158000000Y-116000000D03*
X127000000Y-104000000D03*
X159000000Y-139500000D03*
X131000000Y-78500000D03*
X108400000Y-132000000D03*
X106000000Y-104750000D03*
X106000000Y-107750000D03*
X163000000Y-114500000D03*
X149000000Y-144500000D03*
X112000000Y-85000000D03*
X114986000Y-106820000D03*
X136000000Y-145500000D03*
X131500000Y-144000000D03*
X163000000Y-132000000D03*
X139000000Y-78500000D03*
X106000000Y-136500000D03*
X130000000Y-101000000D03*
X113970000Y-87008000D03*
X150250000Y-125000000D03*
X136000000Y-130000000D03*
X158000000Y-125000000D03*
X120250000Y-100978000D03*
X164000000Y-104500000D03*
X160000000Y-110000000D03*
X158000000Y-122000000D03*
X163000000Y-139500000D03*
X125400000Y-123800000D03*
X120250000Y-98250000D03*
X106000000Y-88500000D03*
X145000000Y-121044000D03*
X106000000Y-105750000D03*
X121400000Y-126600000D03*
X164000000Y-85500000D03*
X112000000Y-82000000D03*
X157000000Y-140000000D03*
X146000000Y-82500000D03*
X142000000Y-134000000D03*
X139000000Y-80500000D03*
X108400000Y-116400000D03*
X125500000Y-93192000D03*
X163000000Y-128000000D03*
X106000000Y-106750000D03*
X116000000Y-141500000D03*
X122000000Y-137000000D03*
X106000000Y-117250000D03*
X127000000Y-98000000D03*
X154000000Y-145500000D03*
X114000000Y-134000000D03*
X109500000Y-78000000D03*
X139000000Y-113000000D03*
X151750000Y-125000000D03*
X138500000Y-143000000D03*
X145000000Y-140750000D03*
X133000000Y-101000000D03*
X130000000Y-134000000D03*
X105999022Y-121247944D03*
X113970000Y-97168000D03*
X160000000Y-113500000D03*
X139000000Y-86000000D03*
X163075000Y-111075000D03*
X116000000Y-148000000D03*
X145000000Y-113350000D03*
X157000000Y-145500000D03*
X139000000Y-83000000D03*
X142000000Y-145500000D03*
X120000000Y-137000000D03*
X139000000Y-137000000D03*
X120250000Y-80750000D03*
X108000000Y-146000000D03*
X145000000Y-134000000D03*
X113970000Y-104788000D03*
X153250000Y-97500000D03*
X104000000Y-120750000D03*
X113970000Y-89548000D03*
X114986000Y-112916000D03*
X118000000Y-83000000D03*
X108400000Y-91000000D03*
X120250000Y-93250000D03*
X130500000Y-137000000D03*
X150500000Y-107000000D03*
X136000000Y-110000000D03*
X122000000Y-148000000D03*
X159000000Y-103500000D03*
X111000000Y-134000000D03*
X144500000Y-80500000D03*
X112000000Y-100500000D03*
X154000000Y-140000000D03*
X139000000Y-140750000D03*
X136000000Y-107000000D03*
X115200000Y-120600000D03*
X105000000Y-119750000D03*
X109500000Y-81500000D03*
X114000000Y-148000000D03*
X164000000Y-97000000D03*
X136200000Y-139000000D03*
X133000000Y-110000000D03*
X139000000Y-119000000D03*
X106000000Y-86500000D03*
X147250000Y-97500000D03*
X125500000Y-83250000D03*
X155000000Y-116000000D03*
X101000000Y-85500000D03*
X145000000Y-89350000D03*
X136500000Y-125000000D03*
X125400000Y-125600000D03*
X133500000Y-149000000D03*
X101000000Y-139500000D03*
X136000000Y-89000000D03*
X130000000Y-119000000D03*
X133500000Y-147000000D03*
X159000000Y-86500000D03*
X102000000Y-105250000D03*
X156250000Y-128000000D03*
X101000000Y-104250000D03*
X120250000Y-106000000D03*
X130000000Y-130000000D03*
X107500000Y-80500000D03*
X108400000Y-99000000D03*
X111500000Y-131000000D03*
X145000000Y-116350000D03*
X139000000Y-92000000D03*
X160000000Y-139500000D03*
X105999022Y-118247944D03*
X102000000Y-119750000D03*
X108400000Y-128000000D03*
X120250000Y-85738000D03*
X109400000Y-84600000D03*
X136000000Y-86000000D03*
X154000000Y-107000000D03*
X134250000Y-134000000D03*
X142000000Y-140750000D03*
X111500000Y-144000000D03*
X136000000Y-113000000D03*
X103000000Y-85500000D03*
X145000000Y-111250000D03*
X139000000Y-116000000D03*
X156000000Y-93000000D03*
X132500000Y-130000000D03*
X151000000Y-143000000D03*
X108400000Y-134000000D03*
X136000000Y-134000000D03*
X151750000Y-127500000D03*
X120250000Y-119000000D03*
X159000000Y-125500000D03*
X101000000Y-105250000D03*
X116000000Y-83000000D03*
X118034000Y-108344000D03*
X151750000Y-122000000D03*
X103000000Y-119750000D03*
X113970000Y-92342000D03*
X162000000Y-104500000D03*
X154000000Y-143000000D03*
X136000000Y-148500000D03*
X163000000Y-110000000D03*
X124000000Y-139500000D03*
X149500000Y-148500000D03*
X108400000Y-119000000D03*
X110500000Y-145000000D03*
X153000000Y-80000000D03*
X133000000Y-122000000D03*
X127000000Y-116000000D03*
X112000000Y-77000000D03*
X133000000Y-140000000D03*
X112500000Y-144000000D03*
X148000000Y-137000000D03*
X161000000Y-119000000D03*
X118000000Y-148000000D03*
X133000000Y-116000000D03*
X124000000Y-141500000D03*
X124750000Y-131500000D03*
X139000000Y-104000000D03*
X127000000Y-95000000D03*
X155000000Y-122000000D03*
X151000000Y-140000000D03*
X122000000Y-141500000D03*
X153000000Y-77000000D03*
X149500000Y-147500000D03*
X102000000Y-104250000D03*
X106000000Y-138500000D03*
X145000000Y-119012000D03*
X120250000Y-116218000D03*
X134000000Y-78500000D03*
X133000000Y-92000000D03*
X153250000Y-127500000D03*
X102000000Y-139500000D03*
X106000000Y-137500000D03*
X152250000Y-131250000D03*
X145000000Y-93612000D03*
X108000000Y-143000000D03*
X160000000Y-85500000D03*
X151000000Y-137000000D03*
X142000000Y-137000000D03*
X127500000Y-139500000D03*
X127000000Y-122000000D03*
X161000000Y-122500000D03*
X127000000Y-113000000D03*
X103000000Y-139500000D03*
X105999022Y-122247944D03*
X116000000Y-139250000D03*
X145000000Y-128000000D03*
X139000000Y-134000000D03*
X162000000Y-122500000D03*
X148500000Y-147500000D03*
X149000000Y-82500000D03*
X145000000Y-78000000D03*
X151000000Y-115750000D03*
X130000000Y-148000000D03*
X133500000Y-148000000D03*
X151000000Y-110000000D03*
X116500000Y-126000000D03*
X145000000Y-130000000D03*
X148000000Y-140750000D03*
X114000000Y-83000000D03*
X164000000Y-91000000D03*
X133500000Y-144000000D03*
X136000000Y-122000000D03*
X125500000Y-76000000D03*
X150250000Y-127500000D03*
X113500000Y-144000000D03*
X114000000Y-128500000D03*
X157000000Y-107000000D03*
X147400000Y-99400000D03*
X131000000Y-123500000D03*
X102000000Y-85500000D03*
X151000000Y-134000000D03*
X108400000Y-101000000D03*
X120000000Y-139500000D03*
X108000000Y-149000000D03*
X161000000Y-104500000D03*
X106000000Y-85500000D03*
X110500000Y-146000000D03*
X120250000Y-78118000D03*
X133000000Y-107000000D03*
X120250000Y-83250000D03*
X146000000Y-147000000D03*
X105000000Y-85500000D03*
X151750000Y-119000000D03*
X153000000Y-147000000D03*
X120250000Y-123750000D03*
X151250000Y-102750000D03*
X160000000Y-107000000D03*
X148500000Y-122500000D03*
X117250000Y-123750000D03*
X105000000Y-105250000D03*
X147250000Y-94000000D03*
X163075000Y-117925000D03*
X106000000Y-139500000D03*
X111250000Y-79250000D03*
X164000000Y-89000000D03*
X103000000Y-105250000D03*
X116000000Y-137000000D03*
X157000000Y-110000000D03*
X153250000Y-119000000D03*
X127000000Y-119000000D03*
X136000000Y-92000000D03*
X108400000Y-130000000D03*
X145000000Y-95644000D03*
X127000000Y-83000000D03*
X120250000Y-88278000D03*
X119200000Y-126000000D03*
X136000000Y-116000000D03*
X136000000Y-84000000D03*
X137000000Y-78500000D03*
X104000000Y-104250000D03*
X108400000Y-112400000D03*
X139000000Y-110000000D03*
X102000000Y-141500000D03*
X118065476Y-95350000D03*
X145000000Y-139000000D03*
X145000000Y-145500000D03*
X153000000Y-148000000D03*
X153250000Y-114750000D03*
X147500000Y-108500000D03*
X145000000Y-143000000D03*
X158000000Y-119000000D03*
X155000000Y-113000000D03*
X148500000Y-148500000D03*
X139000000Y-128000000D03*
X150750000Y-97500000D03*
X115500000Y-126000000D03*
X156250000Y-130000000D03*
X108400000Y-114400000D03*
X159000000Y-124500000D03*
X114000000Y-137000000D03*
X125500000Y-106000000D03*
X153000000Y-149000000D03*
X115200000Y-118504000D03*
X133000000Y-104000000D03*
X145000000Y-147000000D03*
X130000000Y-141500000D03*
X105000000Y-104250000D03*
X109000000Y-104000000D03*
X154250000Y-99500000D03*
X104000000Y-119750000D03*
X147250000Y-104750000D03*
X103000000Y-104250000D03*
X163000000Y-104500000D03*
X159000000Y-138500000D03*
X144750000Y-108500000D03*
X133000000Y-119000000D03*
X157000000Y-143000000D03*
X149250000Y-130500000D03*
X108000000Y-140000000D03*
X108000000Y-137000000D03*
X148000000Y-139000000D03*
X148000000Y-142500000D03*
X104000000Y-105250000D03*
%TO.N,/Display_I2C0_SDA*%
X135000000Y-131000000D03*
X130000000Y-131000000D03*
%TO.N,/Display_I2C0_SCL*%
X135000000Y-132003203D03*
X130000000Y-132003203D03*
%TD*%
D16*
%TO.N,+3V3*%
X119325000Y-131250000D02*
X118075000Y-130000000D01*
X118075000Y-130000000D02*
X118000000Y-130000000D01*
X118000000Y-130000000D02*
X120320000Y-127680000D01*
X120320000Y-127680000D02*
X120320000Y-125646722D01*
X120320000Y-125646722D02*
X119295800Y-124622522D01*
X119295800Y-123067800D02*
X119295800Y-120544200D01*
X119295800Y-124622522D02*
X119295800Y-123084200D01*
X119295800Y-123084200D02*
X119304000Y-123076000D01*
X119304000Y-123076000D02*
X119295800Y-123067800D01*
X119295800Y-120544200D02*
X119750200Y-120089800D01*
X119750200Y-120089800D02*
X128448000Y-120089800D01*
X118000000Y-130000000D02*
X117000000Y-131000000D01*
X117000000Y-131000000D02*
X117000000Y-138000000D01*
X141000000Y-120089800D02*
X128448000Y-120089800D01*
X149200000Y-106617000D02*
X149200000Y-110000000D01*
X149750000Y-94000000D02*
X148500000Y-92750000D01*
X140750000Y-126750000D02*
X146000000Y-126750000D01*
X149750000Y-90000000D02*
X148500000Y-88750000D01*
X128448000Y-127648000D02*
X128448000Y-120089800D01*
X138072000Y-81928000D02*
X143688000Y-81928000D01*
X148500000Y-88750000D02*
X146500000Y-86750000D01*
D17*
X149200000Y-115300000D02*
X149200000Y-115000000D01*
D16*
X149750000Y-94875000D02*
X149750000Y-94000000D01*
X148500000Y-99500000D02*
X149500000Y-98500000D01*
X125750000Y-130000000D02*
X126096000Y-130000000D01*
X131428000Y-81928000D02*
X132500000Y-83000000D01*
X143688000Y-81928000D02*
X145460000Y-83700000D01*
X148500000Y-92750000D02*
X148500000Y-91500000D01*
X137000000Y-83000000D02*
X138072000Y-81928000D01*
X116447000Y-114503000D02*
X116447000Y-111392000D01*
X114986000Y-76862000D02*
X115000000Y-76848000D01*
X148500000Y-100500000D02*
X148500000Y-99500000D01*
X116447000Y-108852000D02*
X116447000Y-106235000D01*
X148500000Y-96875000D02*
X148500000Y-96125000D01*
X149000000Y-102000000D02*
X149500000Y-101500000D01*
X117000000Y-138000000D02*
X117000000Y-141500000D01*
X148500000Y-91500000D02*
X149750000Y-90250000D01*
X149200000Y-110000000D02*
X149200000Y-117500000D01*
X139954200Y-120545800D02*
X139954200Y-125954200D01*
X148400000Y-105156000D02*
X150000000Y-103556000D01*
X115494000Y-115456000D02*
X116447000Y-114503000D01*
X126096000Y-130000000D02*
X128448000Y-127648000D01*
X148500000Y-86750000D02*
X147500000Y-87750000D01*
X149500000Y-84000000D02*
X149500000Y-85750000D01*
X145460000Y-83700000D02*
X149200000Y-83700000D01*
X150000000Y-102000000D02*
X148500000Y-100500000D01*
X149200000Y-117500000D02*
X149200000Y-117550000D01*
X116447000Y-106235000D02*
X114986000Y-104774000D01*
X114986000Y-104774000D02*
X114986000Y-81928000D01*
X149500000Y-98500000D02*
X149500000Y-97875000D01*
X117000000Y-138000000D02*
X117000000Y-138500000D01*
X132500000Y-83000000D02*
X137000000Y-83000000D01*
X116447000Y-111392000D02*
X116447000Y-108852000D01*
X149500000Y-97875000D02*
X148500000Y-96875000D01*
X149500000Y-85750000D02*
X148500000Y-86750000D01*
X139954200Y-125954200D02*
X140750000Y-126750000D01*
X146000000Y-126750000D02*
X146500000Y-127250000D01*
X149750000Y-90250000D02*
X149750000Y-90000000D01*
X114986000Y-81928000D02*
X114986000Y-76862000D01*
X150000000Y-103556000D02*
X150000000Y-102000000D01*
X148500000Y-96125000D02*
X149750000Y-94875000D01*
X149200000Y-83700000D02*
X149500000Y-84000000D01*
X114986000Y-81928000D02*
X131428000Y-81928000D01*
%TO.N,+5V*%
X156000000Y-100000000D02*
X156000000Y-101000000D01*
X164000000Y-136000000D02*
X154500000Y-136000000D01*
X154000000Y-78500000D02*
X157800000Y-82300000D01*
X157800000Y-82300000D02*
X157800000Y-88000000D01*
X157800000Y-88000000D02*
X158550000Y-88750000D01*
X129000000Y-137000000D02*
X129000000Y-148500000D01*
X151250000Y-78500000D02*
X154000000Y-78500000D01*
X156000000Y-101100000D02*
X156000000Y-104000000D01*
X156000000Y-97000000D02*
X156000000Y-100000000D01*
X115000000Y-138500000D02*
X115000000Y-130000000D01*
X156050000Y-101050000D02*
X156000000Y-101000000D01*
X162450000Y-101050000D02*
X156050000Y-101050000D01*
X158500000Y-108000000D02*
X159000000Y-108500000D01*
X115000000Y-138500000D02*
X115000000Y-141500000D01*
X154000000Y-135500000D02*
X130500000Y-135500000D01*
X128401000Y-149099000D02*
X115500000Y-149099000D01*
X154500000Y-136000000D02*
X154000000Y-135500000D01*
X163000000Y-100500000D02*
X162450000Y-101050000D01*
X164099000Y-109099000D02*
X164099000Y-135901000D01*
X158500000Y-106500000D02*
X158500000Y-108000000D01*
X115000000Y-148599000D02*
X115000000Y-141500000D01*
X163000000Y-89250000D02*
X163000000Y-100500000D01*
X156000000Y-104000000D02*
X158500000Y-106500000D01*
X129000000Y-148500000D02*
X128401000Y-149099000D01*
X115500000Y-149099000D02*
X115000000Y-148599000D01*
X163500000Y-108500000D02*
X164099000Y-109099000D01*
X162500000Y-88750000D02*
X163000000Y-89250000D01*
X159000000Y-108500000D02*
X163500000Y-108500000D01*
X158550000Y-88750000D02*
X162500000Y-88750000D01*
X115000000Y-130000000D02*
X118047000Y-126953000D01*
X156050000Y-101050000D02*
X156000000Y-101100000D01*
X164099000Y-135901000D02*
X164000000Y-136000000D01*
X130500000Y-135500000D02*
X129000000Y-137000000D01*
X118047000Y-126953000D02*
X118047000Y-126000000D01*
D17*
%TO.N,Net-(A1-SWDIO)*%
X148000000Y-143500000D02*
X150000000Y-141500000D01*
%TO.N,/Display_I2C0_SDA*%
X130000000Y-131000000D02*
X135000000Y-131000000D01*
%TO.N,/Display_I2C0_SCL*%
X130000000Y-132003203D02*
X135000000Y-132003203D01*
D16*
%TO.N,+3V3*%
X149200000Y-106617000D02*
X148400000Y-105817000D01*
X148400000Y-105817000D02*
X148400000Y-105156000D01*
X149200000Y-117500000D02*
X149200000Y-117800000D01*
X146910200Y-120089800D02*
X149200000Y-117800000D01*
X140410200Y-120089800D02*
X139954200Y-120545800D01*
X141000000Y-120089800D02*
X140410200Y-120089800D01*
X141000000Y-120089800D02*
X146910200Y-120089800D01*
%TD*%
%TA.AperFunction,Conductor*%
%TO.N,+3V3*%
G36*
X148943039Y-86269685D02*
G01*
X148988794Y-86322489D01*
X149000000Y-86374000D01*
X149000000Y-89126000D01*
X148980315Y-89193039D01*
X148927511Y-89238794D01*
X148876000Y-89250000D01*
X146124000Y-89250000D01*
X146056961Y-89230315D01*
X146011206Y-89177511D01*
X146000000Y-89126000D01*
X146000000Y-86374000D01*
X146019685Y-86306961D01*
X146072489Y-86261206D01*
X146124000Y-86250000D01*
X148876000Y-86250000D01*
X148943039Y-86269685D01*
G37*
%TD.AperFunction*%
%TD*%
%TA.AperFunction,Conductor*%
%TO.N,+5V*%
G36*
X115343039Y-138019685D02*
G01*
X115388794Y-138072489D01*
X115400000Y-138124000D01*
X115400000Y-141876000D01*
X115380315Y-141943039D01*
X115327511Y-141988794D01*
X115276000Y-142000000D01*
X114500000Y-142000000D01*
X113624000Y-142000000D01*
X113556961Y-141980315D01*
X113511206Y-141927511D01*
X113500000Y-141876000D01*
X113500000Y-138124000D01*
X113519685Y-138056961D01*
X113572489Y-138011206D01*
X113624000Y-138000000D01*
X115276000Y-138000000D01*
X115343039Y-138019685D01*
G37*
%TD.AperFunction*%
%TD*%
%TA.AperFunction,Conductor*%
%TO.N,GND*%
G36*
X129430702Y-75519713D02*
G01*
X129467247Y-75570013D01*
X129467247Y-75632187D01*
X129430702Y-75682487D01*
X129402658Y-75696776D01*
X129255053Y-75744735D01*
X129255051Y-75744736D01*
X129065090Y-75841525D01*
X129065086Y-75841527D01*
X128892604Y-75966844D01*
X128741844Y-76117604D01*
X128616527Y-76290086D01*
X128616525Y-76290090D01*
X128519736Y-76480051D01*
X128519735Y-76480053D01*
X128453855Y-76682811D01*
X128453852Y-76682825D01*
X128420500Y-76893394D01*
X128420500Y-77106605D01*
X128453852Y-77317174D01*
X128453855Y-77317188D01*
X128519735Y-77519946D01*
X128519736Y-77519948D01*
X128616525Y-77709909D01*
X128616527Y-77709913D01*
X128741844Y-77882395D01*
X128892604Y-78033155D01*
X129065086Y-78158472D01*
X129065090Y-78158474D01*
X129255051Y-78255263D01*
X129255053Y-78255264D01*
X129457811Y-78321144D01*
X129457813Y-78321144D01*
X129457821Y-78321147D01*
X129668394Y-78354499D01*
X129668396Y-78354500D01*
X129668399Y-78354500D01*
X129881604Y-78354500D01*
X129881604Y-78354499D01*
X130092179Y-78321147D01*
X130294947Y-78255264D01*
X130484913Y-78158472D01*
X130657397Y-78033154D01*
X130808154Y-77882397D01*
X130933472Y-77709913D01*
X131030264Y-77519947D01*
X131096147Y-77317179D01*
X131129500Y-77106601D01*
X131129500Y-76893399D01*
X131129500Y-76893395D01*
X131129499Y-76893394D01*
X131096147Y-76682821D01*
X131078653Y-76628981D01*
X131030264Y-76480053D01*
X131030263Y-76480051D01*
X130933474Y-76290090D01*
X130933472Y-76290086D01*
X130808155Y-76117604D01*
X130657395Y-75966844D01*
X130484913Y-75841527D01*
X130484909Y-75841525D01*
X130294948Y-75744736D01*
X130294946Y-75744735D01*
X130147342Y-75696776D01*
X130097042Y-75660231D01*
X130077829Y-75601100D01*
X130097042Y-75541969D01*
X130147342Y-75505424D01*
X130178429Y-75500500D01*
X134821571Y-75500500D01*
X134880702Y-75519713D01*
X134917247Y-75570013D01*
X134917247Y-75632187D01*
X134880702Y-75682487D01*
X134852658Y-75696776D01*
X134705053Y-75744735D01*
X134705051Y-75744736D01*
X134515090Y-75841525D01*
X134515086Y-75841527D01*
X134342604Y-75966844D01*
X134191844Y-76117604D01*
X134066527Y-76290086D01*
X134066525Y-76290090D01*
X133969736Y-76480051D01*
X133969735Y-76480053D01*
X133903855Y-76682811D01*
X133903852Y-76682825D01*
X133870500Y-76893394D01*
X133870500Y-77106605D01*
X133903852Y-77317174D01*
X133903855Y-77317188D01*
X133969735Y-77519946D01*
X133969736Y-77519948D01*
X134066525Y-77709909D01*
X134066527Y-77709913D01*
X134191844Y-77882395D01*
X134342604Y-78033155D01*
X134515086Y-78158472D01*
X134515090Y-78158474D01*
X134705051Y-78255263D01*
X134705053Y-78255264D01*
X134907811Y-78321144D01*
X134907813Y-78321144D01*
X134907821Y-78321147D01*
X135118394Y-78354499D01*
X135118396Y-78354500D01*
X135118399Y-78354500D01*
X135331604Y-78354500D01*
X135331604Y-78354499D01*
X135542179Y-78321147D01*
X135744947Y-78255264D01*
X135934913Y-78158472D01*
X136107397Y-78033154D01*
X136258154Y-77882397D01*
X136383472Y-77709913D01*
X136480264Y-77519947D01*
X136546147Y-77317179D01*
X136579500Y-77106601D01*
X136579500Y-76893399D01*
X136579500Y-76893395D01*
X136579499Y-76893394D01*
X136546147Y-76682821D01*
X136528653Y-76628981D01*
X136480264Y-76480053D01*
X136480263Y-76480051D01*
X136383474Y-76290090D01*
X136383472Y-76290086D01*
X136258155Y-76117604D01*
X136107395Y-75966844D01*
X135934913Y-75841527D01*
X135934909Y-75841525D01*
X135744948Y-75744736D01*
X135744946Y-75744735D01*
X135597342Y-75696776D01*
X135547042Y-75660231D01*
X135527829Y-75601100D01*
X135547042Y-75541969D01*
X135597342Y-75505424D01*
X135628429Y-75500500D01*
X160934108Y-75500500D01*
X160997527Y-75500500D01*
X161002463Y-75500621D01*
X161338089Y-75517109D01*
X161347891Y-75518074D01*
X161677841Y-75567018D01*
X161687500Y-75568939D01*
X162011071Y-75649989D01*
X162020495Y-75652848D01*
X162334560Y-75765223D01*
X162343655Y-75768990D01*
X162613549Y-75896641D01*
X162645177Y-75911600D01*
X162653883Y-75916253D01*
X162939982Y-76087733D01*
X162948183Y-76093212D01*
X163216091Y-76291907D01*
X163223714Y-76298162D01*
X163470868Y-76522170D01*
X163477829Y-76529131D01*
X163701833Y-76776281D01*
X163708094Y-76783910D01*
X163814573Y-76927481D01*
X163906781Y-77051808D01*
X163912266Y-77060017D01*
X164083746Y-77346116D01*
X164088399Y-77354822D01*
X164231003Y-77656331D01*
X164234781Y-77665452D01*
X164347147Y-77979493D01*
X164350013Y-77988940D01*
X164431057Y-78312487D01*
X164432983Y-78322170D01*
X164481923Y-78652097D01*
X164482891Y-78661922D01*
X164499379Y-78997536D01*
X164499500Y-79002472D01*
X164499500Y-108402869D01*
X164480287Y-108462000D01*
X164429987Y-108498545D01*
X164367813Y-108498545D01*
X164327765Y-108474004D01*
X163870680Y-108016919D01*
X163733020Y-107937441D01*
X163700572Y-107928747D01*
X163660207Y-107917931D01*
X163579481Y-107896300D01*
X163579479Y-107896300D01*
X159291731Y-107896300D01*
X159284010Y-107893791D01*
X159275994Y-107895061D01*
X159255005Y-107884366D01*
X159232600Y-107877087D01*
X159220596Y-107866835D01*
X159133165Y-107779404D01*
X159104939Y-107724006D01*
X159103700Y-107708269D01*
X159103700Y-106420522D01*
X159103699Y-106420516D01*
X159062559Y-106266981D01*
X159062559Y-106266980D01*
X159016775Y-106187680D01*
X158983081Y-106129320D01*
X156633165Y-103779404D01*
X156604939Y-103724006D01*
X156603700Y-103708269D01*
X156603700Y-101754300D01*
X156622913Y-101695169D01*
X156673213Y-101658624D01*
X156704300Y-101653700D01*
X162529479Y-101653700D01*
X162650572Y-101621252D01*
X162683020Y-101612559D01*
X162820680Y-101533081D01*
X163483080Y-100870681D01*
X163528966Y-100791202D01*
X163562559Y-100733019D01*
X163603700Y-100579479D01*
X163603700Y-89170521D01*
X163590345Y-89120680D01*
X163590345Y-89120679D01*
X163562561Y-89016984D01*
X163562558Y-89016978D01*
X163483080Y-88879319D01*
X162870680Y-88266919D01*
X162870681Y-88266919D01*
X162733021Y-88187441D01*
X162733022Y-88187441D01*
X162711074Y-88181560D01*
X162681091Y-88173527D01*
X162647220Y-88164451D01*
X162579481Y-88146300D01*
X162579479Y-88146300D01*
X158841730Y-88146300D01*
X158782599Y-88127087D01*
X158770595Y-88116835D01*
X158433165Y-87779404D01*
X158404939Y-87724006D01*
X158403700Y-87708269D01*
X158403700Y-82220522D01*
X158403699Y-82220516D01*
X158362559Y-82066981D01*
X158362559Y-82066980D01*
X158283080Y-81929319D01*
X154370680Y-78016919D01*
X154370681Y-78016919D01*
X154233021Y-77937441D01*
X154233022Y-77937441D01*
X154211074Y-77931560D01*
X154181091Y-77923527D01*
X154147220Y-77914451D01*
X154079481Y-77896300D01*
X154079479Y-77896300D01*
X152106100Y-77896300D01*
X152046969Y-77877087D01*
X152010424Y-77826787D01*
X152005500Y-77795700D01*
X152005500Y-76123999D01*
X151999660Y-76069681D01*
X151999659Y-76069675D01*
X151994595Y-76046403D01*
X151988455Y-76018176D01*
X151981219Y-75991802D01*
X151981216Y-75991795D01*
X151938198Y-75916253D01*
X151931888Y-75905172D01*
X151924496Y-75896641D01*
X151886138Y-75852373D01*
X151886128Y-75852363D01*
X151853362Y-75820745D01*
X151853356Y-75820741D01*
X151811438Y-75798814D01*
X151765024Y-75774535D01*
X151697985Y-75754850D01*
X151697984Y-75754849D01*
X151697978Y-75754848D01*
X151627634Y-75744735D01*
X151626000Y-75744500D01*
X147874000Y-75744500D01*
X147873999Y-75744500D01*
X147819681Y-75750339D01*
X147819675Y-75750340D01*
X147768184Y-75761543D01*
X147768179Y-75761544D01*
X147768176Y-75761545D01*
X147763881Y-75762723D01*
X147741802Y-75768780D01*
X147741795Y-75768783D01*
X147655168Y-75818114D01*
X147602373Y-75863861D01*
X147602363Y-75863871D01*
X147570745Y-75896637D01*
X147570741Y-75896643D01*
X147524536Y-75984974D01*
X147504848Y-76052020D01*
X147504848Y-76052023D01*
X147494500Y-76124000D01*
X147494500Y-80126000D01*
X147500339Y-80180318D01*
X147500340Y-80180324D01*
X147511543Y-80231815D01*
X147518780Y-80258197D01*
X147518783Y-80258204D01*
X147568114Y-80344831D01*
X147613861Y-80397626D01*
X147613871Y-80397636D01*
X147646637Y-80429254D01*
X147646639Y-80429255D01*
X147646641Y-80429257D01*
X147734976Y-80475465D01*
X147802015Y-80495150D01*
X147802020Y-80495150D01*
X147802021Y-80495151D01*
X147833375Y-80499659D01*
X147874000Y-80505500D01*
X147874001Y-80505500D01*
X151626001Y-80505500D01*
X151636246Y-80504398D01*
X151680313Y-80499661D01*
X151680318Y-80499660D01*
X151680324Y-80499659D01*
X151701044Y-80495151D01*
X151731824Y-80488455D01*
X151758198Y-80481219D01*
X151758201Y-80481217D01*
X151758204Y-80481216D01*
X151779332Y-80469184D01*
X151844828Y-80431888D01*
X151897632Y-80386133D01*
X151929257Y-80353359D01*
X151975465Y-80265024D01*
X151995150Y-80197985D01*
X152005500Y-80126000D01*
X152005500Y-79204300D01*
X152024713Y-79145169D01*
X152075013Y-79108624D01*
X152106100Y-79103700D01*
X153708269Y-79103700D01*
X153767400Y-79122913D01*
X153779404Y-79133165D01*
X157166835Y-82520596D01*
X157195061Y-82575994D01*
X157196300Y-82591731D01*
X157196300Y-88079481D01*
X157207340Y-88120680D01*
X157207340Y-88120681D01*
X157237439Y-88233016D01*
X157237441Y-88233021D01*
X157316919Y-88370680D01*
X158066920Y-89120680D01*
X158179319Y-89233079D01*
X158179318Y-89233079D01*
X158222824Y-89258197D01*
X158316981Y-89312559D01*
X158316982Y-89312559D01*
X158316984Y-89312560D01*
X158470516Y-89353699D01*
X158470518Y-89353699D01*
X158470521Y-89353700D01*
X162208269Y-89353700D01*
X162215989Y-89356208D01*
X162224006Y-89354939D01*
X162244994Y-89365633D01*
X162267400Y-89372913D01*
X162279404Y-89383165D01*
X162366835Y-89470596D01*
X162395061Y-89525994D01*
X162396300Y-89541731D01*
X162396300Y-100208269D01*
X162377087Y-100267400D01*
X162366835Y-100279404D01*
X162229404Y-100416835D01*
X162174006Y-100445061D01*
X162158269Y-100446300D01*
X156704300Y-100446300D01*
X156645169Y-100427087D01*
X156608624Y-100376787D01*
X156603700Y-100345700D01*
X156603700Y-96920522D01*
X156603699Y-96920516D01*
X156562560Y-96766984D01*
X156562558Y-96766979D01*
X156497562Y-96654404D01*
X156483080Y-96629320D01*
X156370680Y-96516920D01*
X156370681Y-96516920D01*
X156233020Y-96437441D01*
X156233015Y-96437439D01*
X156079483Y-96396300D01*
X156079479Y-96396300D01*
X155920521Y-96396300D01*
X155920516Y-96396300D01*
X155766984Y-96437439D01*
X155766979Y-96437441D01*
X155629319Y-96516920D01*
X155516920Y-96629319D01*
X155437441Y-96766979D01*
X155437439Y-96766984D01*
X155396300Y-96920516D01*
X155396300Y-104079481D01*
X155420635Y-104170298D01*
X155420636Y-104170301D01*
X155432938Y-104216216D01*
X155437441Y-104233021D01*
X155516919Y-104370680D01*
X157866835Y-106720596D01*
X157895061Y-106775994D01*
X157896300Y-106791731D01*
X157896300Y-108079481D01*
X157909655Y-108129319D01*
X157909655Y-108129321D01*
X157937438Y-108233015D01*
X157937441Y-108233021D01*
X158016919Y-108370680D01*
X158629319Y-108983080D01*
X158629318Y-108983080D01*
X158629320Y-108983081D01*
X158766980Y-109062559D01*
X158766981Y-109062559D01*
X158766983Y-109062560D01*
X158920516Y-109103699D01*
X158920518Y-109103699D01*
X158920521Y-109103700D01*
X163208269Y-109103700D01*
X163267400Y-109122913D01*
X163279404Y-109133165D01*
X163465835Y-109319596D01*
X163494061Y-109374994D01*
X163495300Y-109390731D01*
X163495300Y-135295700D01*
X163476087Y-135354831D01*
X163425787Y-135391376D01*
X163394700Y-135396300D01*
X154791731Y-135396300D01*
X154732600Y-135377087D01*
X154720596Y-135366835D01*
X154370680Y-135016919D01*
X154233020Y-134937441D01*
X154233013Y-134937439D01*
X154200572Y-134928747D01*
X154160207Y-134917931D01*
X154079481Y-134896300D01*
X154079479Y-134896300D01*
X130420521Y-134896300D01*
X130420516Y-134896300D01*
X130266984Y-134937439D01*
X130266979Y-134937441D01*
X130131935Y-135015409D01*
X130129887Y-135016510D01*
X130129320Y-135016919D01*
X128516919Y-136629319D01*
X128437440Y-136766980D01*
X128437441Y-136766980D01*
X128437441Y-136766981D01*
X128396300Y-136920516D01*
X128396300Y-148208269D01*
X128377087Y-148267400D01*
X128366835Y-148279404D01*
X128180404Y-148465835D01*
X128125006Y-148494061D01*
X128109269Y-148495300D01*
X115791731Y-148495300D01*
X115784010Y-148492791D01*
X115775994Y-148494061D01*
X115755005Y-148483366D01*
X115732600Y-148476087D01*
X115720596Y-148465835D01*
X115633165Y-148378404D01*
X115604939Y-148323006D01*
X115603700Y-148307269D01*
X115603700Y-141917969D01*
X115604724Y-141903652D01*
X115608700Y-141875998D01*
X115608700Y-138123991D01*
X115604277Y-138082857D01*
X115603700Y-138072102D01*
X115603700Y-130291731D01*
X115622913Y-130232600D01*
X115633165Y-130220596D01*
X116486926Y-129366835D01*
X118530081Y-127323680D01*
X118609559Y-127186020D01*
X118650700Y-127032479D01*
X118650700Y-126873521D01*
X118650700Y-125920521D01*
X118644339Y-125896783D01*
X118609560Y-125766984D01*
X118609558Y-125766979D01*
X118558304Y-125678206D01*
X118530080Y-125629320D01*
X118417680Y-125516920D01*
X118417681Y-125516920D01*
X118280020Y-125437441D01*
X118280015Y-125437439D01*
X118126483Y-125396300D01*
X118126479Y-125396300D01*
X117967521Y-125396300D01*
X117967516Y-125396300D01*
X117813984Y-125437439D01*
X117813979Y-125437441D01*
X117676319Y-125516920D01*
X117563920Y-125629319D01*
X117484441Y-125766979D01*
X117484439Y-125766984D01*
X117443300Y-125920516D01*
X117443300Y-126661269D01*
X117424087Y-126720400D01*
X117413835Y-126732404D01*
X114516919Y-129629319D01*
X114437440Y-129766980D01*
X114437441Y-129766980D01*
X114437441Y-129766981D01*
X114396300Y-129920516D01*
X114396300Y-137690700D01*
X114377087Y-137749831D01*
X114326787Y-137786376D01*
X114295700Y-137791300D01*
X113623994Y-137791300D01*
X113579632Y-137796070D01*
X113528103Y-137807280D01*
X113517787Y-137809801D01*
X113517783Y-137809803D01*
X113435820Y-137853479D01*
X113435819Y-137853480D01*
X113383017Y-137899234D01*
X113382989Y-137899260D01*
X113364786Y-137917095D01*
X113364780Y-137917104D01*
X113319440Y-137998158D01*
X113299753Y-138065202D01*
X113299752Y-138065210D01*
X113291300Y-138124001D01*
X113291300Y-141876006D01*
X113296070Y-141920367D01*
X113307280Y-141971896D01*
X113309801Y-141982212D01*
X113309803Y-141982216D01*
X113353479Y-142064179D01*
X113353480Y-142064180D01*
X113353481Y-142064181D01*
X113399236Y-142116985D01*
X113399251Y-142117000D01*
X113399260Y-142117010D01*
X113417095Y-142135213D01*
X113417098Y-142135215D01*
X113417101Y-142135218D01*
X113498162Y-142180561D01*
X113565201Y-142200246D01*
X113624000Y-142208700D01*
X114295700Y-142208700D01*
X114354831Y-142227913D01*
X114391376Y-142278213D01*
X114396300Y-142309300D01*
X114396300Y-148678481D01*
X114413412Y-148742341D01*
X114413412Y-148742342D01*
X114437439Y-148832017D01*
X114437441Y-148832021D01*
X114516919Y-148969680D01*
X114875004Y-149327765D01*
X114903230Y-149383163D01*
X114893504Y-149444571D01*
X114849540Y-149488535D01*
X114803869Y-149499500D01*
X104002473Y-149499500D01*
X103997537Y-149499379D01*
X103661922Y-149482891D01*
X103652097Y-149481923D01*
X103322170Y-149432983D01*
X103312487Y-149431057D01*
X102988940Y-149350013D01*
X102979493Y-149347147D01*
X102665452Y-149234781D01*
X102656331Y-149231003D01*
X102354822Y-149088399D01*
X102346116Y-149083746D01*
X102060017Y-148912266D01*
X102051808Y-148906781D01*
X101830088Y-148742342D01*
X101783910Y-148708094D01*
X101776281Y-148701833D01*
X101750514Y-148678479D01*
X101529131Y-148477829D01*
X101522170Y-148470868D01*
X101298162Y-148223714D01*
X101291903Y-148216086D01*
X101191034Y-148080080D01*
X101093212Y-147948183D01*
X101087733Y-147939982D01*
X100916253Y-147653883D01*
X100911600Y-147645177D01*
X100768990Y-147343655D01*
X100765223Y-147334560D01*
X100652848Y-147020495D01*
X100649989Y-147011071D01*
X100568939Y-146687500D01*
X100567018Y-146677841D01*
X100518074Y-146347891D01*
X100517109Y-146338089D01*
X100500621Y-146002463D01*
X100500500Y-145997527D01*
X100500500Y-79002472D01*
X100500621Y-78997536D01*
X100503737Y-78934108D01*
X100517109Y-78661908D01*
X100518074Y-78652110D01*
X100567019Y-78322154D01*
X100568938Y-78312503D01*
X100649991Y-77988922D01*
X100652846Y-77979510D01*
X100765226Y-77665432D01*
X100768987Y-77656351D01*
X100911604Y-77354814D01*
X100916253Y-77346116D01*
X100933600Y-77317174D01*
X101087739Y-77060007D01*
X101093205Y-77051826D01*
X101291915Y-76783898D01*
X101293049Y-76782516D01*
X114382300Y-76782516D01*
X114382300Y-104853481D01*
X114400923Y-104922980D01*
X114414747Y-104974572D01*
X114423441Y-105007020D01*
X114502919Y-105144680D01*
X115813835Y-106455595D01*
X115842061Y-106510993D01*
X115843300Y-106526730D01*
X115843300Y-114211269D01*
X115824087Y-114270400D01*
X115813835Y-114282404D01*
X115010919Y-115085319D01*
X114931441Y-115222978D01*
X114931438Y-115222984D01*
X114890302Y-115376514D01*
X114890301Y-115376522D01*
X114890301Y-115535477D01*
X114890302Y-115535485D01*
X114931438Y-115689015D01*
X114931441Y-115689021D01*
X115010919Y-115826680D01*
X115123319Y-115939080D01*
X115123318Y-115939080D01*
X115260978Y-116018558D01*
X115260984Y-116018561D01*
X115396368Y-116054835D01*
X115414521Y-116059699D01*
X115414522Y-116059699D01*
X115573478Y-116059699D01*
X115573479Y-116059699D01*
X115630710Y-116044364D01*
X115727015Y-116018561D01*
X115727017Y-116018559D01*
X115727020Y-116018559D01*
X115864680Y-115939081D01*
X116930081Y-114873680D01*
X117009559Y-114736020D01*
X117050700Y-114582478D01*
X117050700Y-114423521D01*
X117050700Y-111312521D01*
X117050700Y-108772521D01*
X117050700Y-106155521D01*
X117043679Y-106129320D01*
X117009559Y-106001981D01*
X117009558Y-106001978D01*
X117009557Y-106001977D01*
X116930081Y-105864321D01*
X116930079Y-105864319D01*
X115619165Y-104553404D01*
X115590939Y-104498006D01*
X115589700Y-104482269D01*
X115589700Y-82632300D01*
X115608913Y-82573169D01*
X115659213Y-82536624D01*
X115690300Y-82531700D01*
X131136269Y-82531700D01*
X131195400Y-82550913D01*
X131207404Y-82561165D01*
X132129319Y-83483080D01*
X132129318Y-83483080D01*
X132129320Y-83483081D01*
X132266980Y-83562559D01*
X132266981Y-83562559D01*
X132266983Y-83562560D01*
X132420516Y-83603699D01*
X132420518Y-83603699D01*
X132420521Y-83603700D01*
X132420523Y-83603700D01*
X137079479Y-83603700D01*
X137200572Y-83571252D01*
X137233020Y-83562559D01*
X137370680Y-83483081D01*
X138292596Y-82561165D01*
X138347994Y-82532939D01*
X138363731Y-82531700D01*
X143396269Y-82531700D01*
X143455400Y-82550913D01*
X143467404Y-82561165D01*
X145089319Y-84183080D01*
X145099447Y-84188927D01*
X145099451Y-84188931D01*
X145099452Y-84188930D01*
X145226981Y-84262559D01*
X145226982Y-84262559D01*
X145226984Y-84262560D01*
X145380516Y-84303699D01*
X145380518Y-84303699D01*
X145380521Y-84303700D01*
X148795700Y-84303700D01*
X148854831Y-84322913D01*
X148891376Y-84373213D01*
X148896300Y-84404300D01*
X148896300Y-85458269D01*
X148877087Y-85517400D01*
X148866835Y-85529404D01*
X148431204Y-85965035D01*
X148375806Y-85993261D01*
X148360069Y-85994500D01*
X146123999Y-85994500D01*
X146069681Y-86000339D01*
X146069675Y-86000340D01*
X146018184Y-86011543D01*
X146018179Y-86011544D01*
X146018176Y-86011545D01*
X146013881Y-86012723D01*
X145991802Y-86018780D01*
X145991795Y-86018783D01*
X145905168Y-86068114D01*
X145852373Y-86113861D01*
X145852363Y-86113871D01*
X145820745Y-86146637D01*
X145820741Y-86146643D01*
X145774536Y-86234974D01*
X145754848Y-86302020D01*
X145754848Y-86302023D01*
X145744500Y-86374000D01*
X145744500Y-89126000D01*
X145750339Y-89180318D01*
X145750340Y-89180324D01*
X145761543Y-89231815D01*
X145761545Y-89231824D01*
X145761890Y-89233080D01*
X145768780Y-89258197D01*
X145768783Y-89258204D01*
X145818114Y-89344831D01*
X145863861Y-89397626D01*
X145863871Y-89397636D01*
X145896637Y-89429254D01*
X145896639Y-89429255D01*
X145896641Y-89429257D01*
X145984976Y-89475465D01*
X146052015Y-89495150D01*
X146052020Y-89495150D01*
X146052021Y-89495151D01*
X146086171Y-89500061D01*
X146124000Y-89505500D01*
X148360069Y-89505500D01*
X148419200Y-89524713D01*
X148431204Y-89534965D01*
X148950104Y-90053865D01*
X148978330Y-90109263D01*
X148968604Y-90170671D01*
X148950104Y-90196135D01*
X148016919Y-91129319D01*
X147937440Y-91266980D01*
X147937441Y-91266980D01*
X147937441Y-91266981D01*
X147896300Y-91420516D01*
X147896300Y-92829481D01*
X147914044Y-92895699D01*
X147914044Y-92895701D01*
X147937438Y-92983015D01*
X147937441Y-92983021D01*
X148016919Y-93120680D01*
X149116835Y-94220596D01*
X149145061Y-94275994D01*
X149146300Y-94291731D01*
X149146300Y-94583269D01*
X149127087Y-94642400D01*
X149116835Y-94654404D01*
X148016919Y-95754319D01*
X147937440Y-95891980D01*
X147937441Y-95891980D01*
X147937441Y-95891981D01*
X147896300Y-96045516D01*
X147896300Y-96954481D01*
X147917453Y-97033423D01*
X147928030Y-97072896D01*
X147937441Y-97108020D01*
X148016919Y-97245680D01*
X148866835Y-98095596D01*
X148870520Y-98102829D01*
X148877087Y-98107600D01*
X148884366Y-98130005D01*
X148895061Y-98150994D01*
X148896300Y-98166731D01*
X148896300Y-98208269D01*
X148877087Y-98267400D01*
X148866835Y-98279404D01*
X148016919Y-99129319D01*
X147937440Y-99266980D01*
X147937441Y-99266980D01*
X147937441Y-99266981D01*
X147896300Y-99420516D01*
X147896300Y-100579481D01*
X147917931Y-100660207D01*
X147928747Y-100700572D01*
X147937441Y-100733019D01*
X147937441Y-100733020D01*
X148016919Y-100870680D01*
X148575104Y-101428864D01*
X148603330Y-101484262D01*
X148593604Y-101545670D01*
X148575105Y-101571133D01*
X148516919Y-101629319D01*
X148437441Y-101766978D01*
X148437438Y-101766984D01*
X148396302Y-101920514D01*
X148396301Y-101920522D01*
X148396301Y-102079477D01*
X148396302Y-102079485D01*
X148437438Y-102233015D01*
X148437441Y-102233021D01*
X148516919Y-102370680D01*
X148629319Y-102483080D01*
X148629318Y-102483080D01*
X148766978Y-102562558D01*
X148766984Y-102562561D01*
X148902368Y-102598835D01*
X148920521Y-102603699D01*
X148920522Y-102603699D01*
X149079478Y-102603699D01*
X149079479Y-102603699D01*
X149136710Y-102588364D01*
X149233015Y-102562561D01*
X149233015Y-102562560D01*
X149233020Y-102562559D01*
X149245400Y-102555411D01*
X149306213Y-102542484D01*
X149363012Y-102567771D01*
X149394101Y-102621614D01*
X149396300Y-102642533D01*
X149396300Y-103264269D01*
X149377087Y-103323400D01*
X149366835Y-103335404D01*
X147916919Y-104785319D01*
X147837440Y-104922980D01*
X147837441Y-104922980D01*
X147837441Y-104922981D01*
X147796300Y-105076516D01*
X147796300Y-105896479D01*
X147807276Y-105937440D01*
X147807276Y-105937442D01*
X147837439Y-106050016D01*
X147837441Y-106050021D01*
X147916919Y-106187680D01*
X148566835Y-106837596D01*
X148595061Y-106892994D01*
X148596300Y-106908731D01*
X148596300Y-117508269D01*
X148577087Y-117567400D01*
X148566835Y-117579404D01*
X146689604Y-119456635D01*
X146634206Y-119484861D01*
X146618469Y-119486100D01*
X119670716Y-119486100D01*
X119517183Y-119527239D01*
X119517178Y-119527241D01*
X119379519Y-119606719D01*
X118812719Y-120173519D01*
X118733241Y-120311177D01*
X118730122Y-120322821D01*
X118692100Y-120464716D01*
X118692100Y-124702003D01*
X118713731Y-124782729D01*
X118724547Y-124823094D01*
X118733241Y-124855542D01*
X118812719Y-124993202D01*
X119686835Y-125867318D01*
X119715061Y-125922716D01*
X119716300Y-125938453D01*
X119716300Y-127388269D01*
X119697087Y-127447400D01*
X119686835Y-127459404D01*
X116516919Y-130629319D01*
X116437440Y-130766980D01*
X116437441Y-130766980D01*
X116437441Y-130766981D01*
X116396300Y-130920516D01*
X116396300Y-138082029D01*
X116395276Y-138096344D01*
X116391300Y-138124000D01*
X116391300Y-141876006D01*
X116396070Y-141920367D01*
X116407280Y-141971896D01*
X116409801Y-141982212D01*
X116409803Y-141982216D01*
X116453479Y-142064179D01*
X116453480Y-142064180D01*
X116453481Y-142064181D01*
X116499236Y-142116985D01*
X116499251Y-142117000D01*
X116499260Y-142117010D01*
X116517095Y-142135213D01*
X116517098Y-142135215D01*
X116517101Y-142135218D01*
X116598162Y-142180561D01*
X116665201Y-142200246D01*
X116724000Y-142208700D01*
X116724002Y-142208700D01*
X118376006Y-142208700D01*
X118397644Y-142206372D01*
X118420364Y-142203930D01*
X118471875Y-142192724D01*
X118471891Y-142192720D01*
X118471896Y-142192719D01*
X118482212Y-142190198D01*
X118482216Y-142190196D01*
X118564179Y-142146520D01*
X118564178Y-142146520D01*
X118564181Y-142146519D01*
X118616985Y-142100764D01*
X118635218Y-142082899D01*
X118680561Y-142001838D01*
X118700246Y-141934799D01*
X118708700Y-141876000D01*
X118708700Y-138124000D01*
X118708700Y-138123993D01*
X118704187Y-138082029D01*
X118703930Y-138079636D01*
X118692724Y-138028125D01*
X118690198Y-138017788D01*
X118690198Y-138017787D01*
X118690196Y-138017783D01*
X118646520Y-137935820D01*
X118646519Y-137935819D01*
X118630302Y-137917104D01*
X118600764Y-137883015D01*
X118600739Y-137882989D01*
X118582904Y-137864786D01*
X118582900Y-137864783D01*
X118582899Y-137864782D01*
X118561871Y-137853020D01*
X118501841Y-137819440D01*
X118434797Y-137799753D01*
X118434789Y-137799752D01*
X118395892Y-137794160D01*
X118376000Y-137791300D01*
X118375998Y-137791300D01*
X117704300Y-137791300D01*
X117645169Y-137772087D01*
X117608624Y-137721787D01*
X117603700Y-137690700D01*
X117603700Y-131291731D01*
X117622913Y-131232600D01*
X117633165Y-131220596D01*
X117966365Y-130887396D01*
X118021763Y-130859170D01*
X118083171Y-130868896D01*
X118108635Y-130887396D01*
X118954319Y-131733080D01*
X118954318Y-131733080D01*
X119052008Y-131789481D01*
X119091980Y-131812559D01*
X119091981Y-131812559D01*
X119091983Y-131812560D01*
X119245516Y-131853699D01*
X119245518Y-131853699D01*
X119245521Y-131853700D01*
X119245523Y-131853700D01*
X119404477Y-131853700D01*
X119404479Y-131853700D01*
X119558020Y-131812559D01*
X119695680Y-131733081D01*
X119808081Y-131620680D01*
X119887559Y-131483020D01*
X119928700Y-131329479D01*
X119928700Y-131170521D01*
X119887559Y-131016980D01*
X119835666Y-130927099D01*
X129446300Y-130927099D01*
X129446300Y-131072900D01*
X129484032Y-131213716D01*
X129484034Y-131213721D01*
X129551572Y-131330700D01*
X129556930Y-131339980D01*
X129647418Y-131430468D01*
X129675643Y-131485864D01*
X129665917Y-131547272D01*
X129647417Y-131572736D01*
X129556928Y-131663225D01*
X129484034Y-131789481D01*
X129484032Y-131789486D01*
X129446300Y-131930302D01*
X129446300Y-132076103D01*
X129484032Y-132216919D01*
X129484034Y-132216924D01*
X129551572Y-132333903D01*
X129556930Y-132343183D01*
X129660020Y-132446273D01*
X129786280Y-132519169D01*
X129786281Y-132519169D01*
X129786283Y-132519170D01*
X129927099Y-132556902D01*
X129927101Y-132556902D01*
X129927104Y-132556903D01*
X129927106Y-132556903D01*
X130072894Y-132556903D01*
X130072896Y-132556903D01*
X130213720Y-132519169D01*
X130339980Y-132446273D01*
X130422885Y-132363368D01*
X130478283Y-132335141D01*
X130494020Y-132333903D01*
X134505980Y-132333903D01*
X134565111Y-132353116D01*
X134577115Y-132363368D01*
X134660020Y-132446273D01*
X134786280Y-132519169D01*
X134786281Y-132519169D01*
X134786283Y-132519170D01*
X134927099Y-132556902D01*
X134927101Y-132556902D01*
X134927104Y-132556903D01*
X134927106Y-132556903D01*
X135072894Y-132556903D01*
X135072896Y-132556903D01*
X135213720Y-132519169D01*
X135339980Y-132446273D01*
X135443070Y-132343183D01*
X135515966Y-132216923D01*
X135553700Y-132076099D01*
X135553700Y-131930307D01*
X135515966Y-131789483D01*
X135443070Y-131663223D01*
X135352580Y-131572733D01*
X135324356Y-131517338D01*
X135334082Y-131455930D01*
X135352576Y-131430473D01*
X135443070Y-131339980D01*
X135515966Y-131213720D01*
X135553700Y-131072896D01*
X135553700Y-130927104D01*
X135523999Y-130816261D01*
X135515967Y-130786283D01*
X135515965Y-130786278D01*
X135443071Y-130660022D01*
X135443070Y-130660020D01*
X135339980Y-130556930D01*
X135339977Y-130556928D01*
X135213721Y-130484034D01*
X135213716Y-130484032D01*
X135072900Y-130446300D01*
X135072896Y-130446300D01*
X134927104Y-130446300D01*
X134927099Y-130446300D01*
X134786283Y-130484032D01*
X134786278Y-130484034D01*
X134660022Y-130556928D01*
X134577115Y-130639835D01*
X134521717Y-130668062D01*
X134505980Y-130669300D01*
X130494020Y-130669300D01*
X130434889Y-130650087D01*
X130422885Y-130639835D01*
X130386749Y-130603699D01*
X130339980Y-130556930D01*
X130339977Y-130556928D01*
X130213721Y-130484034D01*
X130213716Y-130484032D01*
X130072900Y-130446300D01*
X130072896Y-130446300D01*
X129927104Y-130446300D01*
X129927099Y-130446300D01*
X129786283Y-130484032D01*
X129786278Y-130484034D01*
X129660022Y-130556928D01*
X129660021Y-130556929D01*
X129660020Y-130556930D01*
X129556930Y-130660020D01*
X129556929Y-130660021D01*
X129556928Y-130660022D01*
X129484034Y-130786278D01*
X129484032Y-130786283D01*
X129446300Y-130927099D01*
X119835666Y-130927099D01*
X119808081Y-130879320D01*
X118962395Y-130033634D01*
X118934169Y-129978236D01*
X118943895Y-129916828D01*
X118962389Y-129891371D01*
X120803080Y-128050681D01*
X120882558Y-127913020D01*
X120882559Y-127913019D01*
X120923700Y-127759479D01*
X120923700Y-125567243D01*
X120897944Y-125471119D01*
X120882559Y-125413702D01*
X120803081Y-125276042D01*
X119928965Y-124401926D01*
X119900739Y-124346528D01*
X119899500Y-124330791D01*
X119899500Y-123199326D01*
X119902928Y-123173287D01*
X119907700Y-123155479D01*
X119907700Y-122996522D01*
X119902927Y-122978711D01*
X119899500Y-122952675D01*
X119899500Y-120835931D01*
X119902008Y-120828210D01*
X119900739Y-120820194D01*
X119911433Y-120799205D01*
X119918713Y-120776800D01*
X119928965Y-120764796D01*
X119970796Y-120722965D01*
X120026194Y-120694739D01*
X120041931Y-120693500D01*
X127743700Y-120693500D01*
X127802831Y-120712713D01*
X127839376Y-120763013D01*
X127844300Y-120794100D01*
X127844300Y-127356269D01*
X127825087Y-127415400D01*
X127814835Y-127427404D01*
X125875404Y-129366835D01*
X125820006Y-129395061D01*
X125804269Y-129396300D01*
X125670516Y-129396300D01*
X125516984Y-129437439D01*
X125516979Y-129437441D01*
X125379319Y-129516920D01*
X125266920Y-129629319D01*
X125187441Y-129766979D01*
X125187439Y-129766984D01*
X125146300Y-129920516D01*
X125146300Y-130079483D01*
X125187439Y-130233015D01*
X125187441Y-130233020D01*
X125266920Y-130370680D01*
X125379319Y-130483079D01*
X125379318Y-130483079D01*
X125379322Y-130483081D01*
X125516981Y-130562559D01*
X125516982Y-130562559D01*
X125516984Y-130562560D01*
X125670516Y-130603699D01*
X125670518Y-130603699D01*
X125670521Y-130603700D01*
X125670523Y-130603700D01*
X126175479Y-130603700D01*
X126296572Y-130571252D01*
X126329020Y-130562559D01*
X126466680Y-130483081D01*
X128931080Y-128018680D01*
X128992083Y-127913020D01*
X129010559Y-127881019D01*
X129051700Y-127727479D01*
X129051700Y-120794100D01*
X129070913Y-120734969D01*
X129121213Y-120698424D01*
X129152300Y-120693500D01*
X139249900Y-120693500D01*
X139309031Y-120712713D01*
X139345576Y-120763013D01*
X139350500Y-120794100D01*
X139350500Y-126033681D01*
X139370618Y-126108759D01*
X139380677Y-126146300D01*
X139388482Y-126175431D01*
X139391641Y-126187220D01*
X139471119Y-126324880D01*
X140266920Y-127120680D01*
X140379319Y-127233079D01*
X140379318Y-127233079D01*
X140379320Y-127233080D01*
X140516981Y-127312559D01*
X140516982Y-127312559D01*
X140516984Y-127312560D01*
X140670516Y-127353699D01*
X140670518Y-127353699D01*
X140670521Y-127353700D01*
X145708269Y-127353700D01*
X145767400Y-127372913D01*
X145779404Y-127383165D01*
X146129319Y-127733080D01*
X146129318Y-127733080D01*
X146175043Y-127759479D01*
X146266980Y-127812559D01*
X146266981Y-127812559D01*
X146266983Y-127812560D01*
X146420516Y-127853699D01*
X146420518Y-127853699D01*
X146420521Y-127853700D01*
X146420523Y-127853700D01*
X146579477Y-127853700D01*
X146579479Y-127853700D01*
X146733020Y-127812559D01*
X146870680Y-127733081D01*
X146983081Y-127620680D01*
X147062559Y-127483020D01*
X147103700Y-127329479D01*
X147103700Y-127170521D01*
X147066711Y-127032477D01*
X147062560Y-127016983D01*
X147062558Y-127016978D01*
X146983080Y-126879319D01*
X146370680Y-126266919D01*
X146370681Y-126266919D01*
X146233021Y-126187441D01*
X146233022Y-126187441D01*
X146214077Y-126182365D01*
X146188197Y-126175431D01*
X146151957Y-126165720D01*
X146079481Y-126146300D01*
X146079479Y-126146300D01*
X141041730Y-126146300D01*
X140982599Y-126127087D01*
X140970595Y-126116835D01*
X140587365Y-125733604D01*
X140559139Y-125678206D01*
X140557900Y-125662469D01*
X140557900Y-120837530D01*
X140560408Y-120829809D01*
X140559139Y-120821793D01*
X140569833Y-120800804D01*
X140577113Y-120778399D01*
X140587365Y-120766395D01*
X140630795Y-120722965D01*
X140686193Y-120694739D01*
X140701930Y-120693500D01*
X146989679Y-120693500D01*
X147110772Y-120661052D01*
X147143220Y-120652359D01*
X147280880Y-120572881D01*
X149683080Y-118170680D01*
X149745504Y-118062559D01*
X149762559Y-118033019D01*
X149803700Y-117879479D01*
X149803700Y-117420521D01*
X149803700Y-109920521D01*
X149803700Y-106537521D01*
X149762559Y-106383981D01*
X149762559Y-106383980D01*
X149683081Y-106246320D01*
X149033165Y-105596404D01*
X149029479Y-105589170D01*
X149022913Y-105584400D01*
X149015633Y-105561994D01*
X149004939Y-105541006D01*
X149003700Y-105525269D01*
X149003700Y-105447731D01*
X149022913Y-105388600D01*
X149033165Y-105376596D01*
X149624442Y-104785319D01*
X150483081Y-103926680D01*
X150562559Y-103789020D01*
X150603700Y-103635479D01*
X150603700Y-103476521D01*
X150603700Y-101920521D01*
X150562559Y-101766981D01*
X150483080Y-101629320D01*
X150370680Y-101516920D01*
X149983081Y-101129321D01*
X149983081Y-101129320D01*
X149870680Y-101016919D01*
X149870678Y-101016918D01*
X149133165Y-100279404D01*
X149104939Y-100224006D01*
X149103700Y-100208269D01*
X149103700Y-99791731D01*
X149122913Y-99732600D01*
X149133165Y-99720596D01*
X149433245Y-99420516D01*
X149983081Y-98870680D01*
X150062559Y-98733020D01*
X150103700Y-98579478D01*
X150103700Y-98420521D01*
X150103700Y-97795521D01*
X150062559Y-97641981D01*
X150062559Y-97641980D01*
X149983081Y-97504320D01*
X149133165Y-96654404D01*
X149129479Y-96647170D01*
X149122913Y-96642400D01*
X149115633Y-96619994D01*
X149104939Y-96599006D01*
X149103700Y-96583269D01*
X149103700Y-96416731D01*
X149122913Y-96357600D01*
X149133165Y-96345596D01*
X149586781Y-95891980D01*
X150233081Y-95245680D01*
X150312559Y-95108020D01*
X150353700Y-94954479D01*
X150353700Y-94795521D01*
X150353700Y-93920521D01*
X150312559Y-93766981D01*
X150312559Y-93766980D01*
X150233081Y-93629320D01*
X149133165Y-92529404D01*
X149104939Y-92474006D01*
X149103700Y-92458269D01*
X149103700Y-91791731D01*
X149122913Y-91732600D01*
X149133165Y-91720596D01*
X149586781Y-91266980D01*
X150233081Y-90620680D01*
X150312559Y-90483020D01*
X150353700Y-90329479D01*
X150353700Y-90170521D01*
X150353700Y-89920521D01*
X150342660Y-89879320D01*
X150312559Y-89766980D01*
X150233081Y-89629320D01*
X149284965Y-88681204D01*
X149256739Y-88625806D01*
X149255500Y-88610069D01*
X149255500Y-86889931D01*
X149274713Y-86830800D01*
X149284965Y-86818796D01*
X149983081Y-86120680D01*
X150062559Y-85983020D01*
X150103700Y-85829478D01*
X150103700Y-85670521D01*
X150103700Y-83920521D01*
X150062559Y-83766981D01*
X150062559Y-83766980D01*
X149983080Y-83629320D01*
X149570680Y-83216919D01*
X149433020Y-83137441D01*
X149400572Y-83128747D01*
X149360207Y-83117931D01*
X149279481Y-83096300D01*
X149279479Y-83096300D01*
X145751731Y-83096300D01*
X145692600Y-83077087D01*
X145680596Y-83066835D01*
X144058680Y-81444919D01*
X143921020Y-81365441D01*
X143921013Y-81365439D01*
X143888572Y-81356747D01*
X143848207Y-81345931D01*
X143767481Y-81324300D01*
X143767479Y-81324300D01*
X138151479Y-81324300D01*
X137992521Y-81324300D01*
X137992516Y-81324300D01*
X137838983Y-81365439D01*
X137838978Y-81365441D01*
X137701319Y-81444919D01*
X136779404Y-82366835D01*
X136724006Y-82395061D01*
X136708269Y-82396300D01*
X132791731Y-82396300D01*
X132732600Y-82377087D01*
X132720596Y-82366835D01*
X131798680Y-81444919D01*
X131661020Y-81365441D01*
X131661013Y-81365439D01*
X131628572Y-81356747D01*
X131588207Y-81345931D01*
X131507481Y-81324300D01*
X131507479Y-81324300D01*
X130543659Y-81324300D01*
X130484528Y-81305087D01*
X130447983Y-81254787D01*
X130447983Y-81192613D01*
X130484528Y-81142313D01*
X130512571Y-81128024D01*
X130517511Y-81126418D01*
X130527771Y-81123085D01*
X130693193Y-81038799D01*
X130843393Y-80929672D01*
X130974672Y-80798393D01*
X131083799Y-80648193D01*
X131168085Y-80482771D01*
X131225457Y-80306200D01*
X131254500Y-80122829D01*
X131254500Y-79937171D01*
X131254499Y-79937164D01*
X133745500Y-79937164D01*
X133745500Y-80122835D01*
X133774541Y-80306193D01*
X133774544Y-80306205D01*
X133831915Y-80482773D01*
X133916198Y-80648189D01*
X133916201Y-80648193D01*
X134025326Y-80798391D01*
X134156608Y-80929673D01*
X134306806Y-81038798D01*
X134306810Y-81038801D01*
X134472227Y-81123084D01*
X134472228Y-81123084D01*
X134472229Y-81123085D01*
X134648800Y-81180457D01*
X134648805Y-81180457D01*
X134648806Y-81180458D01*
X134832164Y-81209499D01*
X134832169Y-81209500D01*
X134832171Y-81209500D01*
X135017831Y-81209500D01*
X135017835Y-81209499D01*
X135201200Y-81180457D01*
X135377771Y-81123085D01*
X135543193Y-81038799D01*
X135693393Y-80929672D01*
X135824672Y-80798393D01*
X135933799Y-80648193D01*
X136018085Y-80482771D01*
X136075457Y-80306200D01*
X136104500Y-80122829D01*
X136104500Y-79937171D01*
X136075457Y-79753800D01*
X136018085Y-79577229D01*
X136018084Y-79577228D01*
X136018084Y-79577226D01*
X135933801Y-79411810D01*
X135933798Y-79411806D01*
X135824673Y-79261608D01*
X135693391Y-79130326D01*
X135543193Y-79021201D01*
X135543189Y-79021198D01*
X135377772Y-78936915D01*
X135377773Y-78936915D01*
X135201205Y-78879544D01*
X135201193Y-78879541D01*
X135017835Y-78850500D01*
X135017829Y-78850500D01*
X134832171Y-78850500D01*
X134832164Y-78850500D01*
X134648806Y-78879541D01*
X134648794Y-78879544D01*
X134472226Y-78936915D01*
X134306810Y-79021198D01*
X134306806Y-79021201D01*
X134156608Y-79130326D01*
X134025326Y-79261608D01*
X133916201Y-79411806D01*
X133916198Y-79411810D01*
X133831915Y-79577226D01*
X133774544Y-79753794D01*
X133774541Y-79753806D01*
X133745500Y-79937164D01*
X131254499Y-79937164D01*
X131225457Y-79753800D01*
X131168085Y-79577229D01*
X131168084Y-79577228D01*
X131168084Y-79577226D01*
X131083801Y-79411810D01*
X131083798Y-79411806D01*
X130974673Y-79261608D01*
X130843391Y-79130326D01*
X130693193Y-79021201D01*
X130693189Y-79021198D01*
X130527772Y-78936915D01*
X130527773Y-78936915D01*
X130351205Y-78879544D01*
X130351193Y-78879541D01*
X130167835Y-78850500D01*
X130167829Y-78850500D01*
X129982171Y-78850500D01*
X129982164Y-78850500D01*
X129798806Y-78879541D01*
X129798794Y-78879544D01*
X129622226Y-78936915D01*
X129456810Y-79021198D01*
X129456806Y-79021201D01*
X129306608Y-79130326D01*
X129175326Y-79261608D01*
X129066201Y-79411806D01*
X129066198Y-79411810D01*
X128981915Y-79577226D01*
X128924544Y-79753794D01*
X128924541Y-79753806D01*
X128895500Y-79937164D01*
X128895500Y-80122835D01*
X128924541Y-80306193D01*
X128924544Y-80306205D01*
X128981915Y-80482773D01*
X129066198Y-80648189D01*
X129066201Y-80648193D01*
X129175326Y-80798391D01*
X129306608Y-80929673D01*
X129456806Y-81038798D01*
X129456810Y-81038801D01*
X129622227Y-81123084D01*
X129622226Y-81123084D01*
X129637429Y-81128024D01*
X129687729Y-81164569D01*
X129706941Y-81223701D01*
X129687728Y-81282832D01*
X129637427Y-81319377D01*
X129606341Y-81324300D01*
X115690300Y-81324300D01*
X115631169Y-81305087D01*
X115594624Y-81254787D01*
X115589700Y-81223700D01*
X115589700Y-76992968D01*
X115593128Y-76966930D01*
X115603698Y-76927481D01*
X115603699Y-76927479D01*
X115603699Y-76768521D01*
X115587582Y-76708368D01*
X115562561Y-76614984D01*
X115562558Y-76614978D01*
X115491163Y-76491319D01*
X115483081Y-76477320D01*
X115370680Y-76364919D01*
X115370681Y-76364919D01*
X115233021Y-76285441D01*
X115233015Y-76285438D01*
X115079485Y-76244302D01*
X115079480Y-76244301D01*
X115079479Y-76244301D01*
X114920521Y-76244301D01*
X114920520Y-76244301D01*
X114920514Y-76244302D01*
X114766984Y-76285438D01*
X114766978Y-76285441D01*
X114629319Y-76364919D01*
X114502919Y-76491319D01*
X114423440Y-76628980D01*
X114423441Y-76628980D01*
X114423441Y-76628981D01*
X114382300Y-76782516D01*
X101293049Y-76782516D01*
X101298154Y-76776295D01*
X101522179Y-76529121D01*
X101529121Y-76522179D01*
X101776295Y-76298154D01*
X101783898Y-76291915D01*
X102051826Y-76093205D01*
X102060007Y-76087739D01*
X102346116Y-75916253D01*
X102354814Y-75911604D01*
X102656351Y-75768987D01*
X102665432Y-75765226D01*
X102979510Y-75652846D01*
X102988922Y-75649991D01*
X103312503Y-75568938D01*
X103322154Y-75567019D01*
X103652110Y-75518074D01*
X103661908Y-75517109D01*
X103997537Y-75500621D01*
X104002473Y-75500500D01*
X104065892Y-75500500D01*
X129371571Y-75500500D01*
X129430702Y-75519713D01*
G37*
%TD.AperFunction*%
%TA.AperFunction,Conductor*%
G36*
X153767400Y-136122913D02*
G01*
X153779404Y-136133165D01*
X154129319Y-136483080D01*
X154129318Y-136483080D01*
X154223958Y-136537720D01*
X154266980Y-136562559D01*
X154266981Y-136562559D01*
X154266983Y-136562560D01*
X154420516Y-136603699D01*
X154420518Y-136603699D01*
X154420521Y-136603700D01*
X154420523Y-136603700D01*
X164079479Y-136603700D01*
X164200572Y-136571252D01*
X164233020Y-136562559D01*
X164351365Y-136494232D01*
X164354192Y-136492830D01*
X164381961Y-136488736D01*
X164409415Y-136482901D01*
X164412433Y-136484244D01*
X164415701Y-136483763D01*
X164440565Y-136496769D01*
X164466214Y-136508189D01*
X164467866Y-136511051D01*
X164470793Y-136512582D01*
X164483263Y-136537720D01*
X164497301Y-136562033D01*
X164497832Y-136567086D01*
X164498424Y-136568279D01*
X164498136Y-136569977D01*
X164499500Y-136582950D01*
X164499500Y-145997527D01*
X164499379Y-146002463D01*
X164482891Y-146338077D01*
X164481923Y-146347902D01*
X164432983Y-146677829D01*
X164431057Y-146687512D01*
X164350013Y-147011059D01*
X164347147Y-147020506D01*
X164234781Y-147334547D01*
X164231003Y-147343668D01*
X164088399Y-147645177D01*
X164083746Y-147653883D01*
X163912266Y-147939982D01*
X163906781Y-147948191D01*
X163708096Y-148216086D01*
X163701833Y-148223718D01*
X163477839Y-148470858D01*
X163470858Y-148477839D01*
X163223718Y-148701833D01*
X163216086Y-148708096D01*
X162948191Y-148906781D01*
X162939982Y-148912266D01*
X162653883Y-149083746D01*
X162645177Y-149088399D01*
X162343668Y-149231003D01*
X162334547Y-149234781D01*
X162020506Y-149347147D01*
X162011059Y-149350013D01*
X161687512Y-149431057D01*
X161677829Y-149432983D01*
X161347902Y-149481923D01*
X161338077Y-149482891D01*
X161002463Y-149499379D01*
X160997527Y-149499500D01*
X129097131Y-149499500D01*
X129038000Y-149480287D01*
X129001455Y-149429987D01*
X129001455Y-149367813D01*
X129025996Y-149327765D01*
X129122758Y-149231003D01*
X129453761Y-148900000D01*
X137600000Y-148900000D01*
X143400000Y-148900000D01*
X143400000Y-146100000D01*
X137600000Y-146100000D01*
X137600000Y-148900000D01*
X129453761Y-148900000D01*
X129483081Y-148870680D01*
X129562559Y-148733020D01*
X129603700Y-148579479D01*
X129603700Y-148420521D01*
X129603700Y-143427099D01*
X147446300Y-143427099D01*
X147446300Y-143572900D01*
X147484032Y-143713716D01*
X147484034Y-143713721D01*
X147556928Y-143839977D01*
X147556930Y-143839980D01*
X147660020Y-143943070D01*
X147786280Y-144015966D01*
X147786281Y-144015966D01*
X147786283Y-144015967D01*
X147927099Y-144053699D01*
X147927101Y-144053699D01*
X147927104Y-144053700D01*
X147927106Y-144053700D01*
X148072894Y-144053700D01*
X148072896Y-144053700D01*
X148213720Y-144015966D01*
X148339980Y-143943070D01*
X148443070Y-143839980D01*
X148515966Y-143713720D01*
X148553700Y-143572896D01*
X148553700Y-143455649D01*
X148572913Y-143396518D01*
X148583165Y-143384514D01*
X149884514Y-142083165D01*
X149939912Y-142054939D01*
X149955649Y-142053700D01*
X150072894Y-142053700D01*
X150072896Y-142053700D01*
X150213720Y-142015966D01*
X150339980Y-141943070D01*
X150443070Y-141839980D01*
X150515966Y-141713720D01*
X150534833Y-141643308D01*
X150553699Y-141572900D01*
X150553700Y-141572894D01*
X150553700Y-141427105D01*
X150553699Y-141427099D01*
X150515967Y-141286283D01*
X150515965Y-141286278D01*
X150443071Y-141160022D01*
X150443070Y-141160020D01*
X150339980Y-141056930D01*
X150339977Y-141056928D01*
X150213721Y-140984034D01*
X150213716Y-140984032D01*
X150072900Y-140946300D01*
X150072896Y-140946300D01*
X149927104Y-140946300D01*
X149927099Y-140946300D01*
X149786283Y-140984032D01*
X149786278Y-140984034D01*
X149660022Y-141056928D01*
X149660021Y-141056929D01*
X149660020Y-141056930D01*
X149556930Y-141160020D01*
X149556929Y-141160021D01*
X149556928Y-141160022D01*
X149484034Y-141286278D01*
X149484032Y-141286283D01*
X149446300Y-141427099D01*
X149446300Y-141544349D01*
X149427087Y-141603480D01*
X149416835Y-141615484D01*
X148115484Y-142916835D01*
X148060086Y-142945061D01*
X148044349Y-142946300D01*
X147927099Y-142946300D01*
X147786283Y-142984032D01*
X147786278Y-142984034D01*
X147660022Y-143056928D01*
X147660021Y-143056929D01*
X147660020Y-143056930D01*
X147556930Y-143160020D01*
X147556929Y-143160021D01*
X147556928Y-143160022D01*
X147484034Y-143286278D01*
X147484032Y-143286283D01*
X147446300Y-143427099D01*
X129603700Y-143427099D01*
X129603700Y-137291730D01*
X129622913Y-137232599D01*
X129633165Y-137220595D01*
X130720595Y-136133165D01*
X130775993Y-136104939D01*
X130791730Y-136103700D01*
X153708269Y-136103700D01*
X153767400Y-136122913D01*
G37*
%TD.AperFunction*%
%TD*%
%TA.AperFunction,Conductor*%
%TO.N,+5V*%
G36*
X151693039Y-76019685D02*
G01*
X151738794Y-76072489D01*
X151750000Y-76124000D01*
X151750000Y-80126000D01*
X151730315Y-80193039D01*
X151677511Y-80238794D01*
X151626000Y-80250000D01*
X147874000Y-80250000D01*
X147806961Y-80230315D01*
X147761206Y-80177511D01*
X147750000Y-80126000D01*
X147750000Y-76124000D01*
X147769685Y-76056961D01*
X147822489Y-76011206D01*
X147874000Y-76000000D01*
X151626000Y-76000000D01*
X151693039Y-76019685D01*
G37*
%TD.AperFunction*%
%TD*%
%TA.AperFunction,Conductor*%
%TO.N,+3V3*%
G36*
X118443039Y-138019685D02*
G01*
X118488794Y-138072489D01*
X118500000Y-138124000D01*
X118500000Y-141876000D01*
X118480315Y-141943039D01*
X118427511Y-141988794D01*
X118376000Y-142000000D01*
X117500000Y-142000000D01*
X116724000Y-142000000D01*
X116656961Y-141980315D01*
X116611206Y-141927511D01*
X116600000Y-141876000D01*
X116600000Y-138124000D01*
X116619685Y-138056961D01*
X116672489Y-138011206D01*
X116724000Y-138000000D01*
X118376000Y-138000000D01*
X118443039Y-138019685D01*
G37*
%TD.AperFunction*%
%TD*%
M02*
