%TF.GenerationSoftware,KiCad,Pcbnew,9.0.5-1.fc42*%
%TF.CreationDate,2025-11-14T19:16:10+10:30*%
%TF.ProjectId,DivaConIO,44697661-436f-46e4-994f-2e6b69636164,1.1*%
%TF.SameCoordinates,Original*%
%TF.FileFunction,Other,Comment*%
%FSLAX46Y46*%
G04 Gerber Fmt 4.6, Leading zero omitted, Abs format (unit mm)*
G04 Created by KiCad (PCBNEW 9.0.5-1.fc42) date 2025-11-14 19:16:10*
%MOMM*%
%LPD*%
G01*
G04 APERTURE LIST*
%ADD10C,0.200000*%
%ADD11C,0.400000*%
%ADD12C,0.050000*%
%ADD13C,0.075000*%
%ADD14C,0.150000*%
G04 APERTURE END LIST*
D10*
X157988720Y-140518028D02*
X157988720Y-139018028D01*
X157988720Y-139018028D02*
X158488720Y-140089457D01*
X158488720Y-140089457D02*
X158988720Y-139018028D01*
X158988720Y-139018028D02*
X158988720Y-140518028D01*
X159703006Y-140518028D02*
X159703006Y-139518028D01*
X159703006Y-139018028D02*
X159631578Y-139089457D01*
X159631578Y-139089457D02*
X159703006Y-139160885D01*
X159703006Y-139160885D02*
X159774435Y-139089457D01*
X159774435Y-139089457D02*
X159703006Y-139018028D01*
X159703006Y-139018028D02*
X159703006Y-139160885D01*
X160417292Y-139518028D02*
X160417292Y-140518028D01*
X160417292Y-139660885D02*
X160488721Y-139589457D01*
X160488721Y-139589457D02*
X160631578Y-139518028D01*
X160631578Y-139518028D02*
X160845864Y-139518028D01*
X160845864Y-139518028D02*
X160988721Y-139589457D01*
X160988721Y-139589457D02*
X161060150Y-139732314D01*
X161060150Y-139732314D02*
X161060150Y-140518028D01*
X162917292Y-140518028D02*
X162917292Y-139018028D01*
X163560150Y-140518028D02*
X163560150Y-139732314D01*
X163560150Y-139732314D02*
X163488721Y-139589457D01*
X163488721Y-139589457D02*
X163345864Y-139518028D01*
X163345864Y-139518028D02*
X163131578Y-139518028D01*
X163131578Y-139518028D02*
X162988721Y-139589457D01*
X162988721Y-139589457D02*
X162917292Y-139660885D01*
X164488721Y-140518028D02*
X164345864Y-140446600D01*
X164345864Y-140446600D02*
X164274435Y-140375171D01*
X164274435Y-140375171D02*
X164203007Y-140232314D01*
X164203007Y-140232314D02*
X164203007Y-139803742D01*
X164203007Y-139803742D02*
X164274435Y-139660885D01*
X164274435Y-139660885D02*
X164345864Y-139589457D01*
X164345864Y-139589457D02*
X164488721Y-139518028D01*
X164488721Y-139518028D02*
X164703007Y-139518028D01*
X164703007Y-139518028D02*
X164845864Y-139589457D01*
X164845864Y-139589457D02*
X164917293Y-139660885D01*
X164917293Y-139660885D02*
X164988721Y-139803742D01*
X164988721Y-139803742D02*
X164988721Y-140232314D01*
X164988721Y-140232314D02*
X164917293Y-140375171D01*
X164917293Y-140375171D02*
X164845864Y-140446600D01*
X164845864Y-140446600D02*
X164703007Y-140518028D01*
X164703007Y-140518028D02*
X164488721Y-140518028D01*
X165845864Y-140518028D02*
X165703007Y-140446600D01*
X165703007Y-140446600D02*
X165631578Y-140303742D01*
X165631578Y-140303742D02*
X165631578Y-139018028D01*
X166988721Y-140446600D02*
X166845864Y-140518028D01*
X166845864Y-140518028D02*
X166560150Y-140518028D01*
X166560150Y-140518028D02*
X166417292Y-140446600D01*
X166417292Y-140446600D02*
X166345864Y-140303742D01*
X166345864Y-140303742D02*
X166345864Y-139732314D01*
X166345864Y-139732314D02*
X166417292Y-139589457D01*
X166417292Y-139589457D02*
X166560150Y-139518028D01*
X166560150Y-139518028D02*
X166845864Y-139518028D01*
X166845864Y-139518028D02*
X166988721Y-139589457D01*
X166988721Y-139589457D02*
X167060150Y-139732314D01*
X167060150Y-139732314D02*
X167060150Y-139875171D01*
X167060150Y-139875171D02*
X166345864Y-140018028D01*
X169488721Y-140518028D02*
X169488721Y-139018028D01*
X169488721Y-140446600D02*
X169345863Y-140518028D01*
X169345863Y-140518028D02*
X169060149Y-140518028D01*
X169060149Y-140518028D02*
X168917292Y-140446600D01*
X168917292Y-140446600D02*
X168845863Y-140375171D01*
X168845863Y-140375171D02*
X168774435Y-140232314D01*
X168774435Y-140232314D02*
X168774435Y-139803742D01*
X168774435Y-139803742D02*
X168845863Y-139660885D01*
X168845863Y-139660885D02*
X168917292Y-139589457D01*
X168917292Y-139589457D02*
X169060149Y-139518028D01*
X169060149Y-139518028D02*
X169345863Y-139518028D01*
X169345863Y-139518028D02*
X169488721Y-139589457D01*
X170203006Y-140518028D02*
X170203006Y-139518028D01*
X170203006Y-139018028D02*
X170131578Y-139089457D01*
X170131578Y-139089457D02*
X170203006Y-139160885D01*
X170203006Y-139160885D02*
X170274435Y-139089457D01*
X170274435Y-139089457D02*
X170203006Y-139018028D01*
X170203006Y-139018028D02*
X170203006Y-139160885D01*
X171560150Y-140518028D02*
X171560150Y-139732314D01*
X171560150Y-139732314D02*
X171488721Y-139589457D01*
X171488721Y-139589457D02*
X171345864Y-139518028D01*
X171345864Y-139518028D02*
X171060150Y-139518028D01*
X171060150Y-139518028D02*
X170917292Y-139589457D01*
X171560150Y-140446600D02*
X171417292Y-140518028D01*
X171417292Y-140518028D02*
X171060150Y-140518028D01*
X171060150Y-140518028D02*
X170917292Y-140446600D01*
X170917292Y-140446600D02*
X170845864Y-140303742D01*
X170845864Y-140303742D02*
X170845864Y-140160885D01*
X170845864Y-140160885D02*
X170917292Y-140018028D01*
X170917292Y-140018028D02*
X171060150Y-139946600D01*
X171060150Y-139946600D02*
X171417292Y-139946600D01*
X171417292Y-139946600D02*
X171560150Y-139875171D01*
X172274435Y-140518028D02*
X172274435Y-139518028D01*
X172274435Y-139660885D02*
X172345864Y-139589457D01*
X172345864Y-139589457D02*
X172488721Y-139518028D01*
X172488721Y-139518028D02*
X172703007Y-139518028D01*
X172703007Y-139518028D02*
X172845864Y-139589457D01*
X172845864Y-139589457D02*
X172917293Y-139732314D01*
X172917293Y-139732314D02*
X172917293Y-140518028D01*
X172917293Y-139732314D02*
X172988721Y-139589457D01*
X172988721Y-139589457D02*
X173131578Y-139518028D01*
X173131578Y-139518028D02*
X173345864Y-139518028D01*
X173345864Y-139518028D02*
X173488721Y-139589457D01*
X173488721Y-139589457D02*
X173560150Y-139732314D01*
X173560150Y-139732314D02*
X173560150Y-140518028D01*
X174845864Y-140446600D02*
X174703007Y-140518028D01*
X174703007Y-140518028D02*
X174417293Y-140518028D01*
X174417293Y-140518028D02*
X174274435Y-140446600D01*
X174274435Y-140446600D02*
X174203007Y-140303742D01*
X174203007Y-140303742D02*
X174203007Y-139732314D01*
X174203007Y-139732314D02*
X174274435Y-139589457D01*
X174274435Y-139589457D02*
X174417293Y-139518028D01*
X174417293Y-139518028D02*
X174703007Y-139518028D01*
X174703007Y-139518028D02*
X174845864Y-139589457D01*
X174845864Y-139589457D02*
X174917293Y-139732314D01*
X174917293Y-139732314D02*
X174917293Y-139875171D01*
X174917293Y-139875171D02*
X174203007Y-140018028D01*
X175345864Y-139518028D02*
X175917292Y-139518028D01*
X175560149Y-139018028D02*
X175560149Y-140303742D01*
X175560149Y-140303742D02*
X175631578Y-140446600D01*
X175631578Y-140446600D02*
X175774435Y-140518028D01*
X175774435Y-140518028D02*
X175917292Y-140518028D01*
X176988721Y-140446600D02*
X176845864Y-140518028D01*
X176845864Y-140518028D02*
X176560150Y-140518028D01*
X176560150Y-140518028D02*
X176417292Y-140446600D01*
X176417292Y-140446600D02*
X176345864Y-140303742D01*
X176345864Y-140303742D02*
X176345864Y-139732314D01*
X176345864Y-139732314D02*
X176417292Y-139589457D01*
X176417292Y-139589457D02*
X176560150Y-139518028D01*
X176560150Y-139518028D02*
X176845864Y-139518028D01*
X176845864Y-139518028D02*
X176988721Y-139589457D01*
X176988721Y-139589457D02*
X177060150Y-139732314D01*
X177060150Y-139732314D02*
X177060150Y-139875171D01*
X177060150Y-139875171D02*
X176345864Y-140018028D01*
X177703006Y-140518028D02*
X177703006Y-139518028D01*
X177703006Y-139803742D02*
X177774435Y-139660885D01*
X177774435Y-139660885D02*
X177845864Y-139589457D01*
X177845864Y-139589457D02*
X177988721Y-139518028D01*
X177988721Y-139518028D02*
X178131578Y-139518028D01*
X178631577Y-140375171D02*
X178703006Y-140446600D01*
X178703006Y-140446600D02*
X178631577Y-140518028D01*
X178631577Y-140518028D02*
X178560149Y-140446600D01*
X178560149Y-140446600D02*
X178631577Y-140375171D01*
X178631577Y-140375171D02*
X178631577Y-140518028D01*
X178631577Y-139589457D02*
X178703006Y-139660885D01*
X178703006Y-139660885D02*
X178631577Y-139732314D01*
X178631577Y-139732314D02*
X178560149Y-139660885D01*
X178560149Y-139660885D02*
X178631577Y-139589457D01*
X178631577Y-139589457D02*
X178631577Y-139732314D01*
X157988720Y-144475028D02*
X157988720Y-142975028D01*
X158703006Y-144475028D02*
X158703006Y-143475028D01*
X158703006Y-143617885D02*
X158774435Y-143546457D01*
X158774435Y-143546457D02*
X158917292Y-143475028D01*
X158917292Y-143475028D02*
X159131578Y-143475028D01*
X159131578Y-143475028D02*
X159274435Y-143546457D01*
X159274435Y-143546457D02*
X159345864Y-143689314D01*
X159345864Y-143689314D02*
X159345864Y-144475028D01*
X159345864Y-143689314D02*
X159417292Y-143546457D01*
X159417292Y-143546457D02*
X159560149Y-143475028D01*
X159560149Y-143475028D02*
X159774435Y-143475028D01*
X159774435Y-143475028D02*
X159917292Y-143546457D01*
X159917292Y-143546457D02*
X159988721Y-143689314D01*
X159988721Y-143689314D02*
X159988721Y-144475028D01*
X160703006Y-143475028D02*
X160703006Y-144975028D01*
X160703006Y-143546457D02*
X160845864Y-143475028D01*
X160845864Y-143475028D02*
X161131578Y-143475028D01*
X161131578Y-143475028D02*
X161274435Y-143546457D01*
X161274435Y-143546457D02*
X161345864Y-143617885D01*
X161345864Y-143617885D02*
X161417292Y-143760742D01*
X161417292Y-143760742D02*
X161417292Y-144189314D01*
X161417292Y-144189314D02*
X161345864Y-144332171D01*
X161345864Y-144332171D02*
X161274435Y-144403600D01*
X161274435Y-144403600D02*
X161131578Y-144475028D01*
X161131578Y-144475028D02*
X160845864Y-144475028D01*
X160845864Y-144475028D02*
X160703006Y-144403600D01*
X162631578Y-144403600D02*
X162488721Y-144475028D01*
X162488721Y-144475028D02*
X162203007Y-144475028D01*
X162203007Y-144475028D02*
X162060149Y-144403600D01*
X162060149Y-144403600D02*
X161988721Y-144260742D01*
X161988721Y-144260742D02*
X161988721Y-143689314D01*
X161988721Y-143689314D02*
X162060149Y-143546457D01*
X162060149Y-143546457D02*
X162203007Y-143475028D01*
X162203007Y-143475028D02*
X162488721Y-143475028D01*
X162488721Y-143475028D02*
X162631578Y-143546457D01*
X162631578Y-143546457D02*
X162703007Y-143689314D01*
X162703007Y-143689314D02*
X162703007Y-143832171D01*
X162703007Y-143832171D02*
X161988721Y-143975028D01*
X163988721Y-144475028D02*
X163988721Y-142975028D01*
X163988721Y-144403600D02*
X163845863Y-144475028D01*
X163845863Y-144475028D02*
X163560149Y-144475028D01*
X163560149Y-144475028D02*
X163417292Y-144403600D01*
X163417292Y-144403600D02*
X163345863Y-144332171D01*
X163345863Y-144332171D02*
X163274435Y-144189314D01*
X163274435Y-144189314D02*
X163274435Y-143760742D01*
X163274435Y-143760742D02*
X163345863Y-143617885D01*
X163345863Y-143617885D02*
X163417292Y-143546457D01*
X163417292Y-143546457D02*
X163560149Y-143475028D01*
X163560149Y-143475028D02*
X163845863Y-143475028D01*
X163845863Y-143475028D02*
X163988721Y-143546457D01*
X165345864Y-144475028D02*
X165345864Y-143689314D01*
X165345864Y-143689314D02*
X165274435Y-143546457D01*
X165274435Y-143546457D02*
X165131578Y-143475028D01*
X165131578Y-143475028D02*
X164845864Y-143475028D01*
X164845864Y-143475028D02*
X164703006Y-143546457D01*
X165345864Y-144403600D02*
X165203006Y-144475028D01*
X165203006Y-144475028D02*
X164845864Y-144475028D01*
X164845864Y-144475028D02*
X164703006Y-144403600D01*
X164703006Y-144403600D02*
X164631578Y-144260742D01*
X164631578Y-144260742D02*
X164631578Y-144117885D01*
X164631578Y-144117885D02*
X164703006Y-143975028D01*
X164703006Y-143975028D02*
X164845864Y-143903600D01*
X164845864Y-143903600D02*
X165203006Y-143903600D01*
X165203006Y-143903600D02*
X165345864Y-143832171D01*
X166060149Y-143475028D02*
X166060149Y-144475028D01*
X166060149Y-143617885D02*
X166131578Y-143546457D01*
X166131578Y-143546457D02*
X166274435Y-143475028D01*
X166274435Y-143475028D02*
X166488721Y-143475028D01*
X166488721Y-143475028D02*
X166631578Y-143546457D01*
X166631578Y-143546457D02*
X166703007Y-143689314D01*
X166703007Y-143689314D02*
X166703007Y-144475028D01*
X168060150Y-144403600D02*
X167917292Y-144475028D01*
X167917292Y-144475028D02*
X167631578Y-144475028D01*
X167631578Y-144475028D02*
X167488721Y-144403600D01*
X167488721Y-144403600D02*
X167417292Y-144332171D01*
X167417292Y-144332171D02*
X167345864Y-144189314D01*
X167345864Y-144189314D02*
X167345864Y-143760742D01*
X167345864Y-143760742D02*
X167417292Y-143617885D01*
X167417292Y-143617885D02*
X167488721Y-143546457D01*
X167488721Y-143546457D02*
X167631578Y-143475028D01*
X167631578Y-143475028D02*
X167917292Y-143475028D01*
X167917292Y-143475028D02*
X168060150Y-143546457D01*
X169274435Y-144403600D02*
X169131578Y-144475028D01*
X169131578Y-144475028D02*
X168845864Y-144475028D01*
X168845864Y-144475028D02*
X168703006Y-144403600D01*
X168703006Y-144403600D02*
X168631578Y-144260742D01*
X168631578Y-144260742D02*
X168631578Y-143689314D01*
X168631578Y-143689314D02*
X168703006Y-143546457D01*
X168703006Y-143546457D02*
X168845864Y-143475028D01*
X168845864Y-143475028D02*
X169131578Y-143475028D01*
X169131578Y-143475028D02*
X169274435Y-143546457D01*
X169274435Y-143546457D02*
X169345864Y-143689314D01*
X169345864Y-143689314D02*
X169345864Y-143832171D01*
X169345864Y-143832171D02*
X168631578Y-143975028D01*
X171988720Y-144332171D02*
X171917292Y-144403600D01*
X171917292Y-144403600D02*
X171703006Y-144475028D01*
X171703006Y-144475028D02*
X171560149Y-144475028D01*
X171560149Y-144475028D02*
X171345863Y-144403600D01*
X171345863Y-144403600D02*
X171203006Y-144260742D01*
X171203006Y-144260742D02*
X171131577Y-144117885D01*
X171131577Y-144117885D02*
X171060149Y-143832171D01*
X171060149Y-143832171D02*
X171060149Y-143617885D01*
X171060149Y-143617885D02*
X171131577Y-143332171D01*
X171131577Y-143332171D02*
X171203006Y-143189314D01*
X171203006Y-143189314D02*
X171345863Y-143046457D01*
X171345863Y-143046457D02*
X171560149Y-142975028D01*
X171560149Y-142975028D02*
X171703006Y-142975028D01*
X171703006Y-142975028D02*
X171917292Y-143046457D01*
X171917292Y-143046457D02*
X171988720Y-143117885D01*
X172845863Y-144475028D02*
X172703006Y-144403600D01*
X172703006Y-144403600D02*
X172631577Y-144332171D01*
X172631577Y-144332171D02*
X172560149Y-144189314D01*
X172560149Y-144189314D02*
X172560149Y-143760742D01*
X172560149Y-143760742D02*
X172631577Y-143617885D01*
X172631577Y-143617885D02*
X172703006Y-143546457D01*
X172703006Y-143546457D02*
X172845863Y-143475028D01*
X172845863Y-143475028D02*
X173060149Y-143475028D01*
X173060149Y-143475028D02*
X173203006Y-143546457D01*
X173203006Y-143546457D02*
X173274435Y-143617885D01*
X173274435Y-143617885D02*
X173345863Y-143760742D01*
X173345863Y-143760742D02*
X173345863Y-144189314D01*
X173345863Y-144189314D02*
X173274435Y-144332171D01*
X173274435Y-144332171D02*
X173203006Y-144403600D01*
X173203006Y-144403600D02*
X173060149Y-144475028D01*
X173060149Y-144475028D02*
X172845863Y-144475028D01*
X173988720Y-143475028D02*
X173988720Y-144475028D01*
X173988720Y-143617885D02*
X174060149Y-143546457D01*
X174060149Y-143546457D02*
X174203006Y-143475028D01*
X174203006Y-143475028D02*
X174417292Y-143475028D01*
X174417292Y-143475028D02*
X174560149Y-143546457D01*
X174560149Y-143546457D02*
X174631578Y-143689314D01*
X174631578Y-143689314D02*
X174631578Y-144475028D01*
X175131578Y-143475028D02*
X175703006Y-143475028D01*
X175345863Y-142975028D02*
X175345863Y-144260742D01*
X175345863Y-144260742D02*
X175417292Y-144403600D01*
X175417292Y-144403600D02*
X175560149Y-144475028D01*
X175560149Y-144475028D02*
X175703006Y-144475028D01*
X176203006Y-144475028D02*
X176203006Y-143475028D01*
X176203006Y-143760742D02*
X176274435Y-143617885D01*
X176274435Y-143617885D02*
X176345864Y-143546457D01*
X176345864Y-143546457D02*
X176488721Y-143475028D01*
X176488721Y-143475028D02*
X176631578Y-143475028D01*
X177345863Y-144475028D02*
X177203006Y-144403600D01*
X177203006Y-144403600D02*
X177131577Y-144332171D01*
X177131577Y-144332171D02*
X177060149Y-144189314D01*
X177060149Y-144189314D02*
X177060149Y-143760742D01*
X177060149Y-143760742D02*
X177131577Y-143617885D01*
X177131577Y-143617885D02*
X177203006Y-143546457D01*
X177203006Y-143546457D02*
X177345863Y-143475028D01*
X177345863Y-143475028D02*
X177560149Y-143475028D01*
X177560149Y-143475028D02*
X177703006Y-143546457D01*
X177703006Y-143546457D02*
X177774435Y-143617885D01*
X177774435Y-143617885D02*
X177845863Y-143760742D01*
X177845863Y-143760742D02*
X177845863Y-144189314D01*
X177845863Y-144189314D02*
X177774435Y-144332171D01*
X177774435Y-144332171D02*
X177703006Y-144403600D01*
X177703006Y-144403600D02*
X177560149Y-144475028D01*
X177560149Y-144475028D02*
X177345863Y-144475028D01*
X178703006Y-144475028D02*
X178560149Y-144403600D01*
X178560149Y-144403600D02*
X178488720Y-144260742D01*
X178488720Y-144260742D02*
X178488720Y-142975028D01*
X179274434Y-144332171D02*
X179345863Y-144403600D01*
X179345863Y-144403600D02*
X179274434Y-144475028D01*
X179274434Y-144475028D02*
X179203006Y-144403600D01*
X179203006Y-144403600D02*
X179274434Y-144332171D01*
X179274434Y-144332171D02*
X179274434Y-144475028D01*
X179274434Y-143546457D02*
X179345863Y-143617885D01*
X179345863Y-143617885D02*
X179274434Y-143689314D01*
X179274434Y-143689314D02*
X179203006Y-143617885D01*
X179203006Y-143617885D02*
X179274434Y-143546457D01*
X179274434Y-143546457D02*
X179274434Y-143689314D01*
D11*
X91341733Y-126575819D02*
X91627447Y-126671057D01*
X91627447Y-126671057D02*
X91722685Y-126766295D01*
X91722685Y-126766295D02*
X91817923Y-126956771D01*
X91817923Y-126956771D02*
X91817923Y-127242485D01*
X91817923Y-127242485D02*
X91722685Y-127432961D01*
X91722685Y-127432961D02*
X91627447Y-127528200D01*
X91627447Y-127528200D02*
X91436971Y-127623438D01*
X91436971Y-127623438D02*
X90675066Y-127623438D01*
X90675066Y-127623438D02*
X90675066Y-125623438D01*
X90675066Y-125623438D02*
X91341733Y-125623438D01*
X91341733Y-125623438D02*
X91532209Y-125718676D01*
X91532209Y-125718676D02*
X91627447Y-125813914D01*
X91627447Y-125813914D02*
X91722685Y-126004390D01*
X91722685Y-126004390D02*
X91722685Y-126194866D01*
X91722685Y-126194866D02*
X91627447Y-126385342D01*
X91627447Y-126385342D02*
X91532209Y-126480580D01*
X91532209Y-126480580D02*
X91341733Y-126575819D01*
X91341733Y-126575819D02*
X90675066Y-126575819D01*
X93056018Y-125623438D02*
X93436971Y-125623438D01*
X93436971Y-125623438D02*
X93627447Y-125718676D01*
X93627447Y-125718676D02*
X93817923Y-125909152D01*
X93817923Y-125909152D02*
X93913161Y-126290104D01*
X93913161Y-126290104D02*
X93913161Y-126956771D01*
X93913161Y-126956771D02*
X93817923Y-127337723D01*
X93817923Y-127337723D02*
X93627447Y-127528200D01*
X93627447Y-127528200D02*
X93436971Y-127623438D01*
X93436971Y-127623438D02*
X93056018Y-127623438D01*
X93056018Y-127623438D02*
X92865542Y-127528200D01*
X92865542Y-127528200D02*
X92675066Y-127337723D01*
X92675066Y-127337723D02*
X92579828Y-126956771D01*
X92579828Y-126956771D02*
X92579828Y-126290104D01*
X92579828Y-126290104D02*
X92675066Y-125909152D01*
X92675066Y-125909152D02*
X92865542Y-125718676D01*
X92865542Y-125718676D02*
X93056018Y-125623438D01*
X94675066Y-127052009D02*
X95627447Y-127052009D01*
X94484590Y-127623438D02*
X95151256Y-125623438D01*
X95151256Y-125623438D02*
X95817923Y-127623438D01*
X97627447Y-127623438D02*
X96960780Y-126671057D01*
X96484590Y-127623438D02*
X96484590Y-125623438D01*
X96484590Y-125623438D02*
X97246495Y-125623438D01*
X97246495Y-125623438D02*
X97436971Y-125718676D01*
X97436971Y-125718676D02*
X97532209Y-125813914D01*
X97532209Y-125813914D02*
X97627447Y-126004390D01*
X97627447Y-126004390D02*
X97627447Y-126290104D01*
X97627447Y-126290104D02*
X97532209Y-126480580D01*
X97532209Y-126480580D02*
X97436971Y-126575819D01*
X97436971Y-126575819D02*
X97246495Y-126671057D01*
X97246495Y-126671057D02*
X96484590Y-126671057D01*
X98484590Y-127623438D02*
X98484590Y-125623438D01*
X98484590Y-125623438D02*
X98960780Y-125623438D01*
X98960780Y-125623438D02*
X99246495Y-125718676D01*
X99246495Y-125718676D02*
X99436971Y-125909152D01*
X99436971Y-125909152D02*
X99532209Y-126099628D01*
X99532209Y-126099628D02*
X99627447Y-126480580D01*
X99627447Y-126480580D02*
X99627447Y-126766295D01*
X99627447Y-126766295D02*
X99532209Y-127147247D01*
X99532209Y-127147247D02*
X99436971Y-127337723D01*
X99436971Y-127337723D02*
X99246495Y-127528200D01*
X99246495Y-127528200D02*
X98960780Y-127623438D01*
X98960780Y-127623438D02*
X98484590Y-127623438D01*
X103151257Y-127432961D02*
X103056019Y-127528200D01*
X103056019Y-127528200D02*
X102770305Y-127623438D01*
X102770305Y-127623438D02*
X102579829Y-127623438D01*
X102579829Y-127623438D02*
X102294114Y-127528200D01*
X102294114Y-127528200D02*
X102103638Y-127337723D01*
X102103638Y-127337723D02*
X102008400Y-127147247D01*
X102008400Y-127147247D02*
X101913162Y-126766295D01*
X101913162Y-126766295D02*
X101913162Y-126480580D01*
X101913162Y-126480580D02*
X102008400Y-126099628D01*
X102008400Y-126099628D02*
X102103638Y-125909152D01*
X102103638Y-125909152D02*
X102294114Y-125718676D01*
X102294114Y-125718676D02*
X102579829Y-125623438D01*
X102579829Y-125623438D02*
X102770305Y-125623438D01*
X102770305Y-125623438D02*
X103056019Y-125718676D01*
X103056019Y-125718676D02*
X103151257Y-125813914D01*
X104008400Y-127623438D02*
X104008400Y-125623438D01*
X104008400Y-126575819D02*
X105151257Y-126575819D01*
X105151257Y-127623438D02*
X105151257Y-125623438D01*
X106008400Y-127052009D02*
X106960781Y-127052009D01*
X105817924Y-127623438D02*
X106484590Y-125623438D01*
X106484590Y-125623438D02*
X107151257Y-127623438D01*
X108960781Y-127623438D02*
X108294114Y-126671057D01*
X107817924Y-127623438D02*
X107817924Y-125623438D01*
X107817924Y-125623438D02*
X108579829Y-125623438D01*
X108579829Y-125623438D02*
X108770305Y-125718676D01*
X108770305Y-125718676D02*
X108865543Y-125813914D01*
X108865543Y-125813914D02*
X108960781Y-126004390D01*
X108960781Y-126004390D02*
X108960781Y-126290104D01*
X108960781Y-126290104D02*
X108865543Y-126480580D01*
X108865543Y-126480580D02*
X108770305Y-126575819D01*
X108770305Y-126575819D02*
X108579829Y-126671057D01*
X108579829Y-126671057D02*
X107817924Y-126671057D01*
X109722686Y-127052009D02*
X110675067Y-127052009D01*
X109532210Y-127623438D02*
X110198876Y-125623438D01*
X110198876Y-125623438D02*
X110865543Y-127623438D01*
X112675067Y-127432961D02*
X112579829Y-127528200D01*
X112579829Y-127528200D02*
X112294115Y-127623438D01*
X112294115Y-127623438D02*
X112103639Y-127623438D01*
X112103639Y-127623438D02*
X111817924Y-127528200D01*
X111817924Y-127528200D02*
X111627448Y-127337723D01*
X111627448Y-127337723D02*
X111532210Y-127147247D01*
X111532210Y-127147247D02*
X111436972Y-126766295D01*
X111436972Y-126766295D02*
X111436972Y-126480580D01*
X111436972Y-126480580D02*
X111532210Y-126099628D01*
X111532210Y-126099628D02*
X111627448Y-125909152D01*
X111627448Y-125909152D02*
X111817924Y-125718676D01*
X111817924Y-125718676D02*
X112103639Y-125623438D01*
X112103639Y-125623438D02*
X112294115Y-125623438D01*
X112294115Y-125623438D02*
X112579829Y-125718676D01*
X112579829Y-125718676D02*
X112675067Y-125813914D01*
X113246496Y-125623438D02*
X114389353Y-125623438D01*
X113817924Y-127623438D02*
X113817924Y-125623438D01*
X115056020Y-126575819D02*
X115722687Y-126575819D01*
X116008401Y-127623438D02*
X115056020Y-127623438D01*
X115056020Y-127623438D02*
X115056020Y-125623438D01*
X115056020Y-125623438D02*
X116008401Y-125623438D01*
X118008401Y-127623438D02*
X117341734Y-126671057D01*
X116865544Y-127623438D02*
X116865544Y-125623438D01*
X116865544Y-125623438D02*
X117627449Y-125623438D01*
X117627449Y-125623438D02*
X117817925Y-125718676D01*
X117817925Y-125718676D02*
X117913163Y-125813914D01*
X117913163Y-125813914D02*
X118008401Y-126004390D01*
X118008401Y-126004390D02*
X118008401Y-126290104D01*
X118008401Y-126290104D02*
X117913163Y-126480580D01*
X117913163Y-126480580D02*
X117817925Y-126575819D01*
X117817925Y-126575819D02*
X117627449Y-126671057D01*
X117627449Y-126671057D02*
X116865544Y-126671057D01*
X118865544Y-127623438D02*
X118865544Y-125623438D01*
X119722687Y-127528200D02*
X120008401Y-127623438D01*
X120008401Y-127623438D02*
X120484592Y-127623438D01*
X120484592Y-127623438D02*
X120675068Y-127528200D01*
X120675068Y-127528200D02*
X120770306Y-127432961D01*
X120770306Y-127432961D02*
X120865544Y-127242485D01*
X120865544Y-127242485D02*
X120865544Y-127052009D01*
X120865544Y-127052009D02*
X120770306Y-126861533D01*
X120770306Y-126861533D02*
X120675068Y-126766295D01*
X120675068Y-126766295D02*
X120484592Y-126671057D01*
X120484592Y-126671057D02*
X120103639Y-126575819D01*
X120103639Y-126575819D02*
X119913163Y-126480580D01*
X119913163Y-126480580D02*
X119817925Y-126385342D01*
X119817925Y-126385342D02*
X119722687Y-126194866D01*
X119722687Y-126194866D02*
X119722687Y-126004390D01*
X119722687Y-126004390D02*
X119817925Y-125813914D01*
X119817925Y-125813914D02*
X119913163Y-125718676D01*
X119913163Y-125718676D02*
X120103639Y-125623438D01*
X120103639Y-125623438D02*
X120579830Y-125623438D01*
X120579830Y-125623438D02*
X120865544Y-125718676D01*
X121436973Y-125623438D02*
X122579830Y-125623438D01*
X122008401Y-127623438D02*
X122008401Y-125623438D01*
X123246497Y-127623438D02*
X123246497Y-125623438D01*
X125341735Y-127432961D02*
X125246497Y-127528200D01*
X125246497Y-127528200D02*
X124960783Y-127623438D01*
X124960783Y-127623438D02*
X124770307Y-127623438D01*
X124770307Y-127623438D02*
X124484592Y-127528200D01*
X124484592Y-127528200D02*
X124294116Y-127337723D01*
X124294116Y-127337723D02*
X124198878Y-127147247D01*
X124198878Y-127147247D02*
X124103640Y-126766295D01*
X124103640Y-126766295D02*
X124103640Y-126480580D01*
X124103640Y-126480580D02*
X124198878Y-126099628D01*
X124198878Y-126099628D02*
X124294116Y-125909152D01*
X124294116Y-125909152D02*
X124484592Y-125718676D01*
X124484592Y-125718676D02*
X124770307Y-125623438D01*
X124770307Y-125623438D02*
X124960783Y-125623438D01*
X124960783Y-125623438D02*
X125246497Y-125718676D01*
X125246497Y-125718676D02*
X125341735Y-125813914D01*
X126103640Y-127528200D02*
X126389354Y-127623438D01*
X126389354Y-127623438D02*
X126865545Y-127623438D01*
X126865545Y-127623438D02*
X127056021Y-127528200D01*
X127056021Y-127528200D02*
X127151259Y-127432961D01*
X127151259Y-127432961D02*
X127246497Y-127242485D01*
X127246497Y-127242485D02*
X127246497Y-127052009D01*
X127246497Y-127052009D02*
X127151259Y-126861533D01*
X127151259Y-126861533D02*
X127056021Y-126766295D01*
X127056021Y-126766295D02*
X126865545Y-126671057D01*
X126865545Y-126671057D02*
X126484592Y-126575819D01*
X126484592Y-126575819D02*
X126294116Y-126480580D01*
X126294116Y-126480580D02*
X126198878Y-126385342D01*
X126198878Y-126385342D02*
X126103640Y-126194866D01*
X126103640Y-126194866D02*
X126103640Y-126004390D01*
X126103640Y-126004390D02*
X126198878Y-125813914D01*
X126198878Y-125813914D02*
X126294116Y-125718676D01*
X126294116Y-125718676D02*
X126484592Y-125623438D01*
X126484592Y-125623438D02*
X126960783Y-125623438D01*
X126960783Y-125623438D02*
X127246497Y-125718676D01*
D10*
X92031582Y-144332171D02*
X91960154Y-144403600D01*
X91960154Y-144403600D02*
X91745868Y-144475028D01*
X91745868Y-144475028D02*
X91603011Y-144475028D01*
X91603011Y-144475028D02*
X91388725Y-144403600D01*
X91388725Y-144403600D02*
X91245868Y-144260742D01*
X91245868Y-144260742D02*
X91174439Y-144117885D01*
X91174439Y-144117885D02*
X91103011Y-143832171D01*
X91103011Y-143832171D02*
X91103011Y-143617885D01*
X91103011Y-143617885D02*
X91174439Y-143332171D01*
X91174439Y-143332171D02*
X91245868Y-143189314D01*
X91245868Y-143189314D02*
X91388725Y-143046457D01*
X91388725Y-143046457D02*
X91603011Y-142975028D01*
X91603011Y-142975028D02*
X91745868Y-142975028D01*
X91745868Y-142975028D02*
X91960154Y-143046457D01*
X91960154Y-143046457D02*
X92031582Y-143117885D01*
X92888725Y-144475028D02*
X92745868Y-144403600D01*
X92745868Y-144403600D02*
X92674439Y-144332171D01*
X92674439Y-144332171D02*
X92603011Y-144189314D01*
X92603011Y-144189314D02*
X92603011Y-143760742D01*
X92603011Y-143760742D02*
X92674439Y-143617885D01*
X92674439Y-143617885D02*
X92745868Y-143546457D01*
X92745868Y-143546457D02*
X92888725Y-143475028D01*
X92888725Y-143475028D02*
X93103011Y-143475028D01*
X93103011Y-143475028D02*
X93245868Y-143546457D01*
X93245868Y-143546457D02*
X93317297Y-143617885D01*
X93317297Y-143617885D02*
X93388725Y-143760742D01*
X93388725Y-143760742D02*
X93388725Y-144189314D01*
X93388725Y-144189314D02*
X93317297Y-144332171D01*
X93317297Y-144332171D02*
X93245868Y-144403600D01*
X93245868Y-144403600D02*
X93103011Y-144475028D01*
X93103011Y-144475028D02*
X92888725Y-144475028D01*
X94031582Y-143475028D02*
X94031582Y-144975028D01*
X94031582Y-143546457D02*
X94174440Y-143475028D01*
X94174440Y-143475028D02*
X94460154Y-143475028D01*
X94460154Y-143475028D02*
X94603011Y-143546457D01*
X94603011Y-143546457D02*
X94674440Y-143617885D01*
X94674440Y-143617885D02*
X94745868Y-143760742D01*
X94745868Y-143760742D02*
X94745868Y-144189314D01*
X94745868Y-144189314D02*
X94674440Y-144332171D01*
X94674440Y-144332171D02*
X94603011Y-144403600D01*
X94603011Y-144403600D02*
X94460154Y-144475028D01*
X94460154Y-144475028D02*
X94174440Y-144475028D01*
X94174440Y-144475028D02*
X94031582Y-144403600D01*
X95388725Y-143475028D02*
X95388725Y-144975028D01*
X95388725Y-143546457D02*
X95531583Y-143475028D01*
X95531583Y-143475028D02*
X95817297Y-143475028D01*
X95817297Y-143475028D02*
X95960154Y-143546457D01*
X95960154Y-143546457D02*
X96031583Y-143617885D01*
X96031583Y-143617885D02*
X96103011Y-143760742D01*
X96103011Y-143760742D02*
X96103011Y-144189314D01*
X96103011Y-144189314D02*
X96031583Y-144332171D01*
X96031583Y-144332171D02*
X95960154Y-144403600D01*
X95960154Y-144403600D02*
X95817297Y-144475028D01*
X95817297Y-144475028D02*
X95531583Y-144475028D01*
X95531583Y-144475028D02*
X95388725Y-144403600D01*
X97317297Y-144403600D02*
X97174440Y-144475028D01*
X97174440Y-144475028D02*
X96888726Y-144475028D01*
X96888726Y-144475028D02*
X96745868Y-144403600D01*
X96745868Y-144403600D02*
X96674440Y-144260742D01*
X96674440Y-144260742D02*
X96674440Y-143689314D01*
X96674440Y-143689314D02*
X96745868Y-143546457D01*
X96745868Y-143546457D02*
X96888726Y-143475028D01*
X96888726Y-143475028D02*
X97174440Y-143475028D01*
X97174440Y-143475028D02*
X97317297Y-143546457D01*
X97317297Y-143546457D02*
X97388726Y-143689314D01*
X97388726Y-143689314D02*
X97388726Y-143832171D01*
X97388726Y-143832171D02*
X96674440Y-143975028D01*
X98031582Y-144475028D02*
X98031582Y-143475028D01*
X98031582Y-143760742D02*
X98103011Y-143617885D01*
X98103011Y-143617885D02*
X98174440Y-143546457D01*
X98174440Y-143546457D02*
X98317297Y-143475028D01*
X98317297Y-143475028D02*
X98460154Y-143475028D01*
X100603010Y-143689314D02*
X100103010Y-143689314D01*
X100103010Y-144475028D02*
X100103010Y-142975028D01*
X100103010Y-142975028D02*
X100817296Y-142975028D01*
X101388724Y-144475028D02*
X101388724Y-143475028D01*
X101388724Y-142975028D02*
X101317296Y-143046457D01*
X101317296Y-143046457D02*
X101388724Y-143117885D01*
X101388724Y-143117885D02*
X101460153Y-143046457D01*
X101460153Y-143046457D02*
X101388724Y-142975028D01*
X101388724Y-142975028D02*
X101388724Y-143117885D01*
X102103010Y-143475028D02*
X102103010Y-144475028D01*
X102103010Y-143617885D02*
X102174439Y-143546457D01*
X102174439Y-143546457D02*
X102317296Y-143475028D01*
X102317296Y-143475028D02*
X102531582Y-143475028D01*
X102531582Y-143475028D02*
X102674439Y-143546457D01*
X102674439Y-143546457D02*
X102745868Y-143689314D01*
X102745868Y-143689314D02*
X102745868Y-144475028D01*
X103460153Y-144475028D02*
X103460153Y-143475028D01*
X103460153Y-142975028D02*
X103388725Y-143046457D01*
X103388725Y-143046457D02*
X103460153Y-143117885D01*
X103460153Y-143117885D02*
X103531582Y-143046457D01*
X103531582Y-143046457D02*
X103460153Y-142975028D01*
X103460153Y-142975028D02*
X103460153Y-143117885D01*
X104103011Y-144403600D02*
X104245868Y-144475028D01*
X104245868Y-144475028D02*
X104531582Y-144475028D01*
X104531582Y-144475028D02*
X104674439Y-144403600D01*
X104674439Y-144403600D02*
X104745868Y-144260742D01*
X104745868Y-144260742D02*
X104745868Y-144189314D01*
X104745868Y-144189314D02*
X104674439Y-144046457D01*
X104674439Y-144046457D02*
X104531582Y-143975028D01*
X104531582Y-143975028D02*
X104317297Y-143975028D01*
X104317297Y-143975028D02*
X104174439Y-143903600D01*
X104174439Y-143903600D02*
X104103011Y-143760742D01*
X104103011Y-143760742D02*
X104103011Y-143689314D01*
X104103011Y-143689314D02*
X104174439Y-143546457D01*
X104174439Y-143546457D02*
X104317297Y-143475028D01*
X104317297Y-143475028D02*
X104531582Y-143475028D01*
X104531582Y-143475028D02*
X104674439Y-143546457D01*
X105388725Y-144475028D02*
X105388725Y-142975028D01*
X106031583Y-144475028D02*
X106031583Y-143689314D01*
X106031583Y-143689314D02*
X105960154Y-143546457D01*
X105960154Y-143546457D02*
X105817297Y-143475028D01*
X105817297Y-143475028D02*
X105603011Y-143475028D01*
X105603011Y-143475028D02*
X105460154Y-143546457D01*
X105460154Y-143546457D02*
X105388725Y-143617885D01*
X106745868Y-144332171D02*
X106817297Y-144403600D01*
X106817297Y-144403600D02*
X106745868Y-144475028D01*
X106745868Y-144475028D02*
X106674440Y-144403600D01*
X106674440Y-144403600D02*
X106745868Y-144332171D01*
X106745868Y-144332171D02*
X106745868Y-144475028D01*
X106745868Y-143546457D02*
X106817297Y-143617885D01*
X106817297Y-143617885D02*
X106745868Y-143689314D01*
X106745868Y-143689314D02*
X106674440Y-143617885D01*
X106674440Y-143617885D02*
X106745868Y-143546457D01*
X106745868Y-143546457D02*
X106745868Y-143689314D01*
X123831582Y-148432028D02*
X123831582Y-146932028D01*
X123831582Y-146932028D02*
X124688725Y-148432028D01*
X124688725Y-148432028D02*
X124688725Y-146932028D01*
X125617297Y-148432028D02*
X125474440Y-148360600D01*
X125474440Y-148360600D02*
X125403011Y-148289171D01*
X125403011Y-148289171D02*
X125331583Y-148146314D01*
X125331583Y-148146314D02*
X125331583Y-147717742D01*
X125331583Y-147717742D02*
X125403011Y-147574885D01*
X125403011Y-147574885D02*
X125474440Y-147503457D01*
X125474440Y-147503457D02*
X125617297Y-147432028D01*
X125617297Y-147432028D02*
X125831583Y-147432028D01*
X125831583Y-147432028D02*
X125974440Y-147503457D01*
X125974440Y-147503457D02*
X126045869Y-147574885D01*
X126045869Y-147574885D02*
X126117297Y-147717742D01*
X126117297Y-147717742D02*
X126117297Y-148146314D01*
X126117297Y-148146314D02*
X126045869Y-148289171D01*
X126045869Y-148289171D02*
X125974440Y-148360600D01*
X125974440Y-148360600D02*
X125831583Y-148432028D01*
X125831583Y-148432028D02*
X125617297Y-148432028D01*
X158488720Y-131818314D02*
X158703006Y-131889742D01*
X158703006Y-131889742D02*
X158774435Y-131961171D01*
X158774435Y-131961171D02*
X158845863Y-132104028D01*
X158845863Y-132104028D02*
X158845863Y-132318314D01*
X158845863Y-132318314D02*
X158774435Y-132461171D01*
X158774435Y-132461171D02*
X158703006Y-132532600D01*
X158703006Y-132532600D02*
X158560149Y-132604028D01*
X158560149Y-132604028D02*
X157988720Y-132604028D01*
X157988720Y-132604028D02*
X157988720Y-131104028D01*
X157988720Y-131104028D02*
X158488720Y-131104028D01*
X158488720Y-131104028D02*
X158631578Y-131175457D01*
X158631578Y-131175457D02*
X158703006Y-131246885D01*
X158703006Y-131246885D02*
X158774435Y-131389742D01*
X158774435Y-131389742D02*
X158774435Y-131532600D01*
X158774435Y-131532600D02*
X158703006Y-131675457D01*
X158703006Y-131675457D02*
X158631578Y-131746885D01*
X158631578Y-131746885D02*
X158488720Y-131818314D01*
X158488720Y-131818314D02*
X157988720Y-131818314D01*
X159703006Y-132604028D02*
X159560149Y-132532600D01*
X159560149Y-132532600D02*
X159488720Y-132461171D01*
X159488720Y-132461171D02*
X159417292Y-132318314D01*
X159417292Y-132318314D02*
X159417292Y-131889742D01*
X159417292Y-131889742D02*
X159488720Y-131746885D01*
X159488720Y-131746885D02*
X159560149Y-131675457D01*
X159560149Y-131675457D02*
X159703006Y-131604028D01*
X159703006Y-131604028D02*
X159917292Y-131604028D01*
X159917292Y-131604028D02*
X160060149Y-131675457D01*
X160060149Y-131675457D02*
X160131578Y-131746885D01*
X160131578Y-131746885D02*
X160203006Y-131889742D01*
X160203006Y-131889742D02*
X160203006Y-132318314D01*
X160203006Y-132318314D02*
X160131578Y-132461171D01*
X160131578Y-132461171D02*
X160060149Y-132532600D01*
X160060149Y-132532600D02*
X159917292Y-132604028D01*
X159917292Y-132604028D02*
X159703006Y-132604028D01*
X161488721Y-132604028D02*
X161488721Y-131818314D01*
X161488721Y-131818314D02*
X161417292Y-131675457D01*
X161417292Y-131675457D02*
X161274435Y-131604028D01*
X161274435Y-131604028D02*
X160988721Y-131604028D01*
X160988721Y-131604028D02*
X160845863Y-131675457D01*
X161488721Y-132532600D02*
X161345863Y-132604028D01*
X161345863Y-132604028D02*
X160988721Y-132604028D01*
X160988721Y-132604028D02*
X160845863Y-132532600D01*
X160845863Y-132532600D02*
X160774435Y-132389742D01*
X160774435Y-132389742D02*
X160774435Y-132246885D01*
X160774435Y-132246885D02*
X160845863Y-132104028D01*
X160845863Y-132104028D02*
X160988721Y-132032600D01*
X160988721Y-132032600D02*
X161345863Y-132032600D01*
X161345863Y-132032600D02*
X161488721Y-131961171D01*
X162203006Y-132604028D02*
X162203006Y-131604028D01*
X162203006Y-131889742D02*
X162274435Y-131746885D01*
X162274435Y-131746885D02*
X162345864Y-131675457D01*
X162345864Y-131675457D02*
X162488721Y-131604028D01*
X162488721Y-131604028D02*
X162631578Y-131604028D01*
X163774435Y-132604028D02*
X163774435Y-131104028D01*
X163774435Y-132532600D02*
X163631577Y-132604028D01*
X163631577Y-132604028D02*
X163345863Y-132604028D01*
X163345863Y-132604028D02*
X163203006Y-132532600D01*
X163203006Y-132532600D02*
X163131577Y-132461171D01*
X163131577Y-132461171D02*
X163060149Y-132318314D01*
X163060149Y-132318314D02*
X163060149Y-131889742D01*
X163060149Y-131889742D02*
X163131577Y-131746885D01*
X163131577Y-131746885D02*
X163203006Y-131675457D01*
X163203006Y-131675457D02*
X163345863Y-131604028D01*
X163345863Y-131604028D02*
X163631577Y-131604028D01*
X163631577Y-131604028D02*
X163774435Y-131675457D01*
X165417292Y-131104028D02*
X166274435Y-131104028D01*
X165845863Y-132604028D02*
X165845863Y-131104028D01*
X166774434Y-132604028D02*
X166774434Y-131104028D01*
X167417292Y-132604028D02*
X167417292Y-131818314D01*
X167417292Y-131818314D02*
X167345863Y-131675457D01*
X167345863Y-131675457D02*
X167203006Y-131604028D01*
X167203006Y-131604028D02*
X166988720Y-131604028D01*
X166988720Y-131604028D02*
X166845863Y-131675457D01*
X166845863Y-131675457D02*
X166774434Y-131746885D01*
X168131577Y-132604028D02*
X168131577Y-131604028D01*
X168131577Y-131104028D02*
X168060149Y-131175457D01*
X168060149Y-131175457D02*
X168131577Y-131246885D01*
X168131577Y-131246885D02*
X168203006Y-131175457D01*
X168203006Y-131175457D02*
X168131577Y-131104028D01*
X168131577Y-131104028D02*
X168131577Y-131246885D01*
X169488721Y-132532600D02*
X169345863Y-132604028D01*
X169345863Y-132604028D02*
X169060149Y-132604028D01*
X169060149Y-132604028D02*
X168917292Y-132532600D01*
X168917292Y-132532600D02*
X168845863Y-132461171D01*
X168845863Y-132461171D02*
X168774435Y-132318314D01*
X168774435Y-132318314D02*
X168774435Y-131889742D01*
X168774435Y-131889742D02*
X168845863Y-131746885D01*
X168845863Y-131746885D02*
X168917292Y-131675457D01*
X168917292Y-131675457D02*
X169060149Y-131604028D01*
X169060149Y-131604028D02*
X169345863Y-131604028D01*
X169345863Y-131604028D02*
X169488721Y-131675457D01*
X170131577Y-132604028D02*
X170131577Y-131104028D01*
X170274435Y-132032600D02*
X170703006Y-132604028D01*
X170703006Y-131604028D02*
X170131577Y-132175457D01*
X171345863Y-131604028D02*
X171345863Y-132604028D01*
X171345863Y-131746885D02*
X171417292Y-131675457D01*
X171417292Y-131675457D02*
X171560149Y-131604028D01*
X171560149Y-131604028D02*
X171774435Y-131604028D01*
X171774435Y-131604028D02*
X171917292Y-131675457D01*
X171917292Y-131675457D02*
X171988721Y-131818314D01*
X171988721Y-131818314D02*
X171988721Y-132604028D01*
X173274435Y-132532600D02*
X173131578Y-132604028D01*
X173131578Y-132604028D02*
X172845864Y-132604028D01*
X172845864Y-132604028D02*
X172703006Y-132532600D01*
X172703006Y-132532600D02*
X172631578Y-132389742D01*
X172631578Y-132389742D02*
X172631578Y-131818314D01*
X172631578Y-131818314D02*
X172703006Y-131675457D01*
X172703006Y-131675457D02*
X172845864Y-131604028D01*
X172845864Y-131604028D02*
X173131578Y-131604028D01*
X173131578Y-131604028D02*
X173274435Y-131675457D01*
X173274435Y-131675457D02*
X173345864Y-131818314D01*
X173345864Y-131818314D02*
X173345864Y-131961171D01*
X173345864Y-131961171D02*
X172631578Y-132104028D01*
X173917292Y-132532600D02*
X174060149Y-132604028D01*
X174060149Y-132604028D02*
X174345863Y-132604028D01*
X174345863Y-132604028D02*
X174488720Y-132532600D01*
X174488720Y-132532600D02*
X174560149Y-132389742D01*
X174560149Y-132389742D02*
X174560149Y-132318314D01*
X174560149Y-132318314D02*
X174488720Y-132175457D01*
X174488720Y-132175457D02*
X174345863Y-132104028D01*
X174345863Y-132104028D02*
X174131578Y-132104028D01*
X174131578Y-132104028D02*
X173988720Y-132032600D01*
X173988720Y-132032600D02*
X173917292Y-131889742D01*
X173917292Y-131889742D02*
X173917292Y-131818314D01*
X173917292Y-131818314D02*
X173988720Y-131675457D01*
X173988720Y-131675457D02*
X174131578Y-131604028D01*
X174131578Y-131604028D02*
X174345863Y-131604028D01*
X174345863Y-131604028D02*
X174488720Y-131675457D01*
X175131578Y-132532600D02*
X175274435Y-132604028D01*
X175274435Y-132604028D02*
X175560149Y-132604028D01*
X175560149Y-132604028D02*
X175703006Y-132532600D01*
X175703006Y-132532600D02*
X175774435Y-132389742D01*
X175774435Y-132389742D02*
X175774435Y-132318314D01*
X175774435Y-132318314D02*
X175703006Y-132175457D01*
X175703006Y-132175457D02*
X175560149Y-132104028D01*
X175560149Y-132104028D02*
X175345864Y-132104028D01*
X175345864Y-132104028D02*
X175203006Y-132032600D01*
X175203006Y-132032600D02*
X175131578Y-131889742D01*
X175131578Y-131889742D02*
X175131578Y-131818314D01*
X175131578Y-131818314D02*
X175203006Y-131675457D01*
X175203006Y-131675457D02*
X175345864Y-131604028D01*
X175345864Y-131604028D02*
X175560149Y-131604028D01*
X175560149Y-131604028D02*
X175703006Y-131675457D01*
X176417292Y-132461171D02*
X176488721Y-132532600D01*
X176488721Y-132532600D02*
X176417292Y-132604028D01*
X176417292Y-132604028D02*
X176345864Y-132532600D01*
X176345864Y-132532600D02*
X176417292Y-132461171D01*
X176417292Y-132461171D02*
X176417292Y-132604028D01*
X176417292Y-131675457D02*
X176488721Y-131746885D01*
X176488721Y-131746885D02*
X176417292Y-131818314D01*
X176417292Y-131818314D02*
X176345864Y-131746885D01*
X176345864Y-131746885D02*
X176417292Y-131675457D01*
X176417292Y-131675457D02*
X176417292Y-131818314D01*
X91174439Y-151603314D02*
X91674439Y-151603314D01*
X91888725Y-152389028D02*
X91174439Y-152389028D01*
X91174439Y-152389028D02*
X91174439Y-150889028D01*
X91174439Y-150889028D02*
X91888725Y-150889028D01*
X93174440Y-152389028D02*
X93174440Y-150889028D01*
X93174440Y-152317600D02*
X93031582Y-152389028D01*
X93031582Y-152389028D02*
X92745868Y-152389028D01*
X92745868Y-152389028D02*
X92603011Y-152317600D01*
X92603011Y-152317600D02*
X92531582Y-152246171D01*
X92531582Y-152246171D02*
X92460154Y-152103314D01*
X92460154Y-152103314D02*
X92460154Y-151674742D01*
X92460154Y-151674742D02*
X92531582Y-151531885D01*
X92531582Y-151531885D02*
X92603011Y-151460457D01*
X92603011Y-151460457D02*
X92745868Y-151389028D01*
X92745868Y-151389028D02*
X93031582Y-151389028D01*
X93031582Y-151389028D02*
X93174440Y-151460457D01*
X94531583Y-151389028D02*
X94531583Y-152603314D01*
X94531583Y-152603314D02*
X94460154Y-152746171D01*
X94460154Y-152746171D02*
X94388725Y-152817600D01*
X94388725Y-152817600D02*
X94245868Y-152889028D01*
X94245868Y-152889028D02*
X94031583Y-152889028D01*
X94031583Y-152889028D02*
X93888725Y-152817600D01*
X94531583Y-152317600D02*
X94388725Y-152389028D01*
X94388725Y-152389028D02*
X94103011Y-152389028D01*
X94103011Y-152389028D02*
X93960154Y-152317600D01*
X93960154Y-152317600D02*
X93888725Y-152246171D01*
X93888725Y-152246171D02*
X93817297Y-152103314D01*
X93817297Y-152103314D02*
X93817297Y-151674742D01*
X93817297Y-151674742D02*
X93888725Y-151531885D01*
X93888725Y-151531885D02*
X93960154Y-151460457D01*
X93960154Y-151460457D02*
X94103011Y-151389028D01*
X94103011Y-151389028D02*
X94388725Y-151389028D01*
X94388725Y-151389028D02*
X94531583Y-151460457D01*
X95817297Y-152317600D02*
X95674440Y-152389028D01*
X95674440Y-152389028D02*
X95388726Y-152389028D01*
X95388726Y-152389028D02*
X95245868Y-152317600D01*
X95245868Y-152317600D02*
X95174440Y-152174742D01*
X95174440Y-152174742D02*
X95174440Y-151603314D01*
X95174440Y-151603314D02*
X95245868Y-151460457D01*
X95245868Y-151460457D02*
X95388726Y-151389028D01*
X95388726Y-151389028D02*
X95674440Y-151389028D01*
X95674440Y-151389028D02*
X95817297Y-151460457D01*
X95817297Y-151460457D02*
X95888726Y-151603314D01*
X95888726Y-151603314D02*
X95888726Y-151746171D01*
X95888726Y-151746171D02*
X95174440Y-151889028D01*
X98317297Y-152317600D02*
X98174439Y-152389028D01*
X98174439Y-152389028D02*
X97888725Y-152389028D01*
X97888725Y-152389028D02*
X97745868Y-152317600D01*
X97745868Y-152317600D02*
X97674439Y-152246171D01*
X97674439Y-152246171D02*
X97603011Y-152103314D01*
X97603011Y-152103314D02*
X97603011Y-151674742D01*
X97603011Y-151674742D02*
X97674439Y-151531885D01*
X97674439Y-151531885D02*
X97745868Y-151460457D01*
X97745868Y-151460457D02*
X97888725Y-151389028D01*
X97888725Y-151389028D02*
X98174439Y-151389028D01*
X98174439Y-151389028D02*
X98317297Y-151460457D01*
X99603011Y-152389028D02*
X99603011Y-151603314D01*
X99603011Y-151603314D02*
X99531582Y-151460457D01*
X99531582Y-151460457D02*
X99388725Y-151389028D01*
X99388725Y-151389028D02*
X99103011Y-151389028D01*
X99103011Y-151389028D02*
X98960153Y-151460457D01*
X99603011Y-152317600D02*
X99460153Y-152389028D01*
X99460153Y-152389028D02*
X99103011Y-152389028D01*
X99103011Y-152389028D02*
X98960153Y-152317600D01*
X98960153Y-152317600D02*
X98888725Y-152174742D01*
X98888725Y-152174742D02*
X98888725Y-152031885D01*
X98888725Y-152031885D02*
X98960153Y-151889028D01*
X98960153Y-151889028D02*
X99103011Y-151817600D01*
X99103011Y-151817600D02*
X99460153Y-151817600D01*
X99460153Y-151817600D02*
X99603011Y-151746171D01*
X100317296Y-152389028D02*
X100317296Y-151389028D01*
X100317296Y-151674742D02*
X100388725Y-151531885D01*
X100388725Y-151531885D02*
X100460154Y-151460457D01*
X100460154Y-151460457D02*
X100603011Y-151389028D01*
X100603011Y-151389028D02*
X100745868Y-151389028D01*
X101888725Y-152389028D02*
X101888725Y-150889028D01*
X101888725Y-152317600D02*
X101745867Y-152389028D01*
X101745867Y-152389028D02*
X101460153Y-152389028D01*
X101460153Y-152389028D02*
X101317296Y-152317600D01*
X101317296Y-152317600D02*
X101245867Y-152246171D01*
X101245867Y-152246171D02*
X101174439Y-152103314D01*
X101174439Y-152103314D02*
X101174439Y-151674742D01*
X101174439Y-151674742D02*
X101245867Y-151531885D01*
X101245867Y-151531885D02*
X101317296Y-151460457D01*
X101317296Y-151460457D02*
X101460153Y-151389028D01*
X101460153Y-151389028D02*
X101745867Y-151389028D01*
X101745867Y-151389028D02*
X101888725Y-151460457D01*
X104388725Y-152317600D02*
X104245867Y-152389028D01*
X104245867Y-152389028D02*
X103960153Y-152389028D01*
X103960153Y-152389028D02*
X103817296Y-152317600D01*
X103817296Y-152317600D02*
X103745867Y-152246171D01*
X103745867Y-152246171D02*
X103674439Y-152103314D01*
X103674439Y-152103314D02*
X103674439Y-151674742D01*
X103674439Y-151674742D02*
X103745867Y-151531885D01*
X103745867Y-151531885D02*
X103817296Y-151460457D01*
X103817296Y-151460457D02*
X103960153Y-151389028D01*
X103960153Y-151389028D02*
X104245867Y-151389028D01*
X104245867Y-151389028D02*
X104388725Y-151460457D01*
X105245867Y-152389028D02*
X105103010Y-152317600D01*
X105103010Y-152317600D02*
X105031581Y-152246171D01*
X105031581Y-152246171D02*
X104960153Y-152103314D01*
X104960153Y-152103314D02*
X104960153Y-151674742D01*
X104960153Y-151674742D02*
X105031581Y-151531885D01*
X105031581Y-151531885D02*
X105103010Y-151460457D01*
X105103010Y-151460457D02*
X105245867Y-151389028D01*
X105245867Y-151389028D02*
X105460153Y-151389028D01*
X105460153Y-151389028D02*
X105603010Y-151460457D01*
X105603010Y-151460457D02*
X105674439Y-151531885D01*
X105674439Y-151531885D02*
X105745867Y-151674742D01*
X105745867Y-151674742D02*
X105745867Y-152103314D01*
X105745867Y-152103314D02*
X105674439Y-152246171D01*
X105674439Y-152246171D02*
X105603010Y-152317600D01*
X105603010Y-152317600D02*
X105460153Y-152389028D01*
X105460153Y-152389028D02*
X105245867Y-152389028D01*
X106388724Y-151389028D02*
X106388724Y-152389028D01*
X106388724Y-151531885D02*
X106460153Y-151460457D01*
X106460153Y-151460457D02*
X106603010Y-151389028D01*
X106603010Y-151389028D02*
X106817296Y-151389028D01*
X106817296Y-151389028D02*
X106960153Y-151460457D01*
X106960153Y-151460457D02*
X107031582Y-151603314D01*
X107031582Y-151603314D02*
X107031582Y-152389028D01*
X107745867Y-151389028D02*
X107745867Y-152389028D01*
X107745867Y-151531885D02*
X107817296Y-151460457D01*
X107817296Y-151460457D02*
X107960153Y-151389028D01*
X107960153Y-151389028D02*
X108174439Y-151389028D01*
X108174439Y-151389028D02*
X108317296Y-151460457D01*
X108317296Y-151460457D02*
X108388725Y-151603314D01*
X108388725Y-151603314D02*
X108388725Y-152389028D01*
X109674439Y-152317600D02*
X109531582Y-152389028D01*
X109531582Y-152389028D02*
X109245868Y-152389028D01*
X109245868Y-152389028D02*
X109103010Y-152317600D01*
X109103010Y-152317600D02*
X109031582Y-152174742D01*
X109031582Y-152174742D02*
X109031582Y-151603314D01*
X109031582Y-151603314D02*
X109103010Y-151460457D01*
X109103010Y-151460457D02*
X109245868Y-151389028D01*
X109245868Y-151389028D02*
X109531582Y-151389028D01*
X109531582Y-151389028D02*
X109674439Y-151460457D01*
X109674439Y-151460457D02*
X109745868Y-151603314D01*
X109745868Y-151603314D02*
X109745868Y-151746171D01*
X109745868Y-151746171D02*
X109031582Y-151889028D01*
X111031582Y-152317600D02*
X110888724Y-152389028D01*
X110888724Y-152389028D02*
X110603010Y-152389028D01*
X110603010Y-152389028D02*
X110460153Y-152317600D01*
X110460153Y-152317600D02*
X110388724Y-152246171D01*
X110388724Y-152246171D02*
X110317296Y-152103314D01*
X110317296Y-152103314D02*
X110317296Y-151674742D01*
X110317296Y-151674742D02*
X110388724Y-151531885D01*
X110388724Y-151531885D02*
X110460153Y-151460457D01*
X110460153Y-151460457D02*
X110603010Y-151389028D01*
X110603010Y-151389028D02*
X110888724Y-151389028D01*
X110888724Y-151389028D02*
X111031582Y-151460457D01*
X111460153Y-151389028D02*
X112031581Y-151389028D01*
X111674438Y-150889028D02*
X111674438Y-152174742D01*
X111674438Y-152174742D02*
X111745867Y-152317600D01*
X111745867Y-152317600D02*
X111888724Y-152389028D01*
X111888724Y-152389028D02*
X112031581Y-152389028D01*
X112745867Y-152389028D02*
X112603010Y-152317600D01*
X112603010Y-152317600D02*
X112531581Y-152246171D01*
X112531581Y-152246171D02*
X112460153Y-152103314D01*
X112460153Y-152103314D02*
X112460153Y-151674742D01*
X112460153Y-151674742D02*
X112531581Y-151531885D01*
X112531581Y-151531885D02*
X112603010Y-151460457D01*
X112603010Y-151460457D02*
X112745867Y-151389028D01*
X112745867Y-151389028D02*
X112960153Y-151389028D01*
X112960153Y-151389028D02*
X113103010Y-151460457D01*
X113103010Y-151460457D02*
X113174439Y-151531885D01*
X113174439Y-151531885D02*
X113245867Y-151674742D01*
X113245867Y-151674742D02*
X113245867Y-152103314D01*
X113245867Y-152103314D02*
X113174439Y-152246171D01*
X113174439Y-152246171D02*
X113103010Y-152317600D01*
X113103010Y-152317600D02*
X112960153Y-152389028D01*
X112960153Y-152389028D02*
X112745867Y-152389028D01*
X113888724Y-152389028D02*
X113888724Y-151389028D01*
X113888724Y-151674742D02*
X113960153Y-151531885D01*
X113960153Y-151531885D02*
X114031582Y-151460457D01*
X114031582Y-151460457D02*
X114174439Y-151389028D01*
X114174439Y-151389028D02*
X114317296Y-151389028D01*
X114745867Y-152317600D02*
X114888724Y-152389028D01*
X114888724Y-152389028D02*
X115174438Y-152389028D01*
X115174438Y-152389028D02*
X115317295Y-152317600D01*
X115317295Y-152317600D02*
X115388724Y-152174742D01*
X115388724Y-152174742D02*
X115388724Y-152103314D01*
X115388724Y-152103314D02*
X115317295Y-151960457D01*
X115317295Y-151960457D02*
X115174438Y-151889028D01*
X115174438Y-151889028D02*
X114960153Y-151889028D01*
X114960153Y-151889028D02*
X114817295Y-151817600D01*
X114817295Y-151817600D02*
X114745867Y-151674742D01*
X114745867Y-151674742D02*
X114745867Y-151603314D01*
X114745867Y-151603314D02*
X114817295Y-151460457D01*
X114817295Y-151460457D02*
X114960153Y-151389028D01*
X114960153Y-151389028D02*
X115174438Y-151389028D01*
X115174438Y-151389028D02*
X115317295Y-151460457D01*
X116031581Y-152246171D02*
X116103010Y-152317600D01*
X116103010Y-152317600D02*
X116031581Y-152389028D01*
X116031581Y-152389028D02*
X115960153Y-152317600D01*
X115960153Y-152317600D02*
X116031581Y-152246171D01*
X116031581Y-152246171D02*
X116031581Y-152389028D01*
X116031581Y-151460457D02*
X116103010Y-151531885D01*
X116103010Y-151531885D02*
X116031581Y-151603314D01*
X116031581Y-151603314D02*
X115960153Y-151531885D01*
X115960153Y-151531885D02*
X116031581Y-151460457D01*
X116031581Y-151460457D02*
X116031581Y-151603314D01*
X92031582Y-132461171D02*
X91960154Y-132532600D01*
X91960154Y-132532600D02*
X91745868Y-132604028D01*
X91745868Y-132604028D02*
X91603011Y-132604028D01*
X91603011Y-132604028D02*
X91388725Y-132532600D01*
X91388725Y-132532600D02*
X91245868Y-132389742D01*
X91245868Y-132389742D02*
X91174439Y-132246885D01*
X91174439Y-132246885D02*
X91103011Y-131961171D01*
X91103011Y-131961171D02*
X91103011Y-131746885D01*
X91103011Y-131746885D02*
X91174439Y-131461171D01*
X91174439Y-131461171D02*
X91245868Y-131318314D01*
X91245868Y-131318314D02*
X91388725Y-131175457D01*
X91388725Y-131175457D02*
X91603011Y-131104028D01*
X91603011Y-131104028D02*
X91745868Y-131104028D01*
X91745868Y-131104028D02*
X91960154Y-131175457D01*
X91960154Y-131175457D02*
X92031582Y-131246885D01*
X92888725Y-132604028D02*
X92745868Y-132532600D01*
X92745868Y-132532600D02*
X92674439Y-132461171D01*
X92674439Y-132461171D02*
X92603011Y-132318314D01*
X92603011Y-132318314D02*
X92603011Y-131889742D01*
X92603011Y-131889742D02*
X92674439Y-131746885D01*
X92674439Y-131746885D02*
X92745868Y-131675457D01*
X92745868Y-131675457D02*
X92888725Y-131604028D01*
X92888725Y-131604028D02*
X93103011Y-131604028D01*
X93103011Y-131604028D02*
X93245868Y-131675457D01*
X93245868Y-131675457D02*
X93317297Y-131746885D01*
X93317297Y-131746885D02*
X93388725Y-131889742D01*
X93388725Y-131889742D02*
X93388725Y-132318314D01*
X93388725Y-132318314D02*
X93317297Y-132461171D01*
X93317297Y-132461171D02*
X93245868Y-132532600D01*
X93245868Y-132532600D02*
X93103011Y-132604028D01*
X93103011Y-132604028D02*
X92888725Y-132604028D01*
X94031582Y-131604028D02*
X94031582Y-133104028D01*
X94031582Y-131675457D02*
X94174440Y-131604028D01*
X94174440Y-131604028D02*
X94460154Y-131604028D01*
X94460154Y-131604028D02*
X94603011Y-131675457D01*
X94603011Y-131675457D02*
X94674440Y-131746885D01*
X94674440Y-131746885D02*
X94745868Y-131889742D01*
X94745868Y-131889742D02*
X94745868Y-132318314D01*
X94745868Y-132318314D02*
X94674440Y-132461171D01*
X94674440Y-132461171D02*
X94603011Y-132532600D01*
X94603011Y-132532600D02*
X94460154Y-132604028D01*
X94460154Y-132604028D02*
X94174440Y-132604028D01*
X94174440Y-132604028D02*
X94031582Y-132532600D01*
X95388725Y-131604028D02*
X95388725Y-133104028D01*
X95388725Y-131675457D02*
X95531583Y-131604028D01*
X95531583Y-131604028D02*
X95817297Y-131604028D01*
X95817297Y-131604028D02*
X95960154Y-131675457D01*
X95960154Y-131675457D02*
X96031583Y-131746885D01*
X96031583Y-131746885D02*
X96103011Y-131889742D01*
X96103011Y-131889742D02*
X96103011Y-132318314D01*
X96103011Y-132318314D02*
X96031583Y-132461171D01*
X96031583Y-132461171D02*
X95960154Y-132532600D01*
X95960154Y-132532600D02*
X95817297Y-132604028D01*
X95817297Y-132604028D02*
X95531583Y-132604028D01*
X95531583Y-132604028D02*
X95388725Y-132532600D01*
X97317297Y-132532600D02*
X97174440Y-132604028D01*
X97174440Y-132604028D02*
X96888726Y-132604028D01*
X96888726Y-132604028D02*
X96745868Y-132532600D01*
X96745868Y-132532600D02*
X96674440Y-132389742D01*
X96674440Y-132389742D02*
X96674440Y-131818314D01*
X96674440Y-131818314D02*
X96745868Y-131675457D01*
X96745868Y-131675457D02*
X96888726Y-131604028D01*
X96888726Y-131604028D02*
X97174440Y-131604028D01*
X97174440Y-131604028D02*
X97317297Y-131675457D01*
X97317297Y-131675457D02*
X97388726Y-131818314D01*
X97388726Y-131818314D02*
X97388726Y-131961171D01*
X97388726Y-131961171D02*
X96674440Y-132104028D01*
X98031582Y-132604028D02*
X98031582Y-131604028D01*
X98031582Y-131889742D02*
X98103011Y-131746885D01*
X98103011Y-131746885D02*
X98174440Y-131675457D01*
X98174440Y-131675457D02*
X98317297Y-131604028D01*
X98317297Y-131604028D02*
X98460154Y-131604028D01*
X100817296Y-132604028D02*
X100103010Y-132604028D01*
X100103010Y-132604028D02*
X100103010Y-131104028D01*
X101960154Y-132604028D02*
X101960154Y-131818314D01*
X101960154Y-131818314D02*
X101888725Y-131675457D01*
X101888725Y-131675457D02*
X101745868Y-131604028D01*
X101745868Y-131604028D02*
X101460154Y-131604028D01*
X101460154Y-131604028D02*
X101317296Y-131675457D01*
X101960154Y-132532600D02*
X101817296Y-132604028D01*
X101817296Y-132604028D02*
X101460154Y-132604028D01*
X101460154Y-132604028D02*
X101317296Y-132532600D01*
X101317296Y-132532600D02*
X101245868Y-132389742D01*
X101245868Y-132389742D02*
X101245868Y-132246885D01*
X101245868Y-132246885D02*
X101317296Y-132104028D01*
X101317296Y-132104028D02*
X101460154Y-132032600D01*
X101460154Y-132032600D02*
X101817296Y-132032600D01*
X101817296Y-132032600D02*
X101960154Y-131961171D01*
X102531582Y-131604028D02*
X102888725Y-132604028D01*
X103245868Y-131604028D02*
X102888725Y-132604028D01*
X102888725Y-132604028D02*
X102745868Y-132961171D01*
X102745868Y-132961171D02*
X102674439Y-133032600D01*
X102674439Y-133032600D02*
X102531582Y-133104028D01*
X104388725Y-132532600D02*
X104245868Y-132604028D01*
X104245868Y-132604028D02*
X103960154Y-132604028D01*
X103960154Y-132604028D02*
X103817296Y-132532600D01*
X103817296Y-132532600D02*
X103745868Y-132389742D01*
X103745868Y-132389742D02*
X103745868Y-131818314D01*
X103745868Y-131818314D02*
X103817296Y-131675457D01*
X103817296Y-131675457D02*
X103960154Y-131604028D01*
X103960154Y-131604028D02*
X104245868Y-131604028D01*
X104245868Y-131604028D02*
X104388725Y-131675457D01*
X104388725Y-131675457D02*
X104460154Y-131818314D01*
X104460154Y-131818314D02*
X104460154Y-131961171D01*
X104460154Y-131961171D02*
X103745868Y-132104028D01*
X105103010Y-132604028D02*
X105103010Y-131604028D01*
X105103010Y-131889742D02*
X105174439Y-131746885D01*
X105174439Y-131746885D02*
X105245868Y-131675457D01*
X105245868Y-131675457D02*
X105388725Y-131604028D01*
X105388725Y-131604028D02*
X105531582Y-131604028D01*
X108031581Y-132461171D02*
X107960153Y-132532600D01*
X107960153Y-132532600D02*
X107745867Y-132604028D01*
X107745867Y-132604028D02*
X107603010Y-132604028D01*
X107603010Y-132604028D02*
X107388724Y-132532600D01*
X107388724Y-132532600D02*
X107245867Y-132389742D01*
X107245867Y-132389742D02*
X107174438Y-132246885D01*
X107174438Y-132246885D02*
X107103010Y-131961171D01*
X107103010Y-131961171D02*
X107103010Y-131746885D01*
X107103010Y-131746885D02*
X107174438Y-131461171D01*
X107174438Y-131461171D02*
X107245867Y-131318314D01*
X107245867Y-131318314D02*
X107388724Y-131175457D01*
X107388724Y-131175457D02*
X107603010Y-131104028D01*
X107603010Y-131104028D02*
X107745867Y-131104028D01*
X107745867Y-131104028D02*
X107960153Y-131175457D01*
X107960153Y-131175457D02*
X108031581Y-131246885D01*
X108888724Y-132604028D02*
X108745867Y-132532600D01*
X108745867Y-132532600D02*
X108674438Y-132461171D01*
X108674438Y-132461171D02*
X108603010Y-132318314D01*
X108603010Y-132318314D02*
X108603010Y-131889742D01*
X108603010Y-131889742D02*
X108674438Y-131746885D01*
X108674438Y-131746885D02*
X108745867Y-131675457D01*
X108745867Y-131675457D02*
X108888724Y-131604028D01*
X108888724Y-131604028D02*
X109103010Y-131604028D01*
X109103010Y-131604028D02*
X109245867Y-131675457D01*
X109245867Y-131675457D02*
X109317296Y-131746885D01*
X109317296Y-131746885D02*
X109388724Y-131889742D01*
X109388724Y-131889742D02*
X109388724Y-132318314D01*
X109388724Y-132318314D02*
X109317296Y-132461171D01*
X109317296Y-132461171D02*
X109245867Y-132532600D01*
X109245867Y-132532600D02*
X109103010Y-132604028D01*
X109103010Y-132604028D02*
X108888724Y-132604028D01*
X110674439Y-131604028D02*
X110674439Y-132604028D01*
X110031581Y-131604028D02*
X110031581Y-132389742D01*
X110031581Y-132389742D02*
X110103010Y-132532600D01*
X110103010Y-132532600D02*
X110245867Y-132604028D01*
X110245867Y-132604028D02*
X110460153Y-132604028D01*
X110460153Y-132604028D02*
X110603010Y-132532600D01*
X110603010Y-132532600D02*
X110674439Y-132461171D01*
X111388724Y-131604028D02*
X111388724Y-132604028D01*
X111388724Y-131746885D02*
X111460153Y-131675457D01*
X111460153Y-131675457D02*
X111603010Y-131604028D01*
X111603010Y-131604028D02*
X111817296Y-131604028D01*
X111817296Y-131604028D02*
X111960153Y-131675457D01*
X111960153Y-131675457D02*
X112031582Y-131818314D01*
X112031582Y-131818314D02*
X112031582Y-132604028D01*
X112531582Y-131604028D02*
X113103010Y-131604028D01*
X112745867Y-131104028D02*
X112745867Y-132389742D01*
X112745867Y-132389742D02*
X112817296Y-132532600D01*
X112817296Y-132532600D02*
X112960153Y-132604028D01*
X112960153Y-132604028D02*
X113103010Y-132604028D01*
X113603010Y-132461171D02*
X113674439Y-132532600D01*
X113674439Y-132532600D02*
X113603010Y-132604028D01*
X113603010Y-132604028D02*
X113531582Y-132532600D01*
X113531582Y-132532600D02*
X113603010Y-132461171D01*
X113603010Y-132461171D02*
X113603010Y-132604028D01*
X113603010Y-131675457D02*
X113674439Y-131746885D01*
X113674439Y-131746885D02*
X113603010Y-131818314D01*
X113603010Y-131818314D02*
X113531582Y-131746885D01*
X113531582Y-131746885D02*
X113603010Y-131675457D01*
X113603010Y-131675457D02*
X113603010Y-131818314D01*
X124117297Y-139018028D02*
X124260154Y-139018028D01*
X124260154Y-139018028D02*
X124403011Y-139089457D01*
X124403011Y-139089457D02*
X124474440Y-139160885D01*
X124474440Y-139160885D02*
X124545868Y-139303742D01*
X124545868Y-139303742D02*
X124617297Y-139589457D01*
X124617297Y-139589457D02*
X124617297Y-139946600D01*
X124617297Y-139946600D02*
X124545868Y-140232314D01*
X124545868Y-140232314D02*
X124474440Y-140375171D01*
X124474440Y-140375171D02*
X124403011Y-140446600D01*
X124403011Y-140446600D02*
X124260154Y-140518028D01*
X124260154Y-140518028D02*
X124117297Y-140518028D01*
X124117297Y-140518028D02*
X123974440Y-140446600D01*
X123974440Y-140446600D02*
X123903011Y-140375171D01*
X123903011Y-140375171D02*
X123831582Y-140232314D01*
X123831582Y-140232314D02*
X123760154Y-139946600D01*
X123760154Y-139946600D02*
X123760154Y-139589457D01*
X123760154Y-139589457D02*
X123831582Y-139303742D01*
X123831582Y-139303742D02*
X123903011Y-139160885D01*
X123903011Y-139160885D02*
X123974440Y-139089457D01*
X123974440Y-139089457D02*
X124117297Y-139018028D01*
X125260153Y-140375171D02*
X125331582Y-140446600D01*
X125331582Y-140446600D02*
X125260153Y-140518028D01*
X125260153Y-140518028D02*
X125188725Y-140446600D01*
X125188725Y-140446600D02*
X125260153Y-140375171D01*
X125260153Y-140375171D02*
X125260153Y-140518028D01*
X125903011Y-139160885D02*
X125974439Y-139089457D01*
X125974439Y-139089457D02*
X126117297Y-139018028D01*
X126117297Y-139018028D02*
X126474439Y-139018028D01*
X126474439Y-139018028D02*
X126617297Y-139089457D01*
X126617297Y-139089457D02*
X126688725Y-139160885D01*
X126688725Y-139160885D02*
X126760154Y-139303742D01*
X126760154Y-139303742D02*
X126760154Y-139446600D01*
X126760154Y-139446600D02*
X126688725Y-139660885D01*
X126688725Y-139660885D02*
X125831582Y-140518028D01*
X125831582Y-140518028D02*
X126760154Y-140518028D01*
X127688725Y-139018028D02*
X127831582Y-139018028D01*
X127831582Y-139018028D02*
X127974439Y-139089457D01*
X127974439Y-139089457D02*
X128045868Y-139160885D01*
X128045868Y-139160885D02*
X128117296Y-139303742D01*
X128117296Y-139303742D02*
X128188725Y-139589457D01*
X128188725Y-139589457D02*
X128188725Y-139946600D01*
X128188725Y-139946600D02*
X128117296Y-140232314D01*
X128117296Y-140232314D02*
X128045868Y-140375171D01*
X128045868Y-140375171D02*
X127974439Y-140446600D01*
X127974439Y-140446600D02*
X127831582Y-140518028D01*
X127831582Y-140518028D02*
X127688725Y-140518028D01*
X127688725Y-140518028D02*
X127545868Y-140446600D01*
X127545868Y-140446600D02*
X127474439Y-140375171D01*
X127474439Y-140375171D02*
X127403010Y-140232314D01*
X127403010Y-140232314D02*
X127331582Y-139946600D01*
X127331582Y-139946600D02*
X127331582Y-139589457D01*
X127331582Y-139589457D02*
X127403010Y-139303742D01*
X127403010Y-139303742D02*
X127474439Y-139160885D01*
X127474439Y-139160885D02*
X127545868Y-139089457D01*
X127545868Y-139089457D02*
X127688725Y-139018028D01*
X128688724Y-139018028D02*
X129617296Y-139018028D01*
X129617296Y-139018028D02*
X129117296Y-139589457D01*
X129117296Y-139589457D02*
X129331581Y-139589457D01*
X129331581Y-139589457D02*
X129474439Y-139660885D01*
X129474439Y-139660885D02*
X129545867Y-139732314D01*
X129545867Y-139732314D02*
X129617296Y-139875171D01*
X129617296Y-139875171D02*
X129617296Y-140232314D01*
X129617296Y-140232314D02*
X129545867Y-140375171D01*
X129545867Y-140375171D02*
X129474439Y-140446600D01*
X129474439Y-140446600D02*
X129331581Y-140518028D01*
X129331581Y-140518028D02*
X128903010Y-140518028D01*
X128903010Y-140518028D02*
X128760153Y-140446600D01*
X128760153Y-140446600D02*
X128688724Y-140375171D01*
X130188724Y-139160885D02*
X130260152Y-139089457D01*
X130260152Y-139089457D02*
X130403010Y-139018028D01*
X130403010Y-139018028D02*
X130760152Y-139018028D01*
X130760152Y-139018028D02*
X130903010Y-139089457D01*
X130903010Y-139089457D02*
X130974438Y-139160885D01*
X130974438Y-139160885D02*
X131045867Y-139303742D01*
X131045867Y-139303742D02*
X131045867Y-139446600D01*
X131045867Y-139446600D02*
X130974438Y-139660885D01*
X130974438Y-139660885D02*
X130117295Y-140518028D01*
X130117295Y-140518028D02*
X131045867Y-140518028D01*
X132831580Y-140518028D02*
X132831580Y-139518028D01*
X132831580Y-139660885D02*
X132903009Y-139589457D01*
X132903009Y-139589457D02*
X133045866Y-139518028D01*
X133045866Y-139518028D02*
X133260152Y-139518028D01*
X133260152Y-139518028D02*
X133403009Y-139589457D01*
X133403009Y-139589457D02*
X133474438Y-139732314D01*
X133474438Y-139732314D02*
X133474438Y-140518028D01*
X133474438Y-139732314D02*
X133545866Y-139589457D01*
X133545866Y-139589457D02*
X133688723Y-139518028D01*
X133688723Y-139518028D02*
X133903009Y-139518028D01*
X133903009Y-139518028D02*
X134045866Y-139589457D01*
X134045866Y-139589457D02*
X134117295Y-139732314D01*
X134117295Y-139732314D02*
X134117295Y-140518028D01*
X134831580Y-140518028D02*
X134831580Y-139518028D01*
X134831580Y-139660885D02*
X134903009Y-139589457D01*
X134903009Y-139589457D02*
X135045866Y-139518028D01*
X135045866Y-139518028D02*
X135260152Y-139518028D01*
X135260152Y-139518028D02*
X135403009Y-139589457D01*
X135403009Y-139589457D02*
X135474438Y-139732314D01*
X135474438Y-139732314D02*
X135474438Y-140518028D01*
X135474438Y-139732314D02*
X135545866Y-139589457D01*
X135545866Y-139589457D02*
X135688723Y-139518028D01*
X135688723Y-139518028D02*
X135903009Y-139518028D01*
X135903009Y-139518028D02*
X136045866Y-139589457D01*
X136045866Y-139589457D02*
X136117295Y-139732314D01*
X136117295Y-139732314D02*
X136117295Y-140518028D01*
X139045866Y-138946600D02*
X137760152Y-140875171D01*
X140974438Y-139018028D02*
X141117295Y-139018028D01*
X141117295Y-139018028D02*
X141260152Y-139089457D01*
X141260152Y-139089457D02*
X141331581Y-139160885D01*
X141331581Y-139160885D02*
X141403009Y-139303742D01*
X141403009Y-139303742D02*
X141474438Y-139589457D01*
X141474438Y-139589457D02*
X141474438Y-139946600D01*
X141474438Y-139946600D02*
X141403009Y-140232314D01*
X141403009Y-140232314D02*
X141331581Y-140375171D01*
X141331581Y-140375171D02*
X141260152Y-140446600D01*
X141260152Y-140446600D02*
X141117295Y-140518028D01*
X141117295Y-140518028D02*
X140974438Y-140518028D01*
X140974438Y-140518028D02*
X140831581Y-140446600D01*
X140831581Y-140446600D02*
X140760152Y-140375171D01*
X140760152Y-140375171D02*
X140688723Y-140232314D01*
X140688723Y-140232314D02*
X140617295Y-139946600D01*
X140617295Y-139946600D02*
X140617295Y-139589457D01*
X140617295Y-139589457D02*
X140688723Y-139303742D01*
X140688723Y-139303742D02*
X140760152Y-139160885D01*
X140760152Y-139160885D02*
X140831581Y-139089457D01*
X140831581Y-139089457D02*
X140974438Y-139018028D01*
X142117294Y-140375171D02*
X142188723Y-140446600D01*
X142188723Y-140446600D02*
X142117294Y-140518028D01*
X142117294Y-140518028D02*
X142045866Y-140446600D01*
X142045866Y-140446600D02*
X142117294Y-140375171D01*
X142117294Y-140375171D02*
X142117294Y-140518028D01*
X142760152Y-139160885D02*
X142831580Y-139089457D01*
X142831580Y-139089457D02*
X142974438Y-139018028D01*
X142974438Y-139018028D02*
X143331580Y-139018028D01*
X143331580Y-139018028D02*
X143474438Y-139089457D01*
X143474438Y-139089457D02*
X143545866Y-139160885D01*
X143545866Y-139160885D02*
X143617295Y-139303742D01*
X143617295Y-139303742D02*
X143617295Y-139446600D01*
X143617295Y-139446600D02*
X143545866Y-139660885D01*
X143545866Y-139660885D02*
X142688723Y-140518028D01*
X142688723Y-140518028D02*
X143617295Y-140518028D01*
X144545866Y-139018028D02*
X144688723Y-139018028D01*
X144688723Y-139018028D02*
X144831580Y-139089457D01*
X144831580Y-139089457D02*
X144903009Y-139160885D01*
X144903009Y-139160885D02*
X144974437Y-139303742D01*
X144974437Y-139303742D02*
X145045866Y-139589457D01*
X145045866Y-139589457D02*
X145045866Y-139946600D01*
X145045866Y-139946600D02*
X144974437Y-140232314D01*
X144974437Y-140232314D02*
X144903009Y-140375171D01*
X144903009Y-140375171D02*
X144831580Y-140446600D01*
X144831580Y-140446600D02*
X144688723Y-140518028D01*
X144688723Y-140518028D02*
X144545866Y-140518028D01*
X144545866Y-140518028D02*
X144403009Y-140446600D01*
X144403009Y-140446600D02*
X144331580Y-140375171D01*
X144331580Y-140375171D02*
X144260151Y-140232314D01*
X144260151Y-140232314D02*
X144188723Y-139946600D01*
X144188723Y-139946600D02*
X144188723Y-139589457D01*
X144188723Y-139589457D02*
X144260151Y-139303742D01*
X144260151Y-139303742D02*
X144331580Y-139160885D01*
X144331580Y-139160885D02*
X144403009Y-139089457D01*
X144403009Y-139089457D02*
X144545866Y-139018028D01*
X145545865Y-139018028D02*
X146474437Y-139018028D01*
X146474437Y-139018028D02*
X145974437Y-139589457D01*
X145974437Y-139589457D02*
X146188722Y-139589457D01*
X146188722Y-139589457D02*
X146331580Y-139660885D01*
X146331580Y-139660885D02*
X146403008Y-139732314D01*
X146403008Y-139732314D02*
X146474437Y-139875171D01*
X146474437Y-139875171D02*
X146474437Y-140232314D01*
X146474437Y-140232314D02*
X146403008Y-140375171D01*
X146403008Y-140375171D02*
X146331580Y-140446600D01*
X146331580Y-140446600D02*
X146188722Y-140518028D01*
X146188722Y-140518028D02*
X145760151Y-140518028D01*
X145760151Y-140518028D02*
X145617294Y-140446600D01*
X145617294Y-140446600D02*
X145545865Y-140375171D01*
X147045865Y-139160885D02*
X147117293Y-139089457D01*
X147117293Y-139089457D02*
X147260151Y-139018028D01*
X147260151Y-139018028D02*
X147617293Y-139018028D01*
X147617293Y-139018028D02*
X147760151Y-139089457D01*
X147760151Y-139089457D02*
X147831579Y-139160885D01*
X147831579Y-139160885D02*
X147903008Y-139303742D01*
X147903008Y-139303742D02*
X147903008Y-139446600D01*
X147903008Y-139446600D02*
X147831579Y-139660885D01*
X147831579Y-139660885D02*
X146974436Y-140518028D01*
X146974436Y-140518028D02*
X147903008Y-140518028D01*
X149688721Y-140518028D02*
X149688721Y-139518028D01*
X149688721Y-139660885D02*
X149760150Y-139589457D01*
X149760150Y-139589457D02*
X149903007Y-139518028D01*
X149903007Y-139518028D02*
X150117293Y-139518028D01*
X150117293Y-139518028D02*
X150260150Y-139589457D01*
X150260150Y-139589457D02*
X150331579Y-139732314D01*
X150331579Y-139732314D02*
X150331579Y-140518028D01*
X150331579Y-139732314D02*
X150403007Y-139589457D01*
X150403007Y-139589457D02*
X150545864Y-139518028D01*
X150545864Y-139518028D02*
X150760150Y-139518028D01*
X150760150Y-139518028D02*
X150903007Y-139589457D01*
X150903007Y-139589457D02*
X150974436Y-139732314D01*
X150974436Y-139732314D02*
X150974436Y-140518028D01*
X151688721Y-140518028D02*
X151688721Y-139518028D01*
X151688721Y-139660885D02*
X151760150Y-139589457D01*
X151760150Y-139589457D02*
X151903007Y-139518028D01*
X151903007Y-139518028D02*
X152117293Y-139518028D01*
X152117293Y-139518028D02*
X152260150Y-139589457D01*
X152260150Y-139589457D02*
X152331579Y-139732314D01*
X152331579Y-139732314D02*
X152331579Y-140518028D01*
X152331579Y-139732314D02*
X152403007Y-139589457D01*
X152403007Y-139589457D02*
X152545864Y-139518028D01*
X152545864Y-139518028D02*
X152760150Y-139518028D01*
X152760150Y-139518028D02*
X152903007Y-139589457D01*
X152903007Y-139589457D02*
X152974436Y-139732314D01*
X152974436Y-139732314D02*
X152974436Y-140518028D01*
X183217292Y-139018028D02*
X183360149Y-139018028D01*
X183360149Y-139018028D02*
X183503006Y-139089457D01*
X183503006Y-139089457D02*
X183574435Y-139160885D01*
X183574435Y-139160885D02*
X183645863Y-139303742D01*
X183645863Y-139303742D02*
X183717292Y-139589457D01*
X183717292Y-139589457D02*
X183717292Y-139946600D01*
X183717292Y-139946600D02*
X183645863Y-140232314D01*
X183645863Y-140232314D02*
X183574435Y-140375171D01*
X183574435Y-140375171D02*
X183503006Y-140446600D01*
X183503006Y-140446600D02*
X183360149Y-140518028D01*
X183360149Y-140518028D02*
X183217292Y-140518028D01*
X183217292Y-140518028D02*
X183074435Y-140446600D01*
X183074435Y-140446600D02*
X183003006Y-140375171D01*
X183003006Y-140375171D02*
X182931577Y-140232314D01*
X182931577Y-140232314D02*
X182860149Y-139946600D01*
X182860149Y-139946600D02*
X182860149Y-139589457D01*
X182860149Y-139589457D02*
X182931577Y-139303742D01*
X182931577Y-139303742D02*
X183003006Y-139160885D01*
X183003006Y-139160885D02*
X183074435Y-139089457D01*
X183074435Y-139089457D02*
X183217292Y-139018028D01*
X184360148Y-140375171D02*
X184431577Y-140446600D01*
X184431577Y-140446600D02*
X184360148Y-140518028D01*
X184360148Y-140518028D02*
X184288720Y-140446600D01*
X184288720Y-140446600D02*
X184360148Y-140375171D01*
X184360148Y-140375171D02*
X184360148Y-140518028D01*
X185717292Y-139518028D02*
X185717292Y-140518028D01*
X185360149Y-138946600D02*
X185003006Y-140018028D01*
X185003006Y-140018028D02*
X185931577Y-140018028D01*
X186788720Y-139018028D02*
X186931577Y-139018028D01*
X186931577Y-139018028D02*
X187074434Y-139089457D01*
X187074434Y-139089457D02*
X187145863Y-139160885D01*
X187145863Y-139160885D02*
X187217291Y-139303742D01*
X187217291Y-139303742D02*
X187288720Y-139589457D01*
X187288720Y-139589457D02*
X187288720Y-139946600D01*
X187288720Y-139946600D02*
X187217291Y-140232314D01*
X187217291Y-140232314D02*
X187145863Y-140375171D01*
X187145863Y-140375171D02*
X187074434Y-140446600D01*
X187074434Y-140446600D02*
X186931577Y-140518028D01*
X186931577Y-140518028D02*
X186788720Y-140518028D01*
X186788720Y-140518028D02*
X186645863Y-140446600D01*
X186645863Y-140446600D02*
X186574434Y-140375171D01*
X186574434Y-140375171D02*
X186503005Y-140232314D01*
X186503005Y-140232314D02*
X186431577Y-139946600D01*
X186431577Y-139946600D02*
X186431577Y-139589457D01*
X186431577Y-139589457D02*
X186503005Y-139303742D01*
X186503005Y-139303742D02*
X186574434Y-139160885D01*
X186574434Y-139160885D02*
X186645863Y-139089457D01*
X186645863Y-139089457D02*
X186788720Y-139018028D01*
X188217291Y-139018028D02*
X188360148Y-139018028D01*
X188360148Y-139018028D02*
X188503005Y-139089457D01*
X188503005Y-139089457D02*
X188574434Y-139160885D01*
X188574434Y-139160885D02*
X188645862Y-139303742D01*
X188645862Y-139303742D02*
X188717291Y-139589457D01*
X188717291Y-139589457D02*
X188717291Y-139946600D01*
X188717291Y-139946600D02*
X188645862Y-140232314D01*
X188645862Y-140232314D02*
X188574434Y-140375171D01*
X188574434Y-140375171D02*
X188503005Y-140446600D01*
X188503005Y-140446600D02*
X188360148Y-140518028D01*
X188360148Y-140518028D02*
X188217291Y-140518028D01*
X188217291Y-140518028D02*
X188074434Y-140446600D01*
X188074434Y-140446600D02*
X188003005Y-140375171D01*
X188003005Y-140375171D02*
X187931576Y-140232314D01*
X187931576Y-140232314D02*
X187860148Y-139946600D01*
X187860148Y-139946600D02*
X187860148Y-139589457D01*
X187860148Y-139589457D02*
X187931576Y-139303742D01*
X187931576Y-139303742D02*
X188003005Y-139160885D01*
X188003005Y-139160885D02*
X188074434Y-139089457D01*
X188074434Y-139089457D02*
X188217291Y-139018028D01*
X189645862Y-139018028D02*
X189788719Y-139018028D01*
X189788719Y-139018028D02*
X189931576Y-139089457D01*
X189931576Y-139089457D02*
X190003005Y-139160885D01*
X190003005Y-139160885D02*
X190074433Y-139303742D01*
X190074433Y-139303742D02*
X190145862Y-139589457D01*
X190145862Y-139589457D02*
X190145862Y-139946600D01*
X190145862Y-139946600D02*
X190074433Y-140232314D01*
X190074433Y-140232314D02*
X190003005Y-140375171D01*
X190003005Y-140375171D02*
X189931576Y-140446600D01*
X189931576Y-140446600D02*
X189788719Y-140518028D01*
X189788719Y-140518028D02*
X189645862Y-140518028D01*
X189645862Y-140518028D02*
X189503005Y-140446600D01*
X189503005Y-140446600D02*
X189431576Y-140375171D01*
X189431576Y-140375171D02*
X189360147Y-140232314D01*
X189360147Y-140232314D02*
X189288719Y-139946600D01*
X189288719Y-139946600D02*
X189288719Y-139589457D01*
X189288719Y-139589457D02*
X189360147Y-139303742D01*
X189360147Y-139303742D02*
X189431576Y-139160885D01*
X189431576Y-139160885D02*
X189503005Y-139089457D01*
X189503005Y-139089457D02*
X189645862Y-139018028D01*
X191931575Y-140518028D02*
X191931575Y-139518028D01*
X191931575Y-139660885D02*
X192003004Y-139589457D01*
X192003004Y-139589457D02*
X192145861Y-139518028D01*
X192145861Y-139518028D02*
X192360147Y-139518028D01*
X192360147Y-139518028D02*
X192503004Y-139589457D01*
X192503004Y-139589457D02*
X192574433Y-139732314D01*
X192574433Y-139732314D02*
X192574433Y-140518028D01*
X192574433Y-139732314D02*
X192645861Y-139589457D01*
X192645861Y-139589457D02*
X192788718Y-139518028D01*
X192788718Y-139518028D02*
X193003004Y-139518028D01*
X193003004Y-139518028D02*
X193145861Y-139589457D01*
X193145861Y-139589457D02*
X193217290Y-139732314D01*
X193217290Y-139732314D02*
X193217290Y-140518028D01*
X193931575Y-140518028D02*
X193931575Y-139518028D01*
X193931575Y-139660885D02*
X194003004Y-139589457D01*
X194003004Y-139589457D02*
X194145861Y-139518028D01*
X194145861Y-139518028D02*
X194360147Y-139518028D01*
X194360147Y-139518028D02*
X194503004Y-139589457D01*
X194503004Y-139589457D02*
X194574433Y-139732314D01*
X194574433Y-139732314D02*
X194574433Y-140518028D01*
X194574433Y-139732314D02*
X194645861Y-139589457D01*
X194645861Y-139589457D02*
X194788718Y-139518028D01*
X194788718Y-139518028D02*
X195003004Y-139518028D01*
X195003004Y-139518028D02*
X195145861Y-139589457D01*
X195145861Y-139589457D02*
X195217290Y-139732314D01*
X195217290Y-139732314D02*
X195217290Y-140518028D01*
X183717292Y-132604028D02*
X182860149Y-132604028D01*
X183288720Y-132604028D02*
X183288720Y-131104028D01*
X183288720Y-131104028D02*
X183145863Y-131318314D01*
X183145863Y-131318314D02*
X183003006Y-131461171D01*
X183003006Y-131461171D02*
X182860149Y-131532600D01*
X184360148Y-132461171D02*
X184431577Y-132532600D01*
X184431577Y-132532600D02*
X184360148Y-132604028D01*
X184360148Y-132604028D02*
X184288720Y-132532600D01*
X184288720Y-132532600D02*
X184360148Y-132461171D01*
X184360148Y-132461171D02*
X184360148Y-132604028D01*
X185717292Y-131104028D02*
X185431577Y-131104028D01*
X185431577Y-131104028D02*
X185288720Y-131175457D01*
X185288720Y-131175457D02*
X185217292Y-131246885D01*
X185217292Y-131246885D02*
X185074434Y-131461171D01*
X185074434Y-131461171D02*
X185003006Y-131746885D01*
X185003006Y-131746885D02*
X185003006Y-132318314D01*
X185003006Y-132318314D02*
X185074434Y-132461171D01*
X185074434Y-132461171D02*
X185145863Y-132532600D01*
X185145863Y-132532600D02*
X185288720Y-132604028D01*
X185288720Y-132604028D02*
X185574434Y-132604028D01*
X185574434Y-132604028D02*
X185717292Y-132532600D01*
X185717292Y-132532600D02*
X185788720Y-132461171D01*
X185788720Y-132461171D02*
X185860149Y-132318314D01*
X185860149Y-132318314D02*
X185860149Y-131961171D01*
X185860149Y-131961171D02*
X185788720Y-131818314D01*
X185788720Y-131818314D02*
X185717292Y-131746885D01*
X185717292Y-131746885D02*
X185574434Y-131675457D01*
X185574434Y-131675457D02*
X185288720Y-131675457D01*
X185288720Y-131675457D02*
X185145863Y-131746885D01*
X185145863Y-131746885D02*
X185074434Y-131818314D01*
X185074434Y-131818314D02*
X185003006Y-131961171D01*
X186788720Y-131104028D02*
X186931577Y-131104028D01*
X186931577Y-131104028D02*
X187074434Y-131175457D01*
X187074434Y-131175457D02*
X187145863Y-131246885D01*
X187145863Y-131246885D02*
X187217291Y-131389742D01*
X187217291Y-131389742D02*
X187288720Y-131675457D01*
X187288720Y-131675457D02*
X187288720Y-132032600D01*
X187288720Y-132032600D02*
X187217291Y-132318314D01*
X187217291Y-132318314D02*
X187145863Y-132461171D01*
X187145863Y-132461171D02*
X187074434Y-132532600D01*
X187074434Y-132532600D02*
X186931577Y-132604028D01*
X186931577Y-132604028D02*
X186788720Y-132604028D01*
X186788720Y-132604028D02*
X186645863Y-132532600D01*
X186645863Y-132532600D02*
X186574434Y-132461171D01*
X186574434Y-132461171D02*
X186503005Y-132318314D01*
X186503005Y-132318314D02*
X186431577Y-132032600D01*
X186431577Y-132032600D02*
X186431577Y-131675457D01*
X186431577Y-131675457D02*
X186503005Y-131389742D01*
X186503005Y-131389742D02*
X186574434Y-131246885D01*
X186574434Y-131246885D02*
X186645863Y-131175457D01*
X186645863Y-131175457D02*
X186788720Y-131104028D01*
X188217291Y-131104028D02*
X188360148Y-131104028D01*
X188360148Y-131104028D02*
X188503005Y-131175457D01*
X188503005Y-131175457D02*
X188574434Y-131246885D01*
X188574434Y-131246885D02*
X188645862Y-131389742D01*
X188645862Y-131389742D02*
X188717291Y-131675457D01*
X188717291Y-131675457D02*
X188717291Y-132032600D01*
X188717291Y-132032600D02*
X188645862Y-132318314D01*
X188645862Y-132318314D02*
X188574434Y-132461171D01*
X188574434Y-132461171D02*
X188503005Y-132532600D01*
X188503005Y-132532600D02*
X188360148Y-132604028D01*
X188360148Y-132604028D02*
X188217291Y-132604028D01*
X188217291Y-132604028D02*
X188074434Y-132532600D01*
X188074434Y-132532600D02*
X188003005Y-132461171D01*
X188003005Y-132461171D02*
X187931576Y-132318314D01*
X187931576Y-132318314D02*
X187860148Y-132032600D01*
X187860148Y-132032600D02*
X187860148Y-131675457D01*
X187860148Y-131675457D02*
X187931576Y-131389742D01*
X187931576Y-131389742D02*
X188003005Y-131246885D01*
X188003005Y-131246885D02*
X188074434Y-131175457D01*
X188074434Y-131175457D02*
X188217291Y-131104028D01*
X189645862Y-131104028D02*
X189788719Y-131104028D01*
X189788719Y-131104028D02*
X189931576Y-131175457D01*
X189931576Y-131175457D02*
X190003005Y-131246885D01*
X190003005Y-131246885D02*
X190074433Y-131389742D01*
X190074433Y-131389742D02*
X190145862Y-131675457D01*
X190145862Y-131675457D02*
X190145862Y-132032600D01*
X190145862Y-132032600D02*
X190074433Y-132318314D01*
X190074433Y-132318314D02*
X190003005Y-132461171D01*
X190003005Y-132461171D02*
X189931576Y-132532600D01*
X189931576Y-132532600D02*
X189788719Y-132604028D01*
X189788719Y-132604028D02*
X189645862Y-132604028D01*
X189645862Y-132604028D02*
X189503005Y-132532600D01*
X189503005Y-132532600D02*
X189431576Y-132461171D01*
X189431576Y-132461171D02*
X189360147Y-132318314D01*
X189360147Y-132318314D02*
X189288719Y-132032600D01*
X189288719Y-132032600D02*
X189288719Y-131675457D01*
X189288719Y-131675457D02*
X189360147Y-131389742D01*
X189360147Y-131389742D02*
X189431576Y-131246885D01*
X189431576Y-131246885D02*
X189503005Y-131175457D01*
X189503005Y-131175457D02*
X189645862Y-131104028D01*
X191931575Y-132604028D02*
X191931575Y-131604028D01*
X191931575Y-131746885D02*
X192003004Y-131675457D01*
X192003004Y-131675457D02*
X192145861Y-131604028D01*
X192145861Y-131604028D02*
X192360147Y-131604028D01*
X192360147Y-131604028D02*
X192503004Y-131675457D01*
X192503004Y-131675457D02*
X192574433Y-131818314D01*
X192574433Y-131818314D02*
X192574433Y-132604028D01*
X192574433Y-131818314D02*
X192645861Y-131675457D01*
X192645861Y-131675457D02*
X192788718Y-131604028D01*
X192788718Y-131604028D02*
X193003004Y-131604028D01*
X193003004Y-131604028D02*
X193145861Y-131675457D01*
X193145861Y-131675457D02*
X193217290Y-131818314D01*
X193217290Y-131818314D02*
X193217290Y-132604028D01*
X193931575Y-132604028D02*
X193931575Y-131604028D01*
X193931575Y-131746885D02*
X194003004Y-131675457D01*
X194003004Y-131675457D02*
X194145861Y-131604028D01*
X194145861Y-131604028D02*
X194360147Y-131604028D01*
X194360147Y-131604028D02*
X194503004Y-131675457D01*
X194503004Y-131675457D02*
X194574433Y-131818314D01*
X194574433Y-131818314D02*
X194574433Y-132604028D01*
X194574433Y-131818314D02*
X194645861Y-131675457D01*
X194645861Y-131675457D02*
X194788718Y-131604028D01*
X194788718Y-131604028D02*
X195003004Y-131604028D01*
X195003004Y-131604028D02*
X195145861Y-131675457D01*
X195145861Y-131675457D02*
X195217290Y-131818314D01*
X195217290Y-131818314D02*
X195217290Y-132604028D01*
X91174439Y-140518028D02*
X91174439Y-139018028D01*
X91174439Y-139018028D02*
X91674439Y-140089457D01*
X91674439Y-140089457D02*
X92174439Y-139018028D01*
X92174439Y-139018028D02*
X92174439Y-140518028D01*
X92888725Y-140518028D02*
X92888725Y-139518028D01*
X92888725Y-139018028D02*
X92817297Y-139089457D01*
X92817297Y-139089457D02*
X92888725Y-139160885D01*
X92888725Y-139160885D02*
X92960154Y-139089457D01*
X92960154Y-139089457D02*
X92888725Y-139018028D01*
X92888725Y-139018028D02*
X92888725Y-139160885D01*
X93603011Y-139518028D02*
X93603011Y-140518028D01*
X93603011Y-139660885D02*
X93674440Y-139589457D01*
X93674440Y-139589457D02*
X93817297Y-139518028D01*
X93817297Y-139518028D02*
X94031583Y-139518028D01*
X94031583Y-139518028D02*
X94174440Y-139589457D01*
X94174440Y-139589457D02*
X94245869Y-139732314D01*
X94245869Y-139732314D02*
X94245869Y-140518028D01*
X95888726Y-139518028D02*
X96460154Y-139518028D01*
X96103011Y-139018028D02*
X96103011Y-140303742D01*
X96103011Y-140303742D02*
X96174440Y-140446600D01*
X96174440Y-140446600D02*
X96317297Y-140518028D01*
X96317297Y-140518028D02*
X96460154Y-140518028D01*
X96960154Y-140518028D02*
X96960154Y-139518028D01*
X96960154Y-139803742D02*
X97031583Y-139660885D01*
X97031583Y-139660885D02*
X97103012Y-139589457D01*
X97103012Y-139589457D02*
X97245869Y-139518028D01*
X97245869Y-139518028D02*
X97388726Y-139518028D01*
X98531583Y-140518028D02*
X98531583Y-139732314D01*
X98531583Y-139732314D02*
X98460154Y-139589457D01*
X98460154Y-139589457D02*
X98317297Y-139518028D01*
X98317297Y-139518028D02*
X98031583Y-139518028D01*
X98031583Y-139518028D02*
X97888725Y-139589457D01*
X98531583Y-140446600D02*
X98388725Y-140518028D01*
X98388725Y-140518028D02*
X98031583Y-140518028D01*
X98031583Y-140518028D02*
X97888725Y-140446600D01*
X97888725Y-140446600D02*
X97817297Y-140303742D01*
X97817297Y-140303742D02*
X97817297Y-140160885D01*
X97817297Y-140160885D02*
X97888725Y-140018028D01*
X97888725Y-140018028D02*
X98031583Y-139946600D01*
X98031583Y-139946600D02*
X98388725Y-139946600D01*
X98388725Y-139946600D02*
X98531583Y-139875171D01*
X99888726Y-140446600D02*
X99745868Y-140518028D01*
X99745868Y-140518028D02*
X99460154Y-140518028D01*
X99460154Y-140518028D02*
X99317297Y-140446600D01*
X99317297Y-140446600D02*
X99245868Y-140375171D01*
X99245868Y-140375171D02*
X99174440Y-140232314D01*
X99174440Y-140232314D02*
X99174440Y-139803742D01*
X99174440Y-139803742D02*
X99245868Y-139660885D01*
X99245868Y-139660885D02*
X99317297Y-139589457D01*
X99317297Y-139589457D02*
X99460154Y-139518028D01*
X99460154Y-139518028D02*
X99745868Y-139518028D01*
X99745868Y-139518028D02*
X99888726Y-139589457D01*
X100531582Y-140518028D02*
X100531582Y-139018028D01*
X100674440Y-139946600D02*
X101103011Y-140518028D01*
X101103011Y-139518028D02*
X100531582Y-140089457D01*
X102817297Y-138946600D02*
X101531583Y-140875171D01*
X103245869Y-140446600D02*
X103388726Y-140518028D01*
X103388726Y-140518028D02*
X103674440Y-140518028D01*
X103674440Y-140518028D02*
X103817297Y-140446600D01*
X103817297Y-140446600D02*
X103888726Y-140303742D01*
X103888726Y-140303742D02*
X103888726Y-140232314D01*
X103888726Y-140232314D02*
X103817297Y-140089457D01*
X103817297Y-140089457D02*
X103674440Y-140018028D01*
X103674440Y-140018028D02*
X103460155Y-140018028D01*
X103460155Y-140018028D02*
X103317297Y-139946600D01*
X103317297Y-139946600D02*
X103245869Y-139803742D01*
X103245869Y-139803742D02*
X103245869Y-139732314D01*
X103245869Y-139732314D02*
X103317297Y-139589457D01*
X103317297Y-139589457D02*
X103460155Y-139518028D01*
X103460155Y-139518028D02*
X103674440Y-139518028D01*
X103674440Y-139518028D02*
X103817297Y-139589457D01*
X104531583Y-139518028D02*
X104531583Y-141018028D01*
X104531583Y-139589457D02*
X104674441Y-139518028D01*
X104674441Y-139518028D02*
X104960155Y-139518028D01*
X104960155Y-139518028D02*
X105103012Y-139589457D01*
X105103012Y-139589457D02*
X105174441Y-139660885D01*
X105174441Y-139660885D02*
X105245869Y-139803742D01*
X105245869Y-139803742D02*
X105245869Y-140232314D01*
X105245869Y-140232314D02*
X105174441Y-140375171D01*
X105174441Y-140375171D02*
X105103012Y-140446600D01*
X105103012Y-140446600D02*
X104960155Y-140518028D01*
X104960155Y-140518028D02*
X104674441Y-140518028D01*
X104674441Y-140518028D02*
X104531583Y-140446600D01*
X106531584Y-140518028D02*
X106531584Y-139732314D01*
X106531584Y-139732314D02*
X106460155Y-139589457D01*
X106460155Y-139589457D02*
X106317298Y-139518028D01*
X106317298Y-139518028D02*
X106031584Y-139518028D01*
X106031584Y-139518028D02*
X105888726Y-139589457D01*
X106531584Y-140446600D02*
X106388726Y-140518028D01*
X106388726Y-140518028D02*
X106031584Y-140518028D01*
X106031584Y-140518028D02*
X105888726Y-140446600D01*
X105888726Y-140446600D02*
X105817298Y-140303742D01*
X105817298Y-140303742D02*
X105817298Y-140160885D01*
X105817298Y-140160885D02*
X105888726Y-140018028D01*
X105888726Y-140018028D02*
X106031584Y-139946600D01*
X106031584Y-139946600D02*
X106388726Y-139946600D01*
X106388726Y-139946600D02*
X106531584Y-139875171D01*
X107888727Y-140446600D02*
X107745869Y-140518028D01*
X107745869Y-140518028D02*
X107460155Y-140518028D01*
X107460155Y-140518028D02*
X107317298Y-140446600D01*
X107317298Y-140446600D02*
X107245869Y-140375171D01*
X107245869Y-140375171D02*
X107174441Y-140232314D01*
X107174441Y-140232314D02*
X107174441Y-139803742D01*
X107174441Y-139803742D02*
X107245869Y-139660885D01*
X107245869Y-139660885D02*
X107317298Y-139589457D01*
X107317298Y-139589457D02*
X107460155Y-139518028D01*
X107460155Y-139518028D02*
X107745869Y-139518028D01*
X107745869Y-139518028D02*
X107888727Y-139589457D01*
X108531583Y-140518028D02*
X108531583Y-139518028D01*
X108531583Y-139018028D02*
X108460155Y-139089457D01*
X108460155Y-139089457D02*
X108531583Y-139160885D01*
X108531583Y-139160885D02*
X108603012Y-139089457D01*
X108603012Y-139089457D02*
X108531583Y-139018028D01*
X108531583Y-139018028D02*
X108531583Y-139160885D01*
X109245869Y-139518028D02*
X109245869Y-140518028D01*
X109245869Y-139660885D02*
X109317298Y-139589457D01*
X109317298Y-139589457D02*
X109460155Y-139518028D01*
X109460155Y-139518028D02*
X109674441Y-139518028D01*
X109674441Y-139518028D02*
X109817298Y-139589457D01*
X109817298Y-139589457D02*
X109888727Y-139732314D01*
X109888727Y-139732314D02*
X109888727Y-140518028D01*
X111245870Y-139518028D02*
X111245870Y-140732314D01*
X111245870Y-140732314D02*
X111174441Y-140875171D01*
X111174441Y-140875171D02*
X111103012Y-140946600D01*
X111103012Y-140946600D02*
X110960155Y-141018028D01*
X110960155Y-141018028D02*
X110745870Y-141018028D01*
X110745870Y-141018028D02*
X110603012Y-140946600D01*
X111245870Y-140446600D02*
X111103012Y-140518028D01*
X111103012Y-140518028D02*
X110817298Y-140518028D01*
X110817298Y-140518028D02*
X110674441Y-140446600D01*
X110674441Y-140446600D02*
X110603012Y-140375171D01*
X110603012Y-140375171D02*
X110531584Y-140232314D01*
X110531584Y-140232314D02*
X110531584Y-139803742D01*
X110531584Y-139803742D02*
X110603012Y-139660885D01*
X110603012Y-139660885D02*
X110674441Y-139589457D01*
X110674441Y-139589457D02*
X110817298Y-139518028D01*
X110817298Y-139518028D02*
X111103012Y-139518028D01*
X111103012Y-139518028D02*
X111245870Y-139589457D01*
X111960155Y-140375171D02*
X112031584Y-140446600D01*
X112031584Y-140446600D02*
X111960155Y-140518028D01*
X111960155Y-140518028D02*
X111888727Y-140446600D01*
X111888727Y-140446600D02*
X111960155Y-140375171D01*
X111960155Y-140375171D02*
X111960155Y-140518028D01*
X111960155Y-139589457D02*
X112031584Y-139660885D01*
X112031584Y-139660885D02*
X111960155Y-139732314D01*
X111960155Y-139732314D02*
X111888727Y-139660885D01*
X111888727Y-139660885D02*
X111960155Y-139589457D01*
X111960155Y-139589457D02*
X111960155Y-139732314D01*
X123760154Y-131246885D02*
X123831582Y-131175457D01*
X123831582Y-131175457D02*
X123974440Y-131104028D01*
X123974440Y-131104028D02*
X124331582Y-131104028D01*
X124331582Y-131104028D02*
X124474440Y-131175457D01*
X124474440Y-131175457D02*
X124545868Y-131246885D01*
X124545868Y-131246885D02*
X124617297Y-131389742D01*
X124617297Y-131389742D02*
X124617297Y-131532600D01*
X124617297Y-131532600D02*
X124545868Y-131746885D01*
X124545868Y-131746885D02*
X123688725Y-132604028D01*
X123688725Y-132604028D02*
X124617297Y-132604028D01*
X182931577Y-144475028D02*
X182931577Y-142975028D01*
X182931577Y-142975028D02*
X183788720Y-144475028D01*
X183788720Y-144475028D02*
X183788720Y-142975028D01*
X184717292Y-144475028D02*
X184574435Y-144403600D01*
X184574435Y-144403600D02*
X184503006Y-144332171D01*
X184503006Y-144332171D02*
X184431578Y-144189314D01*
X184431578Y-144189314D02*
X184431578Y-143760742D01*
X184431578Y-143760742D02*
X184503006Y-143617885D01*
X184503006Y-143617885D02*
X184574435Y-143546457D01*
X184574435Y-143546457D02*
X184717292Y-143475028D01*
X184717292Y-143475028D02*
X184931578Y-143475028D01*
X184931578Y-143475028D02*
X185074435Y-143546457D01*
X185074435Y-143546457D02*
X185145864Y-143617885D01*
X185145864Y-143617885D02*
X185217292Y-143760742D01*
X185217292Y-143760742D02*
X185217292Y-144189314D01*
X185217292Y-144189314D02*
X185145864Y-144332171D01*
X185145864Y-144332171D02*
X185074435Y-144403600D01*
X185074435Y-144403600D02*
X184931578Y-144475028D01*
X184931578Y-144475028D02*
X184717292Y-144475028D01*
X182931577Y-148432028D02*
X182931577Y-146932028D01*
X182931577Y-146932028D02*
X183788720Y-148432028D01*
X183788720Y-148432028D02*
X183788720Y-146932028D01*
X184717292Y-148432028D02*
X184574435Y-148360600D01*
X184574435Y-148360600D02*
X184503006Y-148289171D01*
X184503006Y-148289171D02*
X184431578Y-148146314D01*
X184431578Y-148146314D02*
X184431578Y-147717742D01*
X184431578Y-147717742D02*
X184503006Y-147574885D01*
X184503006Y-147574885D02*
X184574435Y-147503457D01*
X184574435Y-147503457D02*
X184717292Y-147432028D01*
X184717292Y-147432028D02*
X184931578Y-147432028D01*
X184931578Y-147432028D02*
X185074435Y-147503457D01*
X185074435Y-147503457D02*
X185145864Y-147574885D01*
X185145864Y-147574885D02*
X185217292Y-147717742D01*
X185217292Y-147717742D02*
X185217292Y-148146314D01*
X185217292Y-148146314D02*
X185145864Y-148289171D01*
X185145864Y-148289171D02*
X185074435Y-148360600D01*
X185074435Y-148360600D02*
X184931578Y-148432028D01*
X184931578Y-148432028D02*
X184717292Y-148432028D01*
X123831582Y-152389028D02*
X123831582Y-150889028D01*
X123831582Y-150889028D02*
X124688725Y-152389028D01*
X124688725Y-152389028D02*
X124688725Y-150889028D01*
X125617297Y-152389028D02*
X125474440Y-152317600D01*
X125474440Y-152317600D02*
X125403011Y-152246171D01*
X125403011Y-152246171D02*
X125331583Y-152103314D01*
X125331583Y-152103314D02*
X125331583Y-151674742D01*
X125331583Y-151674742D02*
X125403011Y-151531885D01*
X125403011Y-151531885D02*
X125474440Y-151460457D01*
X125474440Y-151460457D02*
X125617297Y-151389028D01*
X125617297Y-151389028D02*
X125831583Y-151389028D01*
X125831583Y-151389028D02*
X125974440Y-151460457D01*
X125974440Y-151460457D02*
X126045869Y-151531885D01*
X126045869Y-151531885D02*
X126117297Y-151674742D01*
X126117297Y-151674742D02*
X126117297Y-152103314D01*
X126117297Y-152103314D02*
X126045869Y-152246171D01*
X126045869Y-152246171D02*
X125974440Y-152317600D01*
X125974440Y-152317600D02*
X125831583Y-152389028D01*
X125831583Y-152389028D02*
X125617297Y-152389028D01*
X123688725Y-135061028D02*
X124688725Y-135061028D01*
X124688725Y-135061028D02*
X124045868Y-136561028D01*
X125545868Y-135061028D02*
X125688725Y-135061028D01*
X125688725Y-135061028D02*
X125831582Y-135132457D01*
X125831582Y-135132457D02*
X125903011Y-135203885D01*
X125903011Y-135203885D02*
X125974439Y-135346742D01*
X125974439Y-135346742D02*
X126045868Y-135632457D01*
X126045868Y-135632457D02*
X126045868Y-135989600D01*
X126045868Y-135989600D02*
X125974439Y-136275314D01*
X125974439Y-136275314D02*
X125903011Y-136418171D01*
X125903011Y-136418171D02*
X125831582Y-136489600D01*
X125831582Y-136489600D02*
X125688725Y-136561028D01*
X125688725Y-136561028D02*
X125545868Y-136561028D01*
X125545868Y-136561028D02*
X125403011Y-136489600D01*
X125403011Y-136489600D02*
X125331582Y-136418171D01*
X125331582Y-136418171D02*
X125260153Y-136275314D01*
X125260153Y-136275314D02*
X125188725Y-135989600D01*
X125188725Y-135989600D02*
X125188725Y-135632457D01*
X125188725Y-135632457D02*
X125260153Y-135346742D01*
X125260153Y-135346742D02*
X125331582Y-135203885D01*
X125331582Y-135203885D02*
X125403011Y-135132457D01*
X125403011Y-135132457D02*
X125545868Y-135061028D01*
X126688724Y-136418171D02*
X126760153Y-136489600D01*
X126760153Y-136489600D02*
X126688724Y-136561028D01*
X126688724Y-136561028D02*
X126617296Y-136489600D01*
X126617296Y-136489600D02*
X126688724Y-136418171D01*
X126688724Y-136418171D02*
X126688724Y-136561028D01*
X127688725Y-135061028D02*
X127831582Y-135061028D01*
X127831582Y-135061028D02*
X127974439Y-135132457D01*
X127974439Y-135132457D02*
X128045868Y-135203885D01*
X128045868Y-135203885D02*
X128117296Y-135346742D01*
X128117296Y-135346742D02*
X128188725Y-135632457D01*
X128188725Y-135632457D02*
X128188725Y-135989600D01*
X128188725Y-135989600D02*
X128117296Y-136275314D01*
X128117296Y-136275314D02*
X128045868Y-136418171D01*
X128045868Y-136418171D02*
X127974439Y-136489600D01*
X127974439Y-136489600D02*
X127831582Y-136561028D01*
X127831582Y-136561028D02*
X127688725Y-136561028D01*
X127688725Y-136561028D02*
X127545868Y-136489600D01*
X127545868Y-136489600D02*
X127474439Y-136418171D01*
X127474439Y-136418171D02*
X127403010Y-136275314D01*
X127403010Y-136275314D02*
X127331582Y-135989600D01*
X127331582Y-135989600D02*
X127331582Y-135632457D01*
X127331582Y-135632457D02*
X127403010Y-135346742D01*
X127403010Y-135346742D02*
X127474439Y-135203885D01*
X127474439Y-135203885D02*
X127545868Y-135132457D01*
X127545868Y-135132457D02*
X127688725Y-135061028D01*
X129117296Y-135061028D02*
X129260153Y-135061028D01*
X129260153Y-135061028D02*
X129403010Y-135132457D01*
X129403010Y-135132457D02*
X129474439Y-135203885D01*
X129474439Y-135203885D02*
X129545867Y-135346742D01*
X129545867Y-135346742D02*
X129617296Y-135632457D01*
X129617296Y-135632457D02*
X129617296Y-135989600D01*
X129617296Y-135989600D02*
X129545867Y-136275314D01*
X129545867Y-136275314D02*
X129474439Y-136418171D01*
X129474439Y-136418171D02*
X129403010Y-136489600D01*
X129403010Y-136489600D02*
X129260153Y-136561028D01*
X129260153Y-136561028D02*
X129117296Y-136561028D01*
X129117296Y-136561028D02*
X128974439Y-136489600D01*
X128974439Y-136489600D02*
X128903010Y-136418171D01*
X128903010Y-136418171D02*
X128831581Y-136275314D01*
X128831581Y-136275314D02*
X128760153Y-135989600D01*
X128760153Y-135989600D02*
X128760153Y-135632457D01*
X128760153Y-135632457D02*
X128831581Y-135346742D01*
X128831581Y-135346742D02*
X128903010Y-135203885D01*
X128903010Y-135203885D02*
X128974439Y-135132457D01*
X128974439Y-135132457D02*
X129117296Y-135061028D01*
X130545867Y-135061028D02*
X130688724Y-135061028D01*
X130688724Y-135061028D02*
X130831581Y-135132457D01*
X130831581Y-135132457D02*
X130903010Y-135203885D01*
X130903010Y-135203885D02*
X130974438Y-135346742D01*
X130974438Y-135346742D02*
X131045867Y-135632457D01*
X131045867Y-135632457D02*
X131045867Y-135989600D01*
X131045867Y-135989600D02*
X130974438Y-136275314D01*
X130974438Y-136275314D02*
X130903010Y-136418171D01*
X130903010Y-136418171D02*
X130831581Y-136489600D01*
X130831581Y-136489600D02*
X130688724Y-136561028D01*
X130688724Y-136561028D02*
X130545867Y-136561028D01*
X130545867Y-136561028D02*
X130403010Y-136489600D01*
X130403010Y-136489600D02*
X130331581Y-136418171D01*
X130331581Y-136418171D02*
X130260152Y-136275314D01*
X130260152Y-136275314D02*
X130188724Y-135989600D01*
X130188724Y-135989600D02*
X130188724Y-135632457D01*
X130188724Y-135632457D02*
X130260152Y-135346742D01*
X130260152Y-135346742D02*
X130331581Y-135203885D01*
X130331581Y-135203885D02*
X130403010Y-135132457D01*
X130403010Y-135132457D02*
X130545867Y-135061028D01*
X131974438Y-135061028D02*
X132117295Y-135061028D01*
X132117295Y-135061028D02*
X132260152Y-135132457D01*
X132260152Y-135132457D02*
X132331581Y-135203885D01*
X132331581Y-135203885D02*
X132403009Y-135346742D01*
X132403009Y-135346742D02*
X132474438Y-135632457D01*
X132474438Y-135632457D02*
X132474438Y-135989600D01*
X132474438Y-135989600D02*
X132403009Y-136275314D01*
X132403009Y-136275314D02*
X132331581Y-136418171D01*
X132331581Y-136418171D02*
X132260152Y-136489600D01*
X132260152Y-136489600D02*
X132117295Y-136561028D01*
X132117295Y-136561028D02*
X131974438Y-136561028D01*
X131974438Y-136561028D02*
X131831581Y-136489600D01*
X131831581Y-136489600D02*
X131760152Y-136418171D01*
X131760152Y-136418171D02*
X131688723Y-136275314D01*
X131688723Y-136275314D02*
X131617295Y-135989600D01*
X131617295Y-135989600D02*
X131617295Y-135632457D01*
X131617295Y-135632457D02*
X131688723Y-135346742D01*
X131688723Y-135346742D02*
X131760152Y-135203885D01*
X131760152Y-135203885D02*
X131831581Y-135132457D01*
X131831581Y-135132457D02*
X131974438Y-135061028D01*
X134260151Y-136561028D02*
X134260151Y-135561028D01*
X134260151Y-135703885D02*
X134331580Y-135632457D01*
X134331580Y-135632457D02*
X134474437Y-135561028D01*
X134474437Y-135561028D02*
X134688723Y-135561028D01*
X134688723Y-135561028D02*
X134831580Y-135632457D01*
X134831580Y-135632457D02*
X134903009Y-135775314D01*
X134903009Y-135775314D02*
X134903009Y-136561028D01*
X134903009Y-135775314D02*
X134974437Y-135632457D01*
X134974437Y-135632457D02*
X135117294Y-135561028D01*
X135117294Y-135561028D02*
X135331580Y-135561028D01*
X135331580Y-135561028D02*
X135474437Y-135632457D01*
X135474437Y-135632457D02*
X135545866Y-135775314D01*
X135545866Y-135775314D02*
X135545866Y-136561028D01*
X136260151Y-136561028D02*
X136260151Y-135561028D01*
X136260151Y-135703885D02*
X136331580Y-135632457D01*
X136331580Y-135632457D02*
X136474437Y-135561028D01*
X136474437Y-135561028D02*
X136688723Y-135561028D01*
X136688723Y-135561028D02*
X136831580Y-135632457D01*
X136831580Y-135632457D02*
X136903009Y-135775314D01*
X136903009Y-135775314D02*
X136903009Y-136561028D01*
X136903009Y-135775314D02*
X136974437Y-135632457D01*
X136974437Y-135632457D02*
X137117294Y-135561028D01*
X137117294Y-135561028D02*
X137331580Y-135561028D01*
X137331580Y-135561028D02*
X137474437Y-135632457D01*
X137474437Y-135632457D02*
X137545866Y-135775314D01*
X137545866Y-135775314D02*
X137545866Y-136561028D01*
X139260151Y-136561028D02*
X140045866Y-135561028D01*
X139260151Y-135561028D02*
X140045866Y-136561028D01*
X141617294Y-135061028D02*
X142617294Y-135061028D01*
X142617294Y-135061028D02*
X141974437Y-136561028D01*
X143903008Y-135061028D02*
X143188722Y-135061028D01*
X143188722Y-135061028D02*
X143117294Y-135775314D01*
X143117294Y-135775314D02*
X143188722Y-135703885D01*
X143188722Y-135703885D02*
X143331580Y-135632457D01*
X143331580Y-135632457D02*
X143688722Y-135632457D01*
X143688722Y-135632457D02*
X143831580Y-135703885D01*
X143831580Y-135703885D02*
X143903008Y-135775314D01*
X143903008Y-135775314D02*
X143974437Y-135918171D01*
X143974437Y-135918171D02*
X143974437Y-136275314D01*
X143974437Y-136275314D02*
X143903008Y-136418171D01*
X143903008Y-136418171D02*
X143831580Y-136489600D01*
X143831580Y-136489600D02*
X143688722Y-136561028D01*
X143688722Y-136561028D02*
X143331580Y-136561028D01*
X143331580Y-136561028D02*
X143188722Y-136489600D01*
X143188722Y-136489600D02*
X143117294Y-136418171D01*
X144617293Y-136418171D02*
X144688722Y-136489600D01*
X144688722Y-136489600D02*
X144617293Y-136561028D01*
X144617293Y-136561028D02*
X144545865Y-136489600D01*
X144545865Y-136489600D02*
X144617293Y-136418171D01*
X144617293Y-136418171D02*
X144617293Y-136561028D01*
X145617294Y-135061028D02*
X145760151Y-135061028D01*
X145760151Y-135061028D02*
X145903008Y-135132457D01*
X145903008Y-135132457D02*
X145974437Y-135203885D01*
X145974437Y-135203885D02*
X146045865Y-135346742D01*
X146045865Y-135346742D02*
X146117294Y-135632457D01*
X146117294Y-135632457D02*
X146117294Y-135989600D01*
X146117294Y-135989600D02*
X146045865Y-136275314D01*
X146045865Y-136275314D02*
X145974437Y-136418171D01*
X145974437Y-136418171D02*
X145903008Y-136489600D01*
X145903008Y-136489600D02*
X145760151Y-136561028D01*
X145760151Y-136561028D02*
X145617294Y-136561028D01*
X145617294Y-136561028D02*
X145474437Y-136489600D01*
X145474437Y-136489600D02*
X145403008Y-136418171D01*
X145403008Y-136418171D02*
X145331579Y-136275314D01*
X145331579Y-136275314D02*
X145260151Y-135989600D01*
X145260151Y-135989600D02*
X145260151Y-135632457D01*
X145260151Y-135632457D02*
X145331579Y-135346742D01*
X145331579Y-135346742D02*
X145403008Y-135203885D01*
X145403008Y-135203885D02*
X145474437Y-135132457D01*
X145474437Y-135132457D02*
X145617294Y-135061028D01*
X147045865Y-135061028D02*
X147188722Y-135061028D01*
X147188722Y-135061028D02*
X147331579Y-135132457D01*
X147331579Y-135132457D02*
X147403008Y-135203885D01*
X147403008Y-135203885D02*
X147474436Y-135346742D01*
X147474436Y-135346742D02*
X147545865Y-135632457D01*
X147545865Y-135632457D02*
X147545865Y-135989600D01*
X147545865Y-135989600D02*
X147474436Y-136275314D01*
X147474436Y-136275314D02*
X147403008Y-136418171D01*
X147403008Y-136418171D02*
X147331579Y-136489600D01*
X147331579Y-136489600D02*
X147188722Y-136561028D01*
X147188722Y-136561028D02*
X147045865Y-136561028D01*
X147045865Y-136561028D02*
X146903008Y-136489600D01*
X146903008Y-136489600D02*
X146831579Y-136418171D01*
X146831579Y-136418171D02*
X146760150Y-136275314D01*
X146760150Y-136275314D02*
X146688722Y-135989600D01*
X146688722Y-135989600D02*
X146688722Y-135632457D01*
X146688722Y-135632457D02*
X146760150Y-135346742D01*
X146760150Y-135346742D02*
X146831579Y-135203885D01*
X146831579Y-135203885D02*
X146903008Y-135132457D01*
X146903008Y-135132457D02*
X147045865Y-135061028D01*
X148474436Y-135061028D02*
X148617293Y-135061028D01*
X148617293Y-135061028D02*
X148760150Y-135132457D01*
X148760150Y-135132457D02*
X148831579Y-135203885D01*
X148831579Y-135203885D02*
X148903007Y-135346742D01*
X148903007Y-135346742D02*
X148974436Y-135632457D01*
X148974436Y-135632457D02*
X148974436Y-135989600D01*
X148974436Y-135989600D02*
X148903007Y-136275314D01*
X148903007Y-136275314D02*
X148831579Y-136418171D01*
X148831579Y-136418171D02*
X148760150Y-136489600D01*
X148760150Y-136489600D02*
X148617293Y-136561028D01*
X148617293Y-136561028D02*
X148474436Y-136561028D01*
X148474436Y-136561028D02*
X148331579Y-136489600D01*
X148331579Y-136489600D02*
X148260150Y-136418171D01*
X148260150Y-136418171D02*
X148188721Y-136275314D01*
X148188721Y-136275314D02*
X148117293Y-135989600D01*
X148117293Y-135989600D02*
X148117293Y-135632457D01*
X148117293Y-135632457D02*
X148188721Y-135346742D01*
X148188721Y-135346742D02*
X148260150Y-135203885D01*
X148260150Y-135203885D02*
X148331579Y-135132457D01*
X148331579Y-135132457D02*
X148474436Y-135061028D01*
X149903007Y-135061028D02*
X150045864Y-135061028D01*
X150045864Y-135061028D02*
X150188721Y-135132457D01*
X150188721Y-135132457D02*
X150260150Y-135203885D01*
X150260150Y-135203885D02*
X150331578Y-135346742D01*
X150331578Y-135346742D02*
X150403007Y-135632457D01*
X150403007Y-135632457D02*
X150403007Y-135989600D01*
X150403007Y-135989600D02*
X150331578Y-136275314D01*
X150331578Y-136275314D02*
X150260150Y-136418171D01*
X150260150Y-136418171D02*
X150188721Y-136489600D01*
X150188721Y-136489600D02*
X150045864Y-136561028D01*
X150045864Y-136561028D02*
X149903007Y-136561028D01*
X149903007Y-136561028D02*
X149760150Y-136489600D01*
X149760150Y-136489600D02*
X149688721Y-136418171D01*
X149688721Y-136418171D02*
X149617292Y-136275314D01*
X149617292Y-136275314D02*
X149545864Y-135989600D01*
X149545864Y-135989600D02*
X149545864Y-135632457D01*
X149545864Y-135632457D02*
X149617292Y-135346742D01*
X149617292Y-135346742D02*
X149688721Y-135203885D01*
X149688721Y-135203885D02*
X149760150Y-135132457D01*
X149760150Y-135132457D02*
X149903007Y-135061028D01*
X152188720Y-136561028D02*
X152188720Y-135561028D01*
X152188720Y-135703885D02*
X152260149Y-135632457D01*
X152260149Y-135632457D02*
X152403006Y-135561028D01*
X152403006Y-135561028D02*
X152617292Y-135561028D01*
X152617292Y-135561028D02*
X152760149Y-135632457D01*
X152760149Y-135632457D02*
X152831578Y-135775314D01*
X152831578Y-135775314D02*
X152831578Y-136561028D01*
X152831578Y-135775314D02*
X152903006Y-135632457D01*
X152903006Y-135632457D02*
X153045863Y-135561028D01*
X153045863Y-135561028D02*
X153260149Y-135561028D01*
X153260149Y-135561028D02*
X153403006Y-135632457D01*
X153403006Y-135632457D02*
X153474435Y-135775314D01*
X153474435Y-135775314D02*
X153474435Y-136561028D01*
X154188720Y-136561028D02*
X154188720Y-135561028D01*
X154188720Y-135703885D02*
X154260149Y-135632457D01*
X154260149Y-135632457D02*
X154403006Y-135561028D01*
X154403006Y-135561028D02*
X154617292Y-135561028D01*
X154617292Y-135561028D02*
X154760149Y-135632457D01*
X154760149Y-135632457D02*
X154831578Y-135775314D01*
X154831578Y-135775314D02*
X154831578Y-136561028D01*
X154831578Y-135775314D02*
X154903006Y-135632457D01*
X154903006Y-135632457D02*
X155045863Y-135561028D01*
X155045863Y-135561028D02*
X155260149Y-135561028D01*
X155260149Y-135561028D02*
X155403006Y-135632457D01*
X155403006Y-135632457D02*
X155474435Y-135775314D01*
X155474435Y-135775314D02*
X155474435Y-136561028D01*
X123831582Y-144475028D02*
X123831582Y-142975028D01*
X123831582Y-143689314D02*
X124688725Y-143689314D01*
X124688725Y-144475028D02*
X124688725Y-142975028D01*
X125331583Y-144046457D02*
X126045869Y-144046457D01*
X125188726Y-144475028D02*
X125688726Y-142975028D01*
X125688726Y-142975028D02*
X126188726Y-144475028D01*
X127403011Y-144475028D02*
X126688725Y-144475028D01*
X126688725Y-144475028D02*
X126688725Y-142975028D01*
X129260154Y-144475028D02*
X129117297Y-144403600D01*
X129117297Y-144403600D02*
X129045868Y-144260742D01*
X129045868Y-144260742D02*
X129045868Y-142975028D01*
X130403011Y-144403600D02*
X130260154Y-144475028D01*
X130260154Y-144475028D02*
X129974440Y-144475028D01*
X129974440Y-144475028D02*
X129831582Y-144403600D01*
X129831582Y-144403600D02*
X129760154Y-144260742D01*
X129760154Y-144260742D02*
X129760154Y-143689314D01*
X129760154Y-143689314D02*
X129831582Y-143546457D01*
X129831582Y-143546457D02*
X129974440Y-143475028D01*
X129974440Y-143475028D02*
X130260154Y-143475028D01*
X130260154Y-143475028D02*
X130403011Y-143546457D01*
X130403011Y-143546457D02*
X130474440Y-143689314D01*
X130474440Y-143689314D02*
X130474440Y-143832171D01*
X130474440Y-143832171D02*
X129760154Y-143975028D01*
X131760154Y-144475028D02*
X131760154Y-143689314D01*
X131760154Y-143689314D02*
X131688725Y-143546457D01*
X131688725Y-143546457D02*
X131545868Y-143475028D01*
X131545868Y-143475028D02*
X131260154Y-143475028D01*
X131260154Y-143475028D02*
X131117296Y-143546457D01*
X131760154Y-144403600D02*
X131617296Y-144475028D01*
X131617296Y-144475028D02*
X131260154Y-144475028D01*
X131260154Y-144475028D02*
X131117296Y-144403600D01*
X131117296Y-144403600D02*
X131045868Y-144260742D01*
X131045868Y-144260742D02*
X131045868Y-144117885D01*
X131045868Y-144117885D02*
X131117296Y-143975028D01*
X131117296Y-143975028D02*
X131260154Y-143903600D01*
X131260154Y-143903600D02*
X131617296Y-143903600D01*
X131617296Y-143903600D02*
X131760154Y-143832171D01*
X133117297Y-144475028D02*
X133117297Y-142975028D01*
X133117297Y-144403600D02*
X132974439Y-144475028D01*
X132974439Y-144475028D02*
X132688725Y-144475028D01*
X132688725Y-144475028D02*
X132545868Y-144403600D01*
X132545868Y-144403600D02*
X132474439Y-144332171D01*
X132474439Y-144332171D02*
X132403011Y-144189314D01*
X132403011Y-144189314D02*
X132403011Y-143760742D01*
X132403011Y-143760742D02*
X132474439Y-143617885D01*
X132474439Y-143617885D02*
X132545868Y-143546457D01*
X132545868Y-143546457D02*
X132688725Y-143475028D01*
X132688725Y-143475028D02*
X132974439Y-143475028D01*
X132974439Y-143475028D02*
X133117297Y-143546457D01*
X133831582Y-143903600D02*
X134974440Y-143903600D01*
X135474440Y-143475028D02*
X136045868Y-143475028D01*
X135688725Y-144475028D02*
X135688725Y-143189314D01*
X135688725Y-143189314D02*
X135760154Y-143046457D01*
X135760154Y-143046457D02*
X135903011Y-142975028D01*
X135903011Y-142975028D02*
X136045868Y-142975028D01*
X136545868Y-144475028D02*
X136545868Y-143475028D01*
X136545868Y-143760742D02*
X136617297Y-143617885D01*
X136617297Y-143617885D02*
X136688726Y-143546457D01*
X136688726Y-143546457D02*
X136831583Y-143475028D01*
X136831583Y-143475028D02*
X136974440Y-143475028D01*
X138045868Y-144403600D02*
X137903011Y-144475028D01*
X137903011Y-144475028D02*
X137617297Y-144475028D01*
X137617297Y-144475028D02*
X137474439Y-144403600D01*
X137474439Y-144403600D02*
X137403011Y-144260742D01*
X137403011Y-144260742D02*
X137403011Y-143689314D01*
X137403011Y-143689314D02*
X137474439Y-143546457D01*
X137474439Y-143546457D02*
X137617297Y-143475028D01*
X137617297Y-143475028D02*
X137903011Y-143475028D01*
X137903011Y-143475028D02*
X138045868Y-143546457D01*
X138045868Y-143546457D02*
X138117297Y-143689314D01*
X138117297Y-143689314D02*
X138117297Y-143832171D01*
X138117297Y-143832171D02*
X137403011Y-143975028D01*
X139331582Y-144403600D02*
X139188725Y-144475028D01*
X139188725Y-144475028D02*
X138903011Y-144475028D01*
X138903011Y-144475028D02*
X138760153Y-144403600D01*
X138760153Y-144403600D02*
X138688725Y-144260742D01*
X138688725Y-144260742D02*
X138688725Y-143689314D01*
X138688725Y-143689314D02*
X138760153Y-143546457D01*
X138760153Y-143546457D02*
X138903011Y-143475028D01*
X138903011Y-143475028D02*
X139188725Y-143475028D01*
X139188725Y-143475028D02*
X139331582Y-143546457D01*
X139331582Y-143546457D02*
X139403011Y-143689314D01*
X139403011Y-143689314D02*
X139403011Y-143832171D01*
X139403011Y-143832171D02*
X138688725Y-143975028D01*
X157988720Y-148432028D02*
X157988720Y-146932028D01*
X157988720Y-146932028D02*
X158560149Y-146932028D01*
X158560149Y-146932028D02*
X158703006Y-147003457D01*
X158703006Y-147003457D02*
X158774435Y-147074885D01*
X158774435Y-147074885D02*
X158845863Y-147217742D01*
X158845863Y-147217742D02*
X158845863Y-147432028D01*
X158845863Y-147432028D02*
X158774435Y-147574885D01*
X158774435Y-147574885D02*
X158703006Y-147646314D01*
X158703006Y-147646314D02*
X158560149Y-147717742D01*
X158560149Y-147717742D02*
X157988720Y-147717742D01*
X159703006Y-148432028D02*
X159560149Y-148360600D01*
X159560149Y-148360600D02*
X159488720Y-148217742D01*
X159488720Y-148217742D02*
X159488720Y-146932028D01*
X160917292Y-148432028D02*
X160917292Y-147646314D01*
X160917292Y-147646314D02*
X160845863Y-147503457D01*
X160845863Y-147503457D02*
X160703006Y-147432028D01*
X160703006Y-147432028D02*
X160417292Y-147432028D01*
X160417292Y-147432028D02*
X160274434Y-147503457D01*
X160917292Y-148360600D02*
X160774434Y-148432028D01*
X160774434Y-148432028D02*
X160417292Y-148432028D01*
X160417292Y-148432028D02*
X160274434Y-148360600D01*
X160274434Y-148360600D02*
X160203006Y-148217742D01*
X160203006Y-148217742D02*
X160203006Y-148074885D01*
X160203006Y-148074885D02*
X160274434Y-147932028D01*
X160274434Y-147932028D02*
X160417292Y-147860600D01*
X160417292Y-147860600D02*
X160774434Y-147860600D01*
X160774434Y-147860600D02*
X160917292Y-147789171D01*
X161417292Y-147432028D02*
X161988720Y-147432028D01*
X161631577Y-146932028D02*
X161631577Y-148217742D01*
X161631577Y-148217742D02*
X161703006Y-148360600D01*
X161703006Y-148360600D02*
X161845863Y-148432028D01*
X161845863Y-148432028D02*
X161988720Y-148432028D01*
X163060149Y-148360600D02*
X162917292Y-148432028D01*
X162917292Y-148432028D02*
X162631578Y-148432028D01*
X162631578Y-148432028D02*
X162488720Y-148360600D01*
X162488720Y-148360600D02*
X162417292Y-148217742D01*
X162417292Y-148217742D02*
X162417292Y-147646314D01*
X162417292Y-147646314D02*
X162488720Y-147503457D01*
X162488720Y-147503457D02*
X162631578Y-147432028D01*
X162631578Y-147432028D02*
X162917292Y-147432028D01*
X162917292Y-147432028D02*
X163060149Y-147503457D01*
X163060149Y-147503457D02*
X163131578Y-147646314D01*
X163131578Y-147646314D02*
X163131578Y-147789171D01*
X163131578Y-147789171D02*
X162417292Y-147932028D01*
X164417292Y-148432028D02*
X164417292Y-146932028D01*
X164417292Y-148360600D02*
X164274434Y-148432028D01*
X164274434Y-148432028D02*
X163988720Y-148432028D01*
X163988720Y-148432028D02*
X163845863Y-148360600D01*
X163845863Y-148360600D02*
X163774434Y-148289171D01*
X163774434Y-148289171D02*
X163703006Y-148146314D01*
X163703006Y-148146314D02*
X163703006Y-147717742D01*
X163703006Y-147717742D02*
X163774434Y-147574885D01*
X163774434Y-147574885D02*
X163845863Y-147503457D01*
X163845863Y-147503457D02*
X163988720Y-147432028D01*
X163988720Y-147432028D02*
X164274434Y-147432028D01*
X164274434Y-147432028D02*
X164417292Y-147503457D01*
X166774434Y-147646314D02*
X166988720Y-147717742D01*
X166988720Y-147717742D02*
X167060149Y-147789171D01*
X167060149Y-147789171D02*
X167131577Y-147932028D01*
X167131577Y-147932028D02*
X167131577Y-148146314D01*
X167131577Y-148146314D02*
X167060149Y-148289171D01*
X167060149Y-148289171D02*
X166988720Y-148360600D01*
X166988720Y-148360600D02*
X166845863Y-148432028D01*
X166845863Y-148432028D02*
X166274434Y-148432028D01*
X166274434Y-148432028D02*
X166274434Y-146932028D01*
X166274434Y-146932028D02*
X166774434Y-146932028D01*
X166774434Y-146932028D02*
X166917292Y-147003457D01*
X166917292Y-147003457D02*
X166988720Y-147074885D01*
X166988720Y-147074885D02*
X167060149Y-147217742D01*
X167060149Y-147217742D02*
X167060149Y-147360600D01*
X167060149Y-147360600D02*
X166988720Y-147503457D01*
X166988720Y-147503457D02*
X166917292Y-147574885D01*
X166917292Y-147574885D02*
X166774434Y-147646314D01*
X166774434Y-147646314D02*
X166274434Y-147646314D01*
X167988720Y-148432028D02*
X167845863Y-148360600D01*
X167845863Y-148360600D02*
X167774434Y-148289171D01*
X167774434Y-148289171D02*
X167703006Y-148146314D01*
X167703006Y-148146314D02*
X167703006Y-147717742D01*
X167703006Y-147717742D02*
X167774434Y-147574885D01*
X167774434Y-147574885D02*
X167845863Y-147503457D01*
X167845863Y-147503457D02*
X167988720Y-147432028D01*
X167988720Y-147432028D02*
X168203006Y-147432028D01*
X168203006Y-147432028D02*
X168345863Y-147503457D01*
X168345863Y-147503457D02*
X168417292Y-147574885D01*
X168417292Y-147574885D02*
X168488720Y-147717742D01*
X168488720Y-147717742D02*
X168488720Y-148146314D01*
X168488720Y-148146314D02*
X168417292Y-148289171D01*
X168417292Y-148289171D02*
X168345863Y-148360600D01*
X168345863Y-148360600D02*
X168203006Y-148432028D01*
X168203006Y-148432028D02*
X167988720Y-148432028D01*
X169774435Y-148432028D02*
X169774435Y-147646314D01*
X169774435Y-147646314D02*
X169703006Y-147503457D01*
X169703006Y-147503457D02*
X169560149Y-147432028D01*
X169560149Y-147432028D02*
X169274435Y-147432028D01*
X169274435Y-147432028D02*
X169131577Y-147503457D01*
X169774435Y-148360600D02*
X169631577Y-148432028D01*
X169631577Y-148432028D02*
X169274435Y-148432028D01*
X169274435Y-148432028D02*
X169131577Y-148360600D01*
X169131577Y-148360600D02*
X169060149Y-148217742D01*
X169060149Y-148217742D02*
X169060149Y-148074885D01*
X169060149Y-148074885D02*
X169131577Y-147932028D01*
X169131577Y-147932028D02*
X169274435Y-147860600D01*
X169274435Y-147860600D02*
X169631577Y-147860600D01*
X169631577Y-147860600D02*
X169774435Y-147789171D01*
X170488720Y-148432028D02*
X170488720Y-147432028D01*
X170488720Y-147717742D02*
X170560149Y-147574885D01*
X170560149Y-147574885D02*
X170631578Y-147503457D01*
X170631578Y-147503457D02*
X170774435Y-147432028D01*
X170774435Y-147432028D02*
X170917292Y-147432028D01*
X172060149Y-148432028D02*
X172060149Y-146932028D01*
X172060149Y-148360600D02*
X171917291Y-148432028D01*
X171917291Y-148432028D02*
X171631577Y-148432028D01*
X171631577Y-148432028D02*
X171488720Y-148360600D01*
X171488720Y-148360600D02*
X171417291Y-148289171D01*
X171417291Y-148289171D02*
X171345863Y-148146314D01*
X171345863Y-148146314D02*
X171345863Y-147717742D01*
X171345863Y-147717742D02*
X171417291Y-147574885D01*
X171417291Y-147574885D02*
X171488720Y-147503457D01*
X171488720Y-147503457D02*
X171631577Y-147432028D01*
X171631577Y-147432028D02*
X171917291Y-147432028D01*
X171917291Y-147432028D02*
X172060149Y-147503457D01*
X173917291Y-147646314D02*
X174417291Y-147646314D01*
X174631577Y-148432028D02*
X173917291Y-148432028D01*
X173917291Y-148432028D02*
X173917291Y-146932028D01*
X173917291Y-146932028D02*
X174631577Y-146932028D01*
X175917292Y-148432028D02*
X175917292Y-146932028D01*
X175917292Y-148360600D02*
X175774434Y-148432028D01*
X175774434Y-148432028D02*
X175488720Y-148432028D01*
X175488720Y-148432028D02*
X175345863Y-148360600D01*
X175345863Y-148360600D02*
X175274434Y-148289171D01*
X175274434Y-148289171D02*
X175203006Y-148146314D01*
X175203006Y-148146314D02*
X175203006Y-147717742D01*
X175203006Y-147717742D02*
X175274434Y-147574885D01*
X175274434Y-147574885D02*
X175345863Y-147503457D01*
X175345863Y-147503457D02*
X175488720Y-147432028D01*
X175488720Y-147432028D02*
X175774434Y-147432028D01*
X175774434Y-147432028D02*
X175917292Y-147503457D01*
X177274435Y-147432028D02*
X177274435Y-148646314D01*
X177274435Y-148646314D02*
X177203006Y-148789171D01*
X177203006Y-148789171D02*
X177131577Y-148860600D01*
X177131577Y-148860600D02*
X176988720Y-148932028D01*
X176988720Y-148932028D02*
X176774435Y-148932028D01*
X176774435Y-148932028D02*
X176631577Y-148860600D01*
X177274435Y-148360600D02*
X177131577Y-148432028D01*
X177131577Y-148432028D02*
X176845863Y-148432028D01*
X176845863Y-148432028D02*
X176703006Y-148360600D01*
X176703006Y-148360600D02*
X176631577Y-148289171D01*
X176631577Y-148289171D02*
X176560149Y-148146314D01*
X176560149Y-148146314D02*
X176560149Y-147717742D01*
X176560149Y-147717742D02*
X176631577Y-147574885D01*
X176631577Y-147574885D02*
X176703006Y-147503457D01*
X176703006Y-147503457D02*
X176845863Y-147432028D01*
X176845863Y-147432028D02*
X177131577Y-147432028D01*
X177131577Y-147432028D02*
X177274435Y-147503457D01*
X178560149Y-148360600D02*
X178417292Y-148432028D01*
X178417292Y-148432028D02*
X178131578Y-148432028D01*
X178131578Y-148432028D02*
X177988720Y-148360600D01*
X177988720Y-148360600D02*
X177917292Y-148217742D01*
X177917292Y-148217742D02*
X177917292Y-147646314D01*
X177917292Y-147646314D02*
X177988720Y-147503457D01*
X177988720Y-147503457D02*
X178131578Y-147432028D01*
X178131578Y-147432028D02*
X178417292Y-147432028D01*
X178417292Y-147432028D02*
X178560149Y-147503457D01*
X178560149Y-147503457D02*
X178631578Y-147646314D01*
X178631578Y-147646314D02*
X178631578Y-147789171D01*
X178631578Y-147789171D02*
X177917292Y-147932028D01*
X179274434Y-148289171D02*
X179345863Y-148360600D01*
X179345863Y-148360600D02*
X179274434Y-148432028D01*
X179274434Y-148432028D02*
X179203006Y-148360600D01*
X179203006Y-148360600D02*
X179274434Y-148289171D01*
X179274434Y-148289171D02*
X179274434Y-148432028D01*
X179274434Y-147503457D02*
X179345863Y-147574885D01*
X179345863Y-147574885D02*
X179274434Y-147646314D01*
X179274434Y-147646314D02*
X179203006Y-147574885D01*
X179203006Y-147574885D02*
X179274434Y-147503457D01*
X179274434Y-147503457D02*
X179274434Y-147646314D01*
X92031582Y-148289171D02*
X91960154Y-148360600D01*
X91960154Y-148360600D02*
X91745868Y-148432028D01*
X91745868Y-148432028D02*
X91603011Y-148432028D01*
X91603011Y-148432028D02*
X91388725Y-148360600D01*
X91388725Y-148360600D02*
X91245868Y-148217742D01*
X91245868Y-148217742D02*
X91174439Y-148074885D01*
X91174439Y-148074885D02*
X91103011Y-147789171D01*
X91103011Y-147789171D02*
X91103011Y-147574885D01*
X91103011Y-147574885D02*
X91174439Y-147289171D01*
X91174439Y-147289171D02*
X91245868Y-147146314D01*
X91245868Y-147146314D02*
X91388725Y-147003457D01*
X91388725Y-147003457D02*
X91603011Y-146932028D01*
X91603011Y-146932028D02*
X91745868Y-146932028D01*
X91745868Y-146932028D02*
X91960154Y-147003457D01*
X91960154Y-147003457D02*
X92031582Y-147074885D01*
X93317297Y-148432028D02*
X93317297Y-147646314D01*
X93317297Y-147646314D02*
X93245868Y-147503457D01*
X93245868Y-147503457D02*
X93103011Y-147432028D01*
X93103011Y-147432028D02*
X92817297Y-147432028D01*
X92817297Y-147432028D02*
X92674439Y-147503457D01*
X93317297Y-148360600D02*
X93174439Y-148432028D01*
X93174439Y-148432028D02*
X92817297Y-148432028D01*
X92817297Y-148432028D02*
X92674439Y-148360600D01*
X92674439Y-148360600D02*
X92603011Y-148217742D01*
X92603011Y-148217742D02*
X92603011Y-148074885D01*
X92603011Y-148074885D02*
X92674439Y-147932028D01*
X92674439Y-147932028D02*
X92817297Y-147860600D01*
X92817297Y-147860600D02*
X93174439Y-147860600D01*
X93174439Y-147860600D02*
X93317297Y-147789171D01*
X93960154Y-148360600D02*
X94103011Y-148432028D01*
X94103011Y-148432028D02*
X94388725Y-148432028D01*
X94388725Y-148432028D02*
X94531582Y-148360600D01*
X94531582Y-148360600D02*
X94603011Y-148217742D01*
X94603011Y-148217742D02*
X94603011Y-148146314D01*
X94603011Y-148146314D02*
X94531582Y-148003457D01*
X94531582Y-148003457D02*
X94388725Y-147932028D01*
X94388725Y-147932028D02*
X94174440Y-147932028D01*
X94174440Y-147932028D02*
X94031582Y-147860600D01*
X94031582Y-147860600D02*
X93960154Y-147717742D01*
X93960154Y-147717742D02*
X93960154Y-147646314D01*
X93960154Y-147646314D02*
X94031582Y-147503457D01*
X94031582Y-147503457D02*
X94174440Y-147432028D01*
X94174440Y-147432028D02*
X94388725Y-147432028D01*
X94388725Y-147432028D02*
X94531582Y-147503457D01*
X95031583Y-147432028D02*
X95603011Y-147432028D01*
X95245868Y-146932028D02*
X95245868Y-148217742D01*
X95245868Y-148217742D02*
X95317297Y-148360600D01*
X95317297Y-148360600D02*
X95460154Y-148432028D01*
X95460154Y-148432028D02*
X95603011Y-148432028D01*
X96674440Y-148360600D02*
X96531583Y-148432028D01*
X96531583Y-148432028D02*
X96245869Y-148432028D01*
X96245869Y-148432028D02*
X96103011Y-148360600D01*
X96103011Y-148360600D02*
X96031583Y-148217742D01*
X96031583Y-148217742D02*
X96031583Y-147646314D01*
X96031583Y-147646314D02*
X96103011Y-147503457D01*
X96103011Y-147503457D02*
X96245869Y-147432028D01*
X96245869Y-147432028D02*
X96531583Y-147432028D01*
X96531583Y-147432028D02*
X96674440Y-147503457D01*
X96674440Y-147503457D02*
X96745869Y-147646314D01*
X96745869Y-147646314D02*
X96745869Y-147789171D01*
X96745869Y-147789171D02*
X96031583Y-147932028D01*
X97603011Y-148432028D02*
X97460154Y-148360600D01*
X97460154Y-148360600D02*
X97388725Y-148217742D01*
X97388725Y-148217742D02*
X97388725Y-146932028D01*
X98388725Y-148432028D02*
X98245868Y-148360600D01*
X98245868Y-148360600D02*
X98174439Y-148217742D01*
X98174439Y-148217742D02*
X98174439Y-146932028D01*
X99603011Y-148432028D02*
X99603011Y-147646314D01*
X99603011Y-147646314D02*
X99531582Y-147503457D01*
X99531582Y-147503457D02*
X99388725Y-147432028D01*
X99388725Y-147432028D02*
X99103011Y-147432028D01*
X99103011Y-147432028D02*
X98960153Y-147503457D01*
X99603011Y-148360600D02*
X99460153Y-148432028D01*
X99460153Y-148432028D02*
X99103011Y-148432028D01*
X99103011Y-148432028D02*
X98960153Y-148360600D01*
X98960153Y-148360600D02*
X98888725Y-148217742D01*
X98888725Y-148217742D02*
X98888725Y-148074885D01*
X98888725Y-148074885D02*
X98960153Y-147932028D01*
X98960153Y-147932028D02*
X99103011Y-147860600D01*
X99103011Y-147860600D02*
X99460153Y-147860600D01*
X99460153Y-147860600D02*
X99603011Y-147789171D01*
X100103011Y-147432028D02*
X100674439Y-147432028D01*
X100317296Y-146932028D02*
X100317296Y-148217742D01*
X100317296Y-148217742D02*
X100388725Y-148360600D01*
X100388725Y-148360600D02*
X100531582Y-148432028D01*
X100531582Y-148432028D02*
X100674439Y-148432028D01*
X101745868Y-148360600D02*
X101603011Y-148432028D01*
X101603011Y-148432028D02*
X101317297Y-148432028D01*
X101317297Y-148432028D02*
X101174439Y-148360600D01*
X101174439Y-148360600D02*
X101103011Y-148217742D01*
X101103011Y-148217742D02*
X101103011Y-147646314D01*
X101103011Y-147646314D02*
X101174439Y-147503457D01*
X101174439Y-147503457D02*
X101317297Y-147432028D01*
X101317297Y-147432028D02*
X101603011Y-147432028D01*
X101603011Y-147432028D02*
X101745868Y-147503457D01*
X101745868Y-147503457D02*
X101817297Y-147646314D01*
X101817297Y-147646314D02*
X101817297Y-147789171D01*
X101817297Y-147789171D02*
X101103011Y-147932028D01*
X103103011Y-148432028D02*
X103103011Y-146932028D01*
X103103011Y-148360600D02*
X102960153Y-148432028D01*
X102960153Y-148432028D02*
X102674439Y-148432028D01*
X102674439Y-148432028D02*
X102531582Y-148360600D01*
X102531582Y-148360600D02*
X102460153Y-148289171D01*
X102460153Y-148289171D02*
X102388725Y-148146314D01*
X102388725Y-148146314D02*
X102388725Y-147717742D01*
X102388725Y-147717742D02*
X102460153Y-147574885D01*
X102460153Y-147574885D02*
X102531582Y-147503457D01*
X102531582Y-147503457D02*
X102674439Y-147432028D01*
X102674439Y-147432028D02*
X102960153Y-147432028D01*
X102960153Y-147432028D02*
X103103011Y-147503457D01*
X104960153Y-147432028D02*
X104960153Y-148932028D01*
X104960153Y-147503457D02*
X105103011Y-147432028D01*
X105103011Y-147432028D02*
X105388725Y-147432028D01*
X105388725Y-147432028D02*
X105531582Y-147503457D01*
X105531582Y-147503457D02*
X105603011Y-147574885D01*
X105603011Y-147574885D02*
X105674439Y-147717742D01*
X105674439Y-147717742D02*
X105674439Y-148146314D01*
X105674439Y-148146314D02*
X105603011Y-148289171D01*
X105603011Y-148289171D02*
X105531582Y-148360600D01*
X105531582Y-148360600D02*
X105388725Y-148432028D01*
X105388725Y-148432028D02*
X105103011Y-148432028D01*
X105103011Y-148432028D02*
X104960153Y-148360600D01*
X106960154Y-148432028D02*
X106960154Y-147646314D01*
X106960154Y-147646314D02*
X106888725Y-147503457D01*
X106888725Y-147503457D02*
X106745868Y-147432028D01*
X106745868Y-147432028D02*
X106460154Y-147432028D01*
X106460154Y-147432028D02*
X106317296Y-147503457D01*
X106960154Y-148360600D02*
X106817296Y-148432028D01*
X106817296Y-148432028D02*
X106460154Y-148432028D01*
X106460154Y-148432028D02*
X106317296Y-148360600D01*
X106317296Y-148360600D02*
X106245868Y-148217742D01*
X106245868Y-148217742D02*
X106245868Y-148074885D01*
X106245868Y-148074885D02*
X106317296Y-147932028D01*
X106317296Y-147932028D02*
X106460154Y-147860600D01*
X106460154Y-147860600D02*
X106817296Y-147860600D01*
X106817296Y-147860600D02*
X106960154Y-147789171D01*
X108317297Y-148432028D02*
X108317297Y-146932028D01*
X108317297Y-148360600D02*
X108174439Y-148432028D01*
X108174439Y-148432028D02*
X107888725Y-148432028D01*
X107888725Y-148432028D02*
X107745868Y-148360600D01*
X107745868Y-148360600D02*
X107674439Y-148289171D01*
X107674439Y-148289171D02*
X107603011Y-148146314D01*
X107603011Y-148146314D02*
X107603011Y-147717742D01*
X107603011Y-147717742D02*
X107674439Y-147574885D01*
X107674439Y-147574885D02*
X107745868Y-147503457D01*
X107745868Y-147503457D02*
X107888725Y-147432028D01*
X107888725Y-147432028D02*
X108174439Y-147432028D01*
X108174439Y-147432028D02*
X108317297Y-147503457D01*
X108960154Y-148360600D02*
X109103011Y-148432028D01*
X109103011Y-148432028D02*
X109388725Y-148432028D01*
X109388725Y-148432028D02*
X109531582Y-148360600D01*
X109531582Y-148360600D02*
X109603011Y-148217742D01*
X109603011Y-148217742D02*
X109603011Y-148146314D01*
X109603011Y-148146314D02*
X109531582Y-148003457D01*
X109531582Y-148003457D02*
X109388725Y-147932028D01*
X109388725Y-147932028D02*
X109174440Y-147932028D01*
X109174440Y-147932028D02*
X109031582Y-147860600D01*
X109031582Y-147860600D02*
X108960154Y-147717742D01*
X108960154Y-147717742D02*
X108960154Y-147646314D01*
X108960154Y-147646314D02*
X109031582Y-147503457D01*
X109031582Y-147503457D02*
X109174440Y-147432028D01*
X109174440Y-147432028D02*
X109388725Y-147432028D01*
X109388725Y-147432028D02*
X109531582Y-147503457D01*
X110245868Y-148289171D02*
X110317297Y-148360600D01*
X110317297Y-148360600D02*
X110245868Y-148432028D01*
X110245868Y-148432028D02*
X110174440Y-148360600D01*
X110174440Y-148360600D02*
X110245868Y-148289171D01*
X110245868Y-148289171D02*
X110245868Y-148432028D01*
X110245868Y-147503457D02*
X110317297Y-147574885D01*
X110317297Y-147574885D02*
X110245868Y-147646314D01*
X110245868Y-147646314D02*
X110174440Y-147574885D01*
X110174440Y-147574885D02*
X110245868Y-147503457D01*
X110245868Y-147503457D02*
X110245868Y-147646314D01*
X91674439Y-135775314D02*
X91888725Y-135846742D01*
X91888725Y-135846742D02*
X91960154Y-135918171D01*
X91960154Y-135918171D02*
X92031582Y-136061028D01*
X92031582Y-136061028D02*
X92031582Y-136275314D01*
X92031582Y-136275314D02*
X91960154Y-136418171D01*
X91960154Y-136418171D02*
X91888725Y-136489600D01*
X91888725Y-136489600D02*
X91745868Y-136561028D01*
X91745868Y-136561028D02*
X91174439Y-136561028D01*
X91174439Y-136561028D02*
X91174439Y-135061028D01*
X91174439Y-135061028D02*
X91674439Y-135061028D01*
X91674439Y-135061028D02*
X91817297Y-135132457D01*
X91817297Y-135132457D02*
X91888725Y-135203885D01*
X91888725Y-135203885D02*
X91960154Y-135346742D01*
X91960154Y-135346742D02*
X91960154Y-135489600D01*
X91960154Y-135489600D02*
X91888725Y-135632457D01*
X91888725Y-135632457D02*
X91817297Y-135703885D01*
X91817297Y-135703885D02*
X91674439Y-135775314D01*
X91674439Y-135775314D02*
X91174439Y-135775314D01*
X92888725Y-136561028D02*
X92745868Y-136489600D01*
X92745868Y-136489600D02*
X92674439Y-136418171D01*
X92674439Y-136418171D02*
X92603011Y-136275314D01*
X92603011Y-136275314D02*
X92603011Y-135846742D01*
X92603011Y-135846742D02*
X92674439Y-135703885D01*
X92674439Y-135703885D02*
X92745868Y-135632457D01*
X92745868Y-135632457D02*
X92888725Y-135561028D01*
X92888725Y-135561028D02*
X93103011Y-135561028D01*
X93103011Y-135561028D02*
X93245868Y-135632457D01*
X93245868Y-135632457D02*
X93317297Y-135703885D01*
X93317297Y-135703885D02*
X93388725Y-135846742D01*
X93388725Y-135846742D02*
X93388725Y-136275314D01*
X93388725Y-136275314D02*
X93317297Y-136418171D01*
X93317297Y-136418171D02*
X93245868Y-136489600D01*
X93245868Y-136489600D02*
X93103011Y-136561028D01*
X93103011Y-136561028D02*
X92888725Y-136561028D01*
X94674440Y-136561028D02*
X94674440Y-135775314D01*
X94674440Y-135775314D02*
X94603011Y-135632457D01*
X94603011Y-135632457D02*
X94460154Y-135561028D01*
X94460154Y-135561028D02*
X94174440Y-135561028D01*
X94174440Y-135561028D02*
X94031582Y-135632457D01*
X94674440Y-136489600D02*
X94531582Y-136561028D01*
X94531582Y-136561028D02*
X94174440Y-136561028D01*
X94174440Y-136561028D02*
X94031582Y-136489600D01*
X94031582Y-136489600D02*
X93960154Y-136346742D01*
X93960154Y-136346742D02*
X93960154Y-136203885D01*
X93960154Y-136203885D02*
X94031582Y-136061028D01*
X94031582Y-136061028D02*
X94174440Y-135989600D01*
X94174440Y-135989600D02*
X94531582Y-135989600D01*
X94531582Y-135989600D02*
X94674440Y-135918171D01*
X95388725Y-136561028D02*
X95388725Y-135561028D01*
X95388725Y-135846742D02*
X95460154Y-135703885D01*
X95460154Y-135703885D02*
X95531583Y-135632457D01*
X95531583Y-135632457D02*
X95674440Y-135561028D01*
X95674440Y-135561028D02*
X95817297Y-135561028D01*
X96960154Y-136561028D02*
X96960154Y-135061028D01*
X96960154Y-136489600D02*
X96817296Y-136561028D01*
X96817296Y-136561028D02*
X96531582Y-136561028D01*
X96531582Y-136561028D02*
X96388725Y-136489600D01*
X96388725Y-136489600D02*
X96317296Y-136418171D01*
X96317296Y-136418171D02*
X96245868Y-136275314D01*
X96245868Y-136275314D02*
X96245868Y-135846742D01*
X96245868Y-135846742D02*
X96317296Y-135703885D01*
X96317296Y-135703885D02*
X96388725Y-135632457D01*
X96388725Y-135632457D02*
X96531582Y-135561028D01*
X96531582Y-135561028D02*
X96817296Y-135561028D01*
X96817296Y-135561028D02*
X96960154Y-135632457D01*
X99031582Y-136561028D02*
X98888725Y-136489600D01*
X98888725Y-136489600D02*
X98817296Y-136418171D01*
X98817296Y-136418171D02*
X98745868Y-136275314D01*
X98745868Y-136275314D02*
X98745868Y-135846742D01*
X98745868Y-135846742D02*
X98817296Y-135703885D01*
X98817296Y-135703885D02*
X98888725Y-135632457D01*
X98888725Y-135632457D02*
X99031582Y-135561028D01*
X99031582Y-135561028D02*
X99245868Y-135561028D01*
X99245868Y-135561028D02*
X99388725Y-135632457D01*
X99388725Y-135632457D02*
X99460154Y-135703885D01*
X99460154Y-135703885D02*
X99531582Y-135846742D01*
X99531582Y-135846742D02*
X99531582Y-136275314D01*
X99531582Y-136275314D02*
X99460154Y-136418171D01*
X99460154Y-136418171D02*
X99388725Y-136489600D01*
X99388725Y-136489600D02*
X99245868Y-136561028D01*
X99245868Y-136561028D02*
X99031582Y-136561028D01*
X100031582Y-135561028D02*
X100388725Y-136561028D01*
X100388725Y-136561028D02*
X100745868Y-135561028D01*
X101888725Y-136489600D02*
X101745868Y-136561028D01*
X101745868Y-136561028D02*
X101460154Y-136561028D01*
X101460154Y-136561028D02*
X101317296Y-136489600D01*
X101317296Y-136489600D02*
X101245868Y-136346742D01*
X101245868Y-136346742D02*
X101245868Y-135775314D01*
X101245868Y-135775314D02*
X101317296Y-135632457D01*
X101317296Y-135632457D02*
X101460154Y-135561028D01*
X101460154Y-135561028D02*
X101745868Y-135561028D01*
X101745868Y-135561028D02*
X101888725Y-135632457D01*
X101888725Y-135632457D02*
X101960154Y-135775314D01*
X101960154Y-135775314D02*
X101960154Y-135918171D01*
X101960154Y-135918171D02*
X101245868Y-136061028D01*
X102603010Y-136561028D02*
X102603010Y-135561028D01*
X102603010Y-135846742D02*
X102674439Y-135703885D01*
X102674439Y-135703885D02*
X102745868Y-135632457D01*
X102745868Y-135632457D02*
X102888725Y-135561028D01*
X102888725Y-135561028D02*
X103031582Y-135561028D01*
X104174439Y-136561028D02*
X104174439Y-135775314D01*
X104174439Y-135775314D02*
X104103010Y-135632457D01*
X104103010Y-135632457D02*
X103960153Y-135561028D01*
X103960153Y-135561028D02*
X103674439Y-135561028D01*
X103674439Y-135561028D02*
X103531581Y-135632457D01*
X104174439Y-136489600D02*
X104031581Y-136561028D01*
X104031581Y-136561028D02*
X103674439Y-136561028D01*
X103674439Y-136561028D02*
X103531581Y-136489600D01*
X103531581Y-136489600D02*
X103460153Y-136346742D01*
X103460153Y-136346742D02*
X103460153Y-136203885D01*
X103460153Y-136203885D02*
X103531581Y-136061028D01*
X103531581Y-136061028D02*
X103674439Y-135989600D01*
X103674439Y-135989600D02*
X104031581Y-135989600D01*
X104031581Y-135989600D02*
X104174439Y-135918171D01*
X105103010Y-136561028D02*
X104960153Y-136489600D01*
X104960153Y-136489600D02*
X104888724Y-136346742D01*
X104888724Y-136346742D02*
X104888724Y-135061028D01*
X105888724Y-136561028D02*
X105745867Y-136489600D01*
X105745867Y-136489600D02*
X105674438Y-136346742D01*
X105674438Y-136346742D02*
X105674438Y-135061028D01*
X108245867Y-136561028D02*
X108245867Y-135061028D01*
X108245867Y-136489600D02*
X108103009Y-136561028D01*
X108103009Y-136561028D02*
X107817295Y-136561028D01*
X107817295Y-136561028D02*
X107674438Y-136489600D01*
X107674438Y-136489600D02*
X107603009Y-136418171D01*
X107603009Y-136418171D02*
X107531581Y-136275314D01*
X107531581Y-136275314D02*
X107531581Y-135846742D01*
X107531581Y-135846742D02*
X107603009Y-135703885D01*
X107603009Y-135703885D02*
X107674438Y-135632457D01*
X107674438Y-135632457D02*
X107817295Y-135561028D01*
X107817295Y-135561028D02*
X108103009Y-135561028D01*
X108103009Y-135561028D02*
X108245867Y-135632457D01*
X108960152Y-136561028D02*
X108960152Y-135561028D01*
X108960152Y-135061028D02*
X108888724Y-135132457D01*
X108888724Y-135132457D02*
X108960152Y-135203885D01*
X108960152Y-135203885D02*
X109031581Y-135132457D01*
X109031581Y-135132457D02*
X108960152Y-135061028D01*
X108960152Y-135061028D02*
X108960152Y-135203885D01*
X109674438Y-136561028D02*
X109674438Y-135561028D01*
X109674438Y-135703885D02*
X109745867Y-135632457D01*
X109745867Y-135632457D02*
X109888724Y-135561028D01*
X109888724Y-135561028D02*
X110103010Y-135561028D01*
X110103010Y-135561028D02*
X110245867Y-135632457D01*
X110245867Y-135632457D02*
X110317296Y-135775314D01*
X110317296Y-135775314D02*
X110317296Y-136561028D01*
X110317296Y-135775314D02*
X110388724Y-135632457D01*
X110388724Y-135632457D02*
X110531581Y-135561028D01*
X110531581Y-135561028D02*
X110745867Y-135561028D01*
X110745867Y-135561028D02*
X110888724Y-135632457D01*
X110888724Y-135632457D02*
X110960153Y-135775314D01*
X110960153Y-135775314D02*
X110960153Y-136561028D01*
X112245867Y-136489600D02*
X112103010Y-136561028D01*
X112103010Y-136561028D02*
X111817296Y-136561028D01*
X111817296Y-136561028D02*
X111674438Y-136489600D01*
X111674438Y-136489600D02*
X111603010Y-136346742D01*
X111603010Y-136346742D02*
X111603010Y-135775314D01*
X111603010Y-135775314D02*
X111674438Y-135632457D01*
X111674438Y-135632457D02*
X111817296Y-135561028D01*
X111817296Y-135561028D02*
X112103010Y-135561028D01*
X112103010Y-135561028D02*
X112245867Y-135632457D01*
X112245867Y-135632457D02*
X112317296Y-135775314D01*
X112317296Y-135775314D02*
X112317296Y-135918171D01*
X112317296Y-135918171D02*
X111603010Y-136061028D01*
X112960152Y-135561028D02*
X112960152Y-136561028D01*
X112960152Y-135703885D02*
X113031581Y-135632457D01*
X113031581Y-135632457D02*
X113174438Y-135561028D01*
X113174438Y-135561028D02*
X113388724Y-135561028D01*
X113388724Y-135561028D02*
X113531581Y-135632457D01*
X113531581Y-135632457D02*
X113603010Y-135775314D01*
X113603010Y-135775314D02*
X113603010Y-136561028D01*
X114245867Y-136489600D02*
X114388724Y-136561028D01*
X114388724Y-136561028D02*
X114674438Y-136561028D01*
X114674438Y-136561028D02*
X114817295Y-136489600D01*
X114817295Y-136489600D02*
X114888724Y-136346742D01*
X114888724Y-136346742D02*
X114888724Y-136275314D01*
X114888724Y-136275314D02*
X114817295Y-136132457D01*
X114817295Y-136132457D02*
X114674438Y-136061028D01*
X114674438Y-136061028D02*
X114460153Y-136061028D01*
X114460153Y-136061028D02*
X114317295Y-135989600D01*
X114317295Y-135989600D02*
X114245867Y-135846742D01*
X114245867Y-135846742D02*
X114245867Y-135775314D01*
X114245867Y-135775314D02*
X114317295Y-135632457D01*
X114317295Y-135632457D02*
X114460153Y-135561028D01*
X114460153Y-135561028D02*
X114674438Y-135561028D01*
X114674438Y-135561028D02*
X114817295Y-135632457D01*
X115531581Y-136561028D02*
X115531581Y-135561028D01*
X115531581Y-135061028D02*
X115460153Y-135132457D01*
X115460153Y-135132457D02*
X115531581Y-135203885D01*
X115531581Y-135203885D02*
X115603010Y-135132457D01*
X115603010Y-135132457D02*
X115531581Y-135061028D01*
X115531581Y-135061028D02*
X115531581Y-135203885D01*
X116460153Y-136561028D02*
X116317296Y-136489600D01*
X116317296Y-136489600D02*
X116245867Y-136418171D01*
X116245867Y-136418171D02*
X116174439Y-136275314D01*
X116174439Y-136275314D02*
X116174439Y-135846742D01*
X116174439Y-135846742D02*
X116245867Y-135703885D01*
X116245867Y-135703885D02*
X116317296Y-135632457D01*
X116317296Y-135632457D02*
X116460153Y-135561028D01*
X116460153Y-135561028D02*
X116674439Y-135561028D01*
X116674439Y-135561028D02*
X116817296Y-135632457D01*
X116817296Y-135632457D02*
X116888725Y-135703885D01*
X116888725Y-135703885D02*
X116960153Y-135846742D01*
X116960153Y-135846742D02*
X116960153Y-136275314D01*
X116960153Y-136275314D02*
X116888725Y-136418171D01*
X116888725Y-136418171D02*
X116817296Y-136489600D01*
X116817296Y-136489600D02*
X116674439Y-136561028D01*
X116674439Y-136561028D02*
X116460153Y-136561028D01*
X117603010Y-135561028D02*
X117603010Y-136561028D01*
X117603010Y-135703885D02*
X117674439Y-135632457D01*
X117674439Y-135632457D02*
X117817296Y-135561028D01*
X117817296Y-135561028D02*
X118031582Y-135561028D01*
X118031582Y-135561028D02*
X118174439Y-135632457D01*
X118174439Y-135632457D02*
X118245868Y-135775314D01*
X118245868Y-135775314D02*
X118245868Y-136561028D01*
X118888725Y-136489600D02*
X119031582Y-136561028D01*
X119031582Y-136561028D02*
X119317296Y-136561028D01*
X119317296Y-136561028D02*
X119460153Y-136489600D01*
X119460153Y-136489600D02*
X119531582Y-136346742D01*
X119531582Y-136346742D02*
X119531582Y-136275314D01*
X119531582Y-136275314D02*
X119460153Y-136132457D01*
X119460153Y-136132457D02*
X119317296Y-136061028D01*
X119317296Y-136061028D02*
X119103011Y-136061028D01*
X119103011Y-136061028D02*
X118960153Y-135989600D01*
X118960153Y-135989600D02*
X118888725Y-135846742D01*
X118888725Y-135846742D02*
X118888725Y-135775314D01*
X118888725Y-135775314D02*
X118960153Y-135632457D01*
X118960153Y-135632457D02*
X119103011Y-135561028D01*
X119103011Y-135561028D02*
X119317296Y-135561028D01*
X119317296Y-135561028D02*
X119460153Y-135632457D01*
X120174439Y-136418171D02*
X120245868Y-136489600D01*
X120245868Y-136489600D02*
X120174439Y-136561028D01*
X120174439Y-136561028D02*
X120103011Y-136489600D01*
X120103011Y-136489600D02*
X120174439Y-136418171D01*
X120174439Y-136418171D02*
X120174439Y-136561028D01*
X120174439Y-135632457D02*
X120245868Y-135703885D01*
X120245868Y-135703885D02*
X120174439Y-135775314D01*
X120174439Y-135775314D02*
X120103011Y-135703885D01*
X120103011Y-135703885D02*
X120174439Y-135632457D01*
X120174439Y-135632457D02*
X120174439Y-135775314D01*
D12*
X142904821Y-65484848D02*
X142888949Y-65500720D01*
X142888949Y-65500720D02*
X142841335Y-65516591D01*
X142841335Y-65516591D02*
X142809592Y-65516591D01*
X142809592Y-65516591D02*
X142761978Y-65500720D01*
X142761978Y-65500720D02*
X142730235Y-65468977D01*
X142730235Y-65468977D02*
X142714364Y-65437234D01*
X142714364Y-65437234D02*
X142698492Y-65373748D01*
X142698492Y-65373748D02*
X142698492Y-65326134D01*
X142698492Y-65326134D02*
X142714364Y-65262648D01*
X142714364Y-65262648D02*
X142730235Y-65230905D01*
X142730235Y-65230905D02*
X142761978Y-65199162D01*
X142761978Y-65199162D02*
X142809592Y-65183291D01*
X142809592Y-65183291D02*
X142841335Y-65183291D01*
X142841335Y-65183291D02*
X142888949Y-65199162D01*
X142888949Y-65199162D02*
X142904821Y-65215034D01*
X143095278Y-65516591D02*
X143063535Y-65500720D01*
X143063535Y-65500720D02*
X143047664Y-65484848D01*
X143047664Y-65484848D02*
X143031792Y-65453105D01*
X143031792Y-65453105D02*
X143031792Y-65357877D01*
X143031792Y-65357877D02*
X143047664Y-65326134D01*
X143047664Y-65326134D02*
X143063535Y-65310262D01*
X143063535Y-65310262D02*
X143095278Y-65294391D01*
X143095278Y-65294391D02*
X143142892Y-65294391D01*
X143142892Y-65294391D02*
X143174635Y-65310262D01*
X143174635Y-65310262D02*
X143190507Y-65326134D01*
X143190507Y-65326134D02*
X143206378Y-65357877D01*
X143206378Y-65357877D02*
X143206378Y-65453105D01*
X143206378Y-65453105D02*
X143190507Y-65484848D01*
X143190507Y-65484848D02*
X143174635Y-65500720D01*
X143174635Y-65500720D02*
X143142892Y-65516591D01*
X143142892Y-65516591D02*
X143095278Y-65516591D01*
X143349221Y-65294391D02*
X143349221Y-65627691D01*
X143349221Y-65310262D02*
X143380964Y-65294391D01*
X143380964Y-65294391D02*
X143444449Y-65294391D01*
X143444449Y-65294391D02*
X143476192Y-65310262D01*
X143476192Y-65310262D02*
X143492064Y-65326134D01*
X143492064Y-65326134D02*
X143507935Y-65357877D01*
X143507935Y-65357877D02*
X143507935Y-65453105D01*
X143507935Y-65453105D02*
X143492064Y-65484848D01*
X143492064Y-65484848D02*
X143476192Y-65500720D01*
X143476192Y-65500720D02*
X143444449Y-65516591D01*
X143444449Y-65516591D02*
X143380964Y-65516591D01*
X143380964Y-65516591D02*
X143349221Y-65500720D01*
X143650778Y-65294391D02*
X143650778Y-65627691D01*
X143650778Y-65310262D02*
X143682521Y-65294391D01*
X143682521Y-65294391D02*
X143746006Y-65294391D01*
X143746006Y-65294391D02*
X143777749Y-65310262D01*
X143777749Y-65310262D02*
X143793621Y-65326134D01*
X143793621Y-65326134D02*
X143809492Y-65357877D01*
X143809492Y-65357877D02*
X143809492Y-65453105D01*
X143809492Y-65453105D02*
X143793621Y-65484848D01*
X143793621Y-65484848D02*
X143777749Y-65500720D01*
X143777749Y-65500720D02*
X143746006Y-65516591D01*
X143746006Y-65516591D02*
X143682521Y-65516591D01*
X143682521Y-65516591D02*
X143650778Y-65500720D01*
X144079306Y-65500720D02*
X144047563Y-65516591D01*
X144047563Y-65516591D02*
X143984078Y-65516591D01*
X143984078Y-65516591D02*
X143952335Y-65500720D01*
X143952335Y-65500720D02*
X143936463Y-65468977D01*
X143936463Y-65468977D02*
X143936463Y-65342005D01*
X143936463Y-65342005D02*
X143952335Y-65310262D01*
X143952335Y-65310262D02*
X143984078Y-65294391D01*
X143984078Y-65294391D02*
X144047563Y-65294391D01*
X144047563Y-65294391D02*
X144079306Y-65310262D01*
X144079306Y-65310262D02*
X144095178Y-65342005D01*
X144095178Y-65342005D02*
X144095178Y-65373748D01*
X144095178Y-65373748D02*
X143936463Y-65405491D01*
X144238021Y-65516591D02*
X144238021Y-65294391D01*
X144238021Y-65357877D02*
X144253892Y-65326134D01*
X144253892Y-65326134D02*
X144269764Y-65310262D01*
X144269764Y-65310262D02*
X144301506Y-65294391D01*
X144301506Y-65294391D02*
X144333249Y-65294391D01*
X141976243Y-49834091D02*
X141976243Y-49500791D01*
X142166700Y-49834091D02*
X142023857Y-49643634D01*
X142166700Y-49500791D02*
X141976243Y-49691248D01*
X142436514Y-49818220D02*
X142404771Y-49834091D01*
X142404771Y-49834091D02*
X142341286Y-49834091D01*
X142341286Y-49834091D02*
X142309543Y-49818220D01*
X142309543Y-49818220D02*
X142293671Y-49786477D01*
X142293671Y-49786477D02*
X142293671Y-49659505D01*
X142293671Y-49659505D02*
X142309543Y-49627762D01*
X142309543Y-49627762D02*
X142341286Y-49611891D01*
X142341286Y-49611891D02*
X142404771Y-49611891D01*
X142404771Y-49611891D02*
X142436514Y-49627762D01*
X142436514Y-49627762D02*
X142452386Y-49659505D01*
X142452386Y-49659505D02*
X142452386Y-49691248D01*
X142452386Y-49691248D02*
X142293671Y-49722991D01*
X142722200Y-49818220D02*
X142690457Y-49834091D01*
X142690457Y-49834091D02*
X142626972Y-49834091D01*
X142626972Y-49834091D02*
X142595229Y-49818220D01*
X142595229Y-49818220D02*
X142579357Y-49786477D01*
X142579357Y-49786477D02*
X142579357Y-49659505D01*
X142579357Y-49659505D02*
X142595229Y-49627762D01*
X142595229Y-49627762D02*
X142626972Y-49611891D01*
X142626972Y-49611891D02*
X142690457Y-49611891D01*
X142690457Y-49611891D02*
X142722200Y-49627762D01*
X142722200Y-49627762D02*
X142738072Y-49659505D01*
X142738072Y-49659505D02*
X142738072Y-49691248D01*
X142738072Y-49691248D02*
X142579357Y-49722991D01*
X142880915Y-49611891D02*
X142880915Y-49945191D01*
X142880915Y-49627762D02*
X142912658Y-49611891D01*
X142912658Y-49611891D02*
X142976143Y-49611891D01*
X142976143Y-49611891D02*
X143007886Y-49627762D01*
X143007886Y-49627762D02*
X143023758Y-49643634D01*
X143023758Y-49643634D02*
X143039629Y-49675377D01*
X143039629Y-49675377D02*
X143039629Y-49770605D01*
X143039629Y-49770605D02*
X143023758Y-49802348D01*
X143023758Y-49802348D02*
X143007886Y-49818220D01*
X143007886Y-49818220D02*
X142976143Y-49834091D01*
X142976143Y-49834091D02*
X142912658Y-49834091D01*
X142912658Y-49834091D02*
X142880915Y-49818220D01*
X142976243Y-66151591D02*
X142976243Y-65818291D01*
X143166700Y-66151591D02*
X143023857Y-65961134D01*
X143166700Y-65818291D02*
X142976243Y-66008748D01*
X143436514Y-66135720D02*
X143404771Y-66151591D01*
X143404771Y-66151591D02*
X143341286Y-66151591D01*
X143341286Y-66151591D02*
X143309543Y-66135720D01*
X143309543Y-66135720D02*
X143293671Y-66103977D01*
X143293671Y-66103977D02*
X143293671Y-65977005D01*
X143293671Y-65977005D02*
X143309543Y-65945262D01*
X143309543Y-65945262D02*
X143341286Y-65929391D01*
X143341286Y-65929391D02*
X143404771Y-65929391D01*
X143404771Y-65929391D02*
X143436514Y-65945262D01*
X143436514Y-65945262D02*
X143452386Y-65977005D01*
X143452386Y-65977005D02*
X143452386Y-66008748D01*
X143452386Y-66008748D02*
X143293671Y-66040491D01*
X143722200Y-66135720D02*
X143690457Y-66151591D01*
X143690457Y-66151591D02*
X143626972Y-66151591D01*
X143626972Y-66151591D02*
X143595229Y-66135720D01*
X143595229Y-66135720D02*
X143579357Y-66103977D01*
X143579357Y-66103977D02*
X143579357Y-65977005D01*
X143579357Y-65977005D02*
X143595229Y-65945262D01*
X143595229Y-65945262D02*
X143626972Y-65929391D01*
X143626972Y-65929391D02*
X143690457Y-65929391D01*
X143690457Y-65929391D02*
X143722200Y-65945262D01*
X143722200Y-65945262D02*
X143738072Y-65977005D01*
X143738072Y-65977005D02*
X143738072Y-66008748D01*
X143738072Y-66008748D02*
X143579357Y-66040491D01*
X143880915Y-65929391D02*
X143880915Y-66262691D01*
X143880915Y-65945262D02*
X143912658Y-65929391D01*
X143912658Y-65929391D02*
X143976143Y-65929391D01*
X143976143Y-65929391D02*
X144007886Y-65945262D01*
X144007886Y-65945262D02*
X144023758Y-65961134D01*
X144023758Y-65961134D02*
X144039629Y-65992877D01*
X144039629Y-65992877D02*
X144039629Y-66088105D01*
X144039629Y-66088105D02*
X144023758Y-66119848D01*
X144023758Y-66119848D02*
X144007886Y-66135720D01*
X144007886Y-66135720D02*
X143976143Y-66151591D01*
X143976143Y-66151591D02*
X143912658Y-66151591D01*
X143912658Y-66151591D02*
X143880915Y-66135720D01*
X141904821Y-47137348D02*
X141888949Y-47153220D01*
X141888949Y-47153220D02*
X141841335Y-47169091D01*
X141841335Y-47169091D02*
X141809592Y-47169091D01*
X141809592Y-47169091D02*
X141761978Y-47153220D01*
X141761978Y-47153220D02*
X141730235Y-47121477D01*
X141730235Y-47121477D02*
X141714364Y-47089734D01*
X141714364Y-47089734D02*
X141698492Y-47026248D01*
X141698492Y-47026248D02*
X141698492Y-46978634D01*
X141698492Y-46978634D02*
X141714364Y-46915148D01*
X141714364Y-46915148D02*
X141730235Y-46883405D01*
X141730235Y-46883405D02*
X141761978Y-46851662D01*
X141761978Y-46851662D02*
X141809592Y-46835791D01*
X141809592Y-46835791D02*
X141841335Y-46835791D01*
X141841335Y-46835791D02*
X141888949Y-46851662D01*
X141888949Y-46851662D02*
X141904821Y-46867534D01*
X142095278Y-47169091D02*
X142063535Y-47153220D01*
X142063535Y-47153220D02*
X142047664Y-47137348D01*
X142047664Y-47137348D02*
X142031792Y-47105605D01*
X142031792Y-47105605D02*
X142031792Y-47010377D01*
X142031792Y-47010377D02*
X142047664Y-46978634D01*
X142047664Y-46978634D02*
X142063535Y-46962762D01*
X142063535Y-46962762D02*
X142095278Y-46946891D01*
X142095278Y-46946891D02*
X142142892Y-46946891D01*
X142142892Y-46946891D02*
X142174635Y-46962762D01*
X142174635Y-46962762D02*
X142190507Y-46978634D01*
X142190507Y-46978634D02*
X142206378Y-47010377D01*
X142206378Y-47010377D02*
X142206378Y-47105605D01*
X142206378Y-47105605D02*
X142190507Y-47137348D01*
X142190507Y-47137348D02*
X142174635Y-47153220D01*
X142174635Y-47153220D02*
X142142892Y-47169091D01*
X142142892Y-47169091D02*
X142095278Y-47169091D01*
X142349221Y-46946891D02*
X142349221Y-47280191D01*
X142349221Y-46962762D02*
X142380964Y-46946891D01*
X142380964Y-46946891D02*
X142444449Y-46946891D01*
X142444449Y-46946891D02*
X142476192Y-46962762D01*
X142476192Y-46962762D02*
X142492064Y-46978634D01*
X142492064Y-46978634D02*
X142507935Y-47010377D01*
X142507935Y-47010377D02*
X142507935Y-47105605D01*
X142507935Y-47105605D02*
X142492064Y-47137348D01*
X142492064Y-47137348D02*
X142476192Y-47153220D01*
X142476192Y-47153220D02*
X142444449Y-47169091D01*
X142444449Y-47169091D02*
X142380964Y-47169091D01*
X142380964Y-47169091D02*
X142349221Y-47153220D01*
X142650778Y-46946891D02*
X142650778Y-47280191D01*
X142650778Y-46962762D02*
X142682521Y-46946891D01*
X142682521Y-46946891D02*
X142746006Y-46946891D01*
X142746006Y-46946891D02*
X142777749Y-46962762D01*
X142777749Y-46962762D02*
X142793621Y-46978634D01*
X142793621Y-46978634D02*
X142809492Y-47010377D01*
X142809492Y-47010377D02*
X142809492Y-47105605D01*
X142809492Y-47105605D02*
X142793621Y-47137348D01*
X142793621Y-47137348D02*
X142777749Y-47153220D01*
X142777749Y-47153220D02*
X142746006Y-47169091D01*
X142746006Y-47169091D02*
X142682521Y-47169091D01*
X142682521Y-47169091D02*
X142650778Y-47153220D01*
X143079306Y-47153220D02*
X143047563Y-47169091D01*
X143047563Y-47169091D02*
X142984078Y-47169091D01*
X142984078Y-47169091D02*
X142952335Y-47153220D01*
X142952335Y-47153220D02*
X142936463Y-47121477D01*
X142936463Y-47121477D02*
X142936463Y-46994505D01*
X142936463Y-46994505D02*
X142952335Y-46962762D01*
X142952335Y-46962762D02*
X142984078Y-46946891D01*
X142984078Y-46946891D02*
X143047563Y-46946891D01*
X143047563Y-46946891D02*
X143079306Y-46962762D01*
X143079306Y-46962762D02*
X143095178Y-46994505D01*
X143095178Y-46994505D02*
X143095178Y-47026248D01*
X143095178Y-47026248D02*
X142936463Y-47057991D01*
X143238021Y-47169091D02*
X143238021Y-46946891D01*
X143238021Y-47010377D02*
X143253892Y-46978634D01*
X143253892Y-46978634D02*
X143269764Y-46962762D01*
X143269764Y-46962762D02*
X143301506Y-46946891D01*
X143301506Y-46946891D02*
X143333249Y-46946891D01*
X142222250Y-50135791D02*
X142285736Y-50135791D01*
X142285736Y-50135791D02*
X142317479Y-50151662D01*
X142317479Y-50151662D02*
X142349222Y-50183405D01*
X142349222Y-50183405D02*
X142365093Y-50246891D01*
X142365093Y-50246891D02*
X142365093Y-50357991D01*
X142365093Y-50357991D02*
X142349222Y-50421477D01*
X142349222Y-50421477D02*
X142317479Y-50453220D01*
X142317479Y-50453220D02*
X142285736Y-50469091D01*
X142285736Y-50469091D02*
X142222250Y-50469091D01*
X142222250Y-50469091D02*
X142190508Y-50453220D01*
X142190508Y-50453220D02*
X142158765Y-50421477D01*
X142158765Y-50421477D02*
X142142893Y-50357991D01*
X142142893Y-50357991D02*
X142142893Y-50246891D01*
X142142893Y-50246891D02*
X142158765Y-50183405D01*
X142158765Y-50183405D02*
X142190508Y-50151662D01*
X142190508Y-50151662D02*
X142222250Y-50135791D01*
X142650779Y-50246891D02*
X142650779Y-50469091D01*
X142507936Y-50246891D02*
X142507936Y-50421477D01*
X142507936Y-50421477D02*
X142523807Y-50453220D01*
X142523807Y-50453220D02*
X142555550Y-50469091D01*
X142555550Y-50469091D02*
X142603164Y-50469091D01*
X142603164Y-50469091D02*
X142634907Y-50453220D01*
X142634907Y-50453220D02*
X142650779Y-50437348D01*
X142761878Y-50246891D02*
X142888850Y-50246891D01*
X142809493Y-50135791D02*
X142809493Y-50421477D01*
X142809493Y-50421477D02*
X142825364Y-50453220D01*
X142825364Y-50453220D02*
X142857107Y-50469091D01*
X142857107Y-50469091D02*
X142888850Y-50469091D01*
X141563586Y-46359505D02*
X141674686Y-46359505D01*
X141722300Y-46534091D02*
X141563586Y-46534091D01*
X141563586Y-46534091D02*
X141563586Y-46200791D01*
X141563586Y-46200791D02*
X141722300Y-46200791D01*
X141833400Y-46534091D02*
X142007986Y-46311891D01*
X141833400Y-46311891D02*
X142007986Y-46534091D01*
X142134957Y-46311891D02*
X142134957Y-46645191D01*
X142134957Y-46327762D02*
X142166700Y-46311891D01*
X142166700Y-46311891D02*
X142230185Y-46311891D01*
X142230185Y-46311891D02*
X142261928Y-46327762D01*
X142261928Y-46327762D02*
X142277800Y-46343634D01*
X142277800Y-46343634D02*
X142293671Y-46375377D01*
X142293671Y-46375377D02*
X142293671Y-46470605D01*
X142293671Y-46470605D02*
X142277800Y-46502348D01*
X142277800Y-46502348D02*
X142261928Y-46518220D01*
X142261928Y-46518220D02*
X142230185Y-46534091D01*
X142230185Y-46534091D02*
X142166700Y-46534091D01*
X142166700Y-46534091D02*
X142134957Y-46518220D01*
X142484128Y-46534091D02*
X142452385Y-46518220D01*
X142452385Y-46518220D02*
X142436514Y-46502348D01*
X142436514Y-46502348D02*
X142420642Y-46470605D01*
X142420642Y-46470605D02*
X142420642Y-46375377D01*
X142420642Y-46375377D02*
X142436514Y-46343634D01*
X142436514Y-46343634D02*
X142452385Y-46327762D01*
X142452385Y-46327762D02*
X142484128Y-46311891D01*
X142484128Y-46311891D02*
X142531742Y-46311891D01*
X142531742Y-46311891D02*
X142563485Y-46327762D01*
X142563485Y-46327762D02*
X142579357Y-46343634D01*
X142579357Y-46343634D02*
X142595228Y-46375377D01*
X142595228Y-46375377D02*
X142595228Y-46470605D01*
X142595228Y-46470605D02*
X142579357Y-46502348D01*
X142579357Y-46502348D02*
X142563485Y-46518220D01*
X142563485Y-46518220D02*
X142531742Y-46534091D01*
X142531742Y-46534091D02*
X142484128Y-46534091D01*
X142722199Y-46518220D02*
X142753942Y-46534091D01*
X142753942Y-46534091D02*
X142817428Y-46534091D01*
X142817428Y-46534091D02*
X142849171Y-46518220D01*
X142849171Y-46518220D02*
X142865042Y-46486477D01*
X142865042Y-46486477D02*
X142865042Y-46470605D01*
X142865042Y-46470605D02*
X142849171Y-46438862D01*
X142849171Y-46438862D02*
X142817428Y-46422991D01*
X142817428Y-46422991D02*
X142769814Y-46422991D01*
X142769814Y-46422991D02*
X142738071Y-46407120D01*
X142738071Y-46407120D02*
X142722199Y-46375377D01*
X142722199Y-46375377D02*
X142722199Y-46359505D01*
X142722199Y-46359505D02*
X142738071Y-46327762D01*
X142738071Y-46327762D02*
X142769814Y-46311891D01*
X142769814Y-46311891D02*
X142817428Y-46311891D01*
X142817428Y-46311891D02*
X142849171Y-46327762D01*
X143134856Y-46518220D02*
X143103113Y-46534091D01*
X143103113Y-46534091D02*
X143039628Y-46534091D01*
X143039628Y-46534091D02*
X143007885Y-46518220D01*
X143007885Y-46518220D02*
X142992013Y-46486477D01*
X142992013Y-46486477D02*
X142992013Y-46359505D01*
X142992013Y-46359505D02*
X143007885Y-46327762D01*
X143007885Y-46327762D02*
X143039628Y-46311891D01*
X143039628Y-46311891D02*
X143103113Y-46311891D01*
X143103113Y-46311891D02*
X143134856Y-46327762D01*
X143134856Y-46327762D02*
X143150728Y-46359505D01*
X143150728Y-46359505D02*
X143150728Y-46391248D01*
X143150728Y-46391248D02*
X142992013Y-46422991D01*
X143436414Y-46534091D02*
X143436414Y-46200791D01*
X143436414Y-46518220D02*
X143404671Y-46534091D01*
X143404671Y-46534091D02*
X143341185Y-46534091D01*
X143341185Y-46534091D02*
X143309442Y-46518220D01*
X143309442Y-46518220D02*
X143293571Y-46502348D01*
X143293571Y-46502348D02*
X143277699Y-46470605D01*
X143277699Y-46470605D02*
X143277699Y-46375377D01*
X143277699Y-46375377D02*
X143293571Y-46343634D01*
X143293571Y-46343634D02*
X143309442Y-46327762D01*
X143309442Y-46327762D02*
X143341185Y-46311891D01*
X143341185Y-46311891D02*
X143404671Y-46311891D01*
X143404671Y-46311891D02*
X143436414Y-46327762D01*
D13*
X147664552Y-65499046D02*
X147664552Y-65260951D01*
X147807409Y-65546665D02*
X147307409Y-65379999D01*
X147307409Y-65379999D02*
X147807409Y-65213332D01*
X147331219Y-64784761D02*
X147307409Y-64832380D01*
X147307409Y-64832380D02*
X147307409Y-64903809D01*
X147307409Y-64903809D02*
X147331219Y-64975237D01*
X147331219Y-64975237D02*
X147378838Y-65022856D01*
X147378838Y-65022856D02*
X147426457Y-65046666D01*
X147426457Y-65046666D02*
X147521695Y-65070475D01*
X147521695Y-65070475D02*
X147593123Y-65070475D01*
X147593123Y-65070475D02*
X147688361Y-65046666D01*
X147688361Y-65046666D02*
X147735980Y-65022856D01*
X147735980Y-65022856D02*
X147783600Y-64975237D01*
X147783600Y-64975237D02*
X147807409Y-64903809D01*
X147807409Y-64903809D02*
X147807409Y-64856190D01*
X147807409Y-64856190D02*
X147783600Y-64784761D01*
X147783600Y-64784761D02*
X147759790Y-64760952D01*
X147759790Y-64760952D02*
X147593123Y-64760952D01*
X147593123Y-64760952D02*
X147593123Y-64856190D01*
X147807409Y-64546666D02*
X147307409Y-64546666D01*
X147307409Y-64546666D02*
X147807409Y-64260952D01*
X147807409Y-64260952D02*
X147307409Y-64260952D01*
X147807409Y-64022856D02*
X147307409Y-64022856D01*
X147307409Y-64022856D02*
X147307409Y-63903808D01*
X147307409Y-63903808D02*
X147331219Y-63832380D01*
X147331219Y-63832380D02*
X147378838Y-63784761D01*
X147378838Y-63784761D02*
X147426457Y-63760951D01*
X147426457Y-63760951D02*
X147521695Y-63737142D01*
X147521695Y-63737142D02*
X147593123Y-63737142D01*
X147593123Y-63737142D02*
X147688361Y-63760951D01*
X147688361Y-63760951D02*
X147735980Y-63784761D01*
X147735980Y-63784761D02*
X147783600Y-63832380D01*
X147783600Y-63832380D02*
X147807409Y-63903808D01*
X147807409Y-63903808D02*
X147807409Y-64022856D01*
X147807409Y-63141904D02*
X147307409Y-63141904D01*
X147307409Y-63141904D02*
X147307409Y-62951428D01*
X147307409Y-62951428D02*
X147331219Y-62903809D01*
X147331219Y-62903809D02*
X147355028Y-62879999D01*
X147355028Y-62879999D02*
X147402647Y-62856190D01*
X147402647Y-62856190D02*
X147474076Y-62856190D01*
X147474076Y-62856190D02*
X147521695Y-62879999D01*
X147521695Y-62879999D02*
X147545504Y-62903809D01*
X147545504Y-62903809D02*
X147569314Y-62951428D01*
X147569314Y-62951428D02*
X147569314Y-63141904D01*
X147807409Y-62570475D02*
X147783600Y-62618094D01*
X147783600Y-62618094D02*
X147735980Y-62641904D01*
X147735980Y-62641904D02*
X147307409Y-62641904D01*
X147807409Y-62165713D02*
X147545504Y-62165713D01*
X147545504Y-62165713D02*
X147497885Y-62189523D01*
X147497885Y-62189523D02*
X147474076Y-62237142D01*
X147474076Y-62237142D02*
X147474076Y-62332380D01*
X147474076Y-62332380D02*
X147497885Y-62379999D01*
X147783600Y-62165713D02*
X147807409Y-62213332D01*
X147807409Y-62213332D02*
X147807409Y-62332380D01*
X147807409Y-62332380D02*
X147783600Y-62379999D01*
X147783600Y-62379999D02*
X147735980Y-62403808D01*
X147735980Y-62403808D02*
X147688361Y-62403808D01*
X147688361Y-62403808D02*
X147640742Y-62379999D01*
X147640742Y-62379999D02*
X147616933Y-62332380D01*
X147616933Y-62332380D02*
X147616933Y-62213332D01*
X147616933Y-62213332D02*
X147593123Y-62165713D01*
X147474076Y-61927618D02*
X147807409Y-61927618D01*
X147521695Y-61927618D02*
X147497885Y-61903808D01*
X147497885Y-61903808D02*
X147474076Y-61856189D01*
X147474076Y-61856189D02*
X147474076Y-61784761D01*
X147474076Y-61784761D02*
X147497885Y-61737142D01*
X147497885Y-61737142D02*
X147545504Y-61713332D01*
X147545504Y-61713332D02*
X147807409Y-61713332D01*
X147783600Y-61284761D02*
X147807409Y-61332380D01*
X147807409Y-61332380D02*
X147807409Y-61427618D01*
X147807409Y-61427618D02*
X147783600Y-61475237D01*
X147783600Y-61475237D02*
X147735980Y-61499046D01*
X147735980Y-61499046D02*
X147545504Y-61499046D01*
X147545504Y-61499046D02*
X147497885Y-61475237D01*
X147497885Y-61475237D02*
X147474076Y-61427618D01*
X147474076Y-61427618D02*
X147474076Y-61332380D01*
X147474076Y-61332380D02*
X147497885Y-61284761D01*
X147497885Y-61284761D02*
X147545504Y-61260951D01*
X147545504Y-61260951D02*
X147593123Y-61260951D01*
X147593123Y-61260951D02*
X147640742Y-61499046D01*
D14*
X139285714Y-35259819D02*
X139285714Y-34259819D01*
X139857142Y-35259819D02*
X139428571Y-34688390D01*
X139857142Y-34259819D02*
X139285714Y-34831247D01*
X140666666Y-35212200D02*
X140571428Y-35259819D01*
X140571428Y-35259819D02*
X140380952Y-35259819D01*
X140380952Y-35259819D02*
X140285714Y-35212200D01*
X140285714Y-35212200D02*
X140238095Y-35116961D01*
X140238095Y-35116961D02*
X140238095Y-34736009D01*
X140238095Y-34736009D02*
X140285714Y-34640771D01*
X140285714Y-34640771D02*
X140380952Y-34593152D01*
X140380952Y-34593152D02*
X140571428Y-34593152D01*
X140571428Y-34593152D02*
X140666666Y-34640771D01*
X140666666Y-34640771D02*
X140714285Y-34736009D01*
X140714285Y-34736009D02*
X140714285Y-34831247D01*
X140714285Y-34831247D02*
X140238095Y-34926485D01*
X141523809Y-35212200D02*
X141428571Y-35259819D01*
X141428571Y-35259819D02*
X141238095Y-35259819D01*
X141238095Y-35259819D02*
X141142857Y-35212200D01*
X141142857Y-35212200D02*
X141095238Y-35116961D01*
X141095238Y-35116961D02*
X141095238Y-34736009D01*
X141095238Y-34736009D02*
X141142857Y-34640771D01*
X141142857Y-34640771D02*
X141238095Y-34593152D01*
X141238095Y-34593152D02*
X141428571Y-34593152D01*
X141428571Y-34593152D02*
X141523809Y-34640771D01*
X141523809Y-34640771D02*
X141571428Y-34736009D01*
X141571428Y-34736009D02*
X141571428Y-34831247D01*
X141571428Y-34831247D02*
X141095238Y-34926485D01*
X142000000Y-34593152D02*
X142000000Y-35593152D01*
X142000000Y-34640771D02*
X142095238Y-34593152D01*
X142095238Y-34593152D02*
X142285714Y-34593152D01*
X142285714Y-34593152D02*
X142380952Y-34640771D01*
X142380952Y-34640771D02*
X142428571Y-34688390D01*
X142428571Y-34688390D02*
X142476190Y-34783628D01*
X142476190Y-34783628D02*
X142476190Y-35069342D01*
X142476190Y-35069342D02*
X142428571Y-35164580D01*
X142428571Y-35164580D02*
X142380952Y-35212200D01*
X142380952Y-35212200D02*
X142285714Y-35259819D01*
X142285714Y-35259819D02*
X142095238Y-35259819D01*
X142095238Y-35259819D02*
X142000000Y-35212200D01*
X143857143Y-34259819D02*
X144047619Y-34259819D01*
X144047619Y-34259819D02*
X144142857Y-34307438D01*
X144142857Y-34307438D02*
X144238095Y-34402676D01*
X144238095Y-34402676D02*
X144285714Y-34593152D01*
X144285714Y-34593152D02*
X144285714Y-34926485D01*
X144285714Y-34926485D02*
X144238095Y-35116961D01*
X144238095Y-35116961D02*
X144142857Y-35212200D01*
X144142857Y-35212200D02*
X144047619Y-35259819D01*
X144047619Y-35259819D02*
X143857143Y-35259819D01*
X143857143Y-35259819D02*
X143761905Y-35212200D01*
X143761905Y-35212200D02*
X143666667Y-35116961D01*
X143666667Y-35116961D02*
X143619048Y-34926485D01*
X143619048Y-34926485D02*
X143619048Y-34593152D01*
X143619048Y-34593152D02*
X143666667Y-34402676D01*
X143666667Y-34402676D02*
X143761905Y-34307438D01*
X143761905Y-34307438D02*
X143857143Y-34259819D01*
X145142857Y-34593152D02*
X145142857Y-35259819D01*
X144714286Y-34593152D02*
X144714286Y-35116961D01*
X144714286Y-35116961D02*
X144761905Y-35212200D01*
X144761905Y-35212200D02*
X144857143Y-35259819D01*
X144857143Y-35259819D02*
X145000000Y-35259819D01*
X145000000Y-35259819D02*
X145095238Y-35212200D01*
X145095238Y-35212200D02*
X145142857Y-35164580D01*
X145476191Y-34593152D02*
X145857143Y-34593152D01*
X145619048Y-34259819D02*
X145619048Y-35116961D01*
X145619048Y-35116961D02*
X145666667Y-35212200D01*
X145666667Y-35212200D02*
X145761905Y-35259819D01*
X145761905Y-35259819D02*
X145857143Y-35259819D01*
X138761904Y-31719819D02*
X138761904Y-32529342D01*
X138761904Y-32529342D02*
X138809523Y-32624580D01*
X138809523Y-32624580D02*
X138857142Y-32672200D01*
X138857142Y-32672200D02*
X138952380Y-32719819D01*
X138952380Y-32719819D02*
X139142856Y-32719819D01*
X139142856Y-32719819D02*
X139238094Y-32672200D01*
X139238094Y-32672200D02*
X139285713Y-32624580D01*
X139285713Y-32624580D02*
X139333332Y-32529342D01*
X139333332Y-32529342D02*
X139333332Y-31719819D01*
X139761904Y-32672200D02*
X139904761Y-32719819D01*
X139904761Y-32719819D02*
X140142856Y-32719819D01*
X140142856Y-32719819D02*
X140238094Y-32672200D01*
X140238094Y-32672200D02*
X140285713Y-32624580D01*
X140285713Y-32624580D02*
X140333332Y-32529342D01*
X140333332Y-32529342D02*
X140333332Y-32434104D01*
X140333332Y-32434104D02*
X140285713Y-32338866D01*
X140285713Y-32338866D02*
X140238094Y-32291247D01*
X140238094Y-32291247D02*
X140142856Y-32243628D01*
X140142856Y-32243628D02*
X139952380Y-32196009D01*
X139952380Y-32196009D02*
X139857142Y-32148390D01*
X139857142Y-32148390D02*
X139809523Y-32100771D01*
X139809523Y-32100771D02*
X139761904Y-32005533D01*
X139761904Y-32005533D02*
X139761904Y-31910295D01*
X139761904Y-31910295D02*
X139809523Y-31815057D01*
X139809523Y-31815057D02*
X139857142Y-31767438D01*
X139857142Y-31767438D02*
X139952380Y-31719819D01*
X139952380Y-31719819D02*
X140190475Y-31719819D01*
X140190475Y-31719819D02*
X140333332Y-31767438D01*
X141095237Y-32196009D02*
X141238094Y-32243628D01*
X141238094Y-32243628D02*
X141285713Y-32291247D01*
X141285713Y-32291247D02*
X141333332Y-32386485D01*
X141333332Y-32386485D02*
X141333332Y-32529342D01*
X141333332Y-32529342D02*
X141285713Y-32624580D01*
X141285713Y-32624580D02*
X141238094Y-32672200D01*
X141238094Y-32672200D02*
X141142856Y-32719819D01*
X141142856Y-32719819D02*
X140761904Y-32719819D01*
X140761904Y-32719819D02*
X140761904Y-31719819D01*
X140761904Y-31719819D02*
X141095237Y-31719819D01*
X141095237Y-31719819D02*
X141190475Y-31767438D01*
X141190475Y-31767438D02*
X141238094Y-31815057D01*
X141238094Y-31815057D02*
X141285713Y-31910295D01*
X141285713Y-31910295D02*
X141285713Y-32005533D01*
X141285713Y-32005533D02*
X141238094Y-32100771D01*
X141238094Y-32100771D02*
X141190475Y-32148390D01*
X141190475Y-32148390D02*
X141095237Y-32196009D01*
X141095237Y-32196009D02*
X140761904Y-32196009D01*
X143095237Y-32624580D02*
X143047618Y-32672200D01*
X143047618Y-32672200D02*
X142904761Y-32719819D01*
X142904761Y-32719819D02*
X142809523Y-32719819D01*
X142809523Y-32719819D02*
X142666666Y-32672200D01*
X142666666Y-32672200D02*
X142571428Y-32576961D01*
X142571428Y-32576961D02*
X142523809Y-32481723D01*
X142523809Y-32481723D02*
X142476190Y-32291247D01*
X142476190Y-32291247D02*
X142476190Y-32148390D01*
X142476190Y-32148390D02*
X142523809Y-31957914D01*
X142523809Y-31957914D02*
X142571428Y-31862676D01*
X142571428Y-31862676D02*
X142666666Y-31767438D01*
X142666666Y-31767438D02*
X142809523Y-31719819D01*
X142809523Y-31719819D02*
X142904761Y-31719819D01*
X142904761Y-31719819D02*
X143047618Y-31767438D01*
X143047618Y-31767438D02*
X143095237Y-31815057D01*
X143952380Y-32719819D02*
X143952380Y-32196009D01*
X143952380Y-32196009D02*
X143904761Y-32100771D01*
X143904761Y-32100771D02*
X143809523Y-32053152D01*
X143809523Y-32053152D02*
X143619047Y-32053152D01*
X143619047Y-32053152D02*
X143523809Y-32100771D01*
X143952380Y-32672200D02*
X143857142Y-32719819D01*
X143857142Y-32719819D02*
X143619047Y-32719819D01*
X143619047Y-32719819D02*
X143523809Y-32672200D01*
X143523809Y-32672200D02*
X143476190Y-32576961D01*
X143476190Y-32576961D02*
X143476190Y-32481723D01*
X143476190Y-32481723D02*
X143523809Y-32386485D01*
X143523809Y-32386485D02*
X143619047Y-32338866D01*
X143619047Y-32338866D02*
X143857142Y-32338866D01*
X143857142Y-32338866D02*
X143952380Y-32291247D01*
X144428571Y-32719819D02*
X144428571Y-31719819D01*
X144428571Y-32100771D02*
X144523809Y-32053152D01*
X144523809Y-32053152D02*
X144714285Y-32053152D01*
X144714285Y-32053152D02*
X144809523Y-32100771D01*
X144809523Y-32100771D02*
X144857142Y-32148390D01*
X144857142Y-32148390D02*
X144904761Y-32243628D01*
X144904761Y-32243628D02*
X144904761Y-32529342D01*
X144904761Y-32529342D02*
X144857142Y-32624580D01*
X144857142Y-32624580D02*
X144809523Y-32672200D01*
X144809523Y-32672200D02*
X144714285Y-32719819D01*
X144714285Y-32719819D02*
X144523809Y-32719819D01*
X144523809Y-32719819D02*
X144428571Y-32672200D01*
X145476190Y-32719819D02*
X145380952Y-32672200D01*
X145380952Y-32672200D02*
X145333333Y-32576961D01*
X145333333Y-32576961D02*
X145333333Y-31719819D01*
X146238095Y-32672200D02*
X146142857Y-32719819D01*
X146142857Y-32719819D02*
X145952381Y-32719819D01*
X145952381Y-32719819D02*
X145857143Y-32672200D01*
X145857143Y-32672200D02*
X145809524Y-32576961D01*
X145809524Y-32576961D02*
X145809524Y-32196009D01*
X145809524Y-32196009D02*
X145857143Y-32100771D01*
X145857143Y-32100771D02*
X145952381Y-32053152D01*
X145952381Y-32053152D02*
X146142857Y-32053152D01*
X146142857Y-32053152D02*
X146238095Y-32100771D01*
X146238095Y-32100771D02*
X146285714Y-32196009D01*
X146285714Y-32196009D02*
X146285714Y-32291247D01*
X146285714Y-32291247D02*
X145809524Y-32386485D01*
D12*
X143222250Y-66453291D02*
X143285736Y-66453291D01*
X143285736Y-66453291D02*
X143317479Y-66469162D01*
X143317479Y-66469162D02*
X143349222Y-66500905D01*
X143349222Y-66500905D02*
X143365093Y-66564391D01*
X143365093Y-66564391D02*
X143365093Y-66675491D01*
X143365093Y-66675491D02*
X143349222Y-66738977D01*
X143349222Y-66738977D02*
X143317479Y-66770720D01*
X143317479Y-66770720D02*
X143285736Y-66786591D01*
X143285736Y-66786591D02*
X143222250Y-66786591D01*
X143222250Y-66786591D02*
X143190508Y-66770720D01*
X143190508Y-66770720D02*
X143158765Y-66738977D01*
X143158765Y-66738977D02*
X143142893Y-66675491D01*
X143142893Y-66675491D02*
X143142893Y-66564391D01*
X143142893Y-66564391D02*
X143158765Y-66500905D01*
X143158765Y-66500905D02*
X143190508Y-66469162D01*
X143190508Y-66469162D02*
X143222250Y-66453291D01*
X143650779Y-66564391D02*
X143650779Y-66786591D01*
X143507936Y-66564391D02*
X143507936Y-66738977D01*
X143507936Y-66738977D02*
X143523807Y-66770720D01*
X143523807Y-66770720D02*
X143555550Y-66786591D01*
X143555550Y-66786591D02*
X143603164Y-66786591D01*
X143603164Y-66786591D02*
X143634907Y-66770720D01*
X143634907Y-66770720D02*
X143650779Y-66754848D01*
X143761878Y-66564391D02*
X143888850Y-66564391D01*
X143809493Y-66453291D02*
X143809493Y-66738977D01*
X143809493Y-66738977D02*
X143825364Y-66770720D01*
X143825364Y-66770720D02*
X143857107Y-66786591D01*
X143857107Y-66786591D02*
X143888850Y-66786591D01*
X139977005Y-59956027D02*
X139977005Y-59844927D01*
X140151591Y-59797313D02*
X140151591Y-59956027D01*
X140151591Y-59956027D02*
X139818291Y-59956027D01*
X139818291Y-59956027D02*
X139818291Y-59797313D01*
X140151591Y-59686213D02*
X139929391Y-59511628D01*
X139929391Y-59686213D02*
X140151591Y-59511628D01*
X139929391Y-59384656D02*
X140262691Y-59384656D01*
X139945262Y-59384656D02*
X139929391Y-59352914D01*
X139929391Y-59352914D02*
X139929391Y-59289428D01*
X139929391Y-59289428D02*
X139945262Y-59257685D01*
X139945262Y-59257685D02*
X139961134Y-59241814D01*
X139961134Y-59241814D02*
X139992877Y-59225942D01*
X139992877Y-59225942D02*
X140088105Y-59225942D01*
X140088105Y-59225942D02*
X140119848Y-59241814D01*
X140119848Y-59241814D02*
X140135720Y-59257685D01*
X140135720Y-59257685D02*
X140151591Y-59289428D01*
X140151591Y-59289428D02*
X140151591Y-59352914D01*
X140151591Y-59352914D02*
X140135720Y-59384656D01*
X140151591Y-59035485D02*
X140135720Y-59067228D01*
X140135720Y-59067228D02*
X140119848Y-59083099D01*
X140119848Y-59083099D02*
X140088105Y-59098971D01*
X140088105Y-59098971D02*
X139992877Y-59098971D01*
X139992877Y-59098971D02*
X139961134Y-59083099D01*
X139961134Y-59083099D02*
X139945262Y-59067228D01*
X139945262Y-59067228D02*
X139929391Y-59035485D01*
X139929391Y-59035485D02*
X139929391Y-58987871D01*
X139929391Y-58987871D02*
X139945262Y-58956128D01*
X139945262Y-58956128D02*
X139961134Y-58940257D01*
X139961134Y-58940257D02*
X139992877Y-58924385D01*
X139992877Y-58924385D02*
X140088105Y-58924385D01*
X140088105Y-58924385D02*
X140119848Y-58940257D01*
X140119848Y-58940257D02*
X140135720Y-58956128D01*
X140135720Y-58956128D02*
X140151591Y-58987871D01*
X140151591Y-58987871D02*
X140151591Y-59035485D01*
X140135720Y-58797414D02*
X140151591Y-58765671D01*
X140151591Y-58765671D02*
X140151591Y-58702185D01*
X140151591Y-58702185D02*
X140135720Y-58670442D01*
X140135720Y-58670442D02*
X140103977Y-58654571D01*
X140103977Y-58654571D02*
X140088105Y-58654571D01*
X140088105Y-58654571D02*
X140056362Y-58670442D01*
X140056362Y-58670442D02*
X140040491Y-58702185D01*
X140040491Y-58702185D02*
X140040491Y-58749800D01*
X140040491Y-58749800D02*
X140024620Y-58781542D01*
X140024620Y-58781542D02*
X139992877Y-58797414D01*
X139992877Y-58797414D02*
X139977005Y-58797414D01*
X139977005Y-58797414D02*
X139945262Y-58781542D01*
X139945262Y-58781542D02*
X139929391Y-58749800D01*
X139929391Y-58749800D02*
X139929391Y-58702185D01*
X139929391Y-58702185D02*
X139945262Y-58670442D01*
X140135720Y-58384757D02*
X140151591Y-58416500D01*
X140151591Y-58416500D02*
X140151591Y-58479986D01*
X140151591Y-58479986D02*
X140135720Y-58511728D01*
X140135720Y-58511728D02*
X140103977Y-58527600D01*
X140103977Y-58527600D02*
X139977005Y-58527600D01*
X139977005Y-58527600D02*
X139945262Y-58511728D01*
X139945262Y-58511728D02*
X139929391Y-58479986D01*
X139929391Y-58479986D02*
X139929391Y-58416500D01*
X139929391Y-58416500D02*
X139945262Y-58384757D01*
X139945262Y-58384757D02*
X139977005Y-58368886D01*
X139977005Y-58368886D02*
X140008748Y-58368886D01*
X140008748Y-58368886D02*
X140040491Y-58527600D01*
X140151591Y-58083200D02*
X139818291Y-58083200D01*
X140135720Y-58083200D02*
X140151591Y-58114942D01*
X140151591Y-58114942D02*
X140151591Y-58178428D01*
X140151591Y-58178428D02*
X140135720Y-58210171D01*
X140135720Y-58210171D02*
X140119848Y-58226042D01*
X140119848Y-58226042D02*
X140088105Y-58241914D01*
X140088105Y-58241914D02*
X139992877Y-58241914D01*
X139992877Y-58241914D02*
X139961134Y-58226042D01*
X139961134Y-58226042D02*
X139945262Y-58210171D01*
X139945262Y-58210171D02*
X139929391Y-58178428D01*
X139929391Y-58178428D02*
X139929391Y-58114942D01*
X139929391Y-58114942D02*
X139945262Y-58083200D01*
X140119848Y-57480085D02*
X140135720Y-57495957D01*
X140135720Y-57495957D02*
X140151591Y-57543571D01*
X140151591Y-57543571D02*
X140151591Y-57575314D01*
X140151591Y-57575314D02*
X140135720Y-57622928D01*
X140135720Y-57622928D02*
X140103977Y-57654671D01*
X140103977Y-57654671D02*
X140072234Y-57670542D01*
X140072234Y-57670542D02*
X140008748Y-57686414D01*
X140008748Y-57686414D02*
X139961134Y-57686414D01*
X139961134Y-57686414D02*
X139897648Y-57670542D01*
X139897648Y-57670542D02*
X139865905Y-57654671D01*
X139865905Y-57654671D02*
X139834162Y-57622928D01*
X139834162Y-57622928D02*
X139818291Y-57575314D01*
X139818291Y-57575314D02*
X139818291Y-57543571D01*
X139818291Y-57543571D02*
X139834162Y-57495957D01*
X139834162Y-57495957D02*
X139850034Y-57480085D01*
X140151591Y-57289628D02*
X140135720Y-57321371D01*
X140135720Y-57321371D02*
X140119848Y-57337242D01*
X140119848Y-57337242D02*
X140088105Y-57353114D01*
X140088105Y-57353114D02*
X139992877Y-57353114D01*
X139992877Y-57353114D02*
X139961134Y-57337242D01*
X139961134Y-57337242D02*
X139945262Y-57321371D01*
X139945262Y-57321371D02*
X139929391Y-57289628D01*
X139929391Y-57289628D02*
X139929391Y-57242014D01*
X139929391Y-57242014D02*
X139945262Y-57210271D01*
X139945262Y-57210271D02*
X139961134Y-57194400D01*
X139961134Y-57194400D02*
X139992877Y-57178528D01*
X139992877Y-57178528D02*
X140088105Y-57178528D01*
X140088105Y-57178528D02*
X140119848Y-57194400D01*
X140119848Y-57194400D02*
X140135720Y-57210271D01*
X140135720Y-57210271D02*
X140151591Y-57242014D01*
X140151591Y-57242014D02*
X140151591Y-57289628D01*
X139929391Y-57035685D02*
X140262691Y-57035685D01*
X139945262Y-57035685D02*
X139929391Y-57003943D01*
X139929391Y-57003943D02*
X139929391Y-56940457D01*
X139929391Y-56940457D02*
X139945262Y-56908714D01*
X139945262Y-56908714D02*
X139961134Y-56892843D01*
X139961134Y-56892843D02*
X139992877Y-56876971D01*
X139992877Y-56876971D02*
X140088105Y-56876971D01*
X140088105Y-56876971D02*
X140119848Y-56892843D01*
X140119848Y-56892843D02*
X140135720Y-56908714D01*
X140135720Y-56908714D02*
X140151591Y-56940457D01*
X140151591Y-56940457D02*
X140151591Y-57003943D01*
X140151591Y-57003943D02*
X140135720Y-57035685D01*
X139929391Y-56734128D02*
X140262691Y-56734128D01*
X139945262Y-56734128D02*
X139929391Y-56702386D01*
X139929391Y-56702386D02*
X139929391Y-56638900D01*
X139929391Y-56638900D02*
X139945262Y-56607157D01*
X139945262Y-56607157D02*
X139961134Y-56591286D01*
X139961134Y-56591286D02*
X139992877Y-56575414D01*
X139992877Y-56575414D02*
X140088105Y-56575414D01*
X140088105Y-56575414D02*
X140119848Y-56591286D01*
X140119848Y-56591286D02*
X140135720Y-56607157D01*
X140135720Y-56607157D02*
X140151591Y-56638900D01*
X140151591Y-56638900D02*
X140151591Y-56702386D01*
X140151591Y-56702386D02*
X140135720Y-56734128D01*
X140135720Y-56305600D02*
X140151591Y-56337343D01*
X140151591Y-56337343D02*
X140151591Y-56400829D01*
X140151591Y-56400829D02*
X140135720Y-56432571D01*
X140135720Y-56432571D02*
X140103977Y-56448443D01*
X140103977Y-56448443D02*
X139977005Y-56448443D01*
X139977005Y-56448443D02*
X139945262Y-56432571D01*
X139945262Y-56432571D02*
X139929391Y-56400829D01*
X139929391Y-56400829D02*
X139929391Y-56337343D01*
X139929391Y-56337343D02*
X139945262Y-56305600D01*
X139945262Y-56305600D02*
X139977005Y-56289729D01*
X139977005Y-56289729D02*
X140008748Y-56289729D01*
X140008748Y-56289729D02*
X140040491Y-56448443D01*
X140151591Y-56146885D02*
X139929391Y-56146885D01*
X139992877Y-56146885D02*
X139961134Y-56131014D01*
X139961134Y-56131014D02*
X139945262Y-56115143D01*
X139945262Y-56115143D02*
X139929391Y-56083400D01*
X139929391Y-56083400D02*
X139929391Y-56051657D01*
X140151591Y-55686613D02*
X139818291Y-55686613D01*
X140151591Y-55496156D02*
X139961134Y-55638999D01*
X139818291Y-55496156D02*
X140008748Y-55686613D01*
X140135720Y-55226342D02*
X140151591Y-55258085D01*
X140151591Y-55258085D02*
X140151591Y-55321571D01*
X140151591Y-55321571D02*
X140135720Y-55353313D01*
X140135720Y-55353313D02*
X140103977Y-55369185D01*
X140103977Y-55369185D02*
X139977005Y-55369185D01*
X139977005Y-55369185D02*
X139945262Y-55353313D01*
X139945262Y-55353313D02*
X139929391Y-55321571D01*
X139929391Y-55321571D02*
X139929391Y-55258085D01*
X139929391Y-55258085D02*
X139945262Y-55226342D01*
X139945262Y-55226342D02*
X139977005Y-55210471D01*
X139977005Y-55210471D02*
X140008748Y-55210471D01*
X140008748Y-55210471D02*
X140040491Y-55369185D01*
X140135720Y-54940656D02*
X140151591Y-54972399D01*
X140151591Y-54972399D02*
X140151591Y-55035885D01*
X140151591Y-55035885D02*
X140135720Y-55067627D01*
X140135720Y-55067627D02*
X140103977Y-55083499D01*
X140103977Y-55083499D02*
X139977005Y-55083499D01*
X139977005Y-55083499D02*
X139945262Y-55067627D01*
X139945262Y-55067627D02*
X139929391Y-55035885D01*
X139929391Y-55035885D02*
X139929391Y-54972399D01*
X139929391Y-54972399D02*
X139945262Y-54940656D01*
X139945262Y-54940656D02*
X139977005Y-54924785D01*
X139977005Y-54924785D02*
X140008748Y-54924785D01*
X140008748Y-54924785D02*
X140040491Y-55083499D01*
X139929391Y-54781941D02*
X140262691Y-54781941D01*
X139945262Y-54781941D02*
X139929391Y-54750199D01*
X139929391Y-54750199D02*
X139929391Y-54686713D01*
X139929391Y-54686713D02*
X139945262Y-54654970D01*
X139945262Y-54654970D02*
X139961134Y-54639099D01*
X139961134Y-54639099D02*
X139992877Y-54623227D01*
X139992877Y-54623227D02*
X140088105Y-54623227D01*
X140088105Y-54623227D02*
X140119848Y-54639099D01*
X140119848Y-54639099D02*
X140135720Y-54654970D01*
X140135720Y-54654970D02*
X140151591Y-54686713D01*
X140151591Y-54686713D02*
X140151591Y-54750199D01*
X140151591Y-54750199D02*
X140135720Y-54781941D01*
X139818291Y-54162956D02*
X139818291Y-54099470D01*
X139818291Y-54099470D02*
X139834162Y-54067727D01*
X139834162Y-54067727D02*
X139865905Y-54035984D01*
X139865905Y-54035984D02*
X139929391Y-54020113D01*
X139929391Y-54020113D02*
X140040491Y-54020113D01*
X140040491Y-54020113D02*
X140103977Y-54035984D01*
X140103977Y-54035984D02*
X140135720Y-54067727D01*
X140135720Y-54067727D02*
X140151591Y-54099470D01*
X140151591Y-54099470D02*
X140151591Y-54162956D01*
X140151591Y-54162956D02*
X140135720Y-54194699D01*
X140135720Y-54194699D02*
X140103977Y-54226441D01*
X140103977Y-54226441D02*
X140040491Y-54242313D01*
X140040491Y-54242313D02*
X139929391Y-54242313D01*
X139929391Y-54242313D02*
X139865905Y-54226441D01*
X139865905Y-54226441D02*
X139834162Y-54194699D01*
X139834162Y-54194699D02*
X139818291Y-54162956D01*
X139929391Y-53734428D02*
X140151591Y-53734428D01*
X139929391Y-53877270D02*
X140103977Y-53877270D01*
X140103977Y-53877270D02*
X140135720Y-53861399D01*
X140135720Y-53861399D02*
X140151591Y-53829656D01*
X140151591Y-53829656D02*
X140151591Y-53782042D01*
X140151591Y-53782042D02*
X140135720Y-53750299D01*
X140135720Y-53750299D02*
X140119848Y-53734428D01*
X139929391Y-53623328D02*
X139929391Y-53496356D01*
X139818291Y-53575713D02*
X140103977Y-53575713D01*
X140103977Y-53575713D02*
X140135720Y-53559842D01*
X140135720Y-53559842D02*
X140151591Y-53528099D01*
X140151591Y-53528099D02*
X140151591Y-53496356D01*
D14*
%TO.C,H4*%
X114700000Y-49000000D02*
G75*
G02*
X108300000Y-49000000I-3200000J0D01*
G01*
X108300000Y-49000000D02*
G75*
G02*
X114700000Y-49000000I3200000J0D01*
G01*
%TO.C,H1*%
X176700000Y-49000000D02*
G75*
G02*
X170300000Y-49000000I-3200000J0D01*
G01*
X170300000Y-49000000D02*
G75*
G02*
X176700000Y-49000000I3200000J0D01*
G01*
%TO.C,H2*%
X114700000Y-116000000D02*
G75*
G02*
X108300000Y-116000000I-3200000J0D01*
G01*
X108300000Y-116000000D02*
G75*
G02*
X114700000Y-116000000I3200000J0D01*
G01*
%TO.C,H3*%
X176700000Y-116000000D02*
G75*
G02*
X170300000Y-116000000I-3200000J0D01*
G01*
X170300000Y-116000000D02*
G75*
G02*
X176700000Y-116000000I3200000J0D01*
G01*
%TD*%
M02*
