M48
; DRILL file {KiCad 9.0.5-1.fc42} date 2025-11-14T19:16:13+1030
; FORMAT={-:-/ absolute / metric / decimal}
; #@! TF.CreationDate,2025-11-14T19:16:13+10:30
; #@! TF.GenerationSoftware,Kicad,Pcbnew,9.0.5-1.fc42
; #@! TF.FileFunction,Plated,1,2,PTH
FMAT,2
METRIC
; #@! TA.AperFunction,Plated,PTH,ViaDrill
T1C0.400
; #@! TA.AperFunction,Plated,PTH,ComponentDrill
T2C0.500
; #@! TA.AperFunction,Plated,PTH,ComponentDrill
T3C3.200
%
G90
G05
T1
X109.0Y-56.0
X109.0Y-74.0
X109.0Y-75.5
X109.0Y-89.5
X109.0Y-91.0
X109.0Y-109.0
X109.5Y-69.5
X109.5Y-70.5
X109.5Y-85.0
X109.5Y-86.0
X109.5Y-104.5
X109.5Y-105.5
X110.0Y-56.0
X110.0Y-74.0
X110.0Y-75.5
X110.0Y-89.5
X110.0Y-91.0
X110.0Y-109.0
X111.0Y-54.0
X111.0Y-56.0
X111.0Y-74.0
X111.0Y-75.5
X111.0Y-89.5
X111.0Y-91.0
X111.0Y-109.0
X111.0Y-111.0
X112.0Y-56.0
X112.0Y-74.0
X112.0Y-75.5
X112.0Y-89.5
X112.0Y-91.0
X112.0Y-109.0
X113.0Y-56.0
X113.0Y-57.0
X113.0Y-58.0
X113.0Y-72.0
X113.0Y-73.0
X113.0Y-74.0
X113.0Y-75.5
X113.0Y-76.5
X113.0Y-77.5
X113.0Y-87.5
X113.0Y-88.5
X113.0Y-89.5
X113.0Y-91.0
X113.0Y-92.0
X113.0Y-93.0
X113.0Y-107.0
X113.0Y-108.0
X113.0Y-109.0
X114.0Y-54.0
X114.0Y-111.0
X116.5Y-69.5
X116.5Y-70.5
X116.5Y-85.0
X116.5Y-86.0
X116.5Y-104.5
X116.5Y-105.5
X117.0Y-48.0
X117.0Y-108.0
X117.0Y-111.0
X117.0Y-114.0
X117.0Y-117.0
X118.0Y-51.0
X118.25Y-56.0
X118.5Y-82.5
X120.0Y-46.0
X120.0Y-49.0
X120.0Y-53.0
X120.0Y-57.0
X120.0Y-66.0
X120.0Y-102.0
X120.0Y-105.0
X120.0Y-108.0
X120.0Y-111.0
X120.0Y-114.0
X120.0Y-117.0
X120.25Y-60.0
X120.25Y-75.5
X121.25Y-80.0
X122.0Y-93.0
X122.0Y-96.0
X122.0Y-99.0
X123.0Y-46.0
X123.0Y-48.0
X123.0Y-51.0
X123.0Y-53.0
X123.0Y-55.5
X123.0Y-58.0
X123.0Y-61.0
X123.0Y-63.0
X123.0Y-66.0
X123.0Y-71.0
X123.0Y-73.5
X123.0Y-76.0
X123.0Y-78.5
X123.0Y-81.0
X123.0Y-90.0
X123.0Y-102.0
X123.0Y-105.0
X123.0Y-108.0
X123.0Y-111.0
X123.0Y-114.0
X123.0Y-117.0
X123.25Y-85.0
X123.75Y-93.0
X123.75Y-96.0
X123.75Y-99.0
X124.5Y-86.25
X125.75Y-102.0
X126.0Y-51.0
X126.0Y-53.0
X126.0Y-58.0
X126.0Y-63.0
X126.0Y-66.0
X126.0Y-71.0
X126.0Y-76.0
X126.0Y-78.5
X126.0Y-83.5
X126.0Y-88.0
X126.0Y-91.0
X126.0Y-96.0
X126.0Y-99.0
X126.0Y-105.0
X126.0Y-108.0
X126.0Y-111.0
X126.0Y-114.0
X126.0Y-117.0
X128.25Y-102.0
X128.75Y-105.0
X129.0Y-46.0
X129.0Y-51.0
X129.0Y-53.0
X129.0Y-58.0
X129.0Y-63.0
X129.0Y-66.0
X129.0Y-71.0
X129.0Y-76.0
X129.0Y-78.5
X129.0Y-83.5
X129.0Y-90.0
X129.0Y-99.0
X129.0Y-108.0
X129.0Y-111.0
X129.0Y-114.0
X129.0Y-117.0
X130.32Y-51.42
X130.32Y-52.436
X130.32Y-64.12
X130.32Y-65.136
X130.32Y-76.82
X130.32Y-77.836
X130.32Y-89.52
X130.32Y-90.536
X131.25Y-105.0
X132.0Y-99.0
X132.0Y-102.0
X132.0Y-108.0
X132.0Y-111.0
X132.0Y-114.0
X132.0Y-117.0
X134.5Y-114.5
X134.5Y-115.5
X134.5Y-116.5
X134.5Y-117.5
X134.5Y-118.5
X135.0Y-71.0
X135.0Y-99.0
X135.0Y-102.0
X135.0Y-105.0
X135.0Y-107.25
X135.0Y-109.0
X135.0Y-111.0
X135.4Y-51.42
X135.4Y-52.436
X135.4Y-64.12
X135.4Y-65.136
X135.4Y-76.82
X135.4Y-77.836
X135.4Y-89.52
X135.4Y-90.536
X135.5Y-114.5
X135.75Y-61.25
X136.5Y-114.5
X138.0Y-48.0
X138.0Y-66.0
X138.0Y-69.0
X138.0Y-72.0
X138.0Y-78.0
X138.0Y-82.0
X138.0Y-87.0
X138.0Y-93.0
X138.0Y-96.0
X138.0Y-99.0
X138.25Y-107.5
X138.5Y-52.0
X138.5Y-102.5
X138.5Y-103.5
X138.5Y-104.5
X138.5Y-105.5
X139.5Y-102.5
X139.5Y-105.5
X139.5Y-111.0
X140.0Y-84.0
X140.5Y-102.5
X140.5Y-105.5
X141.0Y-72.0
X141.0Y-75.0
X141.0Y-90.0
X141.5Y-111.0
X141.75Y-66.0
X141.75Y-84.0
X141.75Y-87.0
X142.0Y-108.0
X142.004Y-93.076
X142.004Y-98.156
X142.5Y-48.25
X142.5Y-105.2
X143.02Y-93.076
X143.02Y-98.156
X143.02Y-108.0
X143.5Y-111.0
X144.0Y-54.0
X144.0Y-63.0
X144.0Y-69.0
X144.0Y-72.0
X144.0Y-75.0
X144.0Y-84.0
X144.0Y-87.0
X144.0Y-90.25
X144.5Y-80.5
X144.5Y-102.5
X144.5Y-105.5
X145.5Y-102.5
X145.5Y-105.5
X146.0Y-111.0
X146.0Y-118.0
X146.5Y-77.0
X146.5Y-80.0
X146.5Y-102.5
X146.5Y-103.5
X146.5Y-104.5
X146.5Y-105.5
X147.0Y-48.0
X147.0Y-51.0
X147.0Y-54.0
X147.0Y-60.0
X147.0Y-63.0
X147.0Y-66.0
X147.0Y-69.0
X147.0Y-72.0
X147.0Y-75.0
X147.0Y-84.0
X147.0Y-90.0
X147.0Y-93.0
X147.0Y-96.0
X147.0Y-99.0
X147.0Y-108.0
X147.0Y-111.0
X147.0Y-118.0
X148.5Y-114.5
X149.5Y-82.5
X149.5Y-114.5
X149.624Y-51.42
X149.624Y-52.436
X149.624Y-64.12
X149.624Y-65.136
X149.624Y-76.82
X149.624Y-77.836
X149.624Y-89.52
X149.624Y-90.536
X150.0Y-48.0
X150.0Y-99.0
X150.0Y-102.0
X150.0Y-105.0
X150.0Y-108.0
X150.0Y-111.0
X150.25Y-73.5
X150.5Y-114.5
X150.5Y-115.5
X150.5Y-116.5
X150.5Y-117.5
X150.5Y-118.5
X152.25Y-99.0
X152.25Y-102.0
X153.0Y-105.0
X153.0Y-108.0
X153.0Y-111.0
X153.0Y-114.0
X153.0Y-117.0
X154.25Y-96.0
X154.5Y-75.0
X154.704Y-51.42
X154.704Y-52.436
X154.704Y-64.12
X154.704Y-65.136
X154.704Y-76.82
X154.704Y-77.836
X154.704Y-89.52
X154.704Y-90.536
X155.0Y-93.5
X155.25Y-82.75
X155.25Y-84.5
X155.25Y-86.25
X155.25Y-87.75
X155.252Y-81.138
X155.316Y-70.978
X155.316Y-71.978
X156.0Y-48.0
X156.0Y-60.0
X156.0Y-96.0
X156.0Y-99.0
X156.0Y-108.0
X156.0Y-111.0
X156.0Y-114.0
X156.0Y-117.0
X156.228Y-52.436
X156.228Y-54.468
X156.316Y-71.978
X157.244Y-52.436
X157.244Y-54.468
X157.316Y-71.978
X157.563Y-103.04
X158.0Y-79.5
X158.26Y-52.436
X158.26Y-54.468
X158.316Y-71.978
X158.5Y-88.0
X158.894Y-94.0
X159.0Y-60.0
X159.0Y-63.5
X159.0Y-66.0
X159.0Y-69.0
X159.0Y-75.0
X159.0Y-104.0
X159.0Y-108.0
X159.0Y-111.0
X159.0Y-114.0
X159.0Y-117.0
X159.276Y-52.436
X159.276Y-54.468
X159.316Y-71.978
X160.0Y-96.0
X160.25Y-92.5
X162.0Y-48.0
X162.0Y-60.0
X162.0Y-78.0
X162.0Y-84.5
X162.0Y-96.0
X162.0Y-100.0
X162.0Y-102.0
X162.0Y-104.0
X162.0Y-108.0
X162.0Y-111.0
X162.0Y-114.0
X164.5Y-84.5
X164.5Y-85.5
X164.5Y-90.0
X165.0Y-48.0
X165.0Y-51.0
X165.0Y-54.0
X165.0Y-57.0
X165.0Y-60.0
X165.0Y-72.0
X165.0Y-75.0
X165.0Y-78.0
X165.0Y-82.5
X165.0Y-93.0
X165.0Y-98.0
X165.0Y-100.0
X165.0Y-102.0
X165.0Y-104.0
X165.0Y-108.0
X165.0Y-111.0
X165.0Y-114.0
X165.5Y-87.0
X168.0Y-48.0
X168.0Y-51.0
X168.0Y-54.0
X168.0Y-57.0
X168.0Y-72.0
X168.0Y-75.0
X168.0Y-78.0
X168.0Y-81.0
X168.0Y-90.0
X168.0Y-108.0
X168.0Y-111.0
X168.0Y-114.0
X168.5Y-92.0
X168.5Y-94.0
X168.5Y-96.0
X168.5Y-98.0
X168.5Y-100.5
X168.5Y-101.5
X168.5Y-104.0
X171.0Y-54.0
X171.0Y-78.0
X171.0Y-81.0
X171.0Y-84.0
X171.0Y-111.0
X172.0Y-56.0
X172.0Y-57.0
X172.0Y-58.0
X172.0Y-72.0
X172.0Y-73.0
X172.0Y-74.0
X172.0Y-87.0
X172.0Y-88.0
X172.0Y-89.0
X172.0Y-107.0
X172.0Y-108.0
X172.0Y-109.0
X173.0Y-56.0
X173.0Y-74.0
X173.0Y-87.0
X173.0Y-109.0
X174.0Y-54.0
X174.0Y-56.0
X174.0Y-74.0
X174.0Y-87.0
X174.0Y-109.0
X174.0Y-111.0
X175.0Y-56.0
X175.0Y-74.0
X175.0Y-87.0
X175.0Y-109.0
X175.5Y-79.75
X175.5Y-81.25
X175.5Y-92.0
X175.5Y-94.0
X175.5Y-96.0
X175.5Y-98.0
X175.5Y-100.5
X175.5Y-101.5
X175.5Y-104.0
X175.575Y-76.925
X175.575Y-84.075
X176.0Y-56.0
X176.0Y-109.0
T2
X109.1Y-49.0
X109.1Y-116.0
X109.803Y-47.303
X109.803Y-50.697
X109.803Y-114.303
X109.803Y-117.697
X111.5Y-46.6
X111.5Y-51.4
X111.5Y-113.6
X111.5Y-118.4
X113.197Y-47.303
X113.197Y-50.697
X113.197Y-114.303
X113.197Y-117.697
X113.9Y-49.0
X113.9Y-116.0
X171.1Y-49.0
X171.1Y-116.0
X171.803Y-47.303
X171.803Y-50.697
X171.803Y-114.303
X171.803Y-117.697
X173.5Y-46.6
X173.5Y-51.4
X173.5Y-113.6
X173.5Y-118.4
X175.197Y-47.303
X175.197Y-50.697
X175.197Y-114.303
X175.197Y-117.697
X175.9Y-49.0
X175.9Y-116.0
T3
X111.5Y-49.0
X111.5Y-116.0
X173.5Y-49.0
X173.5Y-116.0
M30
