999
FreeCAD v1.0 39319 (Git)
  0
SECTION
  2
HEADER
  9
$ACADVER
  1
AC1014
  9
$ACADMAINTVER
 70
     9
  9
$DWGCODEPAGE
  3
ANSI_1252
  9
$TEXTSTYLE
  7
STANDARD
  9
$DIMSTYLE
  2
STANDARD
  9
$DIMTXSTY
  7
STANDARD
  9
$CMLSTYLE
  2
STANDARD
  9
$LUNITS
 70
2
  9
$INSUNITS
 70
4
  9
$PEXTMAX
 10
50
 20
50
 30
50
  9
$PEXTMIN
 10
0
 20
0
 30
0
  9
$HANDSEED
  5
FFFF
  0
ENDSEC
  0
SECTION
  2
CLASSES
  0
CLASS
  1
ACDBDICTIONARYWDFLT
  2
AcDbDictionaryWithDefault
  3
ObjectDBX Classes
 90
        0
280
     0
281
     0
  0
CLASS
  1
XRECORD
  2
AcDbXrecord
  3
ObjectDBX Classes
 90
        0
280
     0
281
     0
  0
CLASS
  1
LWPOLYLINE
  2
AcDbPolyline
  3
ObjectDBX Classes
 90
        0
280
     0
281
     1
  0
ENDSEC
  0
SECTION
  2
TABLES
  0
TABLE
  2
VPORT
  5
20
330
0
100
AcDbSymbolTable
 70
     1
  0
VPORT
  5
21
330
20
100
AcDbSymbolTableRecord
100
AcDbViewportTableRecord
  2
*ACTIVE
 70
     0
  0
ENDTAB
  0
TABLE
  2
LTYPE
  5
22
330
0
100
AcDbSymbolTable
 70
     1
  0
LTYPE
  5
23
330
21
100
AcDbSymbolTableRecord
100
AcDbLinetypeTableRecord
  2
BYBLOCK
 70
     0
  3

 72
    65
 73
     0
 40
0.0
  0
LTYPE
  5
24
330
21
100
AcDbSymbolTableRecord
100
AcDbLinetypeTableRecord
  2
BYLAYER
 70
     0
  3

 72
    65
 73
     0
 40
0.0
  0
LTYPE
  5
25
330
21
100
AcDbSymbolTableRecord
100
AcDbLinetypeTableRecord
  2
CONTINUOUS
 70
     0
  3
Solid line
 72
    65
 73
     0
 40
0.0
  0
ENDTAB
  0
TABLE
  2
LAYER
  5
C99
330
0
100
AcDbSymbolTable
 70
3
  0
LAYER
  5
C9A
330
C99
100
AcDbSymbolTableRecord
100
AcDbLayerTableRecord
  2
0
 70
   0
 62
   7
  6
CONTINUOUS
  0
LAYER
  5
C9B
330
C99
100
AcDbSymbolTableRecord
100
AcDbLayerTableRecord
  2
none
 70
    0
 62
    7
  6
CONTINUOUS
  0
LAYER
  5
C9C
330
C99
100
AcDbSymbolTableRecord
100
AcDbLayerTableRecord
  2
Shape2DView003
 70
    0
 62
    7
  6
CONTINUOUS
  0
ENDTAB
  0
TABLE
  2
STYLE
  5
70
330
0
100
AcDbSymbolTable
 70
     2
  0
STYLE
  5
71
330
70
100
AcDbSymbolTableRecord
100
AcDbTextStyleTableRecord
  2
STANDARD
 70
     0
 40
0.0
 41
1.0
 50
0.0
 71
     0
 42
2.5
  3
arial.ttf
  4

  0
STYLE
  5
72
330
70
100
AcDbSymbolTableRecord
100
AcDbTextStyleTableRecord
  2
ANNOTATIVE
 70
     0
 40
0.0
 41
1.0
 50
0.0
 71
     0
 42
2.5
  3
arial.ttf
  4

  0
ENDTAB
  0
TABLE
  2
VIEW
  5
73
330
0
100
AcDbSymbolTable
 70
     0
  0
ENDTAB
  0
TABLE
  2
UCS
  5
74
330
0
100
AcDbSymbolTable
 70
     0
  0
ENDTAB
  0
TABLE
  2
APPID
  5
75
330
0
100
AcDbSymbolTable
 70
     2
  0
APPID
  5
76
330
75
100
AcDbSymbolTableRecord
100
AcDbRegAppTableRecord
  2
ACAD
 70
     0
  0
APPID
  5
77
330
75
100
AcDbSymbolTableRecord
100
AcDbRegAppTableRecord
  2
ACADANNOTATIVE
 70
     0
  0
ENDTAB
  0
TABLE
  2
DIMSTYLE
  5
78
330
0
100
AcDbSymbolTable
 70
     2
  0
DIMSTYLE
105
79
330
78
100
AcDbSymbolTableRecord
100
AcDbDimStyleTableRecord
  2
STANDARD
 70
     0
  3

  4

  5

  6

  7

 40
0.0
 41
2.5
 42
0.625
 43
3.75
 44
1.25
 45
0.0
 46
0.0
 47
0.0
 48
0.0
140
2.5
141
2.5
142
0.0
143
0.03937007874016
144
1.0
145
0.0
146
1.0
147
0.625
 71
     0
 72
     0
 73
     0
 74
     0
 75
     0
 76
     0
 77
     1
 78
     8
170
     0
171
     3
172
     1
173
     0
174
     0
175
     0
176
     0
177
     0
178
     0
270
     2
271
     2
272
     2
273
     2
274
     3
340
71
275
     0
280
     0
281
     0
282
     0
283
     0
284
     8
285
     0
286
     0
287
     3
288
     0
  0
ENDTAB
  0
TABLE
  2
BLOCK_RECORD
  5
A01
330
0
100
AcDbSymbolTable
  70
5
  0
BLOCK_RECORD
  5
A02
330
A01
100
AcDbSymbolTableRecord
100
AcDbBlockTableRecord
  2
*MODEL_SPACE
  0
BLOCK_RECORD
  5
A03
330
A01
100
AcDbSymbolTableRecord
100
AcDbBlockTableRecord
  2
*PAPER_SPACE
  0
ENDTAB
  0
ENDSEC
  0
SECTION
  2
BLOCKS
  0
BLOCK
  5
A04
330
A02
100
AcDbEntity
  8
0
100
AcDbBlockBegin
  2
*MODEL_SPACE
 70
   0
 10
0
 20
0
 30
0
  3
*MODEL_SPACE
  1
 
  0
ENDBLK
  5
A05
330
A02
100
AcDbEntity
  8
0
100
AcDbBlockEnd
  0
BLOCK
  5
A06
330
A03
100
AcDbEntity
 67
1
  8
0
100
AcDbBlockBegin
  2
*PAPER_SPACE
 70
   0
 10
0
 20
0
 30
0
  3
*PAPER_SPACE
  1
 
  0
ENDBLK
  5
A07
330
A03
100
AcDbEntity
 67
    1
  8
0
100
AcDbBlockEnd
  0
ENDSEC
  0
SECTION
  2
ENTITIES
  0
LINE
  5
A08
330
A02
100
AcDbEntity
  8
Shape2DView003
100
AcDbLine
 10
131.996852094
 20
306.251167757
 30
0.000000000
 11
131.996852094
 21
317.751147744
 31
0.000000000
  0
LINE
  5
A09
330
A02
100
AcDbEntity
  8
Shape2DView003
100
AcDbLine
 10
131.996852094
 20
306.251167757
 30
0.000000000
 11
125.747001143
 21
306.251087231
 31
0.000000000
  0
LINE
  5
A0A
330
A02
100
AcDbEntity
  8
Shape2DView003
100
AcDbLine
 10
125.747001143
 20
306.251087231
 30
0.000000000
 11
125.747001143
 21
293.762302836
 31
0.000000000
  0
LINE
  5
A0B
330
A02
100
AcDbEntity
  8
Shape2DView003
100
AcDbLine
 10
131.996852094
 20
282.251209522
 30
0.000000000
 11
131.996852094
 21
293.751189510
 31
0.000000000
  0
LINE
  5
A0C
330
A02
100
AcDbEntity
  8
Shape2DView003
100
AcDbLine
 10
131.996852094
 20
282.251209522
 30
0.000000000
 11
125.747001143
 21
282.251128997
 31
0.000000000
  0
LINE
  5
A0D
330
A02
100
AcDbEntity
  8
Shape2DView003
100
AcDbLine
 10
125.747001143
 20
282.251128997
 30
0.000000000
 11
125.747001143
 21
269.762344602
 31
0.000000000
  0
LINE
  5
A0E
330
A02
100
AcDbEntity
  8
Shape2DView003
100
AcDbLine
 10
131.996852094
 20
258.251251288
 30
0.000000000
 11
131.996852094
 21
269.751231275
 31
0.000000000
  0
LINE
  5
A0F
330
A02
100
AcDbEntity
  8
Shape2DView003
100
AcDbLine
 10
131.996852094
 20
258.251251288
 30
0.000000000
 11
125.747001143
 21
258.251170762
 31
0.000000000
  0
LINE
  5
A10
330
A02
100
AcDbEntity
  8
Shape2DView003
100
AcDbLine
 10
125.747001143
 20
258.251170762
 30
0.000000000
 11
125.747001143
 21
245.762386367
 31
0.000000000
  0
LINE
  5
A11
330
A02
100
AcDbEntity
  8
Shape2DView003
100
AcDbLine
 10
131.996852094
 20
234.251293053
 30
0.000000000
 11
131.996852094
 21
245.751273041
 31
0.000000000
  0
LINE
  5
A12
330
A02
100
AcDbEntity
  8
Shape2DView003
100
AcDbLine
 10
131.996852094
 20
234.251293053
 30
0.000000000
 11
125.747001143
 21
234.251212528
 31
0.000000000
  0
LINE
  5
A13
330
A02
100
AcDbEntity
  8
Shape2DView003
100
AcDbLine
 10
125.747001143
 20
234.251212528
 30
0.000000000
 11
125.747001143
 21
221.762428133
 31
0.000000000
  0
LINE
  5
A14
330
A02
100
AcDbEntity
  8
Shape2DView003
100
AcDbLine
 10
131.996852094
 20
210.251334819
 30
0.000000000
 11
131.996852094
 21
221.751314806
 31
0.000000000
  0
LINE
  5
A15
330
A02
100
AcDbEntity
  8
Shape2DView003
100
AcDbLine
 10
131.996852094
 20
210.251334819
 30
0.000000000
 11
125.747001143
 21
210.251254293
 31
0.000000000
  0
LINE
  5
A16
330
A02
100
AcDbEntity
  8
Shape2DView003
100
AcDbLine
 10
125.747001143
 20
210.251254293
 30
0.000000000
 11
125.747001143
 21
197.762469898
 31
0.000000000
  0
LINE
  5
A17
330
A02
100
AcDbEntity
  8
Shape2DView003
100
AcDbLine
 10
131.996852094
 20
186.251376584
 30
0.000000000
 11
131.996852094
 21
197.751356572
 31
0.000000000
  0
LINE
  5
A18
330
A02
100
AcDbEntity
  8
Shape2DView003
100
AcDbLine
 10
131.996852094
 20
186.251376584
 30
0.000000000
 11
125.747001143
 21
186.251296059
 31
0.000000000
  0
LINE
  5
A19
330
A02
100
AcDbEntity
  8
Shape2DView003
100
AcDbLine
 10
125.747001143
 20
186.251296059
 30
0.000000000
 11
125.747001143
 21
173.762511664
 31
0.000000000
  0
LINE
  5
A1A
330
A02
100
AcDbEntity
  8
Shape2DView003
100
AcDbLine
 10
131.996852094
 20
162.251418350
 30
0.000000000
 11
131.996852094
 21
173.751398337
 31
0.000000000
  0
LINE
  5
A1B
330
A02
100
AcDbEntity
  8
Shape2DView003
100
AcDbLine
 10
131.996852094
 20
162.251418350
 30
0.000000000
 11
125.747001143
 21
162.251337824
 31
0.000000000
  0
LINE
  5
A1C
330
A02
100
AcDbEntity
  8
Shape2DView003
100
AcDbLine
 10
125.747001143
 20
162.251337824
 30
0.000000000
 11
125.747001143
 21
149.762553429
 31
0.000000000
  0
LINE
  5
A1D
330
A02
100
AcDbEntity
  8
Shape2DView003
100
AcDbLine
 10
131.996852094
 20
138.251460115
 30
0.000000000
 11
131.996852094
 21
149.751440103
 31
0.000000000
  0
LINE
  5
A1E
330
A02
100
AcDbEntity
  8
Shape2DView003
100
AcDbLine
 10
131.996852094
 20
138.251460115
 30
0.000000000
 11
125.747001143
 21
138.251379590
 31
0.000000000
  0
LINE
  5
A1F
330
A02
100
AcDbEntity
  8
Shape2DView003
100
AcDbLine
 10
125.747001143
 20
138.251379590
 30
0.000000000
 11
125.747001143
 21
125.762595195
 31
0.000000000
  0
LINE
  5
A20
330
A02
100
AcDbEntity
  8
Shape2DView003
100
AcDbLine
 10
131.996852094
 20
114.251501881
 30
0.000000000
 11
131.996852094
 21
125.751481868
 31
0.000000000
  0
LINE
  5
A21
330
A02
100
AcDbEntity
  8
Shape2DView003
100
AcDbLine
 10
131.996852094
 20
114.251501881
 30
0.000000000
 11
125.747001143
 21
114.251421355
 31
0.000000000
  0
LINE
  5
A22
330
A02
100
AcDbEntity
  8
Shape2DView003
100
AcDbLine
 10
125.747001143
 20
114.251421355
 30
0.000000000
 11
125.747001143
 21
101.762636960
 31
0.000000000
  0
LINE
  5
A23
330
A02
100
AcDbEntity
  8
Shape2DView003
100
AcDbLine
 10
131.996852094
 20
90.251543646
 30
0.000000000
 11
131.996852094
 21
101.751523634
 31
0.000000000
  0
LINE
  5
A24
330
A02
100
AcDbEntity
  8
Shape2DView003
100
AcDbLine
 10
131.996852094
 20
90.251543646
 30
0.000000000
 11
125.747001143
 21
90.251463121
 31
0.000000000
  0
LINE
  5
A25
330
A02
100
AcDbEntity
  8
Shape2DView003
100
AcDbLine
 10
125.747001143
 20
90.251463121
 30
0.000000000
 11
125.747001143
 21
77.762678726
 31
0.000000000
  0
LINE
  5
A26
330
A02
100
AcDbEntity
  8
Shape2DView003
100
AcDbLine
 10
131.996852094
 20
66.251585412
 30
0.000000000
 11
131.996852094
 21
77.751565399
 31
0.000000000
  0
LINE
  5
A27
330
A02
100
AcDbEntity
  8
Shape2DView003
100
AcDbLine
 10
131.996852094
 20
66.251585412
 30
0.000000000
 11
125.747001143
 21
66.251504886
 31
0.000000000
  0
LINE
  5
A28
330
A02
100
AcDbEntity
  8
Shape2DView003
100
AcDbLine
 10
125.747001143
 20
66.251504886
 30
0.000000000
 11
125.747001143
 21
53.762720491
 31
0.000000000
  0
LINE
  5
A29
330
A02
100
AcDbEntity
  8
Shape2DView003
100
AcDbLine
 10
131.996852094
 20
42.251627177
 30
0.000000000
 11
131.996852094
 21
53.751607165
 31
0.000000000
  0
LINE
  5
A2A
330
A02
100
AcDbEntity
  8
Shape2DView003
100
AcDbLine
 10
131.996852094
 20
42.251627177
 30
0.000000000
 11
125.747001143
 21
42.251546652
 31
0.000000000
  0
LINE
  5
A2B
330
A02
100
AcDbEntity
  8
Shape2DView003
100
AcDbLine
 10
125.747001143
 20
42.251546652
 30
0.000000000
 11
125.747001143
 21
29.762762257
 31
0.000000000
  0
LINE
  5
A2C
330
A02
100
AcDbEntity
  8
Shape2DView003
100
AcDbLine
 10
131.996852094
 20
18.251668943
 30
0.000000000
 11
131.996852094
 21
29.751648930
 31
0.000000000
  0
LINE
  5
A2D
330
A02
100
AcDbEntity
  8
Shape2DView003
100
AcDbLine
 10
131.996852094
 20
18.251668943
 30
0.000000000
 11
125.747001143
 21
18.251588417
 31
0.000000000
  0
LINE
  5
A2E
330
A02
100
AcDbEntity
  8
Shape2DView003
100
AcDbLine
 10
125.747001143
 20
18.251588417
 30
0.000000000
 11
125.747001143
 21
5.762804022
 31
0.000000000
  0
LINE
  5
A2F
330
A02
100
AcDbEntity
  8
Shape2DView003
100
AcDbLine
 10
131.996852094
 20
-5.748289292
 30
0.000000000
 11
131.996852094
 21
5.751690696
 31
0.000000000
  0
LINE
  5
A30
330
A02
100
AcDbEntity
  8
Shape2DView003
100
AcDbLine
 10
131.996852094
 20
-5.748289292
 30
0.000000000
 11
125.747001143
 21
-5.748369817
 31
0.000000000
  0
LINE
  5
A31
330
A02
100
AcDbEntity
  8
Shape2DView003
100
AcDbLine
 10
125.747001143
 20
-5.748369817
 30
0.000000000
 11
125.747001143
 21
-18.237154212
 31
0.000000000
  0
LINE
  5
A32
330
A02
100
AcDbEntity
  8
Shape2DView003
100
AcDbLine
 10
131.996852094
 20
-29.748247526
 30
0.000000000
 11
131.996852094
 21
-18.248267539
 31
0.000000000
  0
LINE
  5
A33
330
A02
100
AcDbEntity
  8
Shape2DView003
100
AcDbLine
 10
131.996852094
 20
-29.748247526
 30
0.000000000
 11
125.747001143
 21
-29.748328052
 31
0.000000000
  0
LINE
  5
A34
330
A02
100
AcDbEntity
  8
Shape2DView003
100
AcDbLine
 10
125.747001143
 20
-29.748328052
 30
0.000000000
 11
125.747001143
 21
-42.237112447
 31
0.000000000
  0
LINE
  5
A35
330
A02
100
AcDbEntity
  8
Shape2DView003
100
AcDbLine
 10
131.996852094
 20
-53.748205761
 30
0.000000000
 11
131.996852094
 21
-42.248225773
 31
0.000000000
  0
LINE
  5
A36
330
A02
100
AcDbEntity
  8
Shape2DView003
100
AcDbLine
 10
131.996852094
 20
-53.748205761
 30
0.000000000
 11
125.747001143
 21
-53.748286286
 31
0.000000000
  0
LINE
  5
A37
330
A02
100
AcDbEntity
  8
Shape2DView003
100
AcDbLine
 10
125.747001143
 20
-53.748286286
 30
0.000000000
 11
125.747001143
 21
-66.237070682
 31
0.000000000
  0
LINE
  5
A38
330
A02
100
AcDbEntity
  8
Shape2DView003
100
AcDbLine
 10
131.996852094
 20
-77.748163995
 30
0.000000000
 11
131.996852094
 21
-66.248184008
 31
0.000000000
  0
LINE
  5
A39
330
A02
100
AcDbEntity
  8
Shape2DView003
100
AcDbLine
 10
131.996852094
 20
-77.748163995
 30
0.000000000
 11
125.747001143
 21
-77.748244521
 31
0.000000000
  0
LINE
  5
A3A
330
A02
100
AcDbEntity
  8
Shape2DView003
100
AcDbLine
 10
125.747001143
 20
-77.748244521
 30
0.000000000
 11
125.747001143
 21
-90.237028916
 31
0.000000000
  0
LINE
  5
A3B
330
A02
100
AcDbEntity
  8
Shape2DView003
100
AcDbLine
 10
131.996852094
 20
-101.748122230
 30
0.000000000
 11
131.996852094
 21
-90.248142242
 31
0.000000000
  0
LINE
  5
A3C
330
A02
100
AcDbEntity
  8
Shape2DView003
100
AcDbLine
 10
131.996852094
 20
-101.748122230
 30
0.000000000
 11
125.747001143
 21
-101.748202755
 31
0.000000000
  0
LINE
  5
A3D
330
A02
100
AcDbEntity
  8
Shape2DView003
100
AcDbLine
 10
125.747001143
 20
-101.748202755
 30
0.000000000
 11
125.747001143
 21
-114.236987151
 31
0.000000000
  0
LINE
  5
A3E
330
A02
100
AcDbEntity
  8
Shape2DView003
100
AcDbLine
 10
131.996852094
 20
-125.748080464
 30
0.000000000
 11
131.996852094
 21
-114.248100477
 31
0.000000000
  0
LINE
  5
A3F
330
A02
100
AcDbEntity
  8
Shape2DView003
100
AcDbLine
 10
131.996852094
 20
-125.748080464
 30
0.000000000
 11
125.747001143
 21
-125.748160990
 31
0.000000000
  0
LINE
  5
A40
330
A02
100
AcDbEntity
  8
Shape2DView003
100
AcDbLine
 10
125.747001143
 20
-125.748160990
 30
0.000000000
 11
125.747001143
 21
-138.236945385
 31
0.000000000
  0
LINE
  5
A41
330
A02
100
AcDbEntity
  8
Shape2DView003
100
AcDbLine
 10
131.996852094
 20
-149.748038699
 30
0.000000000
 11
131.996852094
 21
-138.248058711
 31
0.000000000
  0
LINE
  5
A42
330
A02
100
AcDbEntity
  8
Shape2DView003
100
AcDbLine
 10
131.996852094
 20
-149.748038699
 30
0.000000000
 11
125.747001143
 21
-149.748119225
 31
0.000000000
  0
LINE
  5
A43
330
A02
100
AcDbEntity
  8
Shape2DView003
100
AcDbLine
 10
125.747001143
 20
-149.748119225
 30
0.000000000
 11
125.747001143
 21
-162.236903620
 31
0.000000000
  0
LINE
  5
A44
330
A02
100
AcDbEntity
  8
Shape2DView003
100
AcDbLine
 10
131.996852094
 20
-173.747996933
 30
0.000000000
 11
131.996852094
 21
-162.248016946
 31
0.000000000
  0
LINE
  5
A45
330
A02
100
AcDbEntity
  8
Shape2DView003
100
AcDbLine
 10
131.996852094
 20
-173.747996933
 30
0.000000000
 11
125.747001143
 21
-173.748077459
 31
0.000000000
  0
LINE
  5
A46
330
A02
100
AcDbEntity
  8
Shape2DView003
100
AcDbLine
 10
125.747001143
 20
-173.748077459
 30
0.000000000
 11
125.747001143
 21
-186.236861854
 31
0.000000000
  0
LINE
  5
A47
330
A02
100
AcDbEntity
  8
Shape2DView003
100
AcDbLine
 10
131.996852094
 20
-197.747955168
 30
0.000000000
 11
131.996852094
 21
-186.247975181
 31
0.000000000
  0
LINE
  5
A48
330
A02
100
AcDbEntity
  8
Shape2DView003
100
AcDbLine
 10
131.996852094
 20
-197.747955168
 30
0.000000000
 11
125.747001143
 21
-197.748035694
 31
0.000000000
  0
LINE
  5
A49
330
A02
100
AcDbEntity
  8
Shape2DView003
100
AcDbLine
 10
125.747001143
 20
-197.748035694
 30
0.000000000
 11
125.747001143
 21
-210.236820089
 31
0.000000000
  0
LINE
  5
A4A
330
A02
100
AcDbEntity
  8
Shape2DView003
100
AcDbLine
 10
131.996852094
 20
-221.747913402
 30
0.000000000
 11
131.996852094
 21
-210.247933415
 31
0.000000000
  0
LINE
  5
A4B
330
A02
100
AcDbEntity
  8
Shape2DView003
100
AcDbLine
 10
131.996852094
 20
-221.747913402
 30
0.000000000
 11
125.747001143
 21
-221.747993928
 31
0.000000000
  0
LINE
  5
A4C
330
A02
100
AcDbEntity
  8
Shape2DView003
100
AcDbLine
 10
125.747001143
 20
-221.747993928
 30
0.000000000
 11
125.747001143
 21
-234.236778323
 31
0.000000000
  0
LINE
  5
A4D
330
A02
100
AcDbEntity
  8
Shape2DView003
100
AcDbLine
 10
131.996852094
 20
-245.747871637
 30
0.000000000
 11
131.996852094
 21
-234.247891650
 31
0.000000000
  0
LINE
  5
A4E
330
A02
100
AcDbEntity
  8
Shape2DView003
100
AcDbLine
 10
131.996852094
 20
-245.747871637
 30
0.000000000
 11
125.747001143
 21
-245.747952163
 31
0.000000000
  0
LINE
  5
A4F
330
A02
100
AcDbEntity
  8
Shape2DView003
100
AcDbLine
 10
125.747001143
 20
-245.747952163
 30
0.000000000
 11
125.747001143
 21
-258.236736558
 31
0.000000000
  0
LINE
  5
A50
330
A02
100
AcDbEntity
  8
Shape2DView003
100
AcDbLine
 10
131.996852094
 20
-269.747829871
 30
0.000000000
 11
131.996852094
 21
-258.247849884
 31
0.000000000
  0
LINE
  5
A51
330
A02
100
AcDbEntity
  8
Shape2DView003
100
AcDbLine
 10
131.996852094
 20
-269.747829871
 30
0.000000000
 11
125.747001143
 21
-269.747910397
 31
0.000000000
  0
LINE
  5
A52
330
A02
100
AcDbEntity
  8
Shape2DView003
100
AcDbLine
 10
125.747001143
 20
-269.747910397
 30
0.000000000
 11
125.747001143
 21
-282.236694792
 31
0.000000000
  0
LINE
  5
A53
330
A02
100
AcDbEntity
  8
Shape2DView003
100
AcDbLine
 10
131.996852094
 20
-293.747788106
 30
0.000000000
 11
131.996852094
 21
-282.247808119
 31
0.000000000
  0
LINE
  5
A54
330
A02
100
AcDbEntity
  8
Shape2DView003
100
AcDbLine
 10
131.996852094
 20
-293.747788106
 30
0.000000000
 11
125.747001143
 21
-293.747868632
 31
0.000000000
  0
LINE
  5
A55
330
A02
100
AcDbEntity
  8
Shape2DView003
100
AcDbLine
 10
125.747001143
 20
-293.747868632
 30
0.000000000
 11
125.747001143
 21
-306.236653027
 31
0.000000000
  0
LINE
  5
A56
330
A02
100
AcDbEntity
  8
Shape2DView003
100
AcDbLine
 10
131.996852094
 20
-317.747746340
 30
0.000000000
 11
131.996852094
 21
-306.247766353
 31
0.000000000
  0
LINE
  5
A57
330
A02
100
AcDbEntity
  8
Shape2DView003
100
AcDbLine
 10
131.996852094
 20
-317.747746340
 30
0.000000000
 11
125.747001143
 21
-317.747826866
 31
0.000000000
  0
LINE
  5
A58
330
A02
100
AcDbEntity
  8
Shape2DView003
100
AcDbLine
 10
125.747001143
 20
-317.747826866
 30
0.000000000
 11
125.747001143
 21
-335.997795107
 31
0.000000000
  0
LINE
  5
A59
330
A02
100
AcDbEntity
  8
Shape2DView003
100
AcDbLine
 10
114.247275392
 20
-335.997943274
 30
0.000000000
 11
125.747001143
 21
-335.997795107
 31
0.000000000
  0
LINE
  5
A5A
330
A02
100
AcDbEntity
  8
Shape2DView003
100
AcDbLine
 10
114.205838463
 20
-330.247953814
 30
0.000000000
 11
101.747573489
 21
-330.248114332
 31
0.000000000
  0
LINE
  5
A5B
330
A02
100
AcDbEntity
  8
Shape2DView003
100
AcDbLine
 10
101.747573489
 20
-330.248114332
 30
0.000000000
 11
101.747573489
 21
-335.998104325
 31
0.000000000
  0
LINE
  5
A5C
330
A02
100
AcDbEntity
  8
Shape2DView003
100
AcDbLine
 10
90.247847739
 20
-335.998252493
 30
0.000000000
 11
101.747573489
 21
-335.998104325
 31
0.000000000
  0
LINE
  5
A5D
330
A02
100
AcDbEntity
  8
Shape2DView003
100
AcDbLine
 10
90.206410810
 20
-330.248263033
 30
0.000000000
 11
77.748145836
 21
-330.248423550
 31
0.000000000
  0
LINE
  5
A5E
330
A02
100
AcDbEntity
  8
Shape2DView003
100
AcDbLine
 10
77.748145836
 20
-330.248423550
 30
0.000000000
 11
77.748145836
 21
-335.998413544
 31
0.000000000
  0
LINE
  5
A5F
330
A02
100
AcDbEntity
  8
Shape2DView003
100
AcDbLine
 10
66.248420085
 20
-335.998561711
 30
0.000000000
 11
77.748145836
 21
-335.998413544
 31
0.000000000
  0
LINE
  5
A60
330
A02
100
AcDbEntity
  8
Shape2DView003
100
AcDbLine
 10
66.206983156
 20
-330.248572251
 30
0.000000000
 11
53.748718182
 21
-330.248732769
 31
0.000000000
  0
LINE
  5
A61
330
A02
100
AcDbEntity
  8
Shape2DView003
100
AcDbLine
 10
53.748718182
 20
-330.248732769
 30
0.000000000
 11
53.748718182
 21
-335.998722763
 31
0.000000000
  0
LINE
  5
A62
330
A02
100
AcDbEntity
  8
Shape2DView003
100
AcDbLine
 10
42.248992432
 20
-335.998870930
 30
0.000000000
 11
53.748718182
 21
-335.998722763
 31
0.000000000
  0
LINE
  5
A63
330
A02
100
AcDbEntity
  8
Shape2DView003
100
AcDbLine
 10
42.207555503
 20
-330.248881470
 30
0.000000000
 11
29.749290529
 21
-330.249041987
 31
0.000000000
  0
LINE
  5
A64
330
A02
100
AcDbEntity
  8
Shape2DView003
100
AcDbLine
 10
29.749290529
 20
-330.249041987
 30
0.000000000
 11
29.749290529
 21
-335.999031981
 31
0.000000000
  0
LINE
  5
A65
330
A02
100
AcDbEntity
  8
Shape2DView003
100
AcDbLine
 10
18.249564778
 20
-335.999180148
 30
0.000000000
 11
29.749290529
 21
-335.999031981
 31
0.000000000
  0
LINE
  5
A66
330
A02
100
AcDbEntity
  8
Shape2DView003
100
AcDbLine
 10
18.208127849
 20
-330.249190688
 30
0.000000000
 11
5.749862875
 21
-330.249351206
 31
0.000000000
  0
LINE
  5
A67
330
A02
100
AcDbEntity
  8
Shape2DView003
100
AcDbLine
 10
5.749862875
 20
-330.249351206
 30
0.000000000
 11
5.749862875
 21
-335.999341200
 31
0.000000000
  0
LINE
  5
A68
330
A02
100
AcDbEntity
  8
Shape2DView003
100
AcDbLine
 10
-5.749862875
 20
-335.999489367
 30
0.000000000
 11
5.749862875
 21
-335.999341200
 31
0.000000000
  0
LINE
  5
A69
330
A02
100
AcDbEntity
  8
Shape2DView003
100
AcDbLine
 10
-5.791299804
 20
-330.249499907
 30
0.000000000
 11
-18.249564778
 21
-330.249660424
 31
0.000000000
  0
LINE
  5
A6A
330
A02
100
AcDbEntity
  8
Shape2DView003
100
AcDbLine
 10
-18.249564778
 20
-330.249660424
 30
0.000000000
 11
-18.249564778
 21
-335.999650418
 31
0.000000000
  0
LINE
  5
A6B
330
A02
100
AcDbEntity
  8
Shape2DView003
100
AcDbLine
 10
-29.749290529
 20
-335.999798585
 30
0.000000000
 11
-18.249564778
 21
-335.999650418
 31
0.000000000
  0
LINE
  5
A6C
330
A02
100
AcDbEntity
  8
Shape2DView003
100
AcDbLine
 10
-29.790727458
 20
-330.249809126
 30
0.000000000
 11
-42.248992432
 21
-330.249969643
 31
0.000000000
  0
LINE
  5
A6D
330
A02
100
AcDbEntity
  8
Shape2DView003
100
AcDbLine
 10
-42.248992432
 20
-330.249969643
 30
0.000000000
 11
-42.248992432
 21
-335.999959637
 31
0.000000000
  0
LINE
  5
A6E
330
A02
100
AcDbEntity
  8
Shape2DView003
100
AcDbLine
 10
-53.748718182
 20
-336.000107804
 30
0.000000000
 11
-42.248992432
 21
-335.999959637
 31
0.000000000
  0
LINE
  5
A6F
330
A02
100
AcDbEntity
  8
Shape2DView003
100
AcDbLine
 10
-53.790155111
 20
-330.250118344
 30
0.000000000
 11
-66.248420085
 21
-330.250278861
 31
0.000000000
  0
LINE
  5
A70
330
A02
100
AcDbEntity
  8
Shape2DView003
100
AcDbLine
 10
-66.248420085
 20
-330.250278861
 30
0.000000000
 11
-66.248420085
 21
-336.000268855
 31
0.000000000
  0
LINE
  5
A71
330
A02
100
AcDbEntity
  8
Shape2DView003
100
AcDbLine
 10
-77.748145836
 20
-336.000417022
 30
0.000000000
 11
-66.248420085
 21
-336.000268855
 31
0.000000000
  0
LINE
  5
A72
330
A02
100
AcDbEntity
  8
Shape2DView003
100
AcDbLine
 10
-77.789582765
 20
-330.250427563
 30
0.000000000
 11
-90.247847739
 21
-330.250588080
 31
0.000000000
  0
LINE
  5
A73
330
A02
100
AcDbEntity
  8
Shape2DView003
100
AcDbLine
 10
-90.247847739
 20
-330.250588080
 30
0.000000000
 11
-90.247847739
 21
-336.000578074
 31
0.000000000
  0
LINE
  5
A74
330
A02
100
AcDbEntity
  8
Shape2DView003
100
AcDbLine
 10
-101.747573489
 20
-336.000726241
 30
0.000000000
 11
-90.247847739
 21
-336.000578074
 31
0.000000000
  0
LINE
  5
A75
330
A02
100
AcDbEntity
  8
Shape2DView003
100
AcDbLine
 10
-101.789010418
 20
-330.250736781
 30
0.000000000
 11
-114.247275392
 21
-330.250897299
 31
0.000000000
  0
LINE
  5
A76
330
A02
100
AcDbEntity
  8
Shape2DView003
100
AcDbLine
 10
-114.247275392
 20
-330.250897299
 30
0.000000000
 11
-114.247275392
 21
-336.000887292
 31
0.000000000
  0
LINE
  5
A77
330
A02
100
AcDbEntity
  8
Shape2DView003
100
AcDbLine
 10
-125.747001143
 20
-336.001035459
 30
0.000000000
 11
-114.247275392
 21
-336.000887292
 31
0.000000000
  0
LINE
  5
A78
330
A02
100
AcDbEntity
  8
Shape2DView003
100
AcDbLine
 10
-125.788438072
 20
-317.751067753
 30
0.000000000
 11
-131.996852094
 21
-317.751147744
 31
0.000000000
  0
LINE
  5
A79
330
A02
100
AcDbEntity
  8
Shape2DView003
100
AcDbLine
 10
-125.788438072
 20
-293.751109518
 30
0.000000000
 11
-131.996852094
 21
-293.751189510
 31
0.000000000
  0
LINE
  5
A7A
330
A02
100
AcDbEntity
  8
Shape2DView003
100
AcDbLine
 10
-125.788438072
 20
-269.751151283
 30
0.000000000
 11
-131.996852094
 21
-269.751231275
 31
0.000000000
  0
LINE
  5
A7B
330
A02
100
AcDbEntity
  8
Shape2DView003
100
AcDbLine
 10
-125.788438072
 20
-245.751193049
 30
0.000000000
 11
-131.996852094
 21
-245.751273041
 31
0.000000000
  0
LINE
  5
A7C
330
A02
100
AcDbEntity
  8
Shape2DView003
100
AcDbLine
 10
-125.788438072
 20
-221.751234814
 30
0.000000000
 11
-131.996852094
 21
-221.751314806
 31
0.000000000
  0
LINE
  5
A7D
330
A02
100
AcDbEntity
  8
Shape2DView003
100
AcDbLine
 10
-125.788438072
 20
-197.751276580
 30
0.000000000
 11
-131.996852094
 21
-197.751356572
 31
0.000000000
  0
LINE
  5
A7E
330
A02
100
AcDbEntity
  8
Shape2DView003
100
AcDbLine
 10
-125.788438072
 20
-173.751318345
 30
0.000000000
 11
-131.996852094
 21
-173.751398337
 31
0.000000000
  0
LINE
  5
A7F
330
A02
100
AcDbEntity
  8
Shape2DView003
100
AcDbLine
 10
-125.788438072
 20
-149.751360111
 30
0.000000000
 11
-131.996852094
 21
-149.751440103
 31
0.000000000
  0
LINE
  5
A80
330
A02
100
AcDbEntity
  8
Shape2DView003
100
AcDbLine
 10
-125.788438072
 20
-125.751401876
 30
0.000000000
 11
-131.996852094
 21
-125.751481868
 31
0.000000000
  0
LINE
  5
A81
330
A02
100
AcDbEntity
  8
Shape2DView003
100
AcDbLine
 10
-125.788438072
 20
-101.751443642
 30
0.000000000
 11
-131.996852094
 21
-101.751523634
 31
0.000000000
  0
LINE
  5
A82
330
A02
100
AcDbEntity
  8
Shape2DView003
100
AcDbLine
 10
-125.788438072
 20
-77.751485407
 30
0.000000000
 11
-131.996852094
 21
-77.751565399
 31
0.000000000
  0
LINE
  5
A83
330
A02
100
AcDbEntity
  8
Shape2DView003
100
AcDbLine
 10
-125.788438072
 20
-53.751527173
 30
0.000000000
 11
-131.996852094
 21
-53.751607165
 31
0.000000000
  0
LINE
  5
A84
330
A02
100
AcDbEntity
  8
Shape2DView003
100
AcDbLine
 10
-125.788438072
 20
-29.751568938
 30
0.000000000
 11
-131.996852094
 21
-29.751648930
 31
0.000000000
  0
LINE
  5
A85
330
A02
100
AcDbEntity
  8
Shape2DView003
100
AcDbLine
 10
-125.788438072
 20
-5.751610704
 30
0.000000000
 11
-131.996852094
 21
-5.751690696
 31
0.000000000
  0
LINE
  5
A86
330
A02
100
AcDbEntity
  8
Shape2DView003
100
AcDbLine
 10
-125.788438072
 20
18.248347531
 30
0.000000000
 11
-131.996852094
 21
18.248267539
 31
0.000000000
  0
LINE
  5
A87
330
A02
100
AcDbEntity
  8
Shape2DView003
100
AcDbLine
 10
-125.788438072
 20
42.248305765
 30
0.000000000
 11
-131.996852094
 21
42.248225773
 31
0.000000000
  0
LINE
  5
A88
330
A02
100
AcDbEntity
  8
Shape2DView003
100
AcDbLine
 10
-125.788438072
 20
66.248264000
 30
0.000000000
 11
-131.996852094
 21
66.248184008
 31
0.000000000
  0
LINE
  5
A89
330
A02
100
AcDbEntity
  8
Shape2DView003
100
AcDbLine
 10
-125.788438072
 20
90.248222234
 30
0.000000000
 11
-131.996852094
 21
90.248142242
 31
0.000000000
  0
LINE
  5
A8A
330
A02
100
AcDbEntity
  8
Shape2DView003
100
AcDbLine
 10
-125.788438072
 20
114.248180469
 30
0.000000000
 11
-131.996852094
 21
114.248100477
 31
0.000000000
  0
LINE
  5
A8B
330
A02
100
AcDbEntity
  8
Shape2DView003
100
AcDbLine
 10
-125.788438072
 20
138.248138703
 30
0.000000000
 11
-131.996852094
 21
138.248058711
 31
0.000000000
  0
LINE
  5
A8C
330
A02
100
AcDbEntity
  8
Shape2DView003
100
AcDbLine
 10
-125.788438072
 20
162.248096938
 30
0.000000000
 11
-131.996852094
 21
162.248016946
 31
0.000000000
  0
LINE
  5
A8D
330
A02
100
AcDbEntity
  8
Shape2DView003
100
AcDbLine
 10
-125.788438072
 20
186.248055172
 30
0.000000000
 11
-131.996852094
 21
186.247975181
 31
0.000000000
  0
LINE
  5
A8E
330
A02
100
AcDbEntity
  8
Shape2DView003
100
AcDbLine
 10
-125.788438072
 20
210.248013407
 30
0.000000000
 11
-131.996852094
 21
210.247933415
 31
0.000000000
  0
LINE
  5
A8F
330
A02
100
AcDbEntity
  8
Shape2DView003
100
AcDbLine
 10
-125.788438072
 20
234.247971641
 30
0.000000000
 11
-131.996852094
 21
234.247891650
 31
0.000000000
  0
LINE
  5
A90
330
A02
100
AcDbEntity
  8
Shape2DView003
100
AcDbLine
 10
-125.788438072
 20
258.247929876
 30
0.000000000
 11
-131.996852094
 21
258.247849884
 31
0.000000000
  0
LINE
  5
A91
330
A02
100
AcDbEntity
  8
Shape2DView003
100
AcDbLine
 10
-125.788438072
 20
282.247888110
 30
0.000000000
 11
-131.996852094
 21
282.247808119
 31
0.000000000
  0
LINE
  5
A92
330
A02
100
AcDbEntity
  8
Shape2DView003
100
AcDbLine
 10
-125.788438072
 20
306.247846345
 30
0.000000000
 11
-131.996852094
 21
306.247766353
 31
0.000000000
  0
LINE
  5
A93
330
A02
100
AcDbEntity
  8
Shape2DView003
100
AcDbLine
 10
-114.247275392
 20
335.997943274
 30
0.000000000
 11
-114.247275392
 21
329.759148003
 31
0.000000000
  0
LINE
  5
A94
330
A02
100
AcDbEntity
  8
Shape2DView003
100
AcDbLine
 10
-90.247847739
 20
335.998252493
 30
0.000000000
 11
-90.247847739
 21
329.759457221
 31
0.000000000
  0
LINE
  5
A95
330
A02
100
AcDbEntity
  8
Shape2DView003
100
AcDbLine
 10
-66.248420085
 20
335.998561711
 30
0.000000000
 11
-66.248420085
 21
329.759766440
 31
0.000000000
  0
LINE
  5
A96
330
A02
100
AcDbEntity
  8
Shape2DView003
100
AcDbLine
 10
-42.248992432
 20
335.998870930
 30
0.000000000
 11
-42.248992432
 21
329.760075658
 31
0.000000000
  0
LINE
  5
A97
330
A02
100
AcDbEntity
  8
Shape2DView003
100
AcDbLine
 10
-18.249564778
 20
335.999180148
 30
0.000000000
 11
-18.249564778
 21
329.760384877
 31
0.000000000
  0
LINE
  5
A98
330
A02
100
AcDbEntity
  8
Shape2DView003
100
AcDbLine
 10
5.749862875
 20
335.999489367
 30
0.000000000
 11
5.749862875
 21
329.760694095
 31
0.000000000
  0
LINE
  5
A99
330
A02
100
AcDbEntity
  8
Shape2DView003
100
AcDbLine
 10
29.749290529
 20
335.999798585
 30
0.000000000
 11
29.749290529
 21
329.761003314
 31
0.000000000
  0
LINE
  5
A9A
330
A02
100
AcDbEntity
  8
Shape2DView003
100
AcDbLine
 10
53.748718182
 20
336.000107804
 30
0.000000000
 11
53.748718182
 21
329.761312532
 31
0.000000000
  0
LINE
  5
A9B
330
A02
100
AcDbEntity
  8
Shape2DView003
100
AcDbLine
 10
77.748145836
 20
336.000417022
 30
0.000000000
 11
77.748145836
 21
329.761621751
 31
0.000000000
  0
LINE
  5
A9C
330
A02
100
AcDbEntity
  8
Shape2DView003
100
AcDbLine
 10
101.747573489
 20
336.000726241
 30
0.000000000
 11
101.747573489
 21
329.761930969
 31
0.000000000
  0
LINE
  5
A9D
330
A02
100
AcDbEntity
  8
Shape2DView003
100
AcDbLine
 10
125.747001143
 20
336.001035459
 30
0.000000000
 11
125.747001143
 21
317.762261071
 31
0.000000000
  0
ELLIPSE
  5
A9E
330
A02
100
AcDbEntity
  8
Shape2DView003
100
AcDbEllipse
 10
-128.746929599
 20
312.122798003
 30
0.000000000
 11
-0.260781969
 21
-0.965397724
 31
0.000000000
 40
0.999974412
 41
-3.120129390
 42
-0.021463263
  0
ELLIPSE
  5
A9F
330
A02
100
AcDbEntity
  8
Shape2DView003
100
AcDbEllipse
 10
-128.746929599
 20
-0.001658829
 30
0.000000000
 11
-0.260781969
 21
-0.965397724
 31
0.000000000
 40
0.999974412
 41
-3.120129390
 42
-0.021463263
  0
ELLIPSE
  5
AA0
330
A02
100
AcDbEntity
  8
Shape2DView003
100
AcDbEllipse
 10
-128.746929599
 20
-312.126115660
 30
0.000000000
 11
-0.260781969
 21
-0.965397724
 31
0.000000000
 40
0.999974412
 41
-3.120129390
 42
-0.021463263
  0
ELLIPSE
  5
AA1
330
A02
100
AcDbEntity
  8
Shape2DView003
100
AcDbEllipse
 10
0.000000000
 20
332.749420939
 30
0.000000000
 11
-0.260781969
 21
-0.965397724
 31
0.000000000
 40
0.999974412
 41
-3.120129390
 42
-0.021463263
  0
ELLIPSE
  5
AA2
330
A02
100
AcDbEntity
  8
Shape2DView003
100
AcDbEllipse
 10
128.746929599
 20
312.126115660
 30
0.000000000
 11
-0.260781969
 21
-0.965397724
 31
0.000000000
 40
0.999974412
 41
-3.120129390
 42
-0.021463263
  0
ELLIPSE
  5
AA3
330
A02
100
AcDbEntity
  8
Shape2DView003
100
AcDbEllipse
 10
0.000000000
 20
-332.749420939
 30
0.000000000
 11
-0.260781969
 21
-0.965397724
 31
0.000000000
 40
0.999974412
 41
-3.120129390
 42
-0.021463263
  0
ELLIPSE
  5
AA4
330
A02
100
AcDbEntity
  8
Shape2DView003
100
AcDbEllipse
 10
128.746929599
 20
0.001658829
 30
0.000000000
 11
-0.260781969
 21
-0.965397724
 31
0.000000000
 40
0.999974412
 41
-3.120129390
 42
-0.021463263
  0
ELLIPSE
  5
AA5
330
A02
100
AcDbEntity
  8
Shape2DView003
100
AcDbEllipse
 10
128.746929599
 20
-312.122798003
 30
0.000000000
 11
-0.260781969
 21
-0.965397724
 31
0.000000000
 40
0.999974412
 41
-3.120129390
 42
-0.021463263
  0
LINE
  5
AA6
330
A02
100
AcDbEntity
  8
Shape2DView003
100
AcDbLine
 10
125.705564214
 20
317.762260537
 30
0.000000000
 11
131.955415165
 21
317.762341062
 31
0.000000000
  0
LINE
  5
AA7
330
A02
100
AcDbEntity
  8
Shape2DView003
100
AcDbLine
 10
131.955415165
 20
317.762341062
 30
0.000000000
 11
131.996852094
 21
317.751147744
 31
0.000000000
  0
LINE
  5
AA8
330
A02
100
AcDbEntity
  8
Shape2DView003
100
AcDbLine
 10
131.955415165
 20
306.262361075
 30
0.000000000
 11
131.955415165
 21
317.762341062
 31
0.000000000
  0
LINE
  5
AA9
330
A02
100
AcDbEntity
  8
Shape2DView003
100
AcDbLine
 10
131.955415165
 20
306.262361075
 30
0.000000000
 11
131.996852094
 21
306.251167757
 31
0.000000000
  0
LINE
  5
AAA
330
A02
100
AcDbEntity
  8
Shape2DView003
100
AcDbLine
 10
131.955415165
 20
306.262361075
 30
0.000000000
 11
125.705564214
 21
306.262280549
 31
0.000000000
  0
LINE
  5
AAB
330
A02
100
AcDbEntity
  8
Shape2DView003
100
AcDbLine
 10
125.705564214
 20
306.262280549
 30
0.000000000
 11
125.747001143
 21
306.251087231
 31
0.000000000
  0
LINE
  5
AAC
330
A02
100
AcDbEntity
  8
Shape2DView003
100
AcDbLine
 10
125.705564214
 20
306.262280549
 30
0.000000000
 11
125.705564214
 21
293.762302302
 31
0.000000000
  0
LINE
  5
AAD
330
A02
100
AcDbEntity
  8
Shape2DView003
100
AcDbLine
 10
125.705564214
 20
293.762302302
 30
0.000000000
 11
131.955415165
 21
293.762382828
 31
0.000000000
  0
LINE
  5
AAE
330
A02
100
AcDbEntity
  8
Shape2DView003
100
AcDbLine
 10
131.955415165
 20
293.762382828
 30
0.000000000
 11
131.996852094
 21
293.751189510
 31
0.000000000
  0
LINE
  5
AAF
330
A02
100
AcDbEntity
  8
Shape2DView003
100
AcDbLine
 10
131.955415165
 20
282.262402841
 30
0.000000000
 11
131.955415165
 21
293.762382828
 31
0.000000000
  0
LINE
  5
AB0
330
A02
100
AcDbEntity
  8
Shape2DView003
100
AcDbLine
 10
131.955415165
 20
282.262402841
 30
0.000000000
 11
131.996852094
 21
282.251209522
 31
0.000000000
  0
LINE
  5
AB1
330
A02
100
AcDbEntity
  8
Shape2DView003
100
AcDbLine
 10
131.955415165
 20
282.262402841
 30
0.000000000
 11
125.705564214
 21
282.262322315
 31
0.000000000
  0
LINE
  5
AB2
330
A02
100
AcDbEntity
  8
Shape2DView003
100
AcDbLine
 10
125.705564214
 20
282.262322315
 30
0.000000000
 11
125.747001143
 21
282.251128997
 31
0.000000000
  0
LINE
  5
AB3
330
A02
100
AcDbEntity
  8
Shape2DView003
100
AcDbLine
 10
125.705564214
 20
282.262322315
 30
0.000000000
 11
125.705564214
 21
269.762344068
 31
0.000000000
  0
LINE
  5
AB4
330
A02
100
AcDbEntity
  8
Shape2DView003
100
AcDbLine
 10
125.705564214
 20
269.762344068
 30
0.000000000
 11
131.955415165
 21
269.762424593
 31
0.000000000
  0
LINE
  5
AB5
330
A02
100
AcDbEntity
  8
Shape2DView003
100
AcDbLine
 10
131.955415165
 20
269.762424593
 30
0.000000000
 11
131.996852094
 21
269.751231275
 31
0.000000000
  0
LINE
  5
AB6
330
A02
100
AcDbEntity
  8
Shape2DView003
100
AcDbLine
 10
131.955415165
 20
258.262444606
 30
0.000000000
 11
131.955415165
 21
269.762424593
 31
0.000000000
  0
LINE
  5
AB7
330
A02
100
AcDbEntity
  8
Shape2DView003
100
AcDbLine
 10
131.955415165
 20
258.262444606
 30
0.000000000
 11
131.996852094
 21
258.251251288
 31
0.000000000
  0
LINE
  5
AB8
330
A02
100
AcDbEntity
  8
Shape2DView003
100
AcDbLine
 10
131.955415165
 20
258.262444606
 30
0.000000000
 11
125.705564214
 21
258.262364080
 31
0.000000000
  0
LINE
  5
AB9
330
A02
100
AcDbEntity
  8
Shape2DView003
100
AcDbLine
 10
125.705564214
 20
258.262364080
 30
0.000000000
 11
125.747001143
 21
258.251170762
 31
0.000000000
  0
LINE
  5
ABA
330
A02
100
AcDbEntity
  8
Shape2DView003
100
AcDbLine
 10
125.705564214
 20
258.262364080
 30
0.000000000
 11
125.705564214
 21
245.762385833
 31
0.000000000
  0
LINE
  5
ABB
330
A02
100
AcDbEntity
  8
Shape2DView003
100
AcDbLine
 10
125.705564214
 20
245.762385833
 30
0.000000000
 11
131.955415165
 21
245.762466359
 31
0.000000000
  0
LINE
  5
ABC
330
A02
100
AcDbEntity
  8
Shape2DView003
100
AcDbLine
 10
131.955415165
 20
245.762466359
 30
0.000000000
 11
131.996852094
 21
245.751273041
 31
0.000000000
  0
LINE
  5
ABD
330
A02
100
AcDbEntity
  8
Shape2DView003
100
AcDbLine
 10
131.955415165
 20
234.262486372
 30
0.000000000
 11
131.955415165
 21
245.762466359
 31
0.000000000
  0
LINE
  5
ABE
330
A02
100
AcDbEntity
  8
Shape2DView003
100
AcDbLine
 10
131.955415165
 20
234.262486372
 30
0.000000000
 11
131.996852094
 21
234.251293053
 31
0.000000000
  0
LINE
  5
ABF
330
A02
100
AcDbEntity
  8
Shape2DView003
100
AcDbLine
 10
131.955415165
 20
234.262486372
 30
0.000000000
 11
125.705564214
 21
234.262405846
 31
0.000000000
  0
LINE
  5
AC0
330
A02
100
AcDbEntity
  8
Shape2DView003
100
AcDbLine
 10
125.705564214
 20
234.262405846
 30
0.000000000
 11
125.747001143
 21
234.251212528
 31
0.000000000
  0
LINE
  5
AC1
330
A02
100
AcDbEntity
  8
Shape2DView003
100
AcDbLine
 10
125.705564214
 20
234.262405846
 30
0.000000000
 11
125.705564214
 21
221.762427599
 31
0.000000000
  0
LINE
  5
AC2
330
A02
100
AcDbEntity
  8
Shape2DView003
100
AcDbLine
 10
125.705564214
 20
221.762427599
 30
0.000000000
 11
131.955415165
 21
221.762508124
 31
0.000000000
  0
LINE
  5
AC3
330
A02
100
AcDbEntity
  8
Shape2DView003
100
AcDbLine
 10
131.955415165
 20
221.762508124
 30
0.000000000
 11
131.996852094
 21
221.751314806
 31
0.000000000
  0
LINE
  5
AC4
330
A02
100
AcDbEntity
  8
Shape2DView003
100
AcDbLine
 10
131.955415165
 20
210.262528137
 30
0.000000000
 11
131.955415165
 21
221.762508124
 31
0.000000000
  0
LINE
  5
AC5
330
A02
100
AcDbEntity
  8
Shape2DView003
100
AcDbLine
 10
131.955415165
 20
210.262528137
 30
0.000000000
 11
131.996852094
 21
210.251334819
 31
0.000000000
  0
LINE
  5
AC6
330
A02
100
AcDbEntity
  8
Shape2DView003
100
AcDbLine
 10
131.955415165
 20
210.262528137
 30
0.000000000
 11
125.705564214
 21
210.262447611
 31
0.000000000
  0
LINE
  5
AC7
330
A02
100
AcDbEntity
  8
Shape2DView003
100
AcDbLine
 10
125.705564214
 20
210.262447611
 30
0.000000000
 11
125.747001143
 21
210.251254293
 31
0.000000000
  0
LINE
  5
AC8
330
A02
100
AcDbEntity
  8
Shape2DView003
100
AcDbLine
 10
125.705564214
 20
210.262447611
 30
0.000000000
 11
125.705564214
 21
197.762469364
 31
0.000000000
  0
LINE
  5
AC9
330
A02
100
AcDbEntity
  8
Shape2DView003
100
AcDbLine
 10
125.705564214
 20
197.762469364
 30
0.000000000
 11
131.955415165
 21
197.762549890
 31
0.000000000
  0
LINE
  5
ACA
330
A02
100
AcDbEntity
  8
Shape2DView003
100
AcDbLine
 10
131.955415165
 20
197.762549890
 30
0.000000000
 11
131.996852094
 21
197.751356572
 31
0.000000000
  0
LINE
  5
ACB
330
A02
100
AcDbEntity
  8
Shape2DView003
100
AcDbLine
 10
131.955415165
 20
186.262569903
 30
0.000000000
 11
131.955415165
 21
197.762549890
 31
0.000000000
  0
LINE
  5
ACC
330
A02
100
AcDbEntity
  8
Shape2DView003
100
AcDbLine
 10
131.955415165
 20
186.262569903
 30
0.000000000
 11
131.996852094
 21
186.251376584
 31
0.000000000
  0
LINE
  5
ACD
330
A02
100
AcDbEntity
  8
Shape2DView003
100
AcDbLine
 10
131.955415165
 20
186.262569903
 30
0.000000000
 11
125.705564214
 21
186.262489377
 31
0.000000000
  0
LINE
  5
ACE
330
A02
100
AcDbEntity
  8
Shape2DView003
100
AcDbLine
 10
125.705564214
 20
186.262489377
 30
0.000000000
 11
125.747001143
 21
186.251296059
 31
0.000000000
  0
LINE
  5
ACF
330
A02
100
AcDbEntity
  8
Shape2DView003
100
AcDbLine
 10
125.705564214
 20
186.262489377
 30
0.000000000
 11
125.705564214
 21
173.762511130
 31
0.000000000
  0
LINE
  5
AD0
330
A02
100
AcDbEntity
  8
Shape2DView003
100
AcDbLine
 10
125.705564214
 20
173.762511130
 30
0.000000000
 11
131.955415165
 21
173.762591655
 31
0.000000000
  0
LINE
  5
AD1
330
A02
100
AcDbEntity
  8
Shape2DView003
100
AcDbLine
 10
131.955415165
 20
173.762591655
 30
0.000000000
 11
131.996852094
 21
173.751398337
 31
0.000000000
  0
LINE
  5
AD2
330
A02
100
AcDbEntity
  8
Shape2DView003
100
AcDbLine
 10
131.955415165
 20
162.262611668
 30
0.000000000
 11
131.955415165
 21
173.762591655
 31
0.000000000
  0
LINE
  5
AD3
330
A02
100
AcDbEntity
  8
Shape2DView003
100
AcDbLine
 10
131.955415165
 20
162.262611668
 30
0.000000000
 11
131.996852094
 21
162.251418350
 31
0.000000000
  0
LINE
  5
AD4
330
A02
100
AcDbEntity
  8
Shape2DView003
100
AcDbLine
 10
131.955415165
 20
162.262611668
 30
0.000000000
 11
125.705564214
 21
162.262531142
 31
0.000000000
  0
LINE
  5
AD5
330
A02
100
AcDbEntity
  8
Shape2DView003
100
AcDbLine
 10
125.705564214
 20
162.262531142
 30
0.000000000
 11
125.747001143
 21
162.251337824
 31
0.000000000
  0
LINE
  5
AD6
330
A02
100
AcDbEntity
  8
Shape2DView003
100
AcDbLine
 10
125.705564214
 20
162.262531142
 30
0.000000000
 11
125.705564214
 21
149.762552895
 31
0.000000000
  0
LINE
  5
AD7
330
A02
100
AcDbEntity
  8
Shape2DView003
100
AcDbLine
 10
125.705564214
 20
149.762552895
 30
0.000000000
 11
131.955415165
 21
149.762633421
 31
0.000000000
  0
LINE
  5
AD8
330
A02
100
AcDbEntity
  8
Shape2DView003
100
AcDbLine
 10
131.955415165
 20
149.762633421
 30
0.000000000
 11
131.996852094
 21
149.751440103
 31
0.000000000
  0
LINE
  5
AD9
330
A02
100
AcDbEntity
  8
Shape2DView003
100
AcDbLine
 10
131.955415165
 20
138.262653434
 30
0.000000000
 11
131.955415165
 21
149.762633421
 31
0.000000000
  0
LINE
  5
ADA
330
A02
100
AcDbEntity
  8
Shape2DView003
100
AcDbLine
 10
131.955415165
 20
138.262653434
 30
0.000000000
 11
131.996852094
 21
138.251460115
 31
0.000000000
  0
LINE
  5
ADB
330
A02
100
AcDbEntity
  8
Shape2DView003
100
AcDbLine
 10
131.955415165
 20
138.262653434
 30
0.000000000
 11
125.705564214
 21
138.262572908
 31
0.000000000
  0
LINE
  5
ADC
330
A02
100
AcDbEntity
  8
Shape2DView003
100
AcDbLine
 10
125.705564214
 20
138.262572908
 30
0.000000000
 11
125.747001143
 21
138.251379590
 31
0.000000000
  0
LINE
  5
ADD
330
A02
100
AcDbEntity
  8
Shape2DView003
100
AcDbLine
 10
125.705564214
 20
138.262572908
 30
0.000000000
 11
125.705564214
 21
125.762594661
 31
0.000000000
  0
LINE
  5
ADE
330
A02
100
AcDbEntity
  8
Shape2DView003
100
AcDbLine
 10
125.705564214
 20
125.762594661
 30
0.000000000
 11
131.955415165
 21
125.762675186
 31
0.000000000
  0
LINE
  5
ADF
330
A02
100
AcDbEntity
  8
Shape2DView003
100
AcDbLine
 10
131.955415165
 20
125.762675186
 30
0.000000000
 11
131.996852094
 21
125.751481868
 31
0.000000000
  0
LINE
  5
AE0
330
A02
100
AcDbEntity
  8
Shape2DView003
100
AcDbLine
 10
131.955415165
 20
114.262695199
 30
0.000000000
 11
131.955415165
 21
125.762675186
 31
0.000000000
  0
LINE
  5
AE1
330
A02
100
AcDbEntity
  8
Shape2DView003
100
AcDbLine
 10
131.955415165
 20
114.262695199
 30
0.000000000
 11
131.996852094
 21
114.251501881
 31
0.000000000
  0
LINE
  5
AE2
330
A02
100
AcDbEntity
  8
Shape2DView003
100
AcDbLine
 10
131.955415165
 20
114.262695199
 30
0.000000000
 11
125.705564214
 21
114.262614673
 31
0.000000000
  0
LINE
  5
AE3
330
A02
100
AcDbEntity
  8
Shape2DView003
100
AcDbLine
 10
125.705564214
 20
114.262614673
 30
0.000000000
 11
125.747001143
 21
114.251421355
 31
0.000000000
  0
LINE
  5
AE4
330
A02
100
AcDbEntity
  8
Shape2DView003
100
AcDbLine
 10
125.705564214
 20
114.262614673
 30
0.000000000
 11
125.705564214
 21
101.762636426
 31
0.000000000
  0
LINE
  5
AE5
330
A02
100
AcDbEntity
  8
Shape2DView003
100
AcDbLine
 10
125.705564214
 20
101.762636426
 30
0.000000000
 11
131.955415165
 21
101.762716952
 31
0.000000000
  0
LINE
  5
AE6
330
A02
100
AcDbEntity
  8
Shape2DView003
100
AcDbLine
 10
131.955415165
 20
101.762716952
 30
0.000000000
 11
131.996852094
 21
101.751523634
 31
0.000000000
  0
LINE
  5
AE7
330
A02
100
AcDbEntity
  8
Shape2DView003
100
AcDbLine
 10
131.955415165
 20
90.262736964
 30
0.000000000
 11
131.955415165
 21
101.762716952
 31
0.000000000
  0
LINE
  5
AE8
330
A02
100
AcDbEntity
  8
Shape2DView003
100
AcDbLine
 10
131.955415165
 20
90.262736964
 30
0.000000000
 11
131.996852094
 21
90.251543646
 31
0.000000000
  0
LINE
  5
AE9
330
A02
100
AcDbEntity
  8
Shape2DView003
100
AcDbLine
 10
131.955415165
 20
90.262736964
 30
0.000000000
 11
125.705564214
 21
90.262656439
 31
0.000000000
  0
LINE
  5
AEA
330
A02
100
AcDbEntity
  8
Shape2DView003
100
AcDbLine
 10
125.705564214
 20
90.262656439
 30
0.000000000
 11
125.747001143
 21
90.251463121
 31
0.000000000
  0
LINE
  5
AEB
330
A02
100
AcDbEntity
  8
Shape2DView003
100
AcDbLine
 10
125.705564214
 20
90.262656439
 30
0.000000000
 11
125.705564214
 21
77.762678192
 31
0.000000000
  0
LINE
  5
AEC
330
A02
100
AcDbEntity
  8
Shape2DView003
100
AcDbLine
 10
125.705564214
 20
77.762678192
 30
0.000000000
 11
131.955415165
 21
77.762758717
 31
0.000000000
  0
LINE
  5
AED
330
A02
100
AcDbEntity
  8
Shape2DView003
100
AcDbLine
 10
131.955415165
 20
77.762758717
 30
0.000000000
 11
131.996852094
 21
77.751565399
 31
0.000000000
  0
LINE
  5
AEE
330
A02
100
AcDbEntity
  8
Shape2DView003
100
AcDbLine
 10
131.955415165
 20
66.262778730
 30
0.000000000
 11
131.955415165
 21
77.762758717
 31
0.000000000
  0
LINE
  5
AEF
330
A02
100
AcDbEntity
  8
Shape2DView003
100
AcDbLine
 10
131.955415165
 20
66.262778730
 30
0.000000000
 11
131.996852094
 21
66.251585412
 31
0.000000000
  0
LINE
  5
AF0
330
A02
100
AcDbEntity
  8
Shape2DView003
100
AcDbLine
 10
131.955415165
 20
66.262778730
 30
0.000000000
 11
125.705564214
 21
66.262698204
 31
0.000000000
  0
LINE
  5
AF1
330
A02
100
AcDbEntity
  8
Shape2DView003
100
AcDbLine
 10
125.705564214
 20
66.262698204
 30
0.000000000
 11
125.747001143
 21
66.251504886
 31
0.000000000
  0
LINE
  5
AF2
330
A02
100
AcDbEntity
  8
Shape2DView003
100
AcDbLine
 10
125.705564214
 20
66.262698204
 30
0.000000000
 11
125.705564214
 21
53.762719957
 31
0.000000000
  0
LINE
  5
AF3
330
A02
100
AcDbEntity
  8
Shape2DView003
100
AcDbLine
 10
125.705564214
 20
53.762719957
 30
0.000000000
 11
131.955415165
 21
53.762800483
 31
0.000000000
  0
LINE
  5
AF4
330
A02
100
AcDbEntity
  8
Shape2DView003
100
AcDbLine
 10
131.955415165
 20
53.762800483
 30
0.000000000
 11
131.996852094
 21
53.751607165
 31
0.000000000
  0
LINE
  5
AF5
330
A02
100
AcDbEntity
  8
Shape2DView003
100
AcDbLine
 10
131.955415165
 20
42.262820495
 30
0.000000000
 11
131.955415165
 21
53.762800483
 31
0.000000000
  0
LINE
  5
AF6
330
A02
100
AcDbEntity
  8
Shape2DView003
100
AcDbLine
 10
131.955415165
 20
42.262820495
 30
0.000000000
 11
131.996852094
 21
42.251627177
 31
0.000000000
  0
LINE
  5
AF7
330
A02
100
AcDbEntity
  8
Shape2DView003
100
AcDbLine
 10
131.955415165
 20
42.262820495
 30
0.000000000
 11
125.705564214
 21
42.262739970
 31
0.000000000
  0
LINE
  5
AF8
330
A02
100
AcDbEntity
  8
Shape2DView003
100
AcDbLine
 10
125.705564214
 20
42.262739970
 30
0.000000000
 11
125.747001143
 21
42.251546652
 31
0.000000000
  0
LINE
  5
AF9
330
A02
100
AcDbEntity
  8
Shape2DView003
100
AcDbLine
 10
125.705564214
 20
42.262739970
 30
0.000000000
 11
125.705564214
 21
29.762761723
 31
0.000000000
  0
LINE
  5
AFA
330
A02
100
AcDbEntity
  8
Shape2DView003
100
AcDbLine
 10
125.705564214
 20
29.762761723
 30
0.000000000
 11
131.955415165
 21
29.762842248
 31
0.000000000
  0
LINE
  5
AFB
330
A02
100
AcDbEntity
  8
Shape2DView003
100
AcDbLine
 10
131.955415165
 20
29.762842248
 30
0.000000000
 11
131.996852094
 21
29.751648930
 31
0.000000000
  0
LINE
  5
AFC
330
A02
100
AcDbEntity
  8
Shape2DView003
100
AcDbLine
 10
131.955415165
 20
18.262862261
 30
0.000000000
 11
131.955415165
 21
29.762842248
 31
0.000000000
  0
LINE
  5
AFD
330
A02
100
AcDbEntity
  8
Shape2DView003
100
AcDbLine
 10
131.955415165
 20
18.262862261
 30
0.000000000
 11
131.996852094
 21
18.251668943
 31
0.000000000
  0
LINE
  5
AFE
330
A02
100
AcDbEntity
  8
Shape2DView003
100
AcDbLine
 10
131.955415165
 20
18.262862261
 30
0.000000000
 11
125.705564214
 21
18.262781735
 31
0.000000000
  0
LINE
  5
AFF
330
A02
100
AcDbEntity
  8
Shape2DView003
100
AcDbLine
 10
125.705564214
 20
18.262781735
 30
0.000000000
 11
125.747001143
 21
18.251588417
 31
0.000000000
  0
LINE
  5
B00
330
A02
100
AcDbEntity
  8
Shape2DView003
100
AcDbLine
 10
125.705564214
 20
18.262781735
 30
0.000000000
 11
125.705564214
 21
5.762803488
 31
0.000000000
  0
LINE
  5
B01
330
A02
100
AcDbEntity
  8
Shape2DView003
100
AcDbLine
 10
125.705564214
 20
5.762803488
 30
0.000000000
 11
131.955415165
 21
5.762884014
 31
0.000000000
  0
LINE
  5
B02
330
A02
100
AcDbEntity
  8
Shape2DView003
100
AcDbLine
 10
131.955415165
 20
5.762884014
 30
0.000000000
 11
131.996852094
 21
5.751690696
 31
0.000000000
  0
LINE
  5
B03
330
A02
100
AcDbEntity
  8
Shape2DView003
100
AcDbLine
 10
131.955415165
 20
-5.737095974
 30
0.000000000
 11
131.955415165
 21
5.762884014
 31
0.000000000
  0
LINE
  5
B04
330
A02
100
AcDbEntity
  8
Shape2DView003
100
AcDbLine
 10
131.955415165
 20
-5.737095974
 30
0.000000000
 11
131.996852094
 21
-5.748289292
 31
0.000000000
  0
LINE
  5
B05
330
A02
100
AcDbEntity
  8
Shape2DView003
100
AcDbLine
 10
131.955415165
 20
-5.737095974
 30
0.000000000
 11
125.705564214
 21
-5.737176499
 31
0.000000000
  0
LINE
  5
B06
330
A02
100
AcDbEntity
  8
Shape2DView003
100
AcDbLine
 10
125.705564214
 20
-5.737176499
 30
0.000000000
 11
125.747001143
 21
-5.748369817
 31
0.000000000
  0
LINE
  5
B07
330
A02
100
AcDbEntity
  8
Shape2DView003
100
AcDbLine
 10
125.705564214
 20
-5.737176499
 30
0.000000000
 11
125.705564214
 21
-18.237154746
 31
0.000000000
  0
LINE
  5
B08
330
A02
100
AcDbEntity
  8
Shape2DView003
100
AcDbLine
 10
125.705564214
 20
-18.237154746
 30
0.000000000
 11
131.955415165
 21
-18.237074221
 31
0.000000000
  0
LINE
  5
B09
330
A02
100
AcDbEntity
  8
Shape2DView003
100
AcDbLine
 10
131.955415165
 20
-18.237074221
 30
0.000000000
 11
131.996852094
 21
-18.248267539
 31
0.000000000
  0
LINE
  5
B0A
330
A02
100
AcDbEntity
  8
Shape2DView003
100
AcDbLine
 10
131.955415165
 20
-29.737054208
 30
0.000000000
 11
131.955415165
 21
-18.237074221
 31
0.000000000
  0
LINE
  5
B0B
330
A02
100
AcDbEntity
  8
Shape2DView003
100
AcDbLine
 10
131.955415165
 20
-29.737054208
 30
0.000000000
 11
131.996852094
 21
-29.748247526
 31
0.000000000
  0
LINE
  5
B0C
330
A02
100
AcDbEntity
  8
Shape2DView003
100
AcDbLine
 10
131.955415165
 20
-29.737054208
 30
0.000000000
 11
125.705564214
 21
-29.737134734
 31
0.000000000
  0
LINE
  5
B0D
330
A02
100
AcDbEntity
  8
Shape2DView003
100
AcDbLine
 10
125.705564214
 20
-29.737134734
 30
0.000000000
 11
125.747001143
 21
-29.748328052
 31
0.000000000
  0
LINE
  5
B0E
330
A02
100
AcDbEntity
  8
Shape2DView003
100
AcDbLine
 10
125.705564214
 20
-29.737134734
 30
0.000000000
 11
125.705564214
 21
-42.237112981
 31
0.000000000
  0
LINE
  5
B0F
330
A02
100
AcDbEntity
  8
Shape2DView003
100
AcDbLine
 10
125.705564214
 20
-42.237112981
 30
0.000000000
 11
131.955415165
 21
-42.237032455
 31
0.000000000
  0
LINE
  5
B10
330
A02
100
AcDbEntity
  8
Shape2DView003
100
AcDbLine
 10
131.955415165
 20
-42.237032455
 30
0.000000000
 11
131.996852094
 21
-42.248225773
 31
0.000000000
  0
LINE
  5
B11
330
A02
100
AcDbEntity
  8
Shape2DView003
100
AcDbLine
 10
131.955415165
 20
-53.737012443
 30
0.000000000
 11
131.955415165
 21
-42.237032455
 31
0.000000000
  0
LINE
  5
B12
330
A02
100
AcDbEntity
  8
Shape2DView003
100
AcDbLine
 10
131.955415165
 20
-53.737012443
 30
0.000000000
 11
131.996852094
 21
-53.748205761
 31
0.000000000
  0
LINE
  5
B13
330
A02
100
AcDbEntity
  8
Shape2DView003
100
AcDbLine
 10
131.955415165
 20
-53.737012443
 30
0.000000000
 11
125.705564214
 21
-53.737092968
 31
0.000000000
  0
LINE
  5
B14
330
A02
100
AcDbEntity
  8
Shape2DView003
100
AcDbLine
 10
125.705564214
 20
-53.737092968
 30
0.000000000
 11
125.747001143
 21
-53.748286286
 31
0.000000000
  0
LINE
  5
B15
330
A02
100
AcDbEntity
  8
Shape2DView003
100
AcDbLine
 10
125.705564214
 20
-53.737092968
 30
0.000000000
 11
125.705564214
 21
-66.237071215
 31
0.000000000
  0
LINE
  5
B16
330
A02
100
AcDbEntity
  8
Shape2DView003
100
AcDbLine
 10
125.705564214
 20
-66.237071215
 30
0.000000000
 11
131.955415165
 21
-66.236990690
 31
0.000000000
  0
LINE
  5
B17
330
A02
100
AcDbEntity
  8
Shape2DView003
100
AcDbLine
 10
131.955415165
 20
-66.236990690
 30
0.000000000
 11
131.996852094
 21
-66.248184008
 31
0.000000000
  0
LINE
  5
B18
330
A02
100
AcDbEntity
  8
Shape2DView003
100
AcDbLine
 10
131.955415165
 20
-77.736970677
 30
0.000000000
 11
131.955415165
 21
-66.236990690
 31
0.000000000
  0
LINE
  5
B19
330
A02
100
AcDbEntity
  8
Shape2DView003
100
AcDbLine
 10
131.955415165
 20
-77.736970677
 30
0.000000000
 11
131.996852094
 21
-77.748163995
 31
0.000000000
  0
LINE
  5
B1A
330
A02
100
AcDbEntity
  8
Shape2DView003
100
AcDbLine
 10
131.955415165
 20
-77.736970677
 30
0.000000000
 11
125.705564214
 21
-77.737051203
 31
0.000000000
  0
LINE
  5
B1B
330
A02
100
AcDbEntity
  8
Shape2DView003
100
AcDbLine
 10
125.705564214
 20
-77.737051203
 30
0.000000000
 11
125.747001143
 21
-77.748244521
 31
0.000000000
  0
LINE
  5
B1C
330
A02
100
AcDbEntity
  8
Shape2DView003
100
AcDbLine
 10
125.705564214
 20
-77.737051203
 30
0.000000000
 11
125.705564214
 21
-90.237029450
 31
0.000000000
  0
LINE
  5
B1D
330
A02
100
AcDbEntity
  8
Shape2DView003
100
AcDbLine
 10
125.705564214
 20
-90.237029450
 30
0.000000000
 11
131.955415165
 21
-90.236948924
 31
0.000000000
  0
LINE
  5
B1E
330
A02
100
AcDbEntity
  8
Shape2DView003
100
AcDbLine
 10
131.955415165
 20
-90.236948924
 30
0.000000000
 11
131.996852094
 21
-90.248142242
 31
0.000000000
  0
LINE
  5
B1F
330
A02
100
AcDbEntity
  8
Shape2DView003
100
AcDbLine
 10
131.955415165
 20
-101.736928912
 30
0.000000000
 11
131.955415165
 21
-90.236948924
 31
0.000000000
  0
LINE
  5
B20
330
A02
100
AcDbEntity
  8
Shape2DView003
100
AcDbLine
 10
131.955415165
 20
-101.736928912
 30
0.000000000
 11
131.996852094
 21
-101.748122230
 31
0.000000000
  0
LINE
  5
B21
330
A02
100
AcDbEntity
  8
Shape2DView003
100
AcDbLine
 10
131.955415165
 20
-101.736928912
 30
0.000000000
 11
125.705564214
 21
-101.737009437
 31
0.000000000
  0
LINE
  5
B22
330
A02
100
AcDbEntity
  8
Shape2DView003
100
AcDbLine
 10
125.705564214
 20
-101.737009437
 30
0.000000000
 11
125.747001143
 21
-101.748202755
 31
0.000000000
  0
LINE
  5
B23
330
A02
100
AcDbEntity
  8
Shape2DView003
100
AcDbLine
 10
125.705564214
 20
-101.737009437
 30
0.000000000
 11
125.705564214
 21
-114.236987684
 31
0.000000000
  0
LINE
  5
B24
330
A02
100
AcDbEntity
  8
Shape2DView003
100
AcDbLine
 10
125.705564214
 20
-114.236987684
 30
0.000000000
 11
131.955415165
 21
-114.236907159
 31
0.000000000
  0
LINE
  5
B25
330
A02
100
AcDbEntity
  8
Shape2DView003
100
AcDbLine
 10
131.955415165
 20
-114.236907159
 30
0.000000000
 11
131.996852094
 21
-114.248100477
 31
0.000000000
  0
LINE
  5
B26
330
A02
100
AcDbEntity
  8
Shape2DView003
100
AcDbLine
 10
131.955415165
 20
-125.736887146
 30
0.000000000
 11
131.955415165
 21
-114.236907159
 31
0.000000000
  0
LINE
  5
B27
330
A02
100
AcDbEntity
  8
Shape2DView003
100
AcDbLine
 10
131.955415165
 20
-125.736887146
 30
0.000000000
 11
131.996852094
 21
-125.748080464
 31
0.000000000
  0
LINE
  5
B28
330
A02
100
AcDbEntity
  8
Shape2DView003
100
AcDbLine
 10
131.955415165
 20
-125.736887146
 30
0.000000000
 11
125.705564214
 21
-125.736967672
 31
0.000000000
  0
LINE
  5
B29
330
A02
100
AcDbEntity
  8
Shape2DView003
100
AcDbLine
 10
125.705564214
 20
-125.736967672
 30
0.000000000
 11
125.747001143
 21
-125.748160990
 31
0.000000000
  0
LINE
  5
B2A
330
A02
100
AcDbEntity
  8
Shape2DView003
100
AcDbLine
 10
125.705564214
 20
-125.736967672
 30
0.000000000
 11
125.705564214
 21
-138.236945919
 31
0.000000000
  0
LINE
  5
B2B
330
A02
100
AcDbEntity
  8
Shape2DView003
100
AcDbLine
 10
125.705564214
 20
-138.236945919
 30
0.000000000
 11
131.955415165
 21
-138.236865393
 31
0.000000000
  0
LINE
  5
B2C
330
A02
100
AcDbEntity
  8
Shape2DView003
100
AcDbLine
 10
131.955415165
 20
-138.236865393
 30
0.000000000
 11
131.996852094
 21
-138.248058711
 31
0.000000000
  0
LINE
  5
B2D
330
A02
100
AcDbEntity
  8
Shape2DView003
100
AcDbLine
 10
131.955415165
 20
-149.736845381
 30
0.000000000
 11
131.955415165
 21
-138.236865393
 31
0.000000000
  0
LINE
  5
B2E
330
A02
100
AcDbEntity
  8
Shape2DView003
100
AcDbLine
 10
131.955415165
 20
-149.736845381
 30
0.000000000
 11
131.996852094
 21
-149.748038699
 31
0.000000000
  0
LINE
  5
B2F
330
A02
100
AcDbEntity
  8
Shape2DView003
100
AcDbLine
 10
131.955415165
 20
-149.736845381
 30
0.000000000
 11
125.705564214
 21
-149.736925906
 31
0.000000000
  0
LINE
  5
B30
330
A02
100
AcDbEntity
  8
Shape2DView003
100
AcDbLine
 10
125.705564214
 20
-149.736925906
 30
0.000000000
 11
125.747001143
 21
-149.748119225
 31
0.000000000
  0
LINE
  5
B31
330
A02
100
AcDbEntity
  8
Shape2DView003
100
AcDbLine
 10
125.705564214
 20
-149.736925906
 30
0.000000000
 11
125.705564214
 21
-162.236904153
 31
0.000000000
  0
LINE
  5
B32
330
A02
100
AcDbEntity
  8
Shape2DView003
100
AcDbLine
 10
125.705564214
 20
-162.236904153
 30
0.000000000
 11
131.955415165
 21
-162.236823628
 31
0.000000000
  0
LINE
  5
B33
330
A02
100
AcDbEntity
  8
Shape2DView003
100
AcDbLine
 10
131.955415165
 20
-162.236823628
 30
0.000000000
 11
131.996852094
 21
-162.248016946
 31
0.000000000
  0
LINE
  5
B34
330
A02
100
AcDbEntity
  8
Shape2DView003
100
AcDbLine
 10
131.955415165
 20
-173.736803615
 30
0.000000000
 11
131.955415165
 21
-162.236823628
 31
0.000000000
  0
LINE
  5
B35
330
A02
100
AcDbEntity
  8
Shape2DView003
100
AcDbLine
 10
131.955415165
 20
-173.736803615
 30
0.000000000
 11
131.996852094
 21
-173.747996933
 31
0.000000000
  0
LINE
  5
B36
330
A02
100
AcDbEntity
  8
Shape2DView003
100
AcDbLine
 10
131.955415165
 20
-173.736803615
 30
0.000000000
 11
125.705564214
 21
-173.736884141
 31
0.000000000
  0
LINE
  5
B37
330
A02
100
AcDbEntity
  8
Shape2DView003
100
AcDbLine
 10
125.705564214
 20
-173.736884141
 30
0.000000000
 11
125.747001143
 21
-173.748077459
 31
0.000000000
  0
LINE
  5
B38
330
A02
100
AcDbEntity
  8
Shape2DView003
100
AcDbLine
 10
125.705564214
 20
-173.736884141
 30
0.000000000
 11
125.705564214
 21
-186.236862388
 31
0.000000000
  0
LINE
  5
B39
330
A02
100
AcDbEntity
  8
Shape2DView003
100
AcDbLine
 10
125.705564214
 20
-186.236862388
 30
0.000000000
 11
131.955415165
 21
-186.236781862
 31
0.000000000
  0
LINE
  5
B3A
330
A02
100
AcDbEntity
  8
Shape2DView003
100
AcDbLine
 10
131.955415165
 20
-186.236781862
 30
0.000000000
 11
131.996852094
 21
-186.247975181
 31
0.000000000
  0
LINE
  5
B3B
330
A02
100
AcDbEntity
  8
Shape2DView003
100
AcDbLine
 10
131.955415165
 20
-197.736761850
 30
0.000000000
 11
131.955415165
 21
-186.236781862
 31
0.000000000
  0
LINE
  5
B3C
330
A02
100
AcDbEntity
  8
Shape2DView003
100
AcDbLine
 10
131.955415165
 20
-197.736761850
 30
0.000000000
 11
131.996852094
 21
-197.747955168
 31
0.000000000
  0
LINE
  5
B3D
330
A02
100
AcDbEntity
  8
Shape2DView003
100
AcDbLine
 10
131.955415165
 20
-197.736761850
 30
0.000000000
 11
125.705564214
 21
-197.736842375
 31
0.000000000
  0
LINE
  5
B3E
330
A02
100
AcDbEntity
  8
Shape2DView003
100
AcDbLine
 10
125.705564214
 20
-197.736842375
 30
0.000000000
 11
125.747001143
 21
-197.748035694
 31
0.000000000
  0
LINE
  5
B3F
330
A02
100
AcDbEntity
  8
Shape2DView003
100
AcDbLine
 10
125.705564214
 20
-197.736842375
 30
0.000000000
 11
125.705564214
 21
-210.236820622
 31
0.000000000
  0
LINE
  5
B40
330
A02
100
AcDbEntity
  8
Shape2DView003
100
AcDbLine
 10
125.705564214
 20
-210.236820622
 30
0.000000000
 11
131.955415165
 21
-210.236740097
 31
0.000000000
  0
LINE
  5
B41
330
A02
100
AcDbEntity
  8
Shape2DView003
100
AcDbLine
 10
131.955415165
 20
-210.236740097
 30
0.000000000
 11
131.996852094
 21
-210.247933415
 31
0.000000000
  0
LINE
  5
B42
330
A02
100
AcDbEntity
  8
Shape2DView003
100
AcDbLine
 10
131.955415165
 20
-221.736720084
 30
0.000000000
 11
131.955415165
 21
-210.236740097
 31
0.000000000
  0
LINE
  5
B43
330
A02
100
AcDbEntity
  8
Shape2DView003
100
AcDbLine
 10
131.955415165
 20
-221.736720084
 30
0.000000000
 11
131.996852094
 21
-221.747913402
 31
0.000000000
  0
LINE
  5
B44
330
A02
100
AcDbEntity
  8
Shape2DView003
100
AcDbLine
 10
131.955415165
 20
-221.736720084
 30
0.000000000
 11
125.705564214
 21
-221.736800610
 31
0.000000000
  0
LINE
  5
B45
330
A02
100
AcDbEntity
  8
Shape2DView003
100
AcDbLine
 10
125.705564214
 20
-221.736800610
 30
0.000000000
 11
125.747001143
 21
-221.747993928
 31
0.000000000
  0
LINE
  5
B46
330
A02
100
AcDbEntity
  8
Shape2DView003
100
AcDbLine
 10
125.705564214
 20
-221.736800610
 30
0.000000000
 11
125.705564214
 21
-234.236778857
 31
0.000000000
  0
LINE
  5
B47
330
A02
100
AcDbEntity
  8
Shape2DView003
100
AcDbLine
 10
125.705564214
 20
-234.236778857
 30
0.000000000
 11
131.955415165
 21
-234.236698331
 31
0.000000000
  0
LINE
  5
B48
330
A02
100
AcDbEntity
  8
Shape2DView003
100
AcDbLine
 10
131.955415165
 20
-234.236698331
 30
0.000000000
 11
131.996852094
 21
-234.247891650
 31
0.000000000
  0
LINE
  5
B49
330
A02
100
AcDbEntity
  8
Shape2DView003
100
AcDbLine
 10
131.955415165
 20
-245.736678319
 30
0.000000000
 11
131.955415165
 21
-234.236698331
 31
0.000000000
  0
LINE
  5
B4A
330
A02
100
AcDbEntity
  8
Shape2DView003
100
AcDbLine
 10
131.955415165
 20
-245.736678319
 30
0.000000000
 11
131.996852094
 21
-245.747871637
 31
0.000000000
  0
LINE
  5
B4B
330
A02
100
AcDbEntity
  8
Shape2DView003
100
AcDbLine
 10
131.955415165
 20
-245.736678319
 30
0.000000000
 11
125.705564214
 21
-245.736758844
 31
0.000000000
  0
LINE
  5
B4C
330
A02
100
AcDbEntity
  8
Shape2DView003
100
AcDbLine
 10
125.705564214
 20
-245.736758844
 30
0.000000000
 11
125.747001143
 21
-245.747952163
 31
0.000000000
  0
LINE
  5
B4D
330
A02
100
AcDbEntity
  8
Shape2DView003
100
AcDbLine
 10
125.705564214
 20
-245.736758844
 30
0.000000000
 11
125.705564214
 21
-258.236737092
 31
0.000000000
  0
LINE
  5
B4E
330
A02
100
AcDbEntity
  8
Shape2DView003
100
AcDbLine
 10
125.705564214
 20
-258.236737092
 30
0.000000000
 11
131.955415165
 21
-258.236656566
 31
0.000000000
  0
LINE
  5
B4F
330
A02
100
AcDbEntity
  8
Shape2DView003
100
AcDbLine
 10
131.955415165
 20
-258.236656566
 30
0.000000000
 11
131.996852094
 21
-258.247849884
 31
0.000000000
  0
LINE
  5
B50
330
A02
100
AcDbEntity
  8
Shape2DView003
100
AcDbLine
 10
131.955415165
 20
-269.736636553
 30
0.000000000
 11
131.955415165
 21
-258.236656566
 31
0.000000000
  0
LINE
  5
B51
330
A02
100
AcDbEntity
  8
Shape2DView003
100
AcDbLine
 10
131.955415165
 20
-269.736636553
 30
0.000000000
 11
131.996852094
 21
-269.747829871
 31
0.000000000
  0
LINE
  5
B52
330
A02
100
AcDbEntity
  8
Shape2DView003
100
AcDbLine
 10
131.955415165
 20
-269.736636553
 30
0.000000000
 11
125.705564214
 21
-269.736717079
 31
0.000000000
  0
LINE
  5
B53
330
A02
100
AcDbEntity
  8
Shape2DView003
100
AcDbLine
 10
125.705564214
 20
-269.736717079
 30
0.000000000
 11
125.747001143
 21
-269.747910397
 31
0.000000000
  0
LINE
  5
B54
330
A02
100
AcDbEntity
  8
Shape2DView003
100
AcDbLine
 10
125.705564214
 20
-269.736717079
 30
0.000000000
 11
125.705564214
 21
-282.236695326
 31
0.000000000
  0
LINE
  5
B55
330
A02
100
AcDbEntity
  8
Shape2DView003
100
AcDbLine
 10
125.705564214
 20
-282.236695326
 30
0.000000000
 11
131.955415165
 21
-282.236614800
 31
0.000000000
  0
LINE
  5
B56
330
A02
100
AcDbEntity
  8
Shape2DView003
100
AcDbLine
 10
131.955415165
 20
-282.236614800
 30
0.000000000
 11
131.996852094
 21
-282.247808119
 31
0.000000000
  0
LINE
  5
B57
330
A02
100
AcDbEntity
  8
Shape2DView003
100
AcDbLine
 10
131.955415165
 20
-293.736594788
 30
0.000000000
 11
131.955415165
 21
-282.236614800
 31
0.000000000
  0
LINE
  5
B58
330
A02
100
AcDbEntity
  8
Shape2DView003
100
AcDbLine
 10
131.955415165
 20
-293.736594788
 30
0.000000000
 11
131.996852094
 21
-293.747788106
 31
0.000000000
  0
LINE
  5
B59
330
A02
100
AcDbEntity
  8
Shape2DView003
100
AcDbLine
 10
131.955415165
 20
-293.736594788
 30
0.000000000
 11
125.705564214
 21
-293.736675313
 31
0.000000000
  0
LINE
  5
B5A
330
A02
100
AcDbEntity
  8
Shape2DView003
100
AcDbLine
 10
125.705564214
 20
-293.736675313
 30
0.000000000
 11
125.747001143
 21
-293.747868632
 31
0.000000000
  0
LINE
  5
B5B
330
A02
100
AcDbEntity
  8
Shape2DView003
100
AcDbLine
 10
125.705564214
 20
-293.736675313
 30
0.000000000
 11
125.705564214
 21
-306.236653561
 31
0.000000000
  0
LINE
  5
B5C
330
A02
100
AcDbEntity
  8
Shape2DView003
100
AcDbLine
 10
125.705564214
 20
-306.236653561
 30
0.000000000
 11
131.955415165
 21
-306.236573035
 31
0.000000000
  0
LINE
  5
B5D
330
A02
100
AcDbEntity
  8
Shape2DView003
100
AcDbLine
 10
131.955415165
 20
-306.236573035
 30
0.000000000
 11
131.996852094
 21
-306.247766353
 31
0.000000000
  0
LINE
  5
B5E
330
A02
100
AcDbEntity
  8
Shape2DView003
100
AcDbLine
 10
131.955415165
 20
-317.736553022
 30
0.000000000
 11
131.955415165
 21
-306.236573035
 31
0.000000000
  0
LINE
  5
B5F
330
A02
100
AcDbEntity
  8
Shape2DView003
100
AcDbLine
 10
131.955415165
 20
-317.736553022
 30
0.000000000
 11
131.996852094
 21
-317.747746340
 31
0.000000000
  0
LINE
  5
B60
330
A02
100
AcDbEntity
  8
Shape2DView003
100
AcDbLine
 10
131.955415165
 20
-317.736553022
 30
0.000000000
 11
125.705564214
 21
-317.736633548
 31
0.000000000
  0
LINE
  5
B61
330
A02
100
AcDbEntity
  8
Shape2DView003
100
AcDbLine
 10
125.705564214
 20
-317.736633548
 30
0.000000000
 11
125.747001143
 21
-317.747826866
 31
0.000000000
  0
LINE
  5
B62
330
A02
100
AcDbEntity
  8
Shape2DView003
100
AcDbLine
 10
125.747001143
 20
-335.997795107
 30
0.000000000
 11
125.705564214
 21
-335.986601789
 31
0.000000000
  0
LINE
  5
B63
330
A02
100
AcDbEntity
  8
Shape2DView003
100
AcDbLine
 10
114.205838463
 20
-335.986749956
 30
0.000000000
 11
125.705564214
 21
-335.986601789
 31
0.000000000
  0
LINE
  5
B64
330
A02
100
AcDbEntity
  8
Shape2DView003
100
AcDbLine
 10
114.205838463
 20
-335.986749956
 30
0.000000000
 11
114.247275392
 21
-335.997943274
 31
0.000000000
  0
LINE
  5
B65
330
A02
100
AcDbEntity
  8
Shape2DView003
100
AcDbLine
 10
114.205838463
 20
-335.986749956
 30
0.000000000
 11
114.205838463
 21
-330.236759962
 31
0.000000000
  0
LINE
  5
B66
330
A02
100
AcDbEntity
  8
Shape2DView003
100
AcDbLine
 10
114.205838463
 20
-330.236759962
 30
0.000000000
 11
101.706136560
 21
-330.236921014
 31
0.000000000
  0
LINE
  5
B67
330
A02
100
AcDbEntity
  8
Shape2DView003
100
AcDbLine
 10
101.706136560
 20
-330.236921014
 30
0.000000000
 11
101.747573489
 21
-330.248114332
 31
0.000000000
  0
LINE
  5
B68
330
A02
100
AcDbEntity
  8
Shape2DView003
100
AcDbLine
 10
101.706136560
 20
-330.236921014
 30
0.000000000
 11
101.706136560
 21
-335.986911007
 31
0.000000000
  0
LINE
  5
B69
330
A02
100
AcDbEntity
  8
Shape2DView003
100
AcDbLine
 10
101.747573489
 20
-335.998104325
 30
0.000000000
 11
101.706136560
 21
-335.986911007
 31
0.000000000
  0
LINE
  5
B6A
330
A02
100
AcDbEntity
  8
Shape2DView003
100
AcDbLine
 10
90.206410810
 20
-335.987059174
 30
0.000000000
 11
101.706136560
 21
-335.986911007
 31
0.000000000
  0
LINE
  5
B6B
330
A02
100
AcDbEntity
  8
Shape2DView003
100
AcDbLine
 10
90.206410810
 20
-335.987059174
 30
0.000000000
 11
90.247847739
 21
-335.998252493
 31
0.000000000
  0
LINE
  5
B6C
330
A02
100
AcDbEntity
  8
Shape2DView003
100
AcDbLine
 10
90.206410810
 20
-335.987059174
 30
0.000000000
 11
90.206410810
 21
-330.237069181
 31
0.000000000
  0
LINE
  5
B6D
330
A02
100
AcDbEntity
  8
Shape2DView003
100
AcDbLine
 10
90.206410810
 20
-330.237069181
 30
0.000000000
 11
77.706708907
 21
-330.237230232
 31
0.000000000
  0
LINE
  5
B6E
330
A02
100
AcDbEntity
  8
Shape2DView003
100
AcDbLine
 10
77.706708907
 20
-330.237230232
 30
0.000000000
 11
77.748145836
 21
-330.248423550
 31
0.000000000
  0
LINE
  5
B6F
330
A02
100
AcDbEntity
  8
Shape2DView003
100
AcDbLine
 10
77.706708907
 20
-330.237230232
 30
0.000000000
 11
77.706708907
 21
-335.987220226
 31
0.000000000
  0
LINE
  5
B70
330
A02
100
AcDbEntity
  8
Shape2DView003
100
AcDbLine
 10
77.748145836
 20
-335.998413544
 30
0.000000000
 11
77.706708907
 21
-335.987220226
 31
0.000000000
  0
LINE
  5
B71
330
A02
100
AcDbEntity
  8
Shape2DView003
100
AcDbLine
 10
66.206983156
 20
-335.987368393
 30
0.000000000
 11
77.706708907
 21
-335.987220226
 31
0.000000000
  0
LINE
  5
B72
330
A02
100
AcDbEntity
  8
Shape2DView003
100
AcDbLine
 10
66.206983156
 20
-335.987368393
 30
0.000000000
 11
66.248420085
 21
-335.998561711
 31
0.000000000
  0
LINE
  5
B73
330
A02
100
AcDbEntity
  8
Shape2DView003
100
AcDbLine
 10
66.206983156
 20
-335.987368393
 30
0.000000000
 11
66.206983156
 21
-330.237378399
 31
0.000000000
  0
LINE
  5
B74
330
A02
100
AcDbEntity
  8
Shape2DView003
100
AcDbLine
 10
66.206983156
 20
-330.237378399
 30
0.000000000
 11
53.707281253
 21
-330.237539451
 31
0.000000000
  0
LINE
  5
B75
330
A02
100
AcDbEntity
  8
Shape2DView003
100
AcDbLine
 10
53.707281253
 20
-330.237539451
 30
0.000000000
 11
53.748718182
 21
-330.248732769
 31
0.000000000
  0
LINE
  5
B76
330
A02
100
AcDbEntity
  8
Shape2DView003
100
AcDbLine
 10
53.707281253
 20
-330.237539451
 30
0.000000000
 11
53.707281253
 21
-335.987529444
 31
0.000000000
  0
LINE
  5
B77
330
A02
100
AcDbEntity
  8
Shape2DView003
100
AcDbLine
 10
53.748718182
 20
-335.998722763
 30
0.000000000
 11
53.707281253
 21
-335.987529444
 31
0.000000000
  0
LINE
  5
B78
330
A02
100
AcDbEntity
  8
Shape2DView003
100
AcDbLine
 10
42.207555503
 20
-335.987677612
 30
0.000000000
 11
53.707281253
 21
-335.987529444
 31
0.000000000
  0
LINE
  5
B79
330
A02
100
AcDbEntity
  8
Shape2DView003
100
AcDbLine
 10
42.207555503
 20
-335.987677612
 30
0.000000000
 11
42.248992432
 21
-335.998870930
 31
0.000000000
  0
LINE
  5
B7A
330
A02
100
AcDbEntity
  8
Shape2DView003
100
AcDbLine
 10
42.207555503
 20
-335.987677612
 30
0.000000000
 11
42.207555503
 21
-330.237687618
 31
0.000000000
  0
LINE
  5
B7B
330
A02
100
AcDbEntity
  8
Shape2DView003
100
AcDbLine
 10
42.207555503
 20
-330.237687618
 30
0.000000000
 11
29.707853600
 21
-330.237848669
 31
0.000000000
  0
LINE
  5
B7C
330
A02
100
AcDbEntity
  8
Shape2DView003
100
AcDbLine
 10
29.707853600
 20
-330.237848669
 30
0.000000000
 11
29.749290529
 21
-330.249041987
 31
0.000000000
  0
LINE
  5
B7D
330
A02
100
AcDbEntity
  8
Shape2DView003
100
AcDbLine
 10
29.707853600
 20
-330.237848669
 30
0.000000000
 11
29.707853600
 21
-335.987838663
 31
0.000000000
  0
LINE
  5
B7E
330
A02
100
AcDbEntity
  8
Shape2DView003
100
AcDbLine
 10
29.749290529
 20
-335.999031981
 30
0.000000000
 11
29.707853600
 21
-335.987838663
 31
0.000000000
  0
LINE
  5
B7F
330
A02
100
AcDbEntity
  8
Shape2DView003
100
AcDbLine
 10
18.208127849
 20
-335.987986830
 30
0.000000000
 11
29.707853600
 21
-335.987838663
 31
0.000000000
  0
LINE
  5
B80
330
A02
100
AcDbEntity
  8
Shape2DView003
100
AcDbLine
 10
18.208127849
 20
-335.987986830
 30
0.000000000
 11
18.249564778
 21
-335.999180148
 31
0.000000000
  0
LINE
  5
B81
330
A02
100
AcDbEntity
  8
Shape2DView003
100
AcDbLine
 10
18.208127849
 20
-335.987986830
 30
0.000000000
 11
18.208127849
 21
-330.237996836
 31
0.000000000
  0
LINE
  5
B82
330
A02
100
AcDbEntity
  8
Shape2DView003
100
AcDbLine
 10
18.208127849
 20
-330.237996836
 30
0.000000000
 11
5.708425946
 21
-330.238157888
 31
0.000000000
  0
LINE
  5
B83
330
A02
100
AcDbEntity
  8
Shape2DView003
100
AcDbLine
 10
5.708425946
 20
-330.238157888
 30
0.000000000
 11
5.749862875
 21
-330.249351206
 31
0.000000000
  0
LINE
  5
B84
330
A02
100
AcDbEntity
  8
Shape2DView003
100
AcDbLine
 10
5.708425946
 20
-330.238157888
 30
0.000000000
 11
5.708425946
 21
-335.988147881
 31
0.000000000
  0
LINE
  5
B85
330
A02
100
AcDbEntity
  8
Shape2DView003
100
AcDbLine
 10
5.749862875
 20
-335.999341200
 30
0.000000000
 11
5.708425946
 21
-335.988147881
 31
0.000000000
  0
LINE
  5
B86
330
A02
100
AcDbEntity
  8
Shape2DView003
100
AcDbLine
 10
-5.791299804
 20
-335.988296049
 30
0.000000000
 11
5.708425946
 21
-335.988147881
 31
0.000000000
  0
LINE
  5
B87
330
A02
100
AcDbEntity
  8
Shape2DView003
100
AcDbLine
 10
-5.791299804
 20
-335.988296049
 30
0.000000000
 11
-5.749862875
 21
-335.999489367
 31
0.000000000
  0
LINE
  5
B88
330
A02
100
AcDbEntity
  8
Shape2DView003
100
AcDbLine
 10
-5.791299804
 20
-335.988296049
 30
0.000000000
 11
-5.791299804
 21
-330.238306055
 31
0.000000000
  0
LINE
  5
B89
330
A02
100
AcDbEntity
  8
Shape2DView003
100
AcDbLine
 10
-5.791299804
 20
-330.238306055
 30
0.000000000
 11
-18.291001707
 21
-330.238467106
 31
0.000000000
  0
LINE
  5
B8A
330
A02
100
AcDbEntity
  8
Shape2DView003
100
AcDbLine
 10
-18.291001707
 20
-330.238467106
 30
0.000000000
 11
-18.249564778
 21
-330.249660424
 31
0.000000000
  0
LINE
  5
B8B
330
A02
100
AcDbEntity
  8
Shape2DView003
100
AcDbLine
 10
-18.291001707
 20
-330.238467106
 30
0.000000000
 11
-18.291001707
 21
-335.988457100
 31
0.000000000
  0
LINE
  5
B8C
330
A02
100
AcDbEntity
  8
Shape2DView003
100
AcDbLine
 10
-18.249564778
 20
-335.999650418
 30
0.000000000
 11
-18.291001707
 21
-335.988457100
 31
0.000000000
  0
LINE
  5
B8D
330
A02
100
AcDbEntity
  8
Shape2DView003
100
AcDbLine
 10
-29.790727458
 20
-335.988605267
 30
0.000000000
 11
-18.291001707
 21
-335.988457100
 31
0.000000000
  0
LINE
  5
B8E
330
A02
100
AcDbEntity
  8
Shape2DView003
100
AcDbLine
 10
-29.790727458
 20
-335.988605267
 30
0.000000000
 11
-29.749290529
 21
-335.999798585
 31
0.000000000
  0
LINE
  5
B8F
330
A02
100
AcDbEntity
  8
Shape2DView003
100
AcDbLine
 10
-29.790727458
 20
-335.988605267
 30
0.000000000
 11
-29.790727458
 21
-330.238615273
 31
0.000000000
  0
LINE
  5
B90
330
A02
100
AcDbEntity
  8
Shape2DView003
100
AcDbLine
 10
-29.790727458
 20
-330.238615273
 30
0.000000000
 11
-42.290429361
 21
-330.238776325
 31
0.000000000
  0
LINE
  5
B91
330
A02
100
AcDbEntity
  8
Shape2DView003
100
AcDbLine
 10
-42.290429361
 20
-330.238776325
 30
0.000000000
 11
-42.248992432
 21
-330.249969643
 31
0.000000000
  0
LINE
  5
B92
330
A02
100
AcDbEntity
  8
Shape2DView003
100
AcDbLine
 10
-42.290429361
 20
-330.238776325
 30
0.000000000
 11
-42.290429361
 21
-335.988766318
 31
0.000000000
  0
LINE
  5
B93
330
A02
100
AcDbEntity
  8
Shape2DView003
100
AcDbLine
 10
-42.248992432
 20
-335.999959637
 30
0.000000000
 11
-42.290429361
 21
-335.988766318
 31
0.000000000
  0
LINE
  5
B94
330
A02
100
AcDbEntity
  8
Shape2DView003
100
AcDbLine
 10
-53.790155111
 20
-335.988914486
 30
0.000000000
 11
-42.290429361
 21
-335.988766318
 31
0.000000000
  0
LINE
  5
B95
330
A02
100
AcDbEntity
  8
Shape2DView003
100
AcDbLine
 10
-53.790155111
 20
-335.988914486
 30
0.000000000
 11
-53.748718182
 21
-336.000107804
 31
0.000000000
  0
LINE
  5
B96
330
A02
100
AcDbEntity
  8
Shape2DView003
100
AcDbLine
 10
-53.790155111
 20
-335.988914486
 30
0.000000000
 11
-53.790155111
 21
-330.238924492
 31
0.000000000
  0
LINE
  5
B97
330
A02
100
AcDbEntity
  8
Shape2DView003
100
AcDbLine
 10
-53.790155111
 20
-330.238924492
 30
0.000000000
 11
-66.289857014
 21
-330.239085543
 31
0.000000000
  0
LINE
  5
B98
330
A02
100
AcDbEntity
  8
Shape2DView003
100
AcDbLine
 10
-66.289857014
 20
-330.239085543
 30
0.000000000
 11
-66.248420085
 21
-330.250278861
 31
0.000000000
  0
LINE
  5
B99
330
A02
100
AcDbEntity
  8
Shape2DView003
100
AcDbLine
 10
-66.289857014
 20
-330.239085543
 30
0.000000000
 11
-66.289857014
 21
-335.989075537
 31
0.000000000
  0
LINE
  5
B9A
330
A02
100
AcDbEntity
  8
Shape2DView003
100
AcDbLine
 10
-66.248420085
 20
-336.000268855
 30
0.000000000
 11
-66.289857014
 21
-335.989075537
 31
0.000000000
  0
LINE
  5
B9B
330
A02
100
AcDbEntity
  8
Shape2DView003
100
AcDbLine
 10
-77.789582765
 20
-335.989223704
 30
0.000000000
 11
-66.289857014
 21
-335.989075537
 31
0.000000000
  0
LINE
  5
B9C
330
A02
100
AcDbEntity
  8
Shape2DView003
100
AcDbLine
 10
-77.789582765
 20
-335.989223704
 30
0.000000000
 11
-77.748145836
 21
-336.000417022
 31
0.000000000
  0
LINE
  5
B9D
330
A02
100
AcDbEntity
  8
Shape2DView003
100
AcDbLine
 10
-77.789582765
 20
-335.989223704
 30
0.000000000
 11
-77.789582765
 21
-330.239233710
 31
0.000000000
  0
LINE
  5
B9E
330
A02
100
AcDbEntity
  8
Shape2DView003
100
AcDbLine
 10
-77.789582765
 20
-330.239233710
 30
0.000000000
 11
-90.289284668
 21
-330.239394762
 31
0.000000000
  0
LINE
  5
B9F
330
A02
100
AcDbEntity
  8
Shape2DView003
100
AcDbLine
 10
-90.289284668
 20
-330.239394762
 30
0.000000000
 11
-90.247847739
 21
-330.250588080
 31
0.000000000
  0
LINE
  5
BA0
330
A02
100
AcDbEntity
  8
Shape2DView003
100
AcDbLine
 10
-90.289284668
 20
-330.239394762
 30
0.000000000
 11
-90.289284668
 21
-335.989384755
 31
0.000000000
  0
LINE
  5
BA1
330
A02
100
AcDbEntity
  8
Shape2DView003
100
AcDbLine
 10
-90.247847739
 20
-336.000578074
 30
0.000000000
 11
-90.289284668
 21
-335.989384755
 31
0.000000000
  0
LINE
  5
BA2
330
A02
100
AcDbEntity
  8
Shape2DView003
100
AcDbLine
 10
-101.789010418
 20
-335.989532923
 30
0.000000000
 11
-90.289284668
 21
-335.989384755
 31
0.000000000
  0
LINE
  5
BA3
330
A02
100
AcDbEntity
  8
Shape2DView003
100
AcDbLine
 10
-101.789010418
 20
-335.989532923
 30
0.000000000
 11
-101.747573489
 21
-336.000726241
 31
0.000000000
  0
LINE
  5
BA4
330
A02
100
AcDbEntity
  8
Shape2DView003
100
AcDbLine
 10
-101.789010418
 20
-335.989532923
 30
0.000000000
 11
-101.789010418
 21
-330.239542929
 31
0.000000000
  0
LINE
  5
BA5
330
A02
100
AcDbEntity
  8
Shape2DView003
100
AcDbLine
 10
-101.789010418
 20
-330.239542929
 30
0.000000000
 11
-114.288712321
 21
-330.239703980
 31
0.000000000
  0
LINE
  5
BA6
330
A02
100
AcDbEntity
  8
Shape2DView003
100
AcDbLine
 10
-114.288712321
 20
-330.239703980
 30
0.000000000
 11
-114.247275392
 21
-330.250897299
 31
0.000000000
  0
LINE
  5
BA7
330
A02
100
AcDbEntity
  8
Shape2DView003
100
AcDbLine
 10
-114.288712321
 20
-330.239703980
 30
0.000000000
 11
-114.288712321
 21
-335.989693974
 31
0.000000000
  0
LINE
  5
BA8
330
A02
100
AcDbEntity
  8
Shape2DView003
100
AcDbLine
 10
-114.247275392
 20
-336.000887292
 30
0.000000000
 11
-114.288712321
 21
-335.989693974
 31
0.000000000
  0
LINE
  5
BA9
330
A02
100
AcDbEntity
  8
Shape2DView003
100
AcDbLine
 10
-125.788438072
 20
-335.989842141
 30
0.000000000
 11
-114.288712321
 21
-335.989693974
 31
0.000000000
  0
LINE
  5
BAA
330
A02
100
AcDbEntity
  8
Shape2DView003
100
AcDbLine
 10
-125.788438072
 20
-335.989842141
 30
0.000000000
 11
-125.747001143
 21
-336.001035459
 31
0.000000000
  0
LINE
  5
BAB
330
A02
100
AcDbEntity
  8
Shape2DView003
100
AcDbLine
 10
-125.788438072
 20
-317.739873900
 30
0.000000000
 11
-132.038289023
 21
-317.739954426
 31
0.000000000
  0
LINE
  5
BAC
330
A02
100
AcDbEntity
  8
Shape2DView003
100
AcDbLine
 10
-132.038289023
 20
-317.739954426
 30
0.000000000
 11
-131.996852094
 21
-317.751147744
 31
0.000000000
  0
LINE
  5
BAD
330
A02
100
AcDbEntity
  8
Shape2DView003
100
AcDbLine
 10
-132.038289023
 20
-306.239974439
 30
0.000000000
 11
-132.038289023
 21
-317.739954426
 31
0.000000000
  0
LINE
  5
BAE
330
A02
100
AcDbEntity
  8
Shape2DView003
100
AcDbLine
 10
-132.038289023
 20
-306.239974439
 30
0.000000000
 11
-125.788438072
 21
-306.239893913
 31
0.000000000
  0
LINE
  5
BAF
330
A02
100
AcDbEntity
  8
Shape2DView003
100
AcDbLine
 10
-125.788438072
 20
-306.239893913
 30
0.000000000
 11
-125.788438072
 21
-293.739915666
 31
0.000000000
  0
LINE
  5
BB0
330
A02
100
AcDbEntity
  8
Shape2DView003
100
AcDbLine
 10
-125.788438072
 20
-293.739915666
 30
0.000000000
 11
-132.038289023
 21
-293.739996192
 31
0.000000000
  0
LINE
  5
BB1
330
A02
100
AcDbEntity
  8
Shape2DView003
100
AcDbLine
 10
-132.038289023
 20
-293.739996192
 30
0.000000000
 11
-131.996852094
 21
-293.751189510
 31
0.000000000
  0
LINE
  5
BB2
330
A02
100
AcDbEntity
  8
Shape2DView003
100
AcDbLine
 10
-132.038289023
 20
-282.240016204
 30
0.000000000
 11
-132.038289023
 21
-293.739996192
 31
0.000000000
  0
LINE
  5
BB3
330
A02
100
AcDbEntity
  8
Shape2DView003
100
AcDbLine
 10
-132.038289023
 20
-282.240016204
 30
0.000000000
 11
-125.788438072
 21
-282.239935679
 31
0.000000000
  0
LINE
  5
BB4
330
A02
100
AcDbEntity
  8
Shape2DView003
100
AcDbLine
 10
-125.788438072
 20
-282.239935679
 30
0.000000000
 11
-125.788438072
 21
-269.739957431
 31
0.000000000
  0
LINE
  5
BB5
330
A02
100
AcDbEntity
  8
Shape2DView003
100
AcDbLine
 10
-125.788438072
 20
-269.739957431
 30
0.000000000
 11
-132.038289023
 21
-269.740037957
 31
0.000000000
  0
LINE
  5
BB6
330
A02
100
AcDbEntity
  8
Shape2DView003
100
AcDbLine
 10
-132.038289023
 20
-269.740037957
 30
0.000000000
 11
-131.996852094
 21
-269.751231275
 31
0.000000000
  0
LINE
  5
BB7
330
A02
100
AcDbEntity
  8
Shape2DView003
100
AcDbLine
 10
-132.038289023
 20
-258.240057970
 30
0.000000000
 11
-132.038289023
 21
-269.740037957
 31
0.000000000
  0
LINE
  5
BB8
330
A02
100
AcDbEntity
  8
Shape2DView003
100
AcDbLine
 10
-132.038289023
 20
-258.240057970
 30
0.000000000
 11
-125.788438072
 21
-258.239977444
 31
0.000000000
  0
LINE
  5
BB9
330
A02
100
AcDbEntity
  8
Shape2DView003
100
AcDbLine
 10
-125.788438072
 20
-258.239977444
 30
0.000000000
 11
-125.788438072
 21
-245.739999197
 31
0.000000000
  0
LINE
  5
BBA
330
A02
100
AcDbEntity
  8
Shape2DView003
100
AcDbLine
 10
-125.788438072
 20
-245.739999197
 30
0.000000000
 11
-132.038289023
 21
-245.740079723
 31
0.000000000
  0
LINE
  5
BBB
330
A02
100
AcDbEntity
  8
Shape2DView003
100
AcDbLine
 10
-132.038289023
 20
-245.740079723
 30
0.000000000
 11
-131.996852094
 21
-245.751273041
 31
0.000000000
  0
LINE
  5
BBC
330
A02
100
AcDbEntity
  8
Shape2DView003
100
AcDbLine
 10
-132.038289023
 20
-234.240099735
 30
0.000000000
 11
-132.038289023
 21
-245.740079723
 31
0.000000000
  0
LINE
  5
BBD
330
A02
100
AcDbEntity
  8
Shape2DView003
100
AcDbLine
 10
-132.038289023
 20
-234.240099735
 30
0.000000000
 11
-125.788438072
 21
-234.240019209
 31
0.000000000
  0
LINE
  5
BBE
330
A02
100
AcDbEntity
  8
Shape2DView003
100
AcDbLine
 10
-125.788438072
 20
-234.240019209
 30
0.000000000
 11
-125.788438072
 21
-221.740040962
 31
0.000000000
  0
LINE
  5
BBF
330
A02
100
AcDbEntity
  8
Shape2DView003
100
AcDbLine
 10
-125.788438072
 20
-221.740040962
 30
0.000000000
 11
-132.038289023
 21
-221.740121488
 31
0.000000000
  0
LINE
  5
BC0
330
A02
100
AcDbEntity
  8
Shape2DView003
100
AcDbLine
 10
-132.038289023
 20
-221.740121488
 30
0.000000000
 11
-131.996852094
 21
-221.751314806
 31
0.000000000
  0
LINE
  5
BC1
330
A02
100
AcDbEntity
  8
Shape2DView003
100
AcDbLine
 10
-132.038289023
 20
-210.240141501
 30
0.000000000
 11
-132.038289023
 21
-221.740121488
 31
0.000000000
  0
LINE
  5
BC2
330
A02
100
AcDbEntity
  8
Shape2DView003
100
AcDbLine
 10
-132.038289023
 20
-210.240141501
 30
0.000000000
 11
-125.788438072
 21
-210.240060975
 31
0.000000000
  0
LINE
  5
BC3
330
A02
100
AcDbEntity
  8
Shape2DView003
100
AcDbLine
 10
-125.788438072
 20
-210.240060975
 30
0.000000000
 11
-125.788438072
 21
-197.740082728
 31
0.000000000
  0
LINE
  5
BC4
330
A02
100
AcDbEntity
  8
Shape2DView003
100
AcDbLine
 10
-125.788438072
 20
-197.740082728
 30
0.000000000
 11
-132.038289023
 21
-197.740163253
 31
0.000000000
  0
LINE
  5
BC5
330
A02
100
AcDbEntity
  8
Shape2DView003
100
AcDbLine
 10
-132.038289023
 20
-197.740163253
 30
0.000000000
 11
-131.996852094
 21
-197.751356572
 31
0.000000000
  0
LINE
  5
BC6
330
A02
100
AcDbEntity
  8
Shape2DView003
100
AcDbLine
 10
-132.038289023
 20
-186.240183266
 30
0.000000000
 11
-132.038289023
 21
-197.740163253
 31
0.000000000
  0
LINE
  5
BC7
330
A02
100
AcDbEntity
  8
Shape2DView003
100
AcDbLine
 10
-132.038289023
 20
-186.240183266
 30
0.000000000
 11
-125.788438072
 21
-186.240102740
 31
0.000000000
  0
LINE
  5
BC8
330
A02
100
AcDbEntity
  8
Shape2DView003
100
AcDbLine
 10
-125.788438072
 20
-186.240102740
 30
0.000000000
 11
-125.788438072
 21
-173.740124493
 31
0.000000000
  0
LINE
  5
BC9
330
A02
100
AcDbEntity
  8
Shape2DView003
100
AcDbLine
 10
-125.788438072
 20
-173.740124493
 30
0.000000000
 11
-132.038289023
 21
-173.740205019
 31
0.000000000
  0
LINE
  5
BCA
330
A02
100
AcDbEntity
  8
Shape2DView003
100
AcDbLine
 10
-132.038289023
 20
-173.740205019
 30
0.000000000
 11
-131.996852094
 21
-173.751398337
 31
0.000000000
  0
LINE
  5
BCB
330
A02
100
AcDbEntity
  8
Shape2DView003
100
AcDbLine
 10
-132.038289023
 20
-162.240225032
 30
0.000000000
 11
-132.038289023
 21
-173.740205019
 31
0.000000000
  0
LINE
  5
BCC
330
A02
100
AcDbEntity
  8
Shape2DView003
100
AcDbLine
 10
-132.038289023
 20
-162.240225032
 30
0.000000000
 11
-125.788438072
 21
-162.240144506
 31
0.000000000
  0
LINE
  5
BCD
330
A02
100
AcDbEntity
  8
Shape2DView003
100
AcDbLine
 10
-125.788438072
 20
-162.240144506
 30
0.000000000
 11
-125.788438072
 21
-149.740166259
 31
0.000000000
  0
LINE
  5
BCE
330
A02
100
AcDbEntity
  8
Shape2DView003
100
AcDbLine
 10
-125.788438072
 20
-149.740166259
 30
0.000000000
 11
-132.038289023
 21
-149.740246784
 31
0.000000000
  0
LINE
  5
BCF
330
A02
100
AcDbEntity
  8
Shape2DView003
100
AcDbLine
 10
-132.038289023
 20
-149.740246784
 30
0.000000000
 11
-131.996852094
 21
-149.751440103
 31
0.000000000
  0
LINE
  5
BD0
330
A02
100
AcDbEntity
  8
Shape2DView003
100
AcDbLine
 10
-132.038289023
 20
-138.240266797
 30
0.000000000
 11
-132.038289023
 21
-149.740246784
 31
0.000000000
  0
LINE
  5
BD1
330
A02
100
AcDbEntity
  8
Shape2DView003
100
AcDbLine
 10
-132.038289023
 20
-138.240266797
 30
0.000000000
 11
-125.788438072
 21
-138.240186271
 31
0.000000000
  0
LINE
  5
BD2
330
A02
100
AcDbEntity
  8
Shape2DView003
100
AcDbLine
 10
-125.788438072
 20
-138.240186271
 30
0.000000000
 11
-125.788438072
 21
-125.740208024
 31
0.000000000
  0
LINE
  5
BD3
330
A02
100
AcDbEntity
  8
Shape2DView003
100
AcDbLine
 10
-125.788438072
 20
-125.740208024
 30
0.000000000
 11
-132.038289023
 21
-125.740288550
 31
0.000000000
  0
LINE
  5
BD4
330
A02
100
AcDbEntity
  8
Shape2DView003
100
AcDbLine
 10
-132.038289023
 20
-125.740288550
 30
0.000000000
 11
-131.996852094
 21
-125.751481868
 31
0.000000000
  0
LINE
  5
BD5
330
A02
100
AcDbEntity
  8
Shape2DView003
100
AcDbLine
 10
-132.038289023
 20
-114.240308563
 30
0.000000000
 11
-132.038289023
 21
-125.740288550
 31
0.000000000
  0
LINE
  5
BD6
330
A02
100
AcDbEntity
  8
Shape2DView003
100
AcDbLine
 10
-132.038289023
 20
-114.240308563
 30
0.000000000
 11
-125.788438072
 21
-114.240228037
 31
0.000000000
  0
LINE
  5
BD7
330
A02
100
AcDbEntity
  8
Shape2DView003
100
AcDbLine
 10
-125.788438072
 20
-114.240228037
 30
0.000000000
 11
-125.788438072
 21
-101.740249790
 31
0.000000000
  0
LINE
  5
BD8
330
A02
100
AcDbEntity
  8
Shape2DView003
100
AcDbLine
 10
-125.788438072
 20
-101.740249790
 30
0.000000000
 11
-132.038289023
 21
-101.740330315
 31
0.000000000
  0
LINE
  5
BD9
330
A02
100
AcDbEntity
  8
Shape2DView003
100
AcDbLine
 10
-132.038289023
 20
-101.740330315
 30
0.000000000
 11
-131.996852094
 21
-101.751523634
 31
0.000000000
  0
LINE
  5
BDA
330
A02
100
AcDbEntity
  8
Shape2DView003
100
AcDbLine
 10
-132.038289023
 20
-90.240350328
 30
0.000000000
 11
-132.038289023
 21
-101.740330315
 31
0.000000000
  0
LINE
  5
BDB
330
A02
100
AcDbEntity
  8
Shape2DView003
100
AcDbLine
 10
-132.038289023
 20
-90.240350328
 30
0.000000000
 11
-125.788438072
 21
-90.240269802
 31
0.000000000
  0
LINE
  5
BDC
330
A02
100
AcDbEntity
  8
Shape2DView003
100
AcDbLine
 10
-125.788438072
 20
-90.240269802
 30
0.000000000
 11
-125.788438072
 21
-77.740291555
 31
0.000000000
  0
LINE
  5
BDD
330
A02
100
AcDbEntity
  8
Shape2DView003
100
AcDbLine
 10
-125.788438072
 20
-77.740291555
 30
0.000000000
 11
-132.038289023
 21
-77.740372081
 31
0.000000000
  0
LINE
  5
BDE
330
A02
100
AcDbEntity
  8
Shape2DView003
100
AcDbLine
 10
-132.038289023
 20
-77.740372081
 30
0.000000000
 11
-131.996852094
 21
-77.751565399
 31
0.000000000
  0
LINE
  5
BDF
330
A02
100
AcDbEntity
  8
Shape2DView003
100
AcDbLine
 10
-132.038289023
 20
-66.240392094
 30
0.000000000
 11
-132.038289023
 21
-77.740372081
 31
0.000000000
  0
LINE
  5
BE0
330
A02
100
AcDbEntity
  8
Shape2DView003
100
AcDbLine
 10
-132.038289023
 20
-66.240392094
 30
0.000000000
 11
-125.788438072
 21
-66.240311568
 31
0.000000000
  0
LINE
  5
BE1
330
A02
100
AcDbEntity
  8
Shape2DView003
100
AcDbLine
 10
-125.788438072
 20
-66.240311568
 30
0.000000000
 11
-125.788438072
 21
-53.740333321
 31
0.000000000
  0
LINE
  5
BE2
330
A02
100
AcDbEntity
  8
Shape2DView003
100
AcDbLine
 10
-125.788438072
 20
-53.740333321
 30
0.000000000
 11
-132.038289023
 21
-53.740413846
 31
0.000000000
  0
LINE
  5
BE3
330
A02
100
AcDbEntity
  8
Shape2DView003
100
AcDbLine
 10
-132.038289023
 20
-53.740413846
 30
0.000000000
 11
-131.996852094
 21
-53.751607165
 31
0.000000000
  0
LINE
  5
BE4
330
A02
100
AcDbEntity
  8
Shape2DView003
100
AcDbLine
 10
-132.038289023
 20
-42.240433859
 30
0.000000000
 11
-132.038289023
 21
-53.740413846
 31
0.000000000
  0
LINE
  5
BE5
330
A02
100
AcDbEntity
  8
Shape2DView003
100
AcDbLine
 10
-132.038289023
 20
-42.240433859
 30
0.000000000
 11
-125.788438072
 21
-42.240353333
 31
0.000000000
  0
LINE
  5
BE6
330
A02
100
AcDbEntity
  8
Shape2DView003
100
AcDbLine
 10
-125.788438072
 20
-42.240353333
 30
0.000000000
 11
-125.788438072
 21
-29.740375086
 31
0.000000000
  0
LINE
  5
BE7
330
A02
100
AcDbEntity
  8
Shape2DView003
100
AcDbLine
 10
-125.788438072
 20
-29.740375086
 30
0.000000000
 11
-132.038289023
 21
-29.740455612
 31
0.000000000
  0
LINE
  5
BE8
330
A02
100
AcDbEntity
  8
Shape2DView003
100
AcDbLine
 10
-132.038289023
 20
-29.740455612
 30
0.000000000
 11
-131.996852094
 21
-29.751648930
 31
0.000000000
  0
LINE
  5
BE9
330
A02
100
AcDbEntity
  8
Shape2DView003
100
AcDbLine
 10
-132.038289023
 20
-18.240475625
 30
0.000000000
 11
-132.038289023
 21
-29.740455612
 31
0.000000000
  0
LINE
  5
BEA
330
A02
100
AcDbEntity
  8
Shape2DView003
100
AcDbLine
 10
-132.038289023
 20
-18.240475625
 30
0.000000000
 11
-125.788438072
 21
-18.240395099
 31
0.000000000
  0
LINE
  5
BEB
330
A02
100
AcDbEntity
  8
Shape2DView003
100
AcDbLine
 10
-125.788438072
 20
-18.240395099
 30
0.000000000
 11
-125.788438072
 21
-5.740416852
 31
0.000000000
  0
LINE
  5
BEC
330
A02
100
AcDbEntity
  8
Shape2DView003
100
AcDbLine
 10
-125.788438072
 20
-5.740416852
 30
0.000000000
 11
-132.038289023
 21
-5.740497377
 31
0.000000000
  0
LINE
  5
BED
330
A02
100
AcDbEntity
  8
Shape2DView003
100
AcDbLine
 10
-132.038289023
 20
-5.740497377
 30
0.000000000
 11
-131.996852094
 21
-5.751690696
 31
0.000000000
  0
LINE
  5
BEE
330
A02
100
AcDbEntity
  8
Shape2DView003
100
AcDbLine
 10
-132.038289023
 20
5.759482610
 30
0.000000000
 11
-132.038289023
 21
-5.740497377
 31
0.000000000
  0
LINE
  5
BEF
330
A02
100
AcDbEntity
  8
Shape2DView003
100
AcDbLine
 10
-132.038289023
 20
5.759482610
 30
0.000000000
 11
-125.788438072
 21
5.759563136
 31
0.000000000
  0
LINE
  5
BF0
330
A02
100
AcDbEntity
  8
Shape2DView003
100
AcDbLine
 10
-125.788438072
 20
5.759563136
 30
0.000000000
 11
-125.788438072
 21
18.259541383
 31
0.000000000
  0
LINE
  5
BF1
330
A02
100
AcDbEntity
  8
Shape2DView003
100
AcDbLine
 10
-125.788438072
 20
18.259541383
 30
0.000000000
 11
-132.038289023
 21
18.259460857
 31
0.000000000
  0
LINE
  5
BF2
330
A02
100
AcDbEntity
  8
Shape2DView003
100
AcDbLine
 10
-132.038289023
 20
18.259460857
 30
0.000000000
 11
-131.996852094
 21
18.248267539
 31
0.000000000
  0
LINE
  5
BF3
330
A02
100
AcDbEntity
  8
Shape2DView003
100
AcDbLine
 10
-132.038289023
 20
29.759440845
 30
0.000000000
 11
-132.038289023
 21
18.259460857
 31
0.000000000
  0
LINE
  5
BF4
330
A02
100
AcDbEntity
  8
Shape2DView003
100
AcDbLine
 10
-132.038289023
 20
29.759440845
 30
0.000000000
 11
-125.788438072
 21
29.759521370
 31
0.000000000
  0
LINE
  5
BF5
330
A02
100
AcDbEntity
  8
Shape2DView003
100
AcDbLine
 10
-125.788438072
 20
29.759521370
 30
0.000000000
 11
-125.788438072
 21
42.259499617
 31
0.000000000
  0
LINE
  5
BF6
330
A02
100
AcDbEntity
  8
Shape2DView003
100
AcDbLine
 10
-125.788438072
 20
42.259499617
 30
0.000000000
 11
-132.038289023
 21
42.259419092
 31
0.000000000
  0
LINE
  5
BF7
330
A02
100
AcDbEntity
  8
Shape2DView003
100
AcDbLine
 10
-132.038289023
 20
42.259419092
 30
0.000000000
 11
-131.996852094
 21
42.248225773
 31
0.000000000
  0
LINE
  5
BF8
330
A02
100
AcDbEntity
  8
Shape2DView003
100
AcDbLine
 10
-132.038289023
 20
53.759399079
 30
0.000000000
 11
-132.038289023
 21
42.259419092
 31
0.000000000
  0
LINE
  5
BF9
330
A02
100
AcDbEntity
  8
Shape2DView003
100
AcDbLine
 10
-132.038289023
 20
53.759399079
 30
0.000000000
 11
-125.788438072
 21
53.759479605
 31
0.000000000
  0
LINE
  5
BFA
330
A02
100
AcDbEntity
  8
Shape2DView003
100
AcDbLine
 10
-125.788438072
 20
53.759479605
 30
0.000000000
 11
-125.788438072
 21
66.259457852
 31
0.000000000
  0
LINE
  5
BFB
330
A02
100
AcDbEntity
  8
Shape2DView003
100
AcDbLine
 10
-125.788438072
 20
66.259457852
 30
0.000000000
 11
-132.038289023
 21
66.259377326
 31
0.000000000
  0
LINE
  5
BFC
330
A02
100
AcDbEntity
  8
Shape2DView003
100
AcDbLine
 10
-132.038289023
 20
66.259377326
 30
0.000000000
 11
-131.996852094
 21
66.248184008
 31
0.000000000
  0
LINE
  5
BFD
330
A02
100
AcDbEntity
  8
Shape2DView003
100
AcDbLine
 10
-132.038289023
 20
77.759357314
 30
0.000000000
 11
-132.038289023
 21
66.259377326
 31
0.000000000
  0
LINE
  5
BFE
330
A02
100
AcDbEntity
  8
Shape2DView003
100
AcDbLine
 10
-132.038289023
 20
77.759357314
 30
0.000000000
 11
-125.788438072
 21
77.759437839
 31
0.000000000
  0
LINE
  5
BFF
330
A02
100
AcDbEntity
  8
Shape2DView003
100
AcDbLine
 10
-125.788438072
 20
77.759437839
 30
0.000000000
 11
-125.788438072
 21
90.259416086
 31
0.000000000
  0
LINE
  5
C00
330
A02
100
AcDbEntity
  8
Shape2DView003
100
AcDbLine
 10
-125.788438072
 20
90.259416086
 30
0.000000000
 11
-132.038289023
 21
90.259335561
 31
0.000000000
  0
LINE
  5
C01
330
A02
100
AcDbEntity
  8
Shape2DView003
100
AcDbLine
 10
-132.038289023
 20
90.259335561
 30
0.000000000
 11
-131.996852094
 21
90.248142242
 31
0.000000000
  0
LINE
  5
C02
330
A02
100
AcDbEntity
  8
Shape2DView003
100
AcDbLine
 10
-132.038289023
 20
101.759315548
 30
0.000000000
 11
-132.038289023
 21
90.259335561
 31
0.000000000
  0
LINE
  5
C03
330
A02
100
AcDbEntity
  8
Shape2DView003
100
AcDbLine
 10
-132.038289023
 20
101.759315548
 30
0.000000000
 11
-125.788438072
 21
101.759396074
 31
0.000000000
  0
LINE
  5
C04
330
A02
100
AcDbEntity
  8
Shape2DView003
100
AcDbLine
 10
-125.788438072
 20
101.759396074
 30
0.000000000
 11
-125.788438072
 21
114.259374321
 31
0.000000000
  0
LINE
  5
C05
330
A02
100
AcDbEntity
  8
Shape2DView003
100
AcDbLine
 10
-125.788438072
 20
114.259374321
 30
0.000000000
 11
-132.038289023
 21
114.259293795
 31
0.000000000
  0
LINE
  5
C06
330
A02
100
AcDbEntity
  8
Shape2DView003
100
AcDbLine
 10
-132.038289023
 20
114.259293795
 30
0.000000000
 11
-131.996852094
 21
114.248100477
 31
0.000000000
  0
LINE
  5
C07
330
A02
100
AcDbEntity
  8
Shape2DView003
100
AcDbLine
 10
-132.038289023
 20
125.759273783
 30
0.000000000
 11
-132.038289023
 21
114.259293795
 31
0.000000000
  0
LINE
  5
C08
330
A02
100
AcDbEntity
  8
Shape2DView003
100
AcDbLine
 10
-132.038289023
 20
125.759273783
 30
0.000000000
 11
-125.788438072
 21
125.759354308
 31
0.000000000
  0
LINE
  5
C09
330
A02
100
AcDbEntity
  8
Shape2DView003
100
AcDbLine
 10
-125.788438072
 20
125.759354308
 30
0.000000000
 11
-125.788438072
 21
138.259332555
 31
0.000000000
  0
LINE
  5
C0A
330
A02
100
AcDbEntity
  8
Shape2DView003
100
AcDbLine
 10
-125.788438072
 20
138.259332555
 30
0.000000000
 11
-132.038289023
 21
138.259252030
 31
0.000000000
  0
LINE
  5
C0B
330
A02
100
AcDbEntity
  8
Shape2DView003
100
AcDbLine
 10
-132.038289023
 20
138.259252030
 30
0.000000000
 11
-131.996852094
 21
138.248058711
 31
0.000000000
  0
LINE
  5
C0C
330
A02
100
AcDbEntity
  8
Shape2DView003
100
AcDbLine
 10
-132.038289023
 20
149.759232017
 30
0.000000000
 11
-132.038289023
 21
138.259252030
 31
0.000000000
  0
LINE
  5
C0D
330
A02
100
AcDbEntity
  8
Shape2DView003
100
AcDbLine
 10
-132.038289023
 20
149.759232017
 30
0.000000000
 11
-125.788438072
 21
149.759312543
 31
0.000000000
  0
LINE
  5
C0E
330
A02
100
AcDbEntity
  8
Shape2DView003
100
AcDbLine
 10
-125.788438072
 20
149.759312543
 30
0.000000000
 11
-125.788438072
 21
162.259290790
 31
0.000000000
  0
LINE
  5
C0F
330
A02
100
AcDbEntity
  8
Shape2DView003
100
AcDbLine
 10
-125.788438072
 20
162.259290790
 30
0.000000000
 11
-132.038289023
 21
162.259210264
 31
0.000000000
  0
LINE
  5
C10
330
A02
100
AcDbEntity
  8
Shape2DView003
100
AcDbLine
 10
-132.038289023
 20
162.259210264
 30
0.000000000
 11
-131.996852094
 21
162.248016946
 31
0.000000000
  0
LINE
  5
C11
330
A02
100
AcDbEntity
  8
Shape2DView003
100
AcDbLine
 10
-132.038289023
 20
173.759190252
 30
0.000000000
 11
-132.038289023
 21
162.259210264
 31
0.000000000
  0
LINE
  5
C12
330
A02
100
AcDbEntity
  8
Shape2DView003
100
AcDbLine
 10
-132.038289023
 20
173.759190252
 30
0.000000000
 11
-125.788438072
 21
173.759270777
 31
0.000000000
  0
LINE
  5
C13
330
A02
100
AcDbEntity
  8
Shape2DView003
100
AcDbLine
 10
-125.788438072
 20
173.759270777
 30
0.000000000
 11
-125.788438072
 21
186.259249024
 31
0.000000000
  0
LINE
  5
C14
330
A02
100
AcDbEntity
  8
Shape2DView003
100
AcDbLine
 10
-125.788438072
 20
186.259249024
 30
0.000000000
 11
-132.038289023
 21
186.259168499
 31
0.000000000
  0
LINE
  5
C15
330
A02
100
AcDbEntity
  8
Shape2DView003
100
AcDbLine
 10
-132.038289023
 20
186.259168499
 30
0.000000000
 11
-131.996852094
 21
186.247975181
 31
0.000000000
  0
LINE
  5
C16
330
A02
100
AcDbEntity
  8
Shape2DView003
100
AcDbLine
 10
-132.038289023
 20
197.759148486
 30
0.000000000
 11
-132.038289023
 21
186.259168499
 31
0.000000000
  0
LINE
  5
C17
330
A02
100
AcDbEntity
  8
Shape2DView003
100
AcDbLine
 10
-132.038289023
 20
197.759148486
 30
0.000000000
 11
-125.788438072
 21
197.759229012
 31
0.000000000
  0
LINE
  5
C18
330
A02
100
AcDbEntity
  8
Shape2DView003
100
AcDbLine
 10
-125.788438072
 20
197.759229012
 30
0.000000000
 11
-125.788438072
 21
210.259207259
 31
0.000000000
  0
LINE
  5
C19
330
A02
100
AcDbEntity
  8
Shape2DView003
100
AcDbLine
 10
-125.788438072
 20
210.259207259
 30
0.000000000
 11
-132.038289023
 21
210.259126733
 31
0.000000000
  0
LINE
  5
C1A
330
A02
100
AcDbEntity
  8
Shape2DView003
100
AcDbLine
 10
-132.038289023
 20
210.259126733
 30
0.000000000
 11
-131.996852094
 21
210.247933415
 31
0.000000000
  0
LINE
  5
C1B
330
A02
100
AcDbEntity
  8
Shape2DView003
100
AcDbLine
 10
-132.038289023
 20
221.759106721
 30
0.000000000
 11
-132.038289023
 21
210.259126733
 31
0.000000000
  0
LINE
  5
C1C
330
A02
100
AcDbEntity
  8
Shape2DView003
100
AcDbLine
 10
-132.038289023
 20
221.759106721
 30
0.000000000
 11
-125.788438072
 21
221.759187246
 31
0.000000000
  0
LINE
  5
C1D
330
A02
100
AcDbEntity
  8
Shape2DView003
100
AcDbLine
 10
-125.788438072
 20
221.759187246
 30
0.000000000
 11
-125.788438072
 21
234.259165493
 31
0.000000000
  0
LINE
  5
C1E
330
A02
100
AcDbEntity
  8
Shape2DView003
100
AcDbLine
 10
-125.788438072
 20
234.259165493
 30
0.000000000
 11
-132.038289023
 21
234.259084968
 31
0.000000000
  0
LINE
  5
C1F
330
A02
100
AcDbEntity
  8
Shape2DView003
100
AcDbLine
 10
-132.038289023
 20
234.259084968
 30
0.000000000
 11
-131.996852094
 21
234.247891650
 31
0.000000000
  0
LINE
  5
C20
330
A02
100
AcDbEntity
  8
Shape2DView003
100
AcDbLine
 10
-132.038289023
 20
245.759064955
 30
0.000000000
 11
-132.038289023
 21
234.259084968
 31
0.000000000
  0
LINE
  5
C21
330
A02
100
AcDbEntity
  8
Shape2DView003
100
AcDbLine
 10
-132.038289023
 20
245.759064955
 30
0.000000000
 11
-125.788438072
 21
245.759145481
 31
0.000000000
  0
LINE
  5
C22
330
A02
100
AcDbEntity
  8
Shape2DView003
100
AcDbLine
 10
-125.788438072
 20
245.759145481
 30
0.000000000
 11
-125.788438072
 21
258.259123728
 31
0.000000000
  0
LINE
  5
C23
330
A02
100
AcDbEntity
  8
Shape2DView003
100
AcDbLine
 10
-125.788438072
 20
258.259123728
 30
0.000000000
 11
-132.038289023
 21
258.259043202
 31
0.000000000
  0
LINE
  5
C24
330
A02
100
AcDbEntity
  8
Shape2DView003
100
AcDbLine
 10
-132.038289023
 20
258.259043202
 30
0.000000000
 11
-131.996852094
 21
258.247849884
 31
0.000000000
  0
LINE
  5
C25
330
A02
100
AcDbEntity
  8
Shape2DView003
100
AcDbLine
 10
-132.038289023
 20
269.759023190
 30
0.000000000
 11
-132.038289023
 21
258.259043202
 31
0.000000000
  0
LINE
  5
C26
330
A02
100
AcDbEntity
  8
Shape2DView003
100
AcDbLine
 10
-132.038289023
 20
269.759023190
 30
0.000000000
 11
-125.788438072
 21
269.759103715
 31
0.000000000
  0
LINE
  5
C27
330
A02
100
AcDbEntity
  8
Shape2DView003
100
AcDbLine
 10
-125.788438072
 20
269.759103715
 30
0.000000000
 11
-125.788438072
 21
282.259081962
 31
0.000000000
  0
LINE
  5
C28
330
A02
100
AcDbEntity
  8
Shape2DView003
100
AcDbLine
 10
-125.788438072
 20
282.259081962
 30
0.000000000
 11
-132.038289023
 21
282.259001437
 31
0.000000000
  0
LINE
  5
C29
330
A02
100
AcDbEntity
  8
Shape2DView003
100
AcDbLine
 10
-132.038289023
 20
282.259001437
 30
0.000000000
 11
-131.996852094
 21
282.247808119
 31
0.000000000
  0
LINE
  5
C2A
330
A02
100
AcDbEntity
  8
Shape2DView003
100
AcDbLine
 10
-132.038289023
 20
293.758981424
 30
0.000000000
 11
-132.038289023
 21
282.259001437
 31
0.000000000
  0
LINE
  5
C2B
330
A02
100
AcDbEntity
  8
Shape2DView003
100
AcDbLine
 10
-132.038289023
 20
293.758981424
 30
0.000000000
 11
-125.788438072
 21
293.759061950
 31
0.000000000
  0
LINE
  5
C2C
330
A02
100
AcDbEntity
  8
Shape2DView003
100
AcDbLine
 10
-125.788438072
 20
293.759061950
 30
0.000000000
 11
-125.788438072
 21
306.259040197
 31
0.000000000
  0
LINE
  5
C2D
330
A02
100
AcDbEntity
  8
Shape2DView003
100
AcDbLine
 10
-125.788438072
 20
306.259040197
 30
0.000000000
 11
-132.038289023
 21
306.258959671
 31
0.000000000
  0
LINE
  5
C2E
330
A02
100
AcDbEntity
  8
Shape2DView003
100
AcDbLine
 10
-132.038289023
 20
306.258959671
 30
0.000000000
 11
-131.996852094
 21
306.247766353
 31
0.000000000
  0
LINE
  5
C2F
330
A02
100
AcDbEntity
  8
Shape2DView003
100
AcDbLine
 10
-132.038289023
 20
317.758939659
 30
0.000000000
 11
-132.038289023
 21
306.258959671
 31
0.000000000
  0
LINE
  5
C30
330
A02
100
AcDbEntity
  8
Shape2DView003
100
AcDbLine
 10
-132.038289023
 20
317.758939659
 30
0.000000000
 11
-125.788438072
 21
317.759020184
 31
0.000000000
  0
LINE
  5
C31
330
A02
100
AcDbEntity
  8
Shape2DView003
100
AcDbLine
 10
-125.788438072
 20
317.759020184
 30
0.000000000
 11
-125.788438072
 21
336.008988425
 31
0.000000000
  0
LINE
  5
C32
330
A02
100
AcDbEntity
  8
Shape2DView003
100
AcDbLine
 10
-114.288712321
 20
336.009136592
 30
0.000000000
 11
-125.788438072
 21
336.008988425
 31
0.000000000
  0
LINE
  5
C33
330
A02
100
AcDbEntity
  8
Shape2DView003
100
AcDbLine
 10
-114.288712321
 20
336.009136592
 30
0.000000000
 11
-114.247275392
 21
335.997943274
 31
0.000000000
  0
LINE
  5
C34
330
A02
100
AcDbEntity
  8
Shape2DView003
100
AcDbLine
 10
-114.288712321
 20
336.009136592
 30
0.000000000
 11
-114.288712321
 21
329.759147469
 31
0.000000000
  0
LINE
  5
C35
330
A02
100
AcDbEntity
  8
Shape2DView003
100
AcDbLine
 10
-114.288712321
 20
329.759147469
 30
0.000000000
 11
-101.789010418
 21
329.759308520
 31
0.000000000
  0
LINE
  5
C36
330
A02
100
AcDbEntity
  8
Shape2DView003
100
AcDbLine
 10
-101.789010418
 20
329.759308520
 30
0.000000000
 11
-101.789010418
 21
336.009297644
 31
0.000000000
  0
LINE
  5
C37
330
A02
100
AcDbEntity
  8
Shape2DView003
100
AcDbLine
 10
-90.289284668
 20
336.009445811
 30
0.000000000
 11
-101.789010418
 21
336.009297644
 31
0.000000000
  0
LINE
  5
C38
330
A02
100
AcDbEntity
  8
Shape2DView003
100
AcDbLine
 10
-90.289284668
 20
336.009445811
 30
0.000000000
 11
-90.247847739
 21
335.998252493
 31
0.000000000
  0
LINE
  5
C39
330
A02
100
AcDbEntity
  8
Shape2DView003
100
AcDbLine
 10
-90.289284668
 20
336.009445811
 30
0.000000000
 11
-90.289284668
 21
329.759456687
 31
0.000000000
  0
LINE
  5
C3A
330
A02
100
AcDbEntity
  8
Shape2DView003
100
AcDbLine
 10
-90.289284668
 20
329.759456687
 30
0.000000000
 11
-77.789582765
 21
329.759617739
 31
0.000000000
  0
LINE
  5
C3B
330
A02
100
AcDbEntity
  8
Shape2DView003
100
AcDbLine
 10
-77.789582765
 20
329.759617739
 30
0.000000000
 11
-77.789582765
 21
336.009606862
 31
0.000000000
  0
LINE
  5
C3C
330
A02
100
AcDbEntity
  8
Shape2DView003
100
AcDbLine
 10
-66.289857014
 20
336.009755029
 30
0.000000000
 11
-77.789582765
 21
336.009606862
 31
0.000000000
  0
LINE
  5
C3D
330
A02
100
AcDbEntity
  8
Shape2DView003
100
AcDbLine
 10
-66.289857014
 20
336.009755029
 30
0.000000000
 11
-66.248420085
 21
335.998561711
 31
0.000000000
  0
LINE
  5
C3E
330
A02
100
AcDbEntity
  8
Shape2DView003
100
AcDbLine
 10
-66.289857014
 20
336.009755029
 30
0.000000000
 11
-66.289857014
 21
329.759765906
 31
0.000000000
  0
LINE
  5
C3F
330
A02
100
AcDbEntity
  8
Shape2DView003
100
AcDbLine
 10
-66.289857014
 20
329.759765906
 30
0.000000000
 11
-53.790155111
 21
329.759926957
 31
0.000000000
  0
LINE
  5
C40
330
A02
100
AcDbEntity
  8
Shape2DView003
100
AcDbLine
 10
-53.790155111
 20
329.759926957
 30
0.000000000
 11
-53.790155111
 21
336.009916081
 31
0.000000000
  0
LINE
  5
C41
330
A02
100
AcDbEntity
  8
Shape2DView003
100
AcDbLine
 10
-42.290429361
 20
336.010064248
 30
0.000000000
 11
-53.790155111
 21
336.009916081
 31
0.000000000
  0
LINE
  5
C42
330
A02
100
AcDbEntity
  8
Shape2DView003
100
AcDbLine
 10
-42.290429361
 20
336.010064248
 30
0.000000000
 11
-42.248992432
 21
335.998870930
 31
0.000000000
  0
LINE
  5
C43
330
A02
100
AcDbEntity
  8
Shape2DView003
100
AcDbLine
 10
-42.290429361
 20
336.010064248
 30
0.000000000
 11
-42.290429361
 21
329.760075124
 31
0.000000000
  0
LINE
  5
C44
330
A02
100
AcDbEntity
  8
Shape2DView003
100
AcDbLine
 10
-42.290429361
 20
329.760075124
 30
0.000000000
 11
-29.790727458
 21
329.760236176
 31
0.000000000
  0
LINE
  5
C45
330
A02
100
AcDbEntity
  8
Shape2DView003
100
AcDbLine
 10
-29.790727458
 20
329.760236176
 30
0.000000000
 11
-29.790727458
 21
336.010225299
 31
0.000000000
  0
LINE
  5
C46
330
A02
100
AcDbEntity
  8
Shape2DView003
100
AcDbLine
 10
-18.291001707
 20
336.010373466
 30
0.000000000
 11
-29.790727458
 21
336.010225299
 31
0.000000000
  0
LINE
  5
C47
330
A02
100
AcDbEntity
  8
Shape2DView003
100
AcDbLine
 10
-18.291001707
 20
336.010373466
 30
0.000000000
 11
-18.249564778
 21
335.999180148
 31
0.000000000
  0
LINE
  5
C48
330
A02
100
AcDbEntity
  8
Shape2DView003
100
AcDbLine
 10
-18.291001707
 20
336.010373466
 30
0.000000000
 11
-18.291001707
 21
329.760384343
 31
0.000000000
  0
LINE
  5
C49
330
A02
100
AcDbEntity
  8
Shape2DView003
100
AcDbLine
 10
-18.291001707
 20
329.760384343
 30
0.000000000
 11
-5.791299804
 21
329.760545394
 31
0.000000000
  0
LINE
  5
C4A
330
A02
100
AcDbEntity
  8
Shape2DView003
100
AcDbLine
 10
-5.791299804
 20
329.760545394
 30
0.000000000
 11
-5.791299804
 21
336.010534518
 31
0.000000000
  0
LINE
  5
C4B
330
A02
100
AcDbEntity
  8
Shape2DView003
100
AcDbLine
 10
5.708425946
 20
336.010682685
 30
0.000000000
 11
-5.791299804
 21
336.010534518
 31
0.000000000
  0
LINE
  5
C4C
330
A02
100
AcDbEntity
  8
Shape2DView003
100
AcDbLine
 10
5.708425946
 20
336.010682685
 30
0.000000000
 11
5.749862875
 21
335.999489367
 31
0.000000000
  0
LINE
  5
C4D
330
A02
100
AcDbEntity
  8
Shape2DView003
100
AcDbLine
 10
5.708425946
 20
336.010682685
 30
0.000000000
 11
5.708425946
 21
329.760693561
 31
0.000000000
  0
LINE
  5
C4E
330
A02
100
AcDbEntity
  8
Shape2DView003
100
AcDbLine
 10
5.708425946
 20
329.760693561
 30
0.000000000
 11
18.208127849
 21
329.760854613
 31
0.000000000
  0
LINE
  5
C4F
330
A02
100
AcDbEntity
  8
Shape2DView003
100
AcDbLine
 10
18.208127849
 20
329.760854613
 30
0.000000000
 11
18.208127849
 21
336.010843736
 31
0.000000000
  0
LINE
  5
C50
330
A02
100
AcDbEntity
  8
Shape2DView003
100
AcDbLine
 10
29.707853600
 20
336.010991904
 30
0.000000000
 11
18.208127849
 21
336.010843736
 31
0.000000000
  0
LINE
  5
C51
330
A02
100
AcDbEntity
  8
Shape2DView003
100
AcDbLine
 10
29.707853600
 20
336.010991904
 30
0.000000000
 11
29.749290529
 21
335.999798585
 31
0.000000000
  0
LINE
  5
C52
330
A02
100
AcDbEntity
  8
Shape2DView003
100
AcDbLine
 10
29.707853600
 20
336.010991904
 30
0.000000000
 11
29.707853600
 21
329.761002780
 31
0.000000000
  0
LINE
  5
C53
330
A02
100
AcDbEntity
  8
Shape2DView003
100
AcDbLine
 10
29.707853600
 20
329.761002780
 30
0.000000000
 11
42.207555503
 21
329.761163831
 31
0.000000000
  0
LINE
  5
C54
330
A02
100
AcDbEntity
  8
Shape2DView003
100
AcDbLine
 10
42.207555503
 20
329.761163831
 30
0.000000000
 11
42.207555503
 21
336.011152955
 31
0.000000000
  0
LINE
  5
C55
330
A02
100
AcDbEntity
  8
Shape2DView003
100
AcDbLine
 10
53.707281253
 20
336.011301122
 30
0.000000000
 11
42.207555503
 21
336.011152955
 31
0.000000000
  0
LINE
  5
C56
330
A02
100
AcDbEntity
  8
Shape2DView003
100
AcDbLine
 10
53.707281253
 20
336.011301122
 30
0.000000000
 11
53.748718182
 21
336.000107804
 31
0.000000000
  0
LINE
  5
C57
330
A02
100
AcDbEntity
  8
Shape2DView003
100
AcDbLine
 10
53.707281253
 20
336.011301122
 30
0.000000000
 11
53.707281253
 21
329.761311998
 31
0.000000000
  0
LINE
  5
C58
330
A02
100
AcDbEntity
  8
Shape2DView003
100
AcDbLine
 10
53.707281253
 20
329.761311998
 30
0.000000000
 11
66.206983156
 21
329.761473050
 31
0.000000000
  0
LINE
  5
C59
330
A02
100
AcDbEntity
  8
Shape2DView003
100
AcDbLine
 10
66.206983156
 20
329.761473050
 30
0.000000000
 11
66.206983156
 21
336.011462173
 31
0.000000000
  0
LINE
  5
C5A
330
A02
100
AcDbEntity
  8
Shape2DView003
100
AcDbLine
 10
77.706708907
 20
336.011610341
 30
0.000000000
 11
66.206983156
 21
336.011462173
 31
0.000000000
  0
LINE
  5
C5B
330
A02
100
AcDbEntity
  8
Shape2DView003
100
AcDbLine
 10
77.706708907
 20
336.011610341
 30
0.000000000
 11
77.748145836
 21
336.000417022
 31
0.000000000
  0
LINE
  5
C5C
330
A02
100
AcDbEntity
  8
Shape2DView003
100
AcDbLine
 10
77.706708907
 20
336.011610341
 30
0.000000000
 11
77.706708907
 21
329.761621217
 31
0.000000000
  0
LINE
  5
C5D
330
A02
100
AcDbEntity
  8
Shape2DView003
100
AcDbLine
 10
77.706708907
 20
329.761621217
 30
0.000000000
 11
90.206410810
 21
329.761782268
 31
0.000000000
  0
LINE
  5
C5E
330
A02
100
AcDbEntity
  8
Shape2DView003
100
AcDbLine
 10
90.206410810
 20
329.761782268
 30
0.000000000
 11
90.206410810
 21
336.011771392
 31
0.000000000
  0
LINE
  5
C5F
330
A02
100
AcDbEntity
  8
Shape2DView003
100
AcDbLine
 10
101.706136560
 20
336.011919559
 30
0.000000000
 11
90.206410810
 21
336.011771392
 31
0.000000000
  0
LINE
  5
C60
330
A02
100
AcDbEntity
  8
Shape2DView003
100
AcDbLine
 10
101.706136560
 20
336.011919559
 30
0.000000000
 11
101.747573489
 21
336.000726241
 31
0.000000000
  0
LINE
  5
C61
330
A02
100
AcDbEntity
  8
Shape2DView003
100
AcDbLine
 10
101.706136560
 20
336.011919559
 30
0.000000000
 11
101.706136560
 21
329.761930436
 31
0.000000000
  0
LINE
  5
C62
330
A02
100
AcDbEntity
  8
Shape2DView003
100
AcDbLine
 10
101.706136560
 20
329.761930436
 30
0.000000000
 11
114.205838463
 21
329.762091487
 31
0.000000000
  0
LINE
  5
C63
330
A02
100
AcDbEntity
  8
Shape2DView003
100
AcDbLine
 10
114.205838463
 20
329.762091487
 30
0.000000000
 11
114.205838463
 21
336.012080610
 31
0.000000000
  0
LINE
  5
C64
330
A02
100
AcDbEntity
  8
Shape2DView003
100
AcDbLine
 10
125.705564214
 20
336.012228778
 30
0.000000000
 11
114.205838463
 21
336.012080610
 31
0.000000000
  0
LINE
  5
C65
330
A02
100
AcDbEntity
  8
Shape2DView003
100
AcDbLine
 10
125.705564214
 20
336.012228778
 30
0.000000000
 11
125.747001143
 21
336.001035459
 31
0.000000000
  0
ELLIPSE
  5
C66
330
A02
100
AcDbEntity
  8
Shape2DView003
100
AcDbEllipse
 10
-128.788366528
 20
312.133991321
 30
0.000000000
 11
-0.260781969
 21
-0.965397724
 31
0.000000000
 40
0.999974412
 41
-0.000000000
 42
-6.019346754
  0
ELLIPSE
  5
C67
330
A02
100
AcDbEntity
  8
Shape2DView003
100
AcDbEllipse
 10
-128.788366528
 20
312.133991321
 30
0.000000000
 11
-0.260781969
 21
-0.965397724
 31
0.000000000
 40
0.999974412
 41
-3.141592654
 42
-0.000000000
  0
ELLIPSE
  5
C68
330
A02
100
AcDbEntity
  8
Shape2DView003
100
AcDbEllipse
 10
-128.788366528
 20
312.133991321
 30
0.000000000
 11
-0.260781969
 21
-0.965397724
 31
0.000000000
 40
0.999974412
 41
-6.019346754
 42
-3.141592654
  0
ELLIPSE
  5
C69
330
A02
100
AcDbEntity
  8
Shape2DView003
100
AcDbEllipse
 10
-19.010942048
 20
33.502775067
 30
0.000000000
 11
-0.443329347
 21
-1.641176130
 31
0.000000000
 40
0.999974412
 41
-3.132439778
 42
-2.877754100
  0
ELLIPSE
  5
C6A
330
A02
100
AcDbEntity
  8
Shape2DView003
100
AcDbEllipse
 10
-19.010942048
 20
33.502775067
 30
0.000000000
 11
-0.443329347
 21
-1.641176130
 31
0.000000000
 40
0.999974412
 41
-2.877754100
 42
-0.009152876
  0
ELLIPSE
  5
C6B
330
A02
100
AcDbEntity
  8
Shape2DView003
100
AcDbEllipse
 10
-128.788366528
 20
0.009534490
 30
0.000000000
 11
-0.260781969
 21
-0.965397724
 31
0.000000000
 40
0.999974412
 41
-0.000000000
 42
-6.019346754
  0
ELLIPSE
  5
C6C
330
A02
100
AcDbEntity
  8
Shape2DView003
100
AcDbEllipse
 10
-128.788366528
 20
0.009534490
 30
0.000000000
 11
-0.260781969
 21
-0.965397724
 31
0.000000000
 40
0.999974412
 41
-3.141592654
 42
-0.000000000
  0
ELLIPSE
  5
C6D
330
A02
100
AcDbEntity
  8
Shape2DView003
100
AcDbEllipse
 10
-128.788366528
 20
0.009534490
 30
0.000000000
 11
-0.260781969
 21
-0.965397724
 31
0.000000000
 40
0.999974412
 41
-6.019346754
 42
-3.141592654
  0
ELLIPSE
  5
C6E
330
A02
100
AcDbEntity
  8
Shape2DView003
100
AcDbEllipse
 10
-128.788366528
 20
-312.114922342
 30
0.000000000
 11
-0.260781969
 21
-0.965397724
 31
0.000000000
 40
0.999974412
 41
-0.000000000
 42
-6.019346754
  0
ELLIPSE
  5
C6F
330
A02
100
AcDbEntity
  8
Shape2DView003
100
AcDbEllipse
 10
-128.788366528
 20
-312.114922342
 30
0.000000000
 11
-0.260781969
 21
-0.965397724
 31
0.000000000
 40
0.999974412
 41
-3.141592654
 42
-0.000000000
  0
ELLIPSE
  5
C70
330
A02
100
AcDbEntity
  8
Shape2DView003
100
AcDbEllipse
 10
-128.788366528
 20
-312.114922342
 30
0.000000000
 11
-0.260781969
 21
-0.965397724
 31
0.000000000
 40
0.999974412
 41
-6.019346754
 42
-3.141592654
  0
ELLIPSE
  5
C71
330
A02
100
AcDbEntity
  8
Shape2DView003
100
AcDbEllipse
 10
-19.010942048
 20
-33.497108338
 30
0.000000000
 11
-0.443329347
 21
-1.641176130
 31
0.000000000
 40
0.999974412
 41
-3.132439778
 42
-2.877754100
  0
ELLIPSE
  5
C72
330
A02
100
AcDbEntity
  8
Shape2DView003
100
AcDbEllipse
 10
-19.010942048
 20
-33.497108338
 30
0.000000000
 11
-0.443329347
 21
-1.641176130
 31
0.000000000
 40
0.999974412
 41
-2.877754100
 42
-0.009152876
  0
ELLIPSE
  5
C73
330
A02
100
AcDbEntity
  8
Shape2DView003
100
AcDbEllipse
 10
-0.041436929
 20
332.760614257
 30
0.000000000
 11
-0.260781969
 21
-0.965397724
 31
0.000000000
 40
0.999974412
 41
-0.000000000
 42
-6.019346754
  0
ELLIPSE
  5
C74
330
A02
100
AcDbEntity
  8
Shape2DView003
100
AcDbEllipse
 10
-0.041436929
 20
332.760614257
 30
0.000000000
 11
-0.260781969
 21
-0.965397724
 31
0.000000000
 40
0.999974412
 41
-3.141592654
 42
-0.000000000
  0
ELLIPSE
  5
C75
330
A02
100
AcDbEntity
  8
Shape2DView003
100
AcDbEllipse
 10
-0.041436929
 20
332.760614257
 30
0.000000000
 11
-0.260781969
 21
-0.965397724
 31
0.000000000
 40
0.999974412
 41
-6.019346754
 42
-3.141592654
  0
ELLIPSE
  5
C76
330
A02
100
AcDbEntity
  8
Shape2DView003
100
AcDbEllipse
 10
42.987579390
 20
33.503573881
 30
0.000000000
 11
-0.443329347
 21
-1.641176130
 31
0.000000000
 40
0.999974412
 41
-3.132439778
 42
-2.877754100
  0
ELLIPSE
  5
C77
330
A02
100
AcDbEntity
  8
Shape2DView003
100
AcDbEllipse
 10
42.987579390
 20
33.503573881
 30
0.000000000
 11
-0.443329347
 21
-1.641176130
 31
0.000000000
 40
0.999974412
 41
-2.877754100
 42
-0.009152876
  0
ELLIPSE
  5
C78
330
A02
100
AcDbEntity
  8
Shape2DView003
100
AcDbEllipse
 10
128.705492670
 20
312.137308978
 30
0.000000000
 11
-0.260781969
 21
-0.965397724
 31
0.000000000
 40
0.999974412
 41
-0.000000000
 42
-6.019346754
  0
ELLIPSE
  5
C79
330
A02
100
AcDbEntity
  8
Shape2DView003
100
AcDbEllipse
 10
128.705492670
 20
312.137308978
 30
0.000000000
 11
-0.260781969
 21
-0.965397724
 31
0.000000000
 40
0.999974412
 41
-3.141592654
 42
-0.000000000
  0
ELLIPSE
  5
C7A
330
A02
100
AcDbEntity
  8
Shape2DView003
100
AcDbEllipse
 10
128.705492670
 20
312.137308978
 30
0.000000000
 11
-0.260781969
 21
-0.965397724
 31
0.000000000
 40
0.999974412
 41
-6.019346754
 42
-3.141592654
  0
ELLIPSE
  5
C7B
330
A02
100
AcDbEntity
  8
Shape2DView003
100
AcDbEllipse
 10
42.987579390
 20
-33.496309523
 30
0.000000000
 11
-0.443329347
 21
-1.641176130
 31
0.000000000
 40
0.999974412
 41
-3.132439778
 42
-2.877754100
  0
ELLIPSE
  5
C7C
330
A02
100
AcDbEntity
  8
Shape2DView003
100
AcDbEllipse
 10
42.987579390
 20
-33.496309523
 30
0.000000000
 11
-0.443329347
 21
-1.641176130
 31
0.000000000
 40
0.999974412
 41
-2.877754100
 42
-0.009152876
  0
ELLIPSE
  5
C7D
330
A02
100
AcDbEntity
  8
Shape2DView003
100
AcDbEllipse
 10
-0.041436929
 20
-332.738227621
 30
0.000000000
 11
-0.260781969
 21
-0.965397724
 31
0.000000000
 40
0.999974412
 41
-0.000000000
 42
-6.019346754
  0
ELLIPSE
  5
C7E
330
A02
100
AcDbEntity
  8
Shape2DView003
100
AcDbEllipse
 10
-0.041436929
 20
-332.738227621
 30
0.000000000
 11
-0.260781969
 21
-0.965397724
 31
0.000000000
 40
0.999974412
 41
-3.141592654
 42
-0.000000000
  0
ELLIPSE
  5
C7F
330
A02
100
AcDbEntity
  8
Shape2DView003
100
AcDbEllipse
 10
-0.041436929
 20
-332.738227621
 30
0.000000000
 11
-0.260781969
 21
-0.965397724
 31
0.000000000
 40
0.999974412
 41
-6.019346754
 42
-3.141592654
  0
ELLIPSE
  5
C80
330
A02
100
AcDbEntity
  8
Shape2DView003
100
AcDbEllipse
 10
128.705492670
 20
0.012852147
 30
0.000000000
 11
-0.260781969
 21
-0.965397724
 31
0.000000000
 40
0.999974412
 41
-0.000000000
 42
-6.019346754
  0
ELLIPSE
  5
C81
330
A02
100
AcDbEntity
  8
Shape2DView003
100
AcDbEllipse
 10
128.705492670
 20
0.012852147
 30
0.000000000
 11
-0.260781969
 21
-0.965397724
 31
0.000000000
 40
0.999974412
 41
-3.141592654
 42
-0.000000000
  0
ELLIPSE
  5
C82
330
A02
100
AcDbEntity
  8
Shape2DView003
100
AcDbEllipse
 10
128.705492670
 20
0.012852147
 30
0.000000000
 11
-0.260781969
 21
-0.965397724
 31
0.000000000
 40
0.999974412
 41
-6.019346754
 42
-3.141592654
  0
ELLIPSE
  5
C83
330
A02
100
AcDbEntity
  8
Shape2DView003
100
AcDbEllipse
 10
128.705492670
 20
-312.111604684
 30
0.000000000
 11
-0.260781969
 21
-0.965397724
 31
0.000000000
 40
0.999974412
 41
-0.000000000
 42
-6.019346754
  0
ELLIPSE
  5
C84
330
A02
100
AcDbEntity
  8
Shape2DView003
100
AcDbEllipse
 10
128.705492670
 20
-312.111604684
 30
0.000000000
 11
-0.260781969
 21
-0.965397724
 31
0.000000000
 40
0.999974412
 41
-3.141592654
 42
-0.000000000
  0
ELLIPSE
  5
C85
330
A02
100
AcDbEntity
  8
Shape2DView003
100
AcDbEllipse
 10
128.705492670
 20
-312.111604684
 30
0.000000000
 11
-0.260781969
 21
-0.965397724
 31
0.000000000
 40
0.999974412
 41
-6.019346754
 42
-3.141592654
  0
LINE
  5
C86
330
A02
100
AcDbEntity
  8
Shape2DView003
100
AcDbLine
 10
125.705564214
 20
336.012228778
 30
0.000000000
 11
125.705564214
 21
317.762260537
 31
0.000000000
  0
LINE
  5
C87
330
A02
100
AcDbEntity
  8
Shape2DView003
100
AcDbLine
 10
125.705564214
 20
-317.736633548
 30
0.000000000
 11
125.705564214
 21
-335.986601789
 31
0.000000000
  0
LINE
  5
C88
330
A02
100
AcDbEntity
  8
Shape2DView003
100
AcDbLine
 10
-125.788438072
 20
-335.989842141
 30
0.000000000
 11
-125.788438072
 21
-317.739873900
 31
0.000000000
  0
ELLIPSE
  5
C89
330
A02
100
AcDbEntity
  8
Shape2DView003
100
AcDbEllipse
 10
-19.040983821
 20
33.510890223
 30
0.000000000
 11
0.443329347
 21
1.641176130
 31
0.000000000
 40
0.999974412
 41
0.263838553
 42
3.141592654
  0
ELLIPSE
  5
C8A
330
A02
100
AcDbEntity
  8
Shape2DView003
100
AcDbEllipse
 10
-19.040983821
 20
33.510890223
 30
0.000000000
 11
0.443329347
 21
1.641176130
 31
0.000000000
 40
0.999974412
 41
3.141592654
 42
0.000000000
  0
ELLIPSE
  5
C8B
330
A02
100
AcDbEntity
  8
Shape2DView003
100
AcDbEllipse
 10
-19.040983821
 20
33.510890223
 30
0.000000000
 11
0.443329347
 21
1.641176130
 31
0.000000000
 40
0.999974412
 41
0.000000000
 42
0.263838553
  0
ELLIPSE
  5
C8C
330
A02
100
AcDbEntity
  8
Shape2DView003
100
AcDbEllipse
 10
-19.040983821
 20
-33.488993182
 30
0.000000000
 11
0.443329347
 21
1.641176130
 31
0.000000000
 40
0.999974412
 41
0.263838553
 42
3.141592654
  0
ELLIPSE
  5
C8D
330
A02
100
AcDbEntity
  8
Shape2DView003
100
AcDbEllipse
 10
-19.040983821
 20
-33.488993182
 30
0.000000000
 11
0.443329347
 21
1.641176130
 31
0.000000000
 40
0.999974412
 41
3.141592654
 42
0.000000000
  0
ELLIPSE
  5
C8E
330
A02
100
AcDbEntity
  8
Shape2DView003
100
AcDbEllipse
 10
-19.040983821
 20
-33.488993182
 30
0.000000000
 11
0.443329347
 21
1.641176130
 31
0.000000000
 40
0.999974412
 41
0.000000000
 42
0.263838553
  0
ELLIPSE
  5
C8F
330
A02
100
AcDbEntity
  8
Shape2DView003
100
AcDbEllipse
 10
42.957537617
 20
33.511689037
 30
0.000000000
 11
0.443329347
 21
1.641176130
 31
0.000000000
 40
0.999974412
 41
0.263838553
 42
3.141592654
  0
ELLIPSE
  5
C90
330
A02
100
AcDbEntity
  8
Shape2DView003
100
AcDbEllipse
 10
42.957537617
 20
33.511689037
 30
0.000000000
 11
0.443329347
 21
1.641176130
 31
0.000000000
 40
0.999974412
 41
3.141592654
 42
0.000000000
  0
ELLIPSE
  5
C91
330
A02
100
AcDbEntity
  8
Shape2DView003
100
AcDbEllipse
 10
42.957537617
 20
33.511689037
 30
0.000000000
 11
0.443329347
 21
1.641176130
 31
0.000000000
 40
0.999974412
 41
0.000000000
 42
0.263838553
  0
ELLIPSE
  5
C92
330
A02
100
AcDbEntity
  8
Shape2DView003
100
AcDbEllipse
 10
42.957537617
 20
-33.488194368
 30
0.000000000
 11
0.443329347
 21
1.641176130
 31
0.000000000
 40
0.999974412
 41
0.263838553
 42
3.141592654
  0
ELLIPSE
  5
C93
330
A02
100
AcDbEntity
  8
Shape2DView003
100
AcDbEllipse
 10
42.957537617
 20
-33.488194368
 30
0.000000000
 11
0.443329347
 21
1.641176130
 31
0.000000000
 40
0.999974412
 41
3.141592654
 42
0.000000000
  0
ELLIPSE
  5
C94
330
A02
100
AcDbEntity
  8
Shape2DView003
100
AcDbEllipse
 10
42.957537617
 20
-33.488194368
 30
0.000000000
 11
0.443329347
 21
1.641176130
 31
0.000000000
 40
0.999974412
 41
0.000000000
 42
0.263838553
  0
LINE
  5
C95
330
A02
100
AcDbEntity
  8
Shape2DView003
100
AcDbLine
 10
-19.010942048
 20
35.202772108
 30
0.000000000
 11
-19.040983821
 21
35.210887264
 31
0.000000000
  0
LINE
  5
C96
330
A02
100
AcDbEntity
  8
Shape2DView003
100
AcDbLine
 10
-19.010942048
 20
-31.797111296
 30
0.000000000
 11
-19.040983821
 21
-31.788996141
 31
0.000000000
  0
LINE
  5
C97
330
A02
100
AcDbEntity
  8
Shape2DView003
100
AcDbLine
 10
42.987579390
 20
35.203570923
 30
0.000000000
 11
42.957537617
 21
35.211686079
 31
0.000000000
  0
LINE
  5
C98
330
A02
100
AcDbEntity
  8
Shape2DView003
100
AcDbLine
 10
42.987579390
 20
-31.796312482
 30
0.000000000
 11
42.957537617
 21
-31.788197326
 31
0.000000000
  0
ENDSEC
  0
SECTION
  2
OBJECTS
  0
DICTIONARY
  5
F000
330
0
100
AcDbDictionary
  3
ACAD_GROUP
350
F001
  0
DICTIONARY
  5
F001
330
F000
100
AcDbDictionary
  0
ENDSEC
  0
EOF