M48
; DRILL file {KiCad 9.0.5-1.fc42} date 2025-11-14T21:23:54+1030
; FORMAT={-:-/ absolute / metric / decimal}
; #@! TF.CreationDate,2025-11-14T21:23:54+10:30
; #@! TF.GenerationSoftware,Kicad,Pcbnew,9.0.5-1.fc42
; #@! TF.FileFunction,Plated,1,2,PTH
FMAT,2
METRIC
; #@! TA.AperFunction,Plated,PTH,ViaDrill
T1C0.300
; #@! TA.AperFunction,Plated,PTH,ViaDrill
T2C0.400
; #@! TA.AperFunction,Plated,PTH,ComponentDrill
T3C0.500
; #@! TA.AperFunction,Plated,PTH,ComponentDrill
T4C1.000
; #@! TA.AperFunction,Plated,PTH,ComponentDrill
T5C2.500
; #@! TA.AperFunction,Plated,PTH,ComponentDrill
T6C3.200
%
G90
G05
T1
X78.0Y-158.0
X78.0Y-161.0
X78.0Y-438.0
X78.0Y-441.0
X81.0Y-161.0
X81.0Y-438.0
X81.925Y-160.25
X81.925Y-438.75
X82.0Y-156.5
X82.0Y-442.5
X83.0Y-159.5
X83.0Y-439.5
X84.0Y-161.0
X84.0Y-438.0
X85.75Y-156.5
X85.75Y-442.5
X86.5Y-158.75
X86.5Y-440.25
X87.0Y-161.0
X87.0Y-438.0
X89.0Y-156.5
X89.0Y-158.75
X89.0Y-440.25
X89.0Y-442.5
X90.0Y-161.0
X90.0Y-438.0
X91.0Y-159.5
X91.0Y-439.5
X93.0Y-161.0
X93.0Y-438.0
X93.75Y-156.5
X93.75Y-442.5
X94.001Y-177.499
X94.001Y-421.501
X94.5Y-158.75
X94.5Y-440.25
X96.0Y-161.0
X96.0Y-438.0
X98.0Y-156.5
X98.0Y-158.75
X98.0Y-440.25
X98.0Y-442.5
X99.0Y-161.0
X99.0Y-438.0
X100.0Y-159.5
X100.0Y-439.5
X102.0Y-161.0
X102.0Y-438.0
X102.75Y-156.5
X102.75Y-442.5
X103.5Y-158.75
X103.5Y-440.25
X105.0Y-161.0
X105.0Y-438.0
X106.0Y-156.5
X106.0Y-158.75
X106.0Y-440.25
X106.0Y-442.5
X108.0Y-159.5
X108.0Y-161.0
X108.0Y-438.0
X108.0Y-439.5
X110.75Y-156.5
X110.75Y-442.5
X111.0Y-161.0
X111.0Y-438.0
X111.001Y-177.499
X111.001Y-421.501
X111.75Y-158.75
X111.75Y-440.25
X112.0Y-154.3
X112.0Y-156.5
X112.0Y-442.5
X112.0Y-444.7
X114.0Y-161.0
X114.0Y-438.0
X115.0Y-153.0
X115.0Y-156.5
X115.0Y-158.75
X115.0Y-440.25
X115.0Y-442.5
X115.0Y-446.0
X116.25Y-155.0
X116.25Y-444.0
X116.75Y-153.5
X116.75Y-445.5
X117.0Y-159.5
X117.0Y-161.0
X117.0Y-438.0
X117.0Y-439.5
X117.6Y-150.3
X117.6Y-448.7
X118.054Y-155.5
X118.054Y-443.5
X118.75Y-151.5
X118.75Y-447.5
X119.5Y-148.5
X119.5Y-450.5
X120.0Y-153.5
X120.0Y-445.5
X120.75Y-149.5
X120.75Y-449.5
X121.6Y-146.1
X121.6Y-452.9
X121.75Y-151.75
X121.75Y-447.25
X123.0Y-133.5
X123.0Y-136.5
X123.0Y-139.53
X123.0Y-142.5
X123.0Y-147.5
X123.0Y-451.5
X123.0Y-456.5
X123.0Y-459.47
X123.0Y-462.5
X123.0Y-465.5
X124.75Y-149.7
X124.75Y-449.3
X126.0Y-142.5
X126.0Y-145.5
X126.0Y-147.5
X126.0Y-451.5
X126.0Y-453.5
X126.0Y-456.5
X126.75Y-138.75
X126.75Y-460.25
X126.85Y-149.7
X126.85Y-449.3
X128.001Y-177.499
X128.001Y-421.501
X129.0Y-139.5
X129.0Y-142.5
X129.0Y-145.5
X129.0Y-147.5
X129.0Y-149.7
X129.0Y-449.3
X129.0Y-451.5
X129.0Y-453.5
X129.0Y-456.5
X129.0Y-459.5
X129.5Y-133.5
X129.5Y-135.25
X129.5Y-463.75
X129.5Y-465.5
X130.0Y-125.5
X130.0Y-126.5
X130.0Y-127.5
X130.0Y-128.5
X130.0Y-129.5
X130.0Y-130.5
X130.0Y-468.5
X130.0Y-469.5
X130.0Y-470.5
X130.0Y-471.5
X130.0Y-472.5
X130.0Y-473.5
X130.4Y-136.5
X130.4Y-462.5
X131.0Y-125.5
X131.0Y-130.5
X131.0Y-146.5
X131.0Y-147.5
X131.0Y-148.5
X131.0Y-450.5
X131.0Y-451.5
X131.0Y-452.5
X131.0Y-468.5
X131.0Y-473.5
X132.0Y-125.5
X132.0Y-130.5
X132.0Y-146.5
X132.0Y-147.5
X132.0Y-148.5
X132.0Y-149.7
X132.0Y-449.3
X132.0Y-450.5
X132.0Y-451.5
X132.0Y-452.5
X132.0Y-468.5
X132.0Y-473.5
X132.5Y-133.5
X132.5Y-139.5
X132.5Y-459.5
X132.5Y-465.5
X133.0Y-125.5
X133.0Y-126.5
X133.0Y-127.5
X133.0Y-128.5
X133.0Y-129.5
X133.0Y-130.5
X133.0Y-135.5
X133.0Y-463.5
X133.0Y-468.5
X133.0Y-469.5
X133.0Y-470.5
X133.0Y-471.5
X133.0Y-472.5
X133.0Y-473.5
X133.75Y-139.5
X133.75Y-459.5
X134.0Y-142.5
X134.0Y-145.5
X134.0Y-147.5
X134.0Y-451.5
X134.0Y-453.5
X134.0Y-456.5
X134.75Y-139.5
X134.75Y-459.5
X135.0Y-126.5
X135.0Y-133.5
X135.0Y-465.5
X135.0Y-472.5
X135.5Y-149.7
X135.5Y-449.3
X135.75Y-139.5
X135.75Y-459.5
X136.75Y-138.5
X136.75Y-139.5
X136.75Y-459.5
X136.75Y-460.5
X137.0Y-125.5
X137.0Y-126.5
X137.0Y-133.5
X137.0Y-134.5
X137.0Y-142.5
X137.0Y-145.5
X137.0Y-147.5
X137.0Y-451.5
X137.0Y-453.5
X137.0Y-456.5
X137.0Y-464.5
X137.0Y-465.5
X137.0Y-472.5
X137.0Y-473.5
X137.75Y-139.5
X137.75Y-459.5
X138.0Y-125.5
X138.0Y-126.5
X138.0Y-133.5
X138.0Y-134.5
X138.0Y-149.7
X138.0Y-449.3
X138.0Y-464.5
X138.0Y-465.5
X138.0Y-472.5
X138.0Y-473.5
X138.75Y-139.5
X138.75Y-459.5
X139.0Y-125.5
X139.0Y-126.5
X139.0Y-133.5
X139.0Y-134.5
X139.0Y-464.5
X139.0Y-465.5
X139.0Y-472.5
X139.0Y-473.5
X139.75Y-139.5
X139.75Y-459.5
X140.0Y-142.5
X140.0Y-147.5
X140.0Y-451.5
X140.0Y-456.5
X140.75Y-135.5
X140.75Y-463.5
X141.0Y-133.5
X141.0Y-149.7
X141.0Y-449.3
X141.0Y-465.5
X141.5Y-141.0
X141.5Y-458.0
X142.0Y-133.5
X142.0Y-140.0
X142.0Y-459.0
X142.0Y-465.5
X142.242Y-144.0
X142.242Y-455.0
X142.7Y-149.7
X142.7Y-449.3
X143.0Y-126.5
X143.0Y-133.5
X143.0Y-135.5
X143.0Y-139.5
X143.0Y-459.5
X143.0Y-463.5
X143.0Y-465.5
X143.0Y-472.5
X143.5Y-147.75
X143.5Y-451.25
X144.0Y-135.5
X144.0Y-140.0
X144.0Y-144.0
X144.0Y-455.0
X144.0Y-459.0
X144.0Y-463.5
X144.575Y-147.325
X144.575Y-451.675
X144.8Y-146.542
X144.8Y-452.458
X145.0Y-133.5
X145.0Y-135.5
X145.0Y-139.5
X145.0Y-142.5
X145.0Y-456.5
X145.0Y-459.5
X145.0Y-463.5
X145.0Y-465.5
X145.001Y-177.499
X145.001Y-421.501
X146.0Y-126.5
X146.0Y-140.0
X146.0Y-459.0
X146.0Y-472.5
X146.996Y-139.5
X146.996Y-459.5
X147.0Y-133.5
X147.0Y-135.5
X147.0Y-147.0
X147.0Y-149.25
X147.0Y-150.25
X147.0Y-448.75
X147.0Y-449.75
X147.0Y-452.0
X147.0Y-463.5
X147.0Y-465.5
X147.5Y-143.0
X147.5Y-456.0
X148.0Y-140.0
X148.0Y-459.0
X148.999Y-177.499
X148.999Y-421.501
X149.0Y-126.5
X149.0Y-127.5
X149.0Y-128.5
X149.0Y-129.5
X149.0Y-130.5
X149.0Y-146.5
X149.0Y-452.5
X149.0Y-468.5
X149.0Y-469.5
X149.0Y-470.5
X149.0Y-471.5
X149.0Y-472.5
X149.5Y-149.25
X149.5Y-150.25
X149.5Y-448.75
X149.5Y-449.75
X149.996Y-139.5
X149.996Y-459.5
X150.0Y-130.5
X150.0Y-133.5
X150.0Y-136.5
X150.0Y-142.5
X150.0Y-456.5
X150.0Y-462.5
X150.0Y-465.5
X150.0Y-468.5
X151.0Y-130.5
X151.0Y-144.5
X151.0Y-149.7
X151.0Y-449.3
X151.0Y-454.5
X151.0Y-468.5
X152.0Y-126.5
X152.0Y-127.5
X152.0Y-128.5
X152.0Y-129.5
X152.0Y-130.5
X152.0Y-468.5
X152.0Y-469.5
X152.0Y-470.5
X152.0Y-471.5
X152.0Y-472.5
X152.5Y-149.7
X152.5Y-449.3
X152.996Y-139.5
X152.996Y-459.5
X153.0Y-133.5
X153.0Y-136.5
X153.0Y-142.5
X153.0Y-146.5
X153.0Y-452.5
X153.0Y-456.5
X153.0Y-462.5
X153.0Y-465.5
X155.996Y-139.5
X155.996Y-459.5
X156.0Y-127.5
X156.0Y-130.5
X156.0Y-133.5
X156.0Y-136.5
X156.0Y-142.5
X156.0Y-149.7
X156.0Y-449.3
X156.0Y-456.5
X156.0Y-462.5
X156.0Y-465.5
X156.0Y-468.5
X156.0Y-471.5
X158.996Y-139.5
X158.996Y-459.5
X159.0Y-127.5
X159.0Y-130.5
X159.0Y-133.5
X159.0Y-136.5
X159.0Y-142.5
X159.0Y-146.5
X159.0Y-149.7
X159.0Y-449.3
X159.0Y-452.5
X159.0Y-456.5
X159.0Y-462.5
X159.0Y-465.5
X159.0Y-468.5
X159.0Y-471.5
X160.5Y-149.7
X160.5Y-449.3
X161.996Y-139.5
X161.996Y-459.5
X162.0Y-127.5
X162.0Y-130.5
X162.0Y-133.5
X162.0Y-136.5
X162.0Y-142.5
X162.0Y-146.5
X162.0Y-149.7
X162.0Y-449.3
X162.0Y-452.5
X162.0Y-456.5
X162.0Y-462.5
X162.0Y-465.5
X162.0Y-468.5
X162.0Y-471.5
X164.996Y-139.5
X164.996Y-459.5
X165.0Y-127.5
X165.0Y-130.5
X165.0Y-133.5
X165.0Y-136.5
X165.0Y-142.5
X165.0Y-146.5
X165.0Y-149.7
X165.0Y-449.3
X165.0Y-452.5
X165.0Y-456.5
X165.0Y-462.5
X165.0Y-465.5
X165.0Y-468.5
X165.0Y-471.5
X165.999Y-177.499
X165.999Y-421.501
X167.996Y-139.5
X167.996Y-459.5
X168.0Y-127.5
X168.0Y-130.5
X168.0Y-133.5
X168.0Y-136.5
X168.0Y-142.5
X168.0Y-146.5
X168.0Y-452.5
X168.0Y-456.5
X168.0Y-462.5
X168.0Y-465.5
X168.0Y-468.5
X168.0Y-471.5
X168.2Y-149.7
X168.2Y-449.3
X170.996Y-139.5
X170.996Y-459.5
X171.0Y-127.5
X171.0Y-130.5
X171.0Y-133.5
X171.0Y-136.5
X171.0Y-142.5
X171.0Y-146.5
X171.0Y-150.0
X171.0Y-449.0
X171.0Y-452.5
X171.0Y-456.5
X171.0Y-462.5
X171.0Y-465.5
X171.0Y-468.5
X171.0Y-471.5
X172.5Y-151.5
X172.5Y-447.5
X173.996Y-139.5
X173.996Y-459.5
X174.0Y-127.5
X174.0Y-130.5
X174.0Y-133.5
X174.0Y-136.5
X174.0Y-142.5
X174.0Y-146.5
X174.0Y-149.5
X174.0Y-153.0
X174.0Y-446.0
X174.0Y-449.5
X174.0Y-452.5
X174.0Y-456.5
X174.0Y-462.5
X174.0Y-465.5
X174.0Y-468.5
X174.0Y-471.5
X175.5Y-155.5
X175.5Y-443.5
X176.0Y-159.25
X176.0Y-439.75
X176.996Y-139.5
X176.996Y-459.5
X177.0Y-127.5
X177.0Y-130.5
X177.0Y-133.5
X177.0Y-136.5
X177.0Y-142.5
X177.0Y-146.5
X177.0Y-149.5
X177.0Y-152.5
X177.0Y-161.0
X177.0Y-438.0
X177.0Y-446.5
X177.0Y-449.5
X177.0Y-452.5
X177.0Y-456.5
X177.0Y-462.5
X177.0Y-465.5
X177.0Y-468.5
X177.0Y-471.5
X177.5Y-155.5
X177.5Y-443.5
X179.5Y-158.75
X179.5Y-440.25
X179.996Y-139.5
X179.996Y-459.5
X180.0Y-127.5
X180.0Y-130.5
X180.0Y-133.5
X180.0Y-136.5
X180.0Y-142.5
X180.0Y-146.5
X180.0Y-149.5
X180.0Y-152.5
X180.0Y-155.5
X180.0Y-161.0
X180.0Y-438.0
X180.0Y-443.5
X180.0Y-446.5
X180.0Y-449.5
X180.0Y-452.5
X180.0Y-456.5
X180.0Y-462.5
X180.0Y-465.5
X180.0Y-468.5
X180.0Y-471.5
X182.996Y-139.5
X182.996Y-459.5
X182.999Y-177.499
X182.999Y-421.501
X183.0Y-127.5
X183.0Y-130.5
X183.0Y-133.5
X183.0Y-136.5
X183.0Y-142.5
X183.0Y-146.5
X183.0Y-149.5
X183.0Y-152.5
X183.0Y-155.5
X183.0Y-158.75
X183.0Y-161.0
X183.0Y-438.0
X183.0Y-440.25
X183.0Y-443.5
X183.0Y-446.5
X183.0Y-449.5
X183.0Y-452.5
X183.0Y-456.5
X183.0Y-462.5
X183.0Y-465.5
X183.0Y-468.5
X183.0Y-471.5
X185.0Y-159.25
X185.0Y-439.75
X185.996Y-139.5
X185.996Y-459.5
X186.0Y-127.5
X186.0Y-130.5
X186.0Y-133.5
X186.0Y-136.5
X186.0Y-142.5
X186.0Y-146.5
X186.0Y-149.5
X186.0Y-152.5
X186.0Y-446.5
X186.0Y-449.5
X186.0Y-452.5
X186.0Y-456.5
X186.0Y-462.5
X186.0Y-465.5
X186.0Y-468.5
X186.0Y-471.5
X186.5Y-155.5
X186.5Y-161.0
X186.5Y-438.0
X186.5Y-443.5
X188.5Y-158.75
X188.5Y-440.25
X188.996Y-139.5
X188.996Y-459.5
X189.0Y-127.5
X189.0Y-130.5
X189.0Y-133.5
X189.0Y-136.5
X189.0Y-142.5
X189.0Y-146.5
X189.0Y-149.5
X189.0Y-152.5
X189.0Y-155.5
X189.0Y-161.0
X189.0Y-438.0
X189.0Y-443.5
X189.0Y-446.5
X189.0Y-449.5
X189.0Y-452.5
X189.0Y-456.5
X189.0Y-462.5
X189.0Y-465.5
X189.0Y-468.5
X189.0Y-471.5
X191.0Y-158.75
X191.0Y-440.25
X191.996Y-139.5
X191.996Y-459.5
X192.0Y-127.5
X192.0Y-130.5
X192.0Y-133.5
X192.0Y-136.5
X192.0Y-142.5
X192.0Y-146.5
X192.0Y-149.5
X192.0Y-152.5
X192.0Y-155.5
X192.0Y-161.0
X192.0Y-438.0
X192.0Y-443.5
X192.0Y-446.5
X192.0Y-449.5
X192.0Y-452.5
X192.0Y-456.5
X192.0Y-462.5
X192.0Y-465.5
X192.0Y-468.5
X192.0Y-471.5
X193.0Y-159.25
X193.0Y-439.75
X194.5Y-155.5
X194.5Y-443.5
X194.996Y-139.5
X194.996Y-459.5
X195.0Y-127.5
X195.0Y-130.5
X195.0Y-133.5
X195.0Y-136.5
X195.0Y-142.5
X195.0Y-146.5
X195.0Y-149.5
X195.0Y-152.5
X195.0Y-161.0
X195.0Y-438.0
X195.0Y-446.5
X195.0Y-449.5
X195.0Y-452.5
X195.0Y-456.5
X195.0Y-462.5
X195.0Y-465.5
X195.0Y-468.5
X195.0Y-471.5
X196.5Y-158.75
X196.5Y-440.25
X197.996Y-139.5
X197.996Y-459.5
X198.0Y-127.5
X198.0Y-130.5
X198.0Y-133.5
X198.0Y-136.5
X198.0Y-142.5
X198.0Y-146.5
X198.0Y-149.5
X198.0Y-152.5
X198.0Y-155.5
X198.0Y-161.0
X198.0Y-438.0
X198.0Y-443.5
X198.0Y-446.5
X198.0Y-449.5
X198.0Y-452.5
X198.0Y-456.5
X198.0Y-462.5
X198.0Y-465.5
X198.0Y-468.5
X198.0Y-471.5
X199.999Y-177.499
X199.999Y-421.501
X200.0Y-158.75
X200.0Y-440.25
X200.996Y-139.5
X200.996Y-459.5
X201.0Y-130.5
X201.0Y-133.5
X201.0Y-136.5
X201.0Y-142.5
X201.0Y-146.5
X201.0Y-155.5
X201.0Y-161.0
X201.0Y-438.0
X201.0Y-443.5
X201.0Y-452.5
X201.0Y-456.5
X201.0Y-462.5
X201.0Y-465.5
X201.0Y-468.5
X202.0Y-159.25
X202.0Y-439.75
X203.5Y-155.5
X203.5Y-443.5
X203.996Y-139.5
X203.996Y-459.5
X204.0Y-130.5
X204.0Y-133.5
X204.0Y-136.5
X204.0Y-142.5
X204.0Y-146.5
X204.0Y-161.0
X204.0Y-438.0
X204.0Y-452.5
X204.0Y-456.5
X204.0Y-462.5
X204.0Y-465.5
X204.0Y-468.5
X205.5Y-158.75
X205.5Y-440.25
X206.996Y-139.5
X206.996Y-459.5
X207.0Y-127.5
X207.0Y-130.5
X207.0Y-133.5
X207.0Y-136.5
X207.0Y-142.5
X207.0Y-146.5
X207.0Y-149.5
X207.0Y-152.5
X207.0Y-155.5
X207.0Y-161.0
X207.0Y-438.0
X207.0Y-443.5
X207.0Y-446.5
X207.0Y-449.5
X207.0Y-452.5
X207.0Y-456.5
X207.0Y-462.5
X207.0Y-465.5
X207.0Y-468.5
X207.0Y-471.5
X208.0Y-158.75
X208.0Y-440.25
X209.996Y-139.5
X209.996Y-459.5
X210.0Y-133.5
X210.0Y-136.5
X210.0Y-142.5
X210.0Y-146.5
X210.0Y-149.5
X210.0Y-152.5
X210.0Y-159.25
X210.0Y-161.0
X210.0Y-438.0
X210.0Y-439.75
X210.0Y-446.5
X210.0Y-449.5
X210.0Y-452.5
X210.0Y-456.5
X210.0Y-462.5
X210.0Y-465.5
X210.19Y-129.36
X210.19Y-469.64
X211.5Y-155.5
X211.5Y-443.5
X212.996Y-139.5
X212.996Y-459.5
X213.0Y-133.5
X213.0Y-136.5
X213.0Y-142.5
X213.0Y-146.5
X213.0Y-149.5
X213.0Y-152.5
X213.0Y-155.5
X213.0Y-161.0
X213.0Y-438.0
X213.0Y-443.5
X213.0Y-446.5
X213.0Y-449.5
X213.0Y-452.5
X213.0Y-456.5
X213.0Y-462.5
X213.0Y-465.5
X213.5Y-158.75
X213.5Y-440.25
X214.0Y-128.5
X214.0Y-131.5
X214.0Y-140.5
X214.0Y-141.5
X214.0Y-457.5
X214.0Y-458.5
X214.0Y-467.5
X214.0Y-470.5
X216.0Y-142.5
X216.0Y-146.5
X216.0Y-149.5
X216.0Y-152.5
X216.0Y-155.5
X216.0Y-161.0
X216.0Y-438.0
X216.0Y-443.5
X216.0Y-446.5
X216.0Y-449.5
X216.0Y-452.5
X216.0Y-456.5
X216.5Y-128.0
X216.5Y-471.0
X217.0Y-158.75
X217.0Y-440.25
X217.9Y-131.5
X217.9Y-467.5
X218.0Y-133.5
X218.0Y-465.5
X218.5Y-128.5
X218.5Y-470.5
X219.0Y-139.5
X219.0Y-142.5
X219.0Y-146.5
X219.0Y-149.5
X219.0Y-152.5
X219.0Y-159.25
X219.0Y-161.0
X219.0Y-438.0
X219.0Y-439.75
X219.0Y-446.5
X219.0Y-449.5
X219.0Y-452.5
X219.0Y-456.5
X219.0Y-459.5
X220.5Y-155.5
X220.5Y-443.5
X222.0Y-127.5
X222.0Y-130.5
X222.0Y-133.5
X222.0Y-136.5
X222.0Y-139.5
X222.0Y-142.5
X222.0Y-146.5
X222.0Y-149.5
X222.0Y-152.5
X222.0Y-155.5
X222.0Y-161.0
X222.0Y-438.0
X222.0Y-443.5
X222.0Y-446.5
X222.0Y-449.5
X222.0Y-452.5
X222.0Y-456.5
X222.0Y-459.5
X222.0Y-462.5
X222.0Y-465.5
X222.0Y-468.5
X222.0Y-471.5
X222.5Y-158.75
X222.5Y-440.25
X225.0Y-130.5
X225.0Y-133.5
X225.0Y-136.5
X225.0Y-139.5
X225.0Y-142.5
X225.0Y-146.5
X225.0Y-155.5
X225.0Y-158.75
X225.0Y-161.0
X225.0Y-438.0
X225.0Y-440.25
X225.0Y-443.5
X225.0Y-452.5
X225.0Y-456.5
X225.0Y-459.5
X225.0Y-462.5
X225.0Y-465.5
X225.0Y-468.5
X227.0Y-159.25
X227.0Y-439.75
X228.0Y-130.5
X228.0Y-133.5
X228.0Y-136.5
X228.0Y-139.5
X228.0Y-142.5
X228.0Y-146.5
X228.0Y-161.0
X228.0Y-438.0
X228.0Y-452.5
X228.0Y-456.5
X228.0Y-459.5
X228.0Y-462.5
X228.0Y-465.5
X228.0Y-468.5
X228.5Y-155.5
X228.5Y-443.5
X230.002Y-177.499
X230.002Y-421.501
X230.5Y-158.75
X230.5Y-440.25
X231.0Y-127.5
X231.0Y-130.5
X231.0Y-133.5
X231.0Y-136.5
X231.0Y-139.5
X231.0Y-142.5
X231.0Y-146.5
X231.0Y-149.5
X231.0Y-152.5
X231.0Y-155.5
X231.0Y-161.0
X231.0Y-438.0
X231.0Y-443.5
X231.0Y-446.5
X231.0Y-449.5
X231.0Y-452.5
X231.0Y-456.5
X231.0Y-459.5
X231.0Y-462.5
X231.0Y-465.5
X231.0Y-468.5
X231.0Y-471.5
X234.0Y-127.5
X234.0Y-130.5
X234.0Y-133.5
X234.0Y-136.5
X234.0Y-139.5
X234.0Y-142.5
X234.0Y-146.5
X234.0Y-149.5
X234.0Y-152.5
X234.0Y-155.5
X234.0Y-158.75
X234.0Y-161.0
X234.0Y-438.0
X234.0Y-440.25
X234.0Y-443.5
X234.0Y-446.5
X234.0Y-449.5
X234.0Y-452.5
X234.0Y-456.5
X234.0Y-459.5
X234.0Y-462.5
X234.0Y-465.5
X234.0Y-468.5
X234.0Y-471.5
X236.0Y-159.25
X236.0Y-439.75
X237.0Y-127.5
X237.0Y-130.5
X237.0Y-133.5
X237.0Y-136.5
X237.0Y-139.5
X237.0Y-142.5
X237.0Y-146.5
X237.0Y-149.5
X237.0Y-152.5
X237.0Y-161.0
X237.0Y-438.0
X237.0Y-446.5
X237.0Y-449.5
X237.0Y-452.5
X237.0Y-456.5
X237.0Y-459.5
X237.0Y-462.5
X237.0Y-465.5
X237.0Y-468.5
X237.0Y-471.5
X237.5Y-155.5
X237.5Y-443.5
X239.5Y-158.75
X239.5Y-440.25
X240.0Y-127.5
X240.0Y-130.5
X240.0Y-133.5
X240.0Y-136.5
X240.0Y-139.5
X240.0Y-142.5
X240.0Y-146.5
X240.0Y-149.5
X240.0Y-152.5
X240.0Y-155.5
X240.0Y-161.0
X240.0Y-438.0
X240.0Y-443.5
X240.0Y-446.5
X240.0Y-449.5
X240.0Y-452.5
X240.0Y-456.5
X240.0Y-459.5
X240.0Y-462.5
X240.0Y-465.5
X240.0Y-468.5
X240.0Y-471.5
X242.0Y-158.75
X242.0Y-440.25
X243.0Y-127.5
X243.0Y-130.5
X243.0Y-133.5
X243.0Y-136.5
X243.0Y-139.5
X243.0Y-142.5
X243.0Y-146.5
X243.0Y-149.5
X243.0Y-152.5
X243.0Y-155.5
X243.0Y-161.0
X243.0Y-438.0
X243.0Y-443.5
X243.0Y-446.5
X243.0Y-449.5
X243.0Y-452.5
X243.0Y-456.5
X243.0Y-459.5
X243.0Y-462.5
X243.0Y-465.5
X243.0Y-468.5
X243.0Y-471.5
X244.0Y-159.25
X244.0Y-439.75
X245.5Y-155.5
X245.5Y-443.5
X246.0Y-127.5
X246.0Y-130.5
X246.0Y-133.5
X246.0Y-136.5
X246.0Y-139.5
X246.0Y-142.5
X246.0Y-146.5
X246.0Y-149.5
X246.0Y-152.5
X246.0Y-161.0
X246.0Y-438.0
X246.0Y-446.5
X246.0Y-449.5
X246.0Y-452.5
X246.0Y-456.5
X246.0Y-459.5
X246.0Y-462.5
X246.0Y-465.5
X246.0Y-468.5
X246.0Y-471.5
X247.002Y-177.499
X247.002Y-421.501
X247.5Y-158.75
X247.5Y-440.25
X249.0Y-127.5
X249.0Y-130.5
X249.0Y-133.5
X249.0Y-136.5
X249.0Y-139.5
X249.0Y-142.5
X249.0Y-146.5
X249.0Y-149.5
X249.0Y-152.5
X249.0Y-155.5
X249.0Y-161.0
X249.0Y-438.0
X249.0Y-443.5
X249.0Y-446.5
X249.0Y-449.5
X249.0Y-452.5
X249.0Y-456.5
X249.0Y-459.5
X249.0Y-462.5
X249.0Y-465.5
X249.0Y-468.5
X249.0Y-471.5
X251.0Y-158.75
X251.0Y-440.25
X252.0Y-127.5
X252.0Y-130.5
X252.0Y-133.5
X252.0Y-136.5
X252.0Y-139.5
X252.0Y-142.5
X252.0Y-146.5
X252.0Y-149.5
X252.0Y-152.5
X252.0Y-155.5
X252.0Y-161.0
X252.0Y-438.0
X252.0Y-443.5
X252.0Y-446.5
X252.0Y-449.5
X252.0Y-452.5
X252.0Y-456.5
X252.0Y-459.5
X252.0Y-462.5
X252.0Y-465.5
X252.0Y-468.5
X252.0Y-471.5
X253.0Y-159.25
X253.0Y-439.75
X254.5Y-155.5
X254.5Y-443.5
X255.0Y-127.5
X255.0Y-130.5
X255.0Y-133.5
X255.0Y-136.5
X255.0Y-139.5
X255.0Y-142.5
X255.0Y-146.5
X255.0Y-149.5
X255.0Y-449.5
X255.0Y-452.5
X255.0Y-456.5
X255.0Y-459.5
X255.0Y-462.5
X255.0Y-465.5
X255.0Y-468.5
X255.0Y-471.5
X255.25Y-152.5
X255.25Y-446.5
X258.0Y-127.5
X258.0Y-130.5
X258.0Y-133.5
X258.0Y-136.5
X258.0Y-139.5
X258.0Y-142.5
X258.0Y-146.5
X258.0Y-149.75
X258.0Y-449.25
X258.0Y-452.5
X258.0Y-456.5
X258.0Y-459.5
X258.0Y-462.5
X258.0Y-465.5
X258.0Y-468.5
X258.0Y-471.5
X261.0Y-127.5
X261.0Y-130.5
X261.0Y-133.5
X261.0Y-136.5
X261.0Y-139.5
X261.0Y-142.5
X261.0Y-146.5
X261.0Y-452.5
X261.0Y-456.5
X261.0Y-459.5
X261.0Y-462.5
X261.0Y-465.5
X261.0Y-468.5
X261.0Y-471.5
X262.5Y-149.7
X262.5Y-449.3
X264.0Y-127.5
X264.0Y-130.5
X264.0Y-133.5
X264.0Y-136.5
X264.0Y-139.5
X264.0Y-142.5
X264.0Y-146.5
X264.0Y-149.7
X264.0Y-449.3
X264.0Y-452.5
X264.0Y-456.5
X264.0Y-459.5
X264.0Y-462.5
X264.0Y-465.5
X264.0Y-468.5
X264.0Y-471.5
X264.002Y-177.499
X264.002Y-421.501
X267.0Y-127.5
X267.0Y-130.5
X267.0Y-133.5
X267.0Y-136.5
X267.0Y-139.5
X267.0Y-142.5
X267.0Y-146.5
X267.0Y-149.7
X267.0Y-449.3
X267.0Y-452.5
X267.0Y-456.5
X267.0Y-459.5
X267.0Y-462.5
X267.0Y-465.5
X267.0Y-468.5
X267.0Y-471.5
X270.0Y-127.5
X270.0Y-130.5
X270.0Y-133.5
X270.0Y-136.5
X270.0Y-139.5
X270.0Y-142.5
X270.0Y-146.5
X270.0Y-149.7
X270.0Y-449.3
X270.0Y-452.5
X270.0Y-456.5
X270.0Y-459.5
X270.0Y-462.5
X270.0Y-465.5
X270.0Y-468.5
X270.0Y-471.5
X271.5Y-149.7
X271.5Y-449.3
X273.0Y-127.5
X273.0Y-130.5
X273.0Y-133.5
X273.0Y-136.5
X273.0Y-139.5
X273.0Y-142.5
X273.0Y-146.5
X273.0Y-452.5
X273.0Y-456.5
X273.0Y-459.5
X273.0Y-462.5
X273.0Y-465.5
X273.0Y-468.5
X273.0Y-471.5
X273.5Y-144.75
X273.5Y-145.75
X273.5Y-453.25
X273.5Y-454.25
X274.5Y-149.7
X274.5Y-449.3
X276.0Y-127.5
X276.0Y-130.5
X276.0Y-133.5
X276.0Y-136.5
X276.0Y-139.5
X276.0Y-142.5
X276.0Y-456.5
X276.0Y-459.5
X276.0Y-462.5
X276.0Y-465.5
X276.0Y-468.5
X276.0Y-471.5
X276.8Y-147.5
X276.8Y-451.5
X277.5Y-149.7
X277.5Y-449.3
X278.0Y-144.0
X278.0Y-455.0
X279.0Y-127.5
X279.0Y-130.5
X279.0Y-133.5
X279.0Y-136.5
X279.0Y-139.5
X279.0Y-142.5
X279.0Y-456.5
X279.0Y-459.5
X279.0Y-462.5
X279.0Y-465.5
X279.0Y-468.5
X279.0Y-471.5
X280.0Y-149.7
X280.0Y-449.3
X280.25Y-147.0
X280.25Y-452.0
X280.5Y-143.9
X280.5Y-455.1
X281.0Y-146.5
X281.0Y-452.5
X281.002Y-177.499
X281.002Y-421.501
X281.6Y-147.3
X281.6Y-451.7
X282.0Y-127.5
X282.0Y-130.5
X282.0Y-133.5
X282.0Y-136.5
X282.0Y-139.5
X282.0Y-142.5
X282.0Y-456.5
X282.0Y-459.5
X282.0Y-462.5
X282.0Y-465.5
X282.0Y-468.5
X282.0Y-471.5
X283.0Y-149.25
X283.0Y-150.25
X283.0Y-448.75
X283.0Y-449.75
X283.3Y-147.3
X283.3Y-451.7
X285.0Y-127.5
X285.0Y-130.5
X285.0Y-133.5
X285.0Y-136.5
X285.0Y-139.5
X285.0Y-142.5
X285.0Y-145.3
X285.0Y-177.499
X285.0Y-421.501
X285.0Y-453.7
X285.0Y-456.5
X285.0Y-459.5
X285.0Y-462.5
X285.0Y-465.5
X285.0Y-468.5
X285.0Y-471.5
X285.4Y-148.5
X285.4Y-450.5
X286.473Y-149.223
X286.473Y-449.777
X287.1Y-150.25
X287.1Y-448.75
X288.0Y-127.5
X288.0Y-130.5
X288.0Y-133.5
X288.0Y-136.5
X288.0Y-139.5
X288.0Y-142.5
X288.0Y-145.5
X288.0Y-453.5
X288.0Y-456.5
X288.0Y-459.5
X288.0Y-462.5
X288.0Y-465.5
X288.0Y-468.5
X288.0Y-471.5
X288.2Y-147.7
X288.2Y-451.3
X288.5Y-149.7
X288.5Y-449.3
X291.0Y-127.5
X291.0Y-130.5
X291.0Y-133.5
X291.0Y-136.5
X291.0Y-139.5
X291.0Y-142.5
X291.0Y-145.5
X291.0Y-147.7
X291.0Y-149.7
X291.0Y-449.3
X291.0Y-451.3
X291.0Y-453.5
X291.0Y-456.5
X291.0Y-459.5
X291.0Y-462.5
X291.0Y-465.5
X291.0Y-468.5
X291.0Y-471.5
X294.0Y-130.5
X294.0Y-133.5
X294.0Y-136.5
X294.0Y-139.5
X294.0Y-142.5
X294.0Y-145.5
X294.0Y-147.7
X294.0Y-149.7
X294.0Y-449.3
X294.0Y-451.3
X294.0Y-453.5
X294.0Y-456.5
X294.0Y-459.5
X294.0Y-462.5
X294.0Y-465.5
X294.0Y-468.5
X296.5Y-149.7
X296.5Y-449.3
X297.0Y-130.5
X297.0Y-133.5
X297.0Y-136.5
X297.0Y-139.5
X297.0Y-142.5
X297.0Y-145.5
X297.0Y-147.7
X297.0Y-451.3
X297.0Y-453.5
X297.0Y-456.5
X297.0Y-459.5
X297.0Y-462.5
X297.0Y-465.5
X297.0Y-468.5
X300.0Y-133.5
X300.0Y-136.5
X300.0Y-139.5
X300.0Y-142.5
X300.0Y-145.5
X300.0Y-147.7
X300.0Y-149.7
X300.0Y-449.3
X300.0Y-451.3
X300.0Y-453.5
X300.0Y-456.5
X300.0Y-459.5
X300.0Y-462.5
X300.0Y-465.5
X302.0Y-177.499
X302.0Y-421.501
X303.0Y-133.5
X303.0Y-136.5
X303.0Y-139.5
X303.0Y-142.5
X303.0Y-145.5
X303.0Y-147.7
X303.0Y-149.7
X303.0Y-449.3
X303.0Y-451.3
X303.0Y-453.5
X303.0Y-456.5
X303.0Y-459.5
X303.0Y-462.5
X303.0Y-465.5
X304.5Y-149.7
X304.5Y-449.3
X306.0Y-133.5
X306.0Y-136.5
X306.0Y-139.5
X306.0Y-142.5
X306.0Y-456.5
X306.0Y-459.5
X306.0Y-462.5
X306.0Y-465.5
X307.0Y-145.5
X307.0Y-453.5
X311.75Y-155.5
X311.75Y-443.5
X312.0Y-159.1
X312.0Y-161.1
X312.0Y-437.9
X312.0Y-439.9
X315.0Y-153.75
X315.0Y-161.1
X315.0Y-437.9
X315.0Y-445.25
X315.2Y-156.9
X315.2Y-442.1
X315.4Y-158.5
X315.4Y-440.5
X316.75Y-154.5
X316.75Y-444.5
X317.5Y-156.5
X317.5Y-442.5
X318.0Y-161.1
X318.0Y-437.9
X318.6Y-158.5
X318.6Y-440.5
X319.0Y-177.499
X319.0Y-421.501
X320.0Y-156.5
X320.0Y-442.5
X321.0Y-159.101
X321.0Y-161.1
X321.0Y-437.9
X321.0Y-439.899
X323.75Y-156.5
X323.75Y-442.5
X324.0Y-161.1
X324.0Y-437.9
X324.4Y-158.5
X324.4Y-440.5
X326.6Y-158.5
X326.6Y-440.5
X327.0Y-161.1
X327.0Y-437.9
X328.0Y-156.5
X328.0Y-442.5
X329.0Y-159.1
X329.0Y-439.9
X330.0Y-161.1
X330.0Y-437.9
X331.8Y-156.5
X331.8Y-442.5
X332.4Y-158.5
X332.4Y-440.5
X333.0Y-161.1
X333.0Y-437.9
X335.6Y-158.5
X335.6Y-440.5
X336.0Y-161.1
X336.0Y-177.499
X336.0Y-421.501
X336.0Y-437.9
X337.0Y-156.5
X337.0Y-442.5
X338.0Y-159.1
X338.0Y-439.9
X339.0Y-161.1
X339.0Y-437.9
X340.8Y-156.5
X340.8Y-442.5
X341.4Y-158.5
X341.4Y-440.5
X342.0Y-161.1
X342.0Y-437.9
X343.6Y-158.5
X343.6Y-440.5
X345.0Y-156.5
X345.0Y-161.1
X345.0Y-437.9
X345.0Y-442.5
X346.0Y-159.1
X346.0Y-439.9
X348.0Y-161.1
X348.0Y-437.9
X348.8Y-156.5
X348.8Y-442.5
X349.4Y-158.5
X349.4Y-440.5
X351.0Y-161.1
X351.0Y-437.9
X352.6Y-158.5
X352.6Y-440.5
X354.0Y-156.5
X354.0Y-161.1
X354.0Y-437.9
X354.0Y-442.5
X355.0Y-159.1
X355.0Y-439.9
X357.0Y-161.1
X357.0Y-437.9
X357.8Y-156.5
X357.8Y-442.5
X358.4Y-158.5
X358.4Y-440.5
X360.0Y-161.1
X360.0Y-437.9
X360.6Y-158.5
X360.6Y-440.5
X362.0Y-156.5
X362.0Y-442.5
X363.0Y-159.1
X363.0Y-161.1
X363.0Y-437.9
X363.0Y-439.9
X365.8Y-156.5
X365.8Y-442.5
X366.0Y-161.1
X366.0Y-437.9
X366.001Y-177.5
X366.001Y-421.5
X366.4Y-158.5
X366.4Y-440.5
X369.0Y-161.1
X369.0Y-437.9
X369.6Y-158.5
X369.6Y-440.5
X371.0Y-156.5
X371.0Y-442.5
X372.0Y-159.1
X372.0Y-161.1
X372.0Y-437.9
X372.0Y-439.9
X374.8Y-156.5
X374.8Y-442.5
X375.0Y-161.1
X375.0Y-437.9
X375.4Y-158.5
X375.4Y-440.5
X377.6Y-158.5
X377.6Y-440.5
X378.0Y-161.1
X378.0Y-437.9
X379.0Y-156.5
X379.0Y-442.5
X380.0Y-159.1
X380.0Y-439.9
X381.0Y-161.1
X381.0Y-437.9
X382.8Y-156.5
X382.8Y-442.5
X383.001Y-177.5
X383.001Y-421.5
X383.4Y-158.5
X383.4Y-440.5
X384.0Y-161.1
X384.0Y-437.9
X385.5Y-158.5
X385.5Y-440.5
X386.5Y-156.1
X386.5Y-442.9
X387.0Y-161.1
X387.0Y-437.9
X388.0Y-154.5
X388.0Y-444.5
X389.0Y-159.1
X389.0Y-439.9
X390.0Y-161.1
X390.0Y-437.9
X390.8Y-155.6
X390.8Y-443.4
X394.1Y-146.7
X394.1Y-452.3
X396.0Y-133.5
X396.0Y-136.5
X396.0Y-139.5
X396.0Y-142.5
X396.0Y-144.75
X396.0Y-454.25
X396.0Y-456.5
X396.0Y-459.5
X396.0Y-462.5
X396.0Y-465.5
X396.75Y-149.7
X396.75Y-449.3
X397.0Y-146.25
X397.0Y-452.75
X398.5Y-149.7
X398.5Y-449.3
X399.0Y-133.5
X399.0Y-136.5
X399.0Y-139.5
X399.0Y-142.5
X399.0Y-144.75
X399.0Y-454.25
X399.0Y-456.5
X399.0Y-459.5
X399.0Y-462.5
X399.0Y-465.5
X400.0Y-177.5
X400.0Y-421.5
X402.0Y-133.5
X402.0Y-136.5
X402.0Y-139.5
X402.0Y-142.5
X402.0Y-144.75
X402.0Y-149.7
X402.0Y-449.3
X402.0Y-454.25
X402.0Y-456.5
X402.0Y-459.5
X402.0Y-462.5
X402.0Y-465.5
X405.0Y-127.5
X405.0Y-130.5
X405.0Y-133.5
X405.0Y-136.5
X405.0Y-139.5
X405.0Y-142.5
X405.0Y-144.75
X405.0Y-149.7
X405.0Y-449.3
X405.0Y-454.25
X405.0Y-456.5
X405.0Y-459.5
X405.0Y-462.5
X405.0Y-465.5
X405.0Y-468.5
X405.0Y-471.5
X407.5Y-149.7
X407.5Y-449.3
X408.0Y-127.5
X408.0Y-130.5
X408.0Y-133.5
X408.0Y-136.5
X408.0Y-139.5
X408.0Y-142.5
X408.0Y-144.75
X408.0Y-454.25
X408.0Y-456.5
X408.0Y-459.5
X408.0Y-462.5
X408.0Y-465.5
X408.0Y-468.5
X408.0Y-471.5
X411.0Y-127.5
X411.0Y-130.5
X411.0Y-133.5
X411.0Y-136.5
X411.0Y-139.5
X411.0Y-142.5
X411.0Y-144.75
X411.0Y-149.7
X411.0Y-449.3
X411.0Y-454.25
X411.0Y-456.5
X411.0Y-459.5
X411.0Y-462.5
X411.0Y-465.5
X411.0Y-468.5
X411.0Y-471.5
X411.2Y-146.7
X411.2Y-147.7
X411.2Y-451.3
X411.2Y-452.3
X414.0Y-127.5
X414.0Y-130.5
X414.0Y-133.5
X414.0Y-136.5
X414.0Y-139.5
X414.0Y-459.5
X414.0Y-462.5
X414.0Y-465.5
X414.0Y-468.5
X414.0Y-471.5
X414.25Y-149.75
X414.25Y-449.25
X414.75Y-142.5
X414.75Y-456.5
X415.5Y-144.0
X415.5Y-455.0
X416.056Y-147.194
X416.056Y-451.806
X416.5Y-144.0
X416.5Y-455.0
X416.95Y-146.3
X416.95Y-452.7
X417.0Y-127.5
X417.0Y-130.5
X417.0Y-133.5
X417.0Y-136.5
X417.0Y-139.5
X417.0Y-142.5
X417.0Y-177.5
X417.0Y-421.5
X417.0Y-456.5
X417.0Y-459.5
X417.0Y-462.5
X417.0Y-465.5
X417.0Y-468.5
X417.0Y-471.5
X419.0Y-147.3
X419.0Y-149.25
X419.0Y-150.25
X419.0Y-448.75
X419.0Y-449.75
X419.0Y-451.7
X420.0Y-127.5
X420.0Y-130.5
X420.0Y-133.5
X420.0Y-136.5
X420.0Y-139.5
X420.0Y-142.5
X420.0Y-456.5
X420.0Y-459.5
X420.0Y-462.5
X420.0Y-465.5
X420.0Y-468.5
X420.0Y-471.5
X420.75Y-145.0
X420.75Y-454.0
X420.8Y-147.9
X420.8Y-451.1
X421.0Y-177.5
X421.0Y-421.5
X421.5Y-149.25
X421.5Y-449.75
X422.25Y-150.25
X422.25Y-448.75
X423.0Y-127.5
X423.0Y-130.5
X423.0Y-133.5
X423.0Y-136.5
X423.0Y-139.5
X423.0Y-142.5
X423.0Y-147.5
X423.0Y-149.7
X423.0Y-449.3
X423.0Y-451.5
X423.0Y-456.5
X423.0Y-459.5
X423.0Y-462.5
X423.0Y-465.5
X423.0Y-468.5
X423.0Y-471.5
X424.491Y-149.7
X424.491Y-449.3
X425.991Y-149.7
X425.991Y-449.3
X426.0Y-127.5
X426.0Y-130.5
X426.0Y-133.5
X426.0Y-136.5
X426.0Y-139.5
X426.0Y-145.0
X426.0Y-147.5
X426.0Y-451.5
X426.0Y-454.0
X426.0Y-459.5
X426.0Y-462.5
X426.0Y-465.5
X426.0Y-468.5
X426.0Y-471.5
X428.991Y-149.7
X428.991Y-449.3
X429.0Y-127.5
X429.0Y-130.5
X429.0Y-133.5
X429.0Y-136.5
X429.0Y-139.5
X429.0Y-142.5
X429.0Y-145.0
X429.0Y-147.5
X429.0Y-451.5
X429.0Y-454.0
X429.0Y-456.5
X429.0Y-459.5
X429.0Y-462.5
X429.0Y-465.5
X429.0Y-468.5
X429.0Y-471.5
X432.0Y-127.5
X432.0Y-130.5
X432.0Y-133.5
X432.0Y-136.5
X432.0Y-139.5
X432.0Y-142.5
X432.0Y-145.0
X432.0Y-147.5
X432.0Y-451.5
X432.0Y-454.0
X432.0Y-456.5
X432.0Y-459.5
X432.0Y-462.5
X432.0Y-465.5
X432.0Y-468.5
X432.0Y-471.5
X432.491Y-149.7
X432.491Y-449.3
X434.991Y-149.7
X434.991Y-449.3
X435.0Y-127.5
X435.0Y-130.5
X435.0Y-133.5
X435.0Y-136.5
X435.0Y-139.5
X435.0Y-142.5
X435.0Y-145.0
X435.0Y-147.5
X435.0Y-451.5
X435.0Y-454.0
X435.0Y-456.5
X435.0Y-459.5
X435.0Y-462.5
X435.0Y-465.5
X435.0Y-468.5
X435.0Y-471.5
X437.991Y-149.7
X437.991Y-449.3
X437.999Y-177.5
X437.999Y-421.5
X438.0Y-127.5
X438.0Y-130.5
X438.0Y-133.5
X438.0Y-136.5
X438.0Y-139.5
X438.0Y-142.5
X438.0Y-145.0
X438.0Y-147.5
X438.0Y-451.5
X438.0Y-454.0
X438.0Y-456.5
X438.0Y-459.5
X438.0Y-462.5
X438.0Y-465.5
X438.0Y-468.5
X438.0Y-471.5
X440.2Y-149.7
X440.2Y-449.3
X441.0Y-127.5
X441.0Y-130.5
X441.0Y-133.5
X441.0Y-136.5
X441.0Y-139.5
X441.0Y-142.5
X441.0Y-145.0
X441.0Y-147.5
X441.0Y-451.5
X441.0Y-454.0
X441.0Y-456.5
X441.0Y-459.5
X441.0Y-462.5
X441.0Y-465.5
X441.0Y-468.5
X441.0Y-471.5
X443.4Y-150.5
X443.4Y-448.5
X444.0Y-127.5
X444.0Y-130.5
X444.0Y-133.5
X444.0Y-136.5
X444.0Y-139.5
X444.0Y-142.5
X444.0Y-145.0
X444.0Y-147.5
X444.0Y-451.5
X444.0Y-454.0
X444.0Y-456.5
X444.0Y-459.5
X444.0Y-462.5
X444.0Y-465.5
X444.0Y-468.5
X444.0Y-471.5
X446.4Y-153.5
X446.4Y-445.5
X447.0Y-127.5
X447.0Y-130.5
X447.0Y-133.5
X447.0Y-136.5
X447.0Y-139.5
X447.0Y-142.5
X447.0Y-145.0
X447.0Y-147.5
X447.0Y-150.5
X447.0Y-448.5
X447.0Y-451.5
X447.0Y-454.0
X447.0Y-456.5
X447.0Y-459.5
X447.0Y-462.5
X447.0Y-465.5
X447.0Y-468.5
X447.0Y-471.5
X447.25Y-155.5
X447.25Y-443.5
X448.0Y-159.5
X448.0Y-439.5
X449.5Y-155.5
X449.5Y-443.5
X450.0Y-127.5
X450.0Y-130.5
X450.0Y-133.5
X450.0Y-136.5
X450.0Y-139.5
X450.0Y-142.5
X450.0Y-145.0
X450.0Y-147.5
X450.0Y-150.5
X450.0Y-153.5
X450.0Y-161.0
X450.0Y-438.0
X450.0Y-445.5
X450.0Y-448.5
X450.0Y-451.5
X450.0Y-454.0
X450.0Y-456.5
X450.0Y-459.5
X450.0Y-462.5
X450.0Y-465.5
X450.0Y-468.5
X450.0Y-471.5
X451.0Y-158.75
X451.0Y-440.25
X453.0Y-127.5
X453.0Y-130.5
X453.0Y-133.5
X453.0Y-136.5
X453.0Y-139.5
X453.0Y-142.5
X453.0Y-145.0
X453.0Y-147.5
X453.0Y-150.5
X453.0Y-153.5
X453.0Y-155.5
X453.0Y-161.0
X453.0Y-438.0
X453.0Y-443.5
X453.0Y-445.5
X453.0Y-448.5
X453.0Y-451.5
X453.0Y-454.0
X453.0Y-456.5
X453.0Y-459.5
X453.0Y-462.5
X453.0Y-465.5
X453.0Y-468.5
X453.0Y-471.5
X454.999Y-177.5
X454.999Y-421.5
X455.0Y-158.75
X455.0Y-440.25
X456.0Y-127.5
X456.0Y-130.5
X456.0Y-133.5
X456.0Y-136.5
X456.0Y-139.5
X456.0Y-142.5
X456.0Y-145.0
X456.0Y-147.5
X456.0Y-150.5
X456.0Y-153.5
X456.0Y-155.5
X456.0Y-161.0
X456.0Y-438.0
X456.0Y-443.5
X456.0Y-445.5
X456.0Y-448.5
X456.0Y-451.5
X456.0Y-454.0
X456.0Y-456.5
X456.0Y-459.5
X456.0Y-462.5
X456.0Y-465.5
X456.0Y-468.5
X456.0Y-471.5
X457.0Y-159.5
X457.0Y-439.5
X458.5Y-155.5
X458.5Y-443.5
X459.0Y-127.5
X459.0Y-130.5
X459.0Y-133.5
X459.0Y-136.5
X459.0Y-139.5
X459.0Y-142.5
X459.0Y-145.0
X459.0Y-147.5
X459.0Y-150.5
X459.0Y-153.5
X459.0Y-161.0
X459.0Y-438.0
X459.0Y-445.5
X459.0Y-448.5
X459.0Y-451.5
X459.0Y-454.0
X459.0Y-456.5
X459.0Y-459.5
X459.0Y-462.5
X459.0Y-465.5
X459.0Y-468.5
X459.0Y-471.5
X460.0Y-158.75
X460.0Y-440.25
X462.0Y-127.5
X462.0Y-130.5
X462.0Y-133.5
X462.0Y-136.5
X462.0Y-139.5
X462.0Y-142.5
X462.0Y-145.0
X462.0Y-147.5
X462.0Y-150.5
X462.0Y-153.5
X462.0Y-155.5
X462.0Y-161.0
X462.0Y-438.0
X462.0Y-443.5
X462.0Y-445.5
X462.0Y-448.5
X462.0Y-451.5
X462.0Y-454.0
X462.0Y-456.5
X462.0Y-459.5
X462.0Y-462.5
X462.0Y-465.5
X462.0Y-468.5
X462.0Y-471.5
X463.0Y-158.75
X463.0Y-440.25
X465.0Y-127.5
X465.0Y-130.5
X465.0Y-133.5
X465.0Y-136.5
X465.0Y-139.5
X465.0Y-142.5
X465.0Y-145.0
X465.0Y-147.5
X465.0Y-150.5
X465.0Y-153.5
X465.0Y-159.5
X465.0Y-161.0
X465.0Y-438.0
X465.0Y-439.5
X465.0Y-445.5
X465.0Y-448.5
X465.0Y-451.5
X465.0Y-454.0
X465.0Y-456.5
X465.0Y-459.5
X465.0Y-462.5
X465.0Y-465.5
X465.0Y-468.5
X465.0Y-471.5
X466.5Y-155.5
X466.5Y-443.5
X468.0Y-127.5
X468.0Y-130.5
X468.0Y-133.5
X468.0Y-136.5
X468.0Y-139.5
X468.0Y-142.5
X468.0Y-145.0
X468.0Y-147.5
X468.0Y-150.5
X468.0Y-153.5
X468.0Y-155.5
X468.0Y-158.75
X468.0Y-161.0
X468.0Y-438.0
X468.0Y-440.25
X468.0Y-443.5
X468.0Y-445.5
X468.0Y-448.5
X468.0Y-451.5
X468.0Y-454.0
X468.0Y-456.5
X468.0Y-459.5
X468.0Y-462.5
X468.0Y-465.5
X468.0Y-468.5
X468.0Y-471.5
X471.0Y-127.5
X471.0Y-130.5
X471.0Y-133.5
X471.0Y-136.5
X471.0Y-139.5
X471.0Y-142.5
X471.0Y-145.0
X471.0Y-147.5
X471.0Y-150.5
X471.0Y-153.5
X471.0Y-155.5
X471.0Y-161.0
X471.0Y-438.0
X471.0Y-443.5
X471.0Y-445.5
X471.0Y-448.5
X471.0Y-451.5
X471.0Y-454.0
X471.0Y-456.5
X471.0Y-459.5
X471.0Y-462.5
X471.0Y-465.5
X471.0Y-468.5
X471.0Y-471.5
X471.999Y-177.5
X471.999Y-421.5
X472.0Y-158.75
X472.0Y-440.25
X474.0Y-127.5
X474.0Y-130.5
X474.0Y-133.5
X474.0Y-136.5
X474.0Y-139.5
X474.0Y-142.5
X474.0Y-145.0
X474.0Y-147.5
X474.0Y-150.5
X474.0Y-153.5
X474.0Y-159.5
X474.0Y-161.0
X474.0Y-438.0
X474.0Y-439.5
X474.0Y-445.5
X474.0Y-448.5
X474.0Y-451.5
X474.0Y-454.0
X474.0Y-456.5
X474.0Y-459.5
X474.0Y-462.5
X474.0Y-465.5
X474.0Y-468.5
X474.0Y-471.5
X475.5Y-155.5
X475.5Y-443.5
X477.0Y-127.5
X477.0Y-130.5
X477.0Y-133.5
X477.0Y-136.5
X477.0Y-139.5
X477.0Y-142.5
X477.0Y-145.0
X477.0Y-147.5
X477.0Y-150.5
X477.0Y-153.5
X477.0Y-155.5
X477.0Y-158.75
X477.0Y-161.0
X477.0Y-438.0
X477.0Y-440.25
X477.0Y-443.5
X477.0Y-445.5
X477.0Y-448.5
X477.0Y-451.5
X477.0Y-454.0
X477.0Y-456.5
X477.0Y-459.5
X477.0Y-462.5
X477.0Y-465.5
X477.0Y-468.5
X477.0Y-471.5
X480.0Y-127.5
X480.0Y-130.5
X480.0Y-133.5
X480.0Y-136.5
X480.0Y-139.5
X480.0Y-142.5
X480.0Y-145.0
X480.0Y-147.5
X480.0Y-150.5
X480.0Y-153.5
X480.0Y-155.5
X480.0Y-158.75
X480.0Y-161.0
X480.0Y-438.0
X480.0Y-440.25
X480.0Y-443.5
X480.0Y-445.5
X480.0Y-448.5
X480.0Y-451.5
X480.0Y-454.0
X480.0Y-456.5
X480.0Y-459.5
X480.0Y-462.5
X480.0Y-465.5
X480.0Y-468.5
X480.0Y-471.5
X482.0Y-159.5
X482.0Y-439.5
X483.0Y-127.5
X483.0Y-130.5
X483.0Y-133.5
X483.0Y-136.5
X483.0Y-139.5
X483.0Y-142.5
X483.0Y-145.0
X483.0Y-147.5
X483.0Y-150.5
X483.0Y-153.5
X483.0Y-161.0
X483.0Y-438.0
X483.0Y-445.5
X483.0Y-448.5
X483.0Y-451.5
X483.0Y-454.0
X483.0Y-456.5
X483.0Y-459.5
X483.0Y-462.5
X483.0Y-465.5
X483.0Y-468.5
X483.0Y-471.5
X483.5Y-155.5
X483.5Y-443.5
X485.0Y-158.75
X485.0Y-440.25
X486.0Y-127.5
X486.0Y-130.5
X486.0Y-133.5
X486.0Y-136.5
X486.0Y-139.5
X486.0Y-142.5
X486.0Y-145.0
X486.0Y-147.5
X486.0Y-150.5
X486.0Y-153.5
X486.0Y-155.5
X486.0Y-161.0
X486.0Y-438.0
X486.0Y-443.5
X486.0Y-445.5
X486.0Y-448.5
X486.0Y-451.5
X486.0Y-454.0
X486.0Y-456.5
X486.0Y-459.5
X486.0Y-462.5
X486.0Y-465.5
X486.0Y-468.5
X486.0Y-471.5
X489.0Y-127.5
X489.0Y-130.5
X489.0Y-133.5
X489.0Y-136.5
X489.0Y-139.5
X489.0Y-142.5
X489.0Y-145.0
X489.0Y-147.5
X489.0Y-150.5
X489.0Y-153.5
X489.0Y-155.5
X489.0Y-158.75
X489.0Y-161.0
X489.0Y-438.0
X489.0Y-440.25
X489.0Y-443.5
X489.0Y-445.5
X489.0Y-448.5
X489.0Y-451.5
X489.0Y-454.0
X489.0Y-456.5
X489.0Y-459.5
X489.0Y-462.5
X489.0Y-465.5
X489.0Y-468.5
X489.0Y-471.5
X491.0Y-159.5
X491.0Y-439.5
X492.0Y-127.5
X492.0Y-130.5
X492.0Y-133.5
X492.0Y-136.5
X492.0Y-139.5
X492.0Y-142.5
X492.0Y-145.0
X492.0Y-147.5
X492.0Y-150.5
X492.0Y-153.5
X492.0Y-161.0
X492.0Y-438.0
X492.0Y-445.5
X492.0Y-448.5
X492.0Y-451.5
X492.0Y-454.0
X492.0Y-456.5
X492.0Y-459.5
X492.0Y-462.5
X492.0Y-465.5
X492.0Y-468.5
X492.0Y-471.5
X492.5Y-155.5
X492.5Y-443.5
X494.0Y-158.75
X494.0Y-440.25
X495.0Y-127.5
X495.0Y-130.5
X495.0Y-133.5
X495.0Y-136.5
X495.0Y-139.5
X495.0Y-142.5
X495.0Y-145.0
X495.0Y-147.5
X495.0Y-150.5
X495.0Y-153.5
X495.0Y-155.5
X495.0Y-161.0
X495.0Y-438.0
X495.0Y-443.5
X495.0Y-445.5
X495.0Y-448.5
X495.0Y-451.5
X495.0Y-454.0
X495.0Y-456.5
X495.0Y-459.5
X495.0Y-462.5
X495.0Y-465.5
X495.0Y-468.5
X495.0Y-471.5
X497.0Y-158.75
X497.0Y-440.25
X498.0Y-127.5
X498.0Y-130.5
X498.0Y-133.5
X498.0Y-136.5
X498.0Y-139.5
X498.0Y-142.5
X498.0Y-145.0
X498.0Y-147.5
X498.0Y-150.5
X498.0Y-153.5
X498.0Y-155.5
X498.0Y-161.0
X498.0Y-438.0
X498.0Y-443.5
X498.0Y-445.5
X498.0Y-448.5
X498.0Y-451.5
X498.0Y-454.0
X498.0Y-456.5
X498.0Y-459.5
X498.0Y-462.5
X498.0Y-465.5
X498.0Y-468.5
X498.0Y-471.5
X499.0Y-159.5
X499.0Y-439.5
X500.5Y-155.5
X500.5Y-443.5
X501.0Y-127.5
X501.0Y-130.5
X501.0Y-133.5
X501.0Y-136.5
X501.0Y-139.5
X501.0Y-142.5
X501.0Y-145.0
X501.0Y-147.5
X501.0Y-150.5
X501.0Y-153.5
X501.0Y-161.0
X501.0Y-438.0
X501.0Y-445.5
X501.0Y-448.5
X501.0Y-451.5
X501.0Y-454.0
X501.0Y-456.5
X501.0Y-459.5
X501.0Y-462.5
X501.0Y-465.5
X501.0Y-468.5
X501.0Y-471.5
X502.0Y-158.75
X502.0Y-440.25
X502.002Y-177.499
X502.002Y-421.501
X504.0Y-127.5
X504.0Y-130.5
X504.0Y-133.5
X504.0Y-136.5
X504.0Y-139.5
X504.0Y-142.5
X504.0Y-145.0
X504.0Y-147.5
X504.0Y-150.5
X504.0Y-153.5
X504.0Y-155.5
X504.0Y-161.0
X504.0Y-438.0
X504.0Y-443.5
X504.0Y-445.5
X504.0Y-448.5
X504.0Y-451.5
X504.0Y-454.0
X504.0Y-456.5
X504.0Y-459.5
X504.0Y-462.5
X504.0Y-465.5
X504.0Y-468.5
X504.0Y-471.5
X506.0Y-158.75
X506.0Y-440.25
X507.0Y-127.5
X507.0Y-130.5
X507.0Y-133.5
X507.0Y-136.5
X507.0Y-139.5
X507.0Y-142.5
X507.0Y-145.0
X507.0Y-147.5
X507.0Y-150.5
X507.0Y-153.5
X507.0Y-155.5
X507.0Y-161.0
X507.0Y-438.0
X507.0Y-443.5
X507.0Y-445.5
X507.0Y-448.5
X507.0Y-451.5
X507.0Y-454.0
X507.0Y-456.5
X507.0Y-459.5
X507.0Y-462.5
X507.0Y-465.5
X507.0Y-468.5
X507.0Y-471.5
X508.0Y-159.5
X508.0Y-439.5
X509.5Y-155.5
X509.5Y-443.5
X510.0Y-127.5
X510.0Y-130.5
X510.0Y-133.5
X510.0Y-136.5
X510.0Y-139.5
X510.0Y-142.5
X510.0Y-145.0
X510.0Y-147.5
X510.0Y-150.5
X510.0Y-153.5
X510.0Y-161.0
X510.0Y-438.0
X510.0Y-445.5
X510.0Y-448.5
X510.0Y-451.5
X510.0Y-454.0
X510.0Y-456.5
X510.0Y-459.5
X510.0Y-462.5
X510.0Y-465.5
X510.0Y-468.5
X510.0Y-471.5
X511.0Y-158.75
X511.0Y-440.25
X513.0Y-127.5
X513.0Y-130.5
X513.0Y-133.5
X513.0Y-136.5
X513.0Y-139.5
X513.0Y-142.5
X513.0Y-145.0
X513.0Y-147.5
X513.0Y-150.5
X513.0Y-153.5
X513.0Y-155.5
X513.0Y-161.0
X513.0Y-438.0
X513.0Y-443.5
X513.0Y-445.5
X513.0Y-448.5
X513.0Y-451.5
X513.0Y-454.0
X513.0Y-456.5
X513.0Y-459.5
X513.0Y-462.5
X513.0Y-465.5
X513.0Y-468.5
X513.0Y-471.5
X514.0Y-158.75
X514.0Y-440.25
X515.5Y-155.5
X515.5Y-443.5
X516.0Y-127.5
X516.0Y-130.5
X516.0Y-133.5
X516.0Y-136.5
X516.0Y-139.5
X516.0Y-142.5
X516.0Y-145.0
X516.0Y-147.5
X516.0Y-150.5
X516.0Y-153.5
X516.0Y-159.5
X516.0Y-161.0
X516.0Y-438.0
X516.0Y-439.5
X516.0Y-445.5
X516.0Y-448.5
X516.0Y-451.5
X516.0Y-454.0
X516.0Y-456.5
X516.0Y-459.5
X516.0Y-462.5
X516.0Y-465.5
X516.0Y-468.5
X516.0Y-471.5
X517.5Y-155.5
X517.5Y-443.5
X519.0Y-127.5
X519.0Y-130.5
X519.0Y-133.5
X519.0Y-136.5
X519.0Y-139.5
X519.0Y-142.5
X519.0Y-145.0
X519.0Y-147.5
X519.0Y-150.5
X519.0Y-153.5
X519.0Y-155.5
X519.0Y-158.75
X519.0Y-161.0
X519.0Y-438.0
X519.0Y-440.25
X519.0Y-443.5
X519.0Y-445.5
X519.0Y-448.5
X519.0Y-451.5
X519.0Y-454.0
X519.0Y-456.5
X519.0Y-459.5
X519.0Y-462.5
X519.0Y-465.5
X519.0Y-468.5
X519.0Y-471.5
X519.002Y-177.499
X519.002Y-421.501
X522.0Y-127.5
X522.0Y-130.5
X522.0Y-133.5
X522.0Y-136.5
X522.0Y-139.5
X522.0Y-142.5
X522.0Y-145.0
X522.0Y-147.5
X522.0Y-150.5
X522.0Y-153.5
X522.0Y-155.5
X522.0Y-161.0
X522.0Y-438.0
X522.0Y-443.5
X522.0Y-445.5
X522.0Y-448.5
X522.0Y-451.5
X522.0Y-454.0
X522.0Y-456.5
X522.0Y-459.5
X522.0Y-462.5
X522.0Y-465.5
X522.0Y-468.5
X522.0Y-471.5
X523.0Y-158.75
X523.0Y-440.25
X525.0Y-127.5
X525.0Y-130.5
X525.0Y-133.5
X525.0Y-136.5
X525.0Y-139.5
X525.0Y-142.5
X525.0Y-145.0
X525.0Y-147.5
X525.0Y-150.5
X525.0Y-153.5
X525.0Y-159.5
X525.0Y-161.0
X525.0Y-438.0
X525.0Y-439.5
X525.0Y-445.5
X525.0Y-448.5
X525.0Y-451.5
X525.0Y-454.0
X525.0Y-456.5
X525.0Y-459.5
X525.0Y-462.5
X525.0Y-465.5
X525.0Y-468.5
X525.0Y-471.5
X526.5Y-155.5
X526.5Y-443.5
X528.0Y-127.5
X528.0Y-130.5
X528.0Y-133.5
X528.0Y-136.5
X528.0Y-139.5
X528.0Y-142.5
X528.0Y-145.0
X528.0Y-147.5
X528.0Y-150.5
X528.0Y-153.25
X528.0Y-445.75
X528.0Y-448.5
X528.0Y-451.5
X528.0Y-454.0
X528.0Y-456.5
X528.0Y-459.5
X528.0Y-462.5
X528.0Y-465.5
X528.0Y-468.5
X528.0Y-471.5
X529.5Y-151.75
X529.5Y-447.25
X531.0Y-127.5
X531.0Y-130.5
X531.0Y-133.5
X531.0Y-136.5
X531.0Y-139.5
X531.0Y-142.5
X531.0Y-145.0
X531.0Y-147.5
X531.0Y-150.25
X531.0Y-448.75
X531.0Y-451.5
X531.0Y-454.0
X531.0Y-456.5
X531.0Y-459.5
X531.0Y-462.5
X531.0Y-465.5
X531.0Y-468.5
X531.0Y-471.5
X534.0Y-127.5
X534.0Y-130.5
X534.0Y-133.5
X534.0Y-136.5
X534.0Y-139.5
X534.0Y-142.5
X534.0Y-145.0
X534.0Y-147.5
X534.0Y-451.5
X534.0Y-454.0
X534.0Y-456.5
X534.0Y-459.5
X534.0Y-462.5
X534.0Y-465.5
X534.0Y-468.5
X534.0Y-471.5
X534.5Y-149.7
X534.5Y-449.3
X536.002Y-177.499
X536.002Y-421.501
X537.0Y-127.5
X537.0Y-130.5
X537.0Y-133.5
X537.0Y-136.5
X537.0Y-139.5
X537.0Y-142.5
X537.0Y-145.0
X537.0Y-147.5
X537.0Y-149.7
X537.0Y-449.3
X537.0Y-451.5
X537.0Y-454.0
X537.0Y-456.5
X537.0Y-459.5
X537.0Y-462.5
X537.0Y-465.5
X537.0Y-468.5
X537.0Y-471.5
X540.0Y-127.5
X540.0Y-130.5
X540.0Y-133.5
X540.0Y-136.5
X540.0Y-139.5
X540.0Y-142.5
X540.0Y-145.0
X540.0Y-147.5
X540.0Y-149.7
X540.0Y-449.3
X540.0Y-451.5
X540.0Y-454.0
X540.0Y-456.5
X540.0Y-459.5
X540.0Y-462.5
X540.0Y-465.5
X540.0Y-468.5
X540.0Y-471.5
X542.0Y-139.5
X542.0Y-142.5
X542.0Y-456.5
X542.0Y-459.5
X543.0Y-127.5
X543.0Y-130.5
X543.0Y-133.5
X543.0Y-136.5
X543.0Y-145.0
X543.0Y-147.5
X543.0Y-451.5
X543.0Y-454.0
X543.0Y-462.5
X543.0Y-465.5
X543.0Y-468.5
X543.0Y-471.5
X543.5Y-149.7
X543.5Y-449.3
X545.5Y-145.0
X545.5Y-454.0
X546.0Y-127.5
X546.0Y-130.5
X546.0Y-133.5
X546.0Y-136.5
X546.0Y-139.5
X546.0Y-142.5
X546.0Y-147.5
X546.0Y-149.7
X546.0Y-449.3
X546.0Y-451.5
X546.0Y-456.5
X546.0Y-459.5
X546.0Y-462.5
X546.0Y-465.5
X546.0Y-468.5
X546.0Y-471.5
X548.0Y-145.0
X548.0Y-454.0
X548.5Y-141.25
X548.5Y-457.75
X548.625Y-144.375
X548.625Y-454.625
X548.8Y-146.7
X548.8Y-452.3
X549.0Y-127.5
X549.0Y-130.5
X549.0Y-133.5
X549.0Y-136.5
X549.0Y-149.7
X549.0Y-449.3
X549.0Y-462.5
X549.0Y-465.5
X549.0Y-468.5
X549.0Y-471.5
X549.25Y-139.25
X549.25Y-459.75
X549.625Y-143.375
X549.625Y-455.625
X550.25Y-142.75
X550.25Y-456.25
X551.5Y-149.7
X551.5Y-449.3
X551.7Y-143.8
X551.7Y-455.2
X552.0Y-127.5
X552.0Y-130.5
X552.0Y-133.5
X552.0Y-136.5
X552.0Y-139.5
X552.0Y-142.5
X552.0Y-456.5
X552.0Y-459.5
X552.0Y-462.5
X552.0Y-465.5
X552.0Y-468.5
X552.0Y-471.5
X552.146Y-147.283
X552.146Y-451.717
X552.75Y-146.5
X552.75Y-452.5
X553.002Y-177.499
X553.002Y-421.501
X554.0Y-143.75
X554.0Y-455.25
X555.0Y-127.5
X555.0Y-130.5
X555.0Y-133.5
X555.0Y-136.5
X555.0Y-139.5
X555.0Y-142.5
X555.0Y-147.0
X555.0Y-452.0
X555.0Y-456.5
X555.0Y-459.5
X555.0Y-462.5
X555.0Y-465.5
X555.0Y-468.5
X555.0Y-471.5
X557.0Y-177.499
X557.0Y-421.501
X557.991Y-149.7
X557.991Y-449.3
X558.0Y-127.5
X558.0Y-130.5
X558.0Y-133.5
X558.0Y-136.5
X558.0Y-139.5
X558.0Y-142.5
X558.0Y-145.0
X558.0Y-147.5
X558.0Y-451.5
X558.0Y-454.0
X558.0Y-456.5
X558.0Y-459.5
X558.0Y-462.5
X558.0Y-465.5
X558.0Y-468.5
X558.0Y-471.5
X560.491Y-149.7
X560.491Y-449.3
X561.0Y-127.5
X561.0Y-130.5
X561.0Y-133.5
X561.0Y-136.5
X561.0Y-139.5
X561.0Y-142.5
X561.0Y-145.0
X561.0Y-147.5
X561.0Y-451.5
X561.0Y-454.0
X561.0Y-456.5
X561.0Y-459.5
X561.0Y-462.5
X561.0Y-465.5
X561.0Y-468.5
X561.0Y-471.5
X563.991Y-149.7
X563.991Y-449.3
X564.0Y-127.5
X564.0Y-130.5
X564.0Y-133.5
X564.0Y-136.5
X564.0Y-139.5
X564.0Y-142.5
X564.0Y-145.0
X564.0Y-147.5
X564.0Y-451.5
X564.0Y-454.0
X564.0Y-456.5
X564.0Y-459.5
X564.0Y-462.5
X564.0Y-465.5
X564.0Y-468.5
X564.0Y-471.5
X566.991Y-149.7
X566.991Y-449.3
X567.0Y-127.5
X567.0Y-130.5
X567.0Y-133.5
X567.0Y-136.5
X567.0Y-139.5
X567.0Y-142.5
X567.0Y-145.0
X567.0Y-147.5
X567.0Y-451.5
X567.0Y-454.0
X567.0Y-456.5
X567.0Y-459.5
X567.0Y-462.5
X567.0Y-465.5
X567.0Y-468.5
X567.0Y-471.5
X568.491Y-149.7
X568.491Y-449.3
X569.991Y-149.7
X569.991Y-449.3
X570.0Y-127.5
X570.0Y-130.5
X570.0Y-133.5
X570.0Y-136.5
X570.0Y-139.5
X570.0Y-142.5
X570.0Y-145.0
X570.0Y-147.5
X570.0Y-451.5
X570.0Y-454.0
X570.0Y-456.5
X570.0Y-459.5
X570.0Y-462.5
X570.0Y-465.5
X570.0Y-468.5
X570.0Y-471.5
X572.991Y-149.7
X572.991Y-449.3
X573.0Y-130.5
X573.0Y-133.5
X573.0Y-136.5
X573.0Y-139.5
X573.0Y-142.5
X573.0Y-145.0
X573.0Y-147.5
X573.0Y-451.5
X573.0Y-454.0
X573.0Y-456.5
X573.0Y-459.5
X573.0Y-462.5
X573.0Y-465.5
X573.0Y-468.5
X574.0Y-177.499
X574.0Y-421.501
X576.0Y-133.5
X576.0Y-136.5
X576.0Y-139.5
X576.0Y-142.5
X576.0Y-145.0
X576.0Y-147.5
X576.0Y-451.5
X576.0Y-454.0
X576.0Y-456.5
X576.0Y-459.5
X576.0Y-462.5
X576.0Y-465.5
X576.2Y-149.7
X576.2Y-449.3
X579.0Y-133.5
X579.0Y-136.5
X579.0Y-139.5
X579.0Y-142.5
X579.0Y-145.0
X579.0Y-147.5
X579.0Y-150.5
X579.0Y-448.5
X579.0Y-451.5
X579.0Y-454.0
X579.0Y-456.5
X579.0Y-459.5
X579.0Y-462.5
X579.0Y-465.5
X582.0Y-147.5
X582.0Y-150.5
X582.0Y-153.5
X582.0Y-445.5
X582.0Y-448.5
X582.0Y-451.5
X583.0Y-156.7
X583.0Y-442.3
X584.0Y-159.5
X584.0Y-439.5
X585.0Y-153.5
X585.0Y-161.0
X585.0Y-438.0
X585.0Y-445.5
X587.0Y-156.5
X587.0Y-442.5
X588.0Y-153.5
X588.0Y-161.0
X588.0Y-438.0
X588.0Y-445.5
X590.5Y-158.5
X590.5Y-440.5
X591.0Y-156.5
X591.0Y-161.0
X591.0Y-177.499
X591.0Y-421.501
X591.0Y-438.0
X591.0Y-442.5
X593.0Y-159.5
X593.0Y-439.5
X594.0Y-161.0
X594.0Y-438.0
X596.0Y-156.5
X596.0Y-442.5
X596.5Y-158.5
X596.5Y-440.5
X597.0Y-161.0
X597.0Y-438.0
X598.5Y-158.5
X598.5Y-440.5
X599.5Y-156.5
X599.5Y-442.5
X600.0Y-161.0
X600.0Y-438.0
X601.0Y-159.5
X601.0Y-439.5
X603.0Y-161.0
X603.0Y-438.0
X604.0Y-156.5
X604.0Y-442.5
X604.5Y-158.5
X604.5Y-440.5
X606.0Y-161.0
X606.0Y-438.0
X607.5Y-158.5
X607.5Y-440.5
X608.0Y-177.499
X608.0Y-421.501
X608.5Y-156.5
X608.5Y-442.5
X609.0Y-161.0
X609.0Y-438.0
X610.0Y-159.5
X610.0Y-439.5
X612.0Y-161.0
X612.0Y-438.0
X613.0Y-156.5
X613.0Y-442.5
X613.5Y-158.5
X613.5Y-440.5
X615.0Y-161.0
X615.0Y-438.0
X615.5Y-158.5
X615.5Y-440.5
X617.0Y-156.5
X617.0Y-442.5
X618.0Y-159.5
X618.0Y-161.0
X618.0Y-438.0
X618.0Y-439.5
X619.5Y-155.5
X619.5Y-443.5
X621.0Y-161.0
X621.0Y-438.0
X621.25Y-158.75
X621.25Y-440.25
X622.5Y-156.0
X622.5Y-443.0
X624.0Y-156.5
X624.0Y-159.5
X624.0Y-161.0
X624.0Y-438.0
X624.0Y-439.5
X624.0Y-442.5
T2
X314.5Y-313.0
X314.5Y-319.0
X314.5Y-322.0
X316.5Y-274.0
X316.5Y-277.0
X316.5Y-280.0
X316.5Y-286.0
X316.5Y-292.0
X316.5Y-295.0
X316.5Y-304.0
X316.5Y-319.0
X316.5Y-325.0
X316.75Y-299.5
X317.5Y-322.0
X319.5Y-274.0
X319.5Y-277.0
X319.5Y-295.0
X319.5Y-313.0
X319.5Y-316.0
X319.5Y-319.0
X319.5Y-324.0
X319.92Y-287.296
X319.92Y-292.376
X319.92Y-306.6
X319.92Y-311.68
X320.5Y-303.5
X320.936Y-282.724
X320.936Y-283.74
X320.936Y-284.756
X320.936Y-285.772
X320.936Y-287.296
X320.936Y-292.376
X320.936Y-306.6
X320.936Y-311.68
X321.5Y-313.0
X321.5Y-316.0
X321.5Y-319.0
X321.5Y-322.0
X322.5Y-268.0
X322.5Y-271.0
X322.5Y-274.0
X322.5Y-277.0
X322.5Y-295.0
X322.5Y-298.0
X322.5Y-328.0
X322.5Y-331.0
X322.968Y-282.724
X322.968Y-283.74
X322.968Y-284.756
X322.968Y-285.772
X324.0Y-319.0
X324.5Y-266.0
X324.5Y-267.0
X324.5Y-268.0
X324.5Y-269.0
X324.5Y-270.0
X324.5Y-323.75
X324.5Y-329.0
X324.5Y-330.0
X324.5Y-331.0
X324.5Y-332.0
X324.5Y-333.0
X325.5Y-270.0
X325.5Y-274.0
X325.5Y-277.0
X325.5Y-322.0
X325.5Y-329.0
X326.5Y-270.0
X326.5Y-313.0
X326.5Y-316.0
X326.5Y-319.0
X326.5Y-329.0
X328.5Y-277.0
X328.5Y-280.0
X328.5Y-283.0
X328.5Y-286.0
X328.5Y-295.0
X328.5Y-321.75
X329.5Y-319.0
X329.75Y-306.25
X331.5Y-295.0
X331.5Y-298.0
X331.5Y-313.0
X331.5Y-316.0
X331.5Y-319.0
X332.0Y-283.0
X332.62Y-287.296
X332.62Y-292.376
X332.62Y-306.6
X332.62Y-311.68
X333.636Y-287.296
X333.636Y-292.376
X333.636Y-306.6
X333.636Y-311.68
X334.5Y-283.0
X334.5Y-295.0
X334.5Y-300.25
X334.5Y-304.0
X334.5Y-313.0
X334.5Y-316.0
X334.5Y-319.0
X334.5Y-322.0
X337.5Y-283.0
X337.5Y-295.0
X337.5Y-298.0
X337.5Y-304.0
X338.0Y-325.5
X338.0Y-332.5
X339.0Y-325.5
X339.0Y-332.5
X339.478Y-286.684
X339.5Y-307.0
X339.5Y-313.0
X339.5Y-316.0
X339.5Y-319.0
X340.478Y-282.684
X340.478Y-283.684
X340.478Y-284.684
X340.478Y-285.684
X340.478Y-286.684
X340.5Y-270.0
X340.5Y-274.0
X340.5Y-277.0
X340.5Y-295.0
X340.5Y-298.0
X340.5Y-301.0
X340.5Y-304.0
X340.5Y-329.0
X341.5Y-270.0
X341.5Y-329.0
X342.0Y-291.75
X342.0Y-319.0
X342.5Y-267.0
X342.5Y-268.0
X342.5Y-269.0
X342.5Y-270.0
X342.5Y-329.0
X342.5Y-330.0
X342.5Y-331.0
X342.5Y-332.0
X342.5Y-333.0
X343.5Y-274.0
X343.5Y-277.0
X343.5Y-283.0
X343.5Y-287.5
X343.5Y-295.0
X343.5Y-298.0
X343.5Y-301.0
X344.0Y-321.75
X344.0Y-329.0
X344.0Y-330.0
X344.0Y-331.0
X344.0Y-332.0
X344.0Y-333.0
X344.5Y-313.0
X344.5Y-316.0
X344.5Y-319.0
X345.0Y-329.0
X345.32Y-287.296
X345.32Y-292.376
X345.32Y-306.6
X345.32Y-311.68
X345.425Y-266.425
X345.5Y-295.5
X346.0Y-329.0
X346.336Y-287.296
X346.336Y-292.376
X346.336Y-306.6
X346.336Y-311.68
X346.5Y-271.0
X346.5Y-274.0
X346.5Y-277.0
X346.5Y-280.0
X346.5Y-304.0
X347.0Y-313.0
X347.0Y-316.0
X347.0Y-319.0
X348.0Y-284.0
X348.25Y-266.5
X348.5Y-295.5
X348.5Y-320.75
X349.0Y-297.5
X349.5Y-271.0
X349.5Y-274.0
X349.5Y-319.0
X349.638Y-286.748
X349.75Y-266.5
X350.5Y-304.0
X351.0Y-277.0
X351.0Y-292.5
X351.0Y-323.5
X351.25Y-286.75
X352.0Y-313.0
X352.0Y-316.0
X352.5Y-271.0
X352.5Y-295.0
X352.5Y-298.0
X352.5Y-300.25
X352.5Y-302.0
X352.575Y-266.425
X353.0Y-277.5
X353.0Y-280.0
X353.0Y-286.75
X353.5Y-318.75
X353.5Y-325.5
X353.5Y-332.5
X354.0Y-277.5
X354.5Y-325.5
X354.5Y-332.5
X354.75Y-286.75
X354.75Y-317.5
X355.5Y-267.0
X355.5Y-268.0
X355.5Y-269.0
X355.5Y-270.0
X355.5Y-276.5
X355.5Y-298.0
X355.5Y-300.25
X355.5Y-304.0
X356.0Y-329.0
X356.25Y-286.75
X356.5Y-270.0
X356.5Y-283.5
X356.5Y-316.0
X357.0Y-329.0
X357.5Y-270.0
X358.0Y-329.0
X358.0Y-330.0
X358.0Y-331.0
X358.0Y-332.0
X358.0Y-333.0
X358.02Y-287.296
X358.02Y-292.376
X358.02Y-306.6
X358.02Y-311.68
X358.5Y-274.0
X358.5Y-277.5
X358.5Y-295.0
X358.5Y-301.0
X358.5Y-313.0
X358.5Y-319.0
X358.75Y-298.0
X359.036Y-287.296
X359.036Y-292.376
X359.036Y-306.6
X359.036Y-311.68
X359.5Y-316.0
X359.5Y-329.0
X359.5Y-330.0
X359.5Y-331.0
X359.5Y-332.0
X359.5Y-333.0
X360.5Y-266.5
X360.5Y-273.5
X360.5Y-329.0
X361.0Y-281.75
X361.5Y-277.0
X361.5Y-295.0
X361.5Y-304.0
X361.5Y-318.25
X361.5Y-320.0
X361.5Y-329.0
X361.576Y-298.98
X361.576Y-299.996
X362.0Y-287.0
X362.5Y-266.5
X362.5Y-273.5
X362.5Y-283.106
X364.5Y-266.5
X364.5Y-273.5
X364.5Y-280.0
X364.5Y-282.0
X364.5Y-286.0
X364.5Y-287.75
X364.5Y-295.0
X364.5Y-304.0
X364.5Y-316.0
X364.5Y-318.25
X364.5Y-320.0
X366.5Y-266.5
X366.5Y-273.5
X366.5Y-277.0
X366.656Y-298.98
X366.656Y-299.996
X367.5Y-286.0
X367.5Y-289.75
X367.5Y-292.0
X367.5Y-295.0
X367.5Y-304.0
X367.5Y-307.0
X367.5Y-310.0
X367.5Y-313.0
X367.5Y-316.0
X367.5Y-318.25
X367.5Y-320.0
X368.5Y-277.0
X368.5Y-280.0
X369.0Y-266.5
X369.0Y-273.5
X370.0Y-266.5
X370.0Y-273.5
X370.5Y-277.0
X370.5Y-280.0
X370.5Y-289.75
X370.5Y-292.0
X370.5Y-307.0
X370.5Y-310.0
X370.5Y-313.75
X370.5Y-316.25
X370.5Y-319.0
X370.5Y-322.0
X371.0Y-295.5
X371.0Y-296.5
X371.0Y-297.5
X371.0Y-301.5
X371.0Y-302.5
X371.0Y-303.5
X371.54Y-284.437
X372.0Y-295.5
X372.0Y-303.5
X372.5Y-266.5
X372.5Y-273.5
X372.5Y-277.0
X372.5Y-280.0
X372.5Y-283.0
X373.0Y-295.5
X373.0Y-303.5
X373.0Y-325.5
X373.0Y-332.5
X373.5Y-289.0
X373.5Y-292.0
X373.5Y-307.0
X373.5Y-310.75
X373.5Y-313.25
X373.5Y-316.0
X373.5Y-319.0
X373.5Y-322.0
X373.7Y-299.5
X374.0Y-295.5
X374.0Y-296.5
X374.0Y-297.5
X374.0Y-301.5
X374.0Y-302.5
X374.0Y-303.5
X374.0Y-325.5
X374.0Y-332.5
X375.5Y-270.0
X375.5Y-329.0
X375.75Y-307.0
X376.0Y-303.75
X376.5Y-270.0
X376.5Y-274.0
X376.5Y-277.0
X376.5Y-280.0
X376.5Y-283.0
X376.5Y-286.0
X376.5Y-289.0
X376.5Y-292.0
X376.5Y-295.0
X376.5Y-298.98
X376.5Y-300.0
X376.5Y-310.0
X376.5Y-313.0
X376.5Y-316.0
X376.5Y-319.0
X376.5Y-322.0
X376.5Y-325.0
X376.5Y-329.0
X377.5Y-266.0
X377.5Y-267.0
X377.5Y-268.0
X377.5Y-269.0
X377.5Y-270.0
X377.5Y-307.0
X377.5Y-329.0
X377.5Y-330.0
X377.5Y-331.0
X377.5Y-332.0
X377.5Y-333.0
X379.5Y-268.0
X379.5Y-271.0
X379.5Y-274.0
X379.5Y-277.0
X379.5Y-280.0
X379.5Y-283.0
X379.5Y-286.0
X379.5Y-289.0
X379.5Y-292.0
X379.5Y-295.0
X379.5Y-296.0
X379.5Y-298.5
X379.5Y-300.5
X379.5Y-302.5
X379.5Y-307.0
X379.5Y-310.0
X379.5Y-313.0
X379.5Y-316.0
X379.5Y-319.0
X379.5Y-322.0
X379.5Y-325.0
X379.5Y-328.0
X379.5Y-331.0
X382.5Y-274.0
X382.5Y-277.0
X382.5Y-280.0
X382.5Y-283.0
X382.5Y-286.0
X382.5Y-289.0
X382.5Y-310.0
X382.5Y-313.0
X382.5Y-316.0
X382.5Y-319.0
X382.5Y-322.0
X382.5Y-325.0
X383.0Y-291.5
X383.0Y-292.5
X383.0Y-293.5
X383.0Y-305.5
X383.0Y-306.5
X383.0Y-307.5
X384.0Y-291.5
X384.0Y-307.5
X385.0Y-291.5
X385.0Y-307.5
X385.5Y-283.0
X385.5Y-286.0
X385.5Y-289.0
X385.5Y-310.0
X385.5Y-313.0
X385.5Y-316.0
X385.5Y-319.0
X385.5Y-322.0
X385.5Y-325.0
X386.0Y-291.5
X386.0Y-307.5
X386.5Y-295.0
X386.5Y-296.0
X387.0Y-291.5
X387.0Y-307.5
T3
X122.6Y-128.5
X122.6Y-470.5
X123.303Y-126.803
X123.303Y-130.197
X123.303Y-468.803
X123.303Y-472.197
X125.0Y-126.1
X125.0Y-130.9
X125.0Y-468.1
X125.0Y-472.9
X126.697Y-126.803
X126.697Y-130.197
X126.697Y-468.803
X126.697Y-472.197
X127.4Y-128.5
X127.4Y-470.5
X300.6Y-128.5
X300.6Y-470.5
X301.303Y-126.803
X301.303Y-130.197
X301.303Y-468.803
X301.303Y-472.197
X303.0Y-126.1
X303.0Y-130.9
X303.0Y-468.1
X303.0Y-472.9
X304.697Y-126.803
X304.697Y-130.197
X304.697Y-468.803
X304.697Y-472.197
X305.4Y-128.5
X305.4Y-470.5
X315.1Y-268.5
X315.1Y-330.5
X315.803Y-266.803
X315.803Y-270.197
X315.803Y-328.803
X315.803Y-332.197
X317.5Y-266.1
X317.5Y-270.9
X317.5Y-328.1
X317.5Y-332.9
X319.197Y-266.803
X319.197Y-270.197
X319.197Y-328.803
X319.197Y-332.197
X319.9Y-268.5
X319.9Y-330.5
X382.1Y-268.5
X382.1Y-330.5
X382.803Y-266.803
X382.803Y-270.197
X382.803Y-328.803
X382.803Y-332.197
X384.5Y-266.1
X384.5Y-270.9
X384.5Y-328.1
X384.5Y-332.9
X386.197Y-266.803
X386.197Y-270.197
X386.197Y-328.803
X386.197Y-332.197
X386.9Y-268.5
X386.9Y-330.5
X396.6Y-128.5
X396.6Y-470.5
X397.303Y-126.803
X397.303Y-130.197
X397.303Y-468.803
X397.303Y-472.197
X399.0Y-126.1
X399.0Y-130.9
X399.0Y-468.1
X399.0Y-472.9
X400.697Y-126.803
X400.697Y-130.197
X400.697Y-468.803
X400.697Y-472.197
X401.4Y-128.5
X401.4Y-470.5
X574.6Y-128.5
X574.6Y-470.5
X575.303Y-126.803
X575.303Y-130.197
X575.303Y-468.803
X575.303Y-472.197
X577.0Y-126.1
X577.0Y-130.9
X577.0Y-468.1
X577.0Y-472.9
X578.697Y-126.803
X578.697Y-130.197
X578.697Y-468.803
X578.697Y-472.197
X579.4Y-128.5
X579.4Y-470.5
T4
X210.19Y-127.04
X210.19Y-471.96
X212.73Y-127.04
X212.73Y-471.96
X215.27Y-127.04
X215.27Y-471.96
X217.81Y-127.04
X217.81Y-471.96
T5
X202.35Y-127.6
X202.35Y-151.4
X202.35Y-447.6
X202.35Y-471.4
X225.65Y-127.6
X225.65Y-151.4
X225.65Y-447.6
X225.65Y-471.4
T6
X81.0Y-168.0
X81.0Y-431.0
X125.0Y-128.5
X125.0Y-470.5
X214.0Y-168.0
X214.0Y-431.0
X303.0Y-128.5
X303.0Y-470.5
X317.5Y-268.5
X317.5Y-330.5
X351.0Y-168.0
X351.0Y-431.0
X384.5Y-268.5
X384.5Y-330.5
X399.0Y-128.5
X399.0Y-470.5
X488.0Y-168.0
X488.0Y-431.0
X577.0Y-128.5
X577.0Y-470.5
X621.0Y-168.0
X621.0Y-431.0
M30
