%TF.GenerationSoftware,KiCad,Pcbnew,9.0.5-1.fc42*%
%TF.CreationDate,2025-11-08T17:05:35+10:30*%
%TF.ProjectId,DivaConSlider,44697661-436f-46e5-936c-696465722e6b,1.0*%
%TF.SameCoordinates,Original*%
%TF.FileFunction,Soldermask,Top*%
%TF.FilePolarity,Negative*%
%FSLAX46Y46*%
G04 Gerber Fmt 4.6, Leading zero omitted, Abs format (unit mm)*
G04 Created by KiCad (PCBNEW 9.0.5-1.fc42) date 2025-11-08 17:05:35*
%MOMM*%
%LPD*%
G01*
G04 APERTURE LIST*
G04 Aperture macros list*
%AMRoundRect*
0 Rectangle with rounded corners*
0 $1 Rounding radius*
0 $2 $3 $4 $5 $6 $7 $8 $9 X,Y pos of 4 corners*
0 Add a 4 corners polygon primitive as box body*
4,1,4,$2,$3,$4,$5,$6,$7,$8,$9,$2,$3,0*
0 Add four circle primitives for the rounded corners*
1,1,$1+$1,$2,$3*
1,1,$1+$1,$4,$5*
1,1,$1+$1,$6,$7*
1,1,$1+$1,$8,$9*
0 Add four rect primitives between the rounded corners*
20,1,$1+$1,$2,$3,$4,$5,0*
20,1,$1+$1,$4,$5,$6,$7,0*
20,1,$1+$1,$6,$7,$8,$9,0*
20,1,$1+$1,$8,$9,$2,$3,0*%
%AMFreePoly0*
4,1,9,0.275000,-0.600000,-0.275000,-0.600000,-0.275000,-0.200000,-0.725000,-0.200000,-0.725000,0.350000,-0.275000,0.350000,-0.275000,0.600000,0.275000,0.600000,0.275000,-0.600000,0.275000,-0.600000,$1*%
%AMFreePoly1*
4,1,5,0.350000,-0.600000,-0.350000,-0.600000,-0.350000,0.600000,0.350000,0.600000,0.350000,-0.600000,0.350000,-0.600000,$1*%
%AMFreePoly2*
4,1,5,0.225000,-0.600000,-0.225000,-0.600000,-0.225000,0.600000,0.225000,0.600000,0.225000,-0.600000,0.225000,-0.600000,$1*%
%AMFreePoly3*
4,1,9,0.275000,0.350000,0.725000,0.350000,0.725000,-0.200000,0.275000,-0.200000,0.275000,-0.600000,-0.275000,-0.600000,-0.275000,0.600000,0.275000,0.600000,0.275000,0.350000,0.275000,0.350000,$1*%
G04 Aperture macros list end*
%ADD10RoundRect,0.225000X-0.225000X-0.250000X0.225000X-0.250000X0.225000X0.250000X-0.225000X0.250000X0*%
%ADD11C,0.800000*%
%ADD12C,6.400000*%
%ADD13FreePoly0,0.000000*%
%ADD14FreePoly1,0.000000*%
%ADD15FreePoly2,0.000000*%
%ADD16FreePoly3,0.000000*%
%ADD17R,1.700000X1.700000*%
%ADD18C,1.700000*%
%ADD19C,3.750000*%
%ADD20RoundRect,0.200000X0.275000X-0.200000X0.275000X0.200000X-0.275000X0.200000X-0.275000X-0.200000X0*%
%ADD21C,1.500000*%
G04 APERTURE END LIST*
D10*
%TO.C,C69*%
X498300000Y-159000000D03*
X499850000Y-159000000D03*
%TD*%
%TO.C,C14*%
X31300000Y-159000000D03*
X32850000Y-159000000D03*
%TD*%
D11*
%TO.C,H38*%
X248600000Y-131000000D03*
X249302944Y-129302944D03*
X249302944Y-132697056D03*
X251000000Y-128600000D03*
D12*
X251000000Y-131000000D03*
D11*
X251000000Y-133400000D03*
X252697056Y-129302944D03*
X252697056Y-132697056D03*
X253400000Y-131000000D03*
%TD*%
D10*
%TO.C,C37*%
X226300000Y-159000000D03*
X227850000Y-159000000D03*
%TD*%
%TO.C,C66*%
X473300000Y-159000000D03*
X474850000Y-159000000D03*
%TD*%
%TO.C,C65*%
X464300000Y-159000000D03*
X465850000Y-159000000D03*
%TD*%
%TO.C,C47*%
X311300000Y-159000000D03*
X312850000Y-159000000D03*
%TD*%
D13*
%TO.C,D17*%
X165925000Y-160500000D03*
D14*
X167050000Y-160500000D03*
D15*
X168075000Y-160500000D03*
D16*
X169075000Y-160500000D03*
%TD*%
D13*
%TO.C,D27*%
X250925000Y-160500000D03*
D14*
X252050000Y-160500000D03*
D15*
X253075000Y-160500000D03*
D16*
X254075000Y-160500000D03*
%TD*%
D13*
%TO.C,D28*%
X258925000Y-160500000D03*
D14*
X260050000Y-160500000D03*
D15*
X261075000Y-160500000D03*
D16*
X262075000Y-160500000D03*
%TD*%
D10*
%TO.C,C56*%
X388300000Y-159000000D03*
X389850000Y-159000000D03*
%TD*%
D13*
%TO.C,D52*%
X462925000Y-160500000D03*
D14*
X464050000Y-160500000D03*
D15*
X465075000Y-160500000D03*
D16*
X466075000Y-160500000D03*
%TD*%
D10*
%TO.C,C54*%
X371300000Y-159000000D03*
X372850000Y-159000000D03*
%TD*%
D13*
%TO.C,D4*%
X54925000Y-160500000D03*
D14*
X56050000Y-160500000D03*
D15*
X57075000Y-160500000D03*
D16*
X58075000Y-160500000D03*
%TD*%
D10*
%TO.C,C32*%
X184300000Y-159000000D03*
X185850000Y-159000000D03*
%TD*%
D13*
%TO.C,D42*%
X377925000Y-160500000D03*
D14*
X379050000Y-160500000D03*
D15*
X380075000Y-160500000D03*
D16*
X381075000Y-160500000D03*
%TD*%
D13*
%TO.C,D8*%
X88925000Y-160500000D03*
D14*
X90050000Y-160500000D03*
D15*
X91075000Y-160500000D03*
D16*
X92075000Y-160500000D03*
%TD*%
D10*
%TO.C,C48*%
X320300000Y-159000000D03*
X321850000Y-159000000D03*
%TD*%
D13*
%TO.C,D61*%
X539925000Y-160500000D03*
D14*
X541050000Y-160500000D03*
D15*
X542075000Y-160500000D03*
D16*
X543075000Y-160500000D03*
%TD*%
D13*
%TO.C,D29*%
X267925000Y-160500000D03*
D14*
X269050000Y-160500000D03*
D15*
X270075000Y-160500000D03*
D16*
X271075000Y-160500000D03*
%TD*%
D10*
%TO.C,C16*%
X48300000Y-159000000D03*
X49850000Y-159000000D03*
%TD*%
D13*
%TO.C,D45*%
X403925000Y-160500000D03*
D14*
X405050000Y-160500000D03*
D15*
X406075000Y-160500000D03*
D16*
X407075000Y-160500000D03*
%TD*%
D13*
%TO.C,D22*%
X207925000Y-160500000D03*
D14*
X209050000Y-160500000D03*
D15*
X210075000Y-160500000D03*
D16*
X211075000Y-160500000D03*
%TD*%
D10*
%TO.C,C29*%
X158300000Y-159000000D03*
X159850000Y-159000000D03*
%TD*%
D13*
%TO.C,D20*%
X190925000Y-160500000D03*
D14*
X192050000Y-160500000D03*
D15*
X193075000Y-160500000D03*
D16*
X194075000Y-160500000D03*
%TD*%
D10*
%TO.C,C70*%
X507300000Y-159000000D03*
X508850000Y-159000000D03*
%TD*%
%TO.C,C20*%
X82300000Y-159000000D03*
X83850000Y-159000000D03*
%TD*%
%TO.C,C64*%
X456300000Y-159000000D03*
X457850000Y-159000000D03*
%TD*%
D12*
%TO.C,H41*%
X29000000Y-170500000D03*
%TD*%
D13*
%TO.C,D35*%
X318925000Y-160500000D03*
D14*
X320050000Y-160500000D03*
D15*
X321075000Y-160500000D03*
D16*
X322075000Y-160500000D03*
%TD*%
D13*
%TO.C,D60*%
X530925000Y-160500000D03*
D14*
X532050000Y-160500000D03*
D15*
X533075000Y-160500000D03*
D16*
X534075000Y-160500000D03*
%TD*%
D13*
%TO.C,D32*%
X292925000Y-160500000D03*
D14*
X294050000Y-160500000D03*
D15*
X295075000Y-160500000D03*
D16*
X296075000Y-160500000D03*
%TD*%
D10*
%TO.C,C77*%
X566300000Y-159000000D03*
X567850000Y-159000000D03*
%TD*%
%TO.C,C31*%
X175300000Y-159000000D03*
X176850000Y-159000000D03*
%TD*%
%TO.C,C43*%
X277300000Y-159000000D03*
X278850000Y-159000000D03*
%TD*%
D13*
%TO.C,D59*%
X522925000Y-160500000D03*
D14*
X524050000Y-160500000D03*
D15*
X525075000Y-160500000D03*
D16*
X526075000Y-160500000D03*
%TD*%
D13*
%TO.C,D30*%
X275925000Y-160500000D03*
D14*
X277050000Y-160500000D03*
D15*
X278075000Y-160500000D03*
D16*
X279075000Y-160500000D03*
%TD*%
D17*
%TO.C,J1*%
X158190000Y-129540000D03*
D18*
X160730000Y-129540000D03*
X163270000Y-129540000D03*
X165810000Y-129540000D03*
D19*
X150350000Y-130100000D03*
X150350000Y-153900000D03*
X173650000Y-130100000D03*
X173650000Y-153900000D03*
%TD*%
D13*
%TO.C,D36*%
X326925000Y-160500000D03*
D14*
X328050000Y-160500000D03*
D15*
X329075000Y-160500000D03*
D16*
X330075000Y-160500000D03*
%TD*%
D13*
%TO.C,D9*%
X97925000Y-160500000D03*
D14*
X99050000Y-160500000D03*
D15*
X100075000Y-160500000D03*
D16*
X101075000Y-160500000D03*
%TD*%
D13*
%TO.C,D64*%
X564925000Y-160500000D03*
D14*
X566050000Y-160500000D03*
D15*
X567075000Y-160500000D03*
D16*
X568075000Y-160500000D03*
%TD*%
D10*
%TO.C,C36*%
X218300000Y-159000000D03*
X219850000Y-159000000D03*
%TD*%
D20*
%TO.C,R18*%
X570500000Y-161075000D03*
X570500000Y-159425000D03*
%TD*%
D13*
%TO.C,D51*%
X454925000Y-160500000D03*
D14*
X456050000Y-160500000D03*
D15*
X457075000Y-160500000D03*
D16*
X458075000Y-160500000D03*
%TD*%
D10*
%TO.C,C27*%
X141300000Y-159000000D03*
X142850000Y-159000000D03*
%TD*%
%TO.C,C39*%
X243300000Y-159000000D03*
X244850000Y-159000000D03*
%TD*%
D13*
%TO.C,D56*%
X496925000Y-160500000D03*
D14*
X498050000Y-160500000D03*
D15*
X499075000Y-160500000D03*
D16*
X500075000Y-160500000D03*
%TD*%
D13*
%TO.C,D49*%
X437925000Y-160500000D03*
D14*
X439050000Y-160500000D03*
D15*
X440075000Y-160500000D03*
D16*
X441075000Y-160500000D03*
%TD*%
D10*
%TO.C,C50*%
X337300000Y-159000000D03*
X338850000Y-159000000D03*
%TD*%
D13*
%TO.C,D41*%
X369925000Y-160500000D03*
D14*
X371050000Y-160500000D03*
D15*
X372075000Y-160500000D03*
D16*
X373075000Y-160500000D03*
%TD*%
D13*
%TO.C,D31*%
X284925000Y-160500000D03*
D14*
X286050000Y-160500000D03*
D15*
X287075000Y-160500000D03*
D16*
X288075000Y-160500000D03*
%TD*%
D10*
%TO.C,C55*%
X379300000Y-159000000D03*
X380850000Y-159000000D03*
%TD*%
D13*
%TO.C,D19*%
X182925000Y-160500000D03*
D14*
X184050000Y-160500000D03*
D15*
X185075000Y-160500000D03*
D16*
X186075000Y-160500000D03*
%TD*%
D10*
%TO.C,C75*%
X549300000Y-159000000D03*
X550850000Y-159000000D03*
%TD*%
D13*
%TO.C,D57*%
X505925000Y-160500000D03*
D14*
X507050000Y-160500000D03*
D15*
X508075000Y-160500000D03*
D16*
X509075000Y-160500000D03*
%TD*%
D13*
%TO.C,D33*%
X301925000Y-160500000D03*
D14*
X303050000Y-160500000D03*
D15*
X304075000Y-160500000D03*
D16*
X305075000Y-160500000D03*
%TD*%
D13*
%TO.C,D38*%
X343925000Y-160500000D03*
D14*
X345050000Y-160500000D03*
D15*
X346075000Y-160500000D03*
D16*
X347075000Y-160500000D03*
%TD*%
D13*
%TO.C,D40*%
X360925000Y-160500000D03*
D14*
X362050000Y-160500000D03*
D15*
X363075000Y-160500000D03*
D16*
X364075000Y-160500000D03*
%TD*%
D10*
%TO.C,C62*%
X439300000Y-159000000D03*
X440850000Y-159000000D03*
%TD*%
D13*
%TO.C,D23*%
X216925000Y-160500000D03*
D14*
X218050000Y-160500000D03*
D15*
X219075000Y-160500000D03*
D16*
X220075000Y-160500000D03*
%TD*%
D10*
%TO.C,C61*%
X430300000Y-159000000D03*
X431850000Y-159000000D03*
%TD*%
D13*
%TO.C,D3*%
X46925000Y-160500000D03*
D14*
X48050000Y-160500000D03*
D15*
X49075000Y-160500000D03*
D16*
X50075000Y-160500000D03*
%TD*%
D13*
%TO.C,D21*%
X199925000Y-160500000D03*
D14*
X201050000Y-160500000D03*
D15*
X202075000Y-160500000D03*
D16*
X203075000Y-160500000D03*
%TD*%
D13*
%TO.C,D39*%
X352925000Y-160500000D03*
D14*
X354050000Y-160500000D03*
D15*
X355075000Y-160500000D03*
D16*
X356075000Y-160500000D03*
%TD*%
D21*
%TO.C,FID4*%
X571750000Y-222750000D03*
%TD*%
D10*
%TO.C,C23*%
X107300000Y-159000000D03*
X108850000Y-159000000D03*
%TD*%
D12*
%TO.C,H45*%
X569000000Y-170500000D03*
%TD*%
D13*
%TO.C,D46*%
X411925000Y-160500000D03*
D14*
X413050000Y-160500000D03*
D15*
X414075000Y-160500000D03*
D16*
X415075000Y-160500000D03*
%TD*%
D10*
%TO.C,C63*%
X447300000Y-159000000D03*
X448850000Y-159000000D03*
%TD*%
D13*
%TO.C,D34*%
X309925000Y-160500000D03*
D14*
X311050000Y-160500000D03*
D15*
X312075000Y-160500000D03*
D16*
X313075000Y-160500000D03*
%TD*%
D10*
%TO.C,C21*%
X90300000Y-159000000D03*
X91850000Y-159000000D03*
%TD*%
D11*
%TO.C,H39*%
X344600000Y-131000000D03*
X345302944Y-129302944D03*
X345302944Y-132697056D03*
X347000000Y-128600000D03*
D12*
X347000000Y-131000000D03*
D11*
X347000000Y-133400000D03*
X348697056Y-129302944D03*
X348697056Y-132697056D03*
X349400000Y-131000000D03*
%TD*%
D10*
%TO.C,C72*%
X524300000Y-159000000D03*
X525850000Y-159000000D03*
%TD*%
D13*
%TO.C,D14*%
X139925000Y-160500000D03*
D14*
X141050000Y-160500000D03*
D15*
X142075000Y-160500000D03*
D16*
X143075000Y-160500000D03*
%TD*%
D10*
%TO.C,C74*%
X541300000Y-159000000D03*
X542850000Y-159000000D03*
%TD*%
D13*
%TO.C,D43*%
X386925000Y-160500000D03*
D14*
X388050000Y-160500000D03*
D15*
X389075000Y-160500000D03*
D16*
X390075000Y-160500000D03*
%TD*%
D13*
%TO.C,D7*%
X80925000Y-160500000D03*
D14*
X82050000Y-160500000D03*
D15*
X83075000Y-160500000D03*
D16*
X84075000Y-160500000D03*
%TD*%
D10*
%TO.C,C24*%
X116300000Y-159000000D03*
X117850000Y-159000000D03*
%TD*%
D13*
%TO.C,D55*%
X488925000Y-160500000D03*
D14*
X490050000Y-160500000D03*
D15*
X491075000Y-160500000D03*
D16*
X492075000Y-160500000D03*
%TD*%
D10*
%TO.C,C42*%
X269300000Y-159000000D03*
X270850000Y-159000000D03*
%TD*%
D12*
%TO.C,H43*%
X299000000Y-170500000D03*
%TD*%
D10*
%TO.C,C52*%
X354300000Y-159000000D03*
X355850000Y-159000000D03*
%TD*%
%TO.C,C76*%
X558300000Y-159000000D03*
X559850000Y-159000000D03*
%TD*%
D13*
%TO.C,D25*%
X233925000Y-160500000D03*
D14*
X235050000Y-160500000D03*
D15*
X236075000Y-160500000D03*
D16*
X237075000Y-160500000D03*
%TD*%
D10*
%TO.C,C46*%
X303300000Y-159000000D03*
X304850000Y-159000000D03*
%TD*%
D13*
%TO.C,D13*%
X131925000Y-160500000D03*
D14*
X133050000Y-160500000D03*
D15*
X134075000Y-160500000D03*
D16*
X135075000Y-160500000D03*
%TD*%
D12*
%TO.C,H42*%
X162000000Y-170500000D03*
%TD*%
D13*
%TO.C,D1*%
X29925000Y-160500000D03*
D14*
X31050000Y-160500000D03*
D15*
X32075000Y-160500000D03*
D16*
X33075000Y-160500000D03*
%TD*%
D13*
%TO.C,D26*%
X241925000Y-160500000D03*
D14*
X243050000Y-160500000D03*
D15*
X244075000Y-160500000D03*
D16*
X245075000Y-160500000D03*
%TD*%
D10*
%TO.C,C17*%
X56300000Y-159000000D03*
X57850000Y-159000000D03*
%TD*%
%TO.C,C60*%
X422300000Y-159000000D03*
X423850000Y-159000000D03*
%TD*%
D13*
%TO.C,D48*%
X428925000Y-160500000D03*
D14*
X430050000Y-160500000D03*
D15*
X431075000Y-160500000D03*
D16*
X432075000Y-160500000D03*
%TD*%
D13*
%TO.C,D44*%
X394925000Y-160500000D03*
D14*
X396050000Y-160500000D03*
D15*
X397075000Y-160500000D03*
D16*
X398075000Y-160500000D03*
%TD*%
D21*
%TO.C,FID3*%
X26500000Y-158500000D03*
%TD*%
D11*
%TO.C,H37*%
X70600000Y-131000000D03*
X71302944Y-129302944D03*
X71302944Y-132697056D03*
X73000000Y-128600000D03*
D12*
X73000000Y-131000000D03*
D11*
X73000000Y-133400000D03*
X74697056Y-129302944D03*
X74697056Y-132697056D03*
X75400000Y-131000000D03*
%TD*%
D10*
%TO.C,C73*%
X532300000Y-159000000D03*
X533850000Y-159000000D03*
%TD*%
%TO.C,C67*%
X481300000Y-159000000D03*
X482850000Y-159000000D03*
%TD*%
D13*
%TO.C,D10*%
X105925000Y-160500000D03*
D14*
X107050000Y-160500000D03*
D15*
X108075000Y-160500000D03*
D16*
X109075000Y-160500000D03*
%TD*%
D10*
%TO.C,C41*%
X260300000Y-159000000D03*
X261850000Y-159000000D03*
%TD*%
D13*
%TO.C,D24*%
X224925000Y-160500000D03*
D14*
X226050000Y-160500000D03*
D15*
X227075000Y-160500000D03*
D16*
X228075000Y-160500000D03*
%TD*%
D10*
%TO.C,C28*%
X150300000Y-159000000D03*
X151850000Y-159000000D03*
%TD*%
D13*
%TO.C,D11*%
X114925000Y-160500000D03*
D14*
X116050000Y-160500000D03*
D15*
X117075000Y-160500000D03*
D16*
X118075000Y-160500000D03*
%TD*%
D10*
%TO.C,C22*%
X99300000Y-159000000D03*
X100850000Y-159000000D03*
%TD*%
D13*
%TO.C,D16*%
X156925000Y-160500000D03*
D14*
X158050000Y-160500000D03*
D15*
X159075000Y-160500000D03*
D16*
X160075000Y-160500000D03*
%TD*%
D10*
%TO.C,C45*%
X294300000Y-159000000D03*
X295850000Y-159000000D03*
%TD*%
%TO.C,C30*%
X167300000Y-159000000D03*
X168850000Y-159000000D03*
%TD*%
D13*
%TO.C,D62*%
X547925000Y-160500000D03*
D14*
X549050000Y-160500000D03*
D15*
X550075000Y-160500000D03*
D16*
X551075000Y-160500000D03*
%TD*%
D13*
%TO.C,D54*%
X479925000Y-160500000D03*
D14*
X481050000Y-160500000D03*
D15*
X482075000Y-160500000D03*
D16*
X483075000Y-160500000D03*
%TD*%
D10*
%TO.C,C34*%
X201300000Y-159000000D03*
X202850000Y-159000000D03*
%TD*%
%TO.C,C25*%
X124300000Y-159000000D03*
X125850000Y-159000000D03*
%TD*%
D13*
%TO.C,D15*%
X148925000Y-160500000D03*
D14*
X150050000Y-160500000D03*
D15*
X151075000Y-160500000D03*
D16*
X152075000Y-160500000D03*
%TD*%
D13*
%TO.C,D37*%
X335925000Y-160500000D03*
D14*
X337050000Y-160500000D03*
D15*
X338075000Y-160500000D03*
D16*
X339075000Y-160500000D03*
%TD*%
D11*
%TO.C,H40*%
X522600000Y-131000000D03*
X523302944Y-129302944D03*
X523302944Y-132697056D03*
X525000000Y-128600000D03*
D12*
X525000000Y-131000000D03*
D11*
X525000000Y-133400000D03*
X526697056Y-129302944D03*
X526697056Y-132697056D03*
X527400000Y-131000000D03*
%TD*%
D10*
%TO.C,C57*%
X396300000Y-159000000D03*
X397850000Y-159000000D03*
%TD*%
D13*
%TO.C,D50*%
X445925000Y-160500000D03*
D14*
X447050000Y-160500000D03*
D15*
X448075000Y-160500000D03*
D16*
X449075000Y-160500000D03*
%TD*%
D10*
%TO.C,C35*%
X209300000Y-159000000D03*
X210850000Y-159000000D03*
%TD*%
%TO.C,C71*%
X515300000Y-159000000D03*
X516850000Y-159000000D03*
%TD*%
%TO.C,C26*%
X133300000Y-159000000D03*
X134850000Y-159000000D03*
%TD*%
%TO.C,C18*%
X65300000Y-159000000D03*
X66850000Y-159000000D03*
%TD*%
D13*
%TO.C,D12*%
X122925000Y-160500000D03*
D14*
X124050000Y-160500000D03*
D15*
X125075000Y-160500000D03*
D16*
X126075000Y-160500000D03*
%TD*%
D10*
%TO.C,C38*%
X235300000Y-159000000D03*
X236850000Y-159000000D03*
%TD*%
D13*
%TO.C,D6*%
X71925000Y-160500000D03*
D14*
X73050000Y-160500000D03*
D15*
X74075000Y-160500000D03*
D16*
X75075000Y-160500000D03*
%TD*%
D13*
%TO.C,D5*%
X63925000Y-160500000D03*
D14*
X65050000Y-160500000D03*
D15*
X66075000Y-160500000D03*
D16*
X67075000Y-160500000D03*
%TD*%
D10*
%TO.C,C49*%
X328300000Y-159000000D03*
X329850000Y-159000000D03*
%TD*%
D13*
%TO.C,D2*%
X37925000Y-160500000D03*
D14*
X39050000Y-160500000D03*
D15*
X40075000Y-160500000D03*
D16*
X41075000Y-160500000D03*
%TD*%
D10*
%TO.C,C19*%
X73300000Y-159000000D03*
X74850000Y-159000000D03*
%TD*%
D13*
%TO.C,D63*%
X556925000Y-160500000D03*
D14*
X558050000Y-160500000D03*
D15*
X559075000Y-160500000D03*
D16*
X560075000Y-160500000D03*
%TD*%
D12*
%TO.C,H44*%
X436000000Y-170500000D03*
%TD*%
D10*
%TO.C,C53*%
X362300000Y-159000000D03*
X363850000Y-159000000D03*
%TD*%
%TO.C,C33*%
X192300000Y-159000000D03*
X193850000Y-159000000D03*
%TD*%
D13*
%TO.C,D47*%
X420925000Y-160500000D03*
D14*
X422050000Y-160500000D03*
D15*
X423075000Y-160500000D03*
D16*
X424075000Y-160500000D03*
%TD*%
D13*
%TO.C,D18*%
X173925000Y-160500000D03*
D14*
X175050000Y-160500000D03*
D15*
X176075000Y-160500000D03*
D16*
X177075000Y-160500000D03*
%TD*%
D10*
%TO.C,C44*%
X286300000Y-159000000D03*
X287850000Y-159000000D03*
%TD*%
%TO.C,C15*%
X39300000Y-159000000D03*
X40850000Y-159000000D03*
%TD*%
%TO.C,C51*%
X345300000Y-159000000D03*
X346850000Y-159000000D03*
%TD*%
D13*
%TO.C,D53*%
X471925000Y-160500000D03*
D14*
X473050000Y-160500000D03*
D15*
X474075000Y-160500000D03*
D16*
X475075000Y-160500000D03*
%TD*%
D10*
%TO.C,C59*%
X413300000Y-159000000D03*
X414850000Y-159000000D03*
%TD*%
%TO.C,C40*%
X252300000Y-159000000D03*
X253850000Y-159000000D03*
%TD*%
%TO.C,C58*%
X405300000Y-159000000D03*
X406850000Y-159000000D03*
%TD*%
%TO.C,C68*%
X490300000Y-159000000D03*
X491850000Y-159000000D03*
%TD*%
D13*
%TO.C,D58*%
X513925000Y-160500000D03*
D14*
X515050000Y-160500000D03*
D15*
X516075000Y-160500000D03*
D16*
X517075000Y-160500000D03*
%TD*%
G36*
X246943039Y-128169685D02*
G01*
X246988794Y-128222489D01*
X247000000Y-128274000D01*
X247000000Y-131026000D01*
X246980315Y-131093039D01*
X246927511Y-131138794D01*
X246876000Y-131150000D01*
X241124000Y-131150000D01*
X241056961Y-131130315D01*
X241011206Y-131077511D01*
X241000000Y-131026000D01*
X241000000Y-128274000D01*
X241019685Y-128206961D01*
X241072489Y-128161206D01*
X241124000Y-128150000D01*
X246876000Y-128150000D01*
X246943039Y-128169685D01*
G37*
M02*
