M48
; DRILL file {KiCad 9.0.5-1.fc42} date 2025-11-09T01:11:05+1030
; FORMAT={-:-/ absolute / metric / decimal}
; #@! TF.CreationDate,2025-11-09T01:11:05+10:30
; #@! TF.GenerationSoftware,Kicad,Pcbnew,9.0.5-1.fc42
; #@! TF.FileFunction,Plated,1,2,PTH
FMAT,2
METRIC
; #@! TA.AperFunction,Plated,PTH,ViaDrill
T1C0.300
; #@! TA.AperFunction,Plated,PTH,ComponentDrill
T2C0.500
; #@! TA.AperFunction,Plated,PTH,ComponentDrill
T3C1.000
; #@! TA.AperFunction,Plated,PTH,ComponentDrill
T4C2.500
; #@! TA.AperFunction,Plated,PTH,ComponentDrill
T5C3.200
%
G90
G05
T1
X26.0Y-160.5
X26.0Y-163.5
X29.0Y-163.5
X29.925Y-162.75
X30.0Y-159.0
X31.0Y-162.0
X32.0Y-163.5
X33.75Y-159.0
X34.5Y-161.25
X35.0Y-163.5
X37.0Y-159.0
X37.0Y-161.25
X38.0Y-163.5
X39.0Y-162.0
X41.0Y-163.5
X41.75Y-159.0
X42.001Y-179.999
X42.5Y-161.25
X44.0Y-163.5
X46.0Y-159.0
X46.0Y-161.25
X47.0Y-163.5
X48.0Y-162.0
X50.0Y-163.5
X50.75Y-159.0
X51.5Y-161.25
X53.0Y-163.5
X54.0Y-159.0
X54.0Y-161.25
X56.0Y-162.0
X56.0Y-163.5
X58.75Y-159.0
X59.0Y-163.5
X59.001Y-179.999
X59.75Y-161.25
X60.0Y-156.8
X60.0Y-159.0
X62.0Y-163.5
X63.0Y-155.5
X63.0Y-159.0
X63.0Y-161.25
X64.25Y-157.5
X64.75Y-156.0
X65.0Y-162.0
X65.0Y-163.5
X65.6Y-152.8
X66.054Y-158.0
X66.75Y-154.0
X67.5Y-151.0
X68.0Y-156.0
X68.75Y-152.0
X69.6Y-148.6
X69.75Y-154.25
X71.0Y-136.0
X71.0Y-139.0
X71.0Y-142.03
X71.0Y-145.0
X71.0Y-150.0
X72.75Y-152.2
X74.0Y-136.0
X74.0Y-145.0
X74.0Y-148.0
X74.0Y-150.0
X74.75Y-141.25
X74.85Y-152.2
X76.001Y-179.999
X77.0Y-142.0
X77.0Y-145.0
X77.0Y-148.0
X77.0Y-150.0
X77.0Y-152.2
X77.5Y-136.0
X77.5Y-137.75
X78.0Y-128.0
X78.0Y-129.0
X78.0Y-130.0
X78.0Y-131.0
X78.0Y-132.0
X78.0Y-133.0
X78.4Y-139.0
X79.0Y-128.0
X79.0Y-133.0
X79.25Y-149.0
X79.25Y-150.0
X79.25Y-151.0
X80.0Y-128.0
X80.0Y-133.0
X80.0Y-152.2
X80.25Y-149.0
X80.25Y-150.0
X80.25Y-151.0
X81.0Y-128.0
X81.0Y-129.0
X81.0Y-130.0
X81.0Y-131.0
X81.0Y-132.0
X81.0Y-133.0
X81.25Y-138.0
X81.25Y-140.5
X81.25Y-141.5
X82.0Y-145.0
X82.0Y-148.0
X82.0Y-150.0
X82.5Y-141.5
X83.0Y-129.0
X83.0Y-136.0
X83.5Y-152.2
X84.0Y-141.5
X85.0Y-128.0
X85.0Y-129.0
X85.0Y-136.0
X85.0Y-137.0
X85.0Y-145.0
X85.0Y-148.0
X85.0Y-150.0
X85.25Y-140.5
X85.25Y-141.5
X86.0Y-128.0
X86.0Y-129.0
X86.0Y-136.0
X86.0Y-137.0
X86.0Y-152.2
X86.5Y-141.5
X87.0Y-128.0
X87.0Y-129.0
X87.0Y-136.0
X87.0Y-137.0
X88.0Y-141.5
X88.0Y-145.0
X88.0Y-150.0
X89.0Y-136.0
X89.0Y-138.0
X89.0Y-152.2
X89.5Y-143.5
X90.0Y-136.0
X90.0Y-142.5
X90.242Y-146.5
X90.7Y-152.2
X91.0Y-129.0
X91.0Y-136.0
X91.0Y-138.0
X91.0Y-142.0
X91.5Y-150.25
X92.0Y-138.0
X92.0Y-142.5
X92.0Y-146.5
X92.575Y-149.825
X92.8Y-149.042
X93.0Y-136.0
X93.0Y-138.0
X93.0Y-142.0
X93.0Y-145.0
X93.001Y-179.999
X94.0Y-129.0
X94.0Y-142.5
X94.996Y-142.0
X95.0Y-136.0
X95.0Y-138.0
X95.0Y-149.5
X95.0Y-151.75
X95.0Y-152.75
X95.5Y-145.5
X96.0Y-142.5
X96.999Y-179.999
X97.0Y-129.0
X97.0Y-130.0
X97.0Y-131.0
X97.0Y-132.0
X97.0Y-133.0
X97.0Y-149.0
X97.5Y-151.75
X97.5Y-152.75
X97.996Y-142.0
X98.0Y-133.0
X98.0Y-136.0
X98.0Y-139.0
X98.0Y-145.0
X99.0Y-133.0
X99.0Y-147.0
X99.0Y-152.2
X100.0Y-129.0
X100.0Y-130.0
X100.0Y-131.0
X100.0Y-132.0
X100.0Y-133.0
X100.5Y-152.2
X100.996Y-142.0
X101.0Y-136.0
X101.0Y-139.0
X101.0Y-145.0
X101.0Y-149.0
X103.996Y-142.0
X104.0Y-130.0
X104.0Y-133.0
X104.0Y-136.0
X104.0Y-139.0
X104.0Y-145.0
X104.0Y-152.2
X106.996Y-142.0
X107.0Y-130.0
X107.0Y-133.0
X107.0Y-136.0
X107.0Y-139.0
X107.0Y-145.0
X107.0Y-149.0
X107.0Y-152.2
X108.5Y-152.2
X109.996Y-142.0
X110.0Y-130.0
X110.0Y-133.0
X110.0Y-136.0
X110.0Y-139.0
X110.0Y-145.0
X110.0Y-149.0
X110.0Y-152.2
X112.996Y-142.0
X113.0Y-130.0
X113.0Y-133.0
X113.0Y-136.0
X113.0Y-139.0
X113.0Y-145.0
X113.0Y-149.0
X113.0Y-152.2
X113.999Y-179.999
X115.996Y-142.0
X116.0Y-130.0
X116.0Y-133.0
X116.0Y-136.0
X116.0Y-139.0
X116.0Y-145.0
X116.0Y-149.0
X116.2Y-152.2
X118.996Y-142.0
X119.0Y-130.0
X119.0Y-133.0
X119.0Y-136.0
X119.0Y-139.0
X119.0Y-145.0
X119.0Y-149.0
X119.0Y-152.5
X120.5Y-154.0
X121.996Y-142.0
X122.0Y-130.0
X122.0Y-133.0
X122.0Y-136.0
X122.0Y-139.0
X122.0Y-145.0
X122.0Y-149.0
X122.0Y-152.0
X122.0Y-155.5
X123.5Y-158.0
X124.0Y-161.75
X124.996Y-142.0
X125.0Y-130.0
X125.0Y-133.0
X125.0Y-136.0
X125.0Y-139.0
X125.0Y-145.0
X125.0Y-149.0
X125.0Y-152.0
X125.0Y-155.0
X125.0Y-163.5
X125.5Y-158.0
X127.5Y-161.25
X127.996Y-142.0
X128.0Y-130.0
X128.0Y-133.0
X128.0Y-136.0
X128.0Y-139.0
X128.0Y-145.0
X128.0Y-149.0
X128.0Y-152.0
X128.0Y-155.0
X128.0Y-158.0
X128.0Y-163.5
X130.996Y-142.0
X130.999Y-179.999
X131.0Y-130.0
X131.0Y-133.0
X131.0Y-136.0
X131.0Y-139.0
X131.0Y-145.0
X131.0Y-149.0
X131.0Y-152.0
X131.0Y-155.0
X131.0Y-158.0
X131.0Y-161.25
X131.0Y-163.5
X133.0Y-161.75
X133.996Y-142.0
X134.0Y-130.0
X134.0Y-133.0
X134.0Y-136.0
X134.0Y-139.0
X134.0Y-145.0
X134.0Y-149.0
X134.0Y-152.0
X134.0Y-155.0
X134.5Y-158.0
X134.5Y-163.5
X136.5Y-161.25
X136.996Y-142.0
X137.0Y-130.0
X137.0Y-133.0
X137.0Y-136.0
X137.0Y-139.0
X137.0Y-145.0
X137.0Y-149.0
X137.0Y-152.0
X137.0Y-155.0
X137.0Y-158.0
X137.0Y-163.5
X139.0Y-161.25
X139.996Y-142.0
X140.0Y-130.0
X140.0Y-133.0
X140.0Y-136.0
X140.0Y-139.0
X140.0Y-145.0
X140.0Y-149.0
X140.0Y-152.0
X140.0Y-155.0
X140.0Y-158.0
X140.0Y-163.5
X141.0Y-161.75
X142.5Y-158.0
X142.996Y-142.0
X143.0Y-130.0
X143.0Y-133.0
X143.0Y-136.0
X143.0Y-139.0
X143.0Y-145.0
X143.0Y-149.0
X143.0Y-152.0
X143.0Y-155.0
X143.0Y-163.5
X144.5Y-161.25
X145.996Y-142.0
X146.0Y-130.0
X146.0Y-133.0
X146.0Y-136.0
X146.0Y-139.0
X146.0Y-145.0
X146.0Y-149.0
X146.0Y-152.0
X146.0Y-155.0
X146.0Y-158.0
X146.0Y-163.5
X147.999Y-179.999
X148.0Y-161.25
X148.996Y-142.0
X149.0Y-133.0
X149.0Y-136.0
X149.0Y-139.0
X149.0Y-145.0
X149.0Y-149.0
X149.0Y-158.0
X149.0Y-163.5
X150.0Y-161.75
X151.5Y-158.0
X151.996Y-142.0
X152.0Y-133.0
X152.0Y-136.0
X152.0Y-139.0
X152.0Y-145.0
X152.0Y-149.0
X152.0Y-163.5
X153.5Y-161.25
X154.996Y-142.0
X155.0Y-130.0
X155.0Y-133.0
X155.0Y-136.0
X155.0Y-139.0
X155.0Y-145.0
X155.0Y-149.0
X155.0Y-152.0
X155.0Y-155.0
X155.0Y-158.0
X155.0Y-163.5
X156.0Y-161.25
X157.996Y-142.0
X158.0Y-136.0
X158.0Y-139.0
X158.0Y-145.0
X158.0Y-149.0
X158.0Y-152.0
X158.0Y-155.0
X158.0Y-161.75
X158.0Y-163.5
X158.19Y-131.86
X159.5Y-158.0
X160.996Y-142.0
X161.0Y-136.0
X161.0Y-139.0
X161.0Y-145.0
X161.0Y-149.0
X161.0Y-152.0
X161.0Y-155.0
X161.0Y-158.0
X161.0Y-163.5
X161.5Y-161.25
X162.0Y-131.0
X162.0Y-134.0
X162.0Y-143.0
X162.0Y-144.0
X164.0Y-145.0
X164.0Y-149.0
X164.0Y-152.0
X164.0Y-155.0
X164.0Y-158.0
X164.0Y-163.5
X164.5Y-130.5
X165.0Y-161.25
X165.9Y-134.0
X166.0Y-136.0
X166.5Y-131.0
X167.0Y-142.0
X167.0Y-145.0
X167.0Y-149.0
X167.0Y-152.0
X167.0Y-155.0
X167.0Y-161.75
X167.0Y-163.5
X168.5Y-158.0
X170.0Y-130.0
X170.0Y-133.0
X170.0Y-136.0
X170.0Y-139.0
X170.0Y-142.0
X170.0Y-145.0
X170.0Y-149.0
X170.0Y-152.0
X170.0Y-155.0
X170.0Y-158.0
X170.0Y-163.5
X170.5Y-161.25
X173.0Y-133.0
X173.0Y-136.0
X173.0Y-139.0
X173.0Y-142.0
X173.0Y-145.0
X173.0Y-149.0
X173.0Y-158.0
X173.0Y-161.25
X173.0Y-163.5
X175.0Y-161.75
X176.0Y-133.0
X176.0Y-136.0
X176.0Y-139.0
X176.0Y-142.0
X176.0Y-145.0
X176.0Y-149.0
X176.0Y-163.5
X176.5Y-158.0
X178.002Y-179.999
X178.5Y-161.25
X179.0Y-130.0
X179.0Y-133.0
X179.0Y-136.0
X179.0Y-139.0
X179.0Y-142.0
X179.0Y-145.0
X179.0Y-149.0
X179.0Y-152.0
X179.0Y-155.0
X179.0Y-158.0
X179.0Y-163.5
X182.0Y-130.0
X182.0Y-133.0
X182.0Y-136.0
X182.0Y-139.0
X182.0Y-142.0
X182.0Y-145.0
X182.0Y-149.0
X182.0Y-152.0
X182.0Y-155.0
X182.0Y-158.0
X182.0Y-161.25
X182.0Y-163.5
X184.0Y-161.75
X185.0Y-130.0
X185.0Y-133.0
X185.0Y-136.0
X185.0Y-139.0
X185.0Y-142.0
X185.0Y-145.0
X185.0Y-149.0
X185.0Y-152.0
X185.0Y-155.0
X185.0Y-163.5
X185.5Y-158.0
X187.5Y-161.25
X188.0Y-130.0
X188.0Y-133.0
X188.0Y-136.0
X188.0Y-139.0
X188.0Y-142.0
X188.0Y-145.0
X188.0Y-149.0
X188.0Y-152.0
X188.0Y-155.0
X188.0Y-158.0
X188.0Y-163.5
X190.0Y-161.25
X191.0Y-130.0
X191.0Y-133.0
X191.0Y-136.0
X191.0Y-139.0
X191.0Y-142.0
X191.0Y-145.0
X191.0Y-149.0
X191.0Y-152.0
X191.0Y-155.0
X191.0Y-158.0
X191.0Y-163.5
X192.0Y-161.75
X193.5Y-158.0
X194.0Y-130.0
X194.0Y-133.0
X194.0Y-136.0
X194.0Y-139.0
X194.0Y-142.0
X194.0Y-145.0
X194.0Y-149.0
X194.0Y-152.0
X194.0Y-155.0
X194.0Y-163.5
X195.002Y-179.999
X195.5Y-161.25
X197.0Y-130.0
X197.0Y-133.0
X197.0Y-136.0
X197.0Y-139.0
X197.0Y-142.0
X197.0Y-145.0
X197.0Y-149.0
X197.0Y-152.0
X197.0Y-155.0
X197.0Y-158.0
X197.0Y-163.5
X199.0Y-161.25
X200.0Y-130.0
X200.0Y-133.0
X200.0Y-136.0
X200.0Y-139.0
X200.0Y-142.0
X200.0Y-145.0
X200.0Y-149.0
X200.0Y-152.0
X200.0Y-155.0
X200.0Y-158.0
X200.0Y-163.5
X201.0Y-161.75
X202.5Y-158.0
X203.0Y-130.0
X203.0Y-133.0
X203.0Y-136.0
X203.0Y-139.0
X203.0Y-142.0
X203.0Y-145.0
X203.0Y-149.0
X203.0Y-152.0
X203.25Y-155.0
X206.0Y-130.0
X206.0Y-133.0
X206.0Y-136.0
X206.0Y-139.0
X206.0Y-142.0
X206.0Y-145.0
X206.0Y-149.0
X206.0Y-152.25
X209.0Y-130.0
X209.0Y-133.0
X209.0Y-136.0
X209.0Y-139.0
X209.0Y-142.0
X209.0Y-145.0
X209.0Y-149.0
X210.5Y-152.2
X212.0Y-130.0
X212.0Y-133.0
X212.0Y-136.0
X212.0Y-139.0
X212.0Y-142.0
X212.0Y-145.0
X212.0Y-149.0
X212.0Y-152.2
X212.002Y-179.999
X215.0Y-130.0
X215.0Y-133.0
X215.0Y-136.0
X215.0Y-139.0
X215.0Y-142.0
X215.0Y-145.0
X215.0Y-149.0
X215.0Y-152.2
X218.0Y-130.0
X218.0Y-133.0
X218.0Y-136.0
X218.0Y-139.0
X218.0Y-142.0
X218.0Y-145.0
X218.0Y-149.0
X218.0Y-152.2
X219.5Y-152.2
X221.0Y-130.0
X221.0Y-133.0
X221.0Y-136.0
X221.0Y-139.0
X221.0Y-142.0
X221.0Y-145.0
X221.0Y-149.0
X221.5Y-147.25
X221.5Y-148.25
X222.5Y-152.2
X224.0Y-130.0
X224.0Y-133.0
X224.0Y-136.0
X224.0Y-139.0
X224.0Y-142.0
X224.0Y-145.0
X224.8Y-150.0
X225.5Y-152.2
X226.0Y-146.5
X227.0Y-130.0
X227.0Y-133.0
X227.0Y-136.0
X227.0Y-139.0
X227.0Y-142.0
X227.0Y-145.0
X228.0Y-152.2
X228.25Y-149.5
X228.5Y-146.4
X229.0Y-149.0
X229.002Y-179.999
X229.6Y-149.8
X230.0Y-130.0
X230.0Y-133.0
X230.0Y-136.0
X230.0Y-139.0
X230.0Y-142.0
X230.0Y-145.0
X231.0Y-151.75
X231.0Y-152.75
X231.3Y-149.8
X233.0Y-130.0
X233.0Y-133.0
X233.0Y-136.0
X233.0Y-139.0
X233.0Y-142.0
X233.0Y-145.0
X233.0Y-147.8
X233.0Y-179.999
X233.4Y-151.0
X234.473Y-151.723
X235.1Y-152.75
X236.0Y-130.0
X236.0Y-133.0
X236.0Y-136.0
X236.0Y-139.0
X236.0Y-142.0
X236.0Y-145.0
X236.0Y-148.0
X236.2Y-150.2
X236.5Y-152.2
X239.0Y-130.0
X239.0Y-133.0
X239.0Y-136.0
X239.0Y-139.0
X239.0Y-142.0
X239.0Y-145.0
X239.0Y-148.0
X239.0Y-150.2
X239.0Y-152.2
X242.0Y-133.0
X242.0Y-136.0
X242.0Y-139.0
X242.0Y-142.0
X242.0Y-145.0
X242.0Y-148.0
X242.0Y-150.2
X242.0Y-152.2
X244.5Y-152.2
X245.0Y-133.0
X245.0Y-136.0
X245.0Y-139.0
X245.0Y-142.0
X245.0Y-145.0
X245.0Y-148.0
X245.0Y-150.2
X248.0Y-136.0
X248.0Y-139.0
X248.0Y-142.0
X248.0Y-145.0
X248.0Y-148.0
X248.0Y-150.2
X248.0Y-152.2
X250.0Y-179.999
X251.0Y-136.0
X251.0Y-139.0
X251.0Y-142.0
X251.0Y-145.0
X251.0Y-148.0
X251.0Y-150.2
X251.0Y-152.2
X252.5Y-152.2
X254.0Y-136.0
X254.0Y-139.0
X254.0Y-142.0
X254.0Y-145.0
X259.4Y-162.2
X259.75Y-158.0
X260.0Y-163.5
X263.0Y-162.377
X263.0Y-163.5
X263.2Y-159.4
X263.4Y-156.8
X265.5Y-159.0
X266.0Y-163.5
X266.6Y-161.0
X267.0Y-179.999
X268.0Y-159.0
X269.0Y-161.601
X269.0Y-163.5
X271.75Y-159.0
X272.0Y-163.5
X272.4Y-161.0
X274.6Y-161.0
X275.0Y-163.5
X276.0Y-159.0
X277.0Y-161.6
X278.0Y-163.5
X279.8Y-159.0
X280.4Y-161.0
X281.0Y-163.5
X283.6Y-161.0
X284.0Y-163.5
X284.0Y-179.999
X285.0Y-159.0
X286.0Y-161.6
X287.0Y-163.5
X288.8Y-159.0
X289.4Y-161.0
X290.0Y-163.5
X291.6Y-161.0
X293.0Y-159.0
X293.0Y-163.5
X294.0Y-161.6
X296.0Y-163.5
X296.8Y-159.0
X297.4Y-161.0
X299.0Y-163.5
X300.6Y-161.0
X302.0Y-159.0
X302.0Y-163.5
X303.0Y-161.6
X305.0Y-163.5
X305.8Y-159.0
X306.4Y-161.0
X308.0Y-163.5
X308.6Y-161.0
X310.0Y-159.0
X311.0Y-161.6
X311.0Y-163.5
X313.8Y-159.0
X314.0Y-163.5
X314.001Y-180.0
X314.4Y-161.0
X317.0Y-163.5
X317.6Y-161.0
X319.0Y-159.0
X320.0Y-161.6
X320.0Y-163.5
X322.8Y-159.0
X323.0Y-163.5
X323.4Y-161.0
X325.6Y-161.0
X326.0Y-163.5
X327.0Y-159.0
X328.0Y-161.6
X329.0Y-163.5
X330.8Y-159.0
X331.001Y-180.0
X331.4Y-161.0
X332.0Y-163.5
X333.5Y-161.0
X334.6Y-158.6
X335.0Y-163.5
X336.0Y-157.3
X337.0Y-161.6
X338.0Y-163.5
X338.8Y-158.1
X342.1Y-149.2
X344.0Y-136.0
X344.0Y-139.0
X344.0Y-142.0
X344.0Y-145.0
X344.0Y-147.25
X344.75Y-152.2
X346.5Y-152.2
X347.0Y-136.0
X347.0Y-139.0
X347.0Y-142.0
X347.0Y-145.0
X347.0Y-147.25
X348.0Y-180.0
X350.0Y-136.0
X350.0Y-139.0
X350.0Y-142.0
X350.0Y-145.0
X350.0Y-147.25
X350.0Y-152.2
X353.0Y-130.0
X353.0Y-133.0
X353.0Y-136.0
X353.0Y-139.0
X353.0Y-142.0
X353.0Y-145.0
X353.0Y-147.25
X353.0Y-152.2
X355.5Y-152.2
X356.0Y-130.0
X356.0Y-133.0
X356.0Y-136.0
X356.0Y-139.0
X356.0Y-142.0
X356.0Y-145.0
X356.0Y-147.25
X359.0Y-130.0
X359.0Y-133.0
X359.0Y-136.0
X359.0Y-139.0
X359.0Y-142.0
X359.0Y-145.0
X359.0Y-147.25
X359.0Y-152.2
X360.25Y-149.2
X360.25Y-150.2
X362.0Y-130.0
X362.0Y-133.0
X362.0Y-136.0
X362.0Y-139.0
X362.0Y-142.0
X362.25Y-152.25
X362.75Y-145.0
X363.5Y-146.5
X364.056Y-149.694
X364.5Y-146.5
X364.95Y-148.8
X365.0Y-130.0
X365.0Y-133.0
X365.0Y-136.0
X365.0Y-139.0
X365.0Y-142.0
X365.0Y-145.0
X365.0Y-180.0
X367.0Y-149.8
X367.0Y-151.75
X367.0Y-152.75
X368.0Y-130.0
X368.0Y-133.0
X368.0Y-136.0
X368.0Y-139.0
X368.0Y-142.0
X368.0Y-145.0
X368.75Y-147.5
X368.8Y-150.4
X369.0Y-180.0
X369.5Y-151.75
X370.25Y-152.75
X371.0Y-130.0
X371.0Y-133.0
X371.0Y-136.0
X371.0Y-139.0
X371.0Y-142.0
X371.0Y-145.0
X371.0Y-150.0
X371.0Y-152.2
X372.491Y-152.2
X373.991Y-152.2
X374.0Y-130.0
X374.0Y-133.0
X374.0Y-136.0
X374.0Y-139.0
X374.0Y-142.0
X374.0Y-147.5
X374.0Y-150.0
X376.991Y-152.2
X377.0Y-130.0
X377.0Y-133.0
X377.0Y-136.0
X377.0Y-139.0
X377.0Y-142.0
X377.0Y-145.0
X377.0Y-147.5
X377.0Y-150.0
X380.0Y-130.0
X380.0Y-133.0
X380.0Y-136.0
X380.0Y-139.0
X380.0Y-142.0
X380.0Y-145.0
X380.0Y-147.5
X380.0Y-150.0
X380.491Y-152.2
X382.991Y-152.2
X383.0Y-130.0
X383.0Y-133.0
X383.0Y-136.0
X383.0Y-139.0
X383.0Y-142.0
X383.0Y-145.0
X383.0Y-147.5
X383.0Y-150.0
X385.991Y-152.2
X385.999Y-180.0
X386.0Y-130.0
X386.0Y-133.0
X386.0Y-136.0
X386.0Y-139.0
X386.0Y-142.0
X386.0Y-145.0
X386.0Y-147.5
X386.0Y-150.0
X388.2Y-152.2
X389.0Y-130.0
X389.0Y-133.0
X389.0Y-136.0
X389.0Y-139.0
X389.0Y-142.0
X389.0Y-145.0
X389.0Y-147.5
X389.0Y-150.0
X391.4Y-153.0
X392.0Y-130.0
X392.0Y-133.0
X392.0Y-136.0
X392.0Y-139.0
X392.0Y-142.0
X392.0Y-145.0
X392.0Y-147.5
X392.0Y-150.0
X394.4Y-156.0
X395.0Y-130.0
X395.0Y-133.0
X395.0Y-136.0
X395.0Y-139.0
X395.0Y-142.0
X395.0Y-145.0
X395.0Y-147.5
X395.0Y-150.0
X395.0Y-153.0
X395.25Y-158.0
X396.0Y-162.0
X397.5Y-158.0
X398.0Y-130.0
X398.0Y-133.0
X398.0Y-136.0
X398.0Y-139.0
X398.0Y-142.0
X398.0Y-145.0
X398.0Y-147.5
X398.0Y-150.0
X398.0Y-153.0
X398.0Y-156.0
X398.0Y-163.5
X399.0Y-161.25
X401.0Y-130.0
X401.0Y-133.0
X401.0Y-136.0
X401.0Y-139.0
X401.0Y-142.0
X401.0Y-145.0
X401.0Y-147.5
X401.0Y-150.0
X401.0Y-153.0
X401.0Y-156.0
X401.0Y-158.0
X401.0Y-163.5
X402.999Y-180.0
X403.0Y-161.25
X404.0Y-130.0
X404.0Y-133.0
X404.0Y-136.0
X404.0Y-139.0
X404.0Y-142.0
X404.0Y-145.0
X404.0Y-147.5
X404.0Y-150.0
X404.0Y-153.0
X404.0Y-156.0
X404.0Y-158.0
X404.0Y-163.5
X405.0Y-162.0
X406.5Y-158.0
X407.0Y-130.0
X407.0Y-133.0
X407.0Y-136.0
X407.0Y-139.0
X407.0Y-142.0
X407.0Y-145.0
X407.0Y-147.5
X407.0Y-150.0
X407.0Y-153.0
X407.0Y-156.0
X407.0Y-163.5
X408.0Y-161.25
X410.0Y-130.0
X410.0Y-133.0
X410.0Y-136.0
X410.0Y-139.0
X410.0Y-142.0
X410.0Y-145.0
X410.0Y-147.5
X410.0Y-150.0
X410.0Y-153.0
X410.0Y-156.0
X410.0Y-158.0
X410.0Y-163.5
X411.0Y-161.25
X413.0Y-130.0
X413.0Y-133.0
X413.0Y-136.0
X413.0Y-139.0
X413.0Y-142.0
X413.0Y-145.0
X413.0Y-147.5
X413.0Y-150.0
X413.0Y-153.0
X413.0Y-156.0
X413.0Y-162.0
X413.0Y-163.5
X414.5Y-158.0
X416.0Y-130.0
X416.0Y-133.0
X416.0Y-136.0
X416.0Y-139.0
X416.0Y-142.0
X416.0Y-145.0
X416.0Y-147.5
X416.0Y-150.0
X416.0Y-153.0
X416.0Y-156.0
X416.0Y-158.0
X416.0Y-161.25
X416.0Y-163.5
X419.0Y-130.0
X419.0Y-133.0
X419.0Y-136.0
X419.0Y-139.0
X419.0Y-142.0
X419.0Y-145.0
X419.0Y-147.5
X419.0Y-150.0
X419.0Y-153.0
X419.0Y-156.0
X419.0Y-158.0
X419.0Y-163.5
X419.999Y-180.0
X420.0Y-161.25
X422.0Y-130.0
X422.0Y-133.0
X422.0Y-136.0
X422.0Y-139.0
X422.0Y-142.0
X422.0Y-145.0
X422.0Y-147.5
X422.0Y-150.0
X422.0Y-153.0
X422.0Y-156.0
X422.0Y-162.0
X422.0Y-163.5
X423.5Y-158.0
X425.0Y-130.0
X425.0Y-133.0
X425.0Y-136.0
X425.0Y-139.0
X425.0Y-142.0
X425.0Y-145.0
X425.0Y-147.5
X425.0Y-150.0
X425.0Y-153.0
X425.0Y-156.0
X425.0Y-158.0
X425.0Y-161.25
X425.0Y-163.5
X428.0Y-130.0
X428.0Y-133.0
X428.0Y-136.0
X428.0Y-139.0
X428.0Y-142.0
X428.0Y-145.0
X428.0Y-147.5
X428.0Y-150.0
X428.0Y-153.0
X428.0Y-156.0
X428.0Y-158.0
X428.0Y-161.25
X428.0Y-163.5
X430.0Y-162.0
X431.0Y-130.0
X431.0Y-133.0
X431.0Y-136.0
X431.0Y-139.0
X431.0Y-142.0
X431.0Y-145.0
X431.0Y-147.5
X431.0Y-150.0
X431.0Y-153.0
X431.0Y-156.0
X431.0Y-163.5
X431.5Y-158.0
X433.0Y-161.25
X434.0Y-130.0
X434.0Y-133.0
X434.0Y-136.0
X434.0Y-139.0
X434.0Y-142.0
X434.0Y-145.0
X434.0Y-147.5
X434.0Y-150.0
X434.0Y-153.0
X434.0Y-156.0
X434.0Y-158.0
X434.0Y-163.5
X437.0Y-130.0
X437.0Y-133.0
X437.0Y-136.0
X437.0Y-139.0
X437.0Y-142.0
X437.0Y-145.0
X437.0Y-147.5
X437.0Y-150.0
X437.0Y-153.0
X437.0Y-156.0
X437.0Y-158.0
X437.0Y-161.25
X437.0Y-163.5
X439.0Y-162.0
X440.0Y-130.0
X440.0Y-133.0
X440.0Y-136.0
X440.0Y-139.0
X440.0Y-142.0
X440.0Y-145.0
X440.0Y-147.5
X440.0Y-150.0
X440.0Y-153.0
X440.0Y-156.0
X440.0Y-163.5
X440.5Y-158.0
X442.0Y-161.25
X443.0Y-130.0
X443.0Y-133.0
X443.0Y-136.0
X443.0Y-139.0
X443.0Y-142.0
X443.0Y-145.0
X443.0Y-147.5
X443.0Y-150.0
X443.0Y-153.0
X443.0Y-156.0
X443.0Y-158.0
X443.0Y-163.5
X445.0Y-161.25
X446.0Y-130.0
X446.0Y-133.0
X446.0Y-136.0
X446.0Y-139.0
X446.0Y-142.0
X446.0Y-145.0
X446.0Y-147.5
X446.0Y-150.0
X446.0Y-153.0
X446.0Y-156.0
X446.0Y-158.0
X446.0Y-163.5
X447.0Y-162.0
X448.5Y-158.0
X449.0Y-130.0
X449.0Y-133.0
X449.0Y-136.0
X449.0Y-139.0
X449.0Y-142.0
X449.0Y-145.0
X449.0Y-147.5
X449.0Y-150.0
X449.0Y-153.0
X449.0Y-156.0
X449.0Y-163.5
X450.0Y-161.25
X450.002Y-179.999
X452.0Y-130.0
X452.0Y-133.0
X452.0Y-136.0
X452.0Y-139.0
X452.0Y-142.0
X452.0Y-145.0
X452.0Y-147.5
X452.0Y-150.0
X452.0Y-153.0
X452.0Y-156.0
X452.0Y-158.0
X452.0Y-163.5
X454.0Y-161.25
X455.0Y-130.0
X455.0Y-133.0
X455.0Y-136.0
X455.0Y-139.0
X455.0Y-142.0
X455.0Y-145.0
X455.0Y-147.5
X455.0Y-150.0
X455.0Y-153.0
X455.0Y-156.0
X455.0Y-158.0
X455.0Y-163.5
X456.0Y-162.0
X457.5Y-158.0
X458.0Y-130.0
X458.0Y-133.0
X458.0Y-136.0
X458.0Y-139.0
X458.0Y-142.0
X458.0Y-145.0
X458.0Y-147.5
X458.0Y-150.0
X458.0Y-153.0
X458.0Y-156.0
X458.0Y-163.5
X459.0Y-161.25
X461.0Y-130.0
X461.0Y-133.0
X461.0Y-136.0
X461.0Y-139.0
X461.0Y-142.0
X461.0Y-145.0
X461.0Y-147.5
X461.0Y-150.0
X461.0Y-153.0
X461.0Y-156.0
X461.0Y-158.0
X461.0Y-163.5
X462.0Y-161.25
X463.5Y-158.0
X464.0Y-130.0
X464.0Y-133.0
X464.0Y-136.0
X464.0Y-139.0
X464.0Y-142.0
X464.0Y-145.0
X464.0Y-147.5
X464.0Y-150.0
X464.0Y-153.0
X464.0Y-156.0
X464.0Y-162.0
X464.0Y-163.5
X465.5Y-158.0
X467.0Y-130.0
X467.0Y-133.0
X467.0Y-136.0
X467.0Y-139.0
X467.0Y-142.0
X467.0Y-145.0
X467.0Y-147.5
X467.0Y-150.0
X467.0Y-153.0
X467.0Y-156.0
X467.0Y-158.0
X467.0Y-161.25
X467.0Y-163.5
X467.002Y-179.999
X470.0Y-130.0
X470.0Y-133.0
X470.0Y-136.0
X470.0Y-139.0
X470.0Y-142.0
X470.0Y-145.0
X470.0Y-147.5
X470.0Y-150.0
X470.0Y-153.0
X470.0Y-156.0
X470.0Y-158.0
X470.0Y-163.5
X471.0Y-161.25
X473.0Y-130.0
X473.0Y-133.0
X473.0Y-136.0
X473.0Y-139.0
X473.0Y-142.0
X473.0Y-145.0
X473.0Y-147.5
X473.0Y-150.0
X473.0Y-153.0
X473.0Y-156.0
X473.0Y-162.0
X473.0Y-163.5
X474.5Y-158.0
X476.0Y-130.0
X476.0Y-133.0
X476.0Y-136.0
X476.0Y-139.0
X476.0Y-142.0
X476.0Y-145.0
X476.0Y-147.5
X476.0Y-150.0
X476.0Y-153.0
X476.0Y-155.75
X477.5Y-154.25
X479.0Y-130.0
X479.0Y-133.0
X479.0Y-136.0
X479.0Y-139.0
X479.0Y-142.0
X479.0Y-145.0
X479.0Y-147.5
X479.0Y-150.0
X479.0Y-152.75
X482.0Y-130.0
X482.0Y-133.0
X482.0Y-136.0
X482.0Y-139.0
X482.0Y-142.0
X482.0Y-145.0
X482.0Y-147.5
X482.0Y-150.0
X482.5Y-152.2
X484.002Y-179.999
X485.0Y-130.0
X485.0Y-133.0
X485.0Y-136.0
X485.0Y-139.0
X485.0Y-142.0
X485.0Y-145.0
X485.0Y-147.5
X485.0Y-150.0
X485.0Y-152.2
X488.0Y-130.0
X488.0Y-133.0
X488.0Y-136.0
X488.0Y-139.0
X488.0Y-142.0
X488.0Y-145.0
X488.0Y-147.5
X488.0Y-150.0
X488.0Y-152.2
X490.0Y-142.0
X490.0Y-145.0
X491.0Y-130.0
X491.0Y-133.0
X491.0Y-136.0
X491.0Y-139.0
X491.0Y-147.5
X491.0Y-150.0
X491.5Y-152.2
X493.5Y-147.5
X494.0Y-130.0
X494.0Y-133.0
X494.0Y-136.0
X494.0Y-139.0
X494.0Y-142.0
X494.0Y-145.0
X494.0Y-150.0
X494.0Y-152.2
X496.0Y-147.5
X496.5Y-143.75
X496.625Y-146.875
X496.8Y-149.2
X497.0Y-130.0
X497.0Y-133.0
X497.0Y-136.0
X497.0Y-139.0
X497.0Y-152.2
X497.25Y-141.75
X497.625Y-145.875
X498.25Y-145.25
X499.5Y-152.2
X499.7Y-146.3
X500.0Y-130.0
X500.0Y-133.0
X500.0Y-136.0
X500.0Y-139.0
X500.0Y-142.0
X500.0Y-145.0
X500.146Y-149.783
X500.75Y-149.0
X501.002Y-179.999
X502.0Y-146.25
X503.0Y-130.0
X503.0Y-133.0
X503.0Y-136.0
X503.0Y-139.0
X503.0Y-142.0
X503.0Y-145.0
X503.0Y-149.5
X505.0Y-179.999
X505.991Y-152.2
X506.0Y-130.0
X506.0Y-133.0
X506.0Y-136.0
X506.0Y-139.0
X506.0Y-142.0
X506.0Y-145.0
X506.0Y-147.5
X506.0Y-150.0
X508.491Y-152.2
X509.0Y-130.0
X509.0Y-133.0
X509.0Y-136.0
X509.0Y-139.0
X509.0Y-142.0
X509.0Y-145.0
X509.0Y-147.5
X509.0Y-150.0
X511.991Y-152.2
X512.0Y-130.0
X512.0Y-133.0
X512.0Y-136.0
X512.0Y-139.0
X512.0Y-142.0
X512.0Y-145.0
X512.0Y-147.5
X512.0Y-150.0
X514.991Y-152.2
X515.0Y-130.0
X515.0Y-133.0
X515.0Y-136.0
X515.0Y-139.0
X515.0Y-142.0
X515.0Y-145.0
X515.0Y-147.5
X515.0Y-150.0
X516.491Y-152.2
X517.991Y-152.2
X518.0Y-130.0
X518.0Y-133.0
X518.0Y-136.0
X518.0Y-139.0
X518.0Y-142.0
X518.0Y-145.0
X518.0Y-147.5
X518.0Y-150.0
X520.991Y-152.2
X521.0Y-133.0
X521.0Y-136.0
X521.0Y-139.0
X521.0Y-142.0
X521.0Y-145.0
X521.0Y-147.5
X521.0Y-150.0
X522.0Y-179.999
X524.0Y-136.0
X524.0Y-139.0
X524.0Y-142.0
X524.0Y-145.0
X524.0Y-147.5
X524.0Y-150.0
X524.2Y-152.2
X527.0Y-136.0
X527.0Y-139.0
X527.0Y-142.0
X527.0Y-145.0
X527.0Y-147.5
X527.0Y-150.0
X527.0Y-153.0
X530.0Y-150.0
X530.0Y-153.0
X530.0Y-156.0
X531.0Y-159.2
X532.0Y-162.0
X533.0Y-156.0
X533.0Y-163.5
X536.0Y-156.0
X536.0Y-159.0
X536.0Y-161.0
X536.0Y-163.5
X538.5Y-161.0
X539.0Y-159.0
X539.0Y-163.5
X539.0Y-179.999
X541.0Y-162.0
X542.0Y-163.5
X545.0Y-159.0
X545.0Y-161.0
X545.0Y-163.5
X546.5Y-161.0
X547.5Y-159.0
X548.0Y-163.5
X549.0Y-162.0
X551.0Y-163.5
X553.0Y-159.0
X553.0Y-161.0
X554.0Y-163.5
X555.5Y-161.0
X556.0Y-179.999
X556.5Y-159.0
X557.0Y-163.5
X558.0Y-162.0
X560.0Y-163.5
X562.0Y-159.0
X562.0Y-161.0
X563.0Y-163.5
X563.5Y-161.0
X565.0Y-159.0
X566.0Y-162.0
X566.0Y-163.5
X567.6Y-158.2
X569.0Y-159.0
X569.0Y-163.5
X569.25Y-161.25
X570.5Y-158.5
X572.0Y-159.0
X572.0Y-162.0
X572.0Y-163.5
T2
X70.6Y-131.0
X71.303Y-129.303
X71.303Y-132.697
X73.0Y-128.6
X73.0Y-133.4
X74.697Y-129.303
X74.697Y-132.697
X75.4Y-131.0
X248.6Y-131.0
X249.303Y-129.303
X249.303Y-132.697
X251.0Y-128.6
X251.0Y-133.4
X252.697Y-129.303
X252.697Y-132.697
X253.4Y-131.0
X344.6Y-131.0
X345.303Y-129.303
X345.303Y-132.697
X347.0Y-128.6
X347.0Y-133.4
X348.697Y-129.303
X348.697Y-132.697
X349.4Y-131.0
X522.6Y-131.0
X523.303Y-129.303
X523.303Y-132.697
X525.0Y-128.6
X525.0Y-133.4
X526.697Y-129.303
X526.697Y-132.697
X527.4Y-131.0
T3
X158.19Y-129.54
X160.73Y-129.54
X163.27Y-129.54
X165.81Y-129.54
T4
X150.35Y-130.1
X150.35Y-153.9
X173.65Y-130.1
X173.65Y-153.9
T5
X29.0Y-170.5
X73.0Y-131.0
X162.0Y-170.5
X251.0Y-131.0
X299.0Y-170.5
X347.0Y-131.0
X436.0Y-170.5
X525.0Y-131.0
X569.0Y-170.5
M30
