%TF.GenerationSoftware,KiCad,Pcbnew,9.0.5-1.fc42*%
%TF.CreationDate,2025-11-09T01:11:04+10:30*%
%TF.ProjectId,DivaConSlider,44697661-436f-46e5-936c-696465722e6b,1.1*%
%TF.SameCoordinates,Original*%
%TF.FileFunction,Other,Comment*%
%FSLAX46Y46*%
G04 Gerber Fmt 4.6, Leading zero omitted, Abs format (unit mm)*
G04 Created by KiCad (PCBNEW 9.0.5-1.fc42) date 2025-11-09 01:11:04*
%MOMM*%
%LPD*%
G01*
G04 APERTURE LIST*
%ADD10C,0.200000*%
%ADD11C,0.400000*%
%ADD12C,0.150000*%
G04 APERTURE END LIST*
D10*
X26238720Y-96969028D02*
X26238720Y-95469028D01*
X26238720Y-95469028D02*
X26738720Y-96540457D01*
X26738720Y-96540457D02*
X27238720Y-95469028D01*
X27238720Y-95469028D02*
X27238720Y-96969028D01*
X27953006Y-96969028D02*
X27953006Y-95969028D01*
X27953006Y-95469028D02*
X27881578Y-95540457D01*
X27881578Y-95540457D02*
X27953006Y-95611885D01*
X27953006Y-95611885D02*
X28024435Y-95540457D01*
X28024435Y-95540457D02*
X27953006Y-95469028D01*
X27953006Y-95469028D02*
X27953006Y-95611885D01*
X28667292Y-95969028D02*
X28667292Y-96969028D01*
X28667292Y-96111885D02*
X28738721Y-96040457D01*
X28738721Y-96040457D02*
X28881578Y-95969028D01*
X28881578Y-95969028D02*
X29095864Y-95969028D01*
X29095864Y-95969028D02*
X29238721Y-96040457D01*
X29238721Y-96040457D02*
X29310150Y-96183314D01*
X29310150Y-96183314D02*
X29310150Y-96969028D01*
X30953007Y-95969028D02*
X31524435Y-95969028D01*
X31167292Y-95469028D02*
X31167292Y-96754742D01*
X31167292Y-96754742D02*
X31238721Y-96897600D01*
X31238721Y-96897600D02*
X31381578Y-96969028D01*
X31381578Y-96969028D02*
X31524435Y-96969028D01*
X32024435Y-96969028D02*
X32024435Y-95969028D01*
X32024435Y-96254742D02*
X32095864Y-96111885D01*
X32095864Y-96111885D02*
X32167293Y-96040457D01*
X32167293Y-96040457D02*
X32310150Y-95969028D01*
X32310150Y-95969028D02*
X32453007Y-95969028D01*
X33595864Y-96969028D02*
X33595864Y-96183314D01*
X33595864Y-96183314D02*
X33524435Y-96040457D01*
X33524435Y-96040457D02*
X33381578Y-95969028D01*
X33381578Y-95969028D02*
X33095864Y-95969028D01*
X33095864Y-95969028D02*
X32953006Y-96040457D01*
X33595864Y-96897600D02*
X33453006Y-96969028D01*
X33453006Y-96969028D02*
X33095864Y-96969028D01*
X33095864Y-96969028D02*
X32953006Y-96897600D01*
X32953006Y-96897600D02*
X32881578Y-96754742D01*
X32881578Y-96754742D02*
X32881578Y-96611885D01*
X32881578Y-96611885D02*
X32953006Y-96469028D01*
X32953006Y-96469028D02*
X33095864Y-96397600D01*
X33095864Y-96397600D02*
X33453006Y-96397600D01*
X33453006Y-96397600D02*
X33595864Y-96326171D01*
X34953007Y-96897600D02*
X34810149Y-96969028D01*
X34810149Y-96969028D02*
X34524435Y-96969028D01*
X34524435Y-96969028D02*
X34381578Y-96897600D01*
X34381578Y-96897600D02*
X34310149Y-96826171D01*
X34310149Y-96826171D02*
X34238721Y-96683314D01*
X34238721Y-96683314D02*
X34238721Y-96254742D01*
X34238721Y-96254742D02*
X34310149Y-96111885D01*
X34310149Y-96111885D02*
X34381578Y-96040457D01*
X34381578Y-96040457D02*
X34524435Y-95969028D01*
X34524435Y-95969028D02*
X34810149Y-95969028D01*
X34810149Y-95969028D02*
X34953007Y-96040457D01*
X35595863Y-96969028D02*
X35595863Y-95469028D01*
X35738721Y-96397600D02*
X36167292Y-96969028D01*
X36167292Y-95969028D02*
X35595863Y-96540457D01*
X37881578Y-95397600D02*
X36595864Y-97326171D01*
X38310150Y-96897600D02*
X38453007Y-96969028D01*
X38453007Y-96969028D02*
X38738721Y-96969028D01*
X38738721Y-96969028D02*
X38881578Y-96897600D01*
X38881578Y-96897600D02*
X38953007Y-96754742D01*
X38953007Y-96754742D02*
X38953007Y-96683314D01*
X38953007Y-96683314D02*
X38881578Y-96540457D01*
X38881578Y-96540457D02*
X38738721Y-96469028D01*
X38738721Y-96469028D02*
X38524436Y-96469028D01*
X38524436Y-96469028D02*
X38381578Y-96397600D01*
X38381578Y-96397600D02*
X38310150Y-96254742D01*
X38310150Y-96254742D02*
X38310150Y-96183314D01*
X38310150Y-96183314D02*
X38381578Y-96040457D01*
X38381578Y-96040457D02*
X38524436Y-95969028D01*
X38524436Y-95969028D02*
X38738721Y-95969028D01*
X38738721Y-95969028D02*
X38881578Y-96040457D01*
X39595864Y-95969028D02*
X39595864Y-97469028D01*
X39595864Y-96040457D02*
X39738722Y-95969028D01*
X39738722Y-95969028D02*
X40024436Y-95969028D01*
X40024436Y-95969028D02*
X40167293Y-96040457D01*
X40167293Y-96040457D02*
X40238722Y-96111885D01*
X40238722Y-96111885D02*
X40310150Y-96254742D01*
X40310150Y-96254742D02*
X40310150Y-96683314D01*
X40310150Y-96683314D02*
X40238722Y-96826171D01*
X40238722Y-96826171D02*
X40167293Y-96897600D01*
X40167293Y-96897600D02*
X40024436Y-96969028D01*
X40024436Y-96969028D02*
X39738722Y-96969028D01*
X39738722Y-96969028D02*
X39595864Y-96897600D01*
X41595865Y-96969028D02*
X41595865Y-96183314D01*
X41595865Y-96183314D02*
X41524436Y-96040457D01*
X41524436Y-96040457D02*
X41381579Y-95969028D01*
X41381579Y-95969028D02*
X41095865Y-95969028D01*
X41095865Y-95969028D02*
X40953007Y-96040457D01*
X41595865Y-96897600D02*
X41453007Y-96969028D01*
X41453007Y-96969028D02*
X41095865Y-96969028D01*
X41095865Y-96969028D02*
X40953007Y-96897600D01*
X40953007Y-96897600D02*
X40881579Y-96754742D01*
X40881579Y-96754742D02*
X40881579Y-96611885D01*
X40881579Y-96611885D02*
X40953007Y-96469028D01*
X40953007Y-96469028D02*
X41095865Y-96397600D01*
X41095865Y-96397600D02*
X41453007Y-96397600D01*
X41453007Y-96397600D02*
X41595865Y-96326171D01*
X42953008Y-96897600D02*
X42810150Y-96969028D01*
X42810150Y-96969028D02*
X42524436Y-96969028D01*
X42524436Y-96969028D02*
X42381579Y-96897600D01*
X42381579Y-96897600D02*
X42310150Y-96826171D01*
X42310150Y-96826171D02*
X42238722Y-96683314D01*
X42238722Y-96683314D02*
X42238722Y-96254742D01*
X42238722Y-96254742D02*
X42310150Y-96111885D01*
X42310150Y-96111885D02*
X42381579Y-96040457D01*
X42381579Y-96040457D02*
X42524436Y-95969028D01*
X42524436Y-95969028D02*
X42810150Y-95969028D01*
X42810150Y-95969028D02*
X42953008Y-96040457D01*
X43595864Y-96969028D02*
X43595864Y-95969028D01*
X43595864Y-95469028D02*
X43524436Y-95540457D01*
X43524436Y-95540457D02*
X43595864Y-95611885D01*
X43595864Y-95611885D02*
X43667293Y-95540457D01*
X43667293Y-95540457D02*
X43595864Y-95469028D01*
X43595864Y-95469028D02*
X43595864Y-95611885D01*
X44310150Y-95969028D02*
X44310150Y-96969028D01*
X44310150Y-96111885D02*
X44381579Y-96040457D01*
X44381579Y-96040457D02*
X44524436Y-95969028D01*
X44524436Y-95969028D02*
X44738722Y-95969028D01*
X44738722Y-95969028D02*
X44881579Y-96040457D01*
X44881579Y-96040457D02*
X44953008Y-96183314D01*
X44953008Y-96183314D02*
X44953008Y-96969028D01*
X46310151Y-95969028D02*
X46310151Y-97183314D01*
X46310151Y-97183314D02*
X46238722Y-97326171D01*
X46238722Y-97326171D02*
X46167293Y-97397600D01*
X46167293Y-97397600D02*
X46024436Y-97469028D01*
X46024436Y-97469028D02*
X45810151Y-97469028D01*
X45810151Y-97469028D02*
X45667293Y-97397600D01*
X46310151Y-96897600D02*
X46167293Y-96969028D01*
X46167293Y-96969028D02*
X45881579Y-96969028D01*
X45881579Y-96969028D02*
X45738722Y-96897600D01*
X45738722Y-96897600D02*
X45667293Y-96826171D01*
X45667293Y-96826171D02*
X45595865Y-96683314D01*
X45595865Y-96683314D02*
X45595865Y-96254742D01*
X45595865Y-96254742D02*
X45667293Y-96111885D01*
X45667293Y-96111885D02*
X45738722Y-96040457D01*
X45738722Y-96040457D02*
X45881579Y-95969028D01*
X45881579Y-95969028D02*
X46167293Y-95969028D01*
X46167293Y-95969028D02*
X46310151Y-96040457D01*
X47024436Y-96826171D02*
X47095865Y-96897600D01*
X47095865Y-96897600D02*
X47024436Y-96969028D01*
X47024436Y-96969028D02*
X46953008Y-96897600D01*
X46953008Y-96897600D02*
X47024436Y-96826171D01*
X47024436Y-96826171D02*
X47024436Y-96969028D01*
X47024436Y-96040457D02*
X47095865Y-96111885D01*
X47095865Y-96111885D02*
X47024436Y-96183314D01*
X47024436Y-96183314D02*
X46953008Y-96111885D01*
X46953008Y-96111885D02*
X47024436Y-96040457D01*
X47024436Y-96040457D02*
X47024436Y-96183314D01*
D11*
X26406014Y-83026819D02*
X26691728Y-83122057D01*
X26691728Y-83122057D02*
X26786966Y-83217295D01*
X26786966Y-83217295D02*
X26882204Y-83407771D01*
X26882204Y-83407771D02*
X26882204Y-83693485D01*
X26882204Y-83693485D02*
X26786966Y-83883961D01*
X26786966Y-83883961D02*
X26691728Y-83979200D01*
X26691728Y-83979200D02*
X26501252Y-84074438D01*
X26501252Y-84074438D02*
X25739347Y-84074438D01*
X25739347Y-84074438D02*
X25739347Y-82074438D01*
X25739347Y-82074438D02*
X26406014Y-82074438D01*
X26406014Y-82074438D02*
X26596490Y-82169676D01*
X26596490Y-82169676D02*
X26691728Y-82264914D01*
X26691728Y-82264914D02*
X26786966Y-82455390D01*
X26786966Y-82455390D02*
X26786966Y-82645866D01*
X26786966Y-82645866D02*
X26691728Y-82836342D01*
X26691728Y-82836342D02*
X26596490Y-82931580D01*
X26596490Y-82931580D02*
X26406014Y-83026819D01*
X26406014Y-83026819D02*
X25739347Y-83026819D01*
X28120299Y-82074438D02*
X28501252Y-82074438D01*
X28501252Y-82074438D02*
X28691728Y-82169676D01*
X28691728Y-82169676D02*
X28882204Y-82360152D01*
X28882204Y-82360152D02*
X28977442Y-82741104D01*
X28977442Y-82741104D02*
X28977442Y-83407771D01*
X28977442Y-83407771D02*
X28882204Y-83788723D01*
X28882204Y-83788723D02*
X28691728Y-83979200D01*
X28691728Y-83979200D02*
X28501252Y-84074438D01*
X28501252Y-84074438D02*
X28120299Y-84074438D01*
X28120299Y-84074438D02*
X27929823Y-83979200D01*
X27929823Y-83979200D02*
X27739347Y-83788723D01*
X27739347Y-83788723D02*
X27644109Y-83407771D01*
X27644109Y-83407771D02*
X27644109Y-82741104D01*
X27644109Y-82741104D02*
X27739347Y-82360152D01*
X27739347Y-82360152D02*
X27929823Y-82169676D01*
X27929823Y-82169676D02*
X28120299Y-82074438D01*
X29739347Y-83503009D02*
X30691728Y-83503009D01*
X29548871Y-84074438D02*
X30215537Y-82074438D01*
X30215537Y-82074438D02*
X30882204Y-84074438D01*
X32691728Y-84074438D02*
X32025061Y-83122057D01*
X31548871Y-84074438D02*
X31548871Y-82074438D01*
X31548871Y-82074438D02*
X32310776Y-82074438D01*
X32310776Y-82074438D02*
X32501252Y-82169676D01*
X32501252Y-82169676D02*
X32596490Y-82264914D01*
X32596490Y-82264914D02*
X32691728Y-82455390D01*
X32691728Y-82455390D02*
X32691728Y-82741104D01*
X32691728Y-82741104D02*
X32596490Y-82931580D01*
X32596490Y-82931580D02*
X32501252Y-83026819D01*
X32501252Y-83026819D02*
X32310776Y-83122057D01*
X32310776Y-83122057D02*
X31548871Y-83122057D01*
X33548871Y-84074438D02*
X33548871Y-82074438D01*
X33548871Y-82074438D02*
X34025061Y-82074438D01*
X34025061Y-82074438D02*
X34310776Y-82169676D01*
X34310776Y-82169676D02*
X34501252Y-82360152D01*
X34501252Y-82360152D02*
X34596490Y-82550628D01*
X34596490Y-82550628D02*
X34691728Y-82931580D01*
X34691728Y-82931580D02*
X34691728Y-83217295D01*
X34691728Y-83217295D02*
X34596490Y-83598247D01*
X34596490Y-83598247D02*
X34501252Y-83788723D01*
X34501252Y-83788723D02*
X34310776Y-83979200D01*
X34310776Y-83979200D02*
X34025061Y-84074438D01*
X34025061Y-84074438D02*
X33548871Y-84074438D01*
X38215538Y-83883961D02*
X38120300Y-83979200D01*
X38120300Y-83979200D02*
X37834586Y-84074438D01*
X37834586Y-84074438D02*
X37644110Y-84074438D01*
X37644110Y-84074438D02*
X37358395Y-83979200D01*
X37358395Y-83979200D02*
X37167919Y-83788723D01*
X37167919Y-83788723D02*
X37072681Y-83598247D01*
X37072681Y-83598247D02*
X36977443Y-83217295D01*
X36977443Y-83217295D02*
X36977443Y-82931580D01*
X36977443Y-82931580D02*
X37072681Y-82550628D01*
X37072681Y-82550628D02*
X37167919Y-82360152D01*
X37167919Y-82360152D02*
X37358395Y-82169676D01*
X37358395Y-82169676D02*
X37644110Y-82074438D01*
X37644110Y-82074438D02*
X37834586Y-82074438D01*
X37834586Y-82074438D02*
X38120300Y-82169676D01*
X38120300Y-82169676D02*
X38215538Y-82264914D01*
X39072681Y-84074438D02*
X39072681Y-82074438D01*
X39072681Y-83026819D02*
X40215538Y-83026819D01*
X40215538Y-84074438D02*
X40215538Y-82074438D01*
X41072681Y-83503009D02*
X42025062Y-83503009D01*
X40882205Y-84074438D02*
X41548871Y-82074438D01*
X41548871Y-82074438D02*
X42215538Y-84074438D01*
X44025062Y-84074438D02*
X43358395Y-83122057D01*
X42882205Y-84074438D02*
X42882205Y-82074438D01*
X42882205Y-82074438D02*
X43644110Y-82074438D01*
X43644110Y-82074438D02*
X43834586Y-82169676D01*
X43834586Y-82169676D02*
X43929824Y-82264914D01*
X43929824Y-82264914D02*
X44025062Y-82455390D01*
X44025062Y-82455390D02*
X44025062Y-82741104D01*
X44025062Y-82741104D02*
X43929824Y-82931580D01*
X43929824Y-82931580D02*
X43834586Y-83026819D01*
X43834586Y-83026819D02*
X43644110Y-83122057D01*
X43644110Y-83122057D02*
X42882205Y-83122057D01*
X44786967Y-83503009D02*
X45739348Y-83503009D01*
X44596491Y-84074438D02*
X45263157Y-82074438D01*
X45263157Y-82074438D02*
X45929824Y-84074438D01*
X47739348Y-83883961D02*
X47644110Y-83979200D01*
X47644110Y-83979200D02*
X47358396Y-84074438D01*
X47358396Y-84074438D02*
X47167920Y-84074438D01*
X47167920Y-84074438D02*
X46882205Y-83979200D01*
X46882205Y-83979200D02*
X46691729Y-83788723D01*
X46691729Y-83788723D02*
X46596491Y-83598247D01*
X46596491Y-83598247D02*
X46501253Y-83217295D01*
X46501253Y-83217295D02*
X46501253Y-82931580D01*
X46501253Y-82931580D02*
X46596491Y-82550628D01*
X46596491Y-82550628D02*
X46691729Y-82360152D01*
X46691729Y-82360152D02*
X46882205Y-82169676D01*
X46882205Y-82169676D02*
X47167920Y-82074438D01*
X47167920Y-82074438D02*
X47358396Y-82074438D01*
X47358396Y-82074438D02*
X47644110Y-82169676D01*
X47644110Y-82169676D02*
X47739348Y-82264914D01*
X48310777Y-82074438D02*
X49453634Y-82074438D01*
X48882205Y-84074438D02*
X48882205Y-82074438D01*
X50120301Y-83026819D02*
X50786968Y-83026819D01*
X51072682Y-84074438D02*
X50120301Y-84074438D01*
X50120301Y-84074438D02*
X50120301Y-82074438D01*
X50120301Y-82074438D02*
X51072682Y-82074438D01*
X53072682Y-84074438D02*
X52406015Y-83122057D01*
X51929825Y-84074438D02*
X51929825Y-82074438D01*
X51929825Y-82074438D02*
X52691730Y-82074438D01*
X52691730Y-82074438D02*
X52882206Y-82169676D01*
X52882206Y-82169676D02*
X52977444Y-82264914D01*
X52977444Y-82264914D02*
X53072682Y-82455390D01*
X53072682Y-82455390D02*
X53072682Y-82741104D01*
X53072682Y-82741104D02*
X52977444Y-82931580D01*
X52977444Y-82931580D02*
X52882206Y-83026819D01*
X52882206Y-83026819D02*
X52691730Y-83122057D01*
X52691730Y-83122057D02*
X51929825Y-83122057D01*
X53929825Y-84074438D02*
X53929825Y-82074438D01*
X54786968Y-83979200D02*
X55072682Y-84074438D01*
X55072682Y-84074438D02*
X55548873Y-84074438D01*
X55548873Y-84074438D02*
X55739349Y-83979200D01*
X55739349Y-83979200D02*
X55834587Y-83883961D01*
X55834587Y-83883961D02*
X55929825Y-83693485D01*
X55929825Y-83693485D02*
X55929825Y-83503009D01*
X55929825Y-83503009D02*
X55834587Y-83312533D01*
X55834587Y-83312533D02*
X55739349Y-83217295D01*
X55739349Y-83217295D02*
X55548873Y-83122057D01*
X55548873Y-83122057D02*
X55167920Y-83026819D01*
X55167920Y-83026819D02*
X54977444Y-82931580D01*
X54977444Y-82931580D02*
X54882206Y-82836342D01*
X54882206Y-82836342D02*
X54786968Y-82645866D01*
X54786968Y-82645866D02*
X54786968Y-82455390D01*
X54786968Y-82455390D02*
X54882206Y-82264914D01*
X54882206Y-82264914D02*
X54977444Y-82169676D01*
X54977444Y-82169676D02*
X55167920Y-82074438D01*
X55167920Y-82074438D02*
X55644111Y-82074438D01*
X55644111Y-82074438D02*
X55929825Y-82169676D01*
X56501254Y-82074438D02*
X57644111Y-82074438D01*
X57072682Y-84074438D02*
X57072682Y-82074438D01*
X58310778Y-84074438D02*
X58310778Y-82074438D01*
X60406016Y-83883961D02*
X60310778Y-83979200D01*
X60310778Y-83979200D02*
X60025064Y-84074438D01*
X60025064Y-84074438D02*
X59834588Y-84074438D01*
X59834588Y-84074438D02*
X59548873Y-83979200D01*
X59548873Y-83979200D02*
X59358397Y-83788723D01*
X59358397Y-83788723D02*
X59263159Y-83598247D01*
X59263159Y-83598247D02*
X59167921Y-83217295D01*
X59167921Y-83217295D02*
X59167921Y-82931580D01*
X59167921Y-82931580D02*
X59263159Y-82550628D01*
X59263159Y-82550628D02*
X59358397Y-82360152D01*
X59358397Y-82360152D02*
X59548873Y-82169676D01*
X59548873Y-82169676D02*
X59834588Y-82074438D01*
X59834588Y-82074438D02*
X60025064Y-82074438D01*
X60025064Y-82074438D02*
X60310778Y-82169676D01*
X60310778Y-82169676D02*
X60406016Y-82264914D01*
X61167921Y-83979200D02*
X61453635Y-84074438D01*
X61453635Y-84074438D02*
X61929826Y-84074438D01*
X61929826Y-84074438D02*
X62120302Y-83979200D01*
X62120302Y-83979200D02*
X62215540Y-83883961D01*
X62215540Y-83883961D02*
X62310778Y-83693485D01*
X62310778Y-83693485D02*
X62310778Y-83503009D01*
X62310778Y-83503009D02*
X62215540Y-83312533D01*
X62215540Y-83312533D02*
X62120302Y-83217295D01*
X62120302Y-83217295D02*
X61929826Y-83122057D01*
X61929826Y-83122057D02*
X61548873Y-83026819D01*
X61548873Y-83026819D02*
X61358397Y-82931580D01*
X61358397Y-82931580D02*
X61263159Y-82836342D01*
X61263159Y-82836342D02*
X61167921Y-82645866D01*
X61167921Y-82645866D02*
X61167921Y-82455390D01*
X61167921Y-82455390D02*
X61263159Y-82264914D01*
X61263159Y-82264914D02*
X61358397Y-82169676D01*
X61358397Y-82169676D02*
X61548873Y-82074438D01*
X61548873Y-82074438D02*
X62025064Y-82074438D01*
X62025064Y-82074438D02*
X62310778Y-82169676D01*
D10*
X26238720Y-108054314D02*
X26738720Y-108054314D01*
X26953006Y-108840028D02*
X26238720Y-108840028D01*
X26238720Y-108840028D02*
X26238720Y-107340028D01*
X26238720Y-107340028D02*
X26953006Y-107340028D01*
X28238721Y-108840028D02*
X28238721Y-107340028D01*
X28238721Y-108768600D02*
X28095863Y-108840028D01*
X28095863Y-108840028D02*
X27810149Y-108840028D01*
X27810149Y-108840028D02*
X27667292Y-108768600D01*
X27667292Y-108768600D02*
X27595863Y-108697171D01*
X27595863Y-108697171D02*
X27524435Y-108554314D01*
X27524435Y-108554314D02*
X27524435Y-108125742D01*
X27524435Y-108125742D02*
X27595863Y-107982885D01*
X27595863Y-107982885D02*
X27667292Y-107911457D01*
X27667292Y-107911457D02*
X27810149Y-107840028D01*
X27810149Y-107840028D02*
X28095863Y-107840028D01*
X28095863Y-107840028D02*
X28238721Y-107911457D01*
X29595864Y-107840028D02*
X29595864Y-109054314D01*
X29595864Y-109054314D02*
X29524435Y-109197171D01*
X29524435Y-109197171D02*
X29453006Y-109268600D01*
X29453006Y-109268600D02*
X29310149Y-109340028D01*
X29310149Y-109340028D02*
X29095864Y-109340028D01*
X29095864Y-109340028D02*
X28953006Y-109268600D01*
X29595864Y-108768600D02*
X29453006Y-108840028D01*
X29453006Y-108840028D02*
X29167292Y-108840028D01*
X29167292Y-108840028D02*
X29024435Y-108768600D01*
X29024435Y-108768600D02*
X28953006Y-108697171D01*
X28953006Y-108697171D02*
X28881578Y-108554314D01*
X28881578Y-108554314D02*
X28881578Y-108125742D01*
X28881578Y-108125742D02*
X28953006Y-107982885D01*
X28953006Y-107982885D02*
X29024435Y-107911457D01*
X29024435Y-107911457D02*
X29167292Y-107840028D01*
X29167292Y-107840028D02*
X29453006Y-107840028D01*
X29453006Y-107840028D02*
X29595864Y-107911457D01*
X30881578Y-108768600D02*
X30738721Y-108840028D01*
X30738721Y-108840028D02*
X30453007Y-108840028D01*
X30453007Y-108840028D02*
X30310149Y-108768600D01*
X30310149Y-108768600D02*
X30238721Y-108625742D01*
X30238721Y-108625742D02*
X30238721Y-108054314D01*
X30238721Y-108054314D02*
X30310149Y-107911457D01*
X30310149Y-107911457D02*
X30453007Y-107840028D01*
X30453007Y-107840028D02*
X30738721Y-107840028D01*
X30738721Y-107840028D02*
X30881578Y-107911457D01*
X30881578Y-107911457D02*
X30953007Y-108054314D01*
X30953007Y-108054314D02*
X30953007Y-108197171D01*
X30953007Y-108197171D02*
X30238721Y-108340028D01*
X33381578Y-108768600D02*
X33238720Y-108840028D01*
X33238720Y-108840028D02*
X32953006Y-108840028D01*
X32953006Y-108840028D02*
X32810149Y-108768600D01*
X32810149Y-108768600D02*
X32738720Y-108697171D01*
X32738720Y-108697171D02*
X32667292Y-108554314D01*
X32667292Y-108554314D02*
X32667292Y-108125742D01*
X32667292Y-108125742D02*
X32738720Y-107982885D01*
X32738720Y-107982885D02*
X32810149Y-107911457D01*
X32810149Y-107911457D02*
X32953006Y-107840028D01*
X32953006Y-107840028D02*
X33238720Y-107840028D01*
X33238720Y-107840028D02*
X33381578Y-107911457D01*
X34667292Y-108840028D02*
X34667292Y-108054314D01*
X34667292Y-108054314D02*
X34595863Y-107911457D01*
X34595863Y-107911457D02*
X34453006Y-107840028D01*
X34453006Y-107840028D02*
X34167292Y-107840028D01*
X34167292Y-107840028D02*
X34024434Y-107911457D01*
X34667292Y-108768600D02*
X34524434Y-108840028D01*
X34524434Y-108840028D02*
X34167292Y-108840028D01*
X34167292Y-108840028D02*
X34024434Y-108768600D01*
X34024434Y-108768600D02*
X33953006Y-108625742D01*
X33953006Y-108625742D02*
X33953006Y-108482885D01*
X33953006Y-108482885D02*
X34024434Y-108340028D01*
X34024434Y-108340028D02*
X34167292Y-108268600D01*
X34167292Y-108268600D02*
X34524434Y-108268600D01*
X34524434Y-108268600D02*
X34667292Y-108197171D01*
X35381577Y-108840028D02*
X35381577Y-107840028D01*
X35381577Y-108125742D02*
X35453006Y-107982885D01*
X35453006Y-107982885D02*
X35524435Y-107911457D01*
X35524435Y-107911457D02*
X35667292Y-107840028D01*
X35667292Y-107840028D02*
X35810149Y-107840028D01*
X36953006Y-108840028D02*
X36953006Y-107340028D01*
X36953006Y-108768600D02*
X36810148Y-108840028D01*
X36810148Y-108840028D02*
X36524434Y-108840028D01*
X36524434Y-108840028D02*
X36381577Y-108768600D01*
X36381577Y-108768600D02*
X36310148Y-108697171D01*
X36310148Y-108697171D02*
X36238720Y-108554314D01*
X36238720Y-108554314D02*
X36238720Y-108125742D01*
X36238720Y-108125742D02*
X36310148Y-107982885D01*
X36310148Y-107982885D02*
X36381577Y-107911457D01*
X36381577Y-107911457D02*
X36524434Y-107840028D01*
X36524434Y-107840028D02*
X36810148Y-107840028D01*
X36810148Y-107840028D02*
X36953006Y-107911457D01*
X39453006Y-108768600D02*
X39310148Y-108840028D01*
X39310148Y-108840028D02*
X39024434Y-108840028D01*
X39024434Y-108840028D02*
X38881577Y-108768600D01*
X38881577Y-108768600D02*
X38810148Y-108697171D01*
X38810148Y-108697171D02*
X38738720Y-108554314D01*
X38738720Y-108554314D02*
X38738720Y-108125742D01*
X38738720Y-108125742D02*
X38810148Y-107982885D01*
X38810148Y-107982885D02*
X38881577Y-107911457D01*
X38881577Y-107911457D02*
X39024434Y-107840028D01*
X39024434Y-107840028D02*
X39310148Y-107840028D01*
X39310148Y-107840028D02*
X39453006Y-107911457D01*
X40310148Y-108840028D02*
X40167291Y-108768600D01*
X40167291Y-108768600D02*
X40095862Y-108697171D01*
X40095862Y-108697171D02*
X40024434Y-108554314D01*
X40024434Y-108554314D02*
X40024434Y-108125742D01*
X40024434Y-108125742D02*
X40095862Y-107982885D01*
X40095862Y-107982885D02*
X40167291Y-107911457D01*
X40167291Y-107911457D02*
X40310148Y-107840028D01*
X40310148Y-107840028D02*
X40524434Y-107840028D01*
X40524434Y-107840028D02*
X40667291Y-107911457D01*
X40667291Y-107911457D02*
X40738720Y-107982885D01*
X40738720Y-107982885D02*
X40810148Y-108125742D01*
X40810148Y-108125742D02*
X40810148Y-108554314D01*
X40810148Y-108554314D02*
X40738720Y-108697171D01*
X40738720Y-108697171D02*
X40667291Y-108768600D01*
X40667291Y-108768600D02*
X40524434Y-108840028D01*
X40524434Y-108840028D02*
X40310148Y-108840028D01*
X41453005Y-107840028D02*
X41453005Y-108840028D01*
X41453005Y-107982885D02*
X41524434Y-107911457D01*
X41524434Y-107911457D02*
X41667291Y-107840028D01*
X41667291Y-107840028D02*
X41881577Y-107840028D01*
X41881577Y-107840028D02*
X42024434Y-107911457D01*
X42024434Y-107911457D02*
X42095863Y-108054314D01*
X42095863Y-108054314D02*
X42095863Y-108840028D01*
X42810148Y-107840028D02*
X42810148Y-108840028D01*
X42810148Y-107982885D02*
X42881577Y-107911457D01*
X42881577Y-107911457D02*
X43024434Y-107840028D01*
X43024434Y-107840028D02*
X43238720Y-107840028D01*
X43238720Y-107840028D02*
X43381577Y-107911457D01*
X43381577Y-107911457D02*
X43453006Y-108054314D01*
X43453006Y-108054314D02*
X43453006Y-108840028D01*
X44738720Y-108768600D02*
X44595863Y-108840028D01*
X44595863Y-108840028D02*
X44310149Y-108840028D01*
X44310149Y-108840028D02*
X44167291Y-108768600D01*
X44167291Y-108768600D02*
X44095863Y-108625742D01*
X44095863Y-108625742D02*
X44095863Y-108054314D01*
X44095863Y-108054314D02*
X44167291Y-107911457D01*
X44167291Y-107911457D02*
X44310149Y-107840028D01*
X44310149Y-107840028D02*
X44595863Y-107840028D01*
X44595863Y-107840028D02*
X44738720Y-107911457D01*
X44738720Y-107911457D02*
X44810149Y-108054314D01*
X44810149Y-108054314D02*
X44810149Y-108197171D01*
X44810149Y-108197171D02*
X44095863Y-108340028D01*
X46095863Y-108768600D02*
X45953005Y-108840028D01*
X45953005Y-108840028D02*
X45667291Y-108840028D01*
X45667291Y-108840028D02*
X45524434Y-108768600D01*
X45524434Y-108768600D02*
X45453005Y-108697171D01*
X45453005Y-108697171D02*
X45381577Y-108554314D01*
X45381577Y-108554314D02*
X45381577Y-108125742D01*
X45381577Y-108125742D02*
X45453005Y-107982885D01*
X45453005Y-107982885D02*
X45524434Y-107911457D01*
X45524434Y-107911457D02*
X45667291Y-107840028D01*
X45667291Y-107840028D02*
X45953005Y-107840028D01*
X45953005Y-107840028D02*
X46095863Y-107911457D01*
X46524434Y-107840028D02*
X47095862Y-107840028D01*
X46738719Y-107340028D02*
X46738719Y-108625742D01*
X46738719Y-108625742D02*
X46810148Y-108768600D01*
X46810148Y-108768600D02*
X46953005Y-108840028D01*
X46953005Y-108840028D02*
X47095862Y-108840028D01*
X47810148Y-108840028D02*
X47667291Y-108768600D01*
X47667291Y-108768600D02*
X47595862Y-108697171D01*
X47595862Y-108697171D02*
X47524434Y-108554314D01*
X47524434Y-108554314D02*
X47524434Y-108125742D01*
X47524434Y-108125742D02*
X47595862Y-107982885D01*
X47595862Y-107982885D02*
X47667291Y-107911457D01*
X47667291Y-107911457D02*
X47810148Y-107840028D01*
X47810148Y-107840028D02*
X48024434Y-107840028D01*
X48024434Y-107840028D02*
X48167291Y-107911457D01*
X48167291Y-107911457D02*
X48238720Y-107982885D01*
X48238720Y-107982885D02*
X48310148Y-108125742D01*
X48310148Y-108125742D02*
X48310148Y-108554314D01*
X48310148Y-108554314D02*
X48238720Y-108697171D01*
X48238720Y-108697171D02*
X48167291Y-108768600D01*
X48167291Y-108768600D02*
X48024434Y-108840028D01*
X48024434Y-108840028D02*
X47810148Y-108840028D01*
X48953005Y-108840028D02*
X48953005Y-107840028D01*
X48953005Y-108125742D02*
X49024434Y-107982885D01*
X49024434Y-107982885D02*
X49095863Y-107911457D01*
X49095863Y-107911457D02*
X49238720Y-107840028D01*
X49238720Y-107840028D02*
X49381577Y-107840028D01*
X49810148Y-108768600D02*
X49953005Y-108840028D01*
X49953005Y-108840028D02*
X50238719Y-108840028D01*
X50238719Y-108840028D02*
X50381576Y-108768600D01*
X50381576Y-108768600D02*
X50453005Y-108625742D01*
X50453005Y-108625742D02*
X50453005Y-108554314D01*
X50453005Y-108554314D02*
X50381576Y-108411457D01*
X50381576Y-108411457D02*
X50238719Y-108340028D01*
X50238719Y-108340028D02*
X50024434Y-108340028D01*
X50024434Y-108340028D02*
X49881576Y-108268600D01*
X49881576Y-108268600D02*
X49810148Y-108125742D01*
X49810148Y-108125742D02*
X49810148Y-108054314D01*
X49810148Y-108054314D02*
X49881576Y-107911457D01*
X49881576Y-107911457D02*
X50024434Y-107840028D01*
X50024434Y-107840028D02*
X50238719Y-107840028D01*
X50238719Y-107840028D02*
X50381576Y-107911457D01*
X51095862Y-108697171D02*
X51167291Y-108768600D01*
X51167291Y-108768600D02*
X51095862Y-108840028D01*
X51095862Y-108840028D02*
X51024434Y-108768600D01*
X51024434Y-108768600D02*
X51095862Y-108697171D01*
X51095862Y-108697171D02*
X51095862Y-108840028D01*
X51095862Y-107911457D02*
X51167291Y-107982885D01*
X51167291Y-107982885D02*
X51095862Y-108054314D01*
X51095862Y-108054314D02*
X51024434Y-107982885D01*
X51024434Y-107982885D02*
X51095862Y-107911457D01*
X51095862Y-107911457D02*
X51095862Y-108054314D01*
X94481572Y-96969028D02*
X94481572Y-95469028D01*
X94481572Y-95469028D02*
X94981572Y-96540457D01*
X94981572Y-96540457D02*
X95481572Y-95469028D01*
X95481572Y-95469028D02*
X95481572Y-96969028D01*
X96195858Y-96969028D02*
X96195858Y-95969028D01*
X96195858Y-95469028D02*
X96124430Y-95540457D01*
X96124430Y-95540457D02*
X96195858Y-95611885D01*
X96195858Y-95611885D02*
X96267287Y-95540457D01*
X96267287Y-95540457D02*
X96195858Y-95469028D01*
X96195858Y-95469028D02*
X96195858Y-95611885D01*
X96910144Y-95969028D02*
X96910144Y-96969028D01*
X96910144Y-96111885D02*
X96981573Y-96040457D01*
X96981573Y-96040457D02*
X97124430Y-95969028D01*
X97124430Y-95969028D02*
X97338716Y-95969028D01*
X97338716Y-95969028D02*
X97481573Y-96040457D01*
X97481573Y-96040457D02*
X97553002Y-96183314D01*
X97553002Y-96183314D02*
X97553002Y-96969028D01*
X99410144Y-96969028D02*
X99410144Y-95469028D01*
X100053002Y-96969028D02*
X100053002Y-96183314D01*
X100053002Y-96183314D02*
X99981573Y-96040457D01*
X99981573Y-96040457D02*
X99838716Y-95969028D01*
X99838716Y-95969028D02*
X99624430Y-95969028D01*
X99624430Y-95969028D02*
X99481573Y-96040457D01*
X99481573Y-96040457D02*
X99410144Y-96111885D01*
X100981573Y-96969028D02*
X100838716Y-96897600D01*
X100838716Y-96897600D02*
X100767287Y-96826171D01*
X100767287Y-96826171D02*
X100695859Y-96683314D01*
X100695859Y-96683314D02*
X100695859Y-96254742D01*
X100695859Y-96254742D02*
X100767287Y-96111885D01*
X100767287Y-96111885D02*
X100838716Y-96040457D01*
X100838716Y-96040457D02*
X100981573Y-95969028D01*
X100981573Y-95969028D02*
X101195859Y-95969028D01*
X101195859Y-95969028D02*
X101338716Y-96040457D01*
X101338716Y-96040457D02*
X101410145Y-96111885D01*
X101410145Y-96111885D02*
X101481573Y-96254742D01*
X101481573Y-96254742D02*
X101481573Y-96683314D01*
X101481573Y-96683314D02*
X101410145Y-96826171D01*
X101410145Y-96826171D02*
X101338716Y-96897600D01*
X101338716Y-96897600D02*
X101195859Y-96969028D01*
X101195859Y-96969028D02*
X100981573Y-96969028D01*
X102338716Y-96969028D02*
X102195859Y-96897600D01*
X102195859Y-96897600D02*
X102124430Y-96754742D01*
X102124430Y-96754742D02*
X102124430Y-95469028D01*
X103481573Y-96897600D02*
X103338716Y-96969028D01*
X103338716Y-96969028D02*
X103053002Y-96969028D01*
X103053002Y-96969028D02*
X102910144Y-96897600D01*
X102910144Y-96897600D02*
X102838716Y-96754742D01*
X102838716Y-96754742D02*
X102838716Y-96183314D01*
X102838716Y-96183314D02*
X102910144Y-96040457D01*
X102910144Y-96040457D02*
X103053002Y-95969028D01*
X103053002Y-95969028D02*
X103338716Y-95969028D01*
X103338716Y-95969028D02*
X103481573Y-96040457D01*
X103481573Y-96040457D02*
X103553002Y-96183314D01*
X103553002Y-96183314D02*
X103553002Y-96326171D01*
X103553002Y-96326171D02*
X102838716Y-96469028D01*
X105981573Y-96969028D02*
X105981573Y-95469028D01*
X105981573Y-96897600D02*
X105838715Y-96969028D01*
X105838715Y-96969028D02*
X105553001Y-96969028D01*
X105553001Y-96969028D02*
X105410144Y-96897600D01*
X105410144Y-96897600D02*
X105338715Y-96826171D01*
X105338715Y-96826171D02*
X105267287Y-96683314D01*
X105267287Y-96683314D02*
X105267287Y-96254742D01*
X105267287Y-96254742D02*
X105338715Y-96111885D01*
X105338715Y-96111885D02*
X105410144Y-96040457D01*
X105410144Y-96040457D02*
X105553001Y-95969028D01*
X105553001Y-95969028D02*
X105838715Y-95969028D01*
X105838715Y-95969028D02*
X105981573Y-96040457D01*
X106695858Y-96969028D02*
X106695858Y-95969028D01*
X106695858Y-95469028D02*
X106624430Y-95540457D01*
X106624430Y-95540457D02*
X106695858Y-95611885D01*
X106695858Y-95611885D02*
X106767287Y-95540457D01*
X106767287Y-95540457D02*
X106695858Y-95469028D01*
X106695858Y-95469028D02*
X106695858Y-95611885D01*
X108053002Y-96969028D02*
X108053002Y-96183314D01*
X108053002Y-96183314D02*
X107981573Y-96040457D01*
X107981573Y-96040457D02*
X107838716Y-95969028D01*
X107838716Y-95969028D02*
X107553002Y-95969028D01*
X107553002Y-95969028D02*
X107410144Y-96040457D01*
X108053002Y-96897600D02*
X107910144Y-96969028D01*
X107910144Y-96969028D02*
X107553002Y-96969028D01*
X107553002Y-96969028D02*
X107410144Y-96897600D01*
X107410144Y-96897600D02*
X107338716Y-96754742D01*
X107338716Y-96754742D02*
X107338716Y-96611885D01*
X107338716Y-96611885D02*
X107410144Y-96469028D01*
X107410144Y-96469028D02*
X107553002Y-96397600D01*
X107553002Y-96397600D02*
X107910144Y-96397600D01*
X107910144Y-96397600D02*
X108053002Y-96326171D01*
X108767287Y-96969028D02*
X108767287Y-95969028D01*
X108767287Y-96111885D02*
X108838716Y-96040457D01*
X108838716Y-96040457D02*
X108981573Y-95969028D01*
X108981573Y-95969028D02*
X109195859Y-95969028D01*
X109195859Y-95969028D02*
X109338716Y-96040457D01*
X109338716Y-96040457D02*
X109410145Y-96183314D01*
X109410145Y-96183314D02*
X109410145Y-96969028D01*
X109410145Y-96183314D02*
X109481573Y-96040457D01*
X109481573Y-96040457D02*
X109624430Y-95969028D01*
X109624430Y-95969028D02*
X109838716Y-95969028D01*
X109838716Y-95969028D02*
X109981573Y-96040457D01*
X109981573Y-96040457D02*
X110053002Y-96183314D01*
X110053002Y-96183314D02*
X110053002Y-96969028D01*
X111338716Y-96897600D02*
X111195859Y-96969028D01*
X111195859Y-96969028D02*
X110910145Y-96969028D01*
X110910145Y-96969028D02*
X110767287Y-96897600D01*
X110767287Y-96897600D02*
X110695859Y-96754742D01*
X110695859Y-96754742D02*
X110695859Y-96183314D01*
X110695859Y-96183314D02*
X110767287Y-96040457D01*
X110767287Y-96040457D02*
X110910145Y-95969028D01*
X110910145Y-95969028D02*
X111195859Y-95969028D01*
X111195859Y-95969028D02*
X111338716Y-96040457D01*
X111338716Y-96040457D02*
X111410145Y-96183314D01*
X111410145Y-96183314D02*
X111410145Y-96326171D01*
X111410145Y-96326171D02*
X110695859Y-96469028D01*
X111838716Y-95969028D02*
X112410144Y-95969028D01*
X112053001Y-95469028D02*
X112053001Y-96754742D01*
X112053001Y-96754742D02*
X112124430Y-96897600D01*
X112124430Y-96897600D02*
X112267287Y-96969028D01*
X112267287Y-96969028D02*
X112410144Y-96969028D01*
X113481573Y-96897600D02*
X113338716Y-96969028D01*
X113338716Y-96969028D02*
X113053002Y-96969028D01*
X113053002Y-96969028D02*
X112910144Y-96897600D01*
X112910144Y-96897600D02*
X112838716Y-96754742D01*
X112838716Y-96754742D02*
X112838716Y-96183314D01*
X112838716Y-96183314D02*
X112910144Y-96040457D01*
X112910144Y-96040457D02*
X113053002Y-95969028D01*
X113053002Y-95969028D02*
X113338716Y-95969028D01*
X113338716Y-95969028D02*
X113481573Y-96040457D01*
X113481573Y-96040457D02*
X113553002Y-96183314D01*
X113553002Y-96183314D02*
X113553002Y-96326171D01*
X113553002Y-96326171D02*
X112838716Y-96469028D01*
X114195858Y-96969028D02*
X114195858Y-95969028D01*
X114195858Y-96254742D02*
X114267287Y-96111885D01*
X114267287Y-96111885D02*
X114338716Y-96040457D01*
X114338716Y-96040457D02*
X114481573Y-95969028D01*
X114481573Y-95969028D02*
X114624430Y-95969028D01*
X115124429Y-96826171D02*
X115195858Y-96897600D01*
X115195858Y-96897600D02*
X115124429Y-96969028D01*
X115124429Y-96969028D02*
X115053001Y-96897600D01*
X115053001Y-96897600D02*
X115124429Y-96826171D01*
X115124429Y-96826171D02*
X115124429Y-96969028D01*
X115124429Y-96040457D02*
X115195858Y-96111885D01*
X115195858Y-96111885D02*
X115124429Y-96183314D01*
X115124429Y-96183314D02*
X115053001Y-96111885D01*
X115053001Y-96111885D02*
X115124429Y-96040457D01*
X115124429Y-96040457D02*
X115124429Y-96183314D01*
X58895863Y-108840028D02*
X58895863Y-107340028D01*
X58895863Y-107340028D02*
X59753006Y-108840028D01*
X59753006Y-108840028D02*
X59753006Y-107340028D01*
X60681578Y-108840028D02*
X60538721Y-108768600D01*
X60538721Y-108768600D02*
X60467292Y-108697171D01*
X60467292Y-108697171D02*
X60395864Y-108554314D01*
X60395864Y-108554314D02*
X60395864Y-108125742D01*
X60395864Y-108125742D02*
X60467292Y-107982885D01*
X60467292Y-107982885D02*
X60538721Y-107911457D01*
X60538721Y-107911457D02*
X60681578Y-107840028D01*
X60681578Y-107840028D02*
X60895864Y-107840028D01*
X60895864Y-107840028D02*
X61038721Y-107911457D01*
X61038721Y-107911457D02*
X61110150Y-107982885D01*
X61110150Y-107982885D02*
X61181578Y-108125742D01*
X61181578Y-108125742D02*
X61181578Y-108554314D01*
X61181578Y-108554314D02*
X61110150Y-108697171D01*
X61110150Y-108697171D02*
X61038721Y-108768600D01*
X61038721Y-108768600D02*
X60895864Y-108840028D01*
X60895864Y-108840028D02*
X60681578Y-108840028D01*
X58824435Y-87697885D02*
X58895863Y-87626457D01*
X58895863Y-87626457D02*
X59038721Y-87555028D01*
X59038721Y-87555028D02*
X59395863Y-87555028D01*
X59395863Y-87555028D02*
X59538721Y-87626457D01*
X59538721Y-87626457D02*
X59610149Y-87697885D01*
X59610149Y-87697885D02*
X59681578Y-87840742D01*
X59681578Y-87840742D02*
X59681578Y-87983600D01*
X59681578Y-87983600D02*
X59610149Y-88197885D01*
X59610149Y-88197885D02*
X58753006Y-89055028D01*
X58753006Y-89055028D02*
X59681578Y-89055028D01*
X59181578Y-95469028D02*
X59324435Y-95469028D01*
X59324435Y-95469028D02*
X59467292Y-95540457D01*
X59467292Y-95540457D02*
X59538721Y-95611885D01*
X59538721Y-95611885D02*
X59610149Y-95754742D01*
X59610149Y-95754742D02*
X59681578Y-96040457D01*
X59681578Y-96040457D02*
X59681578Y-96397600D01*
X59681578Y-96397600D02*
X59610149Y-96683314D01*
X59610149Y-96683314D02*
X59538721Y-96826171D01*
X59538721Y-96826171D02*
X59467292Y-96897600D01*
X59467292Y-96897600D02*
X59324435Y-96969028D01*
X59324435Y-96969028D02*
X59181578Y-96969028D01*
X59181578Y-96969028D02*
X59038721Y-96897600D01*
X59038721Y-96897600D02*
X58967292Y-96826171D01*
X58967292Y-96826171D02*
X58895863Y-96683314D01*
X58895863Y-96683314D02*
X58824435Y-96397600D01*
X58824435Y-96397600D02*
X58824435Y-96040457D01*
X58824435Y-96040457D02*
X58895863Y-95754742D01*
X58895863Y-95754742D02*
X58967292Y-95611885D01*
X58967292Y-95611885D02*
X59038721Y-95540457D01*
X59038721Y-95540457D02*
X59181578Y-95469028D01*
X60324434Y-96826171D02*
X60395863Y-96897600D01*
X60395863Y-96897600D02*
X60324434Y-96969028D01*
X60324434Y-96969028D02*
X60253006Y-96897600D01*
X60253006Y-96897600D02*
X60324434Y-96826171D01*
X60324434Y-96826171D02*
X60324434Y-96969028D01*
X61824435Y-96969028D02*
X60967292Y-96969028D01*
X61395863Y-96969028D02*
X61395863Y-95469028D01*
X61395863Y-95469028D02*
X61253006Y-95683314D01*
X61253006Y-95683314D02*
X61110149Y-95826171D01*
X61110149Y-95826171D02*
X60967292Y-95897600D01*
X63181577Y-95469028D02*
X62467291Y-95469028D01*
X62467291Y-95469028D02*
X62395863Y-96183314D01*
X62395863Y-96183314D02*
X62467291Y-96111885D01*
X62467291Y-96111885D02*
X62610149Y-96040457D01*
X62610149Y-96040457D02*
X62967291Y-96040457D01*
X62967291Y-96040457D02*
X63110149Y-96111885D01*
X63110149Y-96111885D02*
X63181577Y-96183314D01*
X63181577Y-96183314D02*
X63253006Y-96326171D01*
X63253006Y-96326171D02*
X63253006Y-96683314D01*
X63253006Y-96683314D02*
X63181577Y-96826171D01*
X63181577Y-96826171D02*
X63110149Y-96897600D01*
X63110149Y-96897600D02*
X62967291Y-96969028D01*
X62967291Y-96969028D02*
X62610149Y-96969028D01*
X62610149Y-96969028D02*
X62467291Y-96897600D01*
X62467291Y-96897600D02*
X62395863Y-96826171D01*
X63824434Y-95611885D02*
X63895862Y-95540457D01*
X63895862Y-95540457D02*
X64038720Y-95469028D01*
X64038720Y-95469028D02*
X64395862Y-95469028D01*
X64395862Y-95469028D02*
X64538720Y-95540457D01*
X64538720Y-95540457D02*
X64610148Y-95611885D01*
X64610148Y-95611885D02*
X64681577Y-95754742D01*
X64681577Y-95754742D02*
X64681577Y-95897600D01*
X64681577Y-95897600D02*
X64610148Y-96111885D01*
X64610148Y-96111885D02*
X63753005Y-96969028D01*
X63753005Y-96969028D02*
X64681577Y-96969028D01*
X65967291Y-95969028D02*
X65967291Y-96969028D01*
X65610148Y-95397600D02*
X65253005Y-96469028D01*
X65253005Y-96469028D02*
X66181576Y-96469028D01*
X67895861Y-96969028D02*
X67895861Y-95969028D01*
X67895861Y-96111885D02*
X67967290Y-96040457D01*
X67967290Y-96040457D02*
X68110147Y-95969028D01*
X68110147Y-95969028D02*
X68324433Y-95969028D01*
X68324433Y-95969028D02*
X68467290Y-96040457D01*
X68467290Y-96040457D02*
X68538719Y-96183314D01*
X68538719Y-96183314D02*
X68538719Y-96969028D01*
X68538719Y-96183314D02*
X68610147Y-96040457D01*
X68610147Y-96040457D02*
X68753004Y-95969028D01*
X68753004Y-95969028D02*
X68967290Y-95969028D01*
X68967290Y-95969028D02*
X69110147Y-96040457D01*
X69110147Y-96040457D02*
X69181576Y-96183314D01*
X69181576Y-96183314D02*
X69181576Y-96969028D01*
X69895861Y-96969028D02*
X69895861Y-95969028D01*
X69895861Y-96111885D02*
X69967290Y-96040457D01*
X69967290Y-96040457D02*
X70110147Y-95969028D01*
X70110147Y-95969028D02*
X70324433Y-95969028D01*
X70324433Y-95969028D02*
X70467290Y-96040457D01*
X70467290Y-96040457D02*
X70538719Y-96183314D01*
X70538719Y-96183314D02*
X70538719Y-96969028D01*
X70538719Y-96183314D02*
X70610147Y-96040457D01*
X70610147Y-96040457D02*
X70753004Y-95969028D01*
X70753004Y-95969028D02*
X70967290Y-95969028D01*
X70967290Y-95969028D02*
X71110147Y-96040457D01*
X71110147Y-96040457D02*
X71181576Y-96183314D01*
X71181576Y-96183314D02*
X71181576Y-96969028D01*
X74110147Y-95397600D02*
X72824433Y-97326171D01*
X76038719Y-95469028D02*
X76181576Y-95469028D01*
X76181576Y-95469028D02*
X76324433Y-95540457D01*
X76324433Y-95540457D02*
X76395862Y-95611885D01*
X76395862Y-95611885D02*
X76467290Y-95754742D01*
X76467290Y-95754742D02*
X76538719Y-96040457D01*
X76538719Y-96040457D02*
X76538719Y-96397600D01*
X76538719Y-96397600D02*
X76467290Y-96683314D01*
X76467290Y-96683314D02*
X76395862Y-96826171D01*
X76395862Y-96826171D02*
X76324433Y-96897600D01*
X76324433Y-96897600D02*
X76181576Y-96969028D01*
X76181576Y-96969028D02*
X76038719Y-96969028D01*
X76038719Y-96969028D02*
X75895862Y-96897600D01*
X75895862Y-96897600D02*
X75824433Y-96826171D01*
X75824433Y-96826171D02*
X75753004Y-96683314D01*
X75753004Y-96683314D02*
X75681576Y-96397600D01*
X75681576Y-96397600D02*
X75681576Y-96040457D01*
X75681576Y-96040457D02*
X75753004Y-95754742D01*
X75753004Y-95754742D02*
X75824433Y-95611885D01*
X75824433Y-95611885D02*
X75895862Y-95540457D01*
X75895862Y-95540457D02*
X76038719Y-95469028D01*
X77181575Y-96826171D02*
X77253004Y-96897600D01*
X77253004Y-96897600D02*
X77181575Y-96969028D01*
X77181575Y-96969028D02*
X77110147Y-96897600D01*
X77110147Y-96897600D02*
X77181575Y-96826171D01*
X77181575Y-96826171D02*
X77181575Y-96969028D01*
X78681576Y-96969028D02*
X77824433Y-96969028D01*
X78253004Y-96969028D02*
X78253004Y-95469028D01*
X78253004Y-95469028D02*
X78110147Y-95683314D01*
X78110147Y-95683314D02*
X77967290Y-95826171D01*
X77967290Y-95826171D02*
X77824433Y-95897600D01*
X80038718Y-95469028D02*
X79324432Y-95469028D01*
X79324432Y-95469028D02*
X79253004Y-96183314D01*
X79253004Y-96183314D02*
X79324432Y-96111885D01*
X79324432Y-96111885D02*
X79467290Y-96040457D01*
X79467290Y-96040457D02*
X79824432Y-96040457D01*
X79824432Y-96040457D02*
X79967290Y-96111885D01*
X79967290Y-96111885D02*
X80038718Y-96183314D01*
X80038718Y-96183314D02*
X80110147Y-96326171D01*
X80110147Y-96326171D02*
X80110147Y-96683314D01*
X80110147Y-96683314D02*
X80038718Y-96826171D01*
X80038718Y-96826171D02*
X79967290Y-96897600D01*
X79967290Y-96897600D02*
X79824432Y-96969028D01*
X79824432Y-96969028D02*
X79467290Y-96969028D01*
X79467290Y-96969028D02*
X79324432Y-96897600D01*
X79324432Y-96897600D02*
X79253004Y-96826171D01*
X80681575Y-95611885D02*
X80753003Y-95540457D01*
X80753003Y-95540457D02*
X80895861Y-95469028D01*
X80895861Y-95469028D02*
X81253003Y-95469028D01*
X81253003Y-95469028D02*
X81395861Y-95540457D01*
X81395861Y-95540457D02*
X81467289Y-95611885D01*
X81467289Y-95611885D02*
X81538718Y-95754742D01*
X81538718Y-95754742D02*
X81538718Y-95897600D01*
X81538718Y-95897600D02*
X81467289Y-96111885D01*
X81467289Y-96111885D02*
X80610146Y-96969028D01*
X80610146Y-96969028D02*
X81538718Y-96969028D01*
X82824432Y-95969028D02*
X82824432Y-96969028D01*
X82467289Y-95397600D02*
X82110146Y-96469028D01*
X82110146Y-96469028D02*
X83038717Y-96469028D01*
X84753002Y-96969028D02*
X84753002Y-95969028D01*
X84753002Y-96111885D02*
X84824431Y-96040457D01*
X84824431Y-96040457D02*
X84967288Y-95969028D01*
X84967288Y-95969028D02*
X85181574Y-95969028D01*
X85181574Y-95969028D02*
X85324431Y-96040457D01*
X85324431Y-96040457D02*
X85395860Y-96183314D01*
X85395860Y-96183314D02*
X85395860Y-96969028D01*
X85395860Y-96183314D02*
X85467288Y-96040457D01*
X85467288Y-96040457D02*
X85610145Y-95969028D01*
X85610145Y-95969028D02*
X85824431Y-95969028D01*
X85824431Y-95969028D02*
X85967288Y-96040457D01*
X85967288Y-96040457D02*
X86038717Y-96183314D01*
X86038717Y-96183314D02*
X86038717Y-96969028D01*
X86753002Y-96969028D02*
X86753002Y-95969028D01*
X86753002Y-96111885D02*
X86824431Y-96040457D01*
X86824431Y-96040457D02*
X86967288Y-95969028D01*
X86967288Y-95969028D02*
X87181574Y-95969028D01*
X87181574Y-95969028D02*
X87324431Y-96040457D01*
X87324431Y-96040457D02*
X87395860Y-96183314D01*
X87395860Y-96183314D02*
X87395860Y-96969028D01*
X87395860Y-96183314D02*
X87467288Y-96040457D01*
X87467288Y-96040457D02*
X87610145Y-95969028D01*
X87610145Y-95969028D02*
X87824431Y-95969028D01*
X87824431Y-95969028D02*
X87967288Y-96040457D01*
X87967288Y-96040457D02*
X88038717Y-96183314D01*
X88038717Y-96183314D02*
X88038717Y-96969028D01*
X59610149Y-91512028D02*
X58895863Y-91512028D01*
X58895863Y-91512028D02*
X58824435Y-92226314D01*
X58824435Y-92226314D02*
X58895863Y-92154885D01*
X58895863Y-92154885D02*
X59038721Y-92083457D01*
X59038721Y-92083457D02*
X59395863Y-92083457D01*
X59395863Y-92083457D02*
X59538721Y-92154885D01*
X59538721Y-92154885D02*
X59610149Y-92226314D01*
X59610149Y-92226314D02*
X59681578Y-92369171D01*
X59681578Y-92369171D02*
X59681578Y-92726314D01*
X59681578Y-92726314D02*
X59610149Y-92869171D01*
X59610149Y-92869171D02*
X59538721Y-92940600D01*
X59538721Y-92940600D02*
X59395863Y-93012028D01*
X59395863Y-93012028D02*
X59038721Y-93012028D01*
X59038721Y-93012028D02*
X58895863Y-92940600D01*
X58895863Y-92940600D02*
X58824435Y-92869171D01*
X60967292Y-92012028D02*
X60967292Y-93012028D01*
X60610149Y-91440600D02*
X60253006Y-92512028D01*
X60253006Y-92512028D02*
X61181577Y-92512028D01*
X61967291Y-92154885D02*
X61824434Y-92083457D01*
X61824434Y-92083457D02*
X61753005Y-92012028D01*
X61753005Y-92012028D02*
X61681577Y-91869171D01*
X61681577Y-91869171D02*
X61681577Y-91797742D01*
X61681577Y-91797742D02*
X61753005Y-91654885D01*
X61753005Y-91654885D02*
X61824434Y-91583457D01*
X61824434Y-91583457D02*
X61967291Y-91512028D01*
X61967291Y-91512028D02*
X62253005Y-91512028D01*
X62253005Y-91512028D02*
X62395863Y-91583457D01*
X62395863Y-91583457D02*
X62467291Y-91654885D01*
X62467291Y-91654885D02*
X62538720Y-91797742D01*
X62538720Y-91797742D02*
X62538720Y-91869171D01*
X62538720Y-91869171D02*
X62467291Y-92012028D01*
X62467291Y-92012028D02*
X62395863Y-92083457D01*
X62395863Y-92083457D02*
X62253005Y-92154885D01*
X62253005Y-92154885D02*
X61967291Y-92154885D01*
X61967291Y-92154885D02*
X61824434Y-92226314D01*
X61824434Y-92226314D02*
X61753005Y-92297742D01*
X61753005Y-92297742D02*
X61681577Y-92440600D01*
X61681577Y-92440600D02*
X61681577Y-92726314D01*
X61681577Y-92726314D02*
X61753005Y-92869171D01*
X61753005Y-92869171D02*
X61824434Y-92940600D01*
X61824434Y-92940600D02*
X61967291Y-93012028D01*
X61967291Y-93012028D02*
X62253005Y-93012028D01*
X62253005Y-93012028D02*
X62395863Y-92940600D01*
X62395863Y-92940600D02*
X62467291Y-92869171D01*
X62467291Y-92869171D02*
X62538720Y-92726314D01*
X62538720Y-92726314D02*
X62538720Y-92440600D01*
X62538720Y-92440600D02*
X62467291Y-92297742D01*
X62467291Y-92297742D02*
X62395863Y-92226314D01*
X62395863Y-92226314D02*
X62253005Y-92154885D01*
X63181576Y-92869171D02*
X63253005Y-92940600D01*
X63253005Y-92940600D02*
X63181576Y-93012028D01*
X63181576Y-93012028D02*
X63110148Y-92940600D01*
X63110148Y-92940600D02*
X63181576Y-92869171D01*
X63181576Y-92869171D02*
X63181576Y-93012028D01*
X64181577Y-91512028D02*
X64324434Y-91512028D01*
X64324434Y-91512028D02*
X64467291Y-91583457D01*
X64467291Y-91583457D02*
X64538720Y-91654885D01*
X64538720Y-91654885D02*
X64610148Y-91797742D01*
X64610148Y-91797742D02*
X64681577Y-92083457D01*
X64681577Y-92083457D02*
X64681577Y-92440600D01*
X64681577Y-92440600D02*
X64610148Y-92726314D01*
X64610148Y-92726314D02*
X64538720Y-92869171D01*
X64538720Y-92869171D02*
X64467291Y-92940600D01*
X64467291Y-92940600D02*
X64324434Y-93012028D01*
X64324434Y-93012028D02*
X64181577Y-93012028D01*
X64181577Y-93012028D02*
X64038720Y-92940600D01*
X64038720Y-92940600D02*
X63967291Y-92869171D01*
X63967291Y-92869171D02*
X63895862Y-92726314D01*
X63895862Y-92726314D02*
X63824434Y-92440600D01*
X63824434Y-92440600D02*
X63824434Y-92083457D01*
X63824434Y-92083457D02*
X63895862Y-91797742D01*
X63895862Y-91797742D02*
X63967291Y-91654885D01*
X63967291Y-91654885D02*
X64038720Y-91583457D01*
X64038720Y-91583457D02*
X64181577Y-91512028D01*
X65610148Y-91512028D02*
X65753005Y-91512028D01*
X65753005Y-91512028D02*
X65895862Y-91583457D01*
X65895862Y-91583457D02*
X65967291Y-91654885D01*
X65967291Y-91654885D02*
X66038719Y-91797742D01*
X66038719Y-91797742D02*
X66110148Y-92083457D01*
X66110148Y-92083457D02*
X66110148Y-92440600D01*
X66110148Y-92440600D02*
X66038719Y-92726314D01*
X66038719Y-92726314D02*
X65967291Y-92869171D01*
X65967291Y-92869171D02*
X65895862Y-92940600D01*
X65895862Y-92940600D02*
X65753005Y-93012028D01*
X65753005Y-93012028D02*
X65610148Y-93012028D01*
X65610148Y-93012028D02*
X65467291Y-92940600D01*
X65467291Y-92940600D02*
X65395862Y-92869171D01*
X65395862Y-92869171D02*
X65324433Y-92726314D01*
X65324433Y-92726314D02*
X65253005Y-92440600D01*
X65253005Y-92440600D02*
X65253005Y-92083457D01*
X65253005Y-92083457D02*
X65324433Y-91797742D01*
X65324433Y-91797742D02*
X65395862Y-91654885D01*
X65395862Y-91654885D02*
X65467291Y-91583457D01*
X65467291Y-91583457D02*
X65610148Y-91512028D01*
X67038719Y-91512028D02*
X67181576Y-91512028D01*
X67181576Y-91512028D02*
X67324433Y-91583457D01*
X67324433Y-91583457D02*
X67395862Y-91654885D01*
X67395862Y-91654885D02*
X67467290Y-91797742D01*
X67467290Y-91797742D02*
X67538719Y-92083457D01*
X67538719Y-92083457D02*
X67538719Y-92440600D01*
X67538719Y-92440600D02*
X67467290Y-92726314D01*
X67467290Y-92726314D02*
X67395862Y-92869171D01*
X67395862Y-92869171D02*
X67324433Y-92940600D01*
X67324433Y-92940600D02*
X67181576Y-93012028D01*
X67181576Y-93012028D02*
X67038719Y-93012028D01*
X67038719Y-93012028D02*
X66895862Y-92940600D01*
X66895862Y-92940600D02*
X66824433Y-92869171D01*
X66824433Y-92869171D02*
X66753004Y-92726314D01*
X66753004Y-92726314D02*
X66681576Y-92440600D01*
X66681576Y-92440600D02*
X66681576Y-92083457D01*
X66681576Y-92083457D02*
X66753004Y-91797742D01*
X66753004Y-91797742D02*
X66824433Y-91654885D01*
X66824433Y-91654885D02*
X66895862Y-91583457D01*
X66895862Y-91583457D02*
X67038719Y-91512028D01*
X68467290Y-91512028D02*
X68610147Y-91512028D01*
X68610147Y-91512028D02*
X68753004Y-91583457D01*
X68753004Y-91583457D02*
X68824433Y-91654885D01*
X68824433Y-91654885D02*
X68895861Y-91797742D01*
X68895861Y-91797742D02*
X68967290Y-92083457D01*
X68967290Y-92083457D02*
X68967290Y-92440600D01*
X68967290Y-92440600D02*
X68895861Y-92726314D01*
X68895861Y-92726314D02*
X68824433Y-92869171D01*
X68824433Y-92869171D02*
X68753004Y-92940600D01*
X68753004Y-92940600D02*
X68610147Y-93012028D01*
X68610147Y-93012028D02*
X68467290Y-93012028D01*
X68467290Y-93012028D02*
X68324433Y-92940600D01*
X68324433Y-92940600D02*
X68253004Y-92869171D01*
X68253004Y-92869171D02*
X68181575Y-92726314D01*
X68181575Y-92726314D02*
X68110147Y-92440600D01*
X68110147Y-92440600D02*
X68110147Y-92083457D01*
X68110147Y-92083457D02*
X68181575Y-91797742D01*
X68181575Y-91797742D02*
X68253004Y-91654885D01*
X68253004Y-91654885D02*
X68324433Y-91583457D01*
X68324433Y-91583457D02*
X68467290Y-91512028D01*
X70753003Y-93012028D02*
X70753003Y-92012028D01*
X70753003Y-92154885D02*
X70824432Y-92083457D01*
X70824432Y-92083457D02*
X70967289Y-92012028D01*
X70967289Y-92012028D02*
X71181575Y-92012028D01*
X71181575Y-92012028D02*
X71324432Y-92083457D01*
X71324432Y-92083457D02*
X71395861Y-92226314D01*
X71395861Y-92226314D02*
X71395861Y-93012028D01*
X71395861Y-92226314D02*
X71467289Y-92083457D01*
X71467289Y-92083457D02*
X71610146Y-92012028D01*
X71610146Y-92012028D02*
X71824432Y-92012028D01*
X71824432Y-92012028D02*
X71967289Y-92083457D01*
X71967289Y-92083457D02*
X72038718Y-92226314D01*
X72038718Y-92226314D02*
X72038718Y-93012028D01*
X72753003Y-93012028D02*
X72753003Y-92012028D01*
X72753003Y-92154885D02*
X72824432Y-92083457D01*
X72824432Y-92083457D02*
X72967289Y-92012028D01*
X72967289Y-92012028D02*
X73181575Y-92012028D01*
X73181575Y-92012028D02*
X73324432Y-92083457D01*
X73324432Y-92083457D02*
X73395861Y-92226314D01*
X73395861Y-92226314D02*
X73395861Y-93012028D01*
X73395861Y-92226314D02*
X73467289Y-92083457D01*
X73467289Y-92083457D02*
X73610146Y-92012028D01*
X73610146Y-92012028D02*
X73824432Y-92012028D01*
X73824432Y-92012028D02*
X73967289Y-92083457D01*
X73967289Y-92083457D02*
X74038718Y-92226314D01*
X74038718Y-92226314D02*
X74038718Y-93012028D01*
X75753003Y-93012028D02*
X76538718Y-92012028D01*
X75753003Y-92012028D02*
X76538718Y-93012028D01*
X78324432Y-93012028D02*
X78610146Y-93012028D01*
X78610146Y-93012028D02*
X78753003Y-92940600D01*
X78753003Y-92940600D02*
X78824432Y-92869171D01*
X78824432Y-92869171D02*
X78967289Y-92654885D01*
X78967289Y-92654885D02*
X79038718Y-92369171D01*
X79038718Y-92369171D02*
X79038718Y-91797742D01*
X79038718Y-91797742D02*
X78967289Y-91654885D01*
X78967289Y-91654885D02*
X78895861Y-91583457D01*
X78895861Y-91583457D02*
X78753003Y-91512028D01*
X78753003Y-91512028D02*
X78467289Y-91512028D01*
X78467289Y-91512028D02*
X78324432Y-91583457D01*
X78324432Y-91583457D02*
X78253003Y-91654885D01*
X78253003Y-91654885D02*
X78181575Y-91797742D01*
X78181575Y-91797742D02*
X78181575Y-92154885D01*
X78181575Y-92154885D02*
X78253003Y-92297742D01*
X78253003Y-92297742D02*
X78324432Y-92369171D01*
X78324432Y-92369171D02*
X78467289Y-92440600D01*
X78467289Y-92440600D02*
X78753003Y-92440600D01*
X78753003Y-92440600D02*
X78895861Y-92369171D01*
X78895861Y-92369171D02*
X78967289Y-92297742D01*
X78967289Y-92297742D02*
X79038718Y-92154885D01*
X79538717Y-91512028D02*
X80538717Y-91512028D01*
X80538717Y-91512028D02*
X79895860Y-93012028D01*
X81110145Y-92869171D02*
X81181574Y-92940600D01*
X81181574Y-92940600D02*
X81110145Y-93012028D01*
X81110145Y-93012028D02*
X81038717Y-92940600D01*
X81038717Y-92940600D02*
X81110145Y-92869171D01*
X81110145Y-92869171D02*
X81110145Y-93012028D01*
X82110146Y-91512028D02*
X82253003Y-91512028D01*
X82253003Y-91512028D02*
X82395860Y-91583457D01*
X82395860Y-91583457D02*
X82467289Y-91654885D01*
X82467289Y-91654885D02*
X82538717Y-91797742D01*
X82538717Y-91797742D02*
X82610146Y-92083457D01*
X82610146Y-92083457D02*
X82610146Y-92440600D01*
X82610146Y-92440600D02*
X82538717Y-92726314D01*
X82538717Y-92726314D02*
X82467289Y-92869171D01*
X82467289Y-92869171D02*
X82395860Y-92940600D01*
X82395860Y-92940600D02*
X82253003Y-93012028D01*
X82253003Y-93012028D02*
X82110146Y-93012028D01*
X82110146Y-93012028D02*
X81967289Y-92940600D01*
X81967289Y-92940600D02*
X81895860Y-92869171D01*
X81895860Y-92869171D02*
X81824431Y-92726314D01*
X81824431Y-92726314D02*
X81753003Y-92440600D01*
X81753003Y-92440600D02*
X81753003Y-92083457D01*
X81753003Y-92083457D02*
X81824431Y-91797742D01*
X81824431Y-91797742D02*
X81895860Y-91654885D01*
X81895860Y-91654885D02*
X81967289Y-91583457D01*
X81967289Y-91583457D02*
X82110146Y-91512028D01*
X83538717Y-91512028D02*
X83681574Y-91512028D01*
X83681574Y-91512028D02*
X83824431Y-91583457D01*
X83824431Y-91583457D02*
X83895860Y-91654885D01*
X83895860Y-91654885D02*
X83967288Y-91797742D01*
X83967288Y-91797742D02*
X84038717Y-92083457D01*
X84038717Y-92083457D02*
X84038717Y-92440600D01*
X84038717Y-92440600D02*
X83967288Y-92726314D01*
X83967288Y-92726314D02*
X83895860Y-92869171D01*
X83895860Y-92869171D02*
X83824431Y-92940600D01*
X83824431Y-92940600D02*
X83681574Y-93012028D01*
X83681574Y-93012028D02*
X83538717Y-93012028D01*
X83538717Y-93012028D02*
X83395860Y-92940600D01*
X83395860Y-92940600D02*
X83324431Y-92869171D01*
X83324431Y-92869171D02*
X83253002Y-92726314D01*
X83253002Y-92726314D02*
X83181574Y-92440600D01*
X83181574Y-92440600D02*
X83181574Y-92083457D01*
X83181574Y-92083457D02*
X83253002Y-91797742D01*
X83253002Y-91797742D02*
X83324431Y-91654885D01*
X83324431Y-91654885D02*
X83395860Y-91583457D01*
X83395860Y-91583457D02*
X83538717Y-91512028D01*
X84967288Y-91512028D02*
X85110145Y-91512028D01*
X85110145Y-91512028D02*
X85253002Y-91583457D01*
X85253002Y-91583457D02*
X85324431Y-91654885D01*
X85324431Y-91654885D02*
X85395859Y-91797742D01*
X85395859Y-91797742D02*
X85467288Y-92083457D01*
X85467288Y-92083457D02*
X85467288Y-92440600D01*
X85467288Y-92440600D02*
X85395859Y-92726314D01*
X85395859Y-92726314D02*
X85324431Y-92869171D01*
X85324431Y-92869171D02*
X85253002Y-92940600D01*
X85253002Y-92940600D02*
X85110145Y-93012028D01*
X85110145Y-93012028D02*
X84967288Y-93012028D01*
X84967288Y-93012028D02*
X84824431Y-92940600D01*
X84824431Y-92940600D02*
X84753002Y-92869171D01*
X84753002Y-92869171D02*
X84681573Y-92726314D01*
X84681573Y-92726314D02*
X84610145Y-92440600D01*
X84610145Y-92440600D02*
X84610145Y-92083457D01*
X84610145Y-92083457D02*
X84681573Y-91797742D01*
X84681573Y-91797742D02*
X84753002Y-91654885D01*
X84753002Y-91654885D02*
X84824431Y-91583457D01*
X84824431Y-91583457D02*
X84967288Y-91512028D01*
X86395859Y-91512028D02*
X86538716Y-91512028D01*
X86538716Y-91512028D02*
X86681573Y-91583457D01*
X86681573Y-91583457D02*
X86753002Y-91654885D01*
X86753002Y-91654885D02*
X86824430Y-91797742D01*
X86824430Y-91797742D02*
X86895859Y-92083457D01*
X86895859Y-92083457D02*
X86895859Y-92440600D01*
X86895859Y-92440600D02*
X86824430Y-92726314D01*
X86824430Y-92726314D02*
X86753002Y-92869171D01*
X86753002Y-92869171D02*
X86681573Y-92940600D01*
X86681573Y-92940600D02*
X86538716Y-93012028D01*
X86538716Y-93012028D02*
X86395859Y-93012028D01*
X86395859Y-93012028D02*
X86253002Y-92940600D01*
X86253002Y-92940600D02*
X86181573Y-92869171D01*
X86181573Y-92869171D02*
X86110144Y-92726314D01*
X86110144Y-92726314D02*
X86038716Y-92440600D01*
X86038716Y-92440600D02*
X86038716Y-92083457D01*
X86038716Y-92083457D02*
X86110144Y-91797742D01*
X86110144Y-91797742D02*
X86181573Y-91654885D01*
X86181573Y-91654885D02*
X86253002Y-91583457D01*
X86253002Y-91583457D02*
X86395859Y-91512028D01*
X88681572Y-93012028D02*
X88681572Y-92012028D01*
X88681572Y-92154885D02*
X88753001Y-92083457D01*
X88753001Y-92083457D02*
X88895858Y-92012028D01*
X88895858Y-92012028D02*
X89110144Y-92012028D01*
X89110144Y-92012028D02*
X89253001Y-92083457D01*
X89253001Y-92083457D02*
X89324430Y-92226314D01*
X89324430Y-92226314D02*
X89324430Y-93012028D01*
X89324430Y-92226314D02*
X89395858Y-92083457D01*
X89395858Y-92083457D02*
X89538715Y-92012028D01*
X89538715Y-92012028D02*
X89753001Y-92012028D01*
X89753001Y-92012028D02*
X89895858Y-92083457D01*
X89895858Y-92083457D02*
X89967287Y-92226314D01*
X89967287Y-92226314D02*
X89967287Y-93012028D01*
X90681572Y-93012028D02*
X90681572Y-92012028D01*
X90681572Y-92154885D02*
X90753001Y-92083457D01*
X90753001Y-92083457D02*
X90895858Y-92012028D01*
X90895858Y-92012028D02*
X91110144Y-92012028D01*
X91110144Y-92012028D02*
X91253001Y-92083457D01*
X91253001Y-92083457D02*
X91324430Y-92226314D01*
X91324430Y-92226314D02*
X91324430Y-93012028D01*
X91324430Y-92226314D02*
X91395858Y-92083457D01*
X91395858Y-92083457D02*
X91538715Y-92012028D01*
X91538715Y-92012028D02*
X91753001Y-92012028D01*
X91753001Y-92012028D02*
X91895858Y-92083457D01*
X91895858Y-92083457D02*
X91967287Y-92226314D01*
X91967287Y-92226314D02*
X91967287Y-93012028D01*
X119424429Y-100926028D02*
X119424429Y-99426028D01*
X119424429Y-99426028D02*
X120281572Y-100926028D01*
X120281572Y-100926028D02*
X120281572Y-99426028D01*
X121210144Y-100926028D02*
X121067287Y-100854600D01*
X121067287Y-100854600D02*
X120995858Y-100783171D01*
X120995858Y-100783171D02*
X120924430Y-100640314D01*
X120924430Y-100640314D02*
X120924430Y-100211742D01*
X120924430Y-100211742D02*
X120995858Y-100068885D01*
X120995858Y-100068885D02*
X121067287Y-99997457D01*
X121067287Y-99997457D02*
X121210144Y-99926028D01*
X121210144Y-99926028D02*
X121424430Y-99926028D01*
X121424430Y-99926028D02*
X121567287Y-99997457D01*
X121567287Y-99997457D02*
X121638716Y-100068885D01*
X121638716Y-100068885D02*
X121710144Y-100211742D01*
X121710144Y-100211742D02*
X121710144Y-100640314D01*
X121710144Y-100640314D02*
X121638716Y-100783171D01*
X121638716Y-100783171D02*
X121567287Y-100854600D01*
X121567287Y-100854600D02*
X121424430Y-100926028D01*
X121424430Y-100926028D02*
X121210144Y-100926028D01*
X27095863Y-100783171D02*
X27024435Y-100854600D01*
X27024435Y-100854600D02*
X26810149Y-100926028D01*
X26810149Y-100926028D02*
X26667292Y-100926028D01*
X26667292Y-100926028D02*
X26453006Y-100854600D01*
X26453006Y-100854600D02*
X26310149Y-100711742D01*
X26310149Y-100711742D02*
X26238720Y-100568885D01*
X26238720Y-100568885D02*
X26167292Y-100283171D01*
X26167292Y-100283171D02*
X26167292Y-100068885D01*
X26167292Y-100068885D02*
X26238720Y-99783171D01*
X26238720Y-99783171D02*
X26310149Y-99640314D01*
X26310149Y-99640314D02*
X26453006Y-99497457D01*
X26453006Y-99497457D02*
X26667292Y-99426028D01*
X26667292Y-99426028D02*
X26810149Y-99426028D01*
X26810149Y-99426028D02*
X27024435Y-99497457D01*
X27024435Y-99497457D02*
X27095863Y-99568885D01*
X27953006Y-100926028D02*
X27810149Y-100854600D01*
X27810149Y-100854600D02*
X27738720Y-100783171D01*
X27738720Y-100783171D02*
X27667292Y-100640314D01*
X27667292Y-100640314D02*
X27667292Y-100211742D01*
X27667292Y-100211742D02*
X27738720Y-100068885D01*
X27738720Y-100068885D02*
X27810149Y-99997457D01*
X27810149Y-99997457D02*
X27953006Y-99926028D01*
X27953006Y-99926028D02*
X28167292Y-99926028D01*
X28167292Y-99926028D02*
X28310149Y-99997457D01*
X28310149Y-99997457D02*
X28381578Y-100068885D01*
X28381578Y-100068885D02*
X28453006Y-100211742D01*
X28453006Y-100211742D02*
X28453006Y-100640314D01*
X28453006Y-100640314D02*
X28381578Y-100783171D01*
X28381578Y-100783171D02*
X28310149Y-100854600D01*
X28310149Y-100854600D02*
X28167292Y-100926028D01*
X28167292Y-100926028D02*
X27953006Y-100926028D01*
X29095863Y-99926028D02*
X29095863Y-101426028D01*
X29095863Y-99997457D02*
X29238721Y-99926028D01*
X29238721Y-99926028D02*
X29524435Y-99926028D01*
X29524435Y-99926028D02*
X29667292Y-99997457D01*
X29667292Y-99997457D02*
X29738721Y-100068885D01*
X29738721Y-100068885D02*
X29810149Y-100211742D01*
X29810149Y-100211742D02*
X29810149Y-100640314D01*
X29810149Y-100640314D02*
X29738721Y-100783171D01*
X29738721Y-100783171D02*
X29667292Y-100854600D01*
X29667292Y-100854600D02*
X29524435Y-100926028D01*
X29524435Y-100926028D02*
X29238721Y-100926028D01*
X29238721Y-100926028D02*
X29095863Y-100854600D01*
X30453006Y-99926028D02*
X30453006Y-101426028D01*
X30453006Y-99997457D02*
X30595864Y-99926028D01*
X30595864Y-99926028D02*
X30881578Y-99926028D01*
X30881578Y-99926028D02*
X31024435Y-99997457D01*
X31024435Y-99997457D02*
X31095864Y-100068885D01*
X31095864Y-100068885D02*
X31167292Y-100211742D01*
X31167292Y-100211742D02*
X31167292Y-100640314D01*
X31167292Y-100640314D02*
X31095864Y-100783171D01*
X31095864Y-100783171D02*
X31024435Y-100854600D01*
X31024435Y-100854600D02*
X30881578Y-100926028D01*
X30881578Y-100926028D02*
X30595864Y-100926028D01*
X30595864Y-100926028D02*
X30453006Y-100854600D01*
X32381578Y-100854600D02*
X32238721Y-100926028D01*
X32238721Y-100926028D02*
X31953007Y-100926028D01*
X31953007Y-100926028D02*
X31810149Y-100854600D01*
X31810149Y-100854600D02*
X31738721Y-100711742D01*
X31738721Y-100711742D02*
X31738721Y-100140314D01*
X31738721Y-100140314D02*
X31810149Y-99997457D01*
X31810149Y-99997457D02*
X31953007Y-99926028D01*
X31953007Y-99926028D02*
X32238721Y-99926028D01*
X32238721Y-99926028D02*
X32381578Y-99997457D01*
X32381578Y-99997457D02*
X32453007Y-100140314D01*
X32453007Y-100140314D02*
X32453007Y-100283171D01*
X32453007Y-100283171D02*
X31738721Y-100426028D01*
X33095863Y-100926028D02*
X33095863Y-99926028D01*
X33095863Y-100211742D02*
X33167292Y-100068885D01*
X33167292Y-100068885D02*
X33238721Y-99997457D01*
X33238721Y-99997457D02*
X33381578Y-99926028D01*
X33381578Y-99926028D02*
X33524435Y-99926028D01*
X35667291Y-100140314D02*
X35167291Y-100140314D01*
X35167291Y-100926028D02*
X35167291Y-99426028D01*
X35167291Y-99426028D02*
X35881577Y-99426028D01*
X36453005Y-100926028D02*
X36453005Y-99926028D01*
X36453005Y-99426028D02*
X36381577Y-99497457D01*
X36381577Y-99497457D02*
X36453005Y-99568885D01*
X36453005Y-99568885D02*
X36524434Y-99497457D01*
X36524434Y-99497457D02*
X36453005Y-99426028D01*
X36453005Y-99426028D02*
X36453005Y-99568885D01*
X37167291Y-99926028D02*
X37167291Y-100926028D01*
X37167291Y-100068885D02*
X37238720Y-99997457D01*
X37238720Y-99997457D02*
X37381577Y-99926028D01*
X37381577Y-99926028D02*
X37595863Y-99926028D01*
X37595863Y-99926028D02*
X37738720Y-99997457D01*
X37738720Y-99997457D02*
X37810149Y-100140314D01*
X37810149Y-100140314D02*
X37810149Y-100926028D01*
X38524434Y-100926028D02*
X38524434Y-99926028D01*
X38524434Y-99426028D02*
X38453006Y-99497457D01*
X38453006Y-99497457D02*
X38524434Y-99568885D01*
X38524434Y-99568885D02*
X38595863Y-99497457D01*
X38595863Y-99497457D02*
X38524434Y-99426028D01*
X38524434Y-99426028D02*
X38524434Y-99568885D01*
X39167292Y-100854600D02*
X39310149Y-100926028D01*
X39310149Y-100926028D02*
X39595863Y-100926028D01*
X39595863Y-100926028D02*
X39738720Y-100854600D01*
X39738720Y-100854600D02*
X39810149Y-100711742D01*
X39810149Y-100711742D02*
X39810149Y-100640314D01*
X39810149Y-100640314D02*
X39738720Y-100497457D01*
X39738720Y-100497457D02*
X39595863Y-100426028D01*
X39595863Y-100426028D02*
X39381578Y-100426028D01*
X39381578Y-100426028D02*
X39238720Y-100354600D01*
X39238720Y-100354600D02*
X39167292Y-100211742D01*
X39167292Y-100211742D02*
X39167292Y-100140314D01*
X39167292Y-100140314D02*
X39238720Y-99997457D01*
X39238720Y-99997457D02*
X39381578Y-99926028D01*
X39381578Y-99926028D02*
X39595863Y-99926028D01*
X39595863Y-99926028D02*
X39738720Y-99997457D01*
X40453006Y-100926028D02*
X40453006Y-99426028D01*
X41095864Y-100926028D02*
X41095864Y-100140314D01*
X41095864Y-100140314D02*
X41024435Y-99997457D01*
X41024435Y-99997457D02*
X40881578Y-99926028D01*
X40881578Y-99926028D02*
X40667292Y-99926028D01*
X40667292Y-99926028D02*
X40524435Y-99997457D01*
X40524435Y-99997457D02*
X40453006Y-100068885D01*
X41810149Y-100783171D02*
X41881578Y-100854600D01*
X41881578Y-100854600D02*
X41810149Y-100926028D01*
X41810149Y-100926028D02*
X41738721Y-100854600D01*
X41738721Y-100854600D02*
X41810149Y-100783171D01*
X41810149Y-100783171D02*
X41810149Y-100926028D01*
X41810149Y-99997457D02*
X41881578Y-100068885D01*
X41881578Y-100068885D02*
X41810149Y-100140314D01*
X41810149Y-100140314D02*
X41738721Y-100068885D01*
X41738721Y-100068885D02*
X41810149Y-99997457D01*
X41810149Y-99997457D02*
X41810149Y-100140314D01*
X26738720Y-92226314D02*
X26953006Y-92297742D01*
X26953006Y-92297742D02*
X27024435Y-92369171D01*
X27024435Y-92369171D02*
X27095863Y-92512028D01*
X27095863Y-92512028D02*
X27095863Y-92726314D01*
X27095863Y-92726314D02*
X27024435Y-92869171D01*
X27024435Y-92869171D02*
X26953006Y-92940600D01*
X26953006Y-92940600D02*
X26810149Y-93012028D01*
X26810149Y-93012028D02*
X26238720Y-93012028D01*
X26238720Y-93012028D02*
X26238720Y-91512028D01*
X26238720Y-91512028D02*
X26738720Y-91512028D01*
X26738720Y-91512028D02*
X26881578Y-91583457D01*
X26881578Y-91583457D02*
X26953006Y-91654885D01*
X26953006Y-91654885D02*
X27024435Y-91797742D01*
X27024435Y-91797742D02*
X27024435Y-91940600D01*
X27024435Y-91940600D02*
X26953006Y-92083457D01*
X26953006Y-92083457D02*
X26881578Y-92154885D01*
X26881578Y-92154885D02*
X26738720Y-92226314D01*
X26738720Y-92226314D02*
X26238720Y-92226314D01*
X27953006Y-93012028D02*
X27810149Y-92940600D01*
X27810149Y-92940600D02*
X27738720Y-92869171D01*
X27738720Y-92869171D02*
X27667292Y-92726314D01*
X27667292Y-92726314D02*
X27667292Y-92297742D01*
X27667292Y-92297742D02*
X27738720Y-92154885D01*
X27738720Y-92154885D02*
X27810149Y-92083457D01*
X27810149Y-92083457D02*
X27953006Y-92012028D01*
X27953006Y-92012028D02*
X28167292Y-92012028D01*
X28167292Y-92012028D02*
X28310149Y-92083457D01*
X28310149Y-92083457D02*
X28381578Y-92154885D01*
X28381578Y-92154885D02*
X28453006Y-92297742D01*
X28453006Y-92297742D02*
X28453006Y-92726314D01*
X28453006Y-92726314D02*
X28381578Y-92869171D01*
X28381578Y-92869171D02*
X28310149Y-92940600D01*
X28310149Y-92940600D02*
X28167292Y-93012028D01*
X28167292Y-93012028D02*
X27953006Y-93012028D01*
X29738721Y-93012028D02*
X29738721Y-92226314D01*
X29738721Y-92226314D02*
X29667292Y-92083457D01*
X29667292Y-92083457D02*
X29524435Y-92012028D01*
X29524435Y-92012028D02*
X29238721Y-92012028D01*
X29238721Y-92012028D02*
X29095863Y-92083457D01*
X29738721Y-92940600D02*
X29595863Y-93012028D01*
X29595863Y-93012028D02*
X29238721Y-93012028D01*
X29238721Y-93012028D02*
X29095863Y-92940600D01*
X29095863Y-92940600D02*
X29024435Y-92797742D01*
X29024435Y-92797742D02*
X29024435Y-92654885D01*
X29024435Y-92654885D02*
X29095863Y-92512028D01*
X29095863Y-92512028D02*
X29238721Y-92440600D01*
X29238721Y-92440600D02*
X29595863Y-92440600D01*
X29595863Y-92440600D02*
X29738721Y-92369171D01*
X30453006Y-93012028D02*
X30453006Y-92012028D01*
X30453006Y-92297742D02*
X30524435Y-92154885D01*
X30524435Y-92154885D02*
X30595864Y-92083457D01*
X30595864Y-92083457D02*
X30738721Y-92012028D01*
X30738721Y-92012028D02*
X30881578Y-92012028D01*
X32024435Y-93012028D02*
X32024435Y-91512028D01*
X32024435Y-92940600D02*
X31881577Y-93012028D01*
X31881577Y-93012028D02*
X31595863Y-93012028D01*
X31595863Y-93012028D02*
X31453006Y-92940600D01*
X31453006Y-92940600D02*
X31381577Y-92869171D01*
X31381577Y-92869171D02*
X31310149Y-92726314D01*
X31310149Y-92726314D02*
X31310149Y-92297742D01*
X31310149Y-92297742D02*
X31381577Y-92154885D01*
X31381577Y-92154885D02*
X31453006Y-92083457D01*
X31453006Y-92083457D02*
X31595863Y-92012028D01*
X31595863Y-92012028D02*
X31881577Y-92012028D01*
X31881577Y-92012028D02*
X32024435Y-92083457D01*
X34095863Y-93012028D02*
X33953006Y-92940600D01*
X33953006Y-92940600D02*
X33881577Y-92869171D01*
X33881577Y-92869171D02*
X33810149Y-92726314D01*
X33810149Y-92726314D02*
X33810149Y-92297742D01*
X33810149Y-92297742D02*
X33881577Y-92154885D01*
X33881577Y-92154885D02*
X33953006Y-92083457D01*
X33953006Y-92083457D02*
X34095863Y-92012028D01*
X34095863Y-92012028D02*
X34310149Y-92012028D01*
X34310149Y-92012028D02*
X34453006Y-92083457D01*
X34453006Y-92083457D02*
X34524435Y-92154885D01*
X34524435Y-92154885D02*
X34595863Y-92297742D01*
X34595863Y-92297742D02*
X34595863Y-92726314D01*
X34595863Y-92726314D02*
X34524435Y-92869171D01*
X34524435Y-92869171D02*
X34453006Y-92940600D01*
X34453006Y-92940600D02*
X34310149Y-93012028D01*
X34310149Y-93012028D02*
X34095863Y-93012028D01*
X35095863Y-92012028D02*
X35453006Y-93012028D01*
X35453006Y-93012028D02*
X35810149Y-92012028D01*
X36953006Y-92940600D02*
X36810149Y-93012028D01*
X36810149Y-93012028D02*
X36524435Y-93012028D01*
X36524435Y-93012028D02*
X36381577Y-92940600D01*
X36381577Y-92940600D02*
X36310149Y-92797742D01*
X36310149Y-92797742D02*
X36310149Y-92226314D01*
X36310149Y-92226314D02*
X36381577Y-92083457D01*
X36381577Y-92083457D02*
X36524435Y-92012028D01*
X36524435Y-92012028D02*
X36810149Y-92012028D01*
X36810149Y-92012028D02*
X36953006Y-92083457D01*
X36953006Y-92083457D02*
X37024435Y-92226314D01*
X37024435Y-92226314D02*
X37024435Y-92369171D01*
X37024435Y-92369171D02*
X36310149Y-92512028D01*
X37667291Y-93012028D02*
X37667291Y-92012028D01*
X37667291Y-92297742D02*
X37738720Y-92154885D01*
X37738720Y-92154885D02*
X37810149Y-92083457D01*
X37810149Y-92083457D02*
X37953006Y-92012028D01*
X37953006Y-92012028D02*
X38095863Y-92012028D01*
X39238720Y-93012028D02*
X39238720Y-92226314D01*
X39238720Y-92226314D02*
X39167291Y-92083457D01*
X39167291Y-92083457D02*
X39024434Y-92012028D01*
X39024434Y-92012028D02*
X38738720Y-92012028D01*
X38738720Y-92012028D02*
X38595862Y-92083457D01*
X39238720Y-92940600D02*
X39095862Y-93012028D01*
X39095862Y-93012028D02*
X38738720Y-93012028D01*
X38738720Y-93012028D02*
X38595862Y-92940600D01*
X38595862Y-92940600D02*
X38524434Y-92797742D01*
X38524434Y-92797742D02*
X38524434Y-92654885D01*
X38524434Y-92654885D02*
X38595862Y-92512028D01*
X38595862Y-92512028D02*
X38738720Y-92440600D01*
X38738720Y-92440600D02*
X39095862Y-92440600D01*
X39095862Y-92440600D02*
X39238720Y-92369171D01*
X40167291Y-93012028D02*
X40024434Y-92940600D01*
X40024434Y-92940600D02*
X39953005Y-92797742D01*
X39953005Y-92797742D02*
X39953005Y-91512028D01*
X40953005Y-93012028D02*
X40810148Y-92940600D01*
X40810148Y-92940600D02*
X40738719Y-92797742D01*
X40738719Y-92797742D02*
X40738719Y-91512028D01*
X43310148Y-93012028D02*
X43310148Y-91512028D01*
X43310148Y-92940600D02*
X43167290Y-93012028D01*
X43167290Y-93012028D02*
X42881576Y-93012028D01*
X42881576Y-93012028D02*
X42738719Y-92940600D01*
X42738719Y-92940600D02*
X42667290Y-92869171D01*
X42667290Y-92869171D02*
X42595862Y-92726314D01*
X42595862Y-92726314D02*
X42595862Y-92297742D01*
X42595862Y-92297742D02*
X42667290Y-92154885D01*
X42667290Y-92154885D02*
X42738719Y-92083457D01*
X42738719Y-92083457D02*
X42881576Y-92012028D01*
X42881576Y-92012028D02*
X43167290Y-92012028D01*
X43167290Y-92012028D02*
X43310148Y-92083457D01*
X44024433Y-93012028D02*
X44024433Y-92012028D01*
X44024433Y-91512028D02*
X43953005Y-91583457D01*
X43953005Y-91583457D02*
X44024433Y-91654885D01*
X44024433Y-91654885D02*
X44095862Y-91583457D01*
X44095862Y-91583457D02*
X44024433Y-91512028D01*
X44024433Y-91512028D02*
X44024433Y-91654885D01*
X44738719Y-93012028D02*
X44738719Y-92012028D01*
X44738719Y-92154885D02*
X44810148Y-92083457D01*
X44810148Y-92083457D02*
X44953005Y-92012028D01*
X44953005Y-92012028D02*
X45167291Y-92012028D01*
X45167291Y-92012028D02*
X45310148Y-92083457D01*
X45310148Y-92083457D02*
X45381577Y-92226314D01*
X45381577Y-92226314D02*
X45381577Y-93012028D01*
X45381577Y-92226314D02*
X45453005Y-92083457D01*
X45453005Y-92083457D02*
X45595862Y-92012028D01*
X45595862Y-92012028D02*
X45810148Y-92012028D01*
X45810148Y-92012028D02*
X45953005Y-92083457D01*
X45953005Y-92083457D02*
X46024434Y-92226314D01*
X46024434Y-92226314D02*
X46024434Y-93012028D01*
X47310148Y-92940600D02*
X47167291Y-93012028D01*
X47167291Y-93012028D02*
X46881577Y-93012028D01*
X46881577Y-93012028D02*
X46738719Y-92940600D01*
X46738719Y-92940600D02*
X46667291Y-92797742D01*
X46667291Y-92797742D02*
X46667291Y-92226314D01*
X46667291Y-92226314D02*
X46738719Y-92083457D01*
X46738719Y-92083457D02*
X46881577Y-92012028D01*
X46881577Y-92012028D02*
X47167291Y-92012028D01*
X47167291Y-92012028D02*
X47310148Y-92083457D01*
X47310148Y-92083457D02*
X47381577Y-92226314D01*
X47381577Y-92226314D02*
X47381577Y-92369171D01*
X47381577Y-92369171D02*
X46667291Y-92512028D01*
X48024433Y-92012028D02*
X48024433Y-93012028D01*
X48024433Y-92154885D02*
X48095862Y-92083457D01*
X48095862Y-92083457D02*
X48238719Y-92012028D01*
X48238719Y-92012028D02*
X48453005Y-92012028D01*
X48453005Y-92012028D02*
X48595862Y-92083457D01*
X48595862Y-92083457D02*
X48667291Y-92226314D01*
X48667291Y-92226314D02*
X48667291Y-93012028D01*
X49310148Y-92940600D02*
X49453005Y-93012028D01*
X49453005Y-93012028D02*
X49738719Y-93012028D01*
X49738719Y-93012028D02*
X49881576Y-92940600D01*
X49881576Y-92940600D02*
X49953005Y-92797742D01*
X49953005Y-92797742D02*
X49953005Y-92726314D01*
X49953005Y-92726314D02*
X49881576Y-92583457D01*
X49881576Y-92583457D02*
X49738719Y-92512028D01*
X49738719Y-92512028D02*
X49524434Y-92512028D01*
X49524434Y-92512028D02*
X49381576Y-92440600D01*
X49381576Y-92440600D02*
X49310148Y-92297742D01*
X49310148Y-92297742D02*
X49310148Y-92226314D01*
X49310148Y-92226314D02*
X49381576Y-92083457D01*
X49381576Y-92083457D02*
X49524434Y-92012028D01*
X49524434Y-92012028D02*
X49738719Y-92012028D01*
X49738719Y-92012028D02*
X49881576Y-92083457D01*
X50595862Y-93012028D02*
X50595862Y-92012028D01*
X50595862Y-91512028D02*
X50524434Y-91583457D01*
X50524434Y-91583457D02*
X50595862Y-91654885D01*
X50595862Y-91654885D02*
X50667291Y-91583457D01*
X50667291Y-91583457D02*
X50595862Y-91512028D01*
X50595862Y-91512028D02*
X50595862Y-91654885D01*
X51524434Y-93012028D02*
X51381577Y-92940600D01*
X51381577Y-92940600D02*
X51310148Y-92869171D01*
X51310148Y-92869171D02*
X51238720Y-92726314D01*
X51238720Y-92726314D02*
X51238720Y-92297742D01*
X51238720Y-92297742D02*
X51310148Y-92154885D01*
X51310148Y-92154885D02*
X51381577Y-92083457D01*
X51381577Y-92083457D02*
X51524434Y-92012028D01*
X51524434Y-92012028D02*
X51738720Y-92012028D01*
X51738720Y-92012028D02*
X51881577Y-92083457D01*
X51881577Y-92083457D02*
X51953006Y-92154885D01*
X51953006Y-92154885D02*
X52024434Y-92297742D01*
X52024434Y-92297742D02*
X52024434Y-92726314D01*
X52024434Y-92726314D02*
X51953006Y-92869171D01*
X51953006Y-92869171D02*
X51881577Y-92940600D01*
X51881577Y-92940600D02*
X51738720Y-93012028D01*
X51738720Y-93012028D02*
X51524434Y-93012028D01*
X52667291Y-92012028D02*
X52667291Y-93012028D01*
X52667291Y-92154885D02*
X52738720Y-92083457D01*
X52738720Y-92083457D02*
X52881577Y-92012028D01*
X52881577Y-92012028D02*
X53095863Y-92012028D01*
X53095863Y-92012028D02*
X53238720Y-92083457D01*
X53238720Y-92083457D02*
X53310149Y-92226314D01*
X53310149Y-92226314D02*
X53310149Y-93012028D01*
X53953006Y-92940600D02*
X54095863Y-93012028D01*
X54095863Y-93012028D02*
X54381577Y-93012028D01*
X54381577Y-93012028D02*
X54524434Y-92940600D01*
X54524434Y-92940600D02*
X54595863Y-92797742D01*
X54595863Y-92797742D02*
X54595863Y-92726314D01*
X54595863Y-92726314D02*
X54524434Y-92583457D01*
X54524434Y-92583457D02*
X54381577Y-92512028D01*
X54381577Y-92512028D02*
X54167292Y-92512028D01*
X54167292Y-92512028D02*
X54024434Y-92440600D01*
X54024434Y-92440600D02*
X53953006Y-92297742D01*
X53953006Y-92297742D02*
X53953006Y-92226314D01*
X53953006Y-92226314D02*
X54024434Y-92083457D01*
X54024434Y-92083457D02*
X54167292Y-92012028D01*
X54167292Y-92012028D02*
X54381577Y-92012028D01*
X54381577Y-92012028D02*
X54524434Y-92083457D01*
X55238720Y-92869171D02*
X55310149Y-92940600D01*
X55310149Y-92940600D02*
X55238720Y-93012028D01*
X55238720Y-93012028D02*
X55167292Y-92940600D01*
X55167292Y-92940600D02*
X55238720Y-92869171D01*
X55238720Y-92869171D02*
X55238720Y-93012028D01*
X55238720Y-92083457D02*
X55310149Y-92154885D01*
X55310149Y-92154885D02*
X55238720Y-92226314D01*
X55238720Y-92226314D02*
X55167292Y-92154885D01*
X55167292Y-92154885D02*
X55238720Y-92083457D01*
X55238720Y-92083457D02*
X55238720Y-92226314D01*
X94481572Y-100926028D02*
X94481572Y-99426028D01*
X95195858Y-100926028D02*
X95195858Y-99926028D01*
X95195858Y-100068885D02*
X95267287Y-99997457D01*
X95267287Y-99997457D02*
X95410144Y-99926028D01*
X95410144Y-99926028D02*
X95624430Y-99926028D01*
X95624430Y-99926028D02*
X95767287Y-99997457D01*
X95767287Y-99997457D02*
X95838716Y-100140314D01*
X95838716Y-100140314D02*
X95838716Y-100926028D01*
X95838716Y-100140314D02*
X95910144Y-99997457D01*
X95910144Y-99997457D02*
X96053001Y-99926028D01*
X96053001Y-99926028D02*
X96267287Y-99926028D01*
X96267287Y-99926028D02*
X96410144Y-99997457D01*
X96410144Y-99997457D02*
X96481573Y-100140314D01*
X96481573Y-100140314D02*
X96481573Y-100926028D01*
X97195858Y-99926028D02*
X97195858Y-101426028D01*
X97195858Y-99997457D02*
X97338716Y-99926028D01*
X97338716Y-99926028D02*
X97624430Y-99926028D01*
X97624430Y-99926028D02*
X97767287Y-99997457D01*
X97767287Y-99997457D02*
X97838716Y-100068885D01*
X97838716Y-100068885D02*
X97910144Y-100211742D01*
X97910144Y-100211742D02*
X97910144Y-100640314D01*
X97910144Y-100640314D02*
X97838716Y-100783171D01*
X97838716Y-100783171D02*
X97767287Y-100854600D01*
X97767287Y-100854600D02*
X97624430Y-100926028D01*
X97624430Y-100926028D02*
X97338716Y-100926028D01*
X97338716Y-100926028D02*
X97195858Y-100854600D01*
X99124430Y-100854600D02*
X98981573Y-100926028D01*
X98981573Y-100926028D02*
X98695859Y-100926028D01*
X98695859Y-100926028D02*
X98553001Y-100854600D01*
X98553001Y-100854600D02*
X98481573Y-100711742D01*
X98481573Y-100711742D02*
X98481573Y-100140314D01*
X98481573Y-100140314D02*
X98553001Y-99997457D01*
X98553001Y-99997457D02*
X98695859Y-99926028D01*
X98695859Y-99926028D02*
X98981573Y-99926028D01*
X98981573Y-99926028D02*
X99124430Y-99997457D01*
X99124430Y-99997457D02*
X99195859Y-100140314D01*
X99195859Y-100140314D02*
X99195859Y-100283171D01*
X99195859Y-100283171D02*
X98481573Y-100426028D01*
X100481573Y-100926028D02*
X100481573Y-99426028D01*
X100481573Y-100854600D02*
X100338715Y-100926028D01*
X100338715Y-100926028D02*
X100053001Y-100926028D01*
X100053001Y-100926028D02*
X99910144Y-100854600D01*
X99910144Y-100854600D02*
X99838715Y-100783171D01*
X99838715Y-100783171D02*
X99767287Y-100640314D01*
X99767287Y-100640314D02*
X99767287Y-100211742D01*
X99767287Y-100211742D02*
X99838715Y-100068885D01*
X99838715Y-100068885D02*
X99910144Y-99997457D01*
X99910144Y-99997457D02*
X100053001Y-99926028D01*
X100053001Y-99926028D02*
X100338715Y-99926028D01*
X100338715Y-99926028D02*
X100481573Y-99997457D01*
X101838716Y-100926028D02*
X101838716Y-100140314D01*
X101838716Y-100140314D02*
X101767287Y-99997457D01*
X101767287Y-99997457D02*
X101624430Y-99926028D01*
X101624430Y-99926028D02*
X101338716Y-99926028D01*
X101338716Y-99926028D02*
X101195858Y-99997457D01*
X101838716Y-100854600D02*
X101695858Y-100926028D01*
X101695858Y-100926028D02*
X101338716Y-100926028D01*
X101338716Y-100926028D02*
X101195858Y-100854600D01*
X101195858Y-100854600D02*
X101124430Y-100711742D01*
X101124430Y-100711742D02*
X101124430Y-100568885D01*
X101124430Y-100568885D02*
X101195858Y-100426028D01*
X101195858Y-100426028D02*
X101338716Y-100354600D01*
X101338716Y-100354600D02*
X101695858Y-100354600D01*
X101695858Y-100354600D02*
X101838716Y-100283171D01*
X102553001Y-99926028D02*
X102553001Y-100926028D01*
X102553001Y-100068885D02*
X102624430Y-99997457D01*
X102624430Y-99997457D02*
X102767287Y-99926028D01*
X102767287Y-99926028D02*
X102981573Y-99926028D01*
X102981573Y-99926028D02*
X103124430Y-99997457D01*
X103124430Y-99997457D02*
X103195859Y-100140314D01*
X103195859Y-100140314D02*
X103195859Y-100926028D01*
X104553002Y-100854600D02*
X104410144Y-100926028D01*
X104410144Y-100926028D02*
X104124430Y-100926028D01*
X104124430Y-100926028D02*
X103981573Y-100854600D01*
X103981573Y-100854600D02*
X103910144Y-100783171D01*
X103910144Y-100783171D02*
X103838716Y-100640314D01*
X103838716Y-100640314D02*
X103838716Y-100211742D01*
X103838716Y-100211742D02*
X103910144Y-100068885D01*
X103910144Y-100068885D02*
X103981573Y-99997457D01*
X103981573Y-99997457D02*
X104124430Y-99926028D01*
X104124430Y-99926028D02*
X104410144Y-99926028D01*
X104410144Y-99926028D02*
X104553002Y-99997457D01*
X105767287Y-100854600D02*
X105624430Y-100926028D01*
X105624430Y-100926028D02*
X105338716Y-100926028D01*
X105338716Y-100926028D02*
X105195858Y-100854600D01*
X105195858Y-100854600D02*
X105124430Y-100711742D01*
X105124430Y-100711742D02*
X105124430Y-100140314D01*
X105124430Y-100140314D02*
X105195858Y-99997457D01*
X105195858Y-99997457D02*
X105338716Y-99926028D01*
X105338716Y-99926028D02*
X105624430Y-99926028D01*
X105624430Y-99926028D02*
X105767287Y-99997457D01*
X105767287Y-99997457D02*
X105838716Y-100140314D01*
X105838716Y-100140314D02*
X105838716Y-100283171D01*
X105838716Y-100283171D02*
X105124430Y-100426028D01*
X108481572Y-100783171D02*
X108410144Y-100854600D01*
X108410144Y-100854600D02*
X108195858Y-100926028D01*
X108195858Y-100926028D02*
X108053001Y-100926028D01*
X108053001Y-100926028D02*
X107838715Y-100854600D01*
X107838715Y-100854600D02*
X107695858Y-100711742D01*
X107695858Y-100711742D02*
X107624429Y-100568885D01*
X107624429Y-100568885D02*
X107553001Y-100283171D01*
X107553001Y-100283171D02*
X107553001Y-100068885D01*
X107553001Y-100068885D02*
X107624429Y-99783171D01*
X107624429Y-99783171D02*
X107695858Y-99640314D01*
X107695858Y-99640314D02*
X107838715Y-99497457D01*
X107838715Y-99497457D02*
X108053001Y-99426028D01*
X108053001Y-99426028D02*
X108195858Y-99426028D01*
X108195858Y-99426028D02*
X108410144Y-99497457D01*
X108410144Y-99497457D02*
X108481572Y-99568885D01*
X109338715Y-100926028D02*
X109195858Y-100854600D01*
X109195858Y-100854600D02*
X109124429Y-100783171D01*
X109124429Y-100783171D02*
X109053001Y-100640314D01*
X109053001Y-100640314D02*
X109053001Y-100211742D01*
X109053001Y-100211742D02*
X109124429Y-100068885D01*
X109124429Y-100068885D02*
X109195858Y-99997457D01*
X109195858Y-99997457D02*
X109338715Y-99926028D01*
X109338715Y-99926028D02*
X109553001Y-99926028D01*
X109553001Y-99926028D02*
X109695858Y-99997457D01*
X109695858Y-99997457D02*
X109767287Y-100068885D01*
X109767287Y-100068885D02*
X109838715Y-100211742D01*
X109838715Y-100211742D02*
X109838715Y-100640314D01*
X109838715Y-100640314D02*
X109767287Y-100783171D01*
X109767287Y-100783171D02*
X109695858Y-100854600D01*
X109695858Y-100854600D02*
X109553001Y-100926028D01*
X109553001Y-100926028D02*
X109338715Y-100926028D01*
X110481572Y-99926028D02*
X110481572Y-100926028D01*
X110481572Y-100068885D02*
X110553001Y-99997457D01*
X110553001Y-99997457D02*
X110695858Y-99926028D01*
X110695858Y-99926028D02*
X110910144Y-99926028D01*
X110910144Y-99926028D02*
X111053001Y-99997457D01*
X111053001Y-99997457D02*
X111124430Y-100140314D01*
X111124430Y-100140314D02*
X111124430Y-100926028D01*
X111624430Y-99926028D02*
X112195858Y-99926028D01*
X111838715Y-99426028D02*
X111838715Y-100711742D01*
X111838715Y-100711742D02*
X111910144Y-100854600D01*
X111910144Y-100854600D02*
X112053001Y-100926028D01*
X112053001Y-100926028D02*
X112195858Y-100926028D01*
X112695858Y-100926028D02*
X112695858Y-99926028D01*
X112695858Y-100211742D02*
X112767287Y-100068885D01*
X112767287Y-100068885D02*
X112838716Y-99997457D01*
X112838716Y-99997457D02*
X112981573Y-99926028D01*
X112981573Y-99926028D02*
X113124430Y-99926028D01*
X113838715Y-100926028D02*
X113695858Y-100854600D01*
X113695858Y-100854600D02*
X113624429Y-100783171D01*
X113624429Y-100783171D02*
X113553001Y-100640314D01*
X113553001Y-100640314D02*
X113553001Y-100211742D01*
X113553001Y-100211742D02*
X113624429Y-100068885D01*
X113624429Y-100068885D02*
X113695858Y-99997457D01*
X113695858Y-99997457D02*
X113838715Y-99926028D01*
X113838715Y-99926028D02*
X114053001Y-99926028D01*
X114053001Y-99926028D02*
X114195858Y-99997457D01*
X114195858Y-99997457D02*
X114267287Y-100068885D01*
X114267287Y-100068885D02*
X114338715Y-100211742D01*
X114338715Y-100211742D02*
X114338715Y-100640314D01*
X114338715Y-100640314D02*
X114267287Y-100783171D01*
X114267287Y-100783171D02*
X114195858Y-100854600D01*
X114195858Y-100854600D02*
X114053001Y-100926028D01*
X114053001Y-100926028D02*
X113838715Y-100926028D01*
X115195858Y-100926028D02*
X115053001Y-100854600D01*
X115053001Y-100854600D02*
X114981572Y-100711742D01*
X114981572Y-100711742D02*
X114981572Y-99426028D01*
X115767286Y-100783171D02*
X115838715Y-100854600D01*
X115838715Y-100854600D02*
X115767286Y-100926028D01*
X115767286Y-100926028D02*
X115695858Y-100854600D01*
X115695858Y-100854600D02*
X115767286Y-100783171D01*
X115767286Y-100783171D02*
X115767286Y-100926028D01*
X115767286Y-99997457D02*
X115838715Y-100068885D01*
X115838715Y-100068885D02*
X115767286Y-100140314D01*
X115767286Y-100140314D02*
X115695858Y-100068885D01*
X115695858Y-100068885D02*
X115767286Y-99997457D01*
X115767286Y-99997457D02*
X115767286Y-100140314D01*
X120210144Y-89055028D02*
X119353001Y-89055028D01*
X119781572Y-89055028D02*
X119781572Y-87555028D01*
X119781572Y-87555028D02*
X119638715Y-87769314D01*
X119638715Y-87769314D02*
X119495858Y-87912171D01*
X119495858Y-87912171D02*
X119353001Y-87983600D01*
X120853000Y-88912171D02*
X120924429Y-88983600D01*
X120924429Y-88983600D02*
X120853000Y-89055028D01*
X120853000Y-89055028D02*
X120781572Y-88983600D01*
X120781572Y-88983600D02*
X120853000Y-88912171D01*
X120853000Y-88912171D02*
X120853000Y-89055028D01*
X122210144Y-87555028D02*
X121924429Y-87555028D01*
X121924429Y-87555028D02*
X121781572Y-87626457D01*
X121781572Y-87626457D02*
X121710144Y-87697885D01*
X121710144Y-87697885D02*
X121567286Y-87912171D01*
X121567286Y-87912171D02*
X121495858Y-88197885D01*
X121495858Y-88197885D02*
X121495858Y-88769314D01*
X121495858Y-88769314D02*
X121567286Y-88912171D01*
X121567286Y-88912171D02*
X121638715Y-88983600D01*
X121638715Y-88983600D02*
X121781572Y-89055028D01*
X121781572Y-89055028D02*
X122067286Y-89055028D01*
X122067286Y-89055028D02*
X122210144Y-88983600D01*
X122210144Y-88983600D02*
X122281572Y-88912171D01*
X122281572Y-88912171D02*
X122353001Y-88769314D01*
X122353001Y-88769314D02*
X122353001Y-88412171D01*
X122353001Y-88412171D02*
X122281572Y-88269314D01*
X122281572Y-88269314D02*
X122210144Y-88197885D01*
X122210144Y-88197885D02*
X122067286Y-88126457D01*
X122067286Y-88126457D02*
X121781572Y-88126457D01*
X121781572Y-88126457D02*
X121638715Y-88197885D01*
X121638715Y-88197885D02*
X121567286Y-88269314D01*
X121567286Y-88269314D02*
X121495858Y-88412171D01*
X123281572Y-87555028D02*
X123424429Y-87555028D01*
X123424429Y-87555028D02*
X123567286Y-87626457D01*
X123567286Y-87626457D02*
X123638715Y-87697885D01*
X123638715Y-87697885D02*
X123710143Y-87840742D01*
X123710143Y-87840742D02*
X123781572Y-88126457D01*
X123781572Y-88126457D02*
X123781572Y-88483600D01*
X123781572Y-88483600D02*
X123710143Y-88769314D01*
X123710143Y-88769314D02*
X123638715Y-88912171D01*
X123638715Y-88912171D02*
X123567286Y-88983600D01*
X123567286Y-88983600D02*
X123424429Y-89055028D01*
X123424429Y-89055028D02*
X123281572Y-89055028D01*
X123281572Y-89055028D02*
X123138715Y-88983600D01*
X123138715Y-88983600D02*
X123067286Y-88912171D01*
X123067286Y-88912171D02*
X122995857Y-88769314D01*
X122995857Y-88769314D02*
X122924429Y-88483600D01*
X122924429Y-88483600D02*
X122924429Y-88126457D01*
X122924429Y-88126457D02*
X122995857Y-87840742D01*
X122995857Y-87840742D02*
X123067286Y-87697885D01*
X123067286Y-87697885D02*
X123138715Y-87626457D01*
X123138715Y-87626457D02*
X123281572Y-87555028D01*
X124710143Y-87555028D02*
X124853000Y-87555028D01*
X124853000Y-87555028D02*
X124995857Y-87626457D01*
X124995857Y-87626457D02*
X125067286Y-87697885D01*
X125067286Y-87697885D02*
X125138714Y-87840742D01*
X125138714Y-87840742D02*
X125210143Y-88126457D01*
X125210143Y-88126457D02*
X125210143Y-88483600D01*
X125210143Y-88483600D02*
X125138714Y-88769314D01*
X125138714Y-88769314D02*
X125067286Y-88912171D01*
X125067286Y-88912171D02*
X124995857Y-88983600D01*
X124995857Y-88983600D02*
X124853000Y-89055028D01*
X124853000Y-89055028D02*
X124710143Y-89055028D01*
X124710143Y-89055028D02*
X124567286Y-88983600D01*
X124567286Y-88983600D02*
X124495857Y-88912171D01*
X124495857Y-88912171D02*
X124424428Y-88769314D01*
X124424428Y-88769314D02*
X124353000Y-88483600D01*
X124353000Y-88483600D02*
X124353000Y-88126457D01*
X124353000Y-88126457D02*
X124424428Y-87840742D01*
X124424428Y-87840742D02*
X124495857Y-87697885D01*
X124495857Y-87697885D02*
X124567286Y-87626457D01*
X124567286Y-87626457D02*
X124710143Y-87555028D01*
X126138714Y-87555028D02*
X126281571Y-87555028D01*
X126281571Y-87555028D02*
X126424428Y-87626457D01*
X126424428Y-87626457D02*
X126495857Y-87697885D01*
X126495857Y-87697885D02*
X126567285Y-87840742D01*
X126567285Y-87840742D02*
X126638714Y-88126457D01*
X126638714Y-88126457D02*
X126638714Y-88483600D01*
X126638714Y-88483600D02*
X126567285Y-88769314D01*
X126567285Y-88769314D02*
X126495857Y-88912171D01*
X126495857Y-88912171D02*
X126424428Y-88983600D01*
X126424428Y-88983600D02*
X126281571Y-89055028D01*
X126281571Y-89055028D02*
X126138714Y-89055028D01*
X126138714Y-89055028D02*
X125995857Y-88983600D01*
X125995857Y-88983600D02*
X125924428Y-88912171D01*
X125924428Y-88912171D02*
X125852999Y-88769314D01*
X125852999Y-88769314D02*
X125781571Y-88483600D01*
X125781571Y-88483600D02*
X125781571Y-88126457D01*
X125781571Y-88126457D02*
X125852999Y-87840742D01*
X125852999Y-87840742D02*
X125924428Y-87697885D01*
X125924428Y-87697885D02*
X125995857Y-87626457D01*
X125995857Y-87626457D02*
X126138714Y-87555028D01*
X128424427Y-89055028D02*
X128424427Y-88055028D01*
X128424427Y-88197885D02*
X128495856Y-88126457D01*
X128495856Y-88126457D02*
X128638713Y-88055028D01*
X128638713Y-88055028D02*
X128852999Y-88055028D01*
X128852999Y-88055028D02*
X128995856Y-88126457D01*
X128995856Y-88126457D02*
X129067285Y-88269314D01*
X129067285Y-88269314D02*
X129067285Y-89055028D01*
X129067285Y-88269314D02*
X129138713Y-88126457D01*
X129138713Y-88126457D02*
X129281570Y-88055028D01*
X129281570Y-88055028D02*
X129495856Y-88055028D01*
X129495856Y-88055028D02*
X129638713Y-88126457D01*
X129638713Y-88126457D02*
X129710142Y-88269314D01*
X129710142Y-88269314D02*
X129710142Y-89055028D01*
X130424427Y-89055028D02*
X130424427Y-88055028D01*
X130424427Y-88197885D02*
X130495856Y-88126457D01*
X130495856Y-88126457D02*
X130638713Y-88055028D01*
X130638713Y-88055028D02*
X130852999Y-88055028D01*
X130852999Y-88055028D02*
X130995856Y-88126457D01*
X130995856Y-88126457D02*
X131067285Y-88269314D01*
X131067285Y-88269314D02*
X131067285Y-89055028D01*
X131067285Y-88269314D02*
X131138713Y-88126457D01*
X131138713Y-88126457D02*
X131281570Y-88055028D01*
X131281570Y-88055028D02*
X131495856Y-88055028D01*
X131495856Y-88055028D02*
X131638713Y-88126457D01*
X131638713Y-88126457D02*
X131710142Y-88269314D01*
X131710142Y-88269314D02*
X131710142Y-89055028D01*
X58895863Y-104883028D02*
X58895863Y-103383028D01*
X58895863Y-103383028D02*
X59753006Y-104883028D01*
X59753006Y-104883028D02*
X59753006Y-103383028D01*
X60681578Y-104883028D02*
X60538721Y-104811600D01*
X60538721Y-104811600D02*
X60467292Y-104740171D01*
X60467292Y-104740171D02*
X60395864Y-104597314D01*
X60395864Y-104597314D02*
X60395864Y-104168742D01*
X60395864Y-104168742D02*
X60467292Y-104025885D01*
X60467292Y-104025885D02*
X60538721Y-103954457D01*
X60538721Y-103954457D02*
X60681578Y-103883028D01*
X60681578Y-103883028D02*
X60895864Y-103883028D01*
X60895864Y-103883028D02*
X61038721Y-103954457D01*
X61038721Y-103954457D02*
X61110150Y-104025885D01*
X61110150Y-104025885D02*
X61181578Y-104168742D01*
X61181578Y-104168742D02*
X61181578Y-104597314D01*
X61181578Y-104597314D02*
X61110150Y-104740171D01*
X61110150Y-104740171D02*
X61038721Y-104811600D01*
X61038721Y-104811600D02*
X60895864Y-104883028D01*
X60895864Y-104883028D02*
X60681578Y-104883028D01*
X119710144Y-95469028D02*
X119853001Y-95469028D01*
X119853001Y-95469028D02*
X119995858Y-95540457D01*
X119995858Y-95540457D02*
X120067287Y-95611885D01*
X120067287Y-95611885D02*
X120138715Y-95754742D01*
X120138715Y-95754742D02*
X120210144Y-96040457D01*
X120210144Y-96040457D02*
X120210144Y-96397600D01*
X120210144Y-96397600D02*
X120138715Y-96683314D01*
X120138715Y-96683314D02*
X120067287Y-96826171D01*
X120067287Y-96826171D02*
X119995858Y-96897600D01*
X119995858Y-96897600D02*
X119853001Y-96969028D01*
X119853001Y-96969028D02*
X119710144Y-96969028D01*
X119710144Y-96969028D02*
X119567287Y-96897600D01*
X119567287Y-96897600D02*
X119495858Y-96826171D01*
X119495858Y-96826171D02*
X119424429Y-96683314D01*
X119424429Y-96683314D02*
X119353001Y-96397600D01*
X119353001Y-96397600D02*
X119353001Y-96040457D01*
X119353001Y-96040457D02*
X119424429Y-95754742D01*
X119424429Y-95754742D02*
X119495858Y-95611885D01*
X119495858Y-95611885D02*
X119567287Y-95540457D01*
X119567287Y-95540457D02*
X119710144Y-95469028D01*
X120853000Y-96826171D02*
X120924429Y-96897600D01*
X120924429Y-96897600D02*
X120853000Y-96969028D01*
X120853000Y-96969028D02*
X120781572Y-96897600D01*
X120781572Y-96897600D02*
X120853000Y-96826171D01*
X120853000Y-96826171D02*
X120853000Y-96969028D01*
X121424429Y-95469028D02*
X122353001Y-95469028D01*
X122353001Y-95469028D02*
X121853001Y-96040457D01*
X121853001Y-96040457D02*
X122067286Y-96040457D01*
X122067286Y-96040457D02*
X122210144Y-96111885D01*
X122210144Y-96111885D02*
X122281572Y-96183314D01*
X122281572Y-96183314D02*
X122353001Y-96326171D01*
X122353001Y-96326171D02*
X122353001Y-96683314D01*
X122353001Y-96683314D02*
X122281572Y-96826171D01*
X122281572Y-96826171D02*
X122210144Y-96897600D01*
X122210144Y-96897600D02*
X122067286Y-96969028D01*
X122067286Y-96969028D02*
X121638715Y-96969028D01*
X121638715Y-96969028D02*
X121495858Y-96897600D01*
X121495858Y-96897600D02*
X121424429Y-96826171D01*
X123281572Y-95469028D02*
X123424429Y-95469028D01*
X123424429Y-95469028D02*
X123567286Y-95540457D01*
X123567286Y-95540457D02*
X123638715Y-95611885D01*
X123638715Y-95611885D02*
X123710143Y-95754742D01*
X123710143Y-95754742D02*
X123781572Y-96040457D01*
X123781572Y-96040457D02*
X123781572Y-96397600D01*
X123781572Y-96397600D02*
X123710143Y-96683314D01*
X123710143Y-96683314D02*
X123638715Y-96826171D01*
X123638715Y-96826171D02*
X123567286Y-96897600D01*
X123567286Y-96897600D02*
X123424429Y-96969028D01*
X123424429Y-96969028D02*
X123281572Y-96969028D01*
X123281572Y-96969028D02*
X123138715Y-96897600D01*
X123138715Y-96897600D02*
X123067286Y-96826171D01*
X123067286Y-96826171D02*
X122995857Y-96683314D01*
X122995857Y-96683314D02*
X122924429Y-96397600D01*
X122924429Y-96397600D02*
X122924429Y-96040457D01*
X122924429Y-96040457D02*
X122995857Y-95754742D01*
X122995857Y-95754742D02*
X123067286Y-95611885D01*
X123067286Y-95611885D02*
X123138715Y-95540457D01*
X123138715Y-95540457D02*
X123281572Y-95469028D01*
X124710143Y-95469028D02*
X124853000Y-95469028D01*
X124853000Y-95469028D02*
X124995857Y-95540457D01*
X124995857Y-95540457D02*
X125067286Y-95611885D01*
X125067286Y-95611885D02*
X125138714Y-95754742D01*
X125138714Y-95754742D02*
X125210143Y-96040457D01*
X125210143Y-96040457D02*
X125210143Y-96397600D01*
X125210143Y-96397600D02*
X125138714Y-96683314D01*
X125138714Y-96683314D02*
X125067286Y-96826171D01*
X125067286Y-96826171D02*
X124995857Y-96897600D01*
X124995857Y-96897600D02*
X124853000Y-96969028D01*
X124853000Y-96969028D02*
X124710143Y-96969028D01*
X124710143Y-96969028D02*
X124567286Y-96897600D01*
X124567286Y-96897600D02*
X124495857Y-96826171D01*
X124495857Y-96826171D02*
X124424428Y-96683314D01*
X124424428Y-96683314D02*
X124353000Y-96397600D01*
X124353000Y-96397600D02*
X124353000Y-96040457D01*
X124353000Y-96040457D02*
X124424428Y-95754742D01*
X124424428Y-95754742D02*
X124495857Y-95611885D01*
X124495857Y-95611885D02*
X124567286Y-95540457D01*
X124567286Y-95540457D02*
X124710143Y-95469028D01*
X126138714Y-95469028D02*
X126281571Y-95469028D01*
X126281571Y-95469028D02*
X126424428Y-95540457D01*
X126424428Y-95540457D02*
X126495857Y-95611885D01*
X126495857Y-95611885D02*
X126567285Y-95754742D01*
X126567285Y-95754742D02*
X126638714Y-96040457D01*
X126638714Y-96040457D02*
X126638714Y-96397600D01*
X126638714Y-96397600D02*
X126567285Y-96683314D01*
X126567285Y-96683314D02*
X126495857Y-96826171D01*
X126495857Y-96826171D02*
X126424428Y-96897600D01*
X126424428Y-96897600D02*
X126281571Y-96969028D01*
X126281571Y-96969028D02*
X126138714Y-96969028D01*
X126138714Y-96969028D02*
X125995857Y-96897600D01*
X125995857Y-96897600D02*
X125924428Y-96826171D01*
X125924428Y-96826171D02*
X125852999Y-96683314D01*
X125852999Y-96683314D02*
X125781571Y-96397600D01*
X125781571Y-96397600D02*
X125781571Y-96040457D01*
X125781571Y-96040457D02*
X125852999Y-95754742D01*
X125852999Y-95754742D02*
X125924428Y-95611885D01*
X125924428Y-95611885D02*
X125995857Y-95540457D01*
X125995857Y-95540457D02*
X126138714Y-95469028D01*
X128424427Y-96969028D02*
X128424427Y-95969028D01*
X128424427Y-96111885D02*
X128495856Y-96040457D01*
X128495856Y-96040457D02*
X128638713Y-95969028D01*
X128638713Y-95969028D02*
X128852999Y-95969028D01*
X128852999Y-95969028D02*
X128995856Y-96040457D01*
X128995856Y-96040457D02*
X129067285Y-96183314D01*
X129067285Y-96183314D02*
X129067285Y-96969028D01*
X129067285Y-96183314D02*
X129138713Y-96040457D01*
X129138713Y-96040457D02*
X129281570Y-95969028D01*
X129281570Y-95969028D02*
X129495856Y-95969028D01*
X129495856Y-95969028D02*
X129638713Y-96040457D01*
X129638713Y-96040457D02*
X129710142Y-96183314D01*
X129710142Y-96183314D02*
X129710142Y-96969028D01*
X130424427Y-96969028D02*
X130424427Y-95969028D01*
X130424427Y-96111885D02*
X130495856Y-96040457D01*
X130495856Y-96040457D02*
X130638713Y-95969028D01*
X130638713Y-95969028D02*
X130852999Y-95969028D01*
X130852999Y-95969028D02*
X130995856Y-96040457D01*
X130995856Y-96040457D02*
X131067285Y-96183314D01*
X131067285Y-96183314D02*
X131067285Y-96969028D01*
X131067285Y-96183314D02*
X131138713Y-96040457D01*
X131138713Y-96040457D02*
X131281570Y-95969028D01*
X131281570Y-95969028D02*
X131495856Y-95969028D01*
X131495856Y-95969028D02*
X131638713Y-96040457D01*
X131638713Y-96040457D02*
X131710142Y-96183314D01*
X131710142Y-96183314D02*
X131710142Y-96969028D01*
X119424429Y-104883028D02*
X119424429Y-103383028D01*
X119424429Y-103383028D02*
X120281572Y-104883028D01*
X120281572Y-104883028D02*
X120281572Y-103383028D01*
X121210144Y-104883028D02*
X121067287Y-104811600D01*
X121067287Y-104811600D02*
X120995858Y-104740171D01*
X120995858Y-104740171D02*
X120924430Y-104597314D01*
X120924430Y-104597314D02*
X120924430Y-104168742D01*
X120924430Y-104168742D02*
X120995858Y-104025885D01*
X120995858Y-104025885D02*
X121067287Y-103954457D01*
X121067287Y-103954457D02*
X121210144Y-103883028D01*
X121210144Y-103883028D02*
X121424430Y-103883028D01*
X121424430Y-103883028D02*
X121567287Y-103954457D01*
X121567287Y-103954457D02*
X121638716Y-104025885D01*
X121638716Y-104025885D02*
X121710144Y-104168742D01*
X121710144Y-104168742D02*
X121710144Y-104597314D01*
X121710144Y-104597314D02*
X121638716Y-104740171D01*
X121638716Y-104740171D02*
X121567287Y-104811600D01*
X121567287Y-104811600D02*
X121424430Y-104883028D01*
X121424430Y-104883028D02*
X121210144Y-104883028D01*
X58895863Y-100140314D02*
X59395863Y-100140314D01*
X59610149Y-100926028D02*
X58895863Y-100926028D01*
X58895863Y-100926028D02*
X58895863Y-99426028D01*
X58895863Y-99426028D02*
X59610149Y-99426028D01*
X60253006Y-100926028D02*
X60253006Y-99426028D01*
X60253006Y-99426028D02*
X61110149Y-100926028D01*
X61110149Y-100926028D02*
X61110149Y-99426028D01*
X61824435Y-100926028D02*
X61824435Y-99426028D01*
X63324436Y-99497457D02*
X63181579Y-99426028D01*
X63181579Y-99426028D02*
X62967293Y-99426028D01*
X62967293Y-99426028D02*
X62753007Y-99497457D01*
X62753007Y-99497457D02*
X62610150Y-99640314D01*
X62610150Y-99640314D02*
X62538721Y-99783171D01*
X62538721Y-99783171D02*
X62467293Y-100068885D01*
X62467293Y-100068885D02*
X62467293Y-100283171D01*
X62467293Y-100283171D02*
X62538721Y-100568885D01*
X62538721Y-100568885D02*
X62610150Y-100711742D01*
X62610150Y-100711742D02*
X62753007Y-100854600D01*
X62753007Y-100854600D02*
X62967293Y-100926028D01*
X62967293Y-100926028D02*
X63110150Y-100926028D01*
X63110150Y-100926028D02*
X63324436Y-100854600D01*
X63324436Y-100854600D02*
X63395864Y-100783171D01*
X63395864Y-100783171D02*
X63395864Y-100283171D01*
X63395864Y-100283171D02*
X63110150Y-100283171D01*
X94981572Y-88269314D02*
X95195858Y-88340742D01*
X95195858Y-88340742D02*
X95267287Y-88412171D01*
X95267287Y-88412171D02*
X95338715Y-88555028D01*
X95338715Y-88555028D02*
X95338715Y-88769314D01*
X95338715Y-88769314D02*
X95267287Y-88912171D01*
X95267287Y-88912171D02*
X95195858Y-88983600D01*
X95195858Y-88983600D02*
X95053001Y-89055028D01*
X95053001Y-89055028D02*
X94481572Y-89055028D01*
X94481572Y-89055028D02*
X94481572Y-87555028D01*
X94481572Y-87555028D02*
X94981572Y-87555028D01*
X94981572Y-87555028D02*
X95124430Y-87626457D01*
X95124430Y-87626457D02*
X95195858Y-87697885D01*
X95195858Y-87697885D02*
X95267287Y-87840742D01*
X95267287Y-87840742D02*
X95267287Y-87983600D01*
X95267287Y-87983600D02*
X95195858Y-88126457D01*
X95195858Y-88126457D02*
X95124430Y-88197885D01*
X95124430Y-88197885D02*
X94981572Y-88269314D01*
X94981572Y-88269314D02*
X94481572Y-88269314D01*
X96195858Y-89055028D02*
X96053001Y-88983600D01*
X96053001Y-88983600D02*
X95981572Y-88912171D01*
X95981572Y-88912171D02*
X95910144Y-88769314D01*
X95910144Y-88769314D02*
X95910144Y-88340742D01*
X95910144Y-88340742D02*
X95981572Y-88197885D01*
X95981572Y-88197885D02*
X96053001Y-88126457D01*
X96053001Y-88126457D02*
X96195858Y-88055028D01*
X96195858Y-88055028D02*
X96410144Y-88055028D01*
X96410144Y-88055028D02*
X96553001Y-88126457D01*
X96553001Y-88126457D02*
X96624430Y-88197885D01*
X96624430Y-88197885D02*
X96695858Y-88340742D01*
X96695858Y-88340742D02*
X96695858Y-88769314D01*
X96695858Y-88769314D02*
X96624430Y-88912171D01*
X96624430Y-88912171D02*
X96553001Y-88983600D01*
X96553001Y-88983600D02*
X96410144Y-89055028D01*
X96410144Y-89055028D02*
X96195858Y-89055028D01*
X97981573Y-89055028D02*
X97981573Y-88269314D01*
X97981573Y-88269314D02*
X97910144Y-88126457D01*
X97910144Y-88126457D02*
X97767287Y-88055028D01*
X97767287Y-88055028D02*
X97481573Y-88055028D01*
X97481573Y-88055028D02*
X97338715Y-88126457D01*
X97981573Y-88983600D02*
X97838715Y-89055028D01*
X97838715Y-89055028D02*
X97481573Y-89055028D01*
X97481573Y-89055028D02*
X97338715Y-88983600D01*
X97338715Y-88983600D02*
X97267287Y-88840742D01*
X97267287Y-88840742D02*
X97267287Y-88697885D01*
X97267287Y-88697885D02*
X97338715Y-88555028D01*
X97338715Y-88555028D02*
X97481573Y-88483600D01*
X97481573Y-88483600D02*
X97838715Y-88483600D01*
X97838715Y-88483600D02*
X97981573Y-88412171D01*
X98695858Y-89055028D02*
X98695858Y-88055028D01*
X98695858Y-88340742D02*
X98767287Y-88197885D01*
X98767287Y-88197885D02*
X98838716Y-88126457D01*
X98838716Y-88126457D02*
X98981573Y-88055028D01*
X98981573Y-88055028D02*
X99124430Y-88055028D01*
X100267287Y-89055028D02*
X100267287Y-87555028D01*
X100267287Y-88983600D02*
X100124429Y-89055028D01*
X100124429Y-89055028D02*
X99838715Y-89055028D01*
X99838715Y-89055028D02*
X99695858Y-88983600D01*
X99695858Y-88983600D02*
X99624429Y-88912171D01*
X99624429Y-88912171D02*
X99553001Y-88769314D01*
X99553001Y-88769314D02*
X99553001Y-88340742D01*
X99553001Y-88340742D02*
X99624429Y-88197885D01*
X99624429Y-88197885D02*
X99695858Y-88126457D01*
X99695858Y-88126457D02*
X99838715Y-88055028D01*
X99838715Y-88055028D02*
X100124429Y-88055028D01*
X100124429Y-88055028D02*
X100267287Y-88126457D01*
X101910144Y-87555028D02*
X102767287Y-87555028D01*
X102338715Y-89055028D02*
X102338715Y-87555028D01*
X103267286Y-89055028D02*
X103267286Y-87555028D01*
X103910144Y-89055028D02*
X103910144Y-88269314D01*
X103910144Y-88269314D02*
X103838715Y-88126457D01*
X103838715Y-88126457D02*
X103695858Y-88055028D01*
X103695858Y-88055028D02*
X103481572Y-88055028D01*
X103481572Y-88055028D02*
X103338715Y-88126457D01*
X103338715Y-88126457D02*
X103267286Y-88197885D01*
X104624429Y-89055028D02*
X104624429Y-88055028D01*
X104624429Y-87555028D02*
X104553001Y-87626457D01*
X104553001Y-87626457D02*
X104624429Y-87697885D01*
X104624429Y-87697885D02*
X104695858Y-87626457D01*
X104695858Y-87626457D02*
X104624429Y-87555028D01*
X104624429Y-87555028D02*
X104624429Y-87697885D01*
X105981573Y-88983600D02*
X105838715Y-89055028D01*
X105838715Y-89055028D02*
X105553001Y-89055028D01*
X105553001Y-89055028D02*
X105410144Y-88983600D01*
X105410144Y-88983600D02*
X105338715Y-88912171D01*
X105338715Y-88912171D02*
X105267287Y-88769314D01*
X105267287Y-88769314D02*
X105267287Y-88340742D01*
X105267287Y-88340742D02*
X105338715Y-88197885D01*
X105338715Y-88197885D02*
X105410144Y-88126457D01*
X105410144Y-88126457D02*
X105553001Y-88055028D01*
X105553001Y-88055028D02*
X105838715Y-88055028D01*
X105838715Y-88055028D02*
X105981573Y-88126457D01*
X106624429Y-89055028D02*
X106624429Y-87555028D01*
X106767287Y-88483600D02*
X107195858Y-89055028D01*
X107195858Y-88055028D02*
X106624429Y-88626457D01*
X107838715Y-88055028D02*
X107838715Y-89055028D01*
X107838715Y-88197885D02*
X107910144Y-88126457D01*
X107910144Y-88126457D02*
X108053001Y-88055028D01*
X108053001Y-88055028D02*
X108267287Y-88055028D01*
X108267287Y-88055028D02*
X108410144Y-88126457D01*
X108410144Y-88126457D02*
X108481573Y-88269314D01*
X108481573Y-88269314D02*
X108481573Y-89055028D01*
X109767287Y-88983600D02*
X109624430Y-89055028D01*
X109624430Y-89055028D02*
X109338716Y-89055028D01*
X109338716Y-89055028D02*
X109195858Y-88983600D01*
X109195858Y-88983600D02*
X109124430Y-88840742D01*
X109124430Y-88840742D02*
X109124430Y-88269314D01*
X109124430Y-88269314D02*
X109195858Y-88126457D01*
X109195858Y-88126457D02*
X109338716Y-88055028D01*
X109338716Y-88055028D02*
X109624430Y-88055028D01*
X109624430Y-88055028D02*
X109767287Y-88126457D01*
X109767287Y-88126457D02*
X109838716Y-88269314D01*
X109838716Y-88269314D02*
X109838716Y-88412171D01*
X109838716Y-88412171D02*
X109124430Y-88555028D01*
X110410144Y-88983600D02*
X110553001Y-89055028D01*
X110553001Y-89055028D02*
X110838715Y-89055028D01*
X110838715Y-89055028D02*
X110981572Y-88983600D01*
X110981572Y-88983600D02*
X111053001Y-88840742D01*
X111053001Y-88840742D02*
X111053001Y-88769314D01*
X111053001Y-88769314D02*
X110981572Y-88626457D01*
X110981572Y-88626457D02*
X110838715Y-88555028D01*
X110838715Y-88555028D02*
X110624430Y-88555028D01*
X110624430Y-88555028D02*
X110481572Y-88483600D01*
X110481572Y-88483600D02*
X110410144Y-88340742D01*
X110410144Y-88340742D02*
X110410144Y-88269314D01*
X110410144Y-88269314D02*
X110481572Y-88126457D01*
X110481572Y-88126457D02*
X110624430Y-88055028D01*
X110624430Y-88055028D02*
X110838715Y-88055028D01*
X110838715Y-88055028D02*
X110981572Y-88126457D01*
X111624430Y-88983600D02*
X111767287Y-89055028D01*
X111767287Y-89055028D02*
X112053001Y-89055028D01*
X112053001Y-89055028D02*
X112195858Y-88983600D01*
X112195858Y-88983600D02*
X112267287Y-88840742D01*
X112267287Y-88840742D02*
X112267287Y-88769314D01*
X112267287Y-88769314D02*
X112195858Y-88626457D01*
X112195858Y-88626457D02*
X112053001Y-88555028D01*
X112053001Y-88555028D02*
X111838716Y-88555028D01*
X111838716Y-88555028D02*
X111695858Y-88483600D01*
X111695858Y-88483600D02*
X111624430Y-88340742D01*
X111624430Y-88340742D02*
X111624430Y-88269314D01*
X111624430Y-88269314D02*
X111695858Y-88126457D01*
X111695858Y-88126457D02*
X111838716Y-88055028D01*
X111838716Y-88055028D02*
X112053001Y-88055028D01*
X112053001Y-88055028D02*
X112195858Y-88126457D01*
X112910144Y-88912171D02*
X112981573Y-88983600D01*
X112981573Y-88983600D02*
X112910144Y-89055028D01*
X112910144Y-89055028D02*
X112838716Y-88983600D01*
X112838716Y-88983600D02*
X112910144Y-88912171D01*
X112910144Y-88912171D02*
X112910144Y-89055028D01*
X112910144Y-88126457D02*
X112981573Y-88197885D01*
X112981573Y-88197885D02*
X112910144Y-88269314D01*
X112910144Y-88269314D02*
X112838716Y-88197885D01*
X112838716Y-88197885D02*
X112910144Y-88126457D01*
X112910144Y-88126457D02*
X112910144Y-88269314D01*
X27095863Y-104740171D02*
X27024435Y-104811600D01*
X27024435Y-104811600D02*
X26810149Y-104883028D01*
X26810149Y-104883028D02*
X26667292Y-104883028D01*
X26667292Y-104883028D02*
X26453006Y-104811600D01*
X26453006Y-104811600D02*
X26310149Y-104668742D01*
X26310149Y-104668742D02*
X26238720Y-104525885D01*
X26238720Y-104525885D02*
X26167292Y-104240171D01*
X26167292Y-104240171D02*
X26167292Y-104025885D01*
X26167292Y-104025885D02*
X26238720Y-103740171D01*
X26238720Y-103740171D02*
X26310149Y-103597314D01*
X26310149Y-103597314D02*
X26453006Y-103454457D01*
X26453006Y-103454457D02*
X26667292Y-103383028D01*
X26667292Y-103383028D02*
X26810149Y-103383028D01*
X26810149Y-103383028D02*
X27024435Y-103454457D01*
X27024435Y-103454457D02*
X27095863Y-103525885D01*
X28381578Y-104883028D02*
X28381578Y-104097314D01*
X28381578Y-104097314D02*
X28310149Y-103954457D01*
X28310149Y-103954457D02*
X28167292Y-103883028D01*
X28167292Y-103883028D02*
X27881578Y-103883028D01*
X27881578Y-103883028D02*
X27738720Y-103954457D01*
X28381578Y-104811600D02*
X28238720Y-104883028D01*
X28238720Y-104883028D02*
X27881578Y-104883028D01*
X27881578Y-104883028D02*
X27738720Y-104811600D01*
X27738720Y-104811600D02*
X27667292Y-104668742D01*
X27667292Y-104668742D02*
X27667292Y-104525885D01*
X27667292Y-104525885D02*
X27738720Y-104383028D01*
X27738720Y-104383028D02*
X27881578Y-104311600D01*
X27881578Y-104311600D02*
X28238720Y-104311600D01*
X28238720Y-104311600D02*
X28381578Y-104240171D01*
X29024435Y-104811600D02*
X29167292Y-104883028D01*
X29167292Y-104883028D02*
X29453006Y-104883028D01*
X29453006Y-104883028D02*
X29595863Y-104811600D01*
X29595863Y-104811600D02*
X29667292Y-104668742D01*
X29667292Y-104668742D02*
X29667292Y-104597314D01*
X29667292Y-104597314D02*
X29595863Y-104454457D01*
X29595863Y-104454457D02*
X29453006Y-104383028D01*
X29453006Y-104383028D02*
X29238721Y-104383028D01*
X29238721Y-104383028D02*
X29095863Y-104311600D01*
X29095863Y-104311600D02*
X29024435Y-104168742D01*
X29024435Y-104168742D02*
X29024435Y-104097314D01*
X29024435Y-104097314D02*
X29095863Y-103954457D01*
X29095863Y-103954457D02*
X29238721Y-103883028D01*
X29238721Y-103883028D02*
X29453006Y-103883028D01*
X29453006Y-103883028D02*
X29595863Y-103954457D01*
X30095864Y-103883028D02*
X30667292Y-103883028D01*
X30310149Y-103383028D02*
X30310149Y-104668742D01*
X30310149Y-104668742D02*
X30381578Y-104811600D01*
X30381578Y-104811600D02*
X30524435Y-104883028D01*
X30524435Y-104883028D02*
X30667292Y-104883028D01*
X31738721Y-104811600D02*
X31595864Y-104883028D01*
X31595864Y-104883028D02*
X31310150Y-104883028D01*
X31310150Y-104883028D02*
X31167292Y-104811600D01*
X31167292Y-104811600D02*
X31095864Y-104668742D01*
X31095864Y-104668742D02*
X31095864Y-104097314D01*
X31095864Y-104097314D02*
X31167292Y-103954457D01*
X31167292Y-103954457D02*
X31310150Y-103883028D01*
X31310150Y-103883028D02*
X31595864Y-103883028D01*
X31595864Y-103883028D02*
X31738721Y-103954457D01*
X31738721Y-103954457D02*
X31810150Y-104097314D01*
X31810150Y-104097314D02*
X31810150Y-104240171D01*
X31810150Y-104240171D02*
X31095864Y-104383028D01*
X32667292Y-104883028D02*
X32524435Y-104811600D01*
X32524435Y-104811600D02*
X32453006Y-104668742D01*
X32453006Y-104668742D02*
X32453006Y-103383028D01*
X33453006Y-104883028D02*
X33310149Y-104811600D01*
X33310149Y-104811600D02*
X33238720Y-104668742D01*
X33238720Y-104668742D02*
X33238720Y-103383028D01*
X34667292Y-104883028D02*
X34667292Y-104097314D01*
X34667292Y-104097314D02*
X34595863Y-103954457D01*
X34595863Y-103954457D02*
X34453006Y-103883028D01*
X34453006Y-103883028D02*
X34167292Y-103883028D01*
X34167292Y-103883028D02*
X34024434Y-103954457D01*
X34667292Y-104811600D02*
X34524434Y-104883028D01*
X34524434Y-104883028D02*
X34167292Y-104883028D01*
X34167292Y-104883028D02*
X34024434Y-104811600D01*
X34024434Y-104811600D02*
X33953006Y-104668742D01*
X33953006Y-104668742D02*
X33953006Y-104525885D01*
X33953006Y-104525885D02*
X34024434Y-104383028D01*
X34024434Y-104383028D02*
X34167292Y-104311600D01*
X34167292Y-104311600D02*
X34524434Y-104311600D01*
X34524434Y-104311600D02*
X34667292Y-104240171D01*
X35167292Y-103883028D02*
X35738720Y-103883028D01*
X35381577Y-103383028D02*
X35381577Y-104668742D01*
X35381577Y-104668742D02*
X35453006Y-104811600D01*
X35453006Y-104811600D02*
X35595863Y-104883028D01*
X35595863Y-104883028D02*
X35738720Y-104883028D01*
X36810149Y-104811600D02*
X36667292Y-104883028D01*
X36667292Y-104883028D02*
X36381578Y-104883028D01*
X36381578Y-104883028D02*
X36238720Y-104811600D01*
X36238720Y-104811600D02*
X36167292Y-104668742D01*
X36167292Y-104668742D02*
X36167292Y-104097314D01*
X36167292Y-104097314D02*
X36238720Y-103954457D01*
X36238720Y-103954457D02*
X36381578Y-103883028D01*
X36381578Y-103883028D02*
X36667292Y-103883028D01*
X36667292Y-103883028D02*
X36810149Y-103954457D01*
X36810149Y-103954457D02*
X36881578Y-104097314D01*
X36881578Y-104097314D02*
X36881578Y-104240171D01*
X36881578Y-104240171D02*
X36167292Y-104383028D01*
X38167292Y-104883028D02*
X38167292Y-103383028D01*
X38167292Y-104811600D02*
X38024434Y-104883028D01*
X38024434Y-104883028D02*
X37738720Y-104883028D01*
X37738720Y-104883028D02*
X37595863Y-104811600D01*
X37595863Y-104811600D02*
X37524434Y-104740171D01*
X37524434Y-104740171D02*
X37453006Y-104597314D01*
X37453006Y-104597314D02*
X37453006Y-104168742D01*
X37453006Y-104168742D02*
X37524434Y-104025885D01*
X37524434Y-104025885D02*
X37595863Y-103954457D01*
X37595863Y-103954457D02*
X37738720Y-103883028D01*
X37738720Y-103883028D02*
X38024434Y-103883028D01*
X38024434Y-103883028D02*
X38167292Y-103954457D01*
X40024434Y-103883028D02*
X40024434Y-105383028D01*
X40024434Y-103954457D02*
X40167292Y-103883028D01*
X40167292Y-103883028D02*
X40453006Y-103883028D01*
X40453006Y-103883028D02*
X40595863Y-103954457D01*
X40595863Y-103954457D02*
X40667292Y-104025885D01*
X40667292Y-104025885D02*
X40738720Y-104168742D01*
X40738720Y-104168742D02*
X40738720Y-104597314D01*
X40738720Y-104597314D02*
X40667292Y-104740171D01*
X40667292Y-104740171D02*
X40595863Y-104811600D01*
X40595863Y-104811600D02*
X40453006Y-104883028D01*
X40453006Y-104883028D02*
X40167292Y-104883028D01*
X40167292Y-104883028D02*
X40024434Y-104811600D01*
X42024435Y-104883028D02*
X42024435Y-104097314D01*
X42024435Y-104097314D02*
X41953006Y-103954457D01*
X41953006Y-103954457D02*
X41810149Y-103883028D01*
X41810149Y-103883028D02*
X41524435Y-103883028D01*
X41524435Y-103883028D02*
X41381577Y-103954457D01*
X42024435Y-104811600D02*
X41881577Y-104883028D01*
X41881577Y-104883028D02*
X41524435Y-104883028D01*
X41524435Y-104883028D02*
X41381577Y-104811600D01*
X41381577Y-104811600D02*
X41310149Y-104668742D01*
X41310149Y-104668742D02*
X41310149Y-104525885D01*
X41310149Y-104525885D02*
X41381577Y-104383028D01*
X41381577Y-104383028D02*
X41524435Y-104311600D01*
X41524435Y-104311600D02*
X41881577Y-104311600D01*
X41881577Y-104311600D02*
X42024435Y-104240171D01*
X43381578Y-104883028D02*
X43381578Y-103383028D01*
X43381578Y-104811600D02*
X43238720Y-104883028D01*
X43238720Y-104883028D02*
X42953006Y-104883028D01*
X42953006Y-104883028D02*
X42810149Y-104811600D01*
X42810149Y-104811600D02*
X42738720Y-104740171D01*
X42738720Y-104740171D02*
X42667292Y-104597314D01*
X42667292Y-104597314D02*
X42667292Y-104168742D01*
X42667292Y-104168742D02*
X42738720Y-104025885D01*
X42738720Y-104025885D02*
X42810149Y-103954457D01*
X42810149Y-103954457D02*
X42953006Y-103883028D01*
X42953006Y-103883028D02*
X43238720Y-103883028D01*
X43238720Y-103883028D02*
X43381578Y-103954457D01*
X44024435Y-104811600D02*
X44167292Y-104883028D01*
X44167292Y-104883028D02*
X44453006Y-104883028D01*
X44453006Y-104883028D02*
X44595863Y-104811600D01*
X44595863Y-104811600D02*
X44667292Y-104668742D01*
X44667292Y-104668742D02*
X44667292Y-104597314D01*
X44667292Y-104597314D02*
X44595863Y-104454457D01*
X44595863Y-104454457D02*
X44453006Y-104383028D01*
X44453006Y-104383028D02*
X44238721Y-104383028D01*
X44238721Y-104383028D02*
X44095863Y-104311600D01*
X44095863Y-104311600D02*
X44024435Y-104168742D01*
X44024435Y-104168742D02*
X44024435Y-104097314D01*
X44024435Y-104097314D02*
X44095863Y-103954457D01*
X44095863Y-103954457D02*
X44238721Y-103883028D01*
X44238721Y-103883028D02*
X44453006Y-103883028D01*
X44453006Y-103883028D02*
X44595863Y-103954457D01*
X45310149Y-104740171D02*
X45381578Y-104811600D01*
X45381578Y-104811600D02*
X45310149Y-104883028D01*
X45310149Y-104883028D02*
X45238721Y-104811600D01*
X45238721Y-104811600D02*
X45310149Y-104740171D01*
X45310149Y-104740171D02*
X45310149Y-104883028D01*
X45310149Y-103954457D02*
X45381578Y-104025885D01*
X45381578Y-104025885D02*
X45310149Y-104097314D01*
X45310149Y-104097314D02*
X45238721Y-104025885D01*
X45238721Y-104025885D02*
X45310149Y-103954457D01*
X45310149Y-103954457D02*
X45310149Y-104097314D01*
X27095863Y-88912171D02*
X27024435Y-88983600D01*
X27024435Y-88983600D02*
X26810149Y-89055028D01*
X26810149Y-89055028D02*
X26667292Y-89055028D01*
X26667292Y-89055028D02*
X26453006Y-88983600D01*
X26453006Y-88983600D02*
X26310149Y-88840742D01*
X26310149Y-88840742D02*
X26238720Y-88697885D01*
X26238720Y-88697885D02*
X26167292Y-88412171D01*
X26167292Y-88412171D02*
X26167292Y-88197885D01*
X26167292Y-88197885D02*
X26238720Y-87912171D01*
X26238720Y-87912171D02*
X26310149Y-87769314D01*
X26310149Y-87769314D02*
X26453006Y-87626457D01*
X26453006Y-87626457D02*
X26667292Y-87555028D01*
X26667292Y-87555028D02*
X26810149Y-87555028D01*
X26810149Y-87555028D02*
X27024435Y-87626457D01*
X27024435Y-87626457D02*
X27095863Y-87697885D01*
X27953006Y-89055028D02*
X27810149Y-88983600D01*
X27810149Y-88983600D02*
X27738720Y-88912171D01*
X27738720Y-88912171D02*
X27667292Y-88769314D01*
X27667292Y-88769314D02*
X27667292Y-88340742D01*
X27667292Y-88340742D02*
X27738720Y-88197885D01*
X27738720Y-88197885D02*
X27810149Y-88126457D01*
X27810149Y-88126457D02*
X27953006Y-88055028D01*
X27953006Y-88055028D02*
X28167292Y-88055028D01*
X28167292Y-88055028D02*
X28310149Y-88126457D01*
X28310149Y-88126457D02*
X28381578Y-88197885D01*
X28381578Y-88197885D02*
X28453006Y-88340742D01*
X28453006Y-88340742D02*
X28453006Y-88769314D01*
X28453006Y-88769314D02*
X28381578Y-88912171D01*
X28381578Y-88912171D02*
X28310149Y-88983600D01*
X28310149Y-88983600D02*
X28167292Y-89055028D01*
X28167292Y-89055028D02*
X27953006Y-89055028D01*
X29095863Y-88055028D02*
X29095863Y-89555028D01*
X29095863Y-88126457D02*
X29238721Y-88055028D01*
X29238721Y-88055028D02*
X29524435Y-88055028D01*
X29524435Y-88055028D02*
X29667292Y-88126457D01*
X29667292Y-88126457D02*
X29738721Y-88197885D01*
X29738721Y-88197885D02*
X29810149Y-88340742D01*
X29810149Y-88340742D02*
X29810149Y-88769314D01*
X29810149Y-88769314D02*
X29738721Y-88912171D01*
X29738721Y-88912171D02*
X29667292Y-88983600D01*
X29667292Y-88983600D02*
X29524435Y-89055028D01*
X29524435Y-89055028D02*
X29238721Y-89055028D01*
X29238721Y-89055028D02*
X29095863Y-88983600D01*
X30453006Y-88055028D02*
X30453006Y-89555028D01*
X30453006Y-88126457D02*
X30595864Y-88055028D01*
X30595864Y-88055028D02*
X30881578Y-88055028D01*
X30881578Y-88055028D02*
X31024435Y-88126457D01*
X31024435Y-88126457D02*
X31095864Y-88197885D01*
X31095864Y-88197885D02*
X31167292Y-88340742D01*
X31167292Y-88340742D02*
X31167292Y-88769314D01*
X31167292Y-88769314D02*
X31095864Y-88912171D01*
X31095864Y-88912171D02*
X31024435Y-88983600D01*
X31024435Y-88983600D02*
X30881578Y-89055028D01*
X30881578Y-89055028D02*
X30595864Y-89055028D01*
X30595864Y-89055028D02*
X30453006Y-88983600D01*
X32381578Y-88983600D02*
X32238721Y-89055028D01*
X32238721Y-89055028D02*
X31953007Y-89055028D01*
X31953007Y-89055028D02*
X31810149Y-88983600D01*
X31810149Y-88983600D02*
X31738721Y-88840742D01*
X31738721Y-88840742D02*
X31738721Y-88269314D01*
X31738721Y-88269314D02*
X31810149Y-88126457D01*
X31810149Y-88126457D02*
X31953007Y-88055028D01*
X31953007Y-88055028D02*
X32238721Y-88055028D01*
X32238721Y-88055028D02*
X32381578Y-88126457D01*
X32381578Y-88126457D02*
X32453007Y-88269314D01*
X32453007Y-88269314D02*
X32453007Y-88412171D01*
X32453007Y-88412171D02*
X31738721Y-88555028D01*
X33095863Y-89055028D02*
X33095863Y-88055028D01*
X33095863Y-88340742D02*
X33167292Y-88197885D01*
X33167292Y-88197885D02*
X33238721Y-88126457D01*
X33238721Y-88126457D02*
X33381578Y-88055028D01*
X33381578Y-88055028D02*
X33524435Y-88055028D01*
X35881577Y-89055028D02*
X35167291Y-89055028D01*
X35167291Y-89055028D02*
X35167291Y-87555028D01*
X37024435Y-89055028D02*
X37024435Y-88269314D01*
X37024435Y-88269314D02*
X36953006Y-88126457D01*
X36953006Y-88126457D02*
X36810149Y-88055028D01*
X36810149Y-88055028D02*
X36524435Y-88055028D01*
X36524435Y-88055028D02*
X36381577Y-88126457D01*
X37024435Y-88983600D02*
X36881577Y-89055028D01*
X36881577Y-89055028D02*
X36524435Y-89055028D01*
X36524435Y-89055028D02*
X36381577Y-88983600D01*
X36381577Y-88983600D02*
X36310149Y-88840742D01*
X36310149Y-88840742D02*
X36310149Y-88697885D01*
X36310149Y-88697885D02*
X36381577Y-88555028D01*
X36381577Y-88555028D02*
X36524435Y-88483600D01*
X36524435Y-88483600D02*
X36881577Y-88483600D01*
X36881577Y-88483600D02*
X37024435Y-88412171D01*
X37595863Y-88055028D02*
X37953006Y-89055028D01*
X38310149Y-88055028D02*
X37953006Y-89055028D01*
X37953006Y-89055028D02*
X37810149Y-89412171D01*
X37810149Y-89412171D02*
X37738720Y-89483600D01*
X37738720Y-89483600D02*
X37595863Y-89555028D01*
X39453006Y-88983600D02*
X39310149Y-89055028D01*
X39310149Y-89055028D02*
X39024435Y-89055028D01*
X39024435Y-89055028D02*
X38881577Y-88983600D01*
X38881577Y-88983600D02*
X38810149Y-88840742D01*
X38810149Y-88840742D02*
X38810149Y-88269314D01*
X38810149Y-88269314D02*
X38881577Y-88126457D01*
X38881577Y-88126457D02*
X39024435Y-88055028D01*
X39024435Y-88055028D02*
X39310149Y-88055028D01*
X39310149Y-88055028D02*
X39453006Y-88126457D01*
X39453006Y-88126457D02*
X39524435Y-88269314D01*
X39524435Y-88269314D02*
X39524435Y-88412171D01*
X39524435Y-88412171D02*
X38810149Y-88555028D01*
X40167291Y-89055028D02*
X40167291Y-88055028D01*
X40167291Y-88340742D02*
X40238720Y-88197885D01*
X40238720Y-88197885D02*
X40310149Y-88126457D01*
X40310149Y-88126457D02*
X40453006Y-88055028D01*
X40453006Y-88055028D02*
X40595863Y-88055028D01*
X43095862Y-88912171D02*
X43024434Y-88983600D01*
X43024434Y-88983600D02*
X42810148Y-89055028D01*
X42810148Y-89055028D02*
X42667291Y-89055028D01*
X42667291Y-89055028D02*
X42453005Y-88983600D01*
X42453005Y-88983600D02*
X42310148Y-88840742D01*
X42310148Y-88840742D02*
X42238719Y-88697885D01*
X42238719Y-88697885D02*
X42167291Y-88412171D01*
X42167291Y-88412171D02*
X42167291Y-88197885D01*
X42167291Y-88197885D02*
X42238719Y-87912171D01*
X42238719Y-87912171D02*
X42310148Y-87769314D01*
X42310148Y-87769314D02*
X42453005Y-87626457D01*
X42453005Y-87626457D02*
X42667291Y-87555028D01*
X42667291Y-87555028D02*
X42810148Y-87555028D01*
X42810148Y-87555028D02*
X43024434Y-87626457D01*
X43024434Y-87626457D02*
X43095862Y-87697885D01*
X43953005Y-89055028D02*
X43810148Y-88983600D01*
X43810148Y-88983600D02*
X43738719Y-88912171D01*
X43738719Y-88912171D02*
X43667291Y-88769314D01*
X43667291Y-88769314D02*
X43667291Y-88340742D01*
X43667291Y-88340742D02*
X43738719Y-88197885D01*
X43738719Y-88197885D02*
X43810148Y-88126457D01*
X43810148Y-88126457D02*
X43953005Y-88055028D01*
X43953005Y-88055028D02*
X44167291Y-88055028D01*
X44167291Y-88055028D02*
X44310148Y-88126457D01*
X44310148Y-88126457D02*
X44381577Y-88197885D01*
X44381577Y-88197885D02*
X44453005Y-88340742D01*
X44453005Y-88340742D02*
X44453005Y-88769314D01*
X44453005Y-88769314D02*
X44381577Y-88912171D01*
X44381577Y-88912171D02*
X44310148Y-88983600D01*
X44310148Y-88983600D02*
X44167291Y-89055028D01*
X44167291Y-89055028D02*
X43953005Y-89055028D01*
X45738720Y-88055028D02*
X45738720Y-89055028D01*
X45095862Y-88055028D02*
X45095862Y-88840742D01*
X45095862Y-88840742D02*
X45167291Y-88983600D01*
X45167291Y-88983600D02*
X45310148Y-89055028D01*
X45310148Y-89055028D02*
X45524434Y-89055028D01*
X45524434Y-89055028D02*
X45667291Y-88983600D01*
X45667291Y-88983600D02*
X45738720Y-88912171D01*
X46453005Y-88055028D02*
X46453005Y-89055028D01*
X46453005Y-88197885D02*
X46524434Y-88126457D01*
X46524434Y-88126457D02*
X46667291Y-88055028D01*
X46667291Y-88055028D02*
X46881577Y-88055028D01*
X46881577Y-88055028D02*
X47024434Y-88126457D01*
X47024434Y-88126457D02*
X47095863Y-88269314D01*
X47095863Y-88269314D02*
X47095863Y-89055028D01*
X47595863Y-88055028D02*
X48167291Y-88055028D01*
X47810148Y-87555028D02*
X47810148Y-88840742D01*
X47810148Y-88840742D02*
X47881577Y-88983600D01*
X47881577Y-88983600D02*
X48024434Y-89055028D01*
X48024434Y-89055028D02*
X48167291Y-89055028D01*
X48667291Y-88912171D02*
X48738720Y-88983600D01*
X48738720Y-88983600D02*
X48667291Y-89055028D01*
X48667291Y-89055028D02*
X48595863Y-88983600D01*
X48595863Y-88983600D02*
X48667291Y-88912171D01*
X48667291Y-88912171D02*
X48667291Y-89055028D01*
X48667291Y-88126457D02*
X48738720Y-88197885D01*
X48738720Y-88197885D02*
X48667291Y-88269314D01*
X48667291Y-88269314D02*
X48595863Y-88197885D01*
X48595863Y-88197885D02*
X48667291Y-88126457D01*
X48667291Y-88126457D02*
X48667291Y-88269314D01*
X94481572Y-104883028D02*
X94481572Y-103383028D01*
X94481572Y-103383028D02*
X95053001Y-103383028D01*
X95053001Y-103383028D02*
X95195858Y-103454457D01*
X95195858Y-103454457D02*
X95267287Y-103525885D01*
X95267287Y-103525885D02*
X95338715Y-103668742D01*
X95338715Y-103668742D02*
X95338715Y-103883028D01*
X95338715Y-103883028D02*
X95267287Y-104025885D01*
X95267287Y-104025885D02*
X95195858Y-104097314D01*
X95195858Y-104097314D02*
X95053001Y-104168742D01*
X95053001Y-104168742D02*
X94481572Y-104168742D01*
X96195858Y-104883028D02*
X96053001Y-104811600D01*
X96053001Y-104811600D02*
X95981572Y-104668742D01*
X95981572Y-104668742D02*
X95981572Y-103383028D01*
X97410144Y-104883028D02*
X97410144Y-104097314D01*
X97410144Y-104097314D02*
X97338715Y-103954457D01*
X97338715Y-103954457D02*
X97195858Y-103883028D01*
X97195858Y-103883028D02*
X96910144Y-103883028D01*
X96910144Y-103883028D02*
X96767286Y-103954457D01*
X97410144Y-104811600D02*
X97267286Y-104883028D01*
X97267286Y-104883028D02*
X96910144Y-104883028D01*
X96910144Y-104883028D02*
X96767286Y-104811600D01*
X96767286Y-104811600D02*
X96695858Y-104668742D01*
X96695858Y-104668742D02*
X96695858Y-104525885D01*
X96695858Y-104525885D02*
X96767286Y-104383028D01*
X96767286Y-104383028D02*
X96910144Y-104311600D01*
X96910144Y-104311600D02*
X97267286Y-104311600D01*
X97267286Y-104311600D02*
X97410144Y-104240171D01*
X97910144Y-103883028D02*
X98481572Y-103883028D01*
X98124429Y-103383028D02*
X98124429Y-104668742D01*
X98124429Y-104668742D02*
X98195858Y-104811600D01*
X98195858Y-104811600D02*
X98338715Y-104883028D01*
X98338715Y-104883028D02*
X98481572Y-104883028D01*
X99553001Y-104811600D02*
X99410144Y-104883028D01*
X99410144Y-104883028D02*
X99124430Y-104883028D01*
X99124430Y-104883028D02*
X98981572Y-104811600D01*
X98981572Y-104811600D02*
X98910144Y-104668742D01*
X98910144Y-104668742D02*
X98910144Y-104097314D01*
X98910144Y-104097314D02*
X98981572Y-103954457D01*
X98981572Y-103954457D02*
X99124430Y-103883028D01*
X99124430Y-103883028D02*
X99410144Y-103883028D01*
X99410144Y-103883028D02*
X99553001Y-103954457D01*
X99553001Y-103954457D02*
X99624430Y-104097314D01*
X99624430Y-104097314D02*
X99624430Y-104240171D01*
X99624430Y-104240171D02*
X98910144Y-104383028D01*
X100910144Y-104883028D02*
X100910144Y-103383028D01*
X100910144Y-104811600D02*
X100767286Y-104883028D01*
X100767286Y-104883028D02*
X100481572Y-104883028D01*
X100481572Y-104883028D02*
X100338715Y-104811600D01*
X100338715Y-104811600D02*
X100267286Y-104740171D01*
X100267286Y-104740171D02*
X100195858Y-104597314D01*
X100195858Y-104597314D02*
X100195858Y-104168742D01*
X100195858Y-104168742D02*
X100267286Y-104025885D01*
X100267286Y-104025885D02*
X100338715Y-103954457D01*
X100338715Y-103954457D02*
X100481572Y-103883028D01*
X100481572Y-103883028D02*
X100767286Y-103883028D01*
X100767286Y-103883028D02*
X100910144Y-103954457D01*
X103267286Y-104097314D02*
X103481572Y-104168742D01*
X103481572Y-104168742D02*
X103553001Y-104240171D01*
X103553001Y-104240171D02*
X103624429Y-104383028D01*
X103624429Y-104383028D02*
X103624429Y-104597314D01*
X103624429Y-104597314D02*
X103553001Y-104740171D01*
X103553001Y-104740171D02*
X103481572Y-104811600D01*
X103481572Y-104811600D02*
X103338715Y-104883028D01*
X103338715Y-104883028D02*
X102767286Y-104883028D01*
X102767286Y-104883028D02*
X102767286Y-103383028D01*
X102767286Y-103383028D02*
X103267286Y-103383028D01*
X103267286Y-103383028D02*
X103410144Y-103454457D01*
X103410144Y-103454457D02*
X103481572Y-103525885D01*
X103481572Y-103525885D02*
X103553001Y-103668742D01*
X103553001Y-103668742D02*
X103553001Y-103811600D01*
X103553001Y-103811600D02*
X103481572Y-103954457D01*
X103481572Y-103954457D02*
X103410144Y-104025885D01*
X103410144Y-104025885D02*
X103267286Y-104097314D01*
X103267286Y-104097314D02*
X102767286Y-104097314D01*
X104481572Y-104883028D02*
X104338715Y-104811600D01*
X104338715Y-104811600D02*
X104267286Y-104740171D01*
X104267286Y-104740171D02*
X104195858Y-104597314D01*
X104195858Y-104597314D02*
X104195858Y-104168742D01*
X104195858Y-104168742D02*
X104267286Y-104025885D01*
X104267286Y-104025885D02*
X104338715Y-103954457D01*
X104338715Y-103954457D02*
X104481572Y-103883028D01*
X104481572Y-103883028D02*
X104695858Y-103883028D01*
X104695858Y-103883028D02*
X104838715Y-103954457D01*
X104838715Y-103954457D02*
X104910144Y-104025885D01*
X104910144Y-104025885D02*
X104981572Y-104168742D01*
X104981572Y-104168742D02*
X104981572Y-104597314D01*
X104981572Y-104597314D02*
X104910144Y-104740171D01*
X104910144Y-104740171D02*
X104838715Y-104811600D01*
X104838715Y-104811600D02*
X104695858Y-104883028D01*
X104695858Y-104883028D02*
X104481572Y-104883028D01*
X106267287Y-104883028D02*
X106267287Y-104097314D01*
X106267287Y-104097314D02*
X106195858Y-103954457D01*
X106195858Y-103954457D02*
X106053001Y-103883028D01*
X106053001Y-103883028D02*
X105767287Y-103883028D01*
X105767287Y-103883028D02*
X105624429Y-103954457D01*
X106267287Y-104811600D02*
X106124429Y-104883028D01*
X106124429Y-104883028D02*
X105767287Y-104883028D01*
X105767287Y-104883028D02*
X105624429Y-104811600D01*
X105624429Y-104811600D02*
X105553001Y-104668742D01*
X105553001Y-104668742D02*
X105553001Y-104525885D01*
X105553001Y-104525885D02*
X105624429Y-104383028D01*
X105624429Y-104383028D02*
X105767287Y-104311600D01*
X105767287Y-104311600D02*
X106124429Y-104311600D01*
X106124429Y-104311600D02*
X106267287Y-104240171D01*
X106981572Y-104883028D02*
X106981572Y-103883028D01*
X106981572Y-104168742D02*
X107053001Y-104025885D01*
X107053001Y-104025885D02*
X107124430Y-103954457D01*
X107124430Y-103954457D02*
X107267287Y-103883028D01*
X107267287Y-103883028D02*
X107410144Y-103883028D01*
X108553001Y-104883028D02*
X108553001Y-103383028D01*
X108553001Y-104811600D02*
X108410143Y-104883028D01*
X108410143Y-104883028D02*
X108124429Y-104883028D01*
X108124429Y-104883028D02*
X107981572Y-104811600D01*
X107981572Y-104811600D02*
X107910143Y-104740171D01*
X107910143Y-104740171D02*
X107838715Y-104597314D01*
X107838715Y-104597314D02*
X107838715Y-104168742D01*
X107838715Y-104168742D02*
X107910143Y-104025885D01*
X107910143Y-104025885D02*
X107981572Y-103954457D01*
X107981572Y-103954457D02*
X108124429Y-103883028D01*
X108124429Y-103883028D02*
X108410143Y-103883028D01*
X108410143Y-103883028D02*
X108553001Y-103954457D01*
X110410143Y-104097314D02*
X110910143Y-104097314D01*
X111124429Y-104883028D02*
X110410143Y-104883028D01*
X110410143Y-104883028D02*
X110410143Y-103383028D01*
X110410143Y-103383028D02*
X111124429Y-103383028D01*
X112410144Y-104883028D02*
X112410144Y-103383028D01*
X112410144Y-104811600D02*
X112267286Y-104883028D01*
X112267286Y-104883028D02*
X111981572Y-104883028D01*
X111981572Y-104883028D02*
X111838715Y-104811600D01*
X111838715Y-104811600D02*
X111767286Y-104740171D01*
X111767286Y-104740171D02*
X111695858Y-104597314D01*
X111695858Y-104597314D02*
X111695858Y-104168742D01*
X111695858Y-104168742D02*
X111767286Y-104025885D01*
X111767286Y-104025885D02*
X111838715Y-103954457D01*
X111838715Y-103954457D02*
X111981572Y-103883028D01*
X111981572Y-103883028D02*
X112267286Y-103883028D01*
X112267286Y-103883028D02*
X112410144Y-103954457D01*
X113767287Y-103883028D02*
X113767287Y-105097314D01*
X113767287Y-105097314D02*
X113695858Y-105240171D01*
X113695858Y-105240171D02*
X113624429Y-105311600D01*
X113624429Y-105311600D02*
X113481572Y-105383028D01*
X113481572Y-105383028D02*
X113267287Y-105383028D01*
X113267287Y-105383028D02*
X113124429Y-105311600D01*
X113767287Y-104811600D02*
X113624429Y-104883028D01*
X113624429Y-104883028D02*
X113338715Y-104883028D01*
X113338715Y-104883028D02*
X113195858Y-104811600D01*
X113195858Y-104811600D02*
X113124429Y-104740171D01*
X113124429Y-104740171D02*
X113053001Y-104597314D01*
X113053001Y-104597314D02*
X113053001Y-104168742D01*
X113053001Y-104168742D02*
X113124429Y-104025885D01*
X113124429Y-104025885D02*
X113195858Y-103954457D01*
X113195858Y-103954457D02*
X113338715Y-103883028D01*
X113338715Y-103883028D02*
X113624429Y-103883028D01*
X113624429Y-103883028D02*
X113767287Y-103954457D01*
X115053001Y-104811600D02*
X114910144Y-104883028D01*
X114910144Y-104883028D02*
X114624430Y-104883028D01*
X114624430Y-104883028D02*
X114481572Y-104811600D01*
X114481572Y-104811600D02*
X114410144Y-104668742D01*
X114410144Y-104668742D02*
X114410144Y-104097314D01*
X114410144Y-104097314D02*
X114481572Y-103954457D01*
X114481572Y-103954457D02*
X114624430Y-103883028D01*
X114624430Y-103883028D02*
X114910144Y-103883028D01*
X114910144Y-103883028D02*
X115053001Y-103954457D01*
X115053001Y-103954457D02*
X115124430Y-104097314D01*
X115124430Y-104097314D02*
X115124430Y-104240171D01*
X115124430Y-104240171D02*
X114410144Y-104383028D01*
X115767286Y-104740171D02*
X115838715Y-104811600D01*
X115838715Y-104811600D02*
X115767286Y-104883028D01*
X115767286Y-104883028D02*
X115695858Y-104811600D01*
X115695858Y-104811600D02*
X115767286Y-104740171D01*
X115767286Y-104740171D02*
X115767286Y-104883028D01*
X115767286Y-103954457D02*
X115838715Y-104025885D01*
X115838715Y-104025885D02*
X115767286Y-104097314D01*
X115767286Y-104097314D02*
X115695858Y-104025885D01*
X115695858Y-104025885D02*
X115767286Y-103954457D01*
X115767286Y-103954457D02*
X115767286Y-104097314D01*
D12*
%TO.C,H38*%
X254200000Y-131000000D02*
G75*
G02*
X247800000Y-131000000I-3200000J0D01*
G01*
X247800000Y-131000000D02*
G75*
G02*
X254200000Y-131000000I3200000J0D01*
G01*
%TO.C,H41*%
X32200000Y-170500000D02*
G75*
G02*
X25800000Y-170500000I-3200000J0D01*
G01*
X25800000Y-170500000D02*
G75*
G02*
X32200000Y-170500000I3200000J0D01*
G01*
%TO.C,H45*%
X572200000Y-170500000D02*
G75*
G02*
X565800000Y-170500000I-3200000J0D01*
G01*
X565800000Y-170500000D02*
G75*
G02*
X572200000Y-170500000I3200000J0D01*
G01*
%TO.C,H39*%
X350200000Y-131000000D02*
G75*
G02*
X343800000Y-131000000I-3200000J0D01*
G01*
X343800000Y-131000000D02*
G75*
G02*
X350200000Y-131000000I3200000J0D01*
G01*
%TO.C,H43*%
X302200000Y-170500000D02*
G75*
G02*
X295800000Y-170500000I-3200000J0D01*
G01*
X295800000Y-170500000D02*
G75*
G02*
X302200000Y-170500000I3200000J0D01*
G01*
%TO.C,H42*%
X165200000Y-170500000D02*
G75*
G02*
X158800000Y-170500000I-3200000J0D01*
G01*
X158800000Y-170500000D02*
G75*
G02*
X165200000Y-170500000I3200000J0D01*
G01*
%TO.C,H37*%
X76200000Y-131000000D02*
G75*
G02*
X69800000Y-131000000I-3200000J0D01*
G01*
X69800000Y-131000000D02*
G75*
G02*
X76200000Y-131000000I3200000J0D01*
G01*
%TO.C,H40*%
X528200000Y-131000000D02*
G75*
G02*
X521800000Y-131000000I-3200000J0D01*
G01*
X521800000Y-131000000D02*
G75*
G02*
X528200000Y-131000000I3200000J0D01*
G01*
%TO.C,H44*%
X439200000Y-170500000D02*
G75*
G02*
X432800000Y-170500000I-3200000J0D01*
G01*
X432800000Y-170500000D02*
G75*
G02*
X439200000Y-170500000I3200000J0D01*
G01*
%TD*%
M02*
