%TF.GenerationSoftware,KiCad,Pcbnew,9.0.5-1.fc42*%
%TF.CreationDate,2025-11-14T21:23:51+10:30*%
%TF.ProjectId,DivaConStencil,44697661-436f-46e5-9374-656e63696c2e,rev?*%
%TF.SameCoordinates,Original*%
%TF.FileFunction,Soldermask,Top*%
%TF.FilePolarity,Negative*%
%FSLAX46Y46*%
G04 Gerber Fmt 4.6, Leading zero omitted, Abs format (unit mm)*
G04 Created by KiCad (PCBNEW 9.0.5-1.fc42) date 2025-11-14 21:23:51*
%MOMM*%
%LPD*%
G01*
G04 APERTURE LIST*
G04 Aperture macros list*
%AMRoundRect*
0 Rectangle with rounded corners*
0 $1 Rounding radius*
0 $2 $3 $4 $5 $6 $7 $8 $9 X,Y pos of 4 corners*
0 Add a 4 corners polygon primitive as box body*
4,1,4,$2,$3,$4,$5,$6,$7,$8,$9,$2,$3,0*
0 Add four circle primitives for the rounded corners*
1,1,$1+$1,$2,$3*
1,1,$1+$1,$4,$5*
1,1,$1+$1,$6,$7*
1,1,$1+$1,$8,$9*
0 Add four rect primitives between the rounded corners*
20,1,$1+$1,$2,$3,$4,$5,0*
20,1,$1+$1,$4,$5,$6,$7,0*
20,1,$1+$1,$6,$7,$8,$9,0*
20,1,$1+$1,$8,$9,$2,$3,0*%
%AMFreePoly0*
4,1,9,0.275000,-0.600000,-0.275000,-0.600000,-0.275000,-0.200000,-0.725000,-0.200000,-0.725000,0.350000,-0.275000,0.350000,-0.275000,0.600000,0.275000,0.600000,0.275000,-0.600000,0.275000,-0.600000,$1*%
%AMFreePoly1*
4,1,5,0.350000,-0.600000,-0.350000,-0.600000,-0.350000,0.600000,0.350000,0.600000,0.350000,-0.600000,0.350000,-0.600000,$1*%
%AMFreePoly2*
4,1,5,0.225000,-0.600000,-0.225000,-0.600000,-0.225000,0.600000,0.225000,0.600000,0.225000,-0.600000,0.225000,-0.600000,$1*%
%AMFreePoly3*
4,1,9,0.275000,0.350000,0.725000,0.350000,0.725000,-0.200000,0.275000,-0.200000,0.275000,-0.600000,-0.275000,-0.600000,-0.275000,0.600000,0.275000,0.600000,0.275000,0.350000,0.275000,0.350000,$1*%
%AMFreePoly4*
4,1,23,0.500000,-0.750000,0.000000,-0.750000,0.000000,-0.745722,-0.065263,-0.745722,-0.191342,-0.711940,-0.304381,-0.646677,-0.396677,-0.554381,-0.461940,-0.441342,-0.495722,-0.315263,-0.495722,-0.250000,-0.500000,-0.250000,-0.500000,0.250000,-0.495722,0.250000,-0.495722,0.315263,-0.461940,0.441342,-0.396677,0.554381,-0.304381,0.646677,-0.191342,0.711940,-0.065263,0.745722,0.000000,0.745722,
0.000000,0.750000,0.500000,0.750000,0.500000,-0.750000,0.500000,-0.750000,$1*%
%AMFreePoly5*
4,1,23,0.000000,0.745722,0.065263,0.745722,0.191342,0.711940,0.304381,0.646677,0.396677,0.554381,0.461940,0.441342,0.495722,0.315263,0.495722,0.250000,0.500000,0.250000,0.500000,-0.250000,0.495722,-0.250000,0.495722,-0.315263,0.461940,-0.441342,0.396677,-0.554381,0.304381,-0.646677,0.191342,-0.711940,0.065263,-0.745722,0.000000,-0.745722,0.000000,-0.750000,-0.500000,-0.750000,
-0.500000,0.750000,0.000000,0.750000,0.000000,0.745722,0.000000,0.745722,$1*%
%AMFreePoly6*
4,1,37,0.800000,0.796148,0.878414,0.796148,1.032228,0.765552,1.177117,0.705537,1.307515,0.618408,1.418408,0.507515,1.505537,0.377117,1.565552,0.232228,1.596148,0.078414,1.596148,-0.078414,1.565552,-0.232228,1.505537,-0.377117,1.418408,-0.507515,1.307515,-0.618408,1.177117,-0.705537,1.032228,-0.765552,0.878414,-0.796148,0.800000,-0.796148,0.800000,-0.800000,-1.400000,-0.800000,
-1.403843,-0.796157,-1.439018,-0.796157,-1.511114,-0.766294,-1.566294,-0.711114,-1.596157,-0.639018,-1.596157,-0.603843,-1.600000,-0.600000,-1.600000,0.600000,-1.596157,0.603843,-1.596157,0.639018,-1.566294,0.711114,-1.511114,0.766294,-1.439018,0.796157,-1.403843,0.796157,-1.400000,0.800000,0.800000,0.800000,0.800000,0.796148,0.800000,0.796148,$1*%
%AMFreePoly7*
4,1,37,1.403843,0.796157,1.439018,0.796157,1.511114,0.766294,1.566294,0.711114,1.596157,0.639018,1.596157,0.603843,1.600000,0.600000,1.600000,-0.600000,1.596157,-0.603843,1.596157,-0.639018,1.566294,-0.711114,1.511114,-0.766294,1.439018,-0.796157,1.403843,-0.796157,1.400000,-0.800000,-0.800000,-0.800000,-0.800000,-0.796148,-0.878414,-0.796148,-1.032228,-0.765552,-1.177117,-0.705537,
-1.307515,-0.618408,-1.418408,-0.507515,-1.505537,-0.377117,-1.565552,-0.232228,-1.596148,-0.078414,-1.596148,0.078414,-1.565552,0.232228,-1.505537,0.377117,-1.418408,0.507515,-1.307515,0.618408,-1.177117,0.705537,-1.032228,0.765552,-0.878414,0.796148,-0.800000,0.796148,-0.800000,0.800000,1.400000,0.800000,1.403843,0.796157,1.403843,0.796157,$1*%
%AMFreePoly8*
4,1,37,1.600000,0.796148,1.678414,0.796148,1.832228,0.765552,1.977117,0.705537,2.107515,0.618408,2.218408,0.507515,2.305537,0.377117,2.365552,0.232228,2.396148,0.078414,2.396148,-0.078414,2.365552,-0.232228,2.305537,-0.377117,2.218408,-0.507515,2.107515,-0.618408,1.977117,-0.705537,1.832228,-0.765552,1.678414,-0.796148,1.600000,-0.796148,1.600000,-0.800000,-0.600000,-0.800000,
-0.603843,-0.796157,-0.639018,-0.796157,-0.711114,-0.766294,-0.766294,-0.711114,-0.796157,-0.639018,-0.796157,-0.603843,-0.800000,-0.600000,-0.800000,0.600000,-0.796157,0.603843,-0.796157,0.639018,-0.766294,0.711114,-0.711114,0.766294,-0.639018,0.796157,-0.603843,0.796157,-0.600000,0.800000,1.600000,0.800000,1.600000,0.796148,1.600000,0.796148,$1*%
%AMFreePoly9*
4,1,14,0.354215,0.088284,0.450784,-0.008285,0.462500,-0.036569,0.462499,-0.060000,0.450784,-0.088284,0.422500,-0.100000,-0.422500,-0.100000,-0.450784,-0.088284,-0.462499,-0.060000,-0.462499,0.060000,-0.450784,0.088284,-0.422500,0.100000,0.325931,0.100000,0.354215,0.088284,0.354215,0.088284,$1*%
%AMFreePoly10*
4,1,14,0.450784,0.088284,0.462499,0.060000,0.462500,0.036569,0.450784,0.008285,0.354215,-0.088284,0.325931,-0.100000,-0.422500,-0.100000,-0.450784,-0.088284,-0.462499,-0.060000,-0.462499,0.060000,-0.450784,0.088284,-0.422500,0.100000,0.422500,0.100000,0.450784,0.088284,0.450784,0.088284,$1*%
%AMFreePoly11*
4,1,14,0.088284,0.450784,0.100000,0.422500,0.100000,-0.422500,0.088284,-0.450784,0.060000,-0.462499,-0.060000,-0.462499,-0.088284,-0.450784,-0.100000,-0.422500,-0.100000,0.325931,-0.088284,0.354215,0.008285,0.450784,0.036569,0.462500,0.060000,0.462499,0.088284,0.450784,0.088284,0.450784,$1*%
%AMFreePoly12*
4,1,14,-0.008285,0.450784,0.088284,0.354215,0.100000,0.325931,0.100000,-0.422500,0.088284,-0.450784,0.060000,-0.462499,-0.060000,-0.462499,-0.088284,-0.450784,-0.100000,-0.422500,-0.100000,0.422500,-0.088284,0.450784,-0.060000,0.462499,-0.036569,0.462500,-0.008285,0.450784,-0.008285,0.450784,$1*%
%AMFreePoly13*
4,1,14,0.450784,0.088284,0.462499,0.060000,0.462499,-0.060000,0.450784,-0.088284,0.422500,-0.100000,-0.325931,-0.100000,-0.354215,-0.088284,-0.450784,0.008285,-0.462500,0.036569,-0.462499,0.060000,-0.450784,0.088284,-0.422500,0.100000,0.422500,0.100000,0.450784,0.088284,0.450784,0.088284,$1*%
%AMFreePoly14*
4,1,14,0.450784,0.088284,0.462499,0.060000,0.462499,-0.060000,0.450784,-0.088284,0.422500,-0.100000,-0.422500,-0.100000,-0.450784,-0.088284,-0.462499,-0.060000,-0.462500,-0.036569,-0.450784,-0.008285,-0.354215,0.088284,-0.325931,0.100000,0.422500,0.100000,0.450784,0.088284,0.450784,0.088284,$1*%
%AMFreePoly15*
4,1,14,0.088284,0.450784,0.100000,0.422500,0.100000,-0.325931,0.088284,-0.354215,-0.008285,-0.450784,-0.036569,-0.462500,-0.060000,-0.462499,-0.088284,-0.450784,-0.100000,-0.422500,-0.100000,0.422500,-0.088284,0.450784,-0.060000,0.462499,0.060000,0.462499,0.088284,0.450784,0.088284,0.450784,$1*%
%AMFreePoly16*
4,1,14,0.088284,0.450784,0.100000,0.422500,0.100000,-0.422500,0.088284,-0.450784,0.060000,-0.462499,0.036569,-0.462500,0.008285,-0.450784,-0.088284,-0.354215,-0.100000,-0.325931,-0.100000,0.422500,-0.088284,0.450784,-0.060000,0.462499,0.060000,0.462499,0.088284,0.450784,0.088284,0.450784,$1*%
G04 Aperture macros list end*
%ADD10RoundRect,0.225000X-0.225000X-0.250000X0.225000X-0.250000X0.225000X0.250000X-0.225000X0.250000X0*%
%ADD11FreePoly0,0.000000*%
%ADD12FreePoly1,0.000000*%
%ADD13FreePoly2,0.000000*%
%ADD14FreePoly3,0.000000*%
%ADD15C,1.500000*%
%ADD16C,0.800000*%
%ADD17C,6.400000*%
%ADD18R,1.700000X1.700000*%
%ADD19C,1.700000*%
%ADD20C,3.750000*%
%ADD21RoundRect,0.200000X0.275000X-0.200000X0.275000X0.200000X-0.275000X0.200000X-0.275000X-0.200000X0*%
%ADD22RoundRect,0.200000X-0.200000X-0.275000X0.200000X-0.275000X0.200000X0.275000X-0.200000X0.275000X0*%
%ADD23RoundRect,0.200000X0.200000X0.275000X-0.200000X0.275000X-0.200000X-0.275000X0.200000X-0.275000X0*%
%ADD24C,2.000000*%
%ADD25RoundRect,0.225000X-0.250000X0.225000X-0.250000X-0.225000X0.250000X-0.225000X0.250000X0.225000X0*%
%ADD26RoundRect,0.250000X0.625000X-0.312500X0.625000X0.312500X-0.625000X0.312500X-0.625000X-0.312500X0*%
%ADD27RoundRect,0.250000X0.250000X2.500000X-0.250000X2.500000X-0.250000X-2.500000X0.250000X-2.500000X0*%
%ADD28RoundRect,0.250000X0.550000X1.250000X-0.550000X1.250000X-0.550000X-1.250000X0.550000X-1.250000X0*%
%ADD29RoundRect,0.120000X-0.480000X-0.280000X0.480000X-0.280000X0.480000X0.280000X-0.480000X0.280000X0*%
%ADD30RoundRect,0.150000X-0.650000X-0.150000X0.650000X-0.150000X0.650000X0.150000X-0.650000X0.150000X0*%
%ADD31RoundRect,0.150000X0.150000X-0.825000X0.150000X0.825000X-0.150000X0.825000X-0.150000X-0.825000X0*%
%ADD32RoundRect,0.150000X0.625000X-0.150000X0.625000X0.150000X-0.625000X0.150000X-0.625000X-0.150000X0*%
%ADD33RoundRect,0.250000X0.650000X-0.350000X0.650000X0.350000X-0.650000X0.350000X-0.650000X-0.350000X0*%
%ADD34RoundRect,0.225000X0.225000X0.250000X-0.225000X0.250000X-0.225000X-0.250000X0.225000X-0.250000X0*%
%ADD35RoundRect,0.250000X-2.500000X0.250000X-2.500000X-0.250000X2.500000X-0.250000X2.500000X0.250000X0*%
%ADD36RoundRect,0.250000X-1.250000X0.550000X-1.250000X-0.550000X1.250000X-0.550000X1.250000X0.550000X0*%
%ADD37RoundRect,0.250000X-0.250000X-2.500000X0.250000X-2.500000X0.250000X2.500000X-0.250000X2.500000X0*%
%ADD38RoundRect,0.250000X-0.550000X-1.250000X0.550000X-1.250000X0.550000X1.250000X-0.550000X1.250000X0*%
%ADD39FreePoly4,270.000000*%
%ADD40FreePoly5,270.000000*%
%ADD41C,2.200000*%
%ADD42C,1.850000*%
%ADD43FreePoly6,90.000000*%
%ADD44RoundRect,0.800000X0.000010X-0.800000X0.000010X0.800000X-0.000010X0.800000X-0.000010X-0.800000X0*%
%ADD45FreePoly7,90.000000*%
%ADD46RoundRect,0.800000X0.800000X0.000010X-0.800000X0.000010X-0.800000X-0.000010X0.800000X-0.000010X0*%
%ADD47FreePoly8,0.000000*%
%ADD48RoundRect,0.200000X-0.275000X0.200000X-0.275000X-0.200000X0.275000X-0.200000X0.275000X0.200000X0*%
%ADD49RoundRect,0.225000X-0.335876X-0.017678X-0.017678X-0.335876X0.335876X0.017678X0.017678X0.335876X0*%
%ADD50FreePoly9,45.000000*%
%ADD51RoundRect,0.050000X-0.256326X-0.327037X0.327037X0.256326X0.256326X0.327037X-0.327037X-0.256326X0*%
%ADD52FreePoly10,45.000000*%
%ADD53FreePoly11,45.000000*%
%ADD54RoundRect,0.050000X0.256326X-0.327037X0.327037X-0.256326X-0.256326X0.327037X-0.327037X0.256326X0*%
%ADD55FreePoly12,45.000000*%
%ADD56FreePoly13,45.000000*%
%ADD57FreePoly14,45.000000*%
%ADD58FreePoly15,45.000000*%
%ADD59FreePoly16,45.000000*%
%ADD60RoundRect,0.200000X-0.335876X-0.053033X-0.053033X-0.335876X0.335876X0.053033X0.053033X0.335876X0*%
%ADD61RoundRect,0.150000X0.150000X-0.650000X0.150000X0.650000X-0.150000X0.650000X-0.150000X-0.650000X0*%
%ADD62RoundRect,0.250000X0.475000X-0.250000X0.475000X0.250000X-0.475000X0.250000X-0.475000X-0.250000X0*%
%ADD63RoundRect,0.200000X0.335876X0.053033X0.053033X0.335876X-0.335876X-0.053033X-0.053033X-0.335876X0*%
%ADD64RoundRect,0.225000X0.250000X-0.225000X0.250000X0.225000X-0.250000X0.225000X-0.250000X-0.225000X0*%
G04 APERTURE END LIST*
%TO.C,JP1*%
G36*
X316098000Y-283732000D02*
G01*
X314598000Y-283732000D01*
X314598000Y-284032000D01*
X316098000Y-284032000D01*
X316098000Y-283732000D01*
G37*
%TD*%
D10*
%TO.C,C36*%
X261300000Y-156500000D03*
X262850000Y-156500000D03*
%TD*%
D11*
%TO.C,D64*%
X616925000Y-158000000D03*
D12*
X618050000Y-158000000D03*
D13*
X619075000Y-158000000D03*
D14*
X620075000Y-158000000D03*
%TD*%
D11*
%TO.C,D41*%
X421925000Y-158000000D03*
D12*
X423050000Y-158000000D03*
D13*
X424075000Y-158000000D03*
D14*
X425075000Y-158000000D03*
%TD*%
D10*
%TO.C,C21*%
X134300000Y-156500000D03*
X135850000Y-156500000D03*
%TD*%
D11*
%TO.C,D26*%
X293925000Y-158000000D03*
D12*
X295050000Y-158000000D03*
D13*
X296075000Y-158000000D03*
D14*
X297075000Y-158000000D03*
%TD*%
D11*
%TO.C,D35*%
X370925000Y-158000000D03*
D12*
X372050000Y-158000000D03*
D13*
X373075000Y-158000000D03*
D14*
X374075000Y-158000000D03*
%TD*%
D10*
%TO.C,C76*%
X601300000Y-156500000D03*
X602850000Y-156500000D03*
%TD*%
%TO.C,C37*%
X270300000Y-156500000D03*
X271850000Y-156500000D03*
%TD*%
%TO.C,C26*%
X176300000Y-156500000D03*
X177850000Y-156500000D03*
%TD*%
D11*
%TO.C,D1*%
X81925000Y-158000000D03*
D12*
X83050000Y-158000000D03*
D13*
X84075000Y-158000000D03*
D14*
X85075000Y-158000000D03*
%TD*%
D10*
%TO.C,C23*%
X151300000Y-156500000D03*
X152850000Y-156500000D03*
%TD*%
D11*
%TO.C,D44*%
X446925000Y-158000000D03*
D12*
X448050000Y-158000000D03*
D13*
X449075000Y-158000000D03*
D14*
X450075000Y-158000000D03*
%TD*%
D11*
%TO.C,D58*%
X565925000Y-158000000D03*
D12*
X567050000Y-158000000D03*
D13*
X568075000Y-158000000D03*
D14*
X569075000Y-158000000D03*
%TD*%
D11*
%TO.C,D25*%
X285925000Y-158000000D03*
D12*
X287050000Y-158000000D03*
D13*
X288075000Y-158000000D03*
D14*
X289075000Y-158000000D03*
%TD*%
D10*
%TO.C,C65*%
X508300000Y-156500000D03*
X509850000Y-156500000D03*
%TD*%
%TO.C,C18*%
X108300000Y-156500000D03*
X109850000Y-156500000D03*
%TD*%
%TO.C,C44*%
X329300000Y-156500000D03*
X330850000Y-156500000D03*
%TD*%
%TO.C,C30*%
X210300000Y-156500000D03*
X211850000Y-156500000D03*
%TD*%
%TO.C,C68*%
X533300000Y-156500000D03*
X534850000Y-156500000D03*
%TD*%
D15*
%TO.C,FID3*%
X78500000Y-156000000D03*
%TD*%
D11*
%TO.C,D32*%
X344925000Y-158000000D03*
D12*
X346050000Y-158000000D03*
D13*
X347075000Y-158000000D03*
D14*
X348075000Y-158000000D03*
%TD*%
D10*
%TO.C,C38*%
X278300000Y-156500000D03*
X279850000Y-156500000D03*
%TD*%
D11*
%TO.C,D13*%
X183925000Y-158000000D03*
D12*
X185050000Y-158000000D03*
D13*
X186075000Y-158000000D03*
D14*
X187075000Y-158000000D03*
%TD*%
D11*
%TO.C,D62*%
X599925000Y-158000000D03*
D12*
X601050000Y-158000000D03*
D13*
X602075000Y-158000000D03*
D14*
X603075000Y-158000000D03*
%TD*%
D11*
%TO.C,D22*%
X259925000Y-158000000D03*
D12*
X261050000Y-158000000D03*
D13*
X262075000Y-158000000D03*
D14*
X263075000Y-158000000D03*
%TD*%
D10*
%TO.C,C77*%
X610300000Y-156500000D03*
X611850000Y-156500000D03*
%TD*%
%TO.C,C54*%
X414300000Y-156500000D03*
X415850000Y-156500000D03*
%TD*%
%TO.C,C51*%
X389300000Y-156500000D03*
X390850000Y-156500000D03*
%TD*%
%TO.C,C22*%
X142300000Y-156500000D03*
X143850000Y-156500000D03*
%TD*%
%TO.C,C63*%
X491300000Y-156500000D03*
X492850000Y-156500000D03*
%TD*%
D11*
%TO.C,D9*%
X149925000Y-158000000D03*
D12*
X151050000Y-158000000D03*
D13*
X152075000Y-158000000D03*
D14*
X153075000Y-158000000D03*
%TD*%
D15*
%TO.C,FID4*%
X623750000Y-220250000D03*
%TD*%
D10*
%TO.C,C50*%
X380300000Y-156500000D03*
X381850000Y-156500000D03*
%TD*%
%TO.C,C56*%
X431300000Y-156500000D03*
X432850000Y-156500000D03*
%TD*%
D11*
%TO.C,D60*%
X582925000Y-158000000D03*
D12*
X584050000Y-158000000D03*
D13*
X585075000Y-158000000D03*
D14*
X586075000Y-158000000D03*
%TD*%
D11*
%TO.C,D20*%
X242925000Y-158000000D03*
D12*
X244050000Y-158000000D03*
D13*
X245075000Y-158000000D03*
D14*
X246075000Y-158000000D03*
%TD*%
D11*
%TO.C,D24*%
X276925000Y-158000000D03*
D12*
X278050000Y-158000000D03*
D13*
X279075000Y-158000000D03*
D14*
X280075000Y-158000000D03*
%TD*%
D11*
%TO.C,D11*%
X166925000Y-158000000D03*
D12*
X168050000Y-158000000D03*
D13*
X169075000Y-158000000D03*
D14*
X170075000Y-158000000D03*
%TD*%
D10*
%TO.C,C15*%
X83300000Y-156500000D03*
X84850000Y-156500000D03*
%TD*%
D11*
%TO.C,D50*%
X497925000Y-158000000D03*
D12*
X499050000Y-158000000D03*
D13*
X500075000Y-158000000D03*
D14*
X501075000Y-158000000D03*
%TD*%
D11*
%TO.C,D6*%
X123925000Y-158000000D03*
D12*
X125050000Y-158000000D03*
D13*
X126075000Y-158000000D03*
D14*
X127075000Y-158000000D03*
%TD*%
D10*
%TO.C,C73*%
X576300000Y-156500000D03*
X577850000Y-156500000D03*
%TD*%
D11*
%TO.C,D57*%
X557925000Y-158000000D03*
D12*
X559050000Y-158000000D03*
D13*
X560075000Y-158000000D03*
D14*
X561075000Y-158000000D03*
%TD*%
D10*
%TO.C,C19*%
X117300000Y-156500000D03*
X118850000Y-156500000D03*
%TD*%
D16*
%TO.C,H39*%
X396600000Y-128500000D03*
X397302944Y-130197056D03*
X397302944Y-126802944D03*
X399000000Y-130900000D03*
D17*
X399000000Y-128500000D03*
D16*
X399000000Y-126100000D03*
X400697056Y-130197056D03*
X400697056Y-126802944D03*
X401400000Y-128500000D03*
%TD*%
D10*
%TO.C,C33*%
X236300000Y-156500000D03*
X237850000Y-156500000D03*
%TD*%
D11*
%TO.C,D54*%
X531925000Y-158000000D03*
D12*
X533050000Y-158000000D03*
D13*
X534075000Y-158000000D03*
D14*
X535075000Y-158000000D03*
%TD*%
D10*
%TO.C,C43*%
X321300000Y-156500000D03*
X322850000Y-156500000D03*
%TD*%
%TO.C,C52*%
X397300000Y-156500000D03*
X398850000Y-156500000D03*
%TD*%
%TO.C,C45*%
X338300000Y-156500000D03*
X339850000Y-156500000D03*
%TD*%
%TO.C,C70*%
X550300000Y-156500000D03*
X551850000Y-156500000D03*
%TD*%
%TO.C,C28*%
X193300000Y-156500000D03*
X194850000Y-156500000D03*
%TD*%
D17*
%TO.C,H45*%
X621000000Y-168000000D03*
%TD*%
D10*
%TO.C,C24*%
X159300000Y-156500000D03*
X160850000Y-156500000D03*
%TD*%
%TO.C,C49*%
X372300000Y-156500000D03*
X373850000Y-156500000D03*
%TD*%
D11*
%TO.C,D39*%
X404925000Y-158000000D03*
D12*
X406050000Y-158000000D03*
D13*
X407075000Y-158000000D03*
D14*
X408075000Y-158000000D03*
%TD*%
D11*
%TO.C,D38*%
X395925000Y-158000000D03*
D12*
X397050000Y-158000000D03*
D13*
X398075000Y-158000000D03*
D14*
X399075000Y-158000000D03*
%TD*%
D10*
%TO.C,C61*%
X474300000Y-156500000D03*
X475850000Y-156500000D03*
%TD*%
%TO.C,C60*%
X465300000Y-156500000D03*
X466850000Y-156500000D03*
%TD*%
D11*
%TO.C,D16*%
X208925000Y-158000000D03*
D12*
X210050000Y-158000000D03*
D13*
X211075000Y-158000000D03*
D14*
X212075000Y-158000000D03*
%TD*%
D11*
%TO.C,D5*%
X115925000Y-158000000D03*
D12*
X117050000Y-158000000D03*
D13*
X118075000Y-158000000D03*
D14*
X119075000Y-158000000D03*
%TD*%
D11*
%TO.C,D7*%
X132925000Y-158000000D03*
D12*
X134050000Y-158000000D03*
D13*
X135075000Y-158000000D03*
D14*
X136075000Y-158000000D03*
%TD*%
D11*
%TO.C,D48*%
X480925000Y-158000000D03*
D12*
X482050000Y-158000000D03*
D13*
X483075000Y-158000000D03*
D14*
X484075000Y-158000000D03*
%TD*%
D10*
%TO.C,C29*%
X202300000Y-156500000D03*
X203850000Y-156500000D03*
%TD*%
D11*
%TO.C,D45*%
X455925000Y-158000000D03*
D12*
X457050000Y-158000000D03*
D13*
X458075000Y-158000000D03*
D14*
X459075000Y-158000000D03*
%TD*%
D18*
%TO.C,J1*%
X210190000Y-127040000D03*
D19*
X212730000Y-127040000D03*
X215270000Y-127040000D03*
X217810000Y-127040000D03*
D20*
X202350000Y-151400000D03*
X202350000Y-127600000D03*
X225650000Y-151400000D03*
X225650000Y-127600000D03*
%TD*%
D11*
%TO.C,D29*%
X319925000Y-158000000D03*
D12*
X321050000Y-158000000D03*
D13*
X322075000Y-158000000D03*
D14*
X323075000Y-158000000D03*
%TD*%
D11*
%TO.C,D34*%
X361925000Y-158000000D03*
D12*
X363050000Y-158000000D03*
D13*
X364075000Y-158000000D03*
D14*
X365075000Y-158000000D03*
%TD*%
D10*
%TO.C,C58*%
X448300000Y-156500000D03*
X449850000Y-156500000D03*
%TD*%
%TO.C,C47*%
X355300000Y-156500000D03*
X356850000Y-156500000D03*
%TD*%
D11*
%TO.C,D43*%
X438925000Y-158000000D03*
D12*
X440050000Y-158000000D03*
D13*
X441075000Y-158000000D03*
D14*
X442075000Y-158000000D03*
%TD*%
D10*
%TO.C,C62*%
X482300000Y-156500000D03*
X483850000Y-156500000D03*
%TD*%
D11*
%TO.C,D15*%
X200925000Y-158000000D03*
D12*
X202050000Y-158000000D03*
D13*
X203075000Y-158000000D03*
D14*
X204075000Y-158000000D03*
%TD*%
D11*
%TO.C,D37*%
X387925000Y-158000000D03*
D12*
X389050000Y-158000000D03*
D13*
X390075000Y-158000000D03*
D14*
X391075000Y-158000000D03*
%TD*%
D17*
%TO.C,H42*%
X214000000Y-168000000D03*
%TD*%
D11*
%TO.C,D4*%
X106925000Y-158000000D03*
D12*
X108050000Y-158000000D03*
D13*
X109075000Y-158000000D03*
D14*
X110075000Y-158000000D03*
%TD*%
D11*
%TO.C,D28*%
X310925000Y-158000000D03*
D12*
X312050000Y-158000000D03*
D13*
X313075000Y-158000000D03*
D14*
X314075000Y-158000000D03*
%TD*%
D10*
%TO.C,C40*%
X295300000Y-156500000D03*
X296850000Y-156500000D03*
%TD*%
D11*
%TO.C,D17*%
X217925000Y-158000000D03*
D12*
X219050000Y-158000000D03*
D13*
X220075000Y-158000000D03*
D14*
X221075000Y-158000000D03*
%TD*%
D16*
%TO.C,H37*%
X122600000Y-128500000D03*
X123302944Y-130197056D03*
X123302944Y-126802944D03*
X125000000Y-130900000D03*
D17*
X125000000Y-128500000D03*
D16*
X125000000Y-126100000D03*
X126697056Y-130197056D03*
X126697056Y-126802944D03*
X127400000Y-128500000D03*
%TD*%
D11*
%TO.C,D21*%
X251925000Y-158000000D03*
D12*
X253050000Y-158000000D03*
D13*
X254075000Y-158000000D03*
D14*
X255075000Y-158000000D03*
%TD*%
D10*
%TO.C,C25*%
X168300000Y-156500000D03*
X169850000Y-156500000D03*
%TD*%
D16*
%TO.C,H38*%
X300600000Y-128500000D03*
X301302944Y-130197056D03*
X301302944Y-126802944D03*
X303000000Y-130900000D03*
D17*
X303000000Y-128500000D03*
D16*
X303000000Y-126100000D03*
X304697056Y-130197056D03*
X304697056Y-126802944D03*
X305400000Y-128500000D03*
%TD*%
D17*
%TO.C,H41*%
X81000000Y-168000000D03*
%TD*%
D10*
%TO.C,C27*%
X185300000Y-156500000D03*
X186850000Y-156500000D03*
%TD*%
D11*
%TO.C,D52*%
X514925000Y-158000000D03*
D12*
X516050000Y-158000000D03*
D13*
X517075000Y-158000000D03*
D14*
X518075000Y-158000000D03*
%TD*%
D10*
%TO.C,C41*%
X304300000Y-156500000D03*
X305850000Y-156500000D03*
%TD*%
%TO.C,C32*%
X227300000Y-156500000D03*
X228850000Y-156500000D03*
%TD*%
%TO.C,C59*%
X457300000Y-156500000D03*
X458850000Y-156500000D03*
%TD*%
D11*
%TO.C,D63*%
X608925000Y-158000000D03*
D12*
X610050000Y-158000000D03*
D13*
X611075000Y-158000000D03*
D14*
X612075000Y-158000000D03*
%TD*%
D11*
%TO.C,D55*%
X540925000Y-158000000D03*
D12*
X542050000Y-158000000D03*
D13*
X543075000Y-158000000D03*
D14*
X544075000Y-158000000D03*
%TD*%
D10*
%TO.C,C31*%
X219300000Y-156500000D03*
X220850000Y-156500000D03*
%TD*%
%TO.C,C72*%
X567300000Y-156500000D03*
X568850000Y-156500000D03*
%TD*%
%TO.C,C46*%
X346300000Y-156500000D03*
X347850000Y-156500000D03*
%TD*%
D11*
%TO.C,D19*%
X234925000Y-158000000D03*
D12*
X236050000Y-158000000D03*
D13*
X237075000Y-158000000D03*
D14*
X238075000Y-158000000D03*
%TD*%
D11*
%TO.C,D33*%
X353925000Y-158000000D03*
D12*
X355050000Y-158000000D03*
D13*
X356075000Y-158000000D03*
D14*
X357075000Y-158000000D03*
%TD*%
D11*
%TO.C,D46*%
X463925000Y-158000000D03*
D12*
X465050000Y-158000000D03*
D13*
X466075000Y-158000000D03*
D14*
X467075000Y-158000000D03*
%TD*%
D11*
%TO.C,D3*%
X98925000Y-158000000D03*
D12*
X100050000Y-158000000D03*
D13*
X101075000Y-158000000D03*
D14*
X102075000Y-158000000D03*
%TD*%
D10*
%TO.C,C57*%
X440300000Y-156500000D03*
X441850000Y-156500000D03*
%TD*%
%TO.C,C64*%
X499300000Y-156500000D03*
X500850000Y-156500000D03*
%TD*%
D11*
%TO.C,D18*%
X225925000Y-158000000D03*
D12*
X227050000Y-158000000D03*
D13*
X228075000Y-158000000D03*
D14*
X229075000Y-158000000D03*
%TD*%
D11*
%TO.C,D53*%
X523925000Y-158000000D03*
D12*
X525050000Y-158000000D03*
D13*
X526075000Y-158000000D03*
D14*
X527075000Y-158000000D03*
%TD*%
D10*
%TO.C,C67*%
X525300000Y-156500000D03*
X526850000Y-156500000D03*
%TD*%
%TO.C,C74*%
X584300000Y-156500000D03*
X585850000Y-156500000D03*
%TD*%
D17*
%TO.C,H44*%
X488000000Y-168000000D03*
%TD*%
D11*
%TO.C,D42*%
X429925000Y-158000000D03*
D12*
X431050000Y-158000000D03*
D13*
X432075000Y-158000000D03*
D14*
X433075000Y-158000000D03*
%TD*%
D10*
%TO.C,C35*%
X253300000Y-156500000D03*
X254850000Y-156500000D03*
%TD*%
D11*
%TO.C,D27*%
X302925000Y-158000000D03*
D12*
X304050000Y-158000000D03*
D13*
X305075000Y-158000000D03*
D14*
X306075000Y-158000000D03*
%TD*%
D10*
%TO.C,C20*%
X125300000Y-156500000D03*
X126850000Y-156500000D03*
%TD*%
D11*
%TO.C,D12*%
X174925000Y-158000000D03*
D12*
X176050000Y-158000000D03*
D13*
X177075000Y-158000000D03*
D14*
X178075000Y-158000000D03*
%TD*%
D10*
%TO.C,C48*%
X363300000Y-156500000D03*
X364850000Y-156500000D03*
%TD*%
%TO.C,C66*%
X516300000Y-156500000D03*
X517850000Y-156500000D03*
%TD*%
D17*
%TO.C,H43*%
X351000000Y-168000000D03*
%TD*%
D10*
%TO.C,C16*%
X91300000Y-156500000D03*
X92850000Y-156500000D03*
%TD*%
D11*
%TO.C,D8*%
X140925000Y-158000000D03*
D12*
X142050000Y-158000000D03*
D13*
X143075000Y-158000000D03*
D14*
X144075000Y-158000000D03*
%TD*%
D11*
%TO.C,D36*%
X378925000Y-158000000D03*
D12*
X380050000Y-158000000D03*
D13*
X381075000Y-158000000D03*
D14*
X382075000Y-158000000D03*
%TD*%
D11*
%TO.C,D51*%
X506925000Y-158000000D03*
D12*
X508050000Y-158000000D03*
D13*
X509075000Y-158000000D03*
D14*
X510075000Y-158000000D03*
%TD*%
D10*
%TO.C,C34*%
X244300000Y-156500000D03*
X245850000Y-156500000D03*
%TD*%
D11*
%TO.C,D14*%
X191925000Y-158000000D03*
D12*
X193050000Y-158000000D03*
D13*
X194075000Y-158000000D03*
D14*
X195075000Y-158000000D03*
%TD*%
D10*
%TO.C,C75*%
X593300000Y-156500000D03*
X594850000Y-156500000D03*
%TD*%
%TO.C,C55*%
X423300000Y-156500000D03*
X424850000Y-156500000D03*
%TD*%
D11*
%TO.C,D40*%
X412925000Y-158000000D03*
D12*
X414050000Y-158000000D03*
D13*
X415075000Y-158000000D03*
D14*
X416075000Y-158000000D03*
%TD*%
D10*
%TO.C,C39*%
X287300000Y-156500000D03*
X288850000Y-156500000D03*
%TD*%
D11*
%TO.C,D47*%
X472925000Y-158000000D03*
D12*
X474050000Y-158000000D03*
D13*
X475075000Y-158000000D03*
D14*
X476075000Y-158000000D03*
%TD*%
D10*
%TO.C,C17*%
X100300000Y-156500000D03*
X101850000Y-156500000D03*
%TD*%
%TO.C,C78*%
X618300000Y-156500000D03*
X619850000Y-156500000D03*
%TD*%
D21*
%TO.C,R19*%
X622500000Y-158575000D03*
X622500000Y-156925000D03*
%TD*%
D11*
%TO.C,D2*%
X89925000Y-158000000D03*
D12*
X91050000Y-158000000D03*
D13*
X92075000Y-158000000D03*
D14*
X93075000Y-158000000D03*
%TD*%
D11*
%TO.C,D61*%
X591925000Y-158000000D03*
D12*
X593050000Y-158000000D03*
D13*
X594075000Y-158000000D03*
D14*
X595075000Y-158000000D03*
%TD*%
D10*
%TO.C,C69*%
X542300000Y-156500000D03*
X543850000Y-156500000D03*
%TD*%
D11*
%TO.C,D56*%
X548925000Y-158000000D03*
D12*
X550050000Y-158000000D03*
D13*
X551075000Y-158000000D03*
D14*
X552075000Y-158000000D03*
%TD*%
D11*
%TO.C,D31*%
X336925000Y-158000000D03*
D12*
X338050000Y-158000000D03*
D13*
X339075000Y-158000000D03*
D14*
X340075000Y-158000000D03*
%TD*%
D11*
%TO.C,D23*%
X268925000Y-158000000D03*
D12*
X270050000Y-158000000D03*
D13*
X271075000Y-158000000D03*
D14*
X272075000Y-158000000D03*
%TD*%
D10*
%TO.C,C71*%
X559300000Y-156500000D03*
X560850000Y-156500000D03*
%TD*%
D11*
%TO.C,D49*%
X489925000Y-158000000D03*
D12*
X491050000Y-158000000D03*
D13*
X492075000Y-158000000D03*
D14*
X493075000Y-158000000D03*
%TD*%
D11*
%TO.C,D59*%
X574925000Y-158000000D03*
D12*
X576050000Y-158000000D03*
D13*
X577075000Y-158000000D03*
D14*
X578075000Y-158000000D03*
%TD*%
D11*
%TO.C,D10*%
X157925000Y-158000000D03*
D12*
X159050000Y-158000000D03*
D13*
X160075000Y-158000000D03*
D14*
X161075000Y-158000000D03*
%TD*%
D11*
%TO.C,D30*%
X327925000Y-158000000D03*
D12*
X329050000Y-158000000D03*
D13*
X330075000Y-158000000D03*
D14*
X331075000Y-158000000D03*
%TD*%
D10*
%TO.C,C42*%
X312300000Y-156500000D03*
X313850000Y-156500000D03*
%TD*%
%TO.C,C53*%
X406300000Y-156500000D03*
X407850000Y-156500000D03*
%TD*%
D16*
%TO.C,H40*%
X574600000Y-128500000D03*
X575302944Y-130197056D03*
X575302944Y-126802944D03*
X577000000Y-130900000D03*
D17*
X577000000Y-128500000D03*
D16*
X577000000Y-126100000D03*
X578697056Y-130197056D03*
X578697056Y-126802944D03*
X579400000Y-128500000D03*
%TD*%
D22*
%TO.C,R29*%
X354338000Y-314220000D03*
X355988000Y-314220000D03*
%TD*%
D16*
%TO.C,H2*%
X384500000Y-332900000D03*
X382802944Y-332197056D03*
X386197056Y-332197056D03*
X382100000Y-330500000D03*
D17*
X384500000Y-330500000D03*
D16*
X386900000Y-330500000D03*
X382802944Y-328802944D03*
X386197056Y-328802944D03*
X384500000Y-328100000D03*
%TD*%
D21*
%TO.C,R20*%
X363608000Y-284756000D03*
X363608000Y-283106000D03*
%TD*%
D22*
%TO.C,R13*%
X336558000Y-314220000D03*
X338208000Y-314220000D03*
%TD*%
%TO.C,R9*%
X323858000Y-314220000D03*
X325508000Y-314220000D03*
%TD*%
D16*
%TO.C,H1*%
X317500000Y-270900000D03*
X315802944Y-270197056D03*
X319197056Y-270197056D03*
X315100000Y-268500000D03*
D17*
X317500000Y-268500000D03*
D16*
X319900000Y-268500000D03*
X315802944Y-266802944D03*
X319197056Y-266802944D03*
X317500000Y-266100000D03*
%TD*%
D23*
%TO.C,R18*%
X355098000Y-316252000D03*
X353448000Y-316252000D03*
%TD*%
D24*
%TO.C,TP3*%
X318396000Y-280692000D03*
%TD*%
D22*
%TO.C,R7*%
X316238000Y-314220000D03*
X317888000Y-314220000D03*
%TD*%
D25*
%TO.C,C5*%
X370212000Y-283156000D03*
X370212000Y-284706000D03*
%TD*%
D26*
%TO.C,R23*%
X336303000Y-277350000D03*
X336303000Y-274425000D03*
%TD*%
D27*
%TO.C,J1*%
X338500000Y-329000000D03*
X336500000Y-329000000D03*
X334500000Y-329000000D03*
X332500000Y-329000000D03*
X330500000Y-329000000D03*
X328500000Y-329000000D03*
D28*
X340900000Y-331250000D03*
X326100000Y-331250000D03*
%TD*%
D29*
%TO.C,SW1*%
X346925000Y-266425000D03*
X351075000Y-266425000D03*
X346925000Y-268575000D03*
X351075000Y-268575000D03*
%TD*%
D23*
%TO.C,R1*%
X357130000Y-284756000D03*
X355480000Y-284756000D03*
%TD*%
D10*
%TO.C,C1*%
X318383000Y-283232000D03*
X319933000Y-283232000D03*
%TD*%
D24*
%TO.C,TP5*%
X373500000Y-286750000D03*
%TD*%
D10*
%TO.C,C2*%
X318383000Y-285264000D03*
X319933000Y-285264000D03*
%TD*%
D30*
%TO.C,U1*%
X365760000Y-282981000D03*
X365760000Y-283931000D03*
X365760000Y-284881000D03*
X368060000Y-284881000D03*
X368060000Y-282981000D03*
%TD*%
D24*
%TO.C,TP9*%
X351162000Y-280692000D03*
%TD*%
D31*
%TO.C,U2*%
X330588000Y-284716000D03*
X331858000Y-284716000D03*
X333128000Y-284716000D03*
X334398000Y-284716000D03*
X335668000Y-284716000D03*
X336938000Y-284716000D03*
X338208000Y-284716000D03*
X339478000Y-284716000D03*
X339478000Y-279766000D03*
X338208000Y-279766000D03*
X336938000Y-279766000D03*
X335668000Y-279766000D03*
X334398000Y-279766000D03*
X333128000Y-279766000D03*
X331858000Y-279766000D03*
X330588000Y-279766000D03*
%TD*%
D24*
%TO.C,TP7*%
X348114000Y-280692000D03*
%TD*%
D23*
%TO.C,R16*%
X350018000Y-316252000D03*
X348368000Y-316252000D03*
%TD*%
D32*
%TO.C,J7*%
X375000000Y-300500000D03*
X375000000Y-299500000D03*
X375000000Y-298500000D03*
D33*
X372475000Y-301800000D03*
X372475000Y-297200000D03*
%TD*%
D34*
%TO.C,C4*%
X325508000Y-283232000D03*
X323958000Y-283232000D03*
%TD*%
D22*
%TO.C,R15*%
X341638000Y-314220000D03*
X343288000Y-314220000D03*
%TD*%
D27*
%TO.C,J3*%
X373500000Y-329000000D03*
X371500000Y-329000000D03*
X369500000Y-329000000D03*
X367500000Y-329000000D03*
X365500000Y-329000000D03*
X363500000Y-329000000D03*
D28*
X375900000Y-331250000D03*
X361100000Y-331250000D03*
%TD*%
D22*
%TO.C,R2*%
X352306000Y-284756000D03*
X353956000Y-284756000D03*
%TD*%
D24*
%TO.C,TP8*%
X357250000Y-281798000D03*
%TD*%
D35*
%TO.C,J4*%
X383000000Y-295500000D03*
X383000000Y-297500000D03*
X383000000Y-299500000D03*
X383000000Y-301500000D03*
X383000000Y-303500000D03*
D36*
X385250000Y-293100000D03*
X385250000Y-305900000D03*
%TD*%
D22*
%TO.C,R17*%
X349258000Y-314220000D03*
X350908000Y-314220000D03*
%TD*%
%TO.C,R4*%
X347226000Y-282978000D03*
X348876000Y-282978000D03*
%TD*%
D23*
%TO.C,R28*%
X362718000Y-316252000D03*
X361068000Y-316252000D03*
%TD*%
D22*
%TO.C,R27*%
X361933000Y-314220000D03*
X363583000Y-314220000D03*
%TD*%
D23*
%TO.C,R8*%
X324618000Y-316252000D03*
X322968000Y-316252000D03*
%TD*%
D15*
%TO.C,FID4*%
X386750000Y-272500000D03*
%TD*%
D23*
%TO.C,R3*%
X352050000Y-282978000D03*
X350400000Y-282978000D03*
%TD*%
D37*
%TO.C,J6*%
X328500000Y-270000000D03*
X330500000Y-270000000D03*
X332500000Y-270000000D03*
X334500000Y-270000000D03*
X336500000Y-270000000D03*
X338500000Y-270000000D03*
D38*
X326100000Y-267750000D03*
X340900000Y-267750000D03*
%TD*%
D23*
%TO.C,R5*%
X343668000Y-284716000D03*
X342018000Y-284716000D03*
%TD*%
D26*
%TO.C,R22*%
X333763000Y-277350000D03*
X333763000Y-274425000D03*
%TD*%
D24*
%TO.C,TP6*%
X357250000Y-278750000D03*
%TD*%
%TO.C,TP4*%
X326016000Y-280692000D03*
%TD*%
D22*
%TO.C,R19*%
X368625000Y-286788000D03*
X370275000Y-286788000D03*
%TD*%
D24*
%TO.C,TP10*%
X342000000Y-280000000D03*
%TD*%
D23*
%TO.C,R14*%
X342398000Y-316252000D03*
X340748000Y-316252000D03*
%TD*%
D24*
%TO.C,TP12*%
X321952000Y-280692000D03*
%TD*%
D26*
%TO.C,R21*%
X331223000Y-277350000D03*
X331223000Y-274425000D03*
%TD*%
D16*
%TO.C,H4*%
X317500000Y-332900000D03*
X315802944Y-332197056D03*
X319197056Y-332197056D03*
X315100000Y-330500000D03*
D17*
X317500000Y-330500000D03*
D16*
X319900000Y-330500000D03*
X315802944Y-328802944D03*
X319197056Y-328802944D03*
X317500000Y-328100000D03*
%TD*%
%TO.C,H3*%
X384500000Y-270900000D03*
X382802944Y-270197056D03*
X386197056Y-270197056D03*
X382100000Y-268500000D03*
D17*
X384500000Y-268500000D03*
D16*
X386900000Y-268500000D03*
X382802944Y-266802944D03*
X386197056Y-266802944D03*
X384500000Y-266100000D03*
%TD*%
D15*
%TO.C,FID3*%
X321500000Y-332750000D03*
%TD*%
%TO.C,FID2*%
X315250000Y-326500000D03*
%TD*%
D24*
%TO.C,TP2*%
X368500000Y-297000000D03*
%TD*%
D39*
%TO.C,JP1*%
X315348000Y-283232000D03*
D40*
X315348000Y-284532000D03*
%TD*%
D41*
%TO.C,A1*%
X315500000Y-302225000D03*
D42*
X318530000Y-301925000D03*
X318530000Y-297075000D03*
D41*
X315500000Y-296775000D03*
D43*
X315370000Y-309190000D03*
D44*
X317910000Y-309190000D03*
D45*
X320450000Y-309190000D03*
D44*
X322990000Y-309190000D03*
X325530000Y-309190000D03*
X328070000Y-309190000D03*
X330610000Y-309190000D03*
D45*
X333150000Y-309190000D03*
D44*
X335690000Y-309190000D03*
X338230000Y-309190000D03*
X340770000Y-309190000D03*
X343310000Y-309190000D03*
D45*
X345850000Y-309190000D03*
D44*
X348390000Y-309190000D03*
X350930000Y-309190000D03*
X353470000Y-309190000D03*
X356010000Y-309190000D03*
D45*
X358550000Y-309190000D03*
D44*
X361090000Y-309190000D03*
X363630000Y-309190000D03*
X363630000Y-289810000D03*
X361090000Y-289810000D03*
D43*
X358550000Y-289810000D03*
D44*
X356010000Y-289810000D03*
X353470000Y-289810000D03*
X350930000Y-289810000D03*
X348390000Y-289810000D03*
D43*
X345850000Y-289810000D03*
D44*
X343310000Y-289810000D03*
X340770000Y-289810000D03*
X338230000Y-289810000D03*
X335690000Y-289810000D03*
D43*
X333150000Y-289810000D03*
D44*
X330610000Y-289810000D03*
X328070000Y-289810000D03*
X325530000Y-289810000D03*
X322990000Y-289810000D03*
D43*
X320450000Y-289810000D03*
D44*
X317910000Y-289810000D03*
X315370000Y-289810000D03*
D46*
X364200000Y-302040000D03*
D47*
X363400000Y-299500000D03*
D46*
X364200000Y-296960000D03*
%TD*%
D22*
%TO.C,R11*%
X328938000Y-314220000D03*
X330588000Y-314220000D03*
%TD*%
D23*
%TO.C,R6*%
X316998000Y-316252000D03*
X315348000Y-316252000D03*
%TD*%
%TO.C,R10*%
X329698000Y-316252000D03*
X328048000Y-316252000D03*
%TD*%
D26*
%TO.C,R24*%
X338843000Y-277350000D03*
X338843000Y-274425000D03*
%TD*%
D15*
%TO.C,FID1*%
X380500000Y-266250000D03*
%TD*%
D34*
%TO.C,C3*%
X325508000Y-285264000D03*
X323958000Y-285264000D03*
%TD*%
D24*
%TO.C,TP11*%
X353500000Y-277500000D03*
%TD*%
D23*
%TO.C,R12*%
X337318000Y-316252000D03*
X335668000Y-316252000D03*
%TD*%
D24*
%TO.C,TP1*%
X368500000Y-302000000D03*
%TD*%
D48*
%TO.C,R26*%
X369513000Y-289011000D03*
X369513000Y-290661000D03*
%TD*%
D37*
%TO.C,J5*%
X359500000Y-270000000D03*
X361500000Y-270000000D03*
X363500000Y-270000000D03*
X365500000Y-270000000D03*
X367500000Y-270000000D03*
X369500000Y-270000000D03*
X371500000Y-270000000D03*
X373500000Y-270000000D03*
D38*
X357100000Y-267750000D03*
X375900000Y-267750000D03*
%TD*%
D27*
%TO.C,J2*%
X354000000Y-329000000D03*
X352000000Y-329000000D03*
X350000000Y-329000000D03*
X348000000Y-329000000D03*
D28*
X356400000Y-331250000D03*
X345600000Y-331250000D03*
%TD*%
D16*
%TO.C,H38*%
X300600000Y-470500000D03*
X301302944Y-472197056D03*
X301302944Y-468802944D03*
X303000000Y-472900000D03*
D17*
X303000000Y-470500000D03*
D16*
X303000000Y-468100000D03*
X304697056Y-472197056D03*
X304697056Y-468802944D03*
X305400000Y-470500000D03*
%TD*%
D17*
%TO.C,H41*%
X81000000Y-431000000D03*
%TD*%
D18*
%TO.C,J1*%
X210190000Y-471960000D03*
D19*
X212730000Y-471960000D03*
X215270000Y-471960000D03*
X217810000Y-471960000D03*
D20*
X202350000Y-471400000D03*
X202350000Y-447600000D03*
X225650000Y-471400000D03*
X225650000Y-447600000D03*
%TD*%
D17*
%TO.C,H45*%
X621000000Y-431000000D03*
%TD*%
D16*
%TO.C,H39*%
X396600000Y-470500000D03*
X397302944Y-472197056D03*
X397302944Y-468802944D03*
X399000000Y-472900000D03*
D17*
X399000000Y-470500000D03*
D16*
X399000000Y-468100000D03*
X400697056Y-472197056D03*
X400697056Y-468802944D03*
X401400000Y-470500000D03*
%TD*%
D17*
%TO.C,H43*%
X351000000Y-431000000D03*
%TD*%
%TO.C,H42*%
X214000000Y-431000000D03*
%TD*%
D16*
%TO.C,H37*%
X122600000Y-470500000D03*
X123302944Y-472197056D03*
X123302944Y-468802944D03*
X125000000Y-472900000D03*
D17*
X125000000Y-470500000D03*
D16*
X125000000Y-468100000D03*
X126697056Y-472197056D03*
X126697056Y-468802944D03*
X127400000Y-470500000D03*
%TD*%
%TO.C,H40*%
X574600000Y-470500000D03*
X575302944Y-472197056D03*
X575302944Y-468802944D03*
X577000000Y-472900000D03*
D17*
X577000000Y-470500000D03*
D16*
X577000000Y-468100000D03*
X578697056Y-472197056D03*
X578697056Y-468802944D03*
X579400000Y-470500000D03*
%TD*%
D17*
%TO.C,H44*%
X488000000Y-431000000D03*
%TD*%
D15*
%TO.C,TP4*%
X218064000Y-462548000D03*
%TD*%
D23*
%TO.C,R18*%
X127575000Y-458250000D03*
X125925000Y-458250000D03*
%TD*%
D49*
%TO.C,C9*%
X416100000Y-453300000D03*
X417196016Y-454396016D03*
%TD*%
D27*
%TO.C,J2*%
X148000000Y-469000000D03*
X146000000Y-469000000D03*
X144000000Y-469000000D03*
X142000000Y-469000000D03*
X140000000Y-469000000D03*
X138000000Y-469000000D03*
X136000000Y-469000000D03*
X134000000Y-469000000D03*
D28*
X150400000Y-471250000D03*
X131600000Y-471250000D03*
%TD*%
D49*
%TO.C,C5*%
X141800000Y-453250000D03*
X142896016Y-454346016D03*
%TD*%
D50*
%TO.C,U4*%
X145453204Y-449665425D03*
D51*
X145736047Y-449948268D03*
X146018889Y-450231111D03*
X146301732Y-450513953D03*
D52*
X146584575Y-450796796D03*
D53*
X147415425Y-450796796D03*
D54*
X147698268Y-450513953D03*
X147981111Y-450231111D03*
X148263953Y-449948268D03*
D55*
X148546796Y-449665425D03*
D56*
X148546796Y-448834575D03*
D51*
X148263953Y-448551732D03*
X147981111Y-448268889D03*
X147698268Y-447986047D03*
D57*
X147415425Y-447703204D03*
D58*
X146584575Y-447703204D03*
D54*
X146301732Y-447986047D03*
X146018889Y-448268889D03*
X145736047Y-448551732D03*
D59*
X145453204Y-448834575D03*
%TD*%
D60*
%TO.C,R9*%
X549833274Y-451016637D03*
X551000000Y-452183363D03*
%TD*%
D25*
%TO.C,C1*%
X210190000Y-467100000D03*
X210190000Y-468650000D03*
%TD*%
D61*
%TO.C,U5*%
X125800000Y-462650000D03*
X126750000Y-462650000D03*
X127700000Y-462650000D03*
X127700000Y-460350000D03*
X125800000Y-460350000D03*
%TD*%
D49*
%TO.C,C3*%
X413800000Y-453250000D03*
X414896016Y-454346016D03*
%TD*%
D15*
%TO.C,TP2*%
X215016000Y-462548000D03*
%TD*%
D62*
%TO.C,C6*%
X135500000Y-462500000D03*
X135500000Y-460600000D03*
%TD*%
%TO.C,C12*%
X138000000Y-462500000D03*
X138000000Y-460600000D03*
%TD*%
D50*
%TO.C,U3*%
X281453204Y-449665425D03*
D51*
X281736047Y-449948268D03*
X282018889Y-450231111D03*
X282301732Y-450513953D03*
D52*
X282584575Y-450796796D03*
D53*
X283415425Y-450796796D03*
D54*
X283698268Y-450513953D03*
X283981111Y-450231111D03*
X284263953Y-449948268D03*
D55*
X284546796Y-449665425D03*
D56*
X284546796Y-448834575D03*
D51*
X284263953Y-448551732D03*
X283981111Y-448268889D03*
X283698268Y-447986047D03*
D57*
X283415425Y-447703204D03*
D58*
X282584575Y-447703204D03*
D54*
X282301732Y-447986047D03*
X282018889Y-448268889D03*
X281736047Y-448551732D03*
D59*
X281453204Y-448834575D03*
%TD*%
D15*
%TO.C,TP1*%
X211750000Y-462548000D03*
%TD*%
D49*
%TO.C,C10*%
X280100000Y-453300000D03*
X281196016Y-454396016D03*
%TD*%
D60*
%TO.C,R11*%
X277833274Y-451016637D03*
X279000000Y-452183363D03*
%TD*%
D15*
%TO.C,TP3*%
X156000000Y-452500000D03*
%TD*%
D22*
%TO.C,R1*%
X214128000Y-469152000D03*
X215778000Y-469152000D03*
%TD*%
D63*
%TO.C,R12*%
X143000000Y-452183363D03*
X141833274Y-451016637D03*
%TD*%
D23*
%TO.C,R2*%
X218952000Y-469152000D03*
X217302000Y-469152000D03*
%TD*%
D15*
%TO.C,TP10*%
X135500000Y-456500000D03*
%TD*%
D60*
%TO.C,R3*%
X546649911Y-454149911D03*
X547816637Y-455316637D03*
%TD*%
D49*
%TO.C,C2*%
X549800000Y-453250000D03*
X550896016Y-454346016D03*
%TD*%
D15*
%TO.C,TP12*%
X139250000Y-453250000D03*
%TD*%
%TO.C,TP14*%
X207800000Y-467100000D03*
%TD*%
D63*
%TO.C,R13*%
X555483363Y-454483363D03*
X554316637Y-453316637D03*
%TD*%
D15*
%TO.C,TP13*%
X123750000Y-458250000D03*
%TD*%
D25*
%TO.C,C14*%
X129500000Y-460975000D03*
X129500000Y-462525000D03*
%TD*%
D63*
%TO.C,R14*%
X419483363Y-454483363D03*
X418316637Y-453316637D03*
%TD*%
D15*
%TO.C,FID2*%
X78250000Y-378750000D03*
%TD*%
D21*
%TO.C,R6*%
X146000000Y-462500000D03*
X146000000Y-460850000D03*
%TD*%
D15*
%TO.C,TP5*%
X156000000Y-455000000D03*
%TD*%
%TO.C,TP11*%
X131500000Y-461000000D03*
%TD*%
D49*
%TO.C,C8*%
X552100000Y-453300000D03*
X553196016Y-454396016D03*
%TD*%
D15*
%TO.C,TP8*%
X544000000Y-459000000D03*
%TD*%
%TO.C,FID1*%
X572750000Y-472750000D03*
%TD*%
D63*
%TO.C,R15*%
X283483363Y-454483363D03*
X282316637Y-453316637D03*
%TD*%
D50*
%TO.C,U1*%
X553453204Y-449665425D03*
D51*
X553736047Y-449948268D03*
X554018889Y-450231111D03*
X554301732Y-450513953D03*
D52*
X554584575Y-450796796D03*
D53*
X555415425Y-450796796D03*
D54*
X555698268Y-450513953D03*
X555981111Y-450231111D03*
X556263953Y-449948268D03*
D55*
X556546796Y-449665425D03*
D56*
X556546796Y-448834575D03*
D51*
X556263953Y-448551732D03*
X555981111Y-448268889D03*
X555698268Y-447986047D03*
D57*
X555415425Y-447703204D03*
D58*
X554584575Y-447703204D03*
D54*
X554301732Y-447986047D03*
X554018889Y-448268889D03*
X553736047Y-448551732D03*
D59*
X553453204Y-448834575D03*
%TD*%
D21*
%TO.C,R7*%
X142000000Y-462500000D03*
X142000000Y-460850000D03*
%TD*%
D50*
%TO.C,U2*%
X417453204Y-449665425D03*
D51*
X417736047Y-449948268D03*
X418018889Y-450231111D03*
X418301732Y-450513953D03*
D52*
X418584575Y-450796796D03*
D53*
X419415425Y-450796796D03*
D54*
X419698268Y-450513953D03*
X419981111Y-450231111D03*
X420263953Y-449948268D03*
D55*
X420546796Y-449665425D03*
D56*
X420546796Y-448834575D03*
D51*
X420263953Y-448551732D03*
X419981111Y-448268889D03*
X419698268Y-447986047D03*
D57*
X419415425Y-447703204D03*
D58*
X418584575Y-447703204D03*
D54*
X418301732Y-447986047D03*
X418018889Y-448268889D03*
X417736047Y-448551732D03*
D59*
X417453204Y-448834575D03*
%TD*%
D63*
%TO.C,R4*%
X550083363Y-457583363D03*
X548916637Y-456416637D03*
%TD*%
D22*
%TO.C,R17*%
X125925000Y-464750000D03*
X127575000Y-464750000D03*
%TD*%
D15*
%TO.C,TP9*%
X541250000Y-461000000D03*
%TD*%
D49*
%TO.C,C11*%
X144100000Y-453300000D03*
X145196016Y-454396016D03*
%TD*%
D63*
%TO.C,R16*%
X147483363Y-454483363D03*
X146316637Y-453316637D03*
%TD*%
D21*
%TO.C,R8*%
X144000000Y-462500000D03*
X144000000Y-460850000D03*
%TD*%
D49*
%TO.C,C4*%
X277800000Y-453250000D03*
X278896016Y-454346016D03*
%TD*%
D15*
%TO.C,TP6*%
X544000000Y-456500000D03*
%TD*%
D60*
%TO.C,R10*%
X413833274Y-451016637D03*
X415000000Y-452183363D03*
%TD*%
D64*
%TO.C,C7*%
X133500000Y-462500000D03*
X133500000Y-460950000D03*
%TD*%
%TO.C,C13*%
X140000000Y-462505000D03*
X140000000Y-460955000D03*
%TD*%
D15*
%TO.C,TP7*%
X544000000Y-462670000D03*
%TD*%
D21*
%TO.C,R5*%
X148000000Y-462500000D03*
X148000000Y-460850000D03*
%TD*%
G36*
X387943039Y-273769685D02*
G01*
X387988794Y-273822489D01*
X388000000Y-273874000D01*
X388000000Y-279626000D01*
X387980315Y-279693039D01*
X387927511Y-279738794D01*
X387876000Y-279750000D01*
X385124000Y-279750000D01*
X385056961Y-279730315D01*
X385011206Y-279677511D01*
X385000000Y-279626000D01*
X385000000Y-273874000D01*
X385019685Y-273806961D01*
X385072489Y-273761206D01*
X385124000Y-273750000D01*
X387876000Y-273750000D01*
X387943039Y-273769685D01*
G37*
G36*
X298943039Y-470369685D02*
G01*
X298988794Y-470422489D01*
X299000000Y-470474000D01*
X299000000Y-473226000D01*
X298980315Y-473293039D01*
X298927511Y-473338794D01*
X298876000Y-473350000D01*
X293124000Y-473350000D01*
X293056961Y-473330315D01*
X293011206Y-473277511D01*
X293000000Y-473226000D01*
X293000000Y-470474000D01*
X293019685Y-470406961D01*
X293072489Y-470361206D01*
X293124000Y-470350000D01*
X298876000Y-470350000D01*
X298943039Y-470369685D01*
G37*
G36*
X298943039Y-125669685D02*
G01*
X298988794Y-125722489D01*
X299000000Y-125774000D01*
X299000000Y-128526000D01*
X298980315Y-128593039D01*
X298927511Y-128638794D01*
X298876000Y-128650000D01*
X293124000Y-128650000D01*
X293056961Y-128630315D01*
X293011206Y-128577511D01*
X293000000Y-128526000D01*
X293000000Y-125774000D01*
X293019685Y-125706961D01*
X293072489Y-125661206D01*
X293124000Y-125650000D01*
X298876000Y-125650000D01*
X298943039Y-125669685D01*
G37*
M02*
