%TF.GenerationSoftware,KiCad,Pcbnew,9.0.5-1.fc42*%
%TF.CreationDate,2025-11-14T21:23:51+10:30*%
%TF.ProjectId,DivaConStencil,44697661-436f-46e5-9374-656e63696c2e,rev?*%
%TF.SameCoordinates,Original*%
%TF.FileFunction,Profile,NP*%
%FSLAX46Y46*%
G04 Gerber Fmt 4.6, Leading zero omitted, Abs format (unit mm)*
G04 Created by KiCad (PCBNEW 9.0.5-1.fc42) date 2025-11-14 21:23:51*
%MOMM*%
%LPD*%
G01*
G04 APERTURE LIST*
%TA.AperFunction,Profile*%
%ADD10C,0.150000*%
%TD*%
%TA.AperFunction,Profile*%
%ADD11C,0.100000*%
%TD*%
G04 APERTURE END LIST*
D10*
X395000000Y-139500000D02*
G75*
G02*
X380000000Y-154500000I-15000000J0D01*
G01*
X322000000Y-154500000D02*
G75*
G02*
X307000000Y-139500000I-1J14999999D01*
G01*
X77000000Y-154500000D02*
X77000000Y-221500000D01*
X77000000Y-221500000D02*
X625000000Y-221500000D01*
X307000000Y-124500000D02*
X121000000Y-124500000D01*
X121000000Y-139500000D02*
G75*
G02*
X106000000Y-154500000I-14999999J-1D01*
G01*
X322000000Y-154500000D02*
X380000000Y-154500000D01*
X307000000Y-139500000D02*
X307000000Y-124500000D01*
X121000000Y-139500000D02*
X121000000Y-124500000D01*
X596000000Y-154500000D02*
G75*
G02*
X581000000Y-139500000I0J15000000D01*
G01*
X625000000Y-154500000D02*
X596000000Y-154500000D01*
X77000000Y-154500000D02*
X106000000Y-154500000D01*
X395000000Y-124500000D02*
X395000000Y-139500000D01*
X581000000Y-124500000D02*
X395000000Y-124500000D01*
X581000000Y-139500000D02*
X581000000Y-124500000D01*
X625000000Y-221500000D02*
X625000000Y-154500000D01*
D11*
X313500000Y-330500000D02*
X313500000Y-268500000D01*
X313500000Y-268500000D02*
G75*
G02*
X317500000Y-264500000I4000000J0D01*
G01*
X317500000Y-264500000D02*
X384500000Y-264500000D01*
X388500000Y-330500000D02*
G75*
G02*
X384500000Y-334500000I-4000000J0D01*
G01*
X384500000Y-264500000D02*
G75*
G02*
X388500000Y-268500000I0J-4000000D01*
G01*
X384500000Y-334500000D02*
X317500000Y-334500000D01*
X388500000Y-268500000D02*
X388500000Y-330500000D01*
X317500000Y-334500000D02*
G75*
G02*
X313500000Y-330500000I0J4000000D01*
G01*
D10*
X77000000Y-377500000D02*
X625000000Y-377500000D01*
X395000000Y-474500000D02*
X395000000Y-459500000D01*
X625000000Y-377500000D02*
X625000000Y-444500000D01*
X77000000Y-444500000D02*
X77000000Y-377500000D01*
X121000000Y-459500000D02*
X121000000Y-474500000D01*
X307000000Y-459500000D02*
G75*
G02*
X322000000Y-444500000I15000000J0D01*
G01*
X581000000Y-459500000D02*
X581000000Y-474500000D01*
X307000000Y-459500000D02*
X307000000Y-474500000D01*
X380000000Y-444500000D02*
G75*
G02*
X395000000Y-459500000I0J-15000000D01*
G01*
X106000000Y-444500000D02*
G75*
G02*
X121000000Y-459500000I0J-15000000D01*
G01*
X581000000Y-459500000D02*
G75*
G02*
X596000000Y-444500000I15000000J0D01*
G01*
X581000000Y-474500000D02*
X395000000Y-474500000D01*
X307000000Y-474500000D02*
X121000000Y-474500000D01*
X322000000Y-444500000D02*
X380000000Y-444500000D01*
X625000000Y-444500000D02*
X596000000Y-444500000D01*
X77000000Y-444500000D02*
X106000000Y-444500000D01*
M02*
