%TF.GenerationSoftware,KiCad,Pcbnew,9.0.5-1.fc42*%
%TF.CreationDate,2025-11-14T21:23:51+10:30*%
%TF.ProjectId,DivaConStencil,44697661-436f-46e5-9374-656e63696c2e,rev?*%
%TF.SameCoordinates,Original*%
%TF.FileFunction,Other,User*%
%FSLAX46Y46*%
G04 Gerber Fmt 4.6, Leading zero omitted, Abs format (unit mm)*
G04 Created by KiCad (PCBNEW 9.0.5-1.fc42) date 2025-11-14 21:23:51*
%MOMM*%
%LPD*%
G01*
G04 APERTURE LIST*
%ADD10C,0.050000*%
G04 APERTURE END LIST*
%TO.C,H12*%
D10*
X181000000Y-175500000D02*
X198000000Y-175500000D01*
X198000000Y-219500000D01*
X181000000Y-219500000D01*
X181000000Y-175500000D01*
%TO.C,H29*%
X504000000Y-175500000D02*
X521000000Y-175500000D01*
X521000000Y-219500000D01*
X504000000Y-219500000D01*
X504000000Y-175500000D01*
%TO.C,C36*%
X260595000Y-157230000D02*
X260595000Y-155770000D01*
X260595000Y-155770000D02*
X263555000Y-155770000D01*
X263555000Y-157230000D02*
X260595000Y-157230000D01*
X263555000Y-155770000D02*
X263555000Y-157230000D01*
%TO.C,D64*%
X616000000Y-157250000D02*
X621000000Y-157250000D01*
X621000000Y-159500000D01*
X616000000Y-159500000D01*
X616000000Y-157250000D01*
%TO.C,D41*%
X421000000Y-157250000D02*
X426000000Y-157250000D01*
X426000000Y-159500000D01*
X421000000Y-159500000D01*
X421000000Y-157250000D01*
%TO.C,C21*%
X133595000Y-157230000D02*
X133595000Y-155770000D01*
X133595000Y-155770000D02*
X136555000Y-155770000D01*
X136555000Y-157230000D02*
X133595000Y-157230000D01*
X136555000Y-155770000D02*
X136555000Y-157230000D01*
%TO.C,D26*%
X293000000Y-157250000D02*
X298000000Y-157250000D01*
X298000000Y-159500000D01*
X293000000Y-159500000D01*
X293000000Y-157250000D01*
%TO.C,D35*%
X370000000Y-157250000D02*
X375000000Y-157250000D01*
X375000000Y-159500000D01*
X370000000Y-159500000D01*
X370000000Y-157250000D01*
%TO.C,C76*%
X600595000Y-157230000D02*
X600595000Y-155770000D01*
X600595000Y-155770000D02*
X603555000Y-155770000D01*
X603555000Y-157230000D02*
X600595000Y-157230000D01*
X603555000Y-155770000D02*
X603555000Y-157230000D01*
%TO.C,C37*%
X269595000Y-157230000D02*
X269595000Y-155770000D01*
X269595000Y-155770000D02*
X272555000Y-155770000D01*
X272555000Y-157230000D02*
X269595000Y-157230000D01*
X272555000Y-155770000D02*
X272555000Y-157230000D01*
%TO.C,C26*%
X175595000Y-157230000D02*
X175595000Y-155770000D01*
X175595000Y-155770000D02*
X178555000Y-155770000D01*
X178555000Y-157230000D02*
X175595000Y-157230000D01*
X178555000Y-155770000D02*
X178555000Y-157230000D01*
%TO.C,D1*%
X81000000Y-157250000D02*
X86000000Y-157250000D01*
X86000000Y-159500000D01*
X81000000Y-159500000D01*
X81000000Y-157250000D01*
%TO.C,H11*%
X317000000Y-175500000D02*
X334000000Y-175500000D01*
X334000000Y-219500000D01*
X317000000Y-219500000D01*
X317000000Y-175500000D01*
%TO.C,H18*%
X419000000Y-175500000D02*
X436000000Y-175500000D01*
X436000000Y-219500000D01*
X419000000Y-219500000D01*
X419000000Y-175500000D01*
%TO.C,C23*%
X150595000Y-157230000D02*
X150595000Y-155770000D01*
X150595000Y-155770000D02*
X153555000Y-155770000D01*
X153555000Y-157230000D02*
X150595000Y-157230000D01*
X153555000Y-155770000D02*
X153555000Y-157230000D01*
%TO.C,D44*%
X446000000Y-157250000D02*
X451000000Y-157250000D01*
X451000000Y-159500000D01*
X446000000Y-159500000D01*
X446000000Y-157250000D01*
%TO.C,D58*%
X565000000Y-157250000D02*
X570000000Y-157250000D01*
X570000000Y-159500000D01*
X565000000Y-159500000D01*
X565000000Y-157250000D01*
%TO.C,H19*%
X283000000Y-175500000D02*
X300000000Y-175500000D01*
X300000000Y-219500000D01*
X283000000Y-219500000D01*
X283000000Y-175500000D01*
%TO.C,D25*%
X285000000Y-157250000D02*
X290000000Y-157250000D01*
X290000000Y-159500000D01*
X285000000Y-159500000D01*
X285000000Y-157250000D01*
%TO.C,C65*%
X507595000Y-157230000D02*
X507595000Y-155770000D01*
X507595000Y-155770000D02*
X510555000Y-155770000D01*
X510555000Y-157230000D02*
X507595000Y-157230000D01*
X510555000Y-155770000D02*
X510555000Y-157230000D01*
%TO.C,C18*%
X107595000Y-157230000D02*
X107595000Y-155770000D01*
X107595000Y-155770000D02*
X110555000Y-155770000D01*
X110555000Y-157230000D02*
X107595000Y-157230000D01*
X110555000Y-155770000D02*
X110555000Y-157230000D01*
%TO.C,C44*%
X328595000Y-157230000D02*
X328595000Y-155770000D01*
X328595000Y-155770000D02*
X331555000Y-155770000D01*
X331555000Y-157230000D02*
X328595000Y-157230000D01*
X331555000Y-155770000D02*
X331555000Y-157230000D01*
%TO.C,C30*%
X209595000Y-157230000D02*
X209595000Y-155770000D01*
X209595000Y-155770000D02*
X212555000Y-155770000D01*
X212555000Y-157230000D02*
X209595000Y-157230000D01*
X212555000Y-155770000D02*
X212555000Y-157230000D01*
%TO.C,C68*%
X532595000Y-157230000D02*
X532595000Y-155770000D01*
X532595000Y-155770000D02*
X535555000Y-155770000D01*
X535555000Y-157230000D02*
X532595000Y-157230000D01*
X535555000Y-155770000D02*
X535555000Y-157230000D01*
%TO.C,FID3*%
X79500000Y-156000000D02*
G75*
G02*
X77500000Y-156000000I-1000000J0D01*
G01*
X77500000Y-156000000D02*
G75*
G02*
X79500000Y-156000000I1000000J0D01*
G01*
%TO.C,D32*%
X344000000Y-157250000D02*
X349000000Y-157250000D01*
X349000000Y-159500000D01*
X344000000Y-159500000D01*
X344000000Y-157250000D01*
%TO.C,C38*%
X277595000Y-157230000D02*
X277595000Y-155770000D01*
X277595000Y-155770000D02*
X280555000Y-155770000D01*
X280555000Y-157230000D02*
X277595000Y-157230000D01*
X280555000Y-155770000D02*
X280555000Y-157230000D01*
%TO.C,H33*%
X487000000Y-175500000D02*
X504000000Y-175500000D01*
X504000000Y-219500000D01*
X487000000Y-219500000D01*
X487000000Y-175500000D01*
%TO.C,H27*%
X249000000Y-175500000D02*
X266000000Y-175500000D01*
X266000000Y-219500000D01*
X249000000Y-219500000D01*
X249000000Y-175500000D01*
%TO.C,D13*%
X183000000Y-157250000D02*
X188000000Y-157250000D01*
X188000000Y-159500000D01*
X183000000Y-159500000D01*
X183000000Y-157250000D01*
%TO.C,H36*%
X79000000Y-175500000D02*
X96000000Y-175500000D01*
X96000000Y-219500000D01*
X79000000Y-219500000D01*
X79000000Y-175500000D01*
%TO.C,D62*%
X599000000Y-157250000D02*
X604000000Y-157250000D01*
X604000000Y-159500000D01*
X599000000Y-159500000D01*
X599000000Y-157250000D01*
%TO.C,D22*%
X259000000Y-157250000D02*
X264000000Y-157250000D01*
X264000000Y-159500000D01*
X259000000Y-159500000D01*
X259000000Y-157250000D01*
%TO.C,H23*%
X266000000Y-175500000D02*
X283000000Y-175500000D01*
X283000000Y-219500000D01*
X266000000Y-219500000D01*
X266000000Y-175500000D01*
%TO.C,C77*%
X609595000Y-157230000D02*
X609595000Y-155770000D01*
X609595000Y-155770000D02*
X612555000Y-155770000D01*
X612555000Y-157230000D02*
X609595000Y-157230000D01*
X612555000Y-155770000D02*
X612555000Y-157230000D01*
%TO.C,C54*%
X413595000Y-157230000D02*
X413595000Y-155770000D01*
X413595000Y-155770000D02*
X416555000Y-155770000D01*
X416555000Y-157230000D02*
X413595000Y-157230000D01*
X416555000Y-155770000D02*
X416555000Y-157230000D01*
%TO.C,C51*%
X388595000Y-157230000D02*
X388595000Y-155770000D01*
X388595000Y-155770000D02*
X391555000Y-155770000D01*
X391555000Y-157230000D02*
X388595000Y-157230000D01*
X391555000Y-155770000D02*
X391555000Y-157230000D01*
%TO.C,H22*%
X402000000Y-175500000D02*
X419000000Y-175500000D01*
X419000000Y-219500000D01*
X402000000Y-219500000D01*
X402000000Y-175500000D01*
%TO.C,C22*%
X141595000Y-157230000D02*
X141595000Y-155770000D01*
X141595000Y-155770000D02*
X144555000Y-155770000D01*
X144555000Y-157230000D02*
X141595000Y-157230000D01*
X144555000Y-155770000D02*
X144555000Y-157230000D01*
%TO.C,C63*%
X490595000Y-157230000D02*
X490595000Y-155770000D01*
X490595000Y-155770000D02*
X493555000Y-155770000D01*
X493555000Y-157230000D02*
X490595000Y-157230000D01*
X493555000Y-155770000D02*
X493555000Y-157230000D01*
%TO.C,D9*%
X149000000Y-157250000D02*
X154000000Y-157250000D01*
X154000000Y-159500000D01*
X149000000Y-159500000D01*
X149000000Y-157250000D01*
%TO.C,FID4*%
X624750000Y-220250000D02*
G75*
G02*
X622750000Y-220250000I-1000000J0D01*
G01*
X622750000Y-220250000D02*
G75*
G02*
X624750000Y-220250000I1000000J0D01*
G01*
%TO.C,C50*%
X379595000Y-157230000D02*
X379595000Y-155770000D01*
X379595000Y-155770000D02*
X382555000Y-155770000D01*
X382555000Y-157230000D02*
X379595000Y-157230000D01*
X382555000Y-155770000D02*
X382555000Y-157230000D01*
%TO.C,C56*%
X430595000Y-157230000D02*
X430595000Y-155770000D01*
X430595000Y-155770000D02*
X433555000Y-155770000D01*
X433555000Y-157230000D02*
X430595000Y-157230000D01*
X433555000Y-155770000D02*
X433555000Y-157230000D01*
%TO.C,H31*%
X232000000Y-175500000D02*
X249000000Y-175500000D01*
X249000000Y-219500000D01*
X232000000Y-219500000D01*
X232000000Y-175500000D01*
%TO.C,D60*%
X582000000Y-157250000D02*
X587000000Y-157250000D01*
X587000000Y-159500000D01*
X582000000Y-159500000D01*
X582000000Y-157250000D01*
%TO.C,H9*%
X589000000Y-175500000D02*
X606000000Y-175500000D01*
X606000000Y-219500000D01*
X589000000Y-219500000D01*
X589000000Y-175500000D01*
%TO.C,D20*%
X242000000Y-157250000D02*
X247000000Y-157250000D01*
X247000000Y-159500000D01*
X242000000Y-159500000D01*
X242000000Y-157250000D01*
%TO.C,D24*%
X276000000Y-157250000D02*
X281000000Y-157250000D01*
X281000000Y-159500000D01*
X276000000Y-159500000D01*
X276000000Y-157250000D01*
%TO.C,D11*%
X166000000Y-157250000D02*
X171000000Y-157250000D01*
X171000000Y-159500000D01*
X166000000Y-159500000D01*
X166000000Y-157250000D01*
%TO.C,C15*%
X82595000Y-157230000D02*
X82595000Y-155770000D01*
X82595000Y-155770000D02*
X85555000Y-155770000D01*
X85555000Y-157230000D02*
X82595000Y-157230000D01*
X85555000Y-155770000D02*
X85555000Y-157230000D01*
%TO.C,D50*%
X497000000Y-157250000D02*
X502000000Y-157250000D01*
X502000000Y-159500000D01*
X497000000Y-159500000D01*
X497000000Y-157250000D01*
%TO.C,D6*%
X123000000Y-157250000D02*
X128000000Y-157250000D01*
X128000000Y-159500000D01*
X123000000Y-159500000D01*
X123000000Y-157250000D01*
%TO.C,C73*%
X575595000Y-157230000D02*
X575595000Y-155770000D01*
X575595000Y-155770000D02*
X578555000Y-155770000D01*
X578555000Y-157230000D02*
X575595000Y-157230000D01*
X578555000Y-155770000D02*
X578555000Y-157230000D01*
%TO.C,D57*%
X557000000Y-157250000D02*
X562000000Y-157250000D01*
X562000000Y-159500000D01*
X557000000Y-159500000D01*
X557000000Y-157250000D01*
%TO.C,C19*%
X116595000Y-157230000D02*
X116595000Y-155770000D01*
X116595000Y-155770000D02*
X119555000Y-155770000D01*
X119555000Y-157230000D02*
X116595000Y-157230000D01*
X119555000Y-155770000D02*
X119555000Y-157230000D01*
%TO.C,H24*%
X130000000Y-175500000D02*
X147000000Y-175500000D01*
X147000000Y-219500000D01*
X130000000Y-219500000D01*
X130000000Y-175500000D01*
%TO.C,H14*%
X436000000Y-175500000D02*
X453000000Y-175500000D01*
X453000000Y-219500000D01*
X436000000Y-219500000D01*
X436000000Y-175500000D01*
%TO.C,H39*%
X402450000Y-128500000D02*
G75*
G02*
X395550000Y-128500000I-3450000J0D01*
G01*
X395550000Y-128500000D02*
G75*
G02*
X402450000Y-128500000I3450000J0D01*
G01*
%TO.C,C33*%
X235595000Y-157230000D02*
X235595000Y-155770000D01*
X235595000Y-155770000D02*
X238555000Y-155770000D01*
X238555000Y-157230000D02*
X235595000Y-157230000D01*
X238555000Y-155770000D02*
X238555000Y-157230000D01*
%TO.C,H7*%
X334000000Y-175500000D02*
X351000000Y-175500000D01*
X351000000Y-219500000D01*
X334000000Y-219500000D01*
X334000000Y-175500000D01*
%TO.C,H30*%
X368000000Y-175500000D02*
X385000000Y-175500000D01*
X385000000Y-219500000D01*
X368000000Y-219500000D01*
X368000000Y-175500000D01*
%TO.C,D54*%
X531000000Y-157250000D02*
X536000000Y-157250000D01*
X536000000Y-159500000D01*
X531000000Y-159500000D01*
X531000000Y-157250000D01*
%TO.C,C43*%
X320595000Y-157230000D02*
X320595000Y-155770000D01*
X320595000Y-155770000D02*
X323555000Y-155770000D01*
X323555000Y-157230000D02*
X320595000Y-157230000D01*
X323555000Y-155770000D02*
X323555000Y-157230000D01*
%TO.C,C52*%
X396595000Y-157230000D02*
X396595000Y-155770000D01*
X396595000Y-155770000D02*
X399555000Y-155770000D01*
X399555000Y-157230000D02*
X396595000Y-157230000D01*
X399555000Y-155770000D02*
X399555000Y-157230000D01*
%TO.C,C45*%
X337595000Y-157230000D02*
X337595000Y-155770000D01*
X337595000Y-155770000D02*
X340555000Y-155770000D01*
X340555000Y-157230000D02*
X337595000Y-157230000D01*
X340555000Y-155770000D02*
X340555000Y-157230000D01*
%TO.C,C70*%
X549595000Y-157230000D02*
X549595000Y-155770000D01*
X549595000Y-155770000D02*
X552555000Y-155770000D01*
X552555000Y-157230000D02*
X549595000Y-157230000D01*
X552555000Y-155770000D02*
X552555000Y-157230000D01*
%TO.C,C28*%
X192595000Y-157230000D02*
X192595000Y-155770000D01*
X192595000Y-155770000D02*
X195555000Y-155770000D01*
X195555000Y-157230000D02*
X192595000Y-157230000D01*
X195555000Y-155770000D02*
X195555000Y-157230000D01*
%TO.C,H45*%
X624450000Y-168000000D02*
G75*
G02*
X617550000Y-168000000I-3450000J0D01*
G01*
X617550000Y-168000000D02*
G75*
G02*
X624450000Y-168000000I3450000J0D01*
G01*
%TO.C,C24*%
X158595000Y-157230000D02*
X158595000Y-155770000D01*
X158595000Y-155770000D02*
X161555000Y-155770000D01*
X161555000Y-157230000D02*
X158595000Y-157230000D01*
X161555000Y-155770000D02*
X161555000Y-157230000D01*
%TO.C,C49*%
X371595000Y-157230000D02*
X371595000Y-155770000D01*
X371595000Y-155770000D02*
X374555000Y-155770000D01*
X374555000Y-157230000D02*
X371595000Y-157230000D01*
X374555000Y-155770000D02*
X374555000Y-157230000D01*
%TO.C,D39*%
X404000000Y-157250000D02*
X409000000Y-157250000D01*
X409000000Y-159500000D01*
X404000000Y-159500000D01*
X404000000Y-157250000D01*
%TO.C,D38*%
X395000000Y-157250000D02*
X400000000Y-157250000D01*
X400000000Y-159500000D01*
X395000000Y-159500000D01*
X395000000Y-157250000D01*
%TO.C,H34*%
X351000000Y-175500000D02*
X368000000Y-175500000D01*
X368000000Y-219500000D01*
X351000000Y-219500000D01*
X351000000Y-175500000D01*
%TO.C,C61*%
X473595000Y-157230000D02*
X473595000Y-155770000D01*
X473595000Y-155770000D02*
X476555000Y-155770000D01*
X476555000Y-157230000D02*
X473595000Y-157230000D01*
X476555000Y-155770000D02*
X476555000Y-157230000D01*
%TO.C,C60*%
X464595000Y-157230000D02*
X464595000Y-155770000D01*
X464595000Y-155770000D02*
X467555000Y-155770000D01*
X467555000Y-157230000D02*
X464595000Y-157230000D01*
X467555000Y-155770000D02*
X467555000Y-157230000D01*
%TO.C,D16*%
X208000000Y-157250000D02*
X213000000Y-157250000D01*
X213000000Y-159500000D01*
X208000000Y-159500000D01*
X208000000Y-157250000D01*
%TO.C,D5*%
X115000000Y-157250000D02*
X120000000Y-157250000D01*
X120000000Y-159500000D01*
X115000000Y-159500000D01*
X115000000Y-157250000D01*
%TO.C,D7*%
X132000000Y-157250000D02*
X137000000Y-157250000D01*
X137000000Y-159500000D01*
X132000000Y-159500000D01*
X132000000Y-157250000D01*
%TO.C,D48*%
X480000000Y-157250000D02*
X485000000Y-157250000D01*
X485000000Y-159500000D01*
X480000000Y-159500000D01*
X480000000Y-157250000D01*
%TO.C,C29*%
X201595000Y-157230000D02*
X201595000Y-155770000D01*
X201595000Y-155770000D02*
X204555000Y-155770000D01*
X204555000Y-157230000D02*
X201595000Y-157230000D01*
X204555000Y-155770000D02*
X204555000Y-157230000D01*
%TO.C,D45*%
X455000000Y-157250000D02*
X460000000Y-157250000D01*
X460000000Y-159500000D01*
X455000000Y-159500000D01*
X455000000Y-157250000D01*
%TO.C,H15*%
X300000000Y-175500000D02*
X317000000Y-175500000D01*
X317000000Y-219500000D01*
X300000000Y-219500000D01*
X300000000Y-175500000D01*
%TO.C,J1*%
X200050000Y-153700000D02*
X200050000Y-125300000D01*
X200050000Y-125300000D02*
X227950000Y-125300000D01*
X207050000Y-153700000D02*
X200050000Y-153700000D01*
X207050000Y-151700000D02*
X207050000Y-153700000D01*
X220950000Y-153700000D02*
X220950000Y-151700000D01*
X220950000Y-151700000D02*
X207050000Y-151700000D01*
X227950000Y-153700000D02*
X220950000Y-153700000D01*
X227950000Y-125300000D02*
X227950000Y-153700000D01*
%TO.C,D29*%
X319000000Y-157250000D02*
X324000000Y-157250000D01*
X324000000Y-159500000D01*
X319000000Y-159500000D01*
X319000000Y-157250000D01*
%TO.C,D34*%
X361000000Y-157250000D02*
X366000000Y-157250000D01*
X366000000Y-159500000D01*
X361000000Y-159500000D01*
X361000000Y-157250000D01*
%TO.C,C58*%
X447595000Y-157230000D02*
X447595000Y-155770000D01*
X447595000Y-155770000D02*
X450555000Y-155770000D01*
X450555000Y-157230000D02*
X447595000Y-157230000D01*
X450555000Y-155770000D02*
X450555000Y-157230000D01*
%TO.C,H16*%
X164000000Y-175500000D02*
X181000000Y-175500000D01*
X181000000Y-219500000D01*
X164000000Y-219500000D01*
X164000000Y-175500000D01*
%TO.C,C47*%
X354595000Y-157230000D02*
X354595000Y-155770000D01*
X354595000Y-155770000D02*
X357555000Y-155770000D01*
X357555000Y-157230000D02*
X354595000Y-157230000D01*
X357555000Y-155770000D02*
X357555000Y-157230000D01*
%TO.C,D43*%
X438000000Y-157250000D02*
X443000000Y-157250000D01*
X443000000Y-159500000D01*
X438000000Y-159500000D01*
X438000000Y-157250000D01*
%TO.C,H26*%
X385000000Y-175500000D02*
X402000000Y-175500000D01*
X402000000Y-219500000D01*
X385000000Y-219500000D01*
X385000000Y-175500000D01*
%TO.C,H20*%
X147000000Y-175500000D02*
X164000000Y-175500000D01*
X164000000Y-219500000D01*
X147000000Y-219500000D01*
X147000000Y-175500000D01*
%TO.C,C62*%
X481595000Y-157230000D02*
X481595000Y-155770000D01*
X481595000Y-155770000D02*
X484555000Y-155770000D01*
X484555000Y-157230000D02*
X481595000Y-157230000D01*
X484555000Y-155770000D02*
X484555000Y-157230000D01*
%TO.C,D15*%
X200000000Y-157250000D02*
X205000000Y-157250000D01*
X205000000Y-159500000D01*
X200000000Y-159500000D01*
X200000000Y-157250000D01*
%TO.C,D37*%
X387000000Y-157250000D02*
X392000000Y-157250000D01*
X392000000Y-159500000D01*
X387000000Y-159500000D01*
X387000000Y-157250000D01*
%TO.C,H42*%
X217450000Y-168000000D02*
G75*
G02*
X210550000Y-168000000I-3450000J0D01*
G01*
X210550000Y-168000000D02*
G75*
G02*
X217450000Y-168000000I3450000J0D01*
G01*
%TO.C,D4*%
X106000000Y-157250000D02*
X111000000Y-157250000D01*
X111000000Y-159500000D01*
X106000000Y-159500000D01*
X106000000Y-157250000D01*
%TO.C,D28*%
X310000000Y-157250000D02*
X315000000Y-157250000D01*
X315000000Y-159500000D01*
X310000000Y-159500000D01*
X310000000Y-157250000D01*
%TO.C,C40*%
X294595000Y-157230000D02*
X294595000Y-155770000D01*
X294595000Y-155770000D02*
X297555000Y-155770000D01*
X297555000Y-157230000D02*
X294595000Y-157230000D01*
X297555000Y-155770000D02*
X297555000Y-157230000D01*
%TO.C,D17*%
X217000000Y-157250000D02*
X222000000Y-157250000D01*
X222000000Y-159500000D01*
X217000000Y-159500000D01*
X217000000Y-157250000D01*
%TO.C,H37*%
X128450000Y-128500000D02*
G75*
G02*
X121550000Y-128500000I-3450000J0D01*
G01*
X121550000Y-128500000D02*
G75*
G02*
X128450000Y-128500000I3450000J0D01*
G01*
%TO.C,H25*%
X521000000Y-175500000D02*
X538000000Y-175500000D01*
X538000000Y-219500000D01*
X521000000Y-219500000D01*
X521000000Y-175500000D01*
%TO.C,D21*%
X251000000Y-157250000D02*
X256000000Y-157250000D01*
X256000000Y-159500000D01*
X251000000Y-159500000D01*
X251000000Y-157250000D01*
%TO.C,C25*%
X167595000Y-157230000D02*
X167595000Y-155770000D01*
X167595000Y-155770000D02*
X170555000Y-155770000D01*
X170555000Y-157230000D02*
X167595000Y-157230000D01*
X170555000Y-155770000D02*
X170555000Y-157230000D01*
%TO.C,H17*%
X555000000Y-175500000D02*
X572000000Y-175500000D01*
X572000000Y-219500000D01*
X555000000Y-219500000D01*
X555000000Y-175500000D01*
%TO.C,H38*%
X306450000Y-128500000D02*
G75*
G02*
X299550000Y-128500000I-3450000J0D01*
G01*
X299550000Y-128500000D02*
G75*
G02*
X306450000Y-128500000I3450000J0D01*
G01*
%TO.C,H41*%
X84450000Y-168000000D02*
G75*
G02*
X77550000Y-168000000I-3450000J0D01*
G01*
X77550000Y-168000000D02*
G75*
G02*
X84450000Y-168000000I3450000J0D01*
G01*
%TO.C,H35*%
X215000000Y-175500000D02*
X232000000Y-175500000D01*
X232000000Y-219500000D01*
X215000000Y-219500000D01*
X215000000Y-175500000D01*
%TO.C,C27*%
X184595000Y-157230000D02*
X184595000Y-155770000D01*
X184595000Y-155770000D02*
X187555000Y-155770000D01*
X187555000Y-157230000D02*
X184595000Y-157230000D01*
X187555000Y-155770000D02*
X187555000Y-157230000D01*
%TO.C,D52*%
X514000000Y-157250000D02*
X519000000Y-157250000D01*
X519000000Y-159500000D01*
X514000000Y-159500000D01*
X514000000Y-157250000D01*
%TO.C,C41*%
X303595000Y-157230000D02*
X303595000Y-155770000D01*
X303595000Y-155770000D02*
X306555000Y-155770000D01*
X306555000Y-157230000D02*
X303595000Y-157230000D01*
X306555000Y-155770000D02*
X306555000Y-157230000D01*
%TO.C,C32*%
X226595000Y-157230000D02*
X226595000Y-155770000D01*
X226595000Y-155770000D02*
X229555000Y-155770000D01*
X229555000Y-157230000D02*
X226595000Y-157230000D01*
X229555000Y-155770000D02*
X229555000Y-157230000D01*
%TO.C,C59*%
X456595000Y-157230000D02*
X456595000Y-155770000D01*
X456595000Y-155770000D02*
X459555000Y-155770000D01*
X459555000Y-157230000D02*
X456595000Y-157230000D01*
X459555000Y-155770000D02*
X459555000Y-157230000D01*
%TO.C,D63*%
X608000000Y-157250000D02*
X613000000Y-157250000D01*
X613000000Y-159500000D01*
X608000000Y-159500000D01*
X608000000Y-157250000D01*
%TO.C,H32*%
X96000000Y-175500000D02*
X113000000Y-175500000D01*
X113000000Y-219500000D01*
X96000000Y-219500000D01*
X96000000Y-175500000D01*
%TO.C,D55*%
X540000000Y-157250000D02*
X545000000Y-157250000D01*
X545000000Y-159500000D01*
X540000000Y-159500000D01*
X540000000Y-157250000D01*
%TO.C,C31*%
X218595000Y-157230000D02*
X218595000Y-155770000D01*
X218595000Y-155770000D02*
X221555000Y-155770000D01*
X221555000Y-157230000D02*
X218595000Y-157230000D01*
X221555000Y-155770000D02*
X221555000Y-157230000D01*
%TO.C,C72*%
X566595000Y-157230000D02*
X566595000Y-155770000D01*
X566595000Y-155770000D02*
X569555000Y-155770000D01*
X569555000Y-157230000D02*
X566595000Y-157230000D01*
X569555000Y-155770000D02*
X569555000Y-157230000D01*
%TO.C,C46*%
X345595000Y-157230000D02*
X345595000Y-155770000D01*
X345595000Y-155770000D02*
X348555000Y-155770000D01*
X348555000Y-157230000D02*
X345595000Y-157230000D01*
X348555000Y-155770000D02*
X348555000Y-157230000D01*
%TO.C,D19*%
X234000000Y-157250000D02*
X239000000Y-157250000D01*
X239000000Y-159500000D01*
X234000000Y-159500000D01*
X234000000Y-157250000D01*
%TO.C,H6*%
X470000000Y-175500000D02*
X487000000Y-175500000D01*
X487000000Y-219500000D01*
X470000000Y-219500000D01*
X470000000Y-175500000D01*
%TO.C,D33*%
X353000000Y-157250000D02*
X358000000Y-157250000D01*
X358000000Y-159500000D01*
X353000000Y-159500000D01*
X353000000Y-157250000D01*
%TO.C,D46*%
X463000000Y-157250000D02*
X468000000Y-157250000D01*
X468000000Y-159500000D01*
X463000000Y-159500000D01*
X463000000Y-157250000D01*
%TO.C,D3*%
X98000000Y-157250000D02*
X103000000Y-157250000D01*
X103000000Y-159500000D01*
X98000000Y-159500000D01*
X98000000Y-157250000D01*
%TO.C,H21*%
X538000000Y-175500000D02*
X555000000Y-175500000D01*
X555000000Y-219500000D01*
X538000000Y-219500000D01*
X538000000Y-175500000D01*
%TO.C,C57*%
X439595000Y-157230000D02*
X439595000Y-155770000D01*
X439595000Y-155770000D02*
X442555000Y-155770000D01*
X442555000Y-157230000D02*
X439595000Y-157230000D01*
X442555000Y-155770000D02*
X442555000Y-157230000D01*
%TO.C,C64*%
X498595000Y-157230000D02*
X498595000Y-155770000D01*
X498595000Y-155770000D02*
X501555000Y-155770000D01*
X501555000Y-157230000D02*
X498595000Y-157230000D01*
X501555000Y-155770000D02*
X501555000Y-157230000D01*
%TO.C,D18*%
X225000000Y-157250000D02*
X230000000Y-157250000D01*
X230000000Y-159500000D01*
X225000000Y-159500000D01*
X225000000Y-157250000D01*
%TO.C,D53*%
X523000000Y-157250000D02*
X528000000Y-157250000D01*
X528000000Y-159500000D01*
X523000000Y-159500000D01*
X523000000Y-157250000D01*
%TO.C,C67*%
X524595000Y-157230000D02*
X524595000Y-155770000D01*
X524595000Y-155770000D02*
X527555000Y-155770000D01*
X527555000Y-157230000D02*
X524595000Y-157230000D01*
X527555000Y-155770000D02*
X527555000Y-157230000D01*
%TO.C,C74*%
X583595000Y-157230000D02*
X583595000Y-155770000D01*
X583595000Y-155770000D02*
X586555000Y-155770000D01*
X586555000Y-157230000D02*
X583595000Y-157230000D01*
X586555000Y-155770000D02*
X586555000Y-157230000D01*
%TO.C,H44*%
X491450000Y-168000000D02*
G75*
G02*
X484550000Y-168000000I-3450000J0D01*
G01*
X484550000Y-168000000D02*
G75*
G02*
X491450000Y-168000000I3450000J0D01*
G01*
%TO.C,H28*%
X113000000Y-175500000D02*
X130000000Y-175500000D01*
X130000000Y-219500000D01*
X113000000Y-219500000D01*
X113000000Y-175500000D01*
%TO.C,D42*%
X429000000Y-157250000D02*
X434000000Y-157250000D01*
X434000000Y-159500000D01*
X429000000Y-159500000D01*
X429000000Y-157250000D01*
%TO.C,C35*%
X252595000Y-157230000D02*
X252595000Y-155770000D01*
X252595000Y-155770000D02*
X255555000Y-155770000D01*
X255555000Y-157230000D02*
X252595000Y-157230000D01*
X255555000Y-155770000D02*
X255555000Y-157230000D01*
%TO.C,D27*%
X302000000Y-157250000D02*
X307000000Y-157250000D01*
X307000000Y-159500000D01*
X302000000Y-159500000D01*
X302000000Y-157250000D01*
%TO.C,C20*%
X124595000Y-157230000D02*
X124595000Y-155770000D01*
X124595000Y-155770000D02*
X127555000Y-155770000D01*
X127555000Y-157230000D02*
X124595000Y-157230000D01*
X127555000Y-155770000D02*
X127555000Y-157230000D01*
%TO.C,D12*%
X174000000Y-157250000D02*
X179000000Y-157250000D01*
X179000000Y-159500000D01*
X174000000Y-159500000D01*
X174000000Y-157250000D01*
%TO.C,C48*%
X362595000Y-157230000D02*
X362595000Y-155770000D01*
X362595000Y-155770000D02*
X365555000Y-155770000D01*
X365555000Y-157230000D02*
X362595000Y-157230000D01*
X365555000Y-155770000D02*
X365555000Y-157230000D01*
%TO.C,C66*%
X515595000Y-157230000D02*
X515595000Y-155770000D01*
X515595000Y-155770000D02*
X518555000Y-155770000D01*
X518555000Y-157230000D02*
X515595000Y-157230000D01*
X518555000Y-155770000D02*
X518555000Y-157230000D01*
%TO.C,H43*%
X354450000Y-168000000D02*
G75*
G02*
X347550000Y-168000000I-3450000J0D01*
G01*
X347550000Y-168000000D02*
G75*
G02*
X354450000Y-168000000I3450000J0D01*
G01*
%TO.C,C16*%
X90595000Y-157230000D02*
X90595000Y-155770000D01*
X90595000Y-155770000D02*
X93555000Y-155770000D01*
X93555000Y-157230000D02*
X90595000Y-157230000D01*
X93555000Y-155770000D02*
X93555000Y-157230000D01*
%TO.C,D8*%
X140000000Y-157250000D02*
X145000000Y-157250000D01*
X145000000Y-159500000D01*
X140000000Y-159500000D01*
X140000000Y-157250000D01*
%TO.C,H10*%
X453000000Y-175500000D02*
X470000000Y-175500000D01*
X470000000Y-219500000D01*
X453000000Y-219500000D01*
X453000000Y-175500000D01*
%TO.C,D36*%
X378000000Y-157250000D02*
X383000000Y-157250000D01*
X383000000Y-159500000D01*
X378000000Y-159500000D01*
X378000000Y-157250000D01*
%TO.C,D51*%
X506000000Y-157250000D02*
X511000000Y-157250000D01*
X511000000Y-159500000D01*
X506000000Y-159500000D01*
X506000000Y-157250000D01*
%TO.C,C34*%
X243595000Y-157230000D02*
X243595000Y-155770000D01*
X243595000Y-155770000D02*
X246555000Y-155770000D01*
X246555000Y-157230000D02*
X243595000Y-157230000D01*
X246555000Y-155770000D02*
X246555000Y-157230000D01*
%TO.C,D14*%
X191000000Y-157250000D02*
X196000000Y-157250000D01*
X196000000Y-159500000D01*
X191000000Y-159500000D01*
X191000000Y-157250000D01*
%TO.C,C75*%
X592595000Y-157230000D02*
X592595000Y-155770000D01*
X592595000Y-155770000D02*
X595555000Y-155770000D01*
X595555000Y-157230000D02*
X592595000Y-157230000D01*
X595555000Y-155770000D02*
X595555000Y-157230000D01*
%TO.C,C55*%
X422595000Y-157230000D02*
X422595000Y-155770000D01*
X422595000Y-155770000D02*
X425555000Y-155770000D01*
X425555000Y-157230000D02*
X422595000Y-157230000D01*
X425555000Y-155770000D02*
X425555000Y-157230000D01*
%TO.C,H5*%
X606000000Y-175500000D02*
X623000000Y-175500000D01*
X623000000Y-219500000D01*
X606000000Y-219500000D01*
X606000000Y-175500000D01*
%TO.C,D40*%
X412000000Y-157250000D02*
X417000000Y-157250000D01*
X417000000Y-159500000D01*
X412000000Y-159500000D01*
X412000000Y-157250000D01*
%TO.C,C39*%
X286595000Y-157230000D02*
X286595000Y-155770000D01*
X286595000Y-155770000D02*
X289555000Y-155770000D01*
X289555000Y-157230000D02*
X286595000Y-157230000D01*
X289555000Y-155770000D02*
X289555000Y-157230000D01*
%TO.C,H13*%
X572000000Y-175500000D02*
X589000000Y-175500000D01*
X589000000Y-219500000D01*
X572000000Y-219500000D01*
X572000000Y-175500000D01*
%TO.C,D47*%
X472000000Y-157250000D02*
X477000000Y-157250000D01*
X477000000Y-159500000D01*
X472000000Y-159500000D01*
X472000000Y-157250000D01*
%TO.C,C17*%
X99595000Y-157230000D02*
X99595000Y-155770000D01*
X99595000Y-155770000D02*
X102555000Y-155770000D01*
X102555000Y-157230000D02*
X99595000Y-157230000D01*
X102555000Y-155770000D02*
X102555000Y-157230000D01*
%TO.C,C78*%
X617595000Y-157230000D02*
X617595000Y-155770000D01*
X617595000Y-155770000D02*
X620555000Y-155770000D01*
X620555000Y-157230000D02*
X617595000Y-157230000D01*
X620555000Y-155770000D02*
X620555000Y-157230000D01*
%TO.C,R19*%
X621770000Y-159230000D02*
X621770000Y-156270000D01*
X621770000Y-156270000D02*
X623230000Y-156270000D01*
X623230000Y-159230000D02*
X621770000Y-159230000D01*
X623230000Y-156270000D02*
X623230000Y-159230000D01*
%TO.C,D2*%
X89000000Y-157250000D02*
X94000000Y-157250000D01*
X94000000Y-159500000D01*
X89000000Y-159500000D01*
X89000000Y-157250000D01*
%TO.C,D61*%
X591000000Y-157250000D02*
X596000000Y-157250000D01*
X596000000Y-159500000D01*
X591000000Y-159500000D01*
X591000000Y-157250000D01*
%TO.C,C69*%
X541595000Y-157230000D02*
X541595000Y-155770000D01*
X541595000Y-155770000D02*
X544555000Y-155770000D01*
X544555000Y-157230000D02*
X541595000Y-157230000D01*
X544555000Y-155770000D02*
X544555000Y-157230000D01*
%TO.C,D56*%
X548000000Y-157250000D02*
X553000000Y-157250000D01*
X553000000Y-159500000D01*
X548000000Y-159500000D01*
X548000000Y-157250000D01*
%TO.C,D31*%
X336000000Y-157250000D02*
X341000000Y-157250000D01*
X341000000Y-159500000D01*
X336000000Y-159500000D01*
X336000000Y-157250000D01*
%TO.C,D23*%
X268000000Y-157250000D02*
X273000000Y-157250000D01*
X273000000Y-159500000D01*
X268000000Y-159500000D01*
X268000000Y-157250000D01*
%TO.C,C71*%
X558595000Y-157230000D02*
X558595000Y-155770000D01*
X558595000Y-155770000D02*
X561555000Y-155770000D01*
X561555000Y-157230000D02*
X558595000Y-157230000D01*
X561555000Y-155770000D02*
X561555000Y-157230000D01*
%TO.C,D49*%
X489000000Y-157250000D02*
X494000000Y-157250000D01*
X494000000Y-159500000D01*
X489000000Y-159500000D01*
X489000000Y-157250000D01*
%TO.C,D59*%
X574000000Y-157250000D02*
X579000000Y-157250000D01*
X579000000Y-159500000D01*
X574000000Y-159500000D01*
X574000000Y-157250000D01*
%TO.C,D10*%
X157000000Y-157250000D02*
X162000000Y-157250000D01*
X162000000Y-159500000D01*
X157000000Y-159500000D01*
X157000000Y-157250000D01*
%TO.C,D30*%
X327000000Y-157250000D02*
X332000000Y-157250000D01*
X332000000Y-159500000D01*
X327000000Y-159500000D01*
X327000000Y-157250000D01*
%TO.C,C42*%
X311595000Y-157230000D02*
X311595000Y-155770000D01*
X311595000Y-155770000D02*
X314555000Y-155770000D01*
X314555000Y-157230000D02*
X311595000Y-157230000D01*
X314555000Y-155770000D02*
X314555000Y-157230000D01*
%TO.C,H8*%
X198000000Y-175500000D02*
X215000000Y-175500000D01*
X215000000Y-219500000D01*
X198000000Y-219500000D01*
X198000000Y-175500000D01*
%TO.C,C53*%
X405595000Y-157230000D02*
X405595000Y-155770000D01*
X405595000Y-155770000D02*
X408555000Y-155770000D01*
X408555000Y-157230000D02*
X405595000Y-157230000D01*
X408555000Y-155770000D02*
X408555000Y-157230000D01*
%TO.C,H40*%
X580450000Y-128500000D02*
G75*
G02*
X573550000Y-128500000I-3450000J0D01*
G01*
X573550000Y-128500000D02*
G75*
G02*
X580450000Y-128500000I3450000J0D01*
G01*
%TO.C,R29*%
X353683000Y-313490000D02*
X356643000Y-313490000D01*
X353683000Y-314950000D02*
X353683000Y-313490000D01*
X356643000Y-313490000D02*
X356643000Y-314950000D01*
X356643000Y-314950000D02*
X353683000Y-314950000D01*
%TO.C,H2*%
X387950000Y-330500000D02*
G75*
G02*
X381050000Y-330500000I-3450000J0D01*
G01*
X381050000Y-330500000D02*
G75*
G02*
X387950000Y-330500000I3450000J0D01*
G01*
%TO.C,R20*%
X362878000Y-282451000D02*
X364338000Y-282451000D01*
X362878000Y-285411000D02*
X362878000Y-282451000D01*
X364338000Y-282451000D02*
X364338000Y-285411000D01*
X364338000Y-285411000D02*
X362878000Y-285411000D01*
%TO.C,R13*%
X335903000Y-313490000D02*
X338863000Y-313490000D01*
X335903000Y-314950000D02*
X335903000Y-313490000D01*
X338863000Y-313490000D02*
X338863000Y-314950000D01*
X338863000Y-314950000D02*
X335903000Y-314950000D01*
%TO.C,R9*%
X323203000Y-313490000D02*
X326163000Y-313490000D01*
X323203000Y-314950000D02*
X323203000Y-313490000D01*
X326163000Y-313490000D02*
X326163000Y-314950000D01*
X326163000Y-314950000D02*
X323203000Y-314950000D01*
%TO.C,H1*%
X320950000Y-268500000D02*
G75*
G02*
X314050000Y-268500000I-3450000J0D01*
G01*
X314050000Y-268500000D02*
G75*
G02*
X320950000Y-268500000I3450000J0D01*
G01*
%TO.C,R18*%
X352793000Y-315522000D02*
X355753000Y-315522000D01*
X352793000Y-316982000D02*
X352793000Y-315522000D01*
X355753000Y-315522000D02*
X355753000Y-316982000D01*
X355753000Y-316982000D02*
X352793000Y-316982000D01*
%TO.C,TP3*%
X319896000Y-280692000D02*
G75*
G02*
X316896000Y-280692000I-1500000J0D01*
G01*
X316896000Y-280692000D02*
G75*
G02*
X319896000Y-280692000I1500000J0D01*
G01*
%TO.C,R7*%
X315583000Y-313490000D02*
X318543000Y-313490000D01*
X315583000Y-314950000D02*
X315583000Y-313490000D01*
X318543000Y-313490000D02*
X318543000Y-314950000D01*
X318543000Y-314950000D02*
X315583000Y-314950000D01*
%TO.C,C5*%
X369482000Y-282451000D02*
X370942000Y-282451000D01*
X369482000Y-285411000D02*
X369482000Y-282451000D01*
X370942000Y-282451000D02*
X370942000Y-285411000D01*
X370942000Y-285411000D02*
X369482000Y-285411000D01*
%TO.C,R23*%
X335173000Y-273607500D02*
X337433000Y-273607500D01*
X335173000Y-278167500D02*
X335173000Y-273607500D01*
X337433000Y-273607500D02*
X337433000Y-278167500D01*
X337433000Y-278167500D02*
X335173000Y-278167500D01*
%TO.C,J1*%
X324800000Y-329250000D02*
X325020000Y-329250000D01*
X324800000Y-333250000D02*
X324800000Y-329250000D01*
X325020000Y-328250000D02*
X327500000Y-328250000D01*
X325020000Y-329250000D02*
X325020000Y-328250000D01*
X325020000Y-333250000D02*
X324800000Y-333250000D01*
X325020000Y-334250000D02*
X325020000Y-333250000D01*
X327500000Y-325750000D02*
X339500000Y-325750000D01*
X327500000Y-328250000D02*
X327500000Y-325750000D01*
X339500000Y-325750000D02*
X339500000Y-328250000D01*
X339500000Y-328250000D02*
X341980000Y-328250000D01*
X341980000Y-328250000D02*
X341980000Y-329250000D01*
X341980000Y-329250000D02*
X342200000Y-329250000D01*
X341980000Y-333250000D02*
X341980000Y-334250000D01*
X341980000Y-334250000D02*
X325020000Y-334250000D01*
X342200000Y-329250000D02*
X342200000Y-333250000D01*
X342200000Y-333250000D02*
X341980000Y-333250000D01*
%TO.C,SW1*%
X346075000Y-265650000D02*
X351925000Y-265650000D01*
X351925000Y-269350000D01*
X346075000Y-269350000D01*
X346075000Y-265650000D01*
%TO.C,R1*%
X354825000Y-284026000D02*
X357785000Y-284026000D01*
X354825000Y-285486000D02*
X354825000Y-284026000D01*
X357785000Y-284026000D02*
X357785000Y-285486000D01*
X357785000Y-285486000D02*
X354825000Y-285486000D01*
%TO.C,C1*%
X317678000Y-282502000D02*
X320638000Y-282502000D01*
X317678000Y-283962000D02*
X317678000Y-282502000D01*
X320638000Y-282502000D02*
X320638000Y-283962000D01*
X320638000Y-283962000D02*
X317678000Y-283962000D01*
%TO.C,TP5*%
X375000000Y-286750000D02*
G75*
G02*
X372000000Y-286750000I-1500000J0D01*
G01*
X372000000Y-286750000D02*
G75*
G02*
X375000000Y-286750000I1500000J0D01*
G01*
%TO.C,C2*%
X317678000Y-284534000D02*
X320638000Y-284534000D01*
X317678000Y-285994000D02*
X317678000Y-284534000D01*
X320638000Y-284534000D02*
X320638000Y-285994000D01*
X320638000Y-285994000D02*
X317678000Y-285994000D01*
%TO.C,U1*%
X364710000Y-282431000D02*
X365880000Y-282431000D01*
X364710000Y-285431000D02*
X364710000Y-282431000D01*
X365880000Y-282231000D02*
X367940000Y-282231000D01*
X365880000Y-282431000D02*
X365880000Y-282231000D01*
X365880000Y-285431000D02*
X364710000Y-285431000D01*
X365880000Y-285631000D02*
X365880000Y-285431000D01*
X367940000Y-282231000D02*
X367940000Y-282431000D01*
X367940000Y-282431000D02*
X369110000Y-282431000D01*
X367940000Y-285431000D02*
X367940000Y-285631000D01*
X367940000Y-285631000D02*
X365880000Y-285631000D01*
X369110000Y-282431000D02*
X369110000Y-285431000D01*
X369110000Y-285431000D02*
X367940000Y-285431000D01*
%TO.C,TP9*%
X352662000Y-280692000D02*
G75*
G02*
X349662000Y-280692000I-1500000J0D01*
G01*
X349662000Y-280692000D02*
G75*
G02*
X352662000Y-280692000I1500000J0D01*
G01*
%TO.C,U2*%
X329833000Y-280041000D02*
X330033000Y-280041000D01*
X329833000Y-284441000D02*
X329833000Y-280041000D01*
X330033000Y-278541000D02*
X340033000Y-278541000D01*
X330033000Y-280041000D02*
X330033000Y-278541000D01*
X330033000Y-284441000D02*
X329833000Y-284441000D01*
X330033000Y-285941000D02*
X330033000Y-284441000D01*
X340033000Y-278541000D02*
X340033000Y-280041000D01*
X340033000Y-280041000D02*
X340233000Y-280041000D01*
X340033000Y-284441000D02*
X340033000Y-285941000D01*
X340033000Y-285941000D02*
X330033000Y-285941000D01*
X340233000Y-280041000D02*
X340233000Y-284441000D01*
X340233000Y-284441000D02*
X340033000Y-284441000D01*
%TO.C,TP7*%
X349614000Y-280692000D02*
G75*
G02*
X346614000Y-280692000I-1500000J0D01*
G01*
X346614000Y-280692000D02*
G75*
G02*
X349614000Y-280692000I1500000J0D01*
G01*
%TO.C,R16*%
X347713000Y-315522000D02*
X350673000Y-315522000D01*
X347713000Y-316982000D02*
X347713000Y-315522000D01*
X350673000Y-315522000D02*
X350673000Y-316982000D01*
X350673000Y-316982000D02*
X347713000Y-316982000D01*
%TO.C,J7*%
X371075000Y-296100000D02*
X373875000Y-296100000D01*
X371075000Y-298310000D02*
X371075000Y-296100000D01*
X371075000Y-300690000D02*
X371275000Y-300690000D01*
X371075000Y-302900000D02*
X371075000Y-300690000D01*
X371275000Y-298310000D02*
X371075000Y-298310000D01*
X371275000Y-300690000D02*
X371275000Y-298310000D01*
X373875000Y-296100000D02*
X373875000Y-296500000D01*
X373875000Y-296500000D02*
X375175000Y-296500000D01*
X373875000Y-302500000D02*
X373875000Y-302900000D01*
X373875000Y-302900000D02*
X371075000Y-302900000D01*
X375175000Y-296500000D02*
X375175000Y-297700000D01*
X375175000Y-297700000D02*
X376275000Y-297700000D01*
X375175000Y-301300000D02*
X375175000Y-302500000D01*
X375175000Y-302500000D02*
X373875000Y-302500000D01*
X376275000Y-297700000D02*
X376275000Y-301300000D01*
X376275000Y-301300000D02*
X375175000Y-301300000D01*
%TO.C,C4*%
X323253000Y-282502000D02*
X326213000Y-282502000D01*
X323253000Y-283962000D02*
X323253000Y-282502000D01*
X326213000Y-282502000D02*
X326213000Y-283962000D01*
X326213000Y-283962000D02*
X323253000Y-283962000D01*
%TO.C,R15*%
X340983000Y-313490000D02*
X343943000Y-313490000D01*
X340983000Y-314950000D02*
X340983000Y-313490000D01*
X343943000Y-313490000D02*
X343943000Y-314950000D01*
X343943000Y-314950000D02*
X340983000Y-314950000D01*
%TO.C,J3*%
X359800000Y-329250000D02*
X360020000Y-329250000D01*
X359800000Y-333250000D02*
X359800000Y-329250000D01*
X360020000Y-328250000D02*
X362500000Y-328250000D01*
X360020000Y-329250000D02*
X360020000Y-328250000D01*
X360020000Y-333250000D02*
X359800000Y-333250000D01*
X360020000Y-334250000D02*
X360020000Y-333250000D01*
X362500000Y-325750000D02*
X374500000Y-325750000D01*
X362500000Y-328250000D02*
X362500000Y-325750000D01*
X374500000Y-325750000D02*
X374500000Y-328250000D01*
X374500000Y-328250000D02*
X376980000Y-328250000D01*
X376980000Y-328250000D02*
X376980000Y-329250000D01*
X376980000Y-329250000D02*
X377200000Y-329250000D01*
X376980000Y-333250000D02*
X376980000Y-334250000D01*
X376980000Y-334250000D02*
X360020000Y-334250000D01*
X377200000Y-329250000D02*
X377200000Y-333250000D01*
X377200000Y-333250000D02*
X376980000Y-333250000D01*
%TO.C,R2*%
X351651000Y-284026000D02*
X354611000Y-284026000D01*
X351651000Y-285486000D02*
X351651000Y-284026000D01*
X354611000Y-284026000D02*
X354611000Y-285486000D01*
X354611000Y-285486000D02*
X351651000Y-285486000D01*
%TO.C,TP8*%
X358750000Y-281798000D02*
G75*
G02*
X355750000Y-281798000I-1500000J0D01*
G01*
X355750000Y-281798000D02*
G75*
G02*
X358750000Y-281798000I1500000J0D01*
G01*
%TO.C,J4*%
X379750000Y-294500000D02*
X382250000Y-294500000D01*
X379750000Y-304500000D02*
X379750000Y-294500000D01*
X382250000Y-292020000D02*
X383250000Y-292020000D01*
X382250000Y-294500000D02*
X382250000Y-292020000D01*
X382250000Y-304500000D02*
X379750000Y-304500000D01*
X382250000Y-306980000D02*
X382250000Y-304500000D01*
X383250000Y-291800000D02*
X387250000Y-291800000D01*
X383250000Y-292020000D02*
X383250000Y-291800000D01*
X383250000Y-306980000D02*
X382250000Y-306980000D01*
X383250000Y-307200000D02*
X383250000Y-306980000D01*
X387250000Y-291800000D02*
X387250000Y-292020000D01*
X387250000Y-292020000D02*
X388250000Y-292020000D01*
X387250000Y-306980000D02*
X387250000Y-307200000D01*
X387250000Y-307200000D02*
X383250000Y-307200000D01*
X388250000Y-292020000D02*
X388250000Y-306980000D01*
X388250000Y-306980000D02*
X387250000Y-306980000D01*
%TO.C,R17*%
X348603000Y-313490000D02*
X351563000Y-313490000D01*
X348603000Y-314950000D02*
X348603000Y-313490000D01*
X351563000Y-313490000D02*
X351563000Y-314950000D01*
X351563000Y-314950000D02*
X348603000Y-314950000D01*
%TO.C,R4*%
X346571000Y-282248000D02*
X349531000Y-282248000D01*
X346571000Y-283708000D02*
X346571000Y-282248000D01*
X349531000Y-282248000D02*
X349531000Y-283708000D01*
X349531000Y-283708000D02*
X346571000Y-283708000D01*
%TO.C,R28*%
X360413000Y-315522000D02*
X363373000Y-315522000D01*
X360413000Y-316982000D02*
X360413000Y-315522000D01*
X363373000Y-315522000D02*
X363373000Y-316982000D01*
X363373000Y-316982000D02*
X360413000Y-316982000D01*
%TO.C,R27*%
X361278000Y-313490000D02*
X364238000Y-313490000D01*
X361278000Y-314950000D02*
X361278000Y-313490000D01*
X364238000Y-313490000D02*
X364238000Y-314950000D01*
X364238000Y-314950000D02*
X361278000Y-314950000D01*
%TO.C,R8*%
X322313000Y-315522000D02*
X325273000Y-315522000D01*
X322313000Y-316982000D02*
X322313000Y-315522000D01*
X325273000Y-315522000D02*
X325273000Y-316982000D01*
X325273000Y-316982000D02*
X322313000Y-316982000D01*
%TO.C,FID4*%
X387750000Y-272500000D02*
G75*
G02*
X385750000Y-272500000I-1000000J0D01*
G01*
X385750000Y-272500000D02*
G75*
G02*
X387750000Y-272500000I1000000J0D01*
G01*
%TO.C,R3*%
X349745000Y-282248000D02*
X352705000Y-282248000D01*
X349745000Y-283708000D02*
X349745000Y-282248000D01*
X352705000Y-282248000D02*
X352705000Y-283708000D01*
X352705000Y-283708000D02*
X349745000Y-283708000D01*
%TO.C,J6*%
X324800000Y-265750000D02*
X325020000Y-265750000D01*
X324800000Y-269750000D02*
X324800000Y-265750000D01*
X325020000Y-264750000D02*
X341980000Y-264750000D01*
X325020000Y-265750000D02*
X325020000Y-264750000D01*
X325020000Y-269750000D02*
X324800000Y-269750000D01*
X325020000Y-270750000D02*
X325020000Y-269750000D01*
X327500000Y-270750000D02*
X325020000Y-270750000D01*
X327500000Y-273250000D02*
X327500000Y-270750000D01*
X339500000Y-270750000D02*
X339500000Y-273250000D01*
X339500000Y-273250000D02*
X327500000Y-273250000D01*
X341980000Y-264750000D02*
X341980000Y-265750000D01*
X341980000Y-265750000D02*
X342200000Y-265750000D01*
X341980000Y-269750000D02*
X341980000Y-270750000D01*
X341980000Y-270750000D02*
X339500000Y-270750000D01*
X342200000Y-265750000D02*
X342200000Y-269750000D01*
X342200000Y-269750000D02*
X341980000Y-269750000D01*
%TO.C,R5*%
X341363000Y-283986000D02*
X344323000Y-283986000D01*
X341363000Y-285446000D02*
X341363000Y-283986000D01*
X344323000Y-283986000D02*
X344323000Y-285446000D01*
X344323000Y-285446000D02*
X341363000Y-285446000D01*
%TO.C,R22*%
X332633000Y-273607500D02*
X334893000Y-273607500D01*
X332633000Y-278167500D02*
X332633000Y-273607500D01*
X334893000Y-273607500D02*
X334893000Y-278167500D01*
X334893000Y-278167500D02*
X332633000Y-278167500D01*
%TO.C,TP6*%
X358750000Y-278750000D02*
G75*
G02*
X355750000Y-278750000I-1500000J0D01*
G01*
X355750000Y-278750000D02*
G75*
G02*
X358750000Y-278750000I1500000J0D01*
G01*
%TO.C,TP4*%
X327516000Y-280692000D02*
G75*
G02*
X324516000Y-280692000I-1500000J0D01*
G01*
X324516000Y-280692000D02*
G75*
G02*
X327516000Y-280692000I1500000J0D01*
G01*
%TO.C,R19*%
X367970000Y-286058000D02*
X370930000Y-286058000D01*
X367970000Y-287518000D02*
X367970000Y-286058000D01*
X370930000Y-286058000D02*
X370930000Y-287518000D01*
X370930000Y-287518000D02*
X367970000Y-287518000D01*
%TO.C,TP10*%
X343500000Y-280000000D02*
G75*
G02*
X340500000Y-280000000I-1500000J0D01*
G01*
X340500000Y-280000000D02*
G75*
G02*
X343500000Y-280000000I1500000J0D01*
G01*
%TO.C,R14*%
X340093000Y-315522000D02*
X343053000Y-315522000D01*
X340093000Y-316982000D02*
X340093000Y-315522000D01*
X343053000Y-315522000D02*
X343053000Y-316982000D01*
X343053000Y-316982000D02*
X340093000Y-316982000D01*
%TO.C,TP12*%
X323452000Y-280692000D02*
G75*
G02*
X320452000Y-280692000I-1500000J0D01*
G01*
X320452000Y-280692000D02*
G75*
G02*
X323452000Y-280692000I1500000J0D01*
G01*
%TO.C,R21*%
X330093000Y-273607500D02*
X332353000Y-273607500D01*
X330093000Y-278167500D02*
X330093000Y-273607500D01*
X332353000Y-273607500D02*
X332353000Y-278167500D01*
X332353000Y-278167500D02*
X330093000Y-278167500D01*
%TO.C,H4*%
X320950000Y-330500000D02*
G75*
G02*
X314050000Y-330500000I-3450000J0D01*
G01*
X314050000Y-330500000D02*
G75*
G02*
X320950000Y-330500000I3450000J0D01*
G01*
%TO.C,H3*%
X387950000Y-268500000D02*
G75*
G02*
X381050000Y-268500000I-3450000J0D01*
G01*
X381050000Y-268500000D02*
G75*
G02*
X387950000Y-268500000I3450000J0D01*
G01*
%TO.C,FID3*%
X322500000Y-332750000D02*
G75*
G02*
X320500000Y-332750000I-1000000J0D01*
G01*
X320500000Y-332750000D02*
G75*
G02*
X322500000Y-332750000I1000000J0D01*
G01*
%TO.C,FID2*%
X316250000Y-326500000D02*
G75*
G02*
X314250000Y-326500000I-1000000J0D01*
G01*
X314250000Y-326500000D02*
G75*
G02*
X316250000Y-326500000I1000000J0D01*
G01*
%TO.C,TP2*%
X370000000Y-297000000D02*
G75*
G02*
X367000000Y-297000000I-1500000J0D01*
G01*
X367000000Y-297000000D02*
G75*
G02*
X370000000Y-297000000I1500000J0D01*
G01*
%TO.C,JP1*%
X314098000Y-285532000D02*
X314098000Y-282232000D01*
X314098000Y-285532000D02*
X316598000Y-285532000D01*
X316598000Y-282232000D02*
X314098000Y-282232000D01*
X316598000Y-282232000D02*
X316598000Y-285532000D01*
%TO.C,A1*%
X366050000Y-311040000D02*
X313750000Y-311040000D01*
X313750000Y-304000000D01*
X312200000Y-304000000D01*
X312200000Y-295000000D01*
X313750000Y-295000000D01*
X313750000Y-287960000D01*
X366050000Y-287960000D01*
X366050000Y-311040000D01*
%TO.C,R11*%
X328283000Y-313490000D02*
X331243000Y-313490000D01*
X328283000Y-314950000D02*
X328283000Y-313490000D01*
X331243000Y-313490000D02*
X331243000Y-314950000D01*
X331243000Y-314950000D02*
X328283000Y-314950000D01*
%TO.C,R6*%
X314693000Y-315522000D02*
X317653000Y-315522000D01*
X314693000Y-316982000D02*
X314693000Y-315522000D01*
X317653000Y-315522000D02*
X317653000Y-316982000D01*
X317653000Y-316982000D02*
X314693000Y-316982000D01*
%TO.C,R10*%
X327393000Y-315522000D02*
X330353000Y-315522000D01*
X327393000Y-316982000D02*
X327393000Y-315522000D01*
X330353000Y-315522000D02*
X330353000Y-316982000D01*
X330353000Y-316982000D02*
X327393000Y-316982000D01*
%TO.C,R24*%
X337713000Y-273607500D02*
X339973000Y-273607500D01*
X337713000Y-278167500D02*
X337713000Y-273607500D01*
X339973000Y-273607500D02*
X339973000Y-278167500D01*
X339973000Y-278167500D02*
X337713000Y-278167500D01*
%TO.C,FID1*%
X381500000Y-266250000D02*
G75*
G02*
X379500000Y-266250000I-1000000J0D01*
G01*
X379500000Y-266250000D02*
G75*
G02*
X381500000Y-266250000I1000000J0D01*
G01*
%TO.C,C3*%
X323253000Y-284534000D02*
X326213000Y-284534000D01*
X323253000Y-285994000D02*
X323253000Y-284534000D01*
X326213000Y-284534000D02*
X326213000Y-285994000D01*
X326213000Y-285994000D02*
X323253000Y-285994000D01*
%TO.C,TP11*%
X355000000Y-277500000D02*
G75*
G02*
X352000000Y-277500000I-1500000J0D01*
G01*
X352000000Y-277500000D02*
G75*
G02*
X355000000Y-277500000I1500000J0D01*
G01*
%TO.C,R12*%
X335013000Y-315522000D02*
X337973000Y-315522000D01*
X335013000Y-316982000D02*
X335013000Y-315522000D01*
X337973000Y-315522000D02*
X337973000Y-316982000D01*
X337973000Y-316982000D02*
X335013000Y-316982000D01*
%TO.C,TP1*%
X370000000Y-302000000D02*
G75*
G02*
X367000000Y-302000000I-1500000J0D01*
G01*
X367000000Y-302000000D02*
G75*
G02*
X370000000Y-302000000I1500000J0D01*
G01*
%TO.C,R26*%
X368783000Y-288356000D02*
X370243000Y-288356000D01*
X368783000Y-291316000D02*
X368783000Y-288356000D01*
X370243000Y-288356000D02*
X370243000Y-291316000D01*
X370243000Y-291316000D02*
X368783000Y-291316000D01*
%TO.C,J5*%
X355800000Y-265750000D02*
X356020000Y-265750000D01*
X355800000Y-269750000D02*
X355800000Y-265750000D01*
X356020000Y-264750000D02*
X376980000Y-264750000D01*
X356020000Y-265750000D02*
X356020000Y-264750000D01*
X356020000Y-269750000D02*
X355800000Y-269750000D01*
X356020000Y-270750000D02*
X356020000Y-269750000D01*
X358500000Y-270750000D02*
X356020000Y-270750000D01*
X358500000Y-273250000D02*
X358500000Y-270750000D01*
X374500000Y-270750000D02*
X374500000Y-273250000D01*
X374500000Y-273250000D02*
X358500000Y-273250000D01*
X376980000Y-264750000D02*
X376980000Y-265750000D01*
X376980000Y-265750000D02*
X377200000Y-265750000D01*
X376980000Y-269750000D02*
X376980000Y-270750000D01*
X376980000Y-270750000D02*
X374500000Y-270750000D01*
X377200000Y-265750000D02*
X377200000Y-269750000D01*
X377200000Y-269750000D02*
X376980000Y-269750000D01*
%TO.C,J2*%
X344300000Y-329250000D02*
X344520000Y-329250000D01*
X344300000Y-333250000D02*
X344300000Y-329250000D01*
X344520000Y-328250000D02*
X347000000Y-328250000D01*
X344520000Y-329250000D02*
X344520000Y-328250000D01*
X344520000Y-333250000D02*
X344300000Y-333250000D01*
X344520000Y-334250000D02*
X344520000Y-333250000D01*
X347000000Y-325750000D02*
X355000000Y-325750000D01*
X347000000Y-328250000D02*
X347000000Y-325750000D01*
X355000000Y-325750000D02*
X355000000Y-328250000D01*
X355000000Y-328250000D02*
X357480000Y-328250000D01*
X357480000Y-328250000D02*
X357480000Y-329250000D01*
X357480000Y-329250000D02*
X357700000Y-329250000D01*
X357480000Y-333250000D02*
X357480000Y-334250000D01*
X357480000Y-334250000D02*
X344520000Y-334250000D01*
X357700000Y-329250000D02*
X357700000Y-333250000D01*
X357700000Y-333250000D02*
X357480000Y-333250000D01*
%TO.C,TP4*%
X219314000Y-462548000D02*
G75*
G02*
X216814000Y-462548000I-1250000J0D01*
G01*
X216814000Y-462548000D02*
G75*
G02*
X219314000Y-462548000I1250000J0D01*
G01*
%TO.C,R18*%
X125270000Y-458980000D02*
X125270000Y-457520000D01*
X125270000Y-457520000D02*
X128230000Y-457520000D01*
X128230000Y-458980000D02*
X125270000Y-458980000D01*
X128230000Y-457520000D02*
X128230000Y-458980000D01*
%TO.C,C9*%
X415085302Y-453317678D02*
X416117678Y-452285302D01*
X416117678Y-452285302D02*
X418210714Y-454378338D01*
X417178338Y-455410714D02*
X415085302Y-453317678D01*
X418210714Y-454378338D02*
X417178338Y-455410714D01*
%TO.C,J2*%
X130300000Y-473250000D02*
X130300000Y-469250000D01*
X130300000Y-469250000D02*
X130520000Y-469250000D01*
X130520000Y-474250000D02*
X130520000Y-473250000D01*
X130520000Y-473250000D02*
X130300000Y-473250000D01*
X130520000Y-469250000D02*
X130520000Y-468250000D01*
X130520000Y-468250000D02*
X133000000Y-468250000D01*
X133000000Y-468250000D02*
X133000000Y-465750000D01*
X133000000Y-465750000D02*
X149000000Y-465750000D01*
X149000000Y-468250000D02*
X151480000Y-468250000D01*
X149000000Y-465750000D02*
X149000000Y-468250000D01*
X151480000Y-474250000D02*
X130520000Y-474250000D01*
X151480000Y-473250000D02*
X151480000Y-474250000D01*
X151480000Y-469250000D02*
X151700000Y-469250000D01*
X151480000Y-468250000D02*
X151480000Y-469250000D01*
X151700000Y-473250000D02*
X151480000Y-473250000D01*
X151700000Y-469250000D02*
X151700000Y-473250000D01*
%TO.C,C5*%
X140785302Y-453267678D02*
X141817678Y-452235302D01*
X141817678Y-452235302D02*
X143910714Y-454328338D01*
X142878338Y-455360714D02*
X140785302Y-453267678D01*
X143910714Y-454328338D02*
X142878338Y-455360714D01*
%TO.C,U4*%
X144525126Y-449250000D02*
X144949390Y-448825736D01*
X144701903Y-449921751D02*
X144949390Y-449674264D01*
X144701903Y-448578249D02*
X146328249Y-446951903D01*
X144949390Y-449674264D02*
X144525126Y-449250000D01*
X144949390Y-448825736D02*
X144701903Y-448578249D01*
X146328249Y-451548097D02*
X144701903Y-449921751D01*
X146328249Y-446951903D02*
X146575736Y-447199390D01*
X146575736Y-451300610D02*
X146328249Y-451548097D01*
X146575736Y-447199390D02*
X147000000Y-446775126D01*
X147000000Y-451724874D02*
X146575736Y-451300610D01*
X147000000Y-446775126D02*
X147424264Y-447199390D01*
X147424264Y-451300610D02*
X147000000Y-451724874D01*
X147424264Y-447199390D02*
X147671751Y-446951903D01*
X147671751Y-451548097D02*
X147424264Y-451300610D01*
X147671751Y-446951903D02*
X149298097Y-448578249D01*
X149050610Y-449674264D02*
X149298097Y-449921751D01*
X149050610Y-448825736D02*
X149474874Y-449250000D01*
X149298097Y-449921751D02*
X147671751Y-451548097D01*
X149298097Y-448578249D02*
X149050610Y-448825736D01*
X149474874Y-449250000D02*
X149050610Y-449674264D01*
%TO.C,R9*%
X548853931Y-451069670D02*
X549886307Y-450037294D01*
X549886307Y-450037294D02*
X551979343Y-452130330D01*
X550946967Y-453162706D02*
X548853931Y-451069670D01*
X551979343Y-452130330D02*
X550946967Y-453162706D01*
%TO.C,C1*%
X209460000Y-469355000D02*
X209460000Y-466395000D01*
X209460000Y-466395000D02*
X210920000Y-466395000D01*
X210920000Y-469355000D02*
X209460000Y-469355000D01*
X210920000Y-466395000D02*
X210920000Y-469355000D01*
%TO.C,U5*%
X125050000Y-462530000D02*
X125050000Y-460470000D01*
X125050000Y-460470000D02*
X125250000Y-460470000D01*
X125250000Y-463700000D02*
X125250000Y-462530000D01*
X125250000Y-462530000D02*
X125050000Y-462530000D01*
X125250000Y-460470000D02*
X125250000Y-459300000D01*
X125250000Y-459300000D02*
X128250000Y-459300000D01*
X128250000Y-463700000D02*
X125250000Y-463700000D01*
X128250000Y-462530000D02*
X128250000Y-463700000D01*
X128250000Y-460470000D02*
X128450000Y-460470000D01*
X128250000Y-459300000D02*
X128250000Y-460470000D01*
X128450000Y-462530000D02*
X128250000Y-462530000D01*
X128450000Y-460470000D02*
X128450000Y-462530000D01*
%TO.C,C3*%
X412785302Y-453267678D02*
X413817678Y-452235302D01*
X413817678Y-452235302D02*
X415910714Y-454328338D01*
X414878338Y-455360714D02*
X412785302Y-453267678D01*
X415910714Y-454328338D02*
X414878338Y-455360714D01*
%TO.C,TP2*%
X216266000Y-462548000D02*
G75*
G02*
X213766000Y-462548000I-1250000J0D01*
G01*
X213766000Y-462548000D02*
G75*
G02*
X216266000Y-462548000I1250000J0D01*
G01*
%TO.C,C6*%
X134520000Y-463250000D02*
X134520000Y-459850000D01*
X134520000Y-459850000D02*
X136480000Y-459850000D01*
X136480000Y-463250000D02*
X134520000Y-463250000D01*
X136480000Y-459850000D02*
X136480000Y-463250000D01*
%TO.C,C12*%
X137020000Y-463250000D02*
X137020000Y-459850000D01*
X137020000Y-459850000D02*
X138980000Y-459850000D01*
X138980000Y-463250000D02*
X137020000Y-463250000D01*
X138980000Y-459850000D02*
X138980000Y-463250000D01*
%TO.C,U3*%
X280525126Y-449250000D02*
X280949390Y-448825736D01*
X280701903Y-449921751D02*
X280949390Y-449674264D01*
X280701903Y-448578249D02*
X282328249Y-446951903D01*
X280949390Y-449674264D02*
X280525126Y-449250000D01*
X280949390Y-448825736D02*
X280701903Y-448578249D01*
X282328249Y-451548097D02*
X280701903Y-449921751D01*
X282328249Y-446951903D02*
X282575736Y-447199390D01*
X282575736Y-451300610D02*
X282328249Y-451548097D01*
X282575736Y-447199390D02*
X283000000Y-446775126D01*
X283000000Y-451724874D02*
X282575736Y-451300610D01*
X283000000Y-446775126D02*
X283424264Y-447199390D01*
X283424264Y-451300610D02*
X283000000Y-451724874D01*
X283424264Y-447199390D02*
X283671751Y-446951903D01*
X283671751Y-451548097D02*
X283424264Y-451300610D01*
X283671751Y-446951903D02*
X285298097Y-448578249D01*
X285050610Y-449674264D02*
X285298097Y-449921751D01*
X285050610Y-448825736D02*
X285474874Y-449250000D01*
X285298097Y-449921751D02*
X283671751Y-451548097D01*
X285298097Y-448578249D02*
X285050610Y-448825736D01*
X285474874Y-449250000D02*
X285050610Y-449674264D01*
%TO.C,TP1*%
X213000000Y-462548000D02*
G75*
G02*
X210500000Y-462548000I-1250000J0D01*
G01*
X210500000Y-462548000D02*
G75*
G02*
X213000000Y-462548000I1250000J0D01*
G01*
%TO.C,C10*%
X279085302Y-453317678D02*
X280117678Y-452285302D01*
X280117678Y-452285302D02*
X282210714Y-454378338D01*
X281178338Y-455410714D02*
X279085302Y-453317678D01*
X282210714Y-454378338D02*
X281178338Y-455410714D01*
%TO.C,R11*%
X276853931Y-451069670D02*
X277886307Y-450037294D01*
X277886307Y-450037294D02*
X279979343Y-452130330D01*
X278946967Y-453162706D02*
X276853931Y-451069670D01*
X279979343Y-452130330D02*
X278946967Y-453162706D01*
%TO.C,TP3*%
X157250000Y-452500000D02*
G75*
G02*
X154750000Y-452500000I-1250000J0D01*
G01*
X154750000Y-452500000D02*
G75*
G02*
X157250000Y-452500000I1250000J0D01*
G01*
%TO.C,R1*%
X213473000Y-469882000D02*
X213473000Y-468422000D01*
X213473000Y-468422000D02*
X216433000Y-468422000D01*
X216433000Y-469882000D02*
X213473000Y-469882000D01*
X216433000Y-468422000D02*
X216433000Y-469882000D01*
%TO.C,R12*%
X140853931Y-451069670D02*
X141886307Y-450037294D01*
X141886307Y-450037294D02*
X143979343Y-452130330D01*
X142946967Y-453162706D02*
X140853931Y-451069670D01*
X143979343Y-452130330D02*
X142946967Y-453162706D01*
%TO.C,R2*%
X216647000Y-469882000D02*
X216647000Y-468422000D01*
X216647000Y-468422000D02*
X219607000Y-468422000D01*
X219607000Y-469882000D02*
X216647000Y-469882000D01*
X219607000Y-468422000D02*
X219607000Y-469882000D01*
%TO.C,TP10*%
X136750000Y-456500000D02*
G75*
G02*
X134250000Y-456500000I-1250000J0D01*
G01*
X134250000Y-456500000D02*
G75*
G02*
X136750000Y-456500000I1250000J0D01*
G01*
%TO.C,R3*%
X545670568Y-454202944D02*
X546702944Y-453170568D01*
X546702944Y-453170568D02*
X548795980Y-455263604D01*
X547763604Y-456295980D02*
X545670568Y-454202944D01*
X548795980Y-455263604D02*
X547763604Y-456295980D01*
%TO.C,C2*%
X548785302Y-453267678D02*
X549817678Y-452235302D01*
X549817678Y-452235302D02*
X551910714Y-454328338D01*
X550878338Y-455360714D02*
X548785302Y-453267678D01*
X551910714Y-454328338D02*
X550878338Y-455360714D01*
%TO.C,TP12*%
X140500000Y-453250000D02*
G75*
G02*
X138000000Y-453250000I-1250000J0D01*
G01*
X138000000Y-453250000D02*
G75*
G02*
X140500000Y-453250000I1250000J0D01*
G01*
%TO.C,TP14*%
X209050000Y-467100000D02*
G75*
G02*
X206550000Y-467100000I-1250000J0D01*
G01*
X206550000Y-467100000D02*
G75*
G02*
X209050000Y-467100000I1250000J0D01*
G01*
%TO.C,R13*%
X553337294Y-453369670D02*
X554369670Y-452337294D01*
X554369670Y-452337294D02*
X556462706Y-454430330D01*
X555430330Y-455462706D02*
X553337294Y-453369670D01*
X556462706Y-454430330D02*
X555430330Y-455462706D01*
%TO.C,TP13*%
X125000000Y-458250000D02*
G75*
G02*
X122500000Y-458250000I-1250000J0D01*
G01*
X122500000Y-458250000D02*
G75*
G02*
X125000000Y-458250000I1250000J0D01*
G01*
%TO.C,C14*%
X128770000Y-463230000D02*
X128770000Y-460270000D01*
X128770000Y-460270000D02*
X130230000Y-460270000D01*
X130230000Y-463230000D02*
X128770000Y-463230000D01*
X130230000Y-460270000D02*
X130230000Y-463230000D01*
%TO.C,R14*%
X417337294Y-453369670D02*
X418369670Y-452337294D01*
X418369670Y-452337294D02*
X420462706Y-454430330D01*
X419430330Y-455462706D02*
X417337294Y-453369670D01*
X420462706Y-454430330D02*
X419430330Y-455462706D01*
%TO.C,FID2*%
X79250000Y-378750000D02*
G75*
G02*
X77250000Y-378750000I-1000000J0D01*
G01*
X77250000Y-378750000D02*
G75*
G02*
X79250000Y-378750000I1000000J0D01*
G01*
%TO.C,R6*%
X145270000Y-463155000D02*
X145270000Y-460195000D01*
X145270000Y-460195000D02*
X146730000Y-460195000D01*
X146730000Y-463155000D02*
X145270000Y-463155000D01*
X146730000Y-460195000D02*
X146730000Y-463155000D01*
%TO.C,TP5*%
X157250000Y-455000000D02*
G75*
G02*
X154750000Y-455000000I-1250000J0D01*
G01*
X154750000Y-455000000D02*
G75*
G02*
X157250000Y-455000000I1250000J0D01*
G01*
%TO.C,TP11*%
X132750000Y-461000000D02*
G75*
G02*
X130250000Y-461000000I-1250000J0D01*
G01*
X130250000Y-461000000D02*
G75*
G02*
X132750000Y-461000000I1250000J0D01*
G01*
%TO.C,C8*%
X551085302Y-453317678D02*
X552117678Y-452285302D01*
X552117678Y-452285302D02*
X554210714Y-454378338D01*
X553178338Y-455410714D02*
X551085302Y-453317678D01*
X554210714Y-454378338D02*
X553178338Y-455410714D01*
%TO.C,TP8*%
X545250000Y-459000000D02*
G75*
G02*
X542750000Y-459000000I-1250000J0D01*
G01*
X542750000Y-459000000D02*
G75*
G02*
X545250000Y-459000000I1250000J0D01*
G01*
%TO.C,FID1*%
X573750000Y-472750000D02*
G75*
G02*
X571750000Y-472750000I-1000000J0D01*
G01*
X571750000Y-472750000D02*
G75*
G02*
X573750000Y-472750000I1000000J0D01*
G01*
%TO.C,R15*%
X281337294Y-453369670D02*
X282369670Y-452337294D01*
X282369670Y-452337294D02*
X284462706Y-454430330D01*
X283430330Y-455462706D02*
X281337294Y-453369670D01*
X284462706Y-454430330D02*
X283430330Y-455462706D01*
%TO.C,U1*%
X552525126Y-449250000D02*
X552949390Y-448825736D01*
X552701903Y-449921751D02*
X552949390Y-449674264D01*
X552701903Y-448578249D02*
X554328249Y-446951903D01*
X552949390Y-449674264D02*
X552525126Y-449250000D01*
X552949390Y-448825736D02*
X552701903Y-448578249D01*
X554328249Y-451548097D02*
X552701903Y-449921751D01*
X554328249Y-446951903D02*
X554575736Y-447199390D01*
X554575736Y-451300610D02*
X554328249Y-451548097D01*
X554575736Y-447199390D02*
X555000000Y-446775126D01*
X555000000Y-451724874D02*
X554575736Y-451300610D01*
X555000000Y-446775126D02*
X555424264Y-447199390D01*
X555424264Y-451300610D02*
X555000000Y-451724874D01*
X555424264Y-447199390D02*
X555671751Y-446951903D01*
X555671751Y-451548097D02*
X555424264Y-451300610D01*
X555671751Y-446951903D02*
X557298097Y-448578249D01*
X557050610Y-449674264D02*
X557298097Y-449921751D01*
X557050610Y-448825736D02*
X557474874Y-449250000D01*
X557298097Y-449921751D02*
X555671751Y-451548097D01*
X557298097Y-448578249D02*
X557050610Y-448825736D01*
X557474874Y-449250000D02*
X557050610Y-449674264D01*
%TO.C,R7*%
X141270000Y-463155000D02*
X141270000Y-460195000D01*
X141270000Y-460195000D02*
X142730000Y-460195000D01*
X142730000Y-463155000D02*
X141270000Y-463155000D01*
X142730000Y-460195000D02*
X142730000Y-463155000D01*
%TO.C,U2*%
X416525126Y-449250000D02*
X416949390Y-448825736D01*
X416701903Y-449921751D02*
X416949390Y-449674264D01*
X416701903Y-448578249D02*
X418328249Y-446951903D01*
X416949390Y-449674264D02*
X416525126Y-449250000D01*
X416949390Y-448825736D02*
X416701903Y-448578249D01*
X418328249Y-451548097D02*
X416701903Y-449921751D01*
X418328249Y-446951903D02*
X418575736Y-447199390D01*
X418575736Y-451300610D02*
X418328249Y-451548097D01*
X418575736Y-447199390D02*
X419000000Y-446775126D01*
X419000000Y-451724874D02*
X418575736Y-451300610D01*
X419000000Y-446775126D02*
X419424264Y-447199390D01*
X419424264Y-451300610D02*
X419000000Y-451724874D01*
X419424264Y-447199390D02*
X419671751Y-446951903D01*
X419671751Y-451548097D02*
X419424264Y-451300610D01*
X419671751Y-446951903D02*
X421298097Y-448578249D01*
X421050610Y-449674264D02*
X421298097Y-449921751D01*
X421050610Y-448825736D02*
X421474874Y-449250000D01*
X421298097Y-449921751D02*
X419671751Y-451548097D01*
X421298097Y-448578249D02*
X421050610Y-448825736D01*
X421474874Y-449250000D02*
X421050610Y-449674264D01*
%TO.C,R4*%
X547937294Y-456469670D02*
X548969670Y-455437294D01*
X548969670Y-455437294D02*
X551062706Y-457530330D01*
X550030330Y-458562706D02*
X547937294Y-456469670D01*
X551062706Y-457530330D02*
X550030330Y-458562706D01*
%TO.C,R17*%
X125270000Y-465480000D02*
X125270000Y-464020000D01*
X125270000Y-464020000D02*
X128230000Y-464020000D01*
X128230000Y-465480000D02*
X125270000Y-465480000D01*
X128230000Y-464020000D02*
X128230000Y-465480000D01*
%TO.C,TP9*%
X542500000Y-461000000D02*
G75*
G02*
X540000000Y-461000000I-1250000J0D01*
G01*
X540000000Y-461000000D02*
G75*
G02*
X542500000Y-461000000I1250000J0D01*
G01*
%TO.C,C11*%
X143085302Y-453317678D02*
X144117678Y-452285302D01*
X144117678Y-452285302D02*
X146210714Y-454378338D01*
X145178338Y-455410714D02*
X143085302Y-453317678D01*
X146210714Y-454378338D02*
X145178338Y-455410714D01*
%TO.C,R16*%
X145337294Y-453369670D02*
X146369670Y-452337294D01*
X146369670Y-452337294D02*
X148462706Y-454430330D01*
X147430330Y-455462706D02*
X145337294Y-453369670D01*
X148462706Y-454430330D02*
X147430330Y-455462706D01*
%TO.C,R8*%
X143270000Y-463155000D02*
X143270000Y-460195000D01*
X143270000Y-460195000D02*
X144730000Y-460195000D01*
X144730000Y-463155000D02*
X143270000Y-463155000D01*
X144730000Y-460195000D02*
X144730000Y-463155000D01*
%TO.C,C4*%
X276785302Y-453267678D02*
X277817678Y-452235302D01*
X277817678Y-452235302D02*
X279910714Y-454328338D01*
X278878338Y-455360714D02*
X276785302Y-453267678D01*
X279910714Y-454328338D02*
X278878338Y-455360714D01*
%TO.C,TP6*%
X545250000Y-456500000D02*
G75*
G02*
X542750000Y-456500000I-1250000J0D01*
G01*
X542750000Y-456500000D02*
G75*
G02*
X545250000Y-456500000I1250000J0D01*
G01*
%TO.C,R10*%
X412853931Y-451069670D02*
X413886307Y-450037294D01*
X413886307Y-450037294D02*
X415979343Y-452130330D01*
X414946967Y-453162706D02*
X412853931Y-451069670D01*
X415979343Y-452130330D02*
X414946967Y-453162706D01*
%TO.C,C7*%
X132770000Y-463205000D02*
X132770000Y-460245000D01*
X132770000Y-460245000D02*
X134230000Y-460245000D01*
X134230000Y-463205000D02*
X132770000Y-463205000D01*
X134230000Y-460245000D02*
X134230000Y-463205000D01*
%TO.C,C13*%
X139270000Y-463210000D02*
X139270000Y-460250000D01*
X139270000Y-460250000D02*
X140730000Y-460250000D01*
X140730000Y-463210000D02*
X139270000Y-463210000D01*
X140730000Y-460250000D02*
X140730000Y-463210000D01*
%TO.C,TP7*%
X545250000Y-462670000D02*
G75*
G02*
X542750000Y-462670000I-1250000J0D01*
G01*
X542750000Y-462670000D02*
G75*
G02*
X545250000Y-462670000I1250000J0D01*
G01*
%TO.C,R5*%
X147270000Y-463155000D02*
X147270000Y-460195000D01*
X147270000Y-460195000D02*
X148730000Y-460195000D01*
X148730000Y-463155000D02*
X147270000Y-463155000D01*
X148730000Y-460195000D02*
X148730000Y-463155000D01*
%TD*%
M02*
